<?xml version="1.0" encoding="utf-8" standalone="no"?>
<!DOCTYPE svg PUBLIC "-//W3C//DTD SVG 1.1//EN"
  "http://www.w3.org/Graphics/SVG/1.1/DTD/svg11.dtd">
<svg xmlns:xlink="http://www.w3.org/1999/xlink" width="912.357187pt" height="325.986375pt" viewBox="0 0 912.357187 325.986375" xmlns="http://www.w3.org/2000/svg" version="1.1">
 <metadata>
  <rdf:RDF xmlns:dc="http://purl.org/dc/elements/1.1/" xmlns:cc="http://creativecommons.org/ns#" xmlns:rdf="http://www.w3.org/1999/02/22-rdf-syntax-ns#">
   <cc:Work>
    <dc:type rdf:resource="http://purl.org/dc/dcmitype/StillImage"/>
    <dc:date>2023-08-02T15:42:19.172142</dc:date>
    <dc:format>image/svg+xml</dc:format>
    <dc:creator>
     <cc:Agent>
      <dc:title>Matplotlib v3.7.1, https://matplotlib.org/</dc:title>
     </cc:Agent>
    </dc:creator>
   </cc:Work>
  </rdf:RDF>
 </metadata>
 <defs>
  <style type="text/css">*{stroke-linejoin: round; stroke-linecap: butt}</style>
 </defs>
 <g id="figure_1">
  <g id="patch_1">
   <path d="M 0 325.986375 
L 912.357187 325.986375 
L 912.357187 0 
L 0 0 
z
" style="fill: #ffffff"/>
  </g>
  <g id="axes_1">
   <g id="patch_2">
    <path d="M 53.328125 288.430125 
L 767.568125 288.430125 
L 767.568125 22.318125 
L 53.328125 22.318125 
z
" style="fill: #ffffff"/>
   </g>
   <g id="PolyCollection_1">
    <defs>
     <path id="maf7b120414" d="M 53.328125 -49.696048 
L 53.328125 -49.65225 
L 60.413839 -213.895936 
L 67.499554 -224.100944 
L 74.585268 -235.225716 
L 81.670982 -237.437531 
L 88.756696 -239.342758 
L 95.842411 -240.087329 
L 102.928125 -241.226085 
L 110.013839 -241.401279 
L 117.099554 -242.233447 
L 124.185268 -244.138673 
L 131.270982 -244.860251 
L 138.356696 -245.759211 
L 145.442411 -245.365026 
L 152.528125 -245.78111 
L 159.613839 -246.394287 
L 166.699554 -246.394287 
L 173.785268 -246.56948 
L 180.870982 -246.917677 
L 187.956696 -247.073161 
L 195.042411 -247.138858 
L 202.128125 -247.268063 
L 209.213839 -247.204556 
L 216.299554 -247.204556 
L 223.385268 -247.379749 
L 230.470982 -247.576841 
L 237.556696 -247.576841 
L 244.642411 -248.058623 
L 251.728125 -248.365211 
L 258.813839 -248.70848 
L 265.899554 -248.978387 
L 272.985268 -250.46753 
L 280.070982 -249.876253 
L 287.156696 -251.2559 
L 294.242411 -251.2559 
L 301.328125 -251.78148 
L 308.413839 -251.015009 
L 315.499554 -253.314421 
L 322.585268 -253.402017 
L 329.670982 -253.402017 
L 336.756696 -253.402017 
L 343.842411 -253.402017 
L 350.928125 -253.402017 
L 358.013839 -253.927597 
L 365.099554 -253.927597 
L 372.185268 -253.927597 
L 379.270982 -253.971395 
L 386.356696 -253.971395 
L 393.442411 -253.971395 
L 400.528125 -253.971395 
L 407.613839 -254.058992 
L 414.699554 -254.540774 
L 421.785268 -254.540774 
L 428.870982 -254.540774 
L 435.956696 -257.781849 
L 443.042411 -257.781849 
L 450.128125 -257.869446 
L 457.213839 -257.869446 
L 464.299554 -257.827837 
L 471.385268 -257.869446 
L 478.470982 -257.913244 
L 485.556696 -258.044639 
L 492.642411 -258.701614 
L 499.728125 -258.701614 
L 506.813839 -258.78921 
L 513.899554 -258.876807 
L 520.985268 -258.876807 
L 528.070982 -259.095798 
L 535.156696 -259.041598 
L 542.242411 -259.095798 
L 549.328125 -257.628555 
L 556.413839 -259.183395 
L 563.499554 -259.183395 
L 570.585268 -259.183395 
L 577.670982 -259.183395 
L 584.756696 -259.183395 
L 591.842411 -259.183395 
L 598.928125 -259.183395 
L 606.013839 -259.183395 
L 613.099554 -259.183395 
L 620.185268 -267.668771 
L 627.270982 -267.680268 
L 634.356696 -267.680268 
L 641.442411 -268.030655 
L 648.528125 -268.030655 
L 655.613839 -268.118252 
L 662.699554 -267.745966 
L 669.785268 -267.789764 
L 676.870982 -267.789764 
L 683.956696 -267.789764 
L 691.042411 -267.811663 
L 698.128125 -262.774857 
L 705.213839 -262.840555 
L 712.299554 -267.794144 
L 719.385268 -262.906252 
L 726.470982 -268.227747 
L 733.556696 -268.643831 
L 733.556696 -291.418956 
L 733.556696 -291.418956 
L 726.470982 -291.418956 
L 719.385268 -291.57225 
L 712.299554 -291.331359 
L 705.213839 -291.334644 
L 698.128125 -291.331359 
L 691.042411 -291.287561 
L 683.956696 -291.287561 
L 676.870982 -290.805779 
L 669.785268 -290.805779 
L 662.699554 -290.805779 
L 655.613839 -290.805779 
L 648.528125 -290.805779 
L 641.442411 -290.805779 
L 634.356696 -290.761981 
L 627.270982 -290.761981 
L 620.185268 -290.54299 
L 613.099554 -290.630586 
L 606.013839 -290.499191 
L 598.928125 -290.499191 
L 591.842411 -290.367796 
L 584.756696 -290.323998 
L 577.670982 -290.367796 
L 570.585268 -290.148805 
L 563.499554 -290.148805 
L 556.413839 -290.105006 
L 549.328125 -290.061208 
L 542.242411 -290.061208 
L 535.156696 -289.929813 
L 528.070982 -289.667023 
L 520.985268 -289.667023 
L 513.899554 -289.667023 
L 506.813839 -288.44067 
L 499.728125 -288.44067 
L 492.642411 -288.44067 
L 485.556696 -288.922452 
L 478.470982 -288.221679 
L 471.385268 -286.513544 
L 464.299554 -286.513544 
L 457.213839 -286.447847 
L 450.128125 -284.674015 
L 443.042411 -286.36025 
L 435.956696 -284.54262 
L 428.870982 -285.59378 
L 421.785268 -283.184872 
L 414.699554 -283.141074 
L 407.613839 -282.965881 
L 400.528125 -285.33099 
L 393.442411 -282.265108 
L 386.356696 -281.520536 
L 379.270982 -281.476738 
L 372.185268 -281.43294 
L 365.099554 -275.082184 
L 358.013839 -272.673277 
L 350.928125 -272.84847 
L 343.842411 -272.169596 
L 336.756696 -268.731428 
L 329.670982 -268.689272 
L 322.585268 -268.68763 
L 315.499554 -272.607579 
L 308.413839 -271.689457 
L 301.328125 -272.410487 
L 294.242411 -271.753512 
L 287.156696 -274.271915 
L 280.070982 -271.600218 
L 272.985268 -273.921529 
L 265.899554 -269.870184 
L 258.813839 -267.986857 
L 251.728125 -267.417479 
L 244.642411 -267.37368 
L 237.556696 -267.154689 
L 230.470982 -267.154689 
L 223.385268 -265.161865 
L 216.299554 -264.439193 
L 209.213839 -264.307798 
L 202.128125 -262.818655 
L 195.042411 -259.84037 
L 187.956696 -262.651127 
L 180.870982 -262.577765 
L 173.785268 -262.402571 
L 166.699554 -262.336874 
L 159.613839 -255.372942 
L 152.528125 -252.28516 
L 145.442411 -251.190202 
L 138.356696 -250.73032 
L 131.270982 -248.890791 
L 124.185268 -248.365211 
L 117.099554 -246.660362 
L 110.013839 -244.927043 
L 102.928125 -244.686152 
L 95.842411 -244.357665 
L 88.756696 -244.138673 
L 81.670982 -242.189648 
L 74.585268 -239.693144 
L 67.499554 -233.648977 
L 60.413839 -217.750188 
L 53.328125 -49.696048 
z
" style="stroke: #98df8a; stroke-opacity: 0.2"/>
    </defs>
    <g clip-path="url(#p77aac6bc68)">
     <use xlink:href="#maf7b120414" x="0" y="325.986375" style="fill: #98df8a; fill-opacity: 0.2; stroke: #98df8a; stroke-opacity: 0.2"/>
    </g>
   </g>
   <g id="PolyCollection_2">
    <defs>
     <path id="mafaa5bd830" d="M 53.328125 -49.696048 
L 53.328125 -49.65225 
L 60.413839 -211.618424 
L 67.499554 -221.735835 
L 74.585268 -235.094321 
L 81.670982 -236.014086 
L 88.756696 -236.014086 
L 95.842411 -238.598186 
L 102.928125 -239.868338 
L 110.013839 -240.893766 
L 117.099554 -241.795464 
L 124.185268 -242.846623 
L 131.270982 -243.916397 
L 138.356696 -244.401463 
L 145.442411 -245.912505 
L 152.528125 -246.908369 
L 159.613839 -246.722774 
L 166.699554 -247.133383 
L 173.785268 -247.176634 
L 180.870982 -246.941766 
L 187.956696 -247.09506 
L 195.042411 -247.576841 
L 202.128125 -248.626906 
L 209.213839 -249.372572 
L 216.299554 -249.372572 
L 223.385268 -249.372572 
L 230.470982 -249.372572 
L 237.556696 -249.543933 
L 244.642411 -250.197623 
L 251.728125 -251.156259 
L 258.813839 -251.168303 
L 265.899554 -251.168303 
L 272.985268 -251.343496 
L 280.070982 -251.737681 
L 287.156696 -251.737681 
L 294.242411 -251.78148 
L 301.328125 -251.321597 
L 308.413839 -251.825278 
L 315.499554 -251.912875 
L 322.585268 -251.912875 
L 329.670982 -251.912875 
L 336.756696 -252.085878 
L 343.842411 -252.131866 
L 350.928125 -252.131866 
L 358.013839 -252.131866 
L 365.099554 -253.051631 
L 372.185268 -253.445816 
L 379.270982 -253.489614 
L 386.356696 -253.533412 
L 393.442411 -253.577211 
L 400.528125 -253.577211 
L 407.613839 -253.577211 
L 414.699554 -253.577211 
L 421.785268 -253.621009 
L 428.870982 -253.621009 
L 435.956696 -253.621009 
L 443.042411 -256.161311 
L 450.128125 -256.161311 
L 457.213839 -256.161311 
L 464.299554 -256.248908 
L 471.385268 -256.248908 
L 478.470982 -256.243433 
L 485.556696 -256.248908 
L 492.642411 -256.424101 
L 499.728125 -256.424101 
L 506.813839 -259.533782 
L 513.899554 -263.47563 
L 520.985268 -263.650823 
L 528.070982 -263.650823 
L 535.156696 -265.42575 
L 542.242411 -261.417109 
L 549.328125 -265.621748 
L 556.413839 -265.621748 
L 563.499554 -265.621748 
L 570.585268 -262.139781 
L 577.670982 -265.621748 
L 584.756696 -265.665546 
L 591.842411 -265.665546 
L 598.928125 -265.665546 
L 606.013839 -265.665546 
L 613.099554 -265.665546 
L 620.185268 -265.665546 
L 627.270982 -265.665546 
L 634.356696 -265.665546 
L 641.442411 -265.665546 
L 648.528125 -265.840739 
L 655.613839 -265.840739 
L 662.699554 -265.840739 
L 669.785268 -265.840739 
L 676.870982 -265.840739 
L 683.956696 -265.801868 
L 691.042411 -264.285899 
L 698.128125 -265.840739 
L 705.213839 -267.680268 
L 712.299554 -267.724067 
L 719.385268 -267.724067 
L 726.470982 -267.724067 
L 733.556696 -267.724067 
L 733.556696 -289.316637 
L 733.556696 -289.316637 
L 726.470982 -289.316637 
L 719.385268 -289.053847 
L 712.299554 -289.316637 
L 705.213839 -288.046486 
L 698.128125 -289.075746 
L 691.042411 -289.075746 
L 683.956696 -287.236217 
L 676.870982 -287.273445 
L 669.785268 -288.70346 
L 662.699554 -288.615864 
L 655.613839 -288.615864 
L 648.528125 -288.615864 
L 641.442411 -288.615864 
L 634.356696 -287.082923 
L 627.270982 -288.615864 
L 620.185268 -286.951528 
L 613.099554 -286.984376 
L 606.013839 -286.951528 
L 598.928125 -287.805595 
L 591.842411 -286.907729 
L 584.756696 -287.783696 
L 577.670982 -287.717998 
L 570.585268 -286.820133 
L 563.499554 -287.717998 
L 556.413839 -287.717998 
L 549.328125 -287.696099 
L 542.242411 -286.776334 
L 535.156696 -286.776334 
L 528.070982 -286.797686 
L 520.985268 -287.630402 
L 513.899554 -287.367612 
L 506.813839 -287.039124 
L 499.728125 -287.039124 
L 492.642411 -286.031763 
L 485.556696 -287.367612 
L 478.470982 -286.513544 
L 471.385268 -286.513544 
L 464.299554 -285.987965 
L 457.213839 -285.987965 
L 450.128125 -285.987965 
L 443.042411 -285.812771 
L 435.956696 -286.469746 
L 428.870982 -285.812771 
L 421.785268 -285.768973 
L 414.699554 -286.294553 
L 407.613839 -285.725175 
L 400.528125 -286.163158 
L 393.442411 -285.549982 
L 386.356696 -286.691475 
L 379.270982 -285.462385 
L 372.185268 -285.462385 
L 365.099554 -285.33099 
L 358.013839 -282.326425 
L 350.928125 -280.250385 
L 343.842411 -280.250385 
L 336.756696 -279.8562 
L 329.670982 -279.8562 
L 322.585268 -279.637209 
L 315.499554 -279.637209 
L 308.413839 -279.637209 
L 301.328125 -276.089545 
L 294.242411 -276.045747 
L 287.156696 -278.016671 
L 280.070982 -275.69536 
L 272.985268 -275.476369 
L 265.899554 -275.388772 
L 258.813839 -275.388772 
L 251.728125 -274.994587 
L 244.642411 -269.388403 
L 237.556696 -269.235109 
L 230.470982 -268.92852 
L 223.385268 -265.490353 
L 216.299554 -259.796572 
L 209.213839 -267.286084 
L 202.128125 -266.804302 
L 195.042411 -263.541328 
L 187.956696 -259.183395 
L 180.870982 -259.25402 
L 173.785268 -261.92736 
L 166.699554 -265.81884 
L 159.613839 -265.337059 
L 152.528125 -261.110521 
L 145.442411 -259.129195 
L 138.356696 -260.279995 
L 131.270982 -259.911542 
L 124.185268 -261.636101 
L 117.099554 -260.62874 
L 110.013839 -258.833009 
L 102.928125 -258.657815 
L 95.842411 -247.62064 
L 88.756696 -247.489245 
L 81.670982 -246.919867 
L 74.585268 -244.948942 
L 67.499554 -237.98501 
L 60.413839 -224.013347 
L 53.328125 -49.696048 
z
" style="stroke: #1f77b4; stroke-opacity: 0.2"/>
    </defs>
    <g clip-path="url(#p77aac6bc68)">
     <use xlink:href="#mafaa5bd830" x="0" y="325.986375" style="fill: #1f77b4; fill-opacity: 0.2; stroke: #1f77b4; stroke-opacity: 0.2"/>
    </g>
   </g>
   <g id="matplotlib.axis_1">
    <g id="xtick_1">
     <g id="line2d_1">
      <defs>
       <path id="m772800a7ac" d="M 0 0 
L 0 3.5 
" style="stroke: #000000; stroke-width: 0.8"/>
      </defs>
      <g>
       <use xlink:href="#m772800a7ac" x="53.328125" y="288.430125" style="stroke: #000000; stroke-width: 0.8"/>
      </g>
     </g>
     <g id="text_1">
      <!-- 0m -->
      <g transform="translate(45.276563 303.028562) scale(0.1 -0.1)">
       <defs>
        <path id="DejaVuSans-30" d="M 2034 4250 
Q 1547 4250 1301 3770 
Q 1056 3291 1056 2328 
Q 1056 1369 1301 889 
Q 1547 409 2034 409 
Q 2525 409 2770 889 
Q 3016 1369 3016 2328 
Q 3016 3291 2770 3770 
Q 2525 4250 2034 4250 
z
M 2034 4750 
Q 2819 4750 3233 4129 
Q 3647 3509 3647 2328 
Q 3647 1150 3233 529 
Q 2819 -91 2034 -91 
Q 1250 -91 836 529 
Q 422 1150 422 2328 
Q 422 3509 836 4129 
Q 1250 4750 2034 4750 
z
" transform="scale(0.015625)"/>
        <path id="DejaVuSans-6d" d="M 3328 2828 
Q 3544 3216 3844 3400 
Q 4144 3584 4550 3584 
Q 5097 3584 5394 3201 
Q 5691 2819 5691 2113 
L 5691 0 
L 5113 0 
L 5113 2094 
Q 5113 2597 4934 2840 
Q 4756 3084 4391 3084 
Q 3944 3084 3684 2787 
Q 3425 2491 3425 1978 
L 3425 0 
L 2847 0 
L 2847 2094 
Q 2847 2600 2669 2842 
Q 2491 3084 2119 3084 
Q 1678 3084 1418 2786 
Q 1159 2488 1159 1978 
L 1159 0 
L 581 0 
L 581 3500 
L 1159 3500 
L 1159 2956 
Q 1356 3278 1631 3431 
Q 1906 3584 2284 3584 
Q 2666 3584 2933 3390 
Q 3200 3197 3328 2828 
z
" transform="scale(0.015625)"/>
       </defs>
       <use xlink:href="#DejaVuSans-30"/>
       <use xlink:href="#DejaVuSans-6d" x="63.623047"/>
      </g>
     </g>
    </g>
    <g id="xtick_2">
     <g id="line2d_2">
      <g>
       <use xlink:href="#m772800a7ac" x="110.013839" y="288.430125" style="stroke: #000000; stroke-width: 0.8"/>
      </g>
     </g>
     <g id="text_2">
      <!-- 2h -->
      <g transform="translate(103.663839 303.028562) scale(0.1 -0.1)">
       <defs>
        <path id="DejaVuSans-32" d="M 1228 531 
L 3431 531 
L 3431 0 
L 469 0 
L 469 531 
Q 828 903 1448 1529 
Q 2069 2156 2228 2338 
Q 2531 2678 2651 2914 
Q 2772 3150 2772 3378 
Q 2772 3750 2511 3984 
Q 2250 4219 1831 4219 
Q 1534 4219 1204 4116 
Q 875 4013 500 3803 
L 500 4441 
Q 881 4594 1212 4672 
Q 1544 4750 1819 4750 
Q 2544 4750 2975 4387 
Q 3406 4025 3406 3419 
Q 3406 3131 3298 2873 
Q 3191 2616 2906 2266 
Q 2828 2175 2409 1742 
Q 1991 1309 1228 531 
z
" transform="scale(0.015625)"/>
        <path id="DejaVuSans-68" d="M 3513 2113 
L 3513 0 
L 2938 0 
L 2938 2094 
Q 2938 2591 2744 2837 
Q 2550 3084 2163 3084 
Q 1697 3084 1428 2787 
Q 1159 2491 1159 1978 
L 1159 0 
L 581 0 
L 581 4863 
L 1159 4863 
L 1159 2956 
Q 1366 3272 1645 3428 
Q 1925 3584 2291 3584 
Q 2894 3584 3203 3211 
Q 3513 2838 3513 2113 
z
" transform="scale(0.015625)"/>
       </defs>
       <use xlink:href="#DejaVuSans-32"/>
       <use xlink:href="#DejaVuSans-68" x="63.623047"/>
      </g>
     </g>
    </g>
    <g id="xtick_3">
     <g id="line2d_3">
      <g>
       <use xlink:href="#m772800a7ac" x="166.699554" y="288.430125" style="stroke: #000000; stroke-width: 0.8"/>
      </g>
     </g>
     <g id="text_3">
      <!-- 4h -->
      <g transform="translate(160.349554 303.028562) scale(0.1 -0.1)">
       <defs>
        <path id="DejaVuSans-34" d="M 2419 4116 
L 825 1625 
L 2419 1625 
L 2419 4116 
z
M 2253 4666 
L 3047 4666 
L 3047 1625 
L 3713 1625 
L 3713 1100 
L 3047 1100 
L 3047 0 
L 2419 0 
L 2419 1100 
L 313 1100 
L 313 1709 
L 2253 4666 
z
" transform="scale(0.015625)"/>
       </defs>
       <use xlink:href="#DejaVuSans-34"/>
       <use xlink:href="#DejaVuSans-68" x="63.623047"/>
      </g>
     </g>
    </g>
    <g id="xtick_4">
     <g id="line2d_4">
      <g>
       <use xlink:href="#m772800a7ac" x="223.385268" y="288.430125" style="stroke: #000000; stroke-width: 0.8"/>
      </g>
     </g>
     <g id="text_4">
      <!-- 6h -->
      <g transform="translate(217.035268 303.028562) scale(0.1 -0.1)">
       <defs>
        <path id="DejaVuSans-36" d="M 2113 2584 
Q 1688 2584 1439 2293 
Q 1191 2003 1191 1497 
Q 1191 994 1439 701 
Q 1688 409 2113 409 
Q 2538 409 2786 701 
Q 3034 994 3034 1497 
Q 3034 2003 2786 2293 
Q 2538 2584 2113 2584 
z
M 3366 4563 
L 3366 3988 
Q 3128 4100 2886 4159 
Q 2644 4219 2406 4219 
Q 1781 4219 1451 3797 
Q 1122 3375 1075 2522 
Q 1259 2794 1537 2939 
Q 1816 3084 2150 3084 
Q 2853 3084 3261 2657 
Q 3669 2231 3669 1497 
Q 3669 778 3244 343 
Q 2819 -91 2113 -91 
Q 1303 -91 875 529 
Q 447 1150 447 2328 
Q 447 3434 972 4092 
Q 1497 4750 2381 4750 
Q 2619 4750 2861 4703 
Q 3103 4656 3366 4563 
z
" transform="scale(0.015625)"/>
       </defs>
       <use xlink:href="#DejaVuSans-36"/>
       <use xlink:href="#DejaVuSans-68" x="63.623047"/>
      </g>
     </g>
    </g>
    <g id="xtick_5">
     <g id="line2d_5">
      <g>
       <use xlink:href="#m772800a7ac" x="280.070982" y="288.430125" style="stroke: #000000; stroke-width: 0.8"/>
      </g>
     </g>
     <g id="text_5">
      <!-- 8h -->
      <g transform="translate(273.720982 303.028562) scale(0.1 -0.1)">
       <defs>
        <path id="DejaVuSans-38" d="M 2034 2216 
Q 1584 2216 1326 1975 
Q 1069 1734 1069 1313 
Q 1069 891 1326 650 
Q 1584 409 2034 409 
Q 2484 409 2743 651 
Q 3003 894 3003 1313 
Q 3003 1734 2745 1975 
Q 2488 2216 2034 2216 
z
M 1403 2484 
Q 997 2584 770 2862 
Q 544 3141 544 3541 
Q 544 4100 942 4425 
Q 1341 4750 2034 4750 
Q 2731 4750 3128 4425 
Q 3525 4100 3525 3541 
Q 3525 3141 3298 2862 
Q 3072 2584 2669 2484 
Q 3125 2378 3379 2068 
Q 3634 1759 3634 1313 
Q 3634 634 3220 271 
Q 2806 -91 2034 -91 
Q 1263 -91 848 271 
Q 434 634 434 1313 
Q 434 1759 690 2068 
Q 947 2378 1403 2484 
z
M 1172 3481 
Q 1172 3119 1398 2916 
Q 1625 2713 2034 2713 
Q 2441 2713 2670 2916 
Q 2900 3119 2900 3481 
Q 2900 3844 2670 4047 
Q 2441 4250 2034 4250 
Q 1625 4250 1398 4047 
Q 1172 3844 1172 3481 
z
" transform="scale(0.015625)"/>
       </defs>
       <use xlink:href="#DejaVuSans-38"/>
       <use xlink:href="#DejaVuSans-68" x="63.623047"/>
      </g>
     </g>
    </g>
    <g id="xtick_6">
     <g id="line2d_6">
      <g>
       <use xlink:href="#m772800a7ac" x="336.756696" y="288.430125" style="stroke: #000000; stroke-width: 0.8"/>
      </g>
     </g>
     <g id="text_6">
      <!-- 10h -->
      <g transform="translate(327.225446 303.028562) scale(0.1 -0.1)">
       <defs>
        <path id="DejaVuSans-31" d="M 794 531 
L 1825 531 
L 1825 4091 
L 703 3866 
L 703 4441 
L 1819 4666 
L 2450 4666 
L 2450 531 
L 3481 531 
L 3481 0 
L 794 0 
L 794 531 
z
" transform="scale(0.015625)"/>
       </defs>
       <use xlink:href="#DejaVuSans-31"/>
       <use xlink:href="#DejaVuSans-30" x="63.623047"/>
       <use xlink:href="#DejaVuSans-68" x="127.246094"/>
      </g>
     </g>
    </g>
    <g id="xtick_7">
     <g id="line2d_7">
      <g>
       <use xlink:href="#m772800a7ac" x="393.442411" y="288.430125" style="stroke: #000000; stroke-width: 0.8"/>
      </g>
     </g>
     <g id="text_7">
      <!-- 12h -->
      <g transform="translate(383.911161 303.028562) scale(0.1 -0.1)">
       <use xlink:href="#DejaVuSans-31"/>
       <use xlink:href="#DejaVuSans-32" x="63.623047"/>
       <use xlink:href="#DejaVuSans-68" x="127.246094"/>
      </g>
     </g>
    </g>
    <g id="xtick_8">
     <g id="line2d_8">
      <g>
       <use xlink:href="#m772800a7ac" x="450.128125" y="288.430125" style="stroke: #000000; stroke-width: 0.8"/>
      </g>
     </g>
     <g id="text_8">
      <!-- 14h -->
      <g transform="translate(440.596875 303.028562) scale(0.1 -0.1)">
       <use xlink:href="#DejaVuSans-31"/>
       <use xlink:href="#DejaVuSans-34" x="63.623047"/>
       <use xlink:href="#DejaVuSans-68" x="127.246094"/>
      </g>
     </g>
    </g>
    <g id="xtick_9">
     <g id="line2d_9">
      <g>
       <use xlink:href="#m772800a7ac" x="506.813839" y="288.430125" style="stroke: #000000; stroke-width: 0.8"/>
      </g>
     </g>
     <g id="text_9">
      <!-- 16h -->
      <g transform="translate(497.282589 303.028562) scale(0.1 -0.1)">
       <use xlink:href="#DejaVuSans-31"/>
       <use xlink:href="#DejaVuSans-36" x="63.623047"/>
       <use xlink:href="#DejaVuSans-68" x="127.246094"/>
      </g>
     </g>
    </g>
    <g id="xtick_10">
     <g id="line2d_10">
      <g>
       <use xlink:href="#m772800a7ac" x="563.499554" y="288.430125" style="stroke: #000000; stroke-width: 0.8"/>
      </g>
     </g>
     <g id="text_10">
      <!-- 18h -->
      <g transform="translate(553.968304 303.028562) scale(0.1 -0.1)">
       <use xlink:href="#DejaVuSans-31"/>
       <use xlink:href="#DejaVuSans-38" x="63.623047"/>
       <use xlink:href="#DejaVuSans-68" x="127.246094"/>
      </g>
     </g>
    </g>
    <g id="xtick_11">
     <g id="line2d_11">
      <g>
       <use xlink:href="#m772800a7ac" x="620.185268" y="288.430125" style="stroke: #000000; stroke-width: 0.8"/>
      </g>
     </g>
     <g id="text_11">
      <!-- 20h -->
      <g transform="translate(610.654018 303.028562) scale(0.1 -0.1)">
       <use xlink:href="#DejaVuSans-32"/>
       <use xlink:href="#DejaVuSans-30" x="63.623047"/>
       <use xlink:href="#DejaVuSans-68" x="127.246094"/>
      </g>
     </g>
    </g>
    <g id="xtick_12">
     <g id="line2d_12">
      <g>
       <use xlink:href="#m772800a7ac" x="676.870982" y="288.430125" style="stroke: #000000; stroke-width: 0.8"/>
      </g>
     </g>
     <g id="text_12">
      <!-- 22h -->
      <g transform="translate(667.339732 303.028562) scale(0.1 -0.1)">
       <use xlink:href="#DejaVuSans-32"/>
       <use xlink:href="#DejaVuSans-32" x="63.623047"/>
       <use xlink:href="#DejaVuSans-68" x="127.246094"/>
      </g>
     </g>
    </g>
    <g id="xtick_13">
     <g id="line2d_13">
      <g>
       <use xlink:href="#m772800a7ac" x="733.556696" y="288.430125" style="stroke: #000000; stroke-width: 0.8"/>
      </g>
     </g>
     <g id="text_13">
      <!-- 24h -->
      <g transform="translate(724.025446 303.028562) scale(0.1 -0.1)">
       <use xlink:href="#DejaVuSans-32"/>
       <use xlink:href="#DejaVuSans-34" x="63.623047"/>
       <use xlink:href="#DejaVuSans-68" x="127.246094"/>
      </g>
     </g>
    </g>
    <g id="text_14">
     <!-- Time (hour:minute) -->
     <g transform="translate(362.041094 316.706687) scale(0.1 -0.1)">
      <defs>
       <path id="DejaVuSans-54" d="M -19 4666 
L 3928 4666 
L 3928 4134 
L 2272 4134 
L 2272 0 
L 1638 0 
L 1638 4134 
L -19 4134 
L -19 4666 
z
" transform="scale(0.015625)"/>
       <path id="DejaVuSans-69" d="M 603 3500 
L 1178 3500 
L 1178 0 
L 603 0 
L 603 3500 
z
M 603 4863 
L 1178 4863 
L 1178 4134 
L 603 4134 
L 603 4863 
z
" transform="scale(0.015625)"/>
       <path id="DejaVuSans-65" d="M 3597 1894 
L 3597 1613 
L 953 1613 
Q 991 1019 1311 708 
Q 1631 397 2203 397 
Q 2534 397 2845 478 
Q 3156 559 3463 722 
L 3463 178 
Q 3153 47 2828 -22 
Q 2503 -91 2169 -91 
Q 1331 -91 842 396 
Q 353 884 353 1716 
Q 353 2575 817 3079 
Q 1281 3584 2069 3584 
Q 2775 3584 3186 3129 
Q 3597 2675 3597 1894 
z
M 3022 2063 
Q 3016 2534 2758 2815 
Q 2500 3097 2075 3097 
Q 1594 3097 1305 2825 
Q 1016 2553 972 2059 
L 3022 2063 
z
" transform="scale(0.015625)"/>
       <path id="DejaVuSans-20" transform="scale(0.015625)"/>
       <path id="DejaVuSans-28" d="M 1984 4856 
Q 1566 4138 1362 3434 
Q 1159 2731 1159 2009 
Q 1159 1288 1364 580 
Q 1569 -128 1984 -844 
L 1484 -844 
Q 1016 -109 783 600 
Q 550 1309 550 2009 
Q 550 2706 781 3412 
Q 1013 4119 1484 4856 
L 1984 4856 
z
" transform="scale(0.015625)"/>
       <path id="DejaVuSans-6f" d="M 1959 3097 
Q 1497 3097 1228 2736 
Q 959 2375 959 1747 
Q 959 1119 1226 758 
Q 1494 397 1959 397 
Q 2419 397 2687 759 
Q 2956 1122 2956 1747 
Q 2956 2369 2687 2733 
Q 2419 3097 1959 3097 
z
M 1959 3584 
Q 2709 3584 3137 3096 
Q 3566 2609 3566 1747 
Q 3566 888 3137 398 
Q 2709 -91 1959 -91 
Q 1206 -91 779 398 
Q 353 888 353 1747 
Q 353 2609 779 3096 
Q 1206 3584 1959 3584 
z
" transform="scale(0.015625)"/>
       <path id="DejaVuSans-75" d="M 544 1381 
L 544 3500 
L 1119 3500 
L 1119 1403 
Q 1119 906 1312 657 
Q 1506 409 1894 409 
Q 2359 409 2629 706 
Q 2900 1003 2900 1516 
L 2900 3500 
L 3475 3500 
L 3475 0 
L 2900 0 
L 2900 538 
Q 2691 219 2414 64 
Q 2138 -91 1772 -91 
Q 1169 -91 856 284 
Q 544 659 544 1381 
z
M 1991 3584 
L 1991 3584 
z
" transform="scale(0.015625)"/>
       <path id="DejaVuSans-72" d="M 2631 2963 
Q 2534 3019 2420 3045 
Q 2306 3072 2169 3072 
Q 1681 3072 1420 2755 
Q 1159 2438 1159 1844 
L 1159 0 
L 581 0 
L 581 3500 
L 1159 3500 
L 1159 2956 
Q 1341 3275 1631 3429 
Q 1922 3584 2338 3584 
Q 2397 3584 2469 3576 
Q 2541 3569 2628 3553 
L 2631 2963 
z
" transform="scale(0.015625)"/>
       <path id="DejaVuSans-3a" d="M 750 794 
L 1409 794 
L 1409 0 
L 750 0 
L 750 794 
z
M 750 3309 
L 1409 3309 
L 1409 2516 
L 750 2516 
L 750 3309 
z
" transform="scale(0.015625)"/>
       <path id="DejaVuSans-6e" d="M 3513 2113 
L 3513 0 
L 2938 0 
L 2938 2094 
Q 2938 2591 2744 2837 
Q 2550 3084 2163 3084 
Q 1697 3084 1428 2787 
Q 1159 2491 1159 1978 
L 1159 0 
L 581 0 
L 581 3500 
L 1159 3500 
L 1159 2956 
Q 1366 3272 1645 3428 
Q 1925 3584 2291 3584 
Q 2894 3584 3203 3211 
Q 3513 2838 3513 2113 
z
" transform="scale(0.015625)"/>
       <path id="DejaVuSans-74" d="M 1172 4494 
L 1172 3500 
L 2356 3500 
L 2356 3053 
L 1172 3053 
L 1172 1153 
Q 1172 725 1289 603 
Q 1406 481 1766 481 
L 2356 481 
L 2356 0 
L 1766 0 
Q 1100 0 847 248 
Q 594 497 594 1153 
L 594 3053 
L 172 3053 
L 172 3500 
L 594 3500 
L 594 4494 
L 1172 4494 
z
" transform="scale(0.015625)"/>
       <path id="DejaVuSans-29" d="M 513 4856 
L 1013 4856 
Q 1481 4119 1714 3412 
Q 1947 2706 1947 2009 
Q 1947 1309 1714 600 
Q 1481 -109 1013 -844 
L 513 -844 
Q 928 -128 1133 580 
Q 1338 1288 1338 2009 
Q 1338 2731 1133 3434 
Q 928 4138 513 4856 
z
" transform="scale(0.015625)"/>
      </defs>
      <use xlink:href="#DejaVuSans-54"/>
      <use xlink:href="#DejaVuSans-69" x="57.958984"/>
      <use xlink:href="#DejaVuSans-6d" x="85.742188"/>
      <use xlink:href="#DejaVuSans-65" x="183.154297"/>
      <use xlink:href="#DejaVuSans-20" x="244.677734"/>
      <use xlink:href="#DejaVuSans-28" x="276.464844"/>
      <use xlink:href="#DejaVuSans-68" x="315.478516"/>
      <use xlink:href="#DejaVuSans-6f" x="378.857422"/>
      <use xlink:href="#DejaVuSans-75" x="440.039062"/>
      <use xlink:href="#DejaVuSans-72" x="503.417969"/>
      <use xlink:href="#DejaVuSans-3a" x="542.78125"/>
      <use xlink:href="#DejaVuSans-6d" x="576.472656"/>
      <use xlink:href="#DejaVuSans-69" x="673.884766"/>
      <use xlink:href="#DejaVuSans-6e" x="701.667969"/>
      <use xlink:href="#DejaVuSans-75" x="765.046875"/>
      <use xlink:href="#DejaVuSans-74" x="828.425781"/>
      <use xlink:href="#DejaVuSans-65" x="867.634766"/>
      <use xlink:href="#DejaVuSans-29" x="929.158203"/>
     </g>
    </g>
   </g>
   <g id="matplotlib.axis_2">
    <g id="ytick_1">
     <g id="line2d_14">
      <defs>
       <path id="m86e61be04c" d="M 0 0 
L -3.5 0 
" style="stroke: #000000; stroke-width: 0.8"/>
      </defs>
      <g>
       <use xlink:href="#m86e61be04c" x="53.328125" y="269.063604" style="stroke: #000000; stroke-width: 0.8"/>
      </g>
     </g>
     <g id="text_15">
      <!-- 3000 -->
      <g transform="translate(20.878125 272.862823) scale(0.1 -0.1)">
       <defs>
        <path id="DejaVuSans-33" d="M 2597 2516 
Q 3050 2419 3304 2112 
Q 3559 1806 3559 1356 
Q 3559 666 3084 287 
Q 2609 -91 1734 -91 
Q 1441 -91 1130 -33 
Q 819 25 488 141 
L 488 750 
Q 750 597 1062 519 
Q 1375 441 1716 441 
Q 2309 441 2620 675 
Q 2931 909 2931 1356 
Q 2931 1769 2642 2001 
Q 2353 2234 1838 2234 
L 1294 2234 
L 1294 2753 
L 1863 2753 
Q 2328 2753 2575 2939 
Q 2822 3125 2822 3475 
Q 2822 3834 2567 4026 
Q 2313 4219 1838 4219 
Q 1578 4219 1281 4162 
Q 984 4106 628 3988 
L 628 4550 
Q 988 4650 1302 4700 
Q 1616 4750 1894 4750 
Q 2613 4750 3031 4423 
Q 3450 4097 3450 3541 
Q 3450 3153 3228 2886 
Q 3006 2619 2597 2516 
z
" transform="scale(0.015625)"/>
       </defs>
       <use xlink:href="#DejaVuSans-33"/>
       <use xlink:href="#DejaVuSans-30" x="63.623047"/>
       <use xlink:href="#DejaVuSans-30" x="127.246094"/>
       <use xlink:href="#DejaVuSans-30" x="190.869141"/>
      </g>
     </g>
    </g>
    <g id="ytick_2">
     <g id="line2d_15">
      <g>
       <use xlink:href="#m86e61be04c" x="53.328125" y="225.265288" style="stroke: #000000; stroke-width: 0.8"/>
      </g>
     </g>
     <g id="text_16">
      <!-- 4000 -->
      <g transform="translate(20.878125 229.064507) scale(0.1 -0.1)">
       <use xlink:href="#DejaVuSans-34"/>
       <use xlink:href="#DejaVuSans-30" x="63.623047"/>
       <use xlink:href="#DejaVuSans-30" x="127.246094"/>
       <use xlink:href="#DejaVuSans-30" x="190.869141"/>
      </g>
     </g>
    </g>
    <g id="ytick_3">
     <g id="line2d_16">
      <g>
       <use xlink:href="#m86e61be04c" x="53.328125" y="181.466972" style="stroke: #000000; stroke-width: 0.8"/>
      </g>
     </g>
     <g id="text_17">
      <!-- 5000 -->
      <g transform="translate(20.878125 185.266191) scale(0.1 -0.1)">
       <defs>
        <path id="DejaVuSans-35" d="M 691 4666 
L 3169 4666 
L 3169 4134 
L 1269 4134 
L 1269 2991 
Q 1406 3038 1543 3061 
Q 1681 3084 1819 3084 
Q 2600 3084 3056 2656 
Q 3513 2228 3513 1497 
Q 3513 744 3044 326 
Q 2575 -91 1722 -91 
Q 1428 -91 1123 -41 
Q 819 9 494 109 
L 494 744 
Q 775 591 1075 516 
Q 1375 441 1709 441 
Q 2250 441 2565 725 
Q 2881 1009 2881 1497 
Q 2881 1984 2565 2268 
Q 2250 2553 1709 2553 
Q 1456 2553 1204 2497 
Q 953 2441 691 2322 
L 691 4666 
z
" transform="scale(0.015625)"/>
       </defs>
       <use xlink:href="#DejaVuSans-35"/>
       <use xlink:href="#DejaVuSans-30" x="63.623047"/>
       <use xlink:href="#DejaVuSans-30" x="127.246094"/>
       <use xlink:href="#DejaVuSans-30" x="190.869141"/>
      </g>
     </g>
    </g>
    <g id="ytick_4">
     <g id="line2d_17">
      <g>
       <use xlink:href="#m86e61be04c" x="53.328125" y="137.668656" style="stroke: #000000; stroke-width: 0.8"/>
      </g>
     </g>
     <g id="text_18">
      <!-- 6000 -->
      <g transform="translate(20.878125 141.467874) scale(0.1 -0.1)">
       <use xlink:href="#DejaVuSans-36"/>
       <use xlink:href="#DejaVuSans-30" x="63.623047"/>
       <use xlink:href="#DejaVuSans-30" x="127.246094"/>
       <use xlink:href="#DejaVuSans-30" x="190.869141"/>
      </g>
     </g>
    </g>
    <g id="ytick_5">
     <g id="line2d_18">
      <g>
       <use xlink:href="#m86e61be04c" x="53.328125" y="93.870339" style="stroke: #000000; stroke-width: 0.8"/>
      </g>
     </g>
     <g id="text_19">
      <!-- 7000 -->
      <g transform="translate(20.878125 97.669558) scale(0.1 -0.1)">
       <defs>
        <path id="DejaVuSans-37" d="M 525 4666 
L 3525 4666 
L 3525 4397 
L 1831 0 
L 1172 0 
L 2766 4134 
L 525 4134 
L 525 4666 
z
" transform="scale(0.015625)"/>
       </defs>
       <use xlink:href="#DejaVuSans-37"/>
       <use xlink:href="#DejaVuSans-30" x="63.623047"/>
       <use xlink:href="#DejaVuSans-30" x="127.246094"/>
       <use xlink:href="#DejaVuSans-30" x="190.869141"/>
      </g>
     </g>
    </g>
    <g id="ytick_6">
     <g id="line2d_19">
      <g>
       <use xlink:href="#m86e61be04c" x="53.328125" y="50.072023" style="stroke: #000000; stroke-width: 0.8"/>
      </g>
     </g>
     <g id="text_20">
      <!-- 8000 -->
      <g transform="translate(20.878125 53.871242) scale(0.1 -0.1)">
       <use xlink:href="#DejaVuSans-38"/>
       <use xlink:href="#DejaVuSans-30" x="63.623047"/>
       <use xlink:href="#DejaVuSans-30" x="127.246094"/>
       <use xlink:href="#DejaVuSans-30" x="190.869141"/>
      </g>
     </g>
    </g>
    <g id="text_21">
     <!-- Code branch coverage -->
     <g transform="translate(14.798438 211.949125) rotate(-90) scale(0.1 -0.1)">
      <defs>
       <path id="DejaVuSans-43" d="M 4122 4306 
L 4122 3641 
Q 3803 3938 3442 4084 
Q 3081 4231 2675 4231 
Q 1875 4231 1450 3742 
Q 1025 3253 1025 2328 
Q 1025 1406 1450 917 
Q 1875 428 2675 428 
Q 3081 428 3442 575 
Q 3803 722 4122 1019 
L 4122 359 
Q 3791 134 3420 21 
Q 3050 -91 2638 -91 
Q 1578 -91 968 557 
Q 359 1206 359 2328 
Q 359 3453 968 4101 
Q 1578 4750 2638 4750 
Q 3056 4750 3426 4639 
Q 3797 4528 4122 4306 
z
" transform="scale(0.015625)"/>
       <path id="DejaVuSans-64" d="M 2906 2969 
L 2906 4863 
L 3481 4863 
L 3481 0 
L 2906 0 
L 2906 525 
Q 2725 213 2448 61 
Q 2172 -91 1784 -91 
Q 1150 -91 751 415 
Q 353 922 353 1747 
Q 353 2572 751 3078 
Q 1150 3584 1784 3584 
Q 2172 3584 2448 3432 
Q 2725 3281 2906 2969 
z
M 947 1747 
Q 947 1113 1208 752 
Q 1469 391 1925 391 
Q 2381 391 2643 752 
Q 2906 1113 2906 1747 
Q 2906 2381 2643 2742 
Q 2381 3103 1925 3103 
Q 1469 3103 1208 2742 
Q 947 2381 947 1747 
z
" transform="scale(0.015625)"/>
       <path id="DejaVuSans-62" d="M 3116 1747 
Q 3116 2381 2855 2742 
Q 2594 3103 2138 3103 
Q 1681 3103 1420 2742 
Q 1159 2381 1159 1747 
Q 1159 1113 1420 752 
Q 1681 391 2138 391 
Q 2594 391 2855 752 
Q 3116 1113 3116 1747 
z
M 1159 2969 
Q 1341 3281 1617 3432 
Q 1894 3584 2278 3584 
Q 2916 3584 3314 3078 
Q 3713 2572 3713 1747 
Q 3713 922 3314 415 
Q 2916 -91 2278 -91 
Q 1894 -91 1617 61 
Q 1341 213 1159 525 
L 1159 0 
L 581 0 
L 581 4863 
L 1159 4863 
L 1159 2969 
z
" transform="scale(0.015625)"/>
       <path id="DejaVuSans-61" d="M 2194 1759 
Q 1497 1759 1228 1600 
Q 959 1441 959 1056 
Q 959 750 1161 570 
Q 1363 391 1709 391 
Q 2188 391 2477 730 
Q 2766 1069 2766 1631 
L 2766 1759 
L 2194 1759 
z
M 3341 1997 
L 3341 0 
L 2766 0 
L 2766 531 
Q 2569 213 2275 61 
Q 1981 -91 1556 -91 
Q 1019 -91 701 211 
Q 384 513 384 1019 
Q 384 1609 779 1909 
Q 1175 2209 1959 2209 
L 2766 2209 
L 2766 2266 
Q 2766 2663 2505 2880 
Q 2244 3097 1772 3097 
Q 1472 3097 1187 3025 
Q 903 2953 641 2809 
L 641 3341 
Q 956 3463 1253 3523 
Q 1550 3584 1831 3584 
Q 2591 3584 2966 3190 
Q 3341 2797 3341 1997 
z
" transform="scale(0.015625)"/>
       <path id="DejaVuSans-63" d="M 3122 3366 
L 3122 2828 
Q 2878 2963 2633 3030 
Q 2388 3097 2138 3097 
Q 1578 3097 1268 2742 
Q 959 2388 959 1747 
Q 959 1106 1268 751 
Q 1578 397 2138 397 
Q 2388 397 2633 464 
Q 2878 531 3122 666 
L 3122 134 
Q 2881 22 2623 -34 
Q 2366 -91 2075 -91 
Q 1284 -91 818 406 
Q 353 903 353 1747 
Q 353 2603 823 3093 
Q 1294 3584 2113 3584 
Q 2378 3584 2631 3529 
Q 2884 3475 3122 3366 
z
" transform="scale(0.015625)"/>
       <path id="DejaVuSans-76" d="M 191 3500 
L 800 3500 
L 1894 563 
L 2988 3500 
L 3597 3500 
L 2284 0 
L 1503 0 
L 191 3500 
z
" transform="scale(0.015625)"/>
       <path id="DejaVuSans-67" d="M 2906 1791 
Q 2906 2416 2648 2759 
Q 2391 3103 1925 3103 
Q 1463 3103 1205 2759 
Q 947 2416 947 1791 
Q 947 1169 1205 825 
Q 1463 481 1925 481 
Q 2391 481 2648 825 
Q 2906 1169 2906 1791 
z
M 3481 434 
Q 3481 -459 3084 -895 
Q 2688 -1331 1869 -1331 
Q 1566 -1331 1297 -1286 
Q 1028 -1241 775 -1147 
L 775 -588 
Q 1028 -725 1275 -790 
Q 1522 -856 1778 -856 
Q 2344 -856 2625 -561 
Q 2906 -266 2906 331 
L 2906 616 
Q 2728 306 2450 153 
Q 2172 0 1784 0 
Q 1141 0 747 490 
Q 353 981 353 1791 
Q 353 2603 747 3093 
Q 1141 3584 1784 3584 
Q 2172 3584 2450 3431 
Q 2728 3278 2906 2969 
L 2906 3500 
L 3481 3500 
L 3481 434 
z
" transform="scale(0.015625)"/>
      </defs>
      <use xlink:href="#DejaVuSans-43"/>
      <use xlink:href="#DejaVuSans-6f" x="69.824219"/>
      <use xlink:href="#DejaVuSans-64" x="131.005859"/>
      <use xlink:href="#DejaVuSans-65" x="194.482422"/>
      <use xlink:href="#DejaVuSans-20" x="256.005859"/>
      <use xlink:href="#DejaVuSans-62" x="287.792969"/>
      <use xlink:href="#DejaVuSans-72" x="351.269531"/>
      <use xlink:href="#DejaVuSans-61" x="392.382812"/>
      <use xlink:href="#DejaVuSans-6e" x="453.662109"/>
      <use xlink:href="#DejaVuSans-63" x="517.041016"/>
      <use xlink:href="#DejaVuSans-68" x="572.021484"/>
      <use xlink:href="#DejaVuSans-20" x="635.400391"/>
      <use xlink:href="#DejaVuSans-63" x="667.1875"/>
      <use xlink:href="#DejaVuSans-6f" x="722.167969"/>
      <use xlink:href="#DejaVuSans-76" x="783.349609"/>
      <use xlink:href="#DejaVuSans-65" x="842.529297"/>
      <use xlink:href="#DejaVuSans-72" x="904.052734"/>
      <use xlink:href="#DejaVuSans-61" x="945.166016"/>
      <use xlink:href="#DejaVuSans-67" x="1006.445312"/>
      <use xlink:href="#DejaVuSans-65" x="1069.921875"/>
     </g>
    </g>
   </g>
   <g id="line2d_20">
    <path d="M 53.328125 276.334125 
L 60.413839 110.185212 
L 67.499554 99.06044 
L 74.585268 89.096323 
L 81.670982 86.753113 
L 88.756696 85.439163 
L 95.842411 83.884323 
L 102.928125 82.723668 
L 110.013839 81.738206 
L 117.099554 81.387819 
L 124.185268 79.789181 
L 131.270982 78.716122 
L 138.356696 78.562828 
L 145.442411 78.343836 
L 152.528125 76.504307 
L 159.613839 76.066324 
L 166.699554 74.007803 
L 173.785268 73.942105 
L 180.870982 73.591719 
L 187.956696 73.56982 
L 195.042411 73.372727 
L 202.128125 73.175635 
L 209.213839 73.04424 
L 216.299554 73.022341 
L 223.385268 72.496761 
L 230.470982 72.431064 
L 237.556696 71.204711 
L 244.642411 70.70103 
L 251.728125 70.635333 
L 258.813839 70.547736 
L 265.899554 70.482038 
L 272.985268 69.124291 
L 280.070982 68.576812 
L 287.156696 68.138829 
L 294.242411 67.897938 
L 301.328125 66.408795 
L 308.413839 66.408795 
L 315.499554 66.233602 
L 322.585268 65.883215 
L 329.670982 65.883215 
L 336.756696 65.642325 
L 343.842411 62.247955 
L 350.928125 62.072762 
L 358.013839 62.072762 
L 365.099554 61.722375 
L 372.185268 61.131098 
L 379.270982 61.131098 
L 386.356696 61.131098 
L 393.442411 61.0873 
L 400.528125 58.853585 
L 407.613839 58.853585 
L 414.699554 58.831686 
L 421.785268 58.831686 
L 428.870982 58.809787 
L 435.956696 58.809787 
L 443.042411 58.700291 
L 450.128125 58.656493 
L 457.213839 49.020863 
L 464.299554 48.933267 
L 471.385268 48.933267 
L 478.470982 41.027671 
L 485.556696 41.005772 
L 492.642411 40.961973 
L 499.728125 40.545889 
L 506.813839 40.545889 
L 513.899554 40.392595 
L 520.985268 40.283099 
L 528.070982 40.239301 
L 535.156696 40.239301 
L 542.242411 39.888915 
L 549.328125 39.888915 
L 556.413839 39.888915 
L 563.499554 39.867015 
L 570.585268 39.867015 
L 577.670982 39.845116 
L 584.756696 39.845116 
L 591.842411 39.845116 
L 598.928125 39.845116 
L 606.013839 39.845116 
L 613.099554 39.516629 
L 620.185268 39.516629 
L 627.270982 39.472831 
L 634.356696 39.472831 
L 641.442411 39.363335 
L 648.528125 39.319536 
L 655.613839 38.509268 
L 662.699554 38.421671 
L 669.785268 38.334074 
L 676.870982 38.334074 
L 683.956696 38.312175 
L 691.042411 38.246478 
L 698.128125 38.246478 
L 705.213839 38.202679 
L 712.299554 38.202679 
L 719.385268 38.18078 
L 726.470982 38.18078 
L 733.556696 38.18078 
" clip-path="url(#p77aac6bc68)" style="fill: none; stroke: #98df8a; stroke-width: 1.5; stroke-linecap: square"/>
    <defs>
     <path id="mcb6e5b59b1" d="M -0 3 
L 3 -3 
L -3 -3 
z
" style="stroke: #ffffff; stroke-width: 0.75; stroke-linejoin: miter"/>
    </defs>
    <g clip-path="url(#p77aac6bc68)">
     <use xlink:href="#mcb6e5b59b1" x="53.328125" y="276.334125" style="fill: #98df8a; stroke: #ffffff; stroke-width: 0.75; stroke-linejoin: miter"/>
     <use xlink:href="#mcb6e5b59b1" x="60.413839" y="110.185212" style="fill: #98df8a; stroke: #ffffff; stroke-width: 0.75; stroke-linejoin: miter"/>
     <use xlink:href="#mcb6e5b59b1" x="67.499554" y="99.06044" style="fill: #98df8a; stroke: #ffffff; stroke-width: 0.75; stroke-linejoin: miter"/>
     <use xlink:href="#mcb6e5b59b1" x="74.585268" y="89.096323" style="fill: #98df8a; stroke: #ffffff; stroke-width: 0.75; stroke-linejoin: miter"/>
     <use xlink:href="#mcb6e5b59b1" x="81.670982" y="86.753113" style="fill: #98df8a; stroke: #ffffff; stroke-width: 0.75; stroke-linejoin: miter"/>
     <use xlink:href="#mcb6e5b59b1" x="88.756696" y="85.439163" style="fill: #98df8a; stroke: #ffffff; stroke-width: 0.75; stroke-linejoin: miter"/>
     <use xlink:href="#mcb6e5b59b1" x="95.842411" y="83.884323" style="fill: #98df8a; stroke: #ffffff; stroke-width: 0.75; stroke-linejoin: miter"/>
     <use xlink:href="#mcb6e5b59b1" x="102.928125" y="82.723668" style="fill: #98df8a; stroke: #ffffff; stroke-width: 0.75; stroke-linejoin: miter"/>
     <use xlink:href="#mcb6e5b59b1" x="110.013839" y="81.738206" style="fill: #98df8a; stroke: #ffffff; stroke-width: 0.75; stroke-linejoin: miter"/>
     <use xlink:href="#mcb6e5b59b1" x="117.099554" y="81.387819" style="fill: #98df8a; stroke: #ffffff; stroke-width: 0.75; stroke-linejoin: miter"/>
     <use xlink:href="#mcb6e5b59b1" x="124.185268" y="79.789181" style="fill: #98df8a; stroke: #ffffff; stroke-width: 0.75; stroke-linejoin: miter"/>
     <use xlink:href="#mcb6e5b59b1" x="131.270982" y="78.716122" style="fill: #98df8a; stroke: #ffffff; stroke-width: 0.75; stroke-linejoin: miter"/>
     <use xlink:href="#mcb6e5b59b1" x="138.356696" y="78.562828" style="fill: #98df8a; stroke: #ffffff; stroke-width: 0.75; stroke-linejoin: miter"/>
     <use xlink:href="#mcb6e5b59b1" x="145.442411" y="78.343836" style="fill: #98df8a; stroke: #ffffff; stroke-width: 0.75; stroke-linejoin: miter"/>
     <use xlink:href="#mcb6e5b59b1" x="152.528125" y="76.504307" style="fill: #98df8a; stroke: #ffffff; stroke-width: 0.75; stroke-linejoin: miter"/>
     <use xlink:href="#mcb6e5b59b1" x="159.613839" y="76.066324" style="fill: #98df8a; stroke: #ffffff; stroke-width: 0.75; stroke-linejoin: miter"/>
     <use xlink:href="#mcb6e5b59b1" x="166.699554" y="74.007803" style="fill: #98df8a; stroke: #ffffff; stroke-width: 0.75; stroke-linejoin: miter"/>
     <use xlink:href="#mcb6e5b59b1" x="173.785268" y="73.942105" style="fill: #98df8a; stroke: #ffffff; stroke-width: 0.75; stroke-linejoin: miter"/>
     <use xlink:href="#mcb6e5b59b1" x="180.870982" y="73.591719" style="fill: #98df8a; stroke: #ffffff; stroke-width: 0.75; stroke-linejoin: miter"/>
     <use xlink:href="#mcb6e5b59b1" x="187.956696" y="73.56982" style="fill: #98df8a; stroke: #ffffff; stroke-width: 0.75; stroke-linejoin: miter"/>
     <use xlink:href="#mcb6e5b59b1" x="195.042411" y="73.372727" style="fill: #98df8a; stroke: #ffffff; stroke-width: 0.75; stroke-linejoin: miter"/>
     <use xlink:href="#mcb6e5b59b1" x="202.128125" y="73.175635" style="fill: #98df8a; stroke: #ffffff; stroke-width: 0.75; stroke-linejoin: miter"/>
     <use xlink:href="#mcb6e5b59b1" x="209.213839" y="73.04424" style="fill: #98df8a; stroke: #ffffff; stroke-width: 0.75; stroke-linejoin: miter"/>
     <use xlink:href="#mcb6e5b59b1" x="216.299554" y="73.022341" style="fill: #98df8a; stroke: #ffffff; stroke-width: 0.75; stroke-linejoin: miter"/>
     <use xlink:href="#mcb6e5b59b1" x="223.385268" y="72.496761" style="fill: #98df8a; stroke: #ffffff; stroke-width: 0.75; stroke-linejoin: miter"/>
     <use xlink:href="#mcb6e5b59b1" x="230.470982" y="72.431064" style="fill: #98df8a; stroke: #ffffff; stroke-width: 0.75; stroke-linejoin: miter"/>
     <use xlink:href="#mcb6e5b59b1" x="237.556696" y="71.204711" style="fill: #98df8a; stroke: #ffffff; stroke-width: 0.75; stroke-linejoin: miter"/>
     <use xlink:href="#mcb6e5b59b1" x="244.642411" y="70.70103" style="fill: #98df8a; stroke: #ffffff; stroke-width: 0.75; stroke-linejoin: miter"/>
     <use xlink:href="#mcb6e5b59b1" x="251.728125" y="70.635333" style="fill: #98df8a; stroke: #ffffff; stroke-width: 0.75; stroke-linejoin: miter"/>
     <use xlink:href="#mcb6e5b59b1" x="258.813839" y="70.547736" style="fill: #98df8a; stroke: #ffffff; stroke-width: 0.75; stroke-linejoin: miter"/>
     <use xlink:href="#mcb6e5b59b1" x="265.899554" y="70.482038" style="fill: #98df8a; stroke: #ffffff; stroke-width: 0.75; stroke-linejoin: miter"/>
     <use xlink:href="#mcb6e5b59b1" x="272.985268" y="69.124291" style="fill: #98df8a; stroke: #ffffff; stroke-width: 0.75; stroke-linejoin: miter"/>
     <use xlink:href="#mcb6e5b59b1" x="280.070982" y="68.576812" style="fill: #98df8a; stroke: #ffffff; stroke-width: 0.75; stroke-linejoin: miter"/>
     <use xlink:href="#mcb6e5b59b1" x="287.156696" y="68.138829" style="fill: #98df8a; stroke: #ffffff; stroke-width: 0.75; stroke-linejoin: miter"/>
     <use xlink:href="#mcb6e5b59b1" x="294.242411" y="67.897938" style="fill: #98df8a; stroke: #ffffff; stroke-width: 0.75; stroke-linejoin: miter"/>
     <use xlink:href="#mcb6e5b59b1" x="301.328125" y="66.408795" style="fill: #98df8a; stroke: #ffffff; stroke-width: 0.75; stroke-linejoin: miter"/>
     <use xlink:href="#mcb6e5b59b1" x="308.413839" y="66.408795" style="fill: #98df8a; stroke: #ffffff; stroke-width: 0.75; stroke-linejoin: miter"/>
     <use xlink:href="#mcb6e5b59b1" x="315.499554" y="66.233602" style="fill: #98df8a; stroke: #ffffff; stroke-width: 0.75; stroke-linejoin: miter"/>
     <use xlink:href="#mcb6e5b59b1" x="322.585268" y="65.883215" style="fill: #98df8a; stroke: #ffffff; stroke-width: 0.75; stroke-linejoin: miter"/>
     <use xlink:href="#mcb6e5b59b1" x="329.670982" y="65.883215" style="fill: #98df8a; stroke: #ffffff; stroke-width: 0.75; stroke-linejoin: miter"/>
     <use xlink:href="#mcb6e5b59b1" x="336.756696" y="65.642325" style="fill: #98df8a; stroke: #ffffff; stroke-width: 0.75; stroke-linejoin: miter"/>
     <use xlink:href="#mcb6e5b59b1" x="343.842411" y="62.247955" style="fill: #98df8a; stroke: #ffffff; stroke-width: 0.75; stroke-linejoin: miter"/>
     <use xlink:href="#mcb6e5b59b1" x="350.928125" y="62.072762" style="fill: #98df8a; stroke: #ffffff; stroke-width: 0.75; stroke-linejoin: miter"/>
     <use xlink:href="#mcb6e5b59b1" x="358.013839" y="62.072762" style="fill: #98df8a; stroke: #ffffff; stroke-width: 0.75; stroke-linejoin: miter"/>
     <use xlink:href="#mcb6e5b59b1" x="365.099554" y="61.722375" style="fill: #98df8a; stroke: #ffffff; stroke-width: 0.75; stroke-linejoin: miter"/>
     <use xlink:href="#mcb6e5b59b1" x="372.185268" y="61.131098" style="fill: #98df8a; stroke: #ffffff; stroke-width: 0.75; stroke-linejoin: miter"/>
     <use xlink:href="#mcb6e5b59b1" x="379.270982" y="61.131098" style="fill: #98df8a; stroke: #ffffff; stroke-width: 0.75; stroke-linejoin: miter"/>
     <use xlink:href="#mcb6e5b59b1" x="386.356696" y="61.131098" style="fill: #98df8a; stroke: #ffffff; stroke-width: 0.75; stroke-linejoin: miter"/>
     <use xlink:href="#mcb6e5b59b1" x="393.442411" y="61.0873" style="fill: #98df8a; stroke: #ffffff; stroke-width: 0.75; stroke-linejoin: miter"/>
     <use xlink:href="#mcb6e5b59b1" x="400.528125" y="58.853585" style="fill: #98df8a; stroke: #ffffff; stroke-width: 0.75; stroke-linejoin: miter"/>
     <use xlink:href="#mcb6e5b59b1" x="407.613839" y="58.853585" style="fill: #98df8a; stroke: #ffffff; stroke-width: 0.75; stroke-linejoin: miter"/>
     <use xlink:href="#mcb6e5b59b1" x="414.699554" y="58.831686" style="fill: #98df8a; stroke: #ffffff; stroke-width: 0.75; stroke-linejoin: miter"/>
     <use xlink:href="#mcb6e5b59b1" x="421.785268" y="58.831686" style="fill: #98df8a; stroke: #ffffff; stroke-width: 0.75; stroke-linejoin: miter"/>
     <use xlink:href="#mcb6e5b59b1" x="428.870982" y="58.809787" style="fill: #98df8a; stroke: #ffffff; stroke-width: 0.75; stroke-linejoin: miter"/>
     <use xlink:href="#mcb6e5b59b1" x="435.956696" y="58.809787" style="fill: #98df8a; stroke: #ffffff; stroke-width: 0.75; stroke-linejoin: miter"/>
     <use xlink:href="#mcb6e5b59b1" x="443.042411" y="58.700291" style="fill: #98df8a; stroke: #ffffff; stroke-width: 0.75; stroke-linejoin: miter"/>
     <use xlink:href="#mcb6e5b59b1" x="450.128125" y="58.656493" style="fill: #98df8a; stroke: #ffffff; stroke-width: 0.75; stroke-linejoin: miter"/>
     <use xlink:href="#mcb6e5b59b1" x="457.213839" y="49.020863" style="fill: #98df8a; stroke: #ffffff; stroke-width: 0.75; stroke-linejoin: miter"/>
     <use xlink:href="#mcb6e5b59b1" x="464.299554" y="48.933267" style="fill: #98df8a; stroke: #ffffff; stroke-width: 0.75; stroke-linejoin: miter"/>
     <use xlink:href="#mcb6e5b59b1" x="471.385268" y="48.933267" style="fill: #98df8a; stroke: #ffffff; stroke-width: 0.75; stroke-linejoin: miter"/>
     <use xlink:href="#mcb6e5b59b1" x="478.470982" y="41.027671" style="fill: #98df8a; stroke: #ffffff; stroke-width: 0.75; stroke-linejoin: miter"/>
     <use xlink:href="#mcb6e5b59b1" x="485.556696" y="41.005772" style="fill: #98df8a; stroke: #ffffff; stroke-width: 0.75; stroke-linejoin: miter"/>
     <use xlink:href="#mcb6e5b59b1" x="492.642411" y="40.961973" style="fill: #98df8a; stroke: #ffffff; stroke-width: 0.75; stroke-linejoin: miter"/>
     <use xlink:href="#mcb6e5b59b1" x="499.728125" y="40.545889" style="fill: #98df8a; stroke: #ffffff; stroke-width: 0.75; stroke-linejoin: miter"/>
     <use xlink:href="#mcb6e5b59b1" x="506.813839" y="40.545889" style="fill: #98df8a; stroke: #ffffff; stroke-width: 0.75; stroke-linejoin: miter"/>
     <use xlink:href="#mcb6e5b59b1" x="513.899554" y="40.392595" style="fill: #98df8a; stroke: #ffffff; stroke-width: 0.75; stroke-linejoin: miter"/>
     <use xlink:href="#mcb6e5b59b1" x="520.985268" y="40.283099" style="fill: #98df8a; stroke: #ffffff; stroke-width: 0.75; stroke-linejoin: miter"/>
     <use xlink:href="#mcb6e5b59b1" x="528.070982" y="40.239301" style="fill: #98df8a; stroke: #ffffff; stroke-width: 0.75; stroke-linejoin: miter"/>
     <use xlink:href="#mcb6e5b59b1" x="535.156696" y="40.239301" style="fill: #98df8a; stroke: #ffffff; stroke-width: 0.75; stroke-linejoin: miter"/>
     <use xlink:href="#mcb6e5b59b1" x="542.242411" y="39.888915" style="fill: #98df8a; stroke: #ffffff; stroke-width: 0.75; stroke-linejoin: miter"/>
     <use xlink:href="#mcb6e5b59b1" x="549.328125" y="39.888915" style="fill: #98df8a; stroke: #ffffff; stroke-width: 0.75; stroke-linejoin: miter"/>
     <use xlink:href="#mcb6e5b59b1" x="556.413839" y="39.888915" style="fill: #98df8a; stroke: #ffffff; stroke-width: 0.75; stroke-linejoin: miter"/>
     <use xlink:href="#mcb6e5b59b1" x="563.499554" y="39.867015" style="fill: #98df8a; stroke: #ffffff; stroke-width: 0.75; stroke-linejoin: miter"/>
     <use xlink:href="#mcb6e5b59b1" x="570.585268" y="39.867015" style="fill: #98df8a; stroke: #ffffff; stroke-width: 0.75; stroke-linejoin: miter"/>
     <use xlink:href="#mcb6e5b59b1" x="577.670982" y="39.845116" style="fill: #98df8a; stroke: #ffffff; stroke-width: 0.75; stroke-linejoin: miter"/>
     <use xlink:href="#mcb6e5b59b1" x="584.756696" y="39.845116" style="fill: #98df8a; stroke: #ffffff; stroke-width: 0.75; stroke-linejoin: miter"/>
     <use xlink:href="#mcb6e5b59b1" x="591.842411" y="39.845116" style="fill: #98df8a; stroke: #ffffff; stroke-width: 0.75; stroke-linejoin: miter"/>
     <use xlink:href="#mcb6e5b59b1" x="598.928125" y="39.845116" style="fill: #98df8a; stroke: #ffffff; stroke-width: 0.75; stroke-linejoin: miter"/>
     <use xlink:href="#mcb6e5b59b1" x="606.013839" y="39.845116" style="fill: #98df8a; stroke: #ffffff; stroke-width: 0.75; stroke-linejoin: miter"/>
     <use xlink:href="#mcb6e5b59b1" x="613.099554" y="39.516629" style="fill: #98df8a; stroke: #ffffff; stroke-width: 0.75; stroke-linejoin: miter"/>
     <use xlink:href="#mcb6e5b59b1" x="620.185268" y="39.516629" style="fill: #98df8a; stroke: #ffffff; stroke-width: 0.75; stroke-linejoin: miter"/>
     <use xlink:href="#mcb6e5b59b1" x="627.270982" y="39.472831" style="fill: #98df8a; stroke: #ffffff; stroke-width: 0.75; stroke-linejoin: miter"/>
     <use xlink:href="#mcb6e5b59b1" x="634.356696" y="39.472831" style="fill: #98df8a; stroke: #ffffff; stroke-width: 0.75; stroke-linejoin: miter"/>
     <use xlink:href="#mcb6e5b59b1" x="641.442411" y="39.363335" style="fill: #98df8a; stroke: #ffffff; stroke-width: 0.75; stroke-linejoin: miter"/>
     <use xlink:href="#mcb6e5b59b1" x="648.528125" y="39.319536" style="fill: #98df8a; stroke: #ffffff; stroke-width: 0.75; stroke-linejoin: miter"/>
     <use xlink:href="#mcb6e5b59b1" x="655.613839" y="38.509268" style="fill: #98df8a; stroke: #ffffff; stroke-width: 0.75; stroke-linejoin: miter"/>
     <use xlink:href="#mcb6e5b59b1" x="662.699554" y="38.421671" style="fill: #98df8a; stroke: #ffffff; stroke-width: 0.75; stroke-linejoin: miter"/>
     <use xlink:href="#mcb6e5b59b1" x="669.785268" y="38.334074" style="fill: #98df8a; stroke: #ffffff; stroke-width: 0.75; stroke-linejoin: miter"/>
     <use xlink:href="#mcb6e5b59b1" x="676.870982" y="38.334074" style="fill: #98df8a; stroke: #ffffff; stroke-width: 0.75; stroke-linejoin: miter"/>
     <use xlink:href="#mcb6e5b59b1" x="683.956696" y="38.312175" style="fill: #98df8a; stroke: #ffffff; stroke-width: 0.75; stroke-linejoin: miter"/>
     <use xlink:href="#mcb6e5b59b1" x="691.042411" y="38.246478" style="fill: #98df8a; stroke: #ffffff; stroke-width: 0.75; stroke-linejoin: miter"/>
     <use xlink:href="#mcb6e5b59b1" x="698.128125" y="38.246478" style="fill: #98df8a; stroke: #ffffff; stroke-width: 0.75; stroke-linejoin: miter"/>
     <use xlink:href="#mcb6e5b59b1" x="705.213839" y="38.202679" style="fill: #98df8a; stroke: #ffffff; stroke-width: 0.75; stroke-linejoin: miter"/>
     <use xlink:href="#mcb6e5b59b1" x="712.299554" y="38.202679" style="fill: #98df8a; stroke: #ffffff; stroke-width: 0.75; stroke-linejoin: miter"/>
     <use xlink:href="#mcb6e5b59b1" x="719.385268" y="38.18078" style="fill: #98df8a; stroke: #ffffff; stroke-width: 0.75; stroke-linejoin: miter"/>
     <use xlink:href="#mcb6e5b59b1" x="726.470982" y="38.18078" style="fill: #98df8a; stroke: #ffffff; stroke-width: 0.75; stroke-linejoin: miter"/>
     <use xlink:href="#mcb6e5b59b1" x="733.556696" y="38.18078" style="fill: #98df8a; stroke: #ffffff; stroke-width: 0.75; stroke-linejoin: miter"/>
    </g>
   </g>
   <g id="line2d_21">
    <path d="M 53.328125 276.290327 
L 60.413839 109.856725 
L 67.499554 97.4837 
L 74.585268 90.081785 
L 81.670982 86.884508 
L 88.756696 86.337029 
L 95.842411 84.147113 
L 102.928125 82.329483 
L 110.013839 81.672508 
L 117.099554 80.687046 
L 124.185268 80.555651 
L 131.270982 80.402357 
L 138.356696 79.482592 
L 145.442411 78.015349 
L 152.528125 76.810895 
L 159.613839 76.285315 
L 166.699554 76.000626 
L 173.785268 75.934929 
L 180.870982 75.825433 
L 187.956696 75.343652 
L 195.042411 75.234156 
L 202.128125 75.058963 
L 209.213839 73.920206 
L 216.299554 73.613618 
L 223.385268 73.56982 
L 230.470982 73.372727 
L 237.556696 72.934744 
L 244.642411 72.693853 
L 251.728125 68.314022 
L 258.813839 67.963635 
L 265.899554 67.876039 
L 272.985268 67.744644 
L 280.070982 67.722745 
L 287.156696 67.722745 
L 294.242411 65.226241 
L 301.328125 63.999888 
L 308.413839 63.956089 
L 315.499554 63.912291 
L 322.585268 63.912291 
L 329.670982 63.912291 
L 336.756696 63.912291 
L 343.842411 63.890392 
L 350.928125 63.868493 
L 358.013839 55.174527 
L 365.099554 55.152628 
L 372.185268 55.130729 
L 379.270982 55.130729 
L 386.356696 55.043132 
L 393.442411 55.043132 
L 400.528125 55.021233 
L 407.613839 54.714645 
L 414.699554 54.605149 
L 421.785268 46.349166 
L 428.870982 46.195872 
L 435.956696 46.195872 
L 443.042411 46.130175 
L 450.128125 46.130175 
L 457.213839 45.97688 
L 464.299554 45.845486 
L 471.385268 45.845486 
L 478.470982 45.516998 
L 485.556696 45.363704 
L 492.642411 45.363704 
L 499.728125 45.363704 
L 506.813839 45.341805 
L 513.899554 44.969519 
L 520.985268 44.728628 
L 528.070982 44.706729 
L 535.156696 44.706729 
L 542.242411 44.706729 
L 549.328125 44.575334 
L 556.413839 44.531536 
L 563.499554 44.531536 
L 570.585268 44.531536 
L 577.670982 44.531536 
L 584.756696 44.531536 
L 591.842411 44.531536 
L 598.928125 44.531536 
L 606.013839 44.531536 
L 613.099554 44.487738 
L 620.185268 44.443939 
L 627.270982 43.984057 
L 634.356696 43.984057 
L 641.442411 43.611771 
L 648.528125 43.567973 
L 655.613839 43.239486 
L 662.699554 43.173788 
L 669.785268 43.173788 
L 676.870982 43.173788 
L 683.956696 43.173788 
L 691.042411 43.173788 
L 698.128125 43.151889 
L 705.213839 43.108091 
L 712.299554 43.108091 
L 719.385268 42.713906 
L 726.470982 42.713906 
L 733.556696 42.713906 
" clip-path="url(#p77aac6bc68)" style="fill: none; stroke: #1f77b4; stroke-width: 1.5; stroke-linecap: square"/>
    <defs>
     <path id="m54c3ce3591" d="M 0 3 
C 0.795609 3 1.55874 2.683901 2.12132 2.12132 
C 2.683901 1.55874 3 0.795609 3 0 
C 3 -0.795609 2.683901 -1.55874 2.12132 -2.12132 
C 1.55874 -2.683901 0.795609 -3 0 -3 
C -0.795609 -3 -1.55874 -2.683901 -2.12132 -2.12132 
C -2.683901 -1.55874 -3 -0.795609 -3 0 
C -3 0.795609 -2.683901 1.55874 -2.12132 2.12132 
C -1.55874 2.683901 -0.795609 3 0 3 
z
" style="stroke: #ffffff; stroke-width: 0.75"/>
    </defs>
    <g clip-path="url(#p77aac6bc68)">
     <use xlink:href="#m54c3ce3591" x="53.328125" y="276.290327" style="fill: #1f77b4; stroke: #ffffff; stroke-width: 0.75"/>
     <use xlink:href="#m54c3ce3591" x="60.413839" y="109.856725" style="fill: #1f77b4; stroke: #ffffff; stroke-width: 0.75"/>
     <use xlink:href="#m54c3ce3591" x="67.499554" y="97.4837" style="fill: #1f77b4; stroke: #ffffff; stroke-width: 0.75"/>
     <use xlink:href="#m54c3ce3591" x="74.585268" y="90.081785" style="fill: #1f77b4; stroke: #ffffff; stroke-width: 0.75"/>
     <use xlink:href="#m54c3ce3591" x="81.670982" y="86.884508" style="fill: #1f77b4; stroke: #ffffff; stroke-width: 0.75"/>
     <use xlink:href="#m54c3ce3591" x="88.756696" y="86.337029" style="fill: #1f77b4; stroke: #ffffff; stroke-width: 0.75"/>
     <use xlink:href="#m54c3ce3591" x="95.842411" y="84.147113" style="fill: #1f77b4; stroke: #ffffff; stroke-width: 0.75"/>
     <use xlink:href="#m54c3ce3591" x="102.928125" y="82.329483" style="fill: #1f77b4; stroke: #ffffff; stroke-width: 0.75"/>
     <use xlink:href="#m54c3ce3591" x="110.013839" y="81.672508" style="fill: #1f77b4; stroke: #ffffff; stroke-width: 0.75"/>
     <use xlink:href="#m54c3ce3591" x="117.099554" y="80.687046" style="fill: #1f77b4; stroke: #ffffff; stroke-width: 0.75"/>
     <use xlink:href="#m54c3ce3591" x="124.185268" y="80.555651" style="fill: #1f77b4; stroke: #ffffff; stroke-width: 0.75"/>
     <use xlink:href="#m54c3ce3591" x="131.270982" y="80.402357" style="fill: #1f77b4; stroke: #ffffff; stroke-width: 0.75"/>
     <use xlink:href="#m54c3ce3591" x="138.356696" y="79.482592" style="fill: #1f77b4; stroke: #ffffff; stroke-width: 0.75"/>
     <use xlink:href="#m54c3ce3591" x="145.442411" y="78.015349" style="fill: #1f77b4; stroke: #ffffff; stroke-width: 0.75"/>
     <use xlink:href="#m54c3ce3591" x="152.528125" y="76.810895" style="fill: #1f77b4; stroke: #ffffff; stroke-width: 0.75"/>
     <use xlink:href="#m54c3ce3591" x="159.613839" y="76.285315" style="fill: #1f77b4; stroke: #ffffff; stroke-width: 0.75"/>
     <use xlink:href="#m54c3ce3591" x="166.699554" y="76.000626" style="fill: #1f77b4; stroke: #ffffff; stroke-width: 0.75"/>
     <use xlink:href="#m54c3ce3591" x="173.785268" y="75.934929" style="fill: #1f77b4; stroke: #ffffff; stroke-width: 0.75"/>
     <use xlink:href="#m54c3ce3591" x="180.870982" y="75.825433" style="fill: #1f77b4; stroke: #ffffff; stroke-width: 0.75"/>
     <use xlink:href="#m54c3ce3591" x="187.956696" y="75.343652" style="fill: #1f77b4; stroke: #ffffff; stroke-width: 0.75"/>
     <use xlink:href="#m54c3ce3591" x="195.042411" y="75.234156" style="fill: #1f77b4; stroke: #ffffff; stroke-width: 0.75"/>
     <use xlink:href="#m54c3ce3591" x="202.128125" y="75.058963" style="fill: #1f77b4; stroke: #ffffff; stroke-width: 0.75"/>
     <use xlink:href="#m54c3ce3591" x="209.213839" y="73.920206" style="fill: #1f77b4; stroke: #ffffff; stroke-width: 0.75"/>
     <use xlink:href="#m54c3ce3591" x="216.299554" y="73.613618" style="fill: #1f77b4; stroke: #ffffff; stroke-width: 0.75"/>
     <use xlink:href="#m54c3ce3591" x="223.385268" y="73.56982" style="fill: #1f77b4; stroke: #ffffff; stroke-width: 0.75"/>
     <use xlink:href="#m54c3ce3591" x="230.470982" y="73.372727" style="fill: #1f77b4; stroke: #ffffff; stroke-width: 0.75"/>
     <use xlink:href="#m54c3ce3591" x="237.556696" y="72.934744" style="fill: #1f77b4; stroke: #ffffff; stroke-width: 0.75"/>
     <use xlink:href="#m54c3ce3591" x="244.642411" y="72.693853" style="fill: #1f77b4; stroke: #ffffff; stroke-width: 0.75"/>
     <use xlink:href="#m54c3ce3591" x="251.728125" y="68.314022" style="fill: #1f77b4; stroke: #ffffff; stroke-width: 0.75"/>
     <use xlink:href="#m54c3ce3591" x="258.813839" y="67.963635" style="fill: #1f77b4; stroke: #ffffff; stroke-width: 0.75"/>
     <use xlink:href="#m54c3ce3591" x="265.899554" y="67.876039" style="fill: #1f77b4; stroke: #ffffff; stroke-width: 0.75"/>
     <use xlink:href="#m54c3ce3591" x="272.985268" y="67.744644" style="fill: #1f77b4; stroke: #ffffff; stroke-width: 0.75"/>
     <use xlink:href="#m54c3ce3591" x="280.070982" y="67.722745" style="fill: #1f77b4; stroke: #ffffff; stroke-width: 0.75"/>
     <use xlink:href="#m54c3ce3591" x="287.156696" y="67.722745" style="fill: #1f77b4; stroke: #ffffff; stroke-width: 0.75"/>
     <use xlink:href="#m54c3ce3591" x="294.242411" y="65.226241" style="fill: #1f77b4; stroke: #ffffff; stroke-width: 0.75"/>
     <use xlink:href="#m54c3ce3591" x="301.328125" y="63.999888" style="fill: #1f77b4; stroke: #ffffff; stroke-width: 0.75"/>
     <use xlink:href="#m54c3ce3591" x="308.413839" y="63.956089" style="fill: #1f77b4; stroke: #ffffff; stroke-width: 0.75"/>
     <use xlink:href="#m54c3ce3591" x="315.499554" y="63.912291" style="fill: #1f77b4; stroke: #ffffff; stroke-width: 0.75"/>
     <use xlink:href="#m54c3ce3591" x="322.585268" y="63.912291" style="fill: #1f77b4; stroke: #ffffff; stroke-width: 0.75"/>
     <use xlink:href="#m54c3ce3591" x="329.670982" y="63.912291" style="fill: #1f77b4; stroke: #ffffff; stroke-width: 0.75"/>
     <use xlink:href="#m54c3ce3591" x="336.756696" y="63.912291" style="fill: #1f77b4; stroke: #ffffff; stroke-width: 0.75"/>
     <use xlink:href="#m54c3ce3591" x="343.842411" y="63.890392" style="fill: #1f77b4; stroke: #ffffff; stroke-width: 0.75"/>
     <use xlink:href="#m54c3ce3591" x="350.928125" y="63.868493" style="fill: #1f77b4; stroke: #ffffff; stroke-width: 0.75"/>
     <use xlink:href="#m54c3ce3591" x="358.013839" y="55.174527" style="fill: #1f77b4; stroke: #ffffff; stroke-width: 0.75"/>
     <use xlink:href="#m54c3ce3591" x="365.099554" y="55.152628" style="fill: #1f77b4; stroke: #ffffff; stroke-width: 0.75"/>
     <use xlink:href="#m54c3ce3591" x="372.185268" y="55.130729" style="fill: #1f77b4; stroke: #ffffff; stroke-width: 0.75"/>
     <use xlink:href="#m54c3ce3591" x="379.270982" y="55.130729" style="fill: #1f77b4; stroke: #ffffff; stroke-width: 0.75"/>
     <use xlink:href="#m54c3ce3591" x="386.356696" y="55.043132" style="fill: #1f77b4; stroke: #ffffff; stroke-width: 0.75"/>
     <use xlink:href="#m54c3ce3591" x="393.442411" y="55.043132" style="fill: #1f77b4; stroke: #ffffff; stroke-width: 0.75"/>
     <use xlink:href="#m54c3ce3591" x="400.528125" y="55.021233" style="fill: #1f77b4; stroke: #ffffff; stroke-width: 0.75"/>
     <use xlink:href="#m54c3ce3591" x="407.613839" y="54.714645" style="fill: #1f77b4; stroke: #ffffff; stroke-width: 0.75"/>
     <use xlink:href="#m54c3ce3591" x="414.699554" y="54.605149" style="fill: #1f77b4; stroke: #ffffff; stroke-width: 0.75"/>
     <use xlink:href="#m54c3ce3591" x="421.785268" y="46.349166" style="fill: #1f77b4; stroke: #ffffff; stroke-width: 0.75"/>
     <use xlink:href="#m54c3ce3591" x="428.870982" y="46.195872" style="fill: #1f77b4; stroke: #ffffff; stroke-width: 0.75"/>
     <use xlink:href="#m54c3ce3591" x="435.956696" y="46.195872" style="fill: #1f77b4; stroke: #ffffff; stroke-width: 0.75"/>
     <use xlink:href="#m54c3ce3591" x="443.042411" y="46.130175" style="fill: #1f77b4; stroke: #ffffff; stroke-width: 0.75"/>
     <use xlink:href="#m54c3ce3591" x="450.128125" y="46.130175" style="fill: #1f77b4; stroke: #ffffff; stroke-width: 0.75"/>
     <use xlink:href="#m54c3ce3591" x="457.213839" y="45.97688" style="fill: #1f77b4; stroke: #ffffff; stroke-width: 0.75"/>
     <use xlink:href="#m54c3ce3591" x="464.299554" y="45.845486" style="fill: #1f77b4; stroke: #ffffff; stroke-width: 0.75"/>
     <use xlink:href="#m54c3ce3591" x="471.385268" y="45.845486" style="fill: #1f77b4; stroke: #ffffff; stroke-width: 0.75"/>
     <use xlink:href="#m54c3ce3591" x="478.470982" y="45.516998" style="fill: #1f77b4; stroke: #ffffff; stroke-width: 0.75"/>
     <use xlink:href="#m54c3ce3591" x="485.556696" y="45.363704" style="fill: #1f77b4; stroke: #ffffff; stroke-width: 0.75"/>
     <use xlink:href="#m54c3ce3591" x="492.642411" y="45.363704" style="fill: #1f77b4; stroke: #ffffff; stroke-width: 0.75"/>
     <use xlink:href="#m54c3ce3591" x="499.728125" y="45.363704" style="fill: #1f77b4; stroke: #ffffff; stroke-width: 0.75"/>
     <use xlink:href="#m54c3ce3591" x="506.813839" y="45.341805" style="fill: #1f77b4; stroke: #ffffff; stroke-width: 0.75"/>
     <use xlink:href="#m54c3ce3591" x="513.899554" y="44.969519" style="fill: #1f77b4; stroke: #ffffff; stroke-width: 0.75"/>
     <use xlink:href="#m54c3ce3591" x="520.985268" y="44.728628" style="fill: #1f77b4; stroke: #ffffff; stroke-width: 0.75"/>
     <use xlink:href="#m54c3ce3591" x="528.070982" y="44.706729" style="fill: #1f77b4; stroke: #ffffff; stroke-width: 0.75"/>
     <use xlink:href="#m54c3ce3591" x="535.156696" y="44.706729" style="fill: #1f77b4; stroke: #ffffff; stroke-width: 0.75"/>
     <use xlink:href="#m54c3ce3591" x="542.242411" y="44.706729" style="fill: #1f77b4; stroke: #ffffff; stroke-width: 0.75"/>
     <use xlink:href="#m54c3ce3591" x="549.328125" y="44.575334" style="fill: #1f77b4; stroke: #ffffff; stroke-width: 0.75"/>
     <use xlink:href="#m54c3ce3591" x="556.413839" y="44.531536" style="fill: #1f77b4; stroke: #ffffff; stroke-width: 0.75"/>
     <use xlink:href="#m54c3ce3591" x="563.499554" y="44.531536" style="fill: #1f77b4; stroke: #ffffff; stroke-width: 0.75"/>
     <use xlink:href="#m54c3ce3591" x="570.585268" y="44.531536" style="fill: #1f77b4; stroke: #ffffff; stroke-width: 0.75"/>
     <use xlink:href="#m54c3ce3591" x="577.670982" y="44.531536" style="fill: #1f77b4; stroke: #ffffff; stroke-width: 0.75"/>
     <use xlink:href="#m54c3ce3591" x="584.756696" y="44.531536" style="fill: #1f77b4; stroke: #ffffff; stroke-width: 0.75"/>
     <use xlink:href="#m54c3ce3591" x="591.842411" y="44.531536" style="fill: #1f77b4; stroke: #ffffff; stroke-width: 0.75"/>
     <use xlink:href="#m54c3ce3591" x="598.928125" y="44.531536" style="fill: #1f77b4; stroke: #ffffff; stroke-width: 0.75"/>
     <use xlink:href="#m54c3ce3591" x="606.013839" y="44.531536" style="fill: #1f77b4; stroke: #ffffff; stroke-width: 0.75"/>
     <use xlink:href="#m54c3ce3591" x="613.099554" y="44.487738" style="fill: #1f77b4; stroke: #ffffff; stroke-width: 0.75"/>
     <use xlink:href="#m54c3ce3591" x="620.185268" y="44.443939" style="fill: #1f77b4; stroke: #ffffff; stroke-width: 0.75"/>
     <use xlink:href="#m54c3ce3591" x="627.270982" y="43.984057" style="fill: #1f77b4; stroke: #ffffff; stroke-width: 0.75"/>
     <use xlink:href="#m54c3ce3591" x="634.356696" y="43.984057" style="fill: #1f77b4; stroke: #ffffff; stroke-width: 0.75"/>
     <use xlink:href="#m54c3ce3591" x="641.442411" y="43.611771" style="fill: #1f77b4; stroke: #ffffff; stroke-width: 0.75"/>
     <use xlink:href="#m54c3ce3591" x="648.528125" y="43.567973" style="fill: #1f77b4; stroke: #ffffff; stroke-width: 0.75"/>
     <use xlink:href="#m54c3ce3591" x="655.613839" y="43.239486" style="fill: #1f77b4; stroke: #ffffff; stroke-width: 0.75"/>
     <use xlink:href="#m54c3ce3591" x="662.699554" y="43.173788" style="fill: #1f77b4; stroke: #ffffff; stroke-width: 0.75"/>
     <use xlink:href="#m54c3ce3591" x="669.785268" y="43.173788" style="fill: #1f77b4; stroke: #ffffff; stroke-width: 0.75"/>
     <use xlink:href="#m54c3ce3591" x="676.870982" y="43.173788" style="fill: #1f77b4; stroke: #ffffff; stroke-width: 0.75"/>
     <use xlink:href="#m54c3ce3591" x="683.956696" y="43.173788" style="fill: #1f77b4; stroke: #ffffff; stroke-width: 0.75"/>
     <use xlink:href="#m54c3ce3591" x="691.042411" y="43.173788" style="fill: #1f77b4; stroke: #ffffff; stroke-width: 0.75"/>
     <use xlink:href="#m54c3ce3591" x="698.128125" y="43.151889" style="fill: #1f77b4; stroke: #ffffff; stroke-width: 0.75"/>
     <use xlink:href="#m54c3ce3591" x="705.213839" y="43.108091" style="fill: #1f77b4; stroke: #ffffff; stroke-width: 0.75"/>
     <use xlink:href="#m54c3ce3591" x="712.299554" y="43.108091" style="fill: #1f77b4; stroke: #ffffff; stroke-width: 0.75"/>
     <use xlink:href="#m54c3ce3591" x="719.385268" y="42.713906" style="fill: #1f77b4; stroke: #ffffff; stroke-width: 0.75"/>
     <use xlink:href="#m54c3ce3591" x="726.470982" y="42.713906" style="fill: #1f77b4; stroke: #ffffff; stroke-width: 0.75"/>
     <use xlink:href="#m54c3ce3591" x="733.556696" y="42.713906" style="fill: #1f77b4; stroke: #ffffff; stroke-width: 0.75"/>
    </g>
   </g>
   <g id="line2d_22"/>
   <g id="line2d_23"/>
   <g id="line2d_24">
    <path d="M 733.556696 288.430125 
L 733.556696 22.318125 
" clip-path="url(#p77aac6bc68)" style="fill: none; stroke: #ff0000; stroke-width: 1.5; stroke-linecap: square"/>
   </g>
   <g id="patch_3">
    <path d="M 53.328125 269.063604 
L 53.328125 50.072023 
" style="fill: none; stroke: #000000; stroke-width: 0.8; stroke-linejoin: miter; stroke-linecap: square"/>
   </g>
   <g id="patch_4">
    <path d="M 53.328125 288.430125 
L 733.556696 288.430125 
" style="fill: none; stroke: #000000; stroke-width: 0.8; stroke-linejoin: miter; stroke-linecap: square"/>
   </g>
   <g id="text_22">
    <!-- freetype2_ftfuzzer (24h, at least 10 trials/fuzzer) -->
    <g transform="translate(264.5825 16.318125) scale(0.12 -0.12)">
     <defs>
      <path id="DejaVuSans-66" d="M 2375 4863 
L 2375 4384 
L 1825 4384 
Q 1516 4384 1395 4259 
Q 1275 4134 1275 3809 
L 1275 3500 
L 2222 3500 
L 2222 3053 
L 1275 3053 
L 1275 0 
L 697 0 
L 697 3053 
L 147 3053 
L 147 3500 
L 697 3500 
L 697 3744 
Q 697 4328 969 4595 
Q 1241 4863 1831 4863 
L 2375 4863 
z
" transform="scale(0.015625)"/>
      <path id="DejaVuSans-79" d="M 2059 -325 
Q 1816 -950 1584 -1140 
Q 1353 -1331 966 -1331 
L 506 -1331 
L 506 -850 
L 844 -850 
Q 1081 -850 1212 -737 
Q 1344 -625 1503 -206 
L 1606 56 
L 191 3500 
L 800 3500 
L 1894 763 
L 2988 3500 
L 3597 3500 
L 2059 -325 
z
" transform="scale(0.015625)"/>
      <path id="DejaVuSans-70" d="M 1159 525 
L 1159 -1331 
L 581 -1331 
L 581 3500 
L 1159 3500 
L 1159 2969 
Q 1341 3281 1617 3432 
Q 1894 3584 2278 3584 
Q 2916 3584 3314 3078 
Q 3713 2572 3713 1747 
Q 3713 922 3314 415 
Q 2916 -91 2278 -91 
Q 1894 -91 1617 61 
Q 1341 213 1159 525 
z
M 3116 1747 
Q 3116 2381 2855 2742 
Q 2594 3103 2138 3103 
Q 1681 3103 1420 2742 
Q 1159 2381 1159 1747 
Q 1159 1113 1420 752 
Q 1681 391 2138 391 
Q 2594 391 2855 752 
Q 3116 1113 3116 1747 
z
" transform="scale(0.015625)"/>
      <path id="DejaVuSans-5f" d="M 3263 -1063 
L 3263 -1509 
L -63 -1509 
L -63 -1063 
L 3263 -1063 
z
" transform="scale(0.015625)"/>
      <path id="DejaVuSans-7a" d="M 353 3500 
L 3084 3500 
L 3084 2975 
L 922 459 
L 3084 459 
L 3084 0 
L 275 0 
L 275 525 
L 2438 3041 
L 353 3041 
L 353 3500 
z
" transform="scale(0.015625)"/>
      <path id="DejaVuSans-2c" d="M 750 794 
L 1409 794 
L 1409 256 
L 897 -744 
L 494 -744 
L 750 256 
L 750 794 
z
" transform="scale(0.015625)"/>
      <path id="DejaVuSans-6c" d="M 603 4863 
L 1178 4863 
L 1178 0 
L 603 0 
L 603 4863 
z
" transform="scale(0.015625)"/>
      <path id="DejaVuSans-73" d="M 2834 3397 
L 2834 2853 
Q 2591 2978 2328 3040 
Q 2066 3103 1784 3103 
Q 1356 3103 1142 2972 
Q 928 2841 928 2578 
Q 928 2378 1081 2264 
Q 1234 2150 1697 2047 
L 1894 2003 
Q 2506 1872 2764 1633 
Q 3022 1394 3022 966 
Q 3022 478 2636 193 
Q 2250 -91 1575 -91 
Q 1294 -91 989 -36 
Q 684 19 347 128 
L 347 722 
Q 666 556 975 473 
Q 1284 391 1588 391 
Q 1994 391 2212 530 
Q 2431 669 2431 922 
Q 2431 1156 2273 1281 
Q 2116 1406 1581 1522 
L 1381 1569 
Q 847 1681 609 1914 
Q 372 2147 372 2553 
Q 372 3047 722 3315 
Q 1072 3584 1716 3584 
Q 2034 3584 2315 3537 
Q 2597 3491 2834 3397 
z
" transform="scale(0.015625)"/>
      <path id="DejaVuSans-2f" d="M 1625 4666 
L 2156 4666 
L 531 -594 
L 0 -594 
L 1625 4666 
z
" transform="scale(0.015625)"/>
     </defs>
     <use xlink:href="#DejaVuSans-66"/>
     <use xlink:href="#DejaVuSans-72" x="35.205078"/>
     <use xlink:href="#DejaVuSans-65" x="74.068359"/>
     <use xlink:href="#DejaVuSans-65" x="135.591797"/>
     <use xlink:href="#DejaVuSans-74" x="197.115234"/>
     <use xlink:href="#DejaVuSans-79" x="236.324219"/>
     <use xlink:href="#DejaVuSans-70" x="295.503906"/>
     <use xlink:href="#DejaVuSans-65" x="358.980469"/>
     <use xlink:href="#DejaVuSans-32" x="420.503906"/>
     <use xlink:href="#DejaVuSans-5f" x="484.126953"/>
     <use xlink:href="#DejaVuSans-66" x="534.126953"/>
     <use xlink:href="#DejaVuSans-74" x="567.582031"/>
     <use xlink:href="#DejaVuSans-66" x="606.791016"/>
     <use xlink:href="#DejaVuSans-75" x="641.996094"/>
     <use xlink:href="#DejaVuSans-7a" x="705.375"/>
     <use xlink:href="#DejaVuSans-7a" x="757.865234"/>
     <use xlink:href="#DejaVuSans-65" x="810.355469"/>
     <use xlink:href="#DejaVuSans-72" x="871.878906"/>
     <use xlink:href="#DejaVuSans-20" x="912.992188"/>
     <use xlink:href="#DejaVuSans-28" x="944.779297"/>
     <use xlink:href="#DejaVuSans-32" x="983.792969"/>
     <use xlink:href="#DejaVuSans-34" x="1047.416016"/>
     <use xlink:href="#DejaVuSans-68" x="1111.039062"/>
     <use xlink:href="#DejaVuSans-2c" x="1174.417969"/>
     <use xlink:href="#DejaVuSans-20" x="1206.205078"/>
     <use xlink:href="#DejaVuSans-61" x="1237.992188"/>
     <use xlink:href="#DejaVuSans-74" x="1299.271484"/>
     <use xlink:href="#DejaVuSans-20" x="1338.480469"/>
     <use xlink:href="#DejaVuSans-6c" x="1370.267578"/>
     <use xlink:href="#DejaVuSans-65" x="1398.050781"/>
     <use xlink:href="#DejaVuSans-61" x="1459.574219"/>
     <use xlink:href="#DejaVuSans-73" x="1520.853516"/>
     <use xlink:href="#DejaVuSans-74" x="1572.953125"/>
     <use xlink:href="#DejaVuSans-20" x="1612.162109"/>
     <use xlink:href="#DejaVuSans-31" x="1643.949219"/>
     <use xlink:href="#DejaVuSans-30" x="1707.572266"/>
     <use xlink:href="#DejaVuSans-20" x="1771.195312"/>
     <use xlink:href="#DejaVuSans-74" x="1802.982422"/>
     <use xlink:href="#DejaVuSans-72" x="1842.191406"/>
     <use xlink:href="#DejaVuSans-69" x="1883.304688"/>
     <use xlink:href="#DejaVuSans-61" x="1911.087891"/>
     <use xlink:href="#DejaVuSans-6c" x="1972.367188"/>
     <use xlink:href="#DejaVuSans-73" x="2000.150391"/>
     <use xlink:href="#DejaVuSans-2f" x="2052.25"/>
     <use xlink:href="#DejaVuSans-66" x="2085.941406"/>
     <use xlink:href="#DejaVuSans-75" x="2121.146484"/>
     <use xlink:href="#DejaVuSans-7a" x="2184.525391"/>
     <use xlink:href="#DejaVuSans-7a" x="2237.015625"/>
     <use xlink:href="#DejaVuSans-65" x="2289.505859"/>
     <use xlink:href="#DejaVuSans-72" x="2351.029297"/>
     <use xlink:href="#DejaVuSans-29" x="2392.142578"/>
    </g>
   </g>
   <g id="legend_1">
    <g id="line2d_25">
     <path d="M 771.568125 30.416562 
L 781.568125 30.416562 
L 791.568125 30.416562 
" style="fill: none; stroke: #98df8a; stroke-width: 1.5; stroke-linecap: square"/>
     <defs>
      <path id="m72debdddff" d="M -0 3 
L 3 -3 
L -3 -3 
z
" style="stroke: #98df8a; stroke-linejoin: miter"/>
     </defs>
     <g>
      <use xlink:href="#m72debdddff" x="781.568125" y="30.416562" style="fill: #98df8a; stroke: #98df8a; stroke-linejoin: miter"/>
     </g>
    </g>
    <g id="text_23">
     <!-- darwin_no_pre_seed -->
     <g transform="translate(799.568125 33.916562) scale(0.1 -0.1)">
      <defs>
       <path id="DejaVuSans-77" d="M 269 3500 
L 844 3500 
L 1563 769 
L 2278 3500 
L 2956 3500 
L 3675 769 
L 4391 3500 
L 4966 3500 
L 4050 0 
L 3372 0 
L 2619 2869 
L 1863 0 
L 1184 0 
L 269 3500 
z
" transform="scale(0.015625)"/>
      </defs>
      <use xlink:href="#DejaVuSans-64"/>
      <use xlink:href="#DejaVuSans-61" x="63.476562"/>
      <use xlink:href="#DejaVuSans-72" x="124.755859"/>
      <use xlink:href="#DejaVuSans-77" x="165.869141"/>
      <use xlink:href="#DejaVuSans-69" x="247.65625"/>
      <use xlink:href="#DejaVuSans-6e" x="275.439453"/>
      <use xlink:href="#DejaVuSans-5f" x="338.818359"/>
      <use xlink:href="#DejaVuSans-6e" x="388.818359"/>
      <use xlink:href="#DejaVuSans-6f" x="452.197266"/>
      <use xlink:href="#DejaVuSans-5f" x="513.378906"/>
      <use xlink:href="#DejaVuSans-70" x="563.378906"/>
      <use xlink:href="#DejaVuSans-72" x="626.855469"/>
      <use xlink:href="#DejaVuSans-65" x="665.71875"/>
      <use xlink:href="#DejaVuSans-5f" x="727.242188"/>
      <use xlink:href="#DejaVuSans-73" x="777.242188"/>
      <use xlink:href="#DejaVuSans-65" x="829.341797"/>
      <use xlink:href="#DejaVuSans-65" x="890.865234"/>
      <use xlink:href="#DejaVuSans-64" x="952.388672"/>
     </g>
    </g>
    <g id="line2d_26">
     <path d="M 771.568125 45.372813 
L 781.568125 45.372813 
L 791.568125 45.372813 
" style="fill: none; stroke: #1f77b4; stroke-width: 1.5; stroke-linecap: square"/>
     <defs>
      <path id="m36ed102de4" d="M 0 3 
C 0.795609 3 1.55874 2.683901 2.12132 2.12132 
C 2.683901 1.55874 3 0.795609 3 0 
C 3 -0.795609 2.683901 -1.55874 2.12132 -2.12132 
C 1.55874 -2.683901 0.795609 -3 0 -3 
C -0.795609 -3 -1.55874 -2.683901 -2.12132 -2.12132 
C -2.683901 -1.55874 -3 -0.795609 -3 0 
C -3 0.795609 -2.683901 1.55874 -2.12132 2.12132 
C -1.55874 2.683901 -0.795609 3 0 3 
z
" style="stroke: #1f77b4"/>
     </defs>
     <g>
      <use xlink:href="#m36ed102de4" x="781.568125" y="45.372813" style="fill: #1f77b4; stroke: #1f77b4"/>
     </g>
    </g>
    <g id="text_24">
     <!-- darwin -->
     <g transform="translate(799.568125 48.872813) scale(0.1 -0.1)">
      <use xlink:href="#DejaVuSans-64"/>
      <use xlink:href="#DejaVuSans-61" x="63.476562"/>
      <use xlink:href="#DejaVuSans-72" x="124.755859"/>
      <use xlink:href="#DejaVuSans-77" x="165.869141"/>
      <use xlink:href="#DejaVuSans-69" x="247.65625"/>
      <use xlink:href="#DejaVuSans-6e" x="275.439453"/>
     </g>
    </g>
   </g>
  </g>
 </g>
 <defs>
  <clipPath id="p77aac6bc68">
   <rect x="53.328125" y="22.318125" width="714.24" height="266.112"/>
  </clipPath>
 </defs>
</svg>
