<?xml version="1.0" encoding="utf-8" standalone="no"?>
<!DOCTYPE svg PUBLIC "-//W3C//DTD SVG 1.1//EN"
  "http://www.w3.org/Graphics/SVG/1.1/DTD/svg11.dtd">
<svg xmlns:xlink="http://www.w3.org/1999/xlink" width="912.357187pt" height="325.986375pt" viewBox="0 0 912.357187 325.986375" xmlns="http://www.w3.org/2000/svg" version="1.1">
 <metadata>
  <rdf:RDF xmlns:dc="http://purl.org/dc/elements/1.1/" xmlns:cc="http://creativecommons.org/ns#" xmlns:rdf="http://www.w3.org/1999/02/22-rdf-syntax-ns#">
   <cc:Work>
    <dc:type rdf:resource="http://purl.org/dc/dcmitype/StillImage"/>
    <dc:date>2023-08-02T15:42:25.113719</dc:date>
    <dc:format>image/svg+xml</dc:format>
    <dc:creator>
     <cc:Agent>
      <dc:title>Matplotlib v3.7.1, https://matplotlib.org/</dc:title>
     </cc:Agent>
    </dc:creator>
   </cc:Work>
  </rdf:RDF>
 </metadata>
 <defs>
  <style type="text/css">*{stroke-linejoin: round; stroke-linecap: butt}</style>
 </defs>
 <g id="figure_1">
  <g id="patch_1">
   <path d="M 0 325.986375 
L 912.357187 325.986375 
L 912.357187 0 
L 0 0 
z
" style="fill: #ffffff"/>
  </g>
  <g id="axes_1">
   <g id="patch_2">
    <path d="M 53.328125 288.430125 
L 767.568125 288.430125 
L 767.568125 22.318125 
L 53.328125 22.318125 
z
" style="fill: #ffffff"/>
   </g>
   <g id="PolyCollection_1">
    <defs>
     <path id="m6e8d736212" d="M 53.328125 -49.696048 
L 53.328125 -49.65225 
L 519.474297 -213.436054 
L 556.751639 -224.276137 
L 578.557487 -235.225716 
L 594.028982 -237.766018 
L 606.029605 -239.342758 
L 615.834829 -240.218724 
L 624.125027 -241.269884 
L 631.306324 -241.401279 
L 637.640676 -242.233447 
L 643.306948 -243.613094 
L 648.432713 -244.598556 
L 653.112171 -245.759211 
L 657.416855 -245.78111 
L 661.40237 -245.78111 
L 665.112795 -246.394287 
L 668.583666 -246.394287 
L 671.844048 -246.56948 
L 674.918019 -246.919867 
L 677.825745 -247.073161 
L 680.58429 -247.138858 
L 683.208217 -247.182656 
L 685.710056 -247.204556 
L 688.100664 -247.35785 
L 690.389513 -247.379749 
L 692.584914 -247.379749 
L 694.694197 -247.576841 
L 696.723866 -248.058623 
L 698.679712 -248.365211 
L 700.566917 -248.715598 
L 702.390137 -248.978387 
L 704.153569 -250.46753 
L 705.861008 -251.212102 
L 707.515903 -250.007648 
L 709.121391 -250.248539 
L 710.680336 -251.78148 
L 712.195361 -250.270438 
L 713.668873 -253.314421 
L 715.103087 -253.402017 
L 716.500045 -253.402017 
L 717.861632 -253.402017 
L 719.189597 -253.402017 
L 720.485559 -253.402017 
L 721.751025 -253.927597 
L 722.987398 -253.927597 
L 724.195985 -253.927597 
L 725.378007 -253.971395 
L 726.534607 -253.971395 
L 727.666856 -253.971395 
L 728.775758 -253.971395 
L 729.862256 -254.058992 
L 730.927238 -254.540774 
L 731.971539 -254.540774 
L 732.995948 -254.540774 
L 734.001208 -256.161311 
L 734.988022 -257.781849 
L 735.957054 -257.869446 
L 736.908934 -257.869446 
L 737.84426 -256.20511 
L 738.763595 -257.869446 
L 739.667479 -257.913244 
L 740.556423 -258.044639 
L 741.430911 -258.701614 
L 742.291407 -258.701614 
L 743.138351 -256.774488 
L 743.972163 -258.876807 
L 744.793245 -256.818286 
L 745.60198 -259.095798 
L 746.398733 -259.095798 
L 747.183854 -259.095798 
L 747.957678 -259.183395 
L 748.720525 -259.183395 
L 749.472703 -257.628555 
L 750.214506 -259.183395 
L 750.946215 -259.183395 
L 751.668103 -259.183395 
L 752.380429 -257.628555 
L 753.083444 -259.183395 
L 753.777387 -259.183395 
L 754.46249 -259.183395 
L 755.138974 -261.898891 
L 755.807055 -267.680268 
L 756.466939 -267.417479 
L 757.118824 -267.658369 
L 757.762901 -268.030655 
L 758.399357 -267.745966 
L 759.028368 -268.118252 
L 759.650107 -262.44637 
L 760.26474 -268.118252 
L 760.872429 -267.789764 
L 761.473327 -268.537621 
L 762.067585 -268.643831 
L 762.655349 -268.643831 
L 763.236758 -268.643831 
L 763.811949 -268.643831 
L 764.381053 -268.643831 
L 764.944198 -268.643831 
L 764.944198 -291.418956 
L 764.944198 -291.418956 
L 764.381053 -291.57225 
L 763.811949 -291.418956 
L 763.236758 -291.331359 
L 762.655349 -291.331359 
L 762.067585 -291.331359 
L 761.473327 -291.287561 
L 760.872429 -291.287561 
L 760.26474 -290.805779 
L 759.650107 -290.805779 
L 759.028368 -290.805779 
L 758.399357 -290.805779 
L 757.762901 -290.805779 
L 757.118824 -290.871477 
L 756.466939 -290.761981 
L 755.807055 -290.761981 
L 755.138974 -290.652485 
L 754.46249 -290.54299 
L 753.777387 -290.499191 
L 753.083444 -290.499191 
L 752.380429 -290.367796 
L 751.668103 -290.323998 
L 750.946215 -290.323998 
L 750.214506 -290.148805 
L 749.472703 -290.148805 
L 748.720525 -290.105006 
L 747.957678 -290.061208 
L 747.183854 -290.061208 
L 746.398733 -289.929813 
L 745.60198 -289.667023 
L 744.793245 -289.667023 
L 743.972163 -289.667023 
L 743.138351 -288.456 
L 742.291407 -288.456 
L 741.430911 -288.44067 
L 740.556423 -288.265477 
L 739.667479 -288.221679 
L 738.763595 -286.644939 
L 737.84426 -286.644939 
L 736.908934 -286.644939 
L 735.957054 -286.425948 
L 734.988022 -284.674015 
L 734.001208 -284.54262 
L 732.995948 -285.703276 
L 731.971539 -285.681376 
L 730.927238 -285.571881 
L 729.862256 -282.965881 
L 728.775758 -285.33099 
L 727.666856 -282.265108 
L 726.534607 -281.520536 
L 725.378007 -281.476738 
L 724.195985 -281.43294 
L 722.987398 -272.870369 
L 721.751025 -273.242655 
L 720.485559 -268.731428 
L 719.189597 -274.687999 
L 717.861632 -271.731613 
L 716.500045 -272.651377 
L 715.103087 -274.490907 
L 713.668873 -271.665915 
L 712.195361 -272.607579 
L 710.680336 -272.410487 
L 709.121391 -271.622117 
L 707.515903 -271.644016 
L 705.861008 -274.184318 
L 704.153569 -268.030655 
L 702.390137 -268.030655 
L 700.566917 -267.986857 
L 698.679712 -267.417479 
L 696.723866 -267.37368 
L 694.694197 -267.154689 
L 692.584914 -267.154689 
L 690.389513 -265.161865 
L 688.100664 -264.439193 
L 685.710056 -264.348859 
L 683.208217 -262.818655 
L 680.58429 -261.351412 
L 677.825745 -262.577765 
L 674.918019 -262.577765 
L 671.844048 -262.402571 
L 668.583666 -258.438824 
L 665.112795 -253.710248 
L 661.40237 -252.219463 
L 657.416855 -250.73032 
L 653.112171 -250.73032 
L 648.432713 -248.890791 
L 643.306948 -248.365211 
L 637.640676 -246.350488 
L 631.306324 -244.992741 
L 624.125027 -243.864934 
L 615.834829 -244.357665 
L 606.029605 -244.138673 
L 594.028982 -242.233447 
L 578.557487 -239.693144 
L 556.751639 -233.648977 
L 519.474297 -217.664234 
L 53.328125 -49.696048 
z
" style="stroke: #98df8a; stroke-opacity: 0.2"/>
    </defs>
    <g clip-path="url(#pc2eb088216)">
     <use xlink:href="#m6e8d736212" x="0" y="325.986375" style="fill: #98df8a; fill-opacity: 0.2; stroke: #98df8a; stroke-opacity: 0.2"/>
    </g>
   </g>
   <g id="PolyCollection_2">
    <defs>
     <path id="mb3e69375c0" d="M 53.328125 -49.696048 
L 53.328125 -49.65225 
L 519.474297 -212.49439 
L 556.751639 -221.735835 
L 578.557487 -235.094321 
L 594.028982 -236.014086 
L 606.029605 -236.014086 
L 615.834829 -238.598186 
L 624.125027 -239.058069 
L 631.306324 -240.897598 
L 637.640676 -241.795464 
L 643.306948 -243.503598 
L 648.432713 -243.941034 
L 653.112171 -244.423363 
L 657.416855 -245.912505 
L 661.40237 -246.459984 
L 665.112795 -247.902591 
L 668.583666 -246.919867 
L 671.844048 -248.540404 
L 674.918019 -246.919867 
L 677.825745 -247.415335 
L 680.58429 -247.59874 
L 683.208217 -248.628001 
L 685.710056 -249.263076 
L 688.100664 -249.372572 
L 690.389513 -249.372572 
L 692.584914 -249.372572 
L 694.694197 -249.547766 
L 696.723866 -250.20474 
L 698.679712 -251.168303 
L 700.566917 -251.168303 
L 702.390137 -251.168303 
L 704.153569 -251.343496 
L 705.861008 -251.737681 
L 707.515903 -251.299698 
L 709.121391 -251.78148 
L 710.680336 -251.78148 
L 712.195361 -251.825278 
L 713.668873 -251.912875 
L 715.103087 -251.912875 
L 716.500045 -251.912875 
L 717.861632 -252.088068 
L 719.189597 -252.02237 
L 720.485559 -252.131866 
L 721.751025 -252.131866 
L 722.987398 -253.051631 
L 724.195985 -253.445816 
L 725.378007 -252.788841 
L 726.534607 -253.533412 
L 727.666856 -253.577211 
L 728.775758 -253.577211 
L 729.862256 -253.577211 
L 730.927238 -253.051631 
L 731.971539 -253.621009 
L 732.995948 -253.621009 
L 734.001208 -253.489614 
L 734.988022 -254.825463 
L 735.957054 -256.161311 
L 736.908934 -256.161311 
L 737.84426 -256.248908 
L 738.763595 -256.248908 
L 739.667479 -256.248908 
L 740.556423 -256.248908 
L 741.430911 -256.424101 
L 742.291407 -256.424101 
L 743.138351 -257.978941 
L 743.972163 -263.47563 
L 744.793245 -263.650823 
L 745.60198 -263.650823 
L 746.398733 -265.534151 
L 747.183854 -261.417109 
L 747.957678 -261.417109 
L 748.720525 -265.621748 
L 749.472703 -265.621748 
L 750.214506 -265.621748 
L 750.946215 -265.621748 
L 751.668103 -265.578497 
L 752.380429 -265.665546 
L 753.083444 -265.665546 
L 753.777387 -265.665546 
L 754.46249 -265.665546 
L 755.138974 -265.665546 
L 755.807055 -265.665546 
L 756.466939 -265.665546 
L 757.118824 -265.665546 
L 757.762901 -265.840739 
L 758.399357 -265.840739 
L 759.028368 -265.840739 
L 759.650107 -265.840739 
L 760.26474 -265.840739 
L 760.872429 -264.285899 
L 761.473327 -265.840739 
L 762.067585 -265.840739 
L 762.655349 -267.680268 
L 763.236758 -267.724067 
L 763.811949 -267.724067 
L 764.381053 -267.724067 
L 764.944198 -267.724067 
L 764.944198 -289.316637 
L 764.944198 -289.316637 
L 764.381053 -289.053847 
L 763.811949 -289.316637 
L 763.236758 -288.659662 
L 762.655349 -289.185242 
L 762.067585 -288.002687 
L 761.473327 -288.734119 
L 760.872429 -287.236217 
L 760.26474 -288.725359 
L 759.650107 -289.075746 
L 759.028368 -288.615864 
L 758.399357 -287.133838 
L 757.762901 -287.126721 
L 757.118824 -286.951528 
L 756.466939 -287.082923 
L 755.807055 -288.944351 
L 755.138974 -286.951528 
L 754.46249 -288.265477 
L 753.777387 -288.134082 
L 753.083444 -286.907729 
L 752.380429 -286.930176 
L 751.668103 -287.783696 
L 750.946215 -286.820133 
L 750.214506 -287.717998 
L 749.472703 -286.820133 
L 748.720525 -286.820133 
L 747.957678 -287.696099 
L 747.183854 -286.776334 
L 746.398733 -287.630402 
L 745.60198 -287.630402 
L 744.793245 -287.630402 
L 743.972163 -287.367612 
L 743.138351 -286.031763 
L 742.291407 -286.031763 
L 741.430911 -286.031763 
L 740.556423 -287.367612 
L 739.667479 -286.513544 
L 738.763595 -286.513544 
L 737.84426 -286.491645 
L 736.908934 -287.345712 
L 735.957054 -286.512997 
L 734.988022 -285.812771 
L 734.001208 -285.812771 
L 732.995948 -285.812771 
L 731.971539 -285.768973 
L 730.927238 -286.294553 
L 729.862256 -286.270464 
L 728.775758 -285.725175 
L 727.666856 -285.549982 
L 726.534607 -285.462385 
L 725.378007 -285.462385 
L 724.195985 -285.462385 
L 722.987398 -285.33099 
L 721.751025 -283.294368 
L 720.485559 -280.250385 
L 719.189597 -280.250385 
L 717.861632 -279.8562 
L 716.500045 -279.8562 
L 715.103087 -279.637209 
L 713.668873 -279.637209 
L 712.195361 -279.637209 
L 710.680336 -276.089545 
L 709.121391 -276.045747 
L 707.515903 -276.045747 
L 705.861008 -275.69536 
L 704.153569 -275.476369 
L 702.390137 -275.388772 
L 700.566917 -275.388772 
L 698.679712 -274.994587 
L 696.723866 -269.388403 
L 694.694197 -266.309929 
L 692.584914 -265.249462 
L 690.389513 -265.490353 
L 688.100664 -268.534336 
L 685.710056 -267.286084 
L 683.208217 -263.694622 
L 680.58429 -266.738605 
L 677.825745 -263.598813 
L 674.918019 -263.234739 
L 671.844048 -266.497714 
L 668.583666 -265.81884 
L 665.112795 -265.337059 
L 661.40237 -261.614202 
L 657.416855 -259.095798 
L 653.112171 -259.095798 
L 648.432713 -259.911542 
L 643.306948 -261.636101 
L 637.640676 -265.621748 
L 631.306324 -260.541143 
L 624.125027 -260.10316 
L 615.834829 -247.62064 
L 606.029605 -247.489245 
L 594.028982 -247.226455 
L 578.557487 -244.948942 
L 556.751639 -238.379195 
L 519.474297 -224.013347 
L 53.328125 -49.696048 
z
" style="stroke: #1f77b4; stroke-opacity: 0.2"/>
    </defs>
    <g clip-path="url(#pc2eb088216)">
     <use xlink:href="#mb3e69375c0" x="0" y="325.986375" style="fill: #1f77b4; fill-opacity: 0.2; stroke: #1f77b4; stroke-opacity: 0.2"/>
    </g>
   </g>
   <g id="matplotlib.axis_1">
    <g id="xtick_1">
     <g id="line2d_1">
      <defs>
       <path id="m7ef98de3b5" d="M 0 0 
L 0 3.5 
" style="stroke: #000000; stroke-width: 0.8"/>
      </defs>
      <g>
       <use xlink:href="#m7ef98de3b5" x="53.328125" y="288.430125" style="stroke: #000000; stroke-width: 0.8"/>
      </g>
     </g>
     <g id="text_1">
      <!-- 0m -->
      <g transform="translate(45.276563 303.028562) scale(0.1 -0.1)">
       <defs>
        <path id="DejaVuSans-30" d="M 2034 4250 
Q 1547 4250 1301 3770 
Q 1056 3291 1056 2328 
Q 1056 1369 1301 889 
Q 1547 409 2034 409 
Q 2525 409 2770 889 
Q 3016 1369 3016 2328 
Q 3016 3291 2770 3770 
Q 2525 4250 2034 4250 
z
M 2034 4750 
Q 2819 4750 3233 4129 
Q 3647 3509 3647 2328 
Q 3647 1150 3233 529 
Q 2819 -91 2034 -91 
Q 1250 -91 836 529 
Q 422 1150 422 2328 
Q 422 3509 836 4129 
Q 1250 4750 2034 4750 
z
" transform="scale(0.015625)"/>
        <path id="DejaVuSans-6d" d="M 3328 2828 
Q 3544 3216 3844 3400 
Q 4144 3584 4550 3584 
Q 5097 3584 5394 3201 
Q 5691 2819 5691 2113 
L 5691 0 
L 5113 0 
L 5113 2094 
Q 5113 2597 4934 2840 
Q 4756 3084 4391 3084 
Q 3944 3084 3684 2787 
Q 3425 2491 3425 1978 
L 3425 0 
L 2847 0 
L 2847 2094 
Q 2847 2600 2669 2842 
Q 2491 3084 2119 3084 
Q 1678 3084 1418 2786 
Q 1159 2488 1159 1978 
L 1159 0 
L 581 0 
L 581 3500 
L 1159 3500 
L 1159 2956 
Q 1356 3278 1631 3431 
Q 1906 3584 2284 3584 
Q 2666 3584 2933 3390 
Q 3200 3197 3328 2828 
z
" transform="scale(0.015625)"/>
       </defs>
       <use xlink:href="#DejaVuSans-30"/>
       <use xlink:href="#DejaVuSans-6d" x="63.623047"/>
      </g>
     </g>
    </g>
    <g id="xtick_2">
     <g id="line2d_2">
      <g>
       <use xlink:href="#m7ef98de3b5" x="122.124042" y="288.430125" style="stroke: #000000; stroke-width: 0.8"/>
      </g>
     </g>
    </g>
    <g id="xtick_3">
     <g id="line2d_3">
      <g>
       <use xlink:href="#m7ef98de3b5" x="214.772837" y="288.430125" style="stroke: #000000; stroke-width: 0.8"/>
      </g>
     </g>
    </g>
    <g id="xtick_4">
     <g id="line2d_4">
      <g>
       <use xlink:href="#m7ef98de3b5" x="275.903057" y="288.430125" style="stroke: #000000; stroke-width: 0.8"/>
      </g>
     </g>
    </g>
    <g id="xtick_5">
     <g id="line2d_5">
      <g>
       <use xlink:href="#m7ef98de3b5" x="337.033278" y="288.430125" style="stroke: #000000; stroke-width: 0.8"/>
      </g>
     </g>
    </g>
    <g id="xtick_6">
     <g id="line2d_6">
      <g>
       <use xlink:href="#m7ef98de3b5" x="398.163498" y="288.430125" style="stroke: #000000; stroke-width: 0.8"/>
      </g>
     </g>
     <g id="text_2">
      <!-- 1m -->
      <g transform="translate(390.111936 303.028562) scale(0.1 -0.1)">
       <defs>
        <path id="DejaVuSans-31" d="M 794 531 
L 1825 531 
L 1825 4091 
L 703 3866 
L 703 4441 
L 1819 4666 
L 2450 4666 
L 2450 531 
L 3481 531 
L 3481 0 
L 794 0 
L 794 531 
z
" transform="scale(0.015625)"/>
       </defs>
       <use xlink:href="#DejaVuSans-31"/>
       <use xlink:href="#DejaVuSans-6d" x="63.623047"/>
      </g>
     </g>
    </g>
    <g id="xtick_7">
     <g id="line2d_7">
      <g>
       <use xlink:href="#m7ef98de3b5" x="459.293719" y="288.430125" style="stroke: #000000; stroke-width: 0.8"/>
      </g>
     </g>
     <g id="text_3">
      <!-- 4m -->
      <g transform="translate(451.242156 303.028562) scale(0.1 -0.1)">
       <defs>
        <path id="DejaVuSans-34" d="M 2419 4116 
L 825 1625 
L 2419 1625 
L 2419 4116 
z
M 2253 4666 
L 3047 4666 
L 3047 1625 
L 3713 1625 
L 3713 1100 
L 3047 1100 
L 3047 0 
L 2419 0 
L 2419 1100 
L 313 1100 
L 313 1709 
L 2253 4666 
z
" transform="scale(0.015625)"/>
       </defs>
       <use xlink:href="#DejaVuSans-34"/>
       <use xlink:href="#DejaVuSans-6d" x="63.623047"/>
      </g>
     </g>
    </g>
    <g id="xtick_8">
     <g id="line2d_8">
      <g>
       <use xlink:href="#m7ef98de3b5" x="520.423939" y="288.430125" style="stroke: #000000; stroke-width: 0.8"/>
      </g>
     </g>
     <g id="text_4">
      <!-- 15m -->
      <g transform="translate(509.191126 303.028562) scale(0.1 -0.1)">
       <defs>
        <path id="DejaVuSans-35" d="M 691 4666 
L 3169 4666 
L 3169 4134 
L 1269 4134 
L 1269 2991 
Q 1406 3038 1543 3061 
Q 1681 3084 1819 3084 
Q 2600 3084 3056 2656 
Q 3513 2228 3513 1497 
Q 3513 744 3044 326 
Q 2575 -91 1722 -91 
Q 1428 -91 1123 -41 
Q 819 9 494 109 
L 494 744 
Q 775 591 1075 516 
Q 1375 441 1709 441 
Q 2250 441 2565 725 
Q 2881 1009 2881 1497 
Q 2881 1984 2565 2268 
Q 2250 2553 1709 2553 
Q 1456 2553 1204 2497 
Q 953 2441 691 2322 
L 691 4666 
z
" transform="scale(0.015625)"/>
       </defs>
       <use xlink:href="#DejaVuSans-31"/>
       <use xlink:href="#DejaVuSans-35" x="63.623047"/>
       <use xlink:href="#DejaVuSans-6d" x="127.246094"/>
      </g>
     </g>
    </g>
    <g id="xtick_9">
     <g id="line2d_9">
      <g>
       <use xlink:href="#m7ef98de3b5" x="581.554159" y="288.430125" style="stroke: #000000; stroke-width: 0.8"/>
      </g>
     </g>
     <g id="text_5">
      <!-- 47m -->
      <g transform="translate(570.321347 303.028562) scale(0.1 -0.1)">
       <defs>
        <path id="DejaVuSans-37" d="M 525 4666 
L 3525 4666 
L 3525 4397 
L 1831 0 
L 1172 0 
L 2766 4134 
L 525 4134 
L 525 4666 
z
" transform="scale(0.015625)"/>
       </defs>
       <use xlink:href="#DejaVuSans-34"/>
       <use xlink:href="#DejaVuSans-37" x="63.623047"/>
       <use xlink:href="#DejaVuSans-6d" x="127.246094"/>
      </g>
     </g>
    </g>
    <g id="xtick_10">
     <g id="line2d_10">
      <g>
       <use xlink:href="#m7ef98de3b5" x="642.68438" y="288.430125" style="stroke: #000000; stroke-width: 0.8"/>
      </g>
     </g>
     <g id="text_6">
      <!-- 2h:28m -->
      <g transform="translate(623.417192 303.028562) scale(0.1 -0.1)">
       <defs>
        <path id="DejaVuSans-32" d="M 1228 531 
L 3431 531 
L 3431 0 
L 469 0 
L 469 531 
Q 828 903 1448 1529 
Q 2069 2156 2228 2338 
Q 2531 2678 2651 2914 
Q 2772 3150 2772 3378 
Q 2772 3750 2511 3984 
Q 2250 4219 1831 4219 
Q 1534 4219 1204 4116 
Q 875 4013 500 3803 
L 500 4441 
Q 881 4594 1212 4672 
Q 1544 4750 1819 4750 
Q 2544 4750 2975 4387 
Q 3406 4025 3406 3419 
Q 3406 3131 3298 2873 
Q 3191 2616 2906 2266 
Q 2828 2175 2409 1742 
Q 1991 1309 1228 531 
z
" transform="scale(0.015625)"/>
        <path id="DejaVuSans-68" d="M 3513 2113 
L 3513 0 
L 2938 0 
L 2938 2094 
Q 2938 2591 2744 2837 
Q 2550 3084 2163 3084 
Q 1697 3084 1428 2787 
Q 1159 2491 1159 1978 
L 1159 0 
L 581 0 
L 581 4863 
L 1159 4863 
L 1159 2956 
Q 1366 3272 1645 3428 
Q 1925 3584 2291 3584 
Q 2894 3584 3203 3211 
Q 3513 2838 3513 2113 
z
" transform="scale(0.015625)"/>
        <path id="DejaVuSans-3a" d="M 750 794 
L 1409 794 
L 1409 0 
L 750 0 
L 750 794 
z
M 750 3309 
L 1409 3309 
L 1409 2516 
L 750 2516 
L 750 3309 
z
" transform="scale(0.015625)"/>
        <path id="DejaVuSans-38" d="M 2034 2216 
Q 1584 2216 1326 1975 
Q 1069 1734 1069 1313 
Q 1069 891 1326 650 
Q 1584 409 2034 409 
Q 2484 409 2743 651 
Q 3003 894 3003 1313 
Q 3003 1734 2745 1975 
Q 2488 2216 2034 2216 
z
M 1403 2484 
Q 997 2584 770 2862 
Q 544 3141 544 3541 
Q 544 4100 942 4425 
Q 1341 4750 2034 4750 
Q 2731 4750 3128 4425 
Q 3525 4100 3525 3541 
Q 3525 3141 3298 2862 
Q 3072 2584 2669 2484 
Q 3125 2378 3379 2068 
Q 3634 1759 3634 1313 
Q 3634 634 3220 271 
Q 2806 -91 2034 -91 
Q 1263 -91 848 271 
Q 434 634 434 1313 
Q 434 1759 690 2068 
Q 947 2378 1403 2484 
z
M 1172 3481 
Q 1172 3119 1398 2916 
Q 1625 2713 2034 2713 
Q 2441 2713 2670 2916 
Q 2900 3119 2900 3481 
Q 2900 3844 2670 4047 
Q 2441 4250 2034 4250 
Q 1625 4250 1398 4047 
Q 1172 3844 1172 3481 
z
" transform="scale(0.015625)"/>
       </defs>
       <use xlink:href="#DejaVuSans-32"/>
       <use xlink:href="#DejaVuSans-68" x="63.623047"/>
       <use xlink:href="#DejaVuSans-3a" x="127.001953"/>
       <use xlink:href="#DejaVuSans-32" x="160.693359"/>
       <use xlink:href="#DejaVuSans-38" x="224.316406"/>
       <use xlink:href="#DejaVuSans-6d" x="287.939453"/>
      </g>
     </g>
    </g>
    <g id="xtick_11">
     <g id="line2d_11">
      <g>
       <use xlink:href="#m7ef98de3b5" x="703.8146" y="288.430125" style="stroke: #000000; stroke-width: 0.8"/>
      </g>
     </g>
     <g id="text_7">
      <!-- 7h:42m -->
      <g transform="translate(684.547413 303.028562) scale(0.1 -0.1)">
       <use xlink:href="#DejaVuSans-37"/>
       <use xlink:href="#DejaVuSans-68" x="63.623047"/>
       <use xlink:href="#DejaVuSans-3a" x="127.001953"/>
       <use xlink:href="#DejaVuSans-34" x="160.693359"/>
       <use xlink:href="#DejaVuSans-32" x="224.316406"/>
       <use xlink:href="#DejaVuSans-6d" x="287.939453"/>
      </g>
     </g>
    </g>
    <g id="xtick_12">
     <g id="line2d_12">
      <g>
       <use xlink:href="#m7ef98de3b5" x="764.94482" y="288.430125" style="stroke: #000000; stroke-width: 0.8"/>
      </g>
     </g>
     <g id="text_8">
      <!-- 24h -->
      <g transform="translate(755.41357 303.028562) scale(0.1 -0.1)">
       <use xlink:href="#DejaVuSans-32"/>
       <use xlink:href="#DejaVuSans-34" x="63.623047"/>
       <use xlink:href="#DejaVuSans-68" x="127.246094"/>
      </g>
     </g>
    </g>
    <g id="text_9">
     <!-- Time (hour:minute) -->
     <g transform="translate(362.041094 316.706687) scale(0.1 -0.1)">
      <defs>
       <path id="DejaVuSans-54" d="M -19 4666 
L 3928 4666 
L 3928 4134 
L 2272 4134 
L 2272 0 
L 1638 0 
L 1638 4134 
L -19 4134 
L -19 4666 
z
" transform="scale(0.015625)"/>
       <path id="DejaVuSans-69" d="M 603 3500 
L 1178 3500 
L 1178 0 
L 603 0 
L 603 3500 
z
M 603 4863 
L 1178 4863 
L 1178 4134 
L 603 4134 
L 603 4863 
z
" transform="scale(0.015625)"/>
       <path id="DejaVuSans-65" d="M 3597 1894 
L 3597 1613 
L 953 1613 
Q 991 1019 1311 708 
Q 1631 397 2203 397 
Q 2534 397 2845 478 
Q 3156 559 3463 722 
L 3463 178 
Q 3153 47 2828 -22 
Q 2503 -91 2169 -91 
Q 1331 -91 842 396 
Q 353 884 353 1716 
Q 353 2575 817 3079 
Q 1281 3584 2069 3584 
Q 2775 3584 3186 3129 
Q 3597 2675 3597 1894 
z
M 3022 2063 
Q 3016 2534 2758 2815 
Q 2500 3097 2075 3097 
Q 1594 3097 1305 2825 
Q 1016 2553 972 2059 
L 3022 2063 
z
" transform="scale(0.015625)"/>
       <path id="DejaVuSans-20" transform="scale(0.015625)"/>
       <path id="DejaVuSans-28" d="M 1984 4856 
Q 1566 4138 1362 3434 
Q 1159 2731 1159 2009 
Q 1159 1288 1364 580 
Q 1569 -128 1984 -844 
L 1484 -844 
Q 1016 -109 783 600 
Q 550 1309 550 2009 
Q 550 2706 781 3412 
Q 1013 4119 1484 4856 
L 1984 4856 
z
" transform="scale(0.015625)"/>
       <path id="DejaVuSans-6f" d="M 1959 3097 
Q 1497 3097 1228 2736 
Q 959 2375 959 1747 
Q 959 1119 1226 758 
Q 1494 397 1959 397 
Q 2419 397 2687 759 
Q 2956 1122 2956 1747 
Q 2956 2369 2687 2733 
Q 2419 3097 1959 3097 
z
M 1959 3584 
Q 2709 3584 3137 3096 
Q 3566 2609 3566 1747 
Q 3566 888 3137 398 
Q 2709 -91 1959 -91 
Q 1206 -91 779 398 
Q 353 888 353 1747 
Q 353 2609 779 3096 
Q 1206 3584 1959 3584 
z
" transform="scale(0.015625)"/>
       <path id="DejaVuSans-75" d="M 544 1381 
L 544 3500 
L 1119 3500 
L 1119 1403 
Q 1119 906 1312 657 
Q 1506 409 1894 409 
Q 2359 409 2629 706 
Q 2900 1003 2900 1516 
L 2900 3500 
L 3475 3500 
L 3475 0 
L 2900 0 
L 2900 538 
Q 2691 219 2414 64 
Q 2138 -91 1772 -91 
Q 1169 -91 856 284 
Q 544 659 544 1381 
z
M 1991 3584 
L 1991 3584 
z
" transform="scale(0.015625)"/>
       <path id="DejaVuSans-72" d="M 2631 2963 
Q 2534 3019 2420 3045 
Q 2306 3072 2169 3072 
Q 1681 3072 1420 2755 
Q 1159 2438 1159 1844 
L 1159 0 
L 581 0 
L 581 3500 
L 1159 3500 
L 1159 2956 
Q 1341 3275 1631 3429 
Q 1922 3584 2338 3584 
Q 2397 3584 2469 3576 
Q 2541 3569 2628 3553 
L 2631 2963 
z
" transform="scale(0.015625)"/>
       <path id="DejaVuSans-6e" d="M 3513 2113 
L 3513 0 
L 2938 0 
L 2938 2094 
Q 2938 2591 2744 2837 
Q 2550 3084 2163 3084 
Q 1697 3084 1428 2787 
Q 1159 2491 1159 1978 
L 1159 0 
L 581 0 
L 581 3500 
L 1159 3500 
L 1159 2956 
Q 1366 3272 1645 3428 
Q 1925 3584 2291 3584 
Q 2894 3584 3203 3211 
Q 3513 2838 3513 2113 
z
" transform="scale(0.015625)"/>
       <path id="DejaVuSans-74" d="M 1172 4494 
L 1172 3500 
L 2356 3500 
L 2356 3053 
L 1172 3053 
L 1172 1153 
Q 1172 725 1289 603 
Q 1406 481 1766 481 
L 2356 481 
L 2356 0 
L 1766 0 
Q 1100 0 847 248 
Q 594 497 594 1153 
L 594 3053 
L 172 3053 
L 172 3500 
L 594 3500 
L 594 4494 
L 1172 4494 
z
" transform="scale(0.015625)"/>
       <path id="DejaVuSans-29" d="M 513 4856 
L 1013 4856 
Q 1481 4119 1714 3412 
Q 1947 2706 1947 2009 
Q 1947 1309 1714 600 
Q 1481 -109 1013 -844 
L 513 -844 
Q 928 -128 1133 580 
Q 1338 1288 1338 2009 
Q 1338 2731 1133 3434 
Q 928 4138 513 4856 
z
" transform="scale(0.015625)"/>
      </defs>
      <use xlink:href="#DejaVuSans-54"/>
      <use xlink:href="#DejaVuSans-69" x="57.958984"/>
      <use xlink:href="#DejaVuSans-6d" x="85.742188"/>
      <use xlink:href="#DejaVuSans-65" x="183.154297"/>
      <use xlink:href="#DejaVuSans-20" x="244.677734"/>
      <use xlink:href="#DejaVuSans-28" x="276.464844"/>
      <use xlink:href="#DejaVuSans-68" x="315.478516"/>
      <use xlink:href="#DejaVuSans-6f" x="378.857422"/>
      <use xlink:href="#DejaVuSans-75" x="440.039062"/>
      <use xlink:href="#DejaVuSans-72" x="503.417969"/>
      <use xlink:href="#DejaVuSans-3a" x="542.78125"/>
      <use xlink:href="#DejaVuSans-6d" x="576.472656"/>
      <use xlink:href="#DejaVuSans-69" x="673.884766"/>
      <use xlink:href="#DejaVuSans-6e" x="701.667969"/>
      <use xlink:href="#DejaVuSans-75" x="765.046875"/>
      <use xlink:href="#DejaVuSans-74" x="828.425781"/>
      <use xlink:href="#DejaVuSans-65" x="867.634766"/>
      <use xlink:href="#DejaVuSans-29" x="929.158203"/>
     </g>
    </g>
   </g>
   <g id="matplotlib.axis_2">
    <g id="ytick_1">
     <g id="line2d_13">
      <defs>
       <path id="m0948c94542" d="M 0 0 
L -3.5 0 
" style="stroke: #000000; stroke-width: 0.8"/>
      </defs>
      <g>
       <use xlink:href="#m0948c94542" x="53.328125" y="269.063604" style="stroke: #000000; stroke-width: 0.8"/>
      </g>
     </g>
     <g id="text_10">
      <!-- 3000 -->
      <g transform="translate(20.878125 272.862823) scale(0.1 -0.1)">
       <defs>
        <path id="DejaVuSans-33" d="M 2597 2516 
Q 3050 2419 3304 2112 
Q 3559 1806 3559 1356 
Q 3559 666 3084 287 
Q 2609 -91 1734 -91 
Q 1441 -91 1130 -33 
Q 819 25 488 141 
L 488 750 
Q 750 597 1062 519 
Q 1375 441 1716 441 
Q 2309 441 2620 675 
Q 2931 909 2931 1356 
Q 2931 1769 2642 2001 
Q 2353 2234 1838 2234 
L 1294 2234 
L 1294 2753 
L 1863 2753 
Q 2328 2753 2575 2939 
Q 2822 3125 2822 3475 
Q 2822 3834 2567 4026 
Q 2313 4219 1838 4219 
Q 1578 4219 1281 4162 
Q 984 4106 628 3988 
L 628 4550 
Q 988 4650 1302 4700 
Q 1616 4750 1894 4750 
Q 2613 4750 3031 4423 
Q 3450 4097 3450 3541 
Q 3450 3153 3228 2886 
Q 3006 2619 2597 2516 
z
" transform="scale(0.015625)"/>
       </defs>
       <use xlink:href="#DejaVuSans-33"/>
       <use xlink:href="#DejaVuSans-30" x="63.623047"/>
       <use xlink:href="#DejaVuSans-30" x="127.246094"/>
       <use xlink:href="#DejaVuSans-30" x="190.869141"/>
      </g>
     </g>
    </g>
    <g id="ytick_2">
     <g id="line2d_14">
      <g>
       <use xlink:href="#m0948c94542" x="53.328125" y="225.265288" style="stroke: #000000; stroke-width: 0.8"/>
      </g>
     </g>
     <g id="text_11">
      <!-- 4000 -->
      <g transform="translate(20.878125 229.064507) scale(0.1 -0.1)">
       <use xlink:href="#DejaVuSans-34"/>
       <use xlink:href="#DejaVuSans-30" x="63.623047"/>
       <use xlink:href="#DejaVuSans-30" x="127.246094"/>
       <use xlink:href="#DejaVuSans-30" x="190.869141"/>
      </g>
     </g>
    </g>
    <g id="ytick_3">
     <g id="line2d_15">
      <g>
       <use xlink:href="#m0948c94542" x="53.328125" y="181.466972" style="stroke: #000000; stroke-width: 0.8"/>
      </g>
     </g>
     <g id="text_12">
      <!-- 5000 -->
      <g transform="translate(20.878125 185.266191) scale(0.1 -0.1)">
       <use xlink:href="#DejaVuSans-35"/>
       <use xlink:href="#DejaVuSans-30" x="63.623047"/>
       <use xlink:href="#DejaVuSans-30" x="127.246094"/>
       <use xlink:href="#DejaVuSans-30" x="190.869141"/>
      </g>
     </g>
    </g>
    <g id="ytick_4">
     <g id="line2d_16">
      <g>
       <use xlink:href="#m0948c94542" x="53.328125" y="137.668656" style="stroke: #000000; stroke-width: 0.8"/>
      </g>
     </g>
     <g id="text_13">
      <!-- 6000 -->
      <g transform="translate(20.878125 141.467874) scale(0.1 -0.1)">
       <defs>
        <path id="DejaVuSans-36" d="M 2113 2584 
Q 1688 2584 1439 2293 
Q 1191 2003 1191 1497 
Q 1191 994 1439 701 
Q 1688 409 2113 409 
Q 2538 409 2786 701 
Q 3034 994 3034 1497 
Q 3034 2003 2786 2293 
Q 2538 2584 2113 2584 
z
M 3366 4563 
L 3366 3988 
Q 3128 4100 2886 4159 
Q 2644 4219 2406 4219 
Q 1781 4219 1451 3797 
Q 1122 3375 1075 2522 
Q 1259 2794 1537 2939 
Q 1816 3084 2150 3084 
Q 2853 3084 3261 2657 
Q 3669 2231 3669 1497 
Q 3669 778 3244 343 
Q 2819 -91 2113 -91 
Q 1303 -91 875 529 
Q 447 1150 447 2328 
Q 447 3434 972 4092 
Q 1497 4750 2381 4750 
Q 2619 4750 2861 4703 
Q 3103 4656 3366 4563 
z
" transform="scale(0.015625)"/>
       </defs>
       <use xlink:href="#DejaVuSans-36"/>
       <use xlink:href="#DejaVuSans-30" x="63.623047"/>
       <use xlink:href="#DejaVuSans-30" x="127.246094"/>
       <use xlink:href="#DejaVuSans-30" x="190.869141"/>
      </g>
     </g>
    </g>
    <g id="ytick_5">
     <g id="line2d_17">
      <g>
       <use xlink:href="#m0948c94542" x="53.328125" y="93.870339" style="stroke: #000000; stroke-width: 0.8"/>
      </g>
     </g>
     <g id="text_14">
      <!-- 7000 -->
      <g transform="translate(20.878125 97.669558) scale(0.1 -0.1)">
       <use xlink:href="#DejaVuSans-37"/>
       <use xlink:href="#DejaVuSans-30" x="63.623047"/>
       <use xlink:href="#DejaVuSans-30" x="127.246094"/>
       <use xlink:href="#DejaVuSans-30" x="190.869141"/>
      </g>
     </g>
    </g>
    <g id="ytick_6">
     <g id="line2d_18">
      <g>
       <use xlink:href="#m0948c94542" x="53.328125" y="50.072023" style="stroke: #000000; stroke-width: 0.8"/>
      </g>
     </g>
     <g id="text_15">
      <!-- 8000 -->
      <g transform="translate(20.878125 53.871242) scale(0.1 -0.1)">
       <use xlink:href="#DejaVuSans-38"/>
       <use xlink:href="#DejaVuSans-30" x="63.623047"/>
       <use xlink:href="#DejaVuSans-30" x="127.246094"/>
       <use xlink:href="#DejaVuSans-30" x="190.869141"/>
      </g>
     </g>
    </g>
    <g id="text_16">
     <!-- Code branch coverage -->
     <g transform="translate(14.798438 211.949125) rotate(-90) scale(0.1 -0.1)">
      <defs>
       <path id="DejaVuSans-43" d="M 4122 4306 
L 4122 3641 
Q 3803 3938 3442 4084 
Q 3081 4231 2675 4231 
Q 1875 4231 1450 3742 
Q 1025 3253 1025 2328 
Q 1025 1406 1450 917 
Q 1875 428 2675 428 
Q 3081 428 3442 575 
Q 3803 722 4122 1019 
L 4122 359 
Q 3791 134 3420 21 
Q 3050 -91 2638 -91 
Q 1578 -91 968 557 
Q 359 1206 359 2328 
Q 359 3453 968 4101 
Q 1578 4750 2638 4750 
Q 3056 4750 3426 4639 
Q 3797 4528 4122 4306 
z
" transform="scale(0.015625)"/>
       <path id="DejaVuSans-64" d="M 2906 2969 
L 2906 4863 
L 3481 4863 
L 3481 0 
L 2906 0 
L 2906 525 
Q 2725 213 2448 61 
Q 2172 -91 1784 -91 
Q 1150 -91 751 415 
Q 353 922 353 1747 
Q 353 2572 751 3078 
Q 1150 3584 1784 3584 
Q 2172 3584 2448 3432 
Q 2725 3281 2906 2969 
z
M 947 1747 
Q 947 1113 1208 752 
Q 1469 391 1925 391 
Q 2381 391 2643 752 
Q 2906 1113 2906 1747 
Q 2906 2381 2643 2742 
Q 2381 3103 1925 3103 
Q 1469 3103 1208 2742 
Q 947 2381 947 1747 
z
" transform="scale(0.015625)"/>
       <path id="DejaVuSans-62" d="M 3116 1747 
Q 3116 2381 2855 2742 
Q 2594 3103 2138 3103 
Q 1681 3103 1420 2742 
Q 1159 2381 1159 1747 
Q 1159 1113 1420 752 
Q 1681 391 2138 391 
Q 2594 391 2855 752 
Q 3116 1113 3116 1747 
z
M 1159 2969 
Q 1341 3281 1617 3432 
Q 1894 3584 2278 3584 
Q 2916 3584 3314 3078 
Q 3713 2572 3713 1747 
Q 3713 922 3314 415 
Q 2916 -91 2278 -91 
Q 1894 -91 1617 61 
Q 1341 213 1159 525 
L 1159 0 
L 581 0 
L 581 4863 
L 1159 4863 
L 1159 2969 
z
" transform="scale(0.015625)"/>
       <path id="DejaVuSans-61" d="M 2194 1759 
Q 1497 1759 1228 1600 
Q 959 1441 959 1056 
Q 959 750 1161 570 
Q 1363 391 1709 391 
Q 2188 391 2477 730 
Q 2766 1069 2766 1631 
L 2766 1759 
L 2194 1759 
z
M 3341 1997 
L 3341 0 
L 2766 0 
L 2766 531 
Q 2569 213 2275 61 
Q 1981 -91 1556 -91 
Q 1019 -91 701 211 
Q 384 513 384 1019 
Q 384 1609 779 1909 
Q 1175 2209 1959 2209 
L 2766 2209 
L 2766 2266 
Q 2766 2663 2505 2880 
Q 2244 3097 1772 3097 
Q 1472 3097 1187 3025 
Q 903 2953 641 2809 
L 641 3341 
Q 956 3463 1253 3523 
Q 1550 3584 1831 3584 
Q 2591 3584 2966 3190 
Q 3341 2797 3341 1997 
z
" transform="scale(0.015625)"/>
       <path id="DejaVuSans-63" d="M 3122 3366 
L 3122 2828 
Q 2878 2963 2633 3030 
Q 2388 3097 2138 3097 
Q 1578 3097 1268 2742 
Q 959 2388 959 1747 
Q 959 1106 1268 751 
Q 1578 397 2138 397 
Q 2388 397 2633 464 
Q 2878 531 3122 666 
L 3122 134 
Q 2881 22 2623 -34 
Q 2366 -91 2075 -91 
Q 1284 -91 818 406 
Q 353 903 353 1747 
Q 353 2603 823 3093 
Q 1294 3584 2113 3584 
Q 2378 3584 2631 3529 
Q 2884 3475 3122 3366 
z
" transform="scale(0.015625)"/>
       <path id="DejaVuSans-76" d="M 191 3500 
L 800 3500 
L 1894 563 
L 2988 3500 
L 3597 3500 
L 2284 0 
L 1503 0 
L 191 3500 
z
" transform="scale(0.015625)"/>
       <path id="DejaVuSans-67" d="M 2906 1791 
Q 2906 2416 2648 2759 
Q 2391 3103 1925 3103 
Q 1463 3103 1205 2759 
Q 947 2416 947 1791 
Q 947 1169 1205 825 
Q 1463 481 1925 481 
Q 2391 481 2648 825 
Q 2906 1169 2906 1791 
z
M 3481 434 
Q 3481 -459 3084 -895 
Q 2688 -1331 1869 -1331 
Q 1566 -1331 1297 -1286 
Q 1028 -1241 775 -1147 
L 775 -588 
Q 1028 -725 1275 -790 
Q 1522 -856 1778 -856 
Q 2344 -856 2625 -561 
Q 2906 -266 2906 331 
L 2906 616 
Q 2728 306 2450 153 
Q 2172 0 1784 0 
Q 1141 0 747 490 
Q 353 981 353 1791 
Q 353 2603 747 3093 
Q 1141 3584 1784 3584 
Q 2172 3584 2450 3431 
Q 2728 3278 2906 2969 
L 2906 3500 
L 3481 3500 
L 3481 434 
z
" transform="scale(0.015625)"/>
      </defs>
      <use xlink:href="#DejaVuSans-43"/>
      <use xlink:href="#DejaVuSans-6f" x="69.824219"/>
      <use xlink:href="#DejaVuSans-64" x="131.005859"/>
      <use xlink:href="#DejaVuSans-65" x="194.482422"/>
      <use xlink:href="#DejaVuSans-20" x="256.005859"/>
      <use xlink:href="#DejaVuSans-62" x="287.792969"/>
      <use xlink:href="#DejaVuSans-72" x="351.269531"/>
      <use xlink:href="#DejaVuSans-61" x="392.382812"/>
      <use xlink:href="#DejaVuSans-6e" x="453.662109"/>
      <use xlink:href="#DejaVuSans-63" x="517.041016"/>
      <use xlink:href="#DejaVuSans-68" x="572.021484"/>
      <use xlink:href="#DejaVuSans-20" x="635.400391"/>
      <use xlink:href="#DejaVuSans-63" x="667.1875"/>
      <use xlink:href="#DejaVuSans-6f" x="722.167969"/>
      <use xlink:href="#DejaVuSans-76" x="783.349609"/>
      <use xlink:href="#DejaVuSans-65" x="842.529297"/>
      <use xlink:href="#DejaVuSans-72" x="904.052734"/>
      <use xlink:href="#DejaVuSans-61" x="945.166016"/>
      <use xlink:href="#DejaVuSans-67" x="1006.445312"/>
      <use xlink:href="#DejaVuSans-65" x="1069.921875"/>
     </g>
    </g>
   </g>
   <g id="line2d_19">
    <path d="M 53.328125 276.334125 
L 519.474297 110.185212 
L 556.751639 99.06044 
L 578.557487 89.096323 
L 594.028982 86.753113 
L 606.029605 85.439163 
L 615.834829 83.884323 
L 624.125027 82.723668 
L 631.306324 81.738206 
L 637.640676 81.387819 
L 643.306948 79.789181 
L 648.432713 78.716122 
L 653.112171 78.562828 
L 657.416855 78.343836 
L 661.40237 76.504307 
L 665.112795 76.066324 
L 668.583666 74.007803 
L 671.844048 73.942105 
L 674.918019 73.591719 
L 677.825745 73.56982 
L 680.58429 73.372727 
L 683.208217 73.175635 
L 685.710056 73.04424 
L 688.100664 73.022341 
L 690.389513 72.496761 
L 692.584914 72.431064 
L 694.694197 71.204711 
L 696.723866 70.70103 
L 698.679712 70.635333 
L 700.566917 70.547736 
L 702.390137 70.482038 
L 704.153569 69.124291 
L 705.861008 68.576812 
L 707.515903 68.138829 
L 709.121391 67.897938 
L 710.680336 66.408795 
L 712.195361 66.408795 
L 713.668873 66.233602 
L 715.103087 65.883215 
L 716.500045 65.883215 
L 717.861632 65.642325 
L 719.189597 62.247955 
L 720.485559 62.072762 
L 721.751025 62.072762 
L 722.987398 61.722375 
L 724.195985 61.131098 
L 725.378007 61.131098 
L 726.534607 61.131098 
L 727.666856 61.0873 
L 728.775758 58.853585 
L 729.862256 58.853585 
L 730.927238 58.831686 
L 731.971539 58.831686 
L 732.995948 58.809787 
L 734.001208 58.809787 
L 734.988022 58.700291 
L 735.957054 58.656493 
L 736.908934 49.020863 
L 737.84426 48.933267 
L 738.763595 48.933267 
L 739.667479 41.027671 
L 740.556423 41.005772 
L 741.430911 40.961973 
L 742.291407 40.545889 
L 743.138351 40.545889 
L 743.972163 40.392595 
L 744.793245 40.283099 
L 745.60198 40.239301 
L 746.398733 40.239301 
L 747.183854 39.888915 
L 747.957678 39.888915 
L 748.720525 39.888915 
L 749.472703 39.867015 
L 750.214506 39.867015 
L 750.946215 39.845116 
L 751.668103 39.845116 
L 752.380429 39.845116 
L 753.083444 39.845116 
L 753.777387 39.845116 
L 754.46249 39.516629 
L 755.138974 39.516629 
L 755.807055 39.472831 
L 756.466939 39.472831 
L 757.118824 39.363335 
L 757.762901 39.319536 
L 758.399357 38.509268 
L 759.028368 38.421671 
L 759.650107 38.334074 
L 760.26474 38.334074 
L 760.872429 38.312175 
L 761.473327 38.246478 
L 762.067585 38.246478 
L 762.655349 38.202679 
L 763.236758 38.202679 
L 763.811949 38.18078 
L 764.381053 38.18078 
L 764.944198 38.18078 
" clip-path="url(#pc2eb088216)" style="fill: none; stroke: #98df8a; stroke-width: 1.5; stroke-linecap: square"/>
    <defs>
     <path id="m45561ca765" d="M -0 3 
L 3 -3 
L -3 -3 
z
" style="stroke: #ffffff; stroke-width: 0.75; stroke-linejoin: miter"/>
    </defs>
    <g clip-path="url(#pc2eb088216)">
     <use xlink:href="#m45561ca765" x="53.328125" y="276.334125" style="fill: #98df8a; stroke: #ffffff; stroke-width: 0.75; stroke-linejoin: miter"/>
     <use xlink:href="#m45561ca765" x="519.474297" y="110.185212" style="fill: #98df8a; stroke: #ffffff; stroke-width: 0.75; stroke-linejoin: miter"/>
     <use xlink:href="#m45561ca765" x="556.751639" y="99.06044" style="fill: #98df8a; stroke: #ffffff; stroke-width: 0.75; stroke-linejoin: miter"/>
     <use xlink:href="#m45561ca765" x="578.557487" y="89.096323" style="fill: #98df8a; stroke: #ffffff; stroke-width: 0.75; stroke-linejoin: miter"/>
     <use xlink:href="#m45561ca765" x="594.028982" y="86.753113" style="fill: #98df8a; stroke: #ffffff; stroke-width: 0.75; stroke-linejoin: miter"/>
     <use xlink:href="#m45561ca765" x="606.029605" y="85.439163" style="fill: #98df8a; stroke: #ffffff; stroke-width: 0.75; stroke-linejoin: miter"/>
     <use xlink:href="#m45561ca765" x="615.834829" y="83.884323" style="fill: #98df8a; stroke: #ffffff; stroke-width: 0.75; stroke-linejoin: miter"/>
     <use xlink:href="#m45561ca765" x="624.125027" y="82.723668" style="fill: #98df8a; stroke: #ffffff; stroke-width: 0.75; stroke-linejoin: miter"/>
     <use xlink:href="#m45561ca765" x="631.306324" y="81.738206" style="fill: #98df8a; stroke: #ffffff; stroke-width: 0.75; stroke-linejoin: miter"/>
     <use xlink:href="#m45561ca765" x="637.640676" y="81.387819" style="fill: #98df8a; stroke: #ffffff; stroke-width: 0.75; stroke-linejoin: miter"/>
     <use xlink:href="#m45561ca765" x="643.306948" y="79.789181" style="fill: #98df8a; stroke: #ffffff; stroke-width: 0.75; stroke-linejoin: miter"/>
     <use xlink:href="#m45561ca765" x="648.432713" y="78.716122" style="fill: #98df8a; stroke: #ffffff; stroke-width: 0.75; stroke-linejoin: miter"/>
     <use xlink:href="#m45561ca765" x="653.112171" y="78.562828" style="fill: #98df8a; stroke: #ffffff; stroke-width: 0.75; stroke-linejoin: miter"/>
     <use xlink:href="#m45561ca765" x="657.416855" y="78.343836" style="fill: #98df8a; stroke: #ffffff; stroke-width: 0.75; stroke-linejoin: miter"/>
     <use xlink:href="#m45561ca765" x="661.40237" y="76.504307" style="fill: #98df8a; stroke: #ffffff; stroke-width: 0.75; stroke-linejoin: miter"/>
     <use xlink:href="#m45561ca765" x="665.112795" y="76.066324" style="fill: #98df8a; stroke: #ffffff; stroke-width: 0.75; stroke-linejoin: miter"/>
     <use xlink:href="#m45561ca765" x="668.583666" y="74.007803" style="fill: #98df8a; stroke: #ffffff; stroke-width: 0.75; stroke-linejoin: miter"/>
     <use xlink:href="#m45561ca765" x="671.844048" y="73.942105" style="fill: #98df8a; stroke: #ffffff; stroke-width: 0.75; stroke-linejoin: miter"/>
     <use xlink:href="#m45561ca765" x="674.918019" y="73.591719" style="fill: #98df8a; stroke: #ffffff; stroke-width: 0.75; stroke-linejoin: miter"/>
     <use xlink:href="#m45561ca765" x="677.825745" y="73.56982" style="fill: #98df8a; stroke: #ffffff; stroke-width: 0.75; stroke-linejoin: miter"/>
     <use xlink:href="#m45561ca765" x="680.58429" y="73.372727" style="fill: #98df8a; stroke: #ffffff; stroke-width: 0.75; stroke-linejoin: miter"/>
     <use xlink:href="#m45561ca765" x="683.208217" y="73.175635" style="fill: #98df8a; stroke: #ffffff; stroke-width: 0.75; stroke-linejoin: miter"/>
     <use xlink:href="#m45561ca765" x="685.710056" y="73.04424" style="fill: #98df8a; stroke: #ffffff; stroke-width: 0.75; stroke-linejoin: miter"/>
     <use xlink:href="#m45561ca765" x="688.100664" y="73.022341" style="fill: #98df8a; stroke: #ffffff; stroke-width: 0.75; stroke-linejoin: miter"/>
     <use xlink:href="#m45561ca765" x="690.389513" y="72.496761" style="fill: #98df8a; stroke: #ffffff; stroke-width: 0.75; stroke-linejoin: miter"/>
     <use xlink:href="#m45561ca765" x="692.584914" y="72.431064" style="fill: #98df8a; stroke: #ffffff; stroke-width: 0.75; stroke-linejoin: miter"/>
     <use xlink:href="#m45561ca765" x="694.694197" y="71.204711" style="fill: #98df8a; stroke: #ffffff; stroke-width: 0.75; stroke-linejoin: miter"/>
     <use xlink:href="#m45561ca765" x="696.723866" y="70.70103" style="fill: #98df8a; stroke: #ffffff; stroke-width: 0.75; stroke-linejoin: miter"/>
     <use xlink:href="#m45561ca765" x="698.679712" y="70.635333" style="fill: #98df8a; stroke: #ffffff; stroke-width: 0.75; stroke-linejoin: miter"/>
     <use xlink:href="#m45561ca765" x="700.566917" y="70.547736" style="fill: #98df8a; stroke: #ffffff; stroke-width: 0.75; stroke-linejoin: miter"/>
     <use xlink:href="#m45561ca765" x="702.390137" y="70.482038" style="fill: #98df8a; stroke: #ffffff; stroke-width: 0.75; stroke-linejoin: miter"/>
     <use xlink:href="#m45561ca765" x="704.153569" y="69.124291" style="fill: #98df8a; stroke: #ffffff; stroke-width: 0.75; stroke-linejoin: miter"/>
     <use xlink:href="#m45561ca765" x="705.861008" y="68.576812" style="fill: #98df8a; stroke: #ffffff; stroke-width: 0.75; stroke-linejoin: miter"/>
     <use xlink:href="#m45561ca765" x="707.515903" y="68.138829" style="fill: #98df8a; stroke: #ffffff; stroke-width: 0.75; stroke-linejoin: miter"/>
     <use xlink:href="#m45561ca765" x="709.121391" y="67.897938" style="fill: #98df8a; stroke: #ffffff; stroke-width: 0.75; stroke-linejoin: miter"/>
     <use xlink:href="#m45561ca765" x="710.680336" y="66.408795" style="fill: #98df8a; stroke: #ffffff; stroke-width: 0.75; stroke-linejoin: miter"/>
     <use xlink:href="#m45561ca765" x="712.195361" y="66.408795" style="fill: #98df8a; stroke: #ffffff; stroke-width: 0.75; stroke-linejoin: miter"/>
     <use xlink:href="#m45561ca765" x="713.668873" y="66.233602" style="fill: #98df8a; stroke: #ffffff; stroke-width: 0.75; stroke-linejoin: miter"/>
     <use xlink:href="#m45561ca765" x="715.103087" y="65.883215" style="fill: #98df8a; stroke: #ffffff; stroke-width: 0.75; stroke-linejoin: miter"/>
     <use xlink:href="#m45561ca765" x="716.500045" y="65.883215" style="fill: #98df8a; stroke: #ffffff; stroke-width: 0.75; stroke-linejoin: miter"/>
     <use xlink:href="#m45561ca765" x="717.861632" y="65.642325" style="fill: #98df8a; stroke: #ffffff; stroke-width: 0.75; stroke-linejoin: miter"/>
     <use xlink:href="#m45561ca765" x="719.189597" y="62.247955" style="fill: #98df8a; stroke: #ffffff; stroke-width: 0.75; stroke-linejoin: miter"/>
     <use xlink:href="#m45561ca765" x="720.485559" y="62.072762" style="fill: #98df8a; stroke: #ffffff; stroke-width: 0.75; stroke-linejoin: miter"/>
     <use xlink:href="#m45561ca765" x="721.751025" y="62.072762" style="fill: #98df8a; stroke: #ffffff; stroke-width: 0.75; stroke-linejoin: miter"/>
     <use xlink:href="#m45561ca765" x="722.987398" y="61.722375" style="fill: #98df8a; stroke: #ffffff; stroke-width: 0.75; stroke-linejoin: miter"/>
     <use xlink:href="#m45561ca765" x="724.195985" y="61.131098" style="fill: #98df8a; stroke: #ffffff; stroke-width: 0.75; stroke-linejoin: miter"/>
     <use xlink:href="#m45561ca765" x="725.378007" y="61.131098" style="fill: #98df8a; stroke: #ffffff; stroke-width: 0.75; stroke-linejoin: miter"/>
     <use xlink:href="#m45561ca765" x="726.534607" y="61.131098" style="fill: #98df8a; stroke: #ffffff; stroke-width: 0.75; stroke-linejoin: miter"/>
     <use xlink:href="#m45561ca765" x="727.666856" y="61.0873" style="fill: #98df8a; stroke: #ffffff; stroke-width: 0.75; stroke-linejoin: miter"/>
     <use xlink:href="#m45561ca765" x="728.775758" y="58.853585" style="fill: #98df8a; stroke: #ffffff; stroke-width: 0.75; stroke-linejoin: miter"/>
     <use xlink:href="#m45561ca765" x="729.862256" y="58.853585" style="fill: #98df8a; stroke: #ffffff; stroke-width: 0.75; stroke-linejoin: miter"/>
     <use xlink:href="#m45561ca765" x="730.927238" y="58.831686" style="fill: #98df8a; stroke: #ffffff; stroke-width: 0.75; stroke-linejoin: miter"/>
     <use xlink:href="#m45561ca765" x="731.971539" y="58.831686" style="fill: #98df8a; stroke: #ffffff; stroke-width: 0.75; stroke-linejoin: miter"/>
     <use xlink:href="#m45561ca765" x="732.995948" y="58.809787" style="fill: #98df8a; stroke: #ffffff; stroke-width: 0.75; stroke-linejoin: miter"/>
     <use xlink:href="#m45561ca765" x="734.001208" y="58.809787" style="fill: #98df8a; stroke: #ffffff; stroke-width: 0.75; stroke-linejoin: miter"/>
     <use xlink:href="#m45561ca765" x="734.988022" y="58.700291" style="fill: #98df8a; stroke: #ffffff; stroke-width: 0.75; stroke-linejoin: miter"/>
     <use xlink:href="#m45561ca765" x="735.957054" y="58.656493" style="fill: #98df8a; stroke: #ffffff; stroke-width: 0.75; stroke-linejoin: miter"/>
     <use xlink:href="#m45561ca765" x="736.908934" y="49.020863" style="fill: #98df8a; stroke: #ffffff; stroke-width: 0.75; stroke-linejoin: miter"/>
     <use xlink:href="#m45561ca765" x="737.84426" y="48.933267" style="fill: #98df8a; stroke: #ffffff; stroke-width: 0.75; stroke-linejoin: miter"/>
     <use xlink:href="#m45561ca765" x="738.763595" y="48.933267" style="fill: #98df8a; stroke: #ffffff; stroke-width: 0.75; stroke-linejoin: miter"/>
     <use xlink:href="#m45561ca765" x="739.667479" y="41.027671" style="fill: #98df8a; stroke: #ffffff; stroke-width: 0.75; stroke-linejoin: miter"/>
     <use xlink:href="#m45561ca765" x="740.556423" y="41.005772" style="fill: #98df8a; stroke: #ffffff; stroke-width: 0.75; stroke-linejoin: miter"/>
     <use xlink:href="#m45561ca765" x="741.430911" y="40.961973" style="fill: #98df8a; stroke: #ffffff; stroke-width: 0.75; stroke-linejoin: miter"/>
     <use xlink:href="#m45561ca765" x="742.291407" y="40.545889" style="fill: #98df8a; stroke: #ffffff; stroke-width: 0.75; stroke-linejoin: miter"/>
     <use xlink:href="#m45561ca765" x="743.138351" y="40.545889" style="fill: #98df8a; stroke: #ffffff; stroke-width: 0.75; stroke-linejoin: miter"/>
     <use xlink:href="#m45561ca765" x="743.972163" y="40.392595" style="fill: #98df8a; stroke: #ffffff; stroke-width: 0.75; stroke-linejoin: miter"/>
     <use xlink:href="#m45561ca765" x="744.793245" y="40.283099" style="fill: #98df8a; stroke: #ffffff; stroke-width: 0.75; stroke-linejoin: miter"/>
     <use xlink:href="#m45561ca765" x="745.60198" y="40.239301" style="fill: #98df8a; stroke: #ffffff; stroke-width: 0.75; stroke-linejoin: miter"/>
     <use xlink:href="#m45561ca765" x="746.398733" y="40.239301" style="fill: #98df8a; stroke: #ffffff; stroke-width: 0.75; stroke-linejoin: miter"/>
     <use xlink:href="#m45561ca765" x="747.183854" y="39.888915" style="fill: #98df8a; stroke: #ffffff; stroke-width: 0.75; stroke-linejoin: miter"/>
     <use xlink:href="#m45561ca765" x="747.957678" y="39.888915" style="fill: #98df8a; stroke: #ffffff; stroke-width: 0.75; stroke-linejoin: miter"/>
     <use xlink:href="#m45561ca765" x="748.720525" y="39.888915" style="fill: #98df8a; stroke: #ffffff; stroke-width: 0.75; stroke-linejoin: miter"/>
     <use xlink:href="#m45561ca765" x="749.472703" y="39.867015" style="fill: #98df8a; stroke: #ffffff; stroke-width: 0.75; stroke-linejoin: miter"/>
     <use xlink:href="#m45561ca765" x="750.214506" y="39.867015" style="fill: #98df8a; stroke: #ffffff; stroke-width: 0.75; stroke-linejoin: miter"/>
     <use xlink:href="#m45561ca765" x="750.946215" y="39.845116" style="fill: #98df8a; stroke: #ffffff; stroke-width: 0.75; stroke-linejoin: miter"/>
     <use xlink:href="#m45561ca765" x="751.668103" y="39.845116" style="fill: #98df8a; stroke: #ffffff; stroke-width: 0.75; stroke-linejoin: miter"/>
     <use xlink:href="#m45561ca765" x="752.380429" y="39.845116" style="fill: #98df8a; stroke: #ffffff; stroke-width: 0.75; stroke-linejoin: miter"/>
     <use xlink:href="#m45561ca765" x="753.083444" y="39.845116" style="fill: #98df8a; stroke: #ffffff; stroke-width: 0.75; stroke-linejoin: miter"/>
     <use xlink:href="#m45561ca765" x="753.777387" y="39.845116" style="fill: #98df8a; stroke: #ffffff; stroke-width: 0.75; stroke-linejoin: miter"/>
     <use xlink:href="#m45561ca765" x="754.46249" y="39.516629" style="fill: #98df8a; stroke: #ffffff; stroke-width: 0.75; stroke-linejoin: miter"/>
     <use xlink:href="#m45561ca765" x="755.138974" y="39.516629" style="fill: #98df8a; stroke: #ffffff; stroke-width: 0.75; stroke-linejoin: miter"/>
     <use xlink:href="#m45561ca765" x="755.807055" y="39.472831" style="fill: #98df8a; stroke: #ffffff; stroke-width: 0.75; stroke-linejoin: miter"/>
     <use xlink:href="#m45561ca765" x="756.466939" y="39.472831" style="fill: #98df8a; stroke: #ffffff; stroke-width: 0.75; stroke-linejoin: miter"/>
     <use xlink:href="#m45561ca765" x="757.118824" y="39.363335" style="fill: #98df8a; stroke: #ffffff; stroke-width: 0.75; stroke-linejoin: miter"/>
     <use xlink:href="#m45561ca765" x="757.762901" y="39.319536" style="fill: #98df8a; stroke: #ffffff; stroke-width: 0.75; stroke-linejoin: miter"/>
     <use xlink:href="#m45561ca765" x="758.399357" y="38.509268" style="fill: #98df8a; stroke: #ffffff; stroke-width: 0.75; stroke-linejoin: miter"/>
     <use xlink:href="#m45561ca765" x="759.028368" y="38.421671" style="fill: #98df8a; stroke: #ffffff; stroke-width: 0.75; stroke-linejoin: miter"/>
     <use xlink:href="#m45561ca765" x="759.650107" y="38.334074" style="fill: #98df8a; stroke: #ffffff; stroke-width: 0.75; stroke-linejoin: miter"/>
     <use xlink:href="#m45561ca765" x="760.26474" y="38.334074" style="fill: #98df8a; stroke: #ffffff; stroke-width: 0.75; stroke-linejoin: miter"/>
     <use xlink:href="#m45561ca765" x="760.872429" y="38.312175" style="fill: #98df8a; stroke: #ffffff; stroke-width: 0.75; stroke-linejoin: miter"/>
     <use xlink:href="#m45561ca765" x="761.473327" y="38.246478" style="fill: #98df8a; stroke: #ffffff; stroke-width: 0.75; stroke-linejoin: miter"/>
     <use xlink:href="#m45561ca765" x="762.067585" y="38.246478" style="fill: #98df8a; stroke: #ffffff; stroke-width: 0.75; stroke-linejoin: miter"/>
     <use xlink:href="#m45561ca765" x="762.655349" y="38.202679" style="fill: #98df8a; stroke: #ffffff; stroke-width: 0.75; stroke-linejoin: miter"/>
     <use xlink:href="#m45561ca765" x="763.236758" y="38.202679" style="fill: #98df8a; stroke: #ffffff; stroke-width: 0.75; stroke-linejoin: miter"/>
     <use xlink:href="#m45561ca765" x="763.811949" y="38.18078" style="fill: #98df8a; stroke: #ffffff; stroke-width: 0.75; stroke-linejoin: miter"/>
     <use xlink:href="#m45561ca765" x="764.381053" y="38.18078" style="fill: #98df8a; stroke: #ffffff; stroke-width: 0.75; stroke-linejoin: miter"/>
     <use xlink:href="#m45561ca765" x="764.944198" y="38.18078" style="fill: #98df8a; stroke: #ffffff; stroke-width: 0.75; stroke-linejoin: miter"/>
    </g>
   </g>
   <g id="line2d_20">
    <path d="M 53.328125 276.290327 
L 519.474297 109.856725 
L 556.751639 97.4837 
L 578.557487 90.081785 
L 594.028982 86.884508 
L 606.029605 86.337029 
L 615.834829 84.147113 
L 624.125027 82.329483 
L 631.306324 81.672508 
L 637.640676 80.687046 
L 643.306948 80.555651 
L 648.432713 80.402357 
L 653.112171 79.482592 
L 657.416855 78.015349 
L 661.40237 76.810895 
L 665.112795 76.285315 
L 668.583666 76.000626 
L 671.844048 75.934929 
L 674.918019 75.825433 
L 677.825745 75.343652 
L 680.58429 75.234156 
L 683.208217 75.058963 
L 685.710056 73.920206 
L 688.100664 73.613618 
L 690.389513 73.56982 
L 692.584914 73.372727 
L 694.694197 72.934744 
L 696.723866 72.693853 
L 698.679712 68.314022 
L 700.566917 67.963635 
L 702.390137 67.876039 
L 704.153569 67.744644 
L 705.861008 67.722745 
L 707.515903 67.722745 
L 709.121391 65.226241 
L 710.680336 63.999888 
L 712.195361 63.956089 
L 713.668873 63.912291 
L 715.103087 63.912291 
L 716.500045 63.912291 
L 717.861632 63.912291 
L 719.189597 63.890392 
L 720.485559 63.868493 
L 721.751025 55.174527 
L 722.987398 55.152628 
L 724.195985 55.130729 
L 725.378007 55.130729 
L 726.534607 55.043132 
L 727.666856 55.043132 
L 728.775758 55.021233 
L 729.862256 54.714645 
L 730.927238 54.605149 
L 731.971539 46.349166 
L 732.995948 46.195872 
L 734.001208 46.195872 
L 734.988022 46.130175 
L 735.957054 46.130175 
L 736.908934 45.97688 
L 737.84426 45.845486 
L 738.763595 45.845486 
L 739.667479 45.516998 
L 740.556423 45.363704 
L 741.430911 45.363704 
L 742.291407 45.363704 
L 743.138351 45.341805 
L 743.972163 44.969519 
L 744.793245 44.728628 
L 745.60198 44.706729 
L 746.398733 44.706729 
L 747.183854 44.706729 
L 747.957678 44.575334 
L 748.720525 44.531536 
L 749.472703 44.531536 
L 750.214506 44.531536 
L 750.946215 44.531536 
L 751.668103 44.531536 
L 752.380429 44.531536 
L 753.083444 44.531536 
L 753.777387 44.531536 
L 754.46249 44.487738 
L 755.138974 44.443939 
L 755.807055 43.984057 
L 756.466939 43.984057 
L 757.118824 43.611771 
L 757.762901 43.567973 
L 758.399357 43.239486 
L 759.028368 43.173788 
L 759.650107 43.173788 
L 760.26474 43.173788 
L 760.872429 43.173788 
L 761.473327 43.173788 
L 762.067585 43.151889 
L 762.655349 43.108091 
L 763.236758 43.108091 
L 763.811949 42.713906 
L 764.381053 42.713906 
L 764.944198 42.713906 
" clip-path="url(#pc2eb088216)" style="fill: none; stroke: #1f77b4; stroke-width: 1.5; stroke-linecap: square"/>
    <defs>
     <path id="m2e2f9f4624" d="M 0 3 
C 0.795609 3 1.55874 2.683901 2.12132 2.12132 
C 2.683901 1.55874 3 0.795609 3 0 
C 3 -0.795609 2.683901 -1.55874 2.12132 -2.12132 
C 1.55874 -2.683901 0.795609 -3 0 -3 
C -0.795609 -3 -1.55874 -2.683901 -2.12132 -2.12132 
C -2.683901 -1.55874 -3 -0.795609 -3 0 
C -3 0.795609 -2.683901 1.55874 -2.12132 2.12132 
C -1.55874 2.683901 -0.795609 3 0 3 
z
" style="stroke: #ffffff; stroke-width: 0.75"/>
    </defs>
    <g clip-path="url(#pc2eb088216)">
     <use xlink:href="#m2e2f9f4624" x="53.328125" y="276.290327" style="fill: #1f77b4; stroke: #ffffff; stroke-width: 0.75"/>
     <use xlink:href="#m2e2f9f4624" x="519.474297" y="109.856725" style="fill: #1f77b4; stroke: #ffffff; stroke-width: 0.75"/>
     <use xlink:href="#m2e2f9f4624" x="556.751639" y="97.4837" style="fill: #1f77b4; stroke: #ffffff; stroke-width: 0.75"/>
     <use xlink:href="#m2e2f9f4624" x="578.557487" y="90.081785" style="fill: #1f77b4; stroke: #ffffff; stroke-width: 0.75"/>
     <use xlink:href="#m2e2f9f4624" x="594.028982" y="86.884508" style="fill: #1f77b4; stroke: #ffffff; stroke-width: 0.75"/>
     <use xlink:href="#m2e2f9f4624" x="606.029605" y="86.337029" style="fill: #1f77b4; stroke: #ffffff; stroke-width: 0.75"/>
     <use xlink:href="#m2e2f9f4624" x="615.834829" y="84.147113" style="fill: #1f77b4; stroke: #ffffff; stroke-width: 0.75"/>
     <use xlink:href="#m2e2f9f4624" x="624.125027" y="82.329483" style="fill: #1f77b4; stroke: #ffffff; stroke-width: 0.75"/>
     <use xlink:href="#m2e2f9f4624" x="631.306324" y="81.672508" style="fill: #1f77b4; stroke: #ffffff; stroke-width: 0.75"/>
     <use xlink:href="#m2e2f9f4624" x="637.640676" y="80.687046" style="fill: #1f77b4; stroke: #ffffff; stroke-width: 0.75"/>
     <use xlink:href="#m2e2f9f4624" x="643.306948" y="80.555651" style="fill: #1f77b4; stroke: #ffffff; stroke-width: 0.75"/>
     <use xlink:href="#m2e2f9f4624" x="648.432713" y="80.402357" style="fill: #1f77b4; stroke: #ffffff; stroke-width: 0.75"/>
     <use xlink:href="#m2e2f9f4624" x="653.112171" y="79.482592" style="fill: #1f77b4; stroke: #ffffff; stroke-width: 0.75"/>
     <use xlink:href="#m2e2f9f4624" x="657.416855" y="78.015349" style="fill: #1f77b4; stroke: #ffffff; stroke-width: 0.75"/>
     <use xlink:href="#m2e2f9f4624" x="661.40237" y="76.810895" style="fill: #1f77b4; stroke: #ffffff; stroke-width: 0.75"/>
     <use xlink:href="#m2e2f9f4624" x="665.112795" y="76.285315" style="fill: #1f77b4; stroke: #ffffff; stroke-width: 0.75"/>
     <use xlink:href="#m2e2f9f4624" x="668.583666" y="76.000626" style="fill: #1f77b4; stroke: #ffffff; stroke-width: 0.75"/>
     <use xlink:href="#m2e2f9f4624" x="671.844048" y="75.934929" style="fill: #1f77b4; stroke: #ffffff; stroke-width: 0.75"/>
     <use xlink:href="#m2e2f9f4624" x="674.918019" y="75.825433" style="fill: #1f77b4; stroke: #ffffff; stroke-width: 0.75"/>
     <use xlink:href="#m2e2f9f4624" x="677.825745" y="75.343652" style="fill: #1f77b4; stroke: #ffffff; stroke-width: 0.75"/>
     <use xlink:href="#m2e2f9f4624" x="680.58429" y="75.234156" style="fill: #1f77b4; stroke: #ffffff; stroke-width: 0.75"/>
     <use xlink:href="#m2e2f9f4624" x="683.208217" y="75.058963" style="fill: #1f77b4; stroke: #ffffff; stroke-width: 0.75"/>
     <use xlink:href="#m2e2f9f4624" x="685.710056" y="73.920206" style="fill: #1f77b4; stroke: #ffffff; stroke-width: 0.75"/>
     <use xlink:href="#m2e2f9f4624" x="688.100664" y="73.613618" style="fill: #1f77b4; stroke: #ffffff; stroke-width: 0.75"/>
     <use xlink:href="#m2e2f9f4624" x="690.389513" y="73.56982" style="fill: #1f77b4; stroke: #ffffff; stroke-width: 0.75"/>
     <use xlink:href="#m2e2f9f4624" x="692.584914" y="73.372727" style="fill: #1f77b4; stroke: #ffffff; stroke-width: 0.75"/>
     <use xlink:href="#m2e2f9f4624" x="694.694197" y="72.934744" style="fill: #1f77b4; stroke: #ffffff; stroke-width: 0.75"/>
     <use xlink:href="#m2e2f9f4624" x="696.723866" y="72.693853" style="fill: #1f77b4; stroke: #ffffff; stroke-width: 0.75"/>
     <use xlink:href="#m2e2f9f4624" x="698.679712" y="68.314022" style="fill: #1f77b4; stroke: #ffffff; stroke-width: 0.75"/>
     <use xlink:href="#m2e2f9f4624" x="700.566917" y="67.963635" style="fill: #1f77b4; stroke: #ffffff; stroke-width: 0.75"/>
     <use xlink:href="#m2e2f9f4624" x="702.390137" y="67.876039" style="fill: #1f77b4; stroke: #ffffff; stroke-width: 0.75"/>
     <use xlink:href="#m2e2f9f4624" x="704.153569" y="67.744644" style="fill: #1f77b4; stroke: #ffffff; stroke-width: 0.75"/>
     <use xlink:href="#m2e2f9f4624" x="705.861008" y="67.722745" style="fill: #1f77b4; stroke: #ffffff; stroke-width: 0.75"/>
     <use xlink:href="#m2e2f9f4624" x="707.515903" y="67.722745" style="fill: #1f77b4; stroke: #ffffff; stroke-width: 0.75"/>
     <use xlink:href="#m2e2f9f4624" x="709.121391" y="65.226241" style="fill: #1f77b4; stroke: #ffffff; stroke-width: 0.75"/>
     <use xlink:href="#m2e2f9f4624" x="710.680336" y="63.999888" style="fill: #1f77b4; stroke: #ffffff; stroke-width: 0.75"/>
     <use xlink:href="#m2e2f9f4624" x="712.195361" y="63.956089" style="fill: #1f77b4; stroke: #ffffff; stroke-width: 0.75"/>
     <use xlink:href="#m2e2f9f4624" x="713.668873" y="63.912291" style="fill: #1f77b4; stroke: #ffffff; stroke-width: 0.75"/>
     <use xlink:href="#m2e2f9f4624" x="715.103087" y="63.912291" style="fill: #1f77b4; stroke: #ffffff; stroke-width: 0.75"/>
     <use xlink:href="#m2e2f9f4624" x="716.500045" y="63.912291" style="fill: #1f77b4; stroke: #ffffff; stroke-width: 0.75"/>
     <use xlink:href="#m2e2f9f4624" x="717.861632" y="63.912291" style="fill: #1f77b4; stroke: #ffffff; stroke-width: 0.75"/>
     <use xlink:href="#m2e2f9f4624" x="719.189597" y="63.890392" style="fill: #1f77b4; stroke: #ffffff; stroke-width: 0.75"/>
     <use xlink:href="#m2e2f9f4624" x="720.485559" y="63.868493" style="fill: #1f77b4; stroke: #ffffff; stroke-width: 0.75"/>
     <use xlink:href="#m2e2f9f4624" x="721.751025" y="55.174527" style="fill: #1f77b4; stroke: #ffffff; stroke-width: 0.75"/>
     <use xlink:href="#m2e2f9f4624" x="722.987398" y="55.152628" style="fill: #1f77b4; stroke: #ffffff; stroke-width: 0.75"/>
     <use xlink:href="#m2e2f9f4624" x="724.195985" y="55.130729" style="fill: #1f77b4; stroke: #ffffff; stroke-width: 0.75"/>
     <use xlink:href="#m2e2f9f4624" x="725.378007" y="55.130729" style="fill: #1f77b4; stroke: #ffffff; stroke-width: 0.75"/>
     <use xlink:href="#m2e2f9f4624" x="726.534607" y="55.043132" style="fill: #1f77b4; stroke: #ffffff; stroke-width: 0.75"/>
     <use xlink:href="#m2e2f9f4624" x="727.666856" y="55.043132" style="fill: #1f77b4; stroke: #ffffff; stroke-width: 0.75"/>
     <use xlink:href="#m2e2f9f4624" x="728.775758" y="55.021233" style="fill: #1f77b4; stroke: #ffffff; stroke-width: 0.75"/>
     <use xlink:href="#m2e2f9f4624" x="729.862256" y="54.714645" style="fill: #1f77b4; stroke: #ffffff; stroke-width: 0.75"/>
     <use xlink:href="#m2e2f9f4624" x="730.927238" y="54.605149" style="fill: #1f77b4; stroke: #ffffff; stroke-width: 0.75"/>
     <use xlink:href="#m2e2f9f4624" x="731.971539" y="46.349166" style="fill: #1f77b4; stroke: #ffffff; stroke-width: 0.75"/>
     <use xlink:href="#m2e2f9f4624" x="732.995948" y="46.195872" style="fill: #1f77b4; stroke: #ffffff; stroke-width: 0.75"/>
     <use xlink:href="#m2e2f9f4624" x="734.001208" y="46.195872" style="fill: #1f77b4; stroke: #ffffff; stroke-width: 0.75"/>
     <use xlink:href="#m2e2f9f4624" x="734.988022" y="46.130175" style="fill: #1f77b4; stroke: #ffffff; stroke-width: 0.75"/>
     <use xlink:href="#m2e2f9f4624" x="735.957054" y="46.130175" style="fill: #1f77b4; stroke: #ffffff; stroke-width: 0.75"/>
     <use xlink:href="#m2e2f9f4624" x="736.908934" y="45.97688" style="fill: #1f77b4; stroke: #ffffff; stroke-width: 0.75"/>
     <use xlink:href="#m2e2f9f4624" x="737.84426" y="45.845486" style="fill: #1f77b4; stroke: #ffffff; stroke-width: 0.75"/>
     <use xlink:href="#m2e2f9f4624" x="738.763595" y="45.845486" style="fill: #1f77b4; stroke: #ffffff; stroke-width: 0.75"/>
     <use xlink:href="#m2e2f9f4624" x="739.667479" y="45.516998" style="fill: #1f77b4; stroke: #ffffff; stroke-width: 0.75"/>
     <use xlink:href="#m2e2f9f4624" x="740.556423" y="45.363704" style="fill: #1f77b4; stroke: #ffffff; stroke-width: 0.75"/>
     <use xlink:href="#m2e2f9f4624" x="741.430911" y="45.363704" style="fill: #1f77b4; stroke: #ffffff; stroke-width: 0.75"/>
     <use xlink:href="#m2e2f9f4624" x="742.291407" y="45.363704" style="fill: #1f77b4; stroke: #ffffff; stroke-width: 0.75"/>
     <use xlink:href="#m2e2f9f4624" x="743.138351" y="45.341805" style="fill: #1f77b4; stroke: #ffffff; stroke-width: 0.75"/>
     <use xlink:href="#m2e2f9f4624" x="743.972163" y="44.969519" style="fill: #1f77b4; stroke: #ffffff; stroke-width: 0.75"/>
     <use xlink:href="#m2e2f9f4624" x="744.793245" y="44.728628" style="fill: #1f77b4; stroke: #ffffff; stroke-width: 0.75"/>
     <use xlink:href="#m2e2f9f4624" x="745.60198" y="44.706729" style="fill: #1f77b4; stroke: #ffffff; stroke-width: 0.75"/>
     <use xlink:href="#m2e2f9f4624" x="746.398733" y="44.706729" style="fill: #1f77b4; stroke: #ffffff; stroke-width: 0.75"/>
     <use xlink:href="#m2e2f9f4624" x="747.183854" y="44.706729" style="fill: #1f77b4; stroke: #ffffff; stroke-width: 0.75"/>
     <use xlink:href="#m2e2f9f4624" x="747.957678" y="44.575334" style="fill: #1f77b4; stroke: #ffffff; stroke-width: 0.75"/>
     <use xlink:href="#m2e2f9f4624" x="748.720525" y="44.531536" style="fill: #1f77b4; stroke: #ffffff; stroke-width: 0.75"/>
     <use xlink:href="#m2e2f9f4624" x="749.472703" y="44.531536" style="fill: #1f77b4; stroke: #ffffff; stroke-width: 0.75"/>
     <use xlink:href="#m2e2f9f4624" x="750.214506" y="44.531536" style="fill: #1f77b4; stroke: #ffffff; stroke-width: 0.75"/>
     <use xlink:href="#m2e2f9f4624" x="750.946215" y="44.531536" style="fill: #1f77b4; stroke: #ffffff; stroke-width: 0.75"/>
     <use xlink:href="#m2e2f9f4624" x="751.668103" y="44.531536" style="fill: #1f77b4; stroke: #ffffff; stroke-width: 0.75"/>
     <use xlink:href="#m2e2f9f4624" x="752.380429" y="44.531536" style="fill: #1f77b4; stroke: #ffffff; stroke-width: 0.75"/>
     <use xlink:href="#m2e2f9f4624" x="753.083444" y="44.531536" style="fill: #1f77b4; stroke: #ffffff; stroke-width: 0.75"/>
     <use xlink:href="#m2e2f9f4624" x="753.777387" y="44.531536" style="fill: #1f77b4; stroke: #ffffff; stroke-width: 0.75"/>
     <use xlink:href="#m2e2f9f4624" x="754.46249" y="44.487738" style="fill: #1f77b4; stroke: #ffffff; stroke-width: 0.75"/>
     <use xlink:href="#m2e2f9f4624" x="755.138974" y="44.443939" style="fill: #1f77b4; stroke: #ffffff; stroke-width: 0.75"/>
     <use xlink:href="#m2e2f9f4624" x="755.807055" y="43.984057" style="fill: #1f77b4; stroke: #ffffff; stroke-width: 0.75"/>
     <use xlink:href="#m2e2f9f4624" x="756.466939" y="43.984057" style="fill: #1f77b4; stroke: #ffffff; stroke-width: 0.75"/>
     <use xlink:href="#m2e2f9f4624" x="757.118824" y="43.611771" style="fill: #1f77b4; stroke: #ffffff; stroke-width: 0.75"/>
     <use xlink:href="#m2e2f9f4624" x="757.762901" y="43.567973" style="fill: #1f77b4; stroke: #ffffff; stroke-width: 0.75"/>
     <use xlink:href="#m2e2f9f4624" x="758.399357" y="43.239486" style="fill: #1f77b4; stroke: #ffffff; stroke-width: 0.75"/>
     <use xlink:href="#m2e2f9f4624" x="759.028368" y="43.173788" style="fill: #1f77b4; stroke: #ffffff; stroke-width: 0.75"/>
     <use xlink:href="#m2e2f9f4624" x="759.650107" y="43.173788" style="fill: #1f77b4; stroke: #ffffff; stroke-width: 0.75"/>
     <use xlink:href="#m2e2f9f4624" x="760.26474" y="43.173788" style="fill: #1f77b4; stroke: #ffffff; stroke-width: 0.75"/>
     <use xlink:href="#m2e2f9f4624" x="760.872429" y="43.173788" style="fill: #1f77b4; stroke: #ffffff; stroke-width: 0.75"/>
     <use xlink:href="#m2e2f9f4624" x="761.473327" y="43.173788" style="fill: #1f77b4; stroke: #ffffff; stroke-width: 0.75"/>
     <use xlink:href="#m2e2f9f4624" x="762.067585" y="43.151889" style="fill: #1f77b4; stroke: #ffffff; stroke-width: 0.75"/>
     <use xlink:href="#m2e2f9f4624" x="762.655349" y="43.108091" style="fill: #1f77b4; stroke: #ffffff; stroke-width: 0.75"/>
     <use xlink:href="#m2e2f9f4624" x="763.236758" y="43.108091" style="fill: #1f77b4; stroke: #ffffff; stroke-width: 0.75"/>
     <use xlink:href="#m2e2f9f4624" x="763.811949" y="42.713906" style="fill: #1f77b4; stroke: #ffffff; stroke-width: 0.75"/>
     <use xlink:href="#m2e2f9f4624" x="764.381053" y="42.713906" style="fill: #1f77b4; stroke: #ffffff; stroke-width: 0.75"/>
     <use xlink:href="#m2e2f9f4624" x="764.944198" y="42.713906" style="fill: #1f77b4; stroke: #ffffff; stroke-width: 0.75"/>
    </g>
   </g>
   <g id="line2d_21"/>
   <g id="line2d_22"/>
   <g id="line2d_23">
    <path d="M 764.944198 288.430125 
L 764.944198 22.318125 
" clip-path="url(#pc2eb088216)" style="fill: none; stroke: #ff0000; stroke-width: 1.5; stroke-linecap: square"/>
   </g>
   <g id="patch_3">
    <path d="M 53.328125 269.063604 
L 53.328125 50.072023 
" style="fill: none; stroke: #000000; stroke-width: 0.8; stroke-linejoin: miter; stroke-linecap: square"/>
   </g>
   <g id="patch_4">
    <path d="M 53.328125 288.430125 
L 764.94482 288.430125 
" style="fill: none; stroke: #000000; stroke-width: 0.8; stroke-linejoin: miter; stroke-linecap: square"/>
   </g>
   <g id="text_17">
    <!-- freetype2_ftfuzzer (24h, at least 10 trials/fuzzer) -->
    <g transform="translate(264.5825 16.318125) scale(0.12 -0.12)">
     <defs>
      <path id="DejaVuSans-66" d="M 2375 4863 
L 2375 4384 
L 1825 4384 
Q 1516 4384 1395 4259 
Q 1275 4134 1275 3809 
L 1275 3500 
L 2222 3500 
L 2222 3053 
L 1275 3053 
L 1275 0 
L 697 0 
L 697 3053 
L 147 3053 
L 147 3500 
L 697 3500 
L 697 3744 
Q 697 4328 969 4595 
Q 1241 4863 1831 4863 
L 2375 4863 
z
" transform="scale(0.015625)"/>
      <path id="DejaVuSans-79" d="M 2059 -325 
Q 1816 -950 1584 -1140 
Q 1353 -1331 966 -1331 
L 506 -1331 
L 506 -850 
L 844 -850 
Q 1081 -850 1212 -737 
Q 1344 -625 1503 -206 
L 1606 56 
L 191 3500 
L 800 3500 
L 1894 763 
L 2988 3500 
L 3597 3500 
L 2059 -325 
z
" transform="scale(0.015625)"/>
      <path id="DejaVuSans-70" d="M 1159 525 
L 1159 -1331 
L 581 -1331 
L 581 3500 
L 1159 3500 
L 1159 2969 
Q 1341 3281 1617 3432 
Q 1894 3584 2278 3584 
Q 2916 3584 3314 3078 
Q 3713 2572 3713 1747 
Q 3713 922 3314 415 
Q 2916 -91 2278 -91 
Q 1894 -91 1617 61 
Q 1341 213 1159 525 
z
M 3116 1747 
Q 3116 2381 2855 2742 
Q 2594 3103 2138 3103 
Q 1681 3103 1420 2742 
Q 1159 2381 1159 1747 
Q 1159 1113 1420 752 
Q 1681 391 2138 391 
Q 2594 391 2855 752 
Q 3116 1113 3116 1747 
z
" transform="scale(0.015625)"/>
      <path id="DejaVuSans-5f" d="M 3263 -1063 
L 3263 -1509 
L -63 -1509 
L -63 -1063 
L 3263 -1063 
z
" transform="scale(0.015625)"/>
      <path id="DejaVuSans-7a" d="M 353 3500 
L 3084 3500 
L 3084 2975 
L 922 459 
L 3084 459 
L 3084 0 
L 275 0 
L 275 525 
L 2438 3041 
L 353 3041 
L 353 3500 
z
" transform="scale(0.015625)"/>
      <path id="DejaVuSans-2c" d="M 750 794 
L 1409 794 
L 1409 256 
L 897 -744 
L 494 -744 
L 750 256 
L 750 794 
z
" transform="scale(0.015625)"/>
      <path id="DejaVuSans-6c" d="M 603 4863 
L 1178 4863 
L 1178 0 
L 603 0 
L 603 4863 
z
" transform="scale(0.015625)"/>
      <path id="DejaVuSans-73" d="M 2834 3397 
L 2834 2853 
Q 2591 2978 2328 3040 
Q 2066 3103 1784 3103 
Q 1356 3103 1142 2972 
Q 928 2841 928 2578 
Q 928 2378 1081 2264 
Q 1234 2150 1697 2047 
L 1894 2003 
Q 2506 1872 2764 1633 
Q 3022 1394 3022 966 
Q 3022 478 2636 193 
Q 2250 -91 1575 -91 
Q 1294 -91 989 -36 
Q 684 19 347 128 
L 347 722 
Q 666 556 975 473 
Q 1284 391 1588 391 
Q 1994 391 2212 530 
Q 2431 669 2431 922 
Q 2431 1156 2273 1281 
Q 2116 1406 1581 1522 
L 1381 1569 
Q 847 1681 609 1914 
Q 372 2147 372 2553 
Q 372 3047 722 3315 
Q 1072 3584 1716 3584 
Q 2034 3584 2315 3537 
Q 2597 3491 2834 3397 
z
" transform="scale(0.015625)"/>
      <path id="DejaVuSans-2f" d="M 1625 4666 
L 2156 4666 
L 531 -594 
L 0 -594 
L 1625 4666 
z
" transform="scale(0.015625)"/>
     </defs>
     <use xlink:href="#DejaVuSans-66"/>
     <use xlink:href="#DejaVuSans-72" x="35.205078"/>
     <use xlink:href="#DejaVuSans-65" x="74.068359"/>
     <use xlink:href="#DejaVuSans-65" x="135.591797"/>
     <use xlink:href="#DejaVuSans-74" x="197.115234"/>
     <use xlink:href="#DejaVuSans-79" x="236.324219"/>
     <use xlink:href="#DejaVuSans-70" x="295.503906"/>
     <use xlink:href="#DejaVuSans-65" x="358.980469"/>
     <use xlink:href="#DejaVuSans-32" x="420.503906"/>
     <use xlink:href="#DejaVuSans-5f" x="484.126953"/>
     <use xlink:href="#DejaVuSans-66" x="534.126953"/>
     <use xlink:href="#DejaVuSans-74" x="567.582031"/>
     <use xlink:href="#DejaVuSans-66" x="606.791016"/>
     <use xlink:href="#DejaVuSans-75" x="641.996094"/>
     <use xlink:href="#DejaVuSans-7a" x="705.375"/>
     <use xlink:href="#DejaVuSans-7a" x="757.865234"/>
     <use xlink:href="#DejaVuSans-65" x="810.355469"/>
     <use xlink:href="#DejaVuSans-72" x="871.878906"/>
     <use xlink:href="#DejaVuSans-20" x="912.992188"/>
     <use xlink:href="#DejaVuSans-28" x="944.779297"/>
     <use xlink:href="#DejaVuSans-32" x="983.792969"/>
     <use xlink:href="#DejaVuSans-34" x="1047.416016"/>
     <use xlink:href="#DejaVuSans-68" x="1111.039062"/>
     <use xlink:href="#DejaVuSans-2c" x="1174.417969"/>
     <use xlink:href="#DejaVuSans-20" x="1206.205078"/>
     <use xlink:href="#DejaVuSans-61" x="1237.992188"/>
     <use xlink:href="#DejaVuSans-74" x="1299.271484"/>
     <use xlink:href="#DejaVuSans-20" x="1338.480469"/>
     <use xlink:href="#DejaVuSans-6c" x="1370.267578"/>
     <use xlink:href="#DejaVuSans-65" x="1398.050781"/>
     <use xlink:href="#DejaVuSans-61" x="1459.574219"/>
     <use xlink:href="#DejaVuSans-73" x="1520.853516"/>
     <use xlink:href="#DejaVuSans-74" x="1572.953125"/>
     <use xlink:href="#DejaVuSans-20" x="1612.162109"/>
     <use xlink:href="#DejaVuSans-31" x="1643.949219"/>
     <use xlink:href="#DejaVuSans-30" x="1707.572266"/>
     <use xlink:href="#DejaVuSans-20" x="1771.195312"/>
     <use xlink:href="#DejaVuSans-74" x="1802.982422"/>
     <use xlink:href="#DejaVuSans-72" x="1842.191406"/>
     <use xlink:href="#DejaVuSans-69" x="1883.304688"/>
     <use xlink:href="#DejaVuSans-61" x="1911.087891"/>
     <use xlink:href="#DejaVuSans-6c" x="1972.367188"/>
     <use xlink:href="#DejaVuSans-73" x="2000.150391"/>
     <use xlink:href="#DejaVuSans-2f" x="2052.25"/>
     <use xlink:href="#DejaVuSans-66" x="2085.941406"/>
     <use xlink:href="#DejaVuSans-75" x="2121.146484"/>
     <use xlink:href="#DejaVuSans-7a" x="2184.525391"/>
     <use xlink:href="#DejaVuSans-7a" x="2237.015625"/>
     <use xlink:href="#DejaVuSans-65" x="2289.505859"/>
     <use xlink:href="#DejaVuSans-72" x="2351.029297"/>
     <use xlink:href="#DejaVuSans-29" x="2392.142578"/>
    </g>
   </g>
   <g id="legend_1">
    <g id="line2d_24">
     <path d="M 771.568125 30.416562 
L 781.568125 30.416562 
L 791.568125 30.416562 
" style="fill: none; stroke: #98df8a; stroke-width: 1.5; stroke-linecap: square"/>
     <defs>
      <path id="mf6ab977c65" d="M -0 3 
L 3 -3 
L -3 -3 
z
" style="stroke: #98df8a; stroke-linejoin: miter"/>
     </defs>
     <g>
      <use xlink:href="#mf6ab977c65" x="781.568125" y="30.416562" style="fill: #98df8a; stroke: #98df8a; stroke-linejoin: miter"/>
     </g>
    </g>
    <g id="text_18">
     <!-- darwin_no_pre_seed -->
     <g transform="translate(799.568125 33.916562) scale(0.1 -0.1)">
      <defs>
       <path id="DejaVuSans-77" d="M 269 3500 
L 844 3500 
L 1563 769 
L 2278 3500 
L 2956 3500 
L 3675 769 
L 4391 3500 
L 4966 3500 
L 4050 0 
L 3372 0 
L 2619 2869 
L 1863 0 
L 1184 0 
L 269 3500 
z
" transform="scale(0.015625)"/>
      </defs>
      <use xlink:href="#DejaVuSans-64"/>
      <use xlink:href="#DejaVuSans-61" x="63.476562"/>
      <use xlink:href="#DejaVuSans-72" x="124.755859"/>
      <use xlink:href="#DejaVuSans-77" x="165.869141"/>
      <use xlink:href="#DejaVuSans-69" x="247.65625"/>
      <use xlink:href="#DejaVuSans-6e" x="275.439453"/>
      <use xlink:href="#DejaVuSans-5f" x="338.818359"/>
      <use xlink:href="#DejaVuSans-6e" x="388.818359"/>
      <use xlink:href="#DejaVuSans-6f" x="452.197266"/>
      <use xlink:href="#DejaVuSans-5f" x="513.378906"/>
      <use xlink:href="#DejaVuSans-70" x="563.378906"/>
      <use xlink:href="#DejaVuSans-72" x="626.855469"/>
      <use xlink:href="#DejaVuSans-65" x="665.71875"/>
      <use xlink:href="#DejaVuSans-5f" x="727.242188"/>
      <use xlink:href="#DejaVuSans-73" x="777.242188"/>
      <use xlink:href="#DejaVuSans-65" x="829.341797"/>
      <use xlink:href="#DejaVuSans-65" x="890.865234"/>
      <use xlink:href="#DejaVuSans-64" x="952.388672"/>
     </g>
    </g>
    <g id="line2d_25">
     <path d="M 771.568125 45.372813 
L 781.568125 45.372813 
L 791.568125 45.372813 
" style="fill: none; stroke: #1f77b4; stroke-width: 1.5; stroke-linecap: square"/>
     <defs>
      <path id="mb7540c6ce8" d="M 0 3 
C 0.795609 3 1.55874 2.683901 2.12132 2.12132 
C 2.683901 1.55874 3 0.795609 3 0 
C 3 -0.795609 2.683901 -1.55874 2.12132 -2.12132 
C 1.55874 -2.683901 0.795609 -3 0 -3 
C -0.795609 -3 -1.55874 -2.683901 -2.12132 -2.12132 
C -2.683901 -1.55874 -3 -0.795609 -3 0 
C -3 0.795609 -2.683901 1.55874 -2.12132 2.12132 
C -1.55874 2.683901 -0.795609 3 0 3 
z
" style="stroke: #1f77b4"/>
     </defs>
     <g>
      <use xlink:href="#mb7540c6ce8" x="781.568125" y="45.372813" style="fill: #1f77b4; stroke: #1f77b4"/>
     </g>
    </g>
    <g id="text_19">
     <!-- darwin -->
     <g transform="translate(799.568125 48.872813) scale(0.1 -0.1)">
      <use xlink:href="#DejaVuSans-64"/>
      <use xlink:href="#DejaVuSans-61" x="63.476562"/>
      <use xlink:href="#DejaVuSans-72" x="124.755859"/>
      <use xlink:href="#DejaVuSans-77" x="165.869141"/>
      <use xlink:href="#DejaVuSans-69" x="247.65625"/>
      <use xlink:href="#DejaVuSans-6e" x="275.439453"/>
     </g>
    </g>
   </g>
  </g>
 </g>
 <defs>
  <clipPath id="pc2eb088216">
   <rect x="53.328125" y="22.318125" width="714.24" height="266.112"/>
  </clipPath>
 </defs>
</svg>
