<?xml version="1.0" encoding="utf-8" standalone="no"?>
<!DOCTYPE svg PUBLIC "-//W3C//DTD SVG 1.1//EN"
  "http://www.w3.org/Graphics/SVG/1.1/DTD/svg11.dtd">
<svg xmlns:xlink="http://www.w3.org/1999/xlink" width="912.357187pt" height="325.986375pt" viewBox="0 0 912.357187 325.986375" xmlns="http://www.w3.org/2000/svg" version="1.1">
 <metadata>
  <rdf:RDF xmlns:dc="http://purl.org/dc/elements/1.1/" xmlns:cc="http://creativecommons.org/ns#" xmlns:rdf="http://www.w3.org/1999/02/22-rdf-syntax-ns#">
   <cc:Work>
    <dc:type rdf:resource="http://purl.org/dc/dcmitype/StillImage"/>
    <dc:date>2023-08-02T15:42:31.842453</dc:date>
    <dc:format>image/svg+xml</dc:format>
    <dc:creator>
     <cc:Agent>
      <dc:title>Matplotlib v3.7.1, https://matplotlib.org/</dc:title>
     </cc:Agent>
    </dc:creator>
   </cc:Work>
  </rdf:RDF>
 </metadata>
 <defs>
  <style type="text/css">*{stroke-linejoin: round; stroke-linecap: butt}</style>
 </defs>
 <g id="figure_1">
  <g id="patch_1">
   <path d="M 0 325.986375 
L 912.357187 325.986375 
L 912.357187 0 
L 0 0 
z
" style="fill: #ffffff"/>
  </g>
  <g id="axes_1">
   <g id="patch_2">
    <path d="M 53.328125 288.430125 
L 767.568125 288.430125 
L 767.568125 22.318125 
L 53.328125 22.318125 
z
" style="fill: #ffffff"/>
   </g>
   <g id="PolyCollection_1">
    <defs>
     <path id="me1ab1725a0" d="M 53.328125 -49.65225 
L 53.328125 -49.65225 
L 60.413839 -127.661002 
L 67.499554 -149.949217 
L 74.585268 -164.808027 
L 81.670982 -178.273824 
L 88.756696 -178.738162 
L 95.842411 -179.655229 
L 102.928125 -181.524189 
L 110.013839 -183.38154 
L 117.099554 -186.167567 
L 124.185268 -187.096242 
L 131.270982 -187.096242 
L 138.356696 -188.024918 
L 145.442411 -188.489256 
L 152.528125 -189.882269 
L 159.613839 -189.882269 
L 166.699554 -190.810945 
L 173.785268 -189.882269 
L 180.870982 -194.525647 
L 187.956696 -194.525647 
L 195.042411 -193.132634 
L 202.128125 -194.525647 
L 209.213839 -194.525647 
L 216.299554 -194.525647 
L 223.385268 -194.525647 
L 230.470982 -209.848795 
L 237.556696 -211.241809 
L 244.642411 -225.171943 
L 251.728125 -225.171943 
L 258.813839 -225.171943 
L 265.899554 -225.160334 
L 272.985268 -225.171943 
L 280.070982 -224.707605 
L 287.156696 -227.493632 
L 294.242411 -227.95797 
L 301.328125 -227.95797 
L 308.413839 -227.95797 
L 315.499554 -227.95797 
L 322.585268 -228.886645 
L 329.670982 -228.886645 
L 336.756696 -228.886645 
L 343.842411 -228.886645 
L 350.928125 -229.350983 
L 358.013839 -229.815321 
L 365.099554 -229.815321 
L 372.185268 -229.815321 
L 379.270982 -229.815321 
L 386.356696 -229.815321 
L 393.442411 -229.815321 
L 400.528125 -229.815321 
L 407.613839 -229.815321 
L 414.699554 -229.815321 
L 421.785268 -229.815321 
L 428.870982 -229.815321 
L 435.956696 -229.815321 
L 443.042411 -229.815321 
L 450.128125 -229.815321 
L 457.213839 -229.815321 
L 464.299554 -229.815321 
L 471.385268 -229.815321 
L 478.470982 -229.815321 
L 485.556696 -229.815321 
L 492.642411 -229.815321 
L 499.728125 -229.815321 
L 506.813839 -229.815321 
L 513.899554 -229.815321 
L 520.985268 -229.815321 
L 528.070982 -229.815321 
L 535.156696 -229.815321 
L 542.242411 -229.815321 
L 549.328125 -229.815321 
L 556.413839 -229.815321 
L 563.499554 -229.815321 
L 570.585268 -230.743997 
L 577.670982 -230.279659 
L 584.756696 -230.743997 
L 591.842411 -230.743997 
L 598.928125 -230.743997 
L 606.013839 -230.743997 
L 613.099554 -230.743997 
L 620.185268 -230.743997 
L 627.270982 -230.732388 
L 634.356696 -230.279659 
L 641.442411 -230.279659 
L 648.528125 -230.743997 
L 655.613839 -230.743997 
L 662.699554 -230.743997 
L 669.785268 -230.743997 
L 676.870982 -230.279659 
L 683.956696 -230.743997 
L 691.042411 -230.743997 
L 698.128125 -230.743997 
L 705.213839 -230.743997 
L 712.299554 -230.743997 
L 719.385268 -230.743997 
L 726.470982 -230.732388 
L 733.556696 -230.743997 
L 733.556696 -291.107912 
L 733.556696 -291.107912 
L 726.470982 -291.107912 
L 719.385268 -291.107912 
L 712.299554 -291.107912 
L 705.213839 -291.107912 
L 698.128125 -291.107912 
L 691.042411 -291.107912 
L 683.956696 -291.107912 
L 676.870982 -291.107912 
L 669.785268 -291.107912 
L 662.699554 -291.107912 
L 655.613839 -291.107912 
L 648.528125 -291.107912 
L 641.442411 -291.107912 
L 634.356696 -291.107912 
L 627.270982 -291.107912 
L 620.185268 -291.119521 
L 613.099554 -291.107912 
L 606.013839 -291.119521 
L 598.928125 -291.107912 
L 591.842411 -291.107912 
L 584.756696 -291.107912 
L 577.670982 -291.107912 
L 570.585268 -291.107912 
L 563.499554 -291.107912 
L 556.413839 -291.107912 
L 549.328125 -291.107912 
L 542.242411 -291.107912 
L 535.156696 -291.107912 
L 528.070982 -291.107912 
L 520.985268 -291.107912 
L 513.899554 -291.107912 
L 506.813839 -291.107912 
L 499.728125 -291.107912 
L 492.642411 -291.107912 
L 485.556696 -291.107912 
L 478.470982 -291.107912 
L 471.385268 -291.107912 
L 464.299554 -291.57225 
L 457.213839 -291.107912 
L 450.128125 -291.107912 
L 443.042411 -291.107912 
L 435.956696 -291.107912 
L 428.870982 -290.643574 
L 421.785268 -290.190845 
L 414.699554 -290.643574 
L 407.613839 -290.179237 
L 400.528125 -289.250561 
L 393.442411 -289.250561 
L 386.356696 -288.321885 
L 379.270982 -288.321885 
L 372.185268 -279.963805 
L 365.099554 -280.045064 
L 358.013839 -283.214169 
L 350.928125 -279.963805 
L 343.842411 -283.214169 
L 336.756696 -283.214169 
L 329.670982 -283.214169 
L 322.585268 -276.249102 
L 315.499554 -276.423229 
L 308.413839 -272.5344 
L 301.328125 -272.5344 
L 294.242411 -281.356818 
L 287.156696 -263.247643 
L 280.070982 -263.711981 
L 272.985268 -252.103536 
L 265.899554 -252.103536 
L 258.813839 -253.032212 
L 251.728125 -252.103536 
L 244.642411 -251.17486 
L 237.556696 -251.17486 
L 230.470982 -249.317509 
L 223.385268 -241.888104 
L 216.299554 -241.888104 
L 209.213839 -241.888104 
L 202.128125 -236.31605 
L 195.042411 -241.888104 
L 187.956696 -241.888104 
L 180.870982 -241.423766 
L 173.785268 -239.566415 
L 166.699554 -236.31605 
L 159.613839 -239.566415 
L 152.528125 -227.029294 
L 145.442411 -238.637739 
L 138.356696 -238.173402 
L 131.270982 -224.243267 
L 124.185268 -236.31605 
L 117.099554 -224.52187 
L 110.013839 -221.45724 
L 102.928125 -217.742538 
L 95.842411 -217.742538 
L 88.756696 -217.742538 
L 81.670982 -214.956511 
L 74.585268 -210.313133 
L 67.499554 -199.169025 
L 60.413839 -164.842853 
L 53.328125 -49.65225 
z
" style="stroke: #1f77b4; stroke-opacity: 0.2"/>
    </defs>
    <g clip-path="url(#p5a34aaf453)">
     <use xlink:href="#me1ab1725a0" x="0" y="325.986375" style="fill: #1f77b4; fill-opacity: 0.2; stroke: #1f77b4; stroke-opacity: 0.2"/>
    </g>
   </g>
   <g id="PolyCollection_2">
    <defs>
     <path id="m268a04ec3a" d="M 53.328125 -49.65225 
L 53.328125 -49.65225 
L 60.413839 -136.019083 
L 67.499554 -161.093325 
L 74.585268 -172.237432 
L 81.670982 -180.595513 
L 88.756696 -184.310215 
L 95.842411 -184.310215 
L 102.928125 -184.310215 
L 110.013839 -186.631905 
L 117.099554 -187.096242 
L 124.185268 -188.024918 
L 131.270982 -189.417931 
L 138.356696 -189.882269 
L 145.442411 -189.882269 
L 152.528125 -189.882269 
L 159.613839 -189.882269 
L 166.699554 -189.882269 
L 173.785268 -189.882269 
L 180.870982 -189.882269 
L 187.956696 -189.882269 
L 195.042411 -191.275283 
L 202.128125 -191.263674 
L 209.213839 -192.203958 
L 216.299554 -194.514039 
L 223.385268 -194.514039 
L 230.470982 -194.06131 
L 237.556696 -194.525647 
L 244.642411 -223.314592 
L 251.728125 -224.231659 
L 258.813839 -224.243267 
L 265.899554 -224.243267 
L 272.985268 -224.243267 
L 280.070982 -224.243267 
L 287.156696 -224.243267 
L 294.242411 -224.243267 
L 301.328125 -224.243267 
L 308.413839 -224.243267 
L 315.499554 -224.243267 
L 322.585268 -225.171943 
L 329.670982 -225.171943 
L 336.756696 -225.171943 
L 343.842411 -226.994469 
L 350.928125 -225.636281 
L 358.013839 -225.636281 
L 365.099554 -225.636281 
L 372.185268 -227.029294 
L 379.270982 -227.029294 
L 386.356696 -226.564956 
L 393.442411 -227.029294 
L 400.528125 -226.564956 
L 407.613839 -226.564956 
L 414.699554 -227.029294 
L 421.785268 -227.029294 
L 428.870982 -227.029294 
L 435.956696 -227.029294 
L 443.042411 -227.029294 
L 450.128125 -227.029294 
L 457.213839 -227.029294 
L 464.299554 -227.029294 
L 471.385268 -227.029294 
L 478.470982 -227.029294 
L 485.556696 -227.95797 
L 492.642411 -227.95797 
L 499.728125 -227.95797 
L 506.813839 -227.95797 
L 513.899554 -227.95797 
L 520.985268 -227.95797 
L 528.070982 -227.95797 
L 535.156696 -227.95797 
L 542.242411 -227.493632 
L 549.328125 -227.95797 
L 556.413839 -227.95797 
L 563.499554 -227.95797 
L 570.585268 -227.95797 
L 577.670982 -227.95797 
L 584.756696 -227.95797 
L 591.842411 -227.493632 
L 598.928125 -227.95797 
L 606.013839 -227.95797 
L 613.099554 -227.95797 
L 620.185268 -227.493632 
L 627.270982 -227.95797 
L 634.356696 -227.95797 
L 641.442411 -227.95797 
L 648.528125 -227.95797 
L 655.613839 -227.946361 
L 662.699554 -227.95797 
L 669.785268 -227.95797 
L 676.870982 -227.95797 
L 683.956696 -227.95797 
L 691.042411 -227.95797 
L 698.128125 -227.95797 
L 705.213839 -227.493632 
L 712.299554 -227.95797 
L 719.385268 -228.886645 
L 726.470982 -228.886645 
L 733.556696 -228.886645 
L 733.556696 -291.107912 
L 733.556696 -291.107912 
L 726.470982 -291.107912 
L 719.385268 -291.107912 
L 712.299554 -291.107912 
L 705.213839 -291.107912 
L 698.128125 -291.107912 
L 691.042411 -291.107912 
L 683.956696 -291.107912 
L 676.870982 -291.107912 
L 669.785268 -291.107912 
L 662.699554 -291.107912 
L 655.613839 -291.107912 
L 648.528125 -291.107912 
L 641.442411 -291.107912 
L 634.356696 -290.190845 
L 627.270982 -290.179237 
L 620.185268 -290.179237 
L 613.099554 -290.179237 
L 606.013839 -290.179237 
L 598.928125 -290.179237 
L 591.842411 -290.179237 
L 584.756696 -289.250561 
L 577.670982 -289.250561 
L 570.585268 -289.250561 
L 563.499554 -289.250561 
L 556.413839 -290.179237 
L 549.328125 -289.250561 
L 542.242411 -289.250561 
L 535.156696 -289.250561 
L 528.070982 -289.250561 
L 520.985268 -289.250561 
L 513.899554 -289.262169 
L 506.813839 -289.250561 
L 499.728125 -289.714899 
L 492.642411 -289.262169 
L 485.556696 -289.250561 
L 478.470982 -289.714899 
L 471.385268 -289.250561 
L 464.299554 -289.250561 
L 457.213839 -289.250561 
L 450.128125 -289.250561 
L 443.042411 -289.250561 
L 435.956696 -289.250561 
L 428.870982 -289.250561 
L 421.785268 -289.250561 
L 414.699554 -289.250561 
L 407.613839 -289.714899 
L 400.528125 -289.250561 
L 393.442411 -289.250561 
L 386.356696 -289.250561 
L 379.270982 -289.714899 
L 372.185268 -289.714899 
L 365.099554 -289.250561 
L 358.013839 -288.321885 
L 350.928125 -288.321885 
L 343.842411 -289.250561 
L 336.756696 -288.321885 
L 329.670982 -288.345102 
L 322.585268 -288.321885 
L 315.499554 -265.104995 
L 308.413839 -259.068603 
L 301.328125 -258.604265 
L 294.242411 -256.758523 
L 287.156696 -257.211252 
L 280.070982 -241.423766 
L 272.985268 -240.506699 
L 265.899554 -240.959429 
L 258.813839 -240.042361 
L 251.728125 -228.886645 
L 244.642411 -227.95797 
L 237.556696 -227.95797 
L 230.470982 -227.95797 
L 223.385268 -227.029294 
L 216.299554 -227.029294 
L 209.213839 -227.029294 
L 202.128125 -223.314592 
L 195.042411 -223.314592 
L 187.956696 -210.777471 
L 180.870982 -210.777471 
L 173.785268 -210.777471 
L 166.699554 -210.313133 
L 159.613839 -209.848795 
L 152.528125 -208.920119 
L 145.442411 -194.06131 
L 138.356696 -192.668296 
L 131.270982 -193.132634 
L 124.185268 -191.73962 
L 117.099554 -190.810945 
L 110.013839 -189.893878 
L 102.928125 -189.882269 
L 95.842411 -188.953594 
L 88.756696 -188.953594 
L 81.670982 -188.024918 
L 74.585268 -186.167567 
L 67.499554 -180.131175 
L 60.413839 -153.66392 
L 53.328125 -49.65225 
z
" style="stroke: #98df8a; stroke-opacity: 0.2"/>
    </defs>
    <g clip-path="url(#p5a34aaf453)">
     <use xlink:href="#m268a04ec3a" x="0" y="325.986375" style="fill: #98df8a; fill-opacity: 0.2; stroke: #98df8a; stroke-opacity: 0.2"/>
    </g>
   </g>
   <g id="matplotlib.axis_1">
    <g id="xtick_1">
     <g id="line2d_1">
      <defs>
       <path id="m274dfa916c" d="M 0 0 
L 0 3.5 
" style="stroke: #000000; stroke-width: 0.8"/>
      </defs>
      <g>
       <use xlink:href="#m274dfa916c" x="53.328125" y="288.430125" style="stroke: #000000; stroke-width: 0.8"/>
      </g>
     </g>
     <g id="text_1">
      <!-- 0m -->
      <g transform="translate(45.276563 303.028562) scale(0.1 -0.1)">
       <defs>
        <path id="DejaVuSans-30" d="M 2034 4250 
Q 1547 4250 1301 3770 
Q 1056 3291 1056 2328 
Q 1056 1369 1301 889 
Q 1547 409 2034 409 
Q 2525 409 2770 889 
Q 3016 1369 3016 2328 
Q 3016 3291 2770 3770 
Q 2525 4250 2034 4250 
z
M 2034 4750 
Q 2819 4750 3233 4129 
Q 3647 3509 3647 2328 
Q 3647 1150 3233 529 
Q 2819 -91 2034 -91 
Q 1250 -91 836 529 
Q 422 1150 422 2328 
Q 422 3509 836 4129 
Q 1250 4750 2034 4750 
z
" transform="scale(0.015625)"/>
        <path id="DejaVuSans-6d" d="M 3328 2828 
Q 3544 3216 3844 3400 
Q 4144 3584 4550 3584 
Q 5097 3584 5394 3201 
Q 5691 2819 5691 2113 
L 5691 0 
L 5113 0 
L 5113 2094 
Q 5113 2597 4934 2840 
Q 4756 3084 4391 3084 
Q 3944 3084 3684 2787 
Q 3425 2491 3425 1978 
L 3425 0 
L 2847 0 
L 2847 2094 
Q 2847 2600 2669 2842 
Q 2491 3084 2119 3084 
Q 1678 3084 1418 2786 
Q 1159 2488 1159 1978 
L 1159 0 
L 581 0 
L 581 3500 
L 1159 3500 
L 1159 2956 
Q 1356 3278 1631 3431 
Q 1906 3584 2284 3584 
Q 2666 3584 2933 3390 
Q 3200 3197 3328 2828 
z
" transform="scale(0.015625)"/>
       </defs>
       <use xlink:href="#DejaVuSans-30"/>
       <use xlink:href="#DejaVuSans-6d" x="63.623047"/>
      </g>
     </g>
    </g>
    <g id="xtick_2">
     <g id="line2d_2">
      <g>
       <use xlink:href="#m274dfa916c" x="110.013839" y="288.430125" style="stroke: #000000; stroke-width: 0.8"/>
      </g>
     </g>
     <g id="text_2">
      <!-- 2h -->
      <g transform="translate(103.663839 303.028562) scale(0.1 -0.1)">
       <defs>
        <path id="DejaVuSans-32" d="M 1228 531 
L 3431 531 
L 3431 0 
L 469 0 
L 469 531 
Q 828 903 1448 1529 
Q 2069 2156 2228 2338 
Q 2531 2678 2651 2914 
Q 2772 3150 2772 3378 
Q 2772 3750 2511 3984 
Q 2250 4219 1831 4219 
Q 1534 4219 1204 4116 
Q 875 4013 500 3803 
L 500 4441 
Q 881 4594 1212 4672 
Q 1544 4750 1819 4750 
Q 2544 4750 2975 4387 
Q 3406 4025 3406 3419 
Q 3406 3131 3298 2873 
Q 3191 2616 2906 2266 
Q 2828 2175 2409 1742 
Q 1991 1309 1228 531 
z
" transform="scale(0.015625)"/>
        <path id="DejaVuSans-68" d="M 3513 2113 
L 3513 0 
L 2938 0 
L 2938 2094 
Q 2938 2591 2744 2837 
Q 2550 3084 2163 3084 
Q 1697 3084 1428 2787 
Q 1159 2491 1159 1978 
L 1159 0 
L 581 0 
L 581 4863 
L 1159 4863 
L 1159 2956 
Q 1366 3272 1645 3428 
Q 1925 3584 2291 3584 
Q 2894 3584 3203 3211 
Q 3513 2838 3513 2113 
z
" transform="scale(0.015625)"/>
       </defs>
       <use xlink:href="#DejaVuSans-32"/>
       <use xlink:href="#DejaVuSans-68" x="63.623047"/>
      </g>
     </g>
    </g>
    <g id="xtick_3">
     <g id="line2d_3">
      <g>
       <use xlink:href="#m274dfa916c" x="166.699554" y="288.430125" style="stroke: #000000; stroke-width: 0.8"/>
      </g>
     </g>
     <g id="text_3">
      <!-- 4h -->
      <g transform="translate(160.349554 303.028562) scale(0.1 -0.1)">
       <defs>
        <path id="DejaVuSans-34" d="M 2419 4116 
L 825 1625 
L 2419 1625 
L 2419 4116 
z
M 2253 4666 
L 3047 4666 
L 3047 1625 
L 3713 1625 
L 3713 1100 
L 3047 1100 
L 3047 0 
L 2419 0 
L 2419 1100 
L 313 1100 
L 313 1709 
L 2253 4666 
z
" transform="scale(0.015625)"/>
       </defs>
       <use xlink:href="#DejaVuSans-34"/>
       <use xlink:href="#DejaVuSans-68" x="63.623047"/>
      </g>
     </g>
    </g>
    <g id="xtick_4">
     <g id="line2d_4">
      <g>
       <use xlink:href="#m274dfa916c" x="223.385268" y="288.430125" style="stroke: #000000; stroke-width: 0.8"/>
      </g>
     </g>
     <g id="text_4">
      <!-- 6h -->
      <g transform="translate(217.035268 303.028562) scale(0.1 -0.1)">
       <defs>
        <path id="DejaVuSans-36" d="M 2113 2584 
Q 1688 2584 1439 2293 
Q 1191 2003 1191 1497 
Q 1191 994 1439 701 
Q 1688 409 2113 409 
Q 2538 409 2786 701 
Q 3034 994 3034 1497 
Q 3034 2003 2786 2293 
Q 2538 2584 2113 2584 
z
M 3366 4563 
L 3366 3988 
Q 3128 4100 2886 4159 
Q 2644 4219 2406 4219 
Q 1781 4219 1451 3797 
Q 1122 3375 1075 2522 
Q 1259 2794 1537 2939 
Q 1816 3084 2150 3084 
Q 2853 3084 3261 2657 
Q 3669 2231 3669 1497 
Q 3669 778 3244 343 
Q 2819 -91 2113 -91 
Q 1303 -91 875 529 
Q 447 1150 447 2328 
Q 447 3434 972 4092 
Q 1497 4750 2381 4750 
Q 2619 4750 2861 4703 
Q 3103 4656 3366 4563 
z
" transform="scale(0.015625)"/>
       </defs>
       <use xlink:href="#DejaVuSans-36"/>
       <use xlink:href="#DejaVuSans-68" x="63.623047"/>
      </g>
     </g>
    </g>
    <g id="xtick_5">
     <g id="line2d_5">
      <g>
       <use xlink:href="#m274dfa916c" x="280.070982" y="288.430125" style="stroke: #000000; stroke-width: 0.8"/>
      </g>
     </g>
     <g id="text_5">
      <!-- 8h -->
      <g transform="translate(273.720982 303.028562) scale(0.1 -0.1)">
       <defs>
        <path id="DejaVuSans-38" d="M 2034 2216 
Q 1584 2216 1326 1975 
Q 1069 1734 1069 1313 
Q 1069 891 1326 650 
Q 1584 409 2034 409 
Q 2484 409 2743 651 
Q 3003 894 3003 1313 
Q 3003 1734 2745 1975 
Q 2488 2216 2034 2216 
z
M 1403 2484 
Q 997 2584 770 2862 
Q 544 3141 544 3541 
Q 544 4100 942 4425 
Q 1341 4750 2034 4750 
Q 2731 4750 3128 4425 
Q 3525 4100 3525 3541 
Q 3525 3141 3298 2862 
Q 3072 2584 2669 2484 
Q 3125 2378 3379 2068 
Q 3634 1759 3634 1313 
Q 3634 634 3220 271 
Q 2806 -91 2034 -91 
Q 1263 -91 848 271 
Q 434 634 434 1313 
Q 434 1759 690 2068 
Q 947 2378 1403 2484 
z
M 1172 3481 
Q 1172 3119 1398 2916 
Q 1625 2713 2034 2713 
Q 2441 2713 2670 2916 
Q 2900 3119 2900 3481 
Q 2900 3844 2670 4047 
Q 2441 4250 2034 4250 
Q 1625 4250 1398 4047 
Q 1172 3844 1172 3481 
z
" transform="scale(0.015625)"/>
       </defs>
       <use xlink:href="#DejaVuSans-38"/>
       <use xlink:href="#DejaVuSans-68" x="63.623047"/>
      </g>
     </g>
    </g>
    <g id="xtick_6">
     <g id="line2d_6">
      <g>
       <use xlink:href="#m274dfa916c" x="336.756696" y="288.430125" style="stroke: #000000; stroke-width: 0.8"/>
      </g>
     </g>
     <g id="text_6">
      <!-- 10h -->
      <g transform="translate(327.225446 303.028562) scale(0.1 -0.1)">
       <defs>
        <path id="DejaVuSans-31" d="M 794 531 
L 1825 531 
L 1825 4091 
L 703 3866 
L 703 4441 
L 1819 4666 
L 2450 4666 
L 2450 531 
L 3481 531 
L 3481 0 
L 794 0 
L 794 531 
z
" transform="scale(0.015625)"/>
       </defs>
       <use xlink:href="#DejaVuSans-31"/>
       <use xlink:href="#DejaVuSans-30" x="63.623047"/>
       <use xlink:href="#DejaVuSans-68" x="127.246094"/>
      </g>
     </g>
    </g>
    <g id="xtick_7">
     <g id="line2d_7">
      <g>
       <use xlink:href="#m274dfa916c" x="393.442411" y="288.430125" style="stroke: #000000; stroke-width: 0.8"/>
      </g>
     </g>
     <g id="text_7">
      <!-- 12h -->
      <g transform="translate(383.911161 303.028562) scale(0.1 -0.1)">
       <use xlink:href="#DejaVuSans-31"/>
       <use xlink:href="#DejaVuSans-32" x="63.623047"/>
       <use xlink:href="#DejaVuSans-68" x="127.246094"/>
      </g>
     </g>
    </g>
    <g id="xtick_8">
     <g id="line2d_8">
      <g>
       <use xlink:href="#m274dfa916c" x="450.128125" y="288.430125" style="stroke: #000000; stroke-width: 0.8"/>
      </g>
     </g>
     <g id="text_8">
      <!-- 14h -->
      <g transform="translate(440.596875 303.028562) scale(0.1 -0.1)">
       <use xlink:href="#DejaVuSans-31"/>
       <use xlink:href="#DejaVuSans-34" x="63.623047"/>
       <use xlink:href="#DejaVuSans-68" x="127.246094"/>
      </g>
     </g>
    </g>
    <g id="xtick_9">
     <g id="line2d_9">
      <g>
       <use xlink:href="#m274dfa916c" x="506.813839" y="288.430125" style="stroke: #000000; stroke-width: 0.8"/>
      </g>
     </g>
     <g id="text_9">
      <!-- 16h -->
      <g transform="translate(497.282589 303.028562) scale(0.1 -0.1)">
       <use xlink:href="#DejaVuSans-31"/>
       <use xlink:href="#DejaVuSans-36" x="63.623047"/>
       <use xlink:href="#DejaVuSans-68" x="127.246094"/>
      </g>
     </g>
    </g>
    <g id="xtick_10">
     <g id="line2d_10">
      <g>
       <use xlink:href="#m274dfa916c" x="563.499554" y="288.430125" style="stroke: #000000; stroke-width: 0.8"/>
      </g>
     </g>
     <g id="text_10">
      <!-- 18h -->
      <g transform="translate(553.968304 303.028562) scale(0.1 -0.1)">
       <use xlink:href="#DejaVuSans-31"/>
       <use xlink:href="#DejaVuSans-38" x="63.623047"/>
       <use xlink:href="#DejaVuSans-68" x="127.246094"/>
      </g>
     </g>
    </g>
    <g id="xtick_11">
     <g id="line2d_11">
      <g>
       <use xlink:href="#m274dfa916c" x="620.185268" y="288.430125" style="stroke: #000000; stroke-width: 0.8"/>
      </g>
     </g>
     <g id="text_11">
      <!-- 20h -->
      <g transform="translate(610.654018 303.028562) scale(0.1 -0.1)">
       <use xlink:href="#DejaVuSans-32"/>
       <use xlink:href="#DejaVuSans-30" x="63.623047"/>
       <use xlink:href="#DejaVuSans-68" x="127.246094"/>
      </g>
     </g>
    </g>
    <g id="xtick_12">
     <g id="line2d_12">
      <g>
       <use xlink:href="#m274dfa916c" x="676.870982" y="288.430125" style="stroke: #000000; stroke-width: 0.8"/>
      </g>
     </g>
     <g id="text_12">
      <!-- 22h -->
      <g transform="translate(667.339732 303.028562) scale(0.1 -0.1)">
       <use xlink:href="#DejaVuSans-32"/>
       <use xlink:href="#DejaVuSans-32" x="63.623047"/>
       <use xlink:href="#DejaVuSans-68" x="127.246094"/>
      </g>
     </g>
    </g>
    <g id="xtick_13">
     <g id="line2d_13">
      <g>
       <use xlink:href="#m274dfa916c" x="733.556696" y="288.430125" style="stroke: #000000; stroke-width: 0.8"/>
      </g>
     </g>
     <g id="text_13">
      <!-- 24h -->
      <g transform="translate(724.025446 303.028562) scale(0.1 -0.1)">
       <use xlink:href="#DejaVuSans-32"/>
       <use xlink:href="#DejaVuSans-34" x="63.623047"/>
       <use xlink:href="#DejaVuSans-68" x="127.246094"/>
      </g>
     </g>
    </g>
    <g id="text_14">
     <!-- Time (hour:minute) -->
     <g transform="translate(362.041094 316.706687) scale(0.1 -0.1)">
      <defs>
       <path id="DejaVuSans-54" d="M -19 4666 
L 3928 4666 
L 3928 4134 
L 2272 4134 
L 2272 0 
L 1638 0 
L 1638 4134 
L -19 4134 
L -19 4666 
z
" transform="scale(0.015625)"/>
       <path id="DejaVuSans-69" d="M 603 3500 
L 1178 3500 
L 1178 0 
L 603 0 
L 603 3500 
z
M 603 4863 
L 1178 4863 
L 1178 4134 
L 603 4134 
L 603 4863 
z
" transform="scale(0.015625)"/>
       <path id="DejaVuSans-65" d="M 3597 1894 
L 3597 1613 
L 953 1613 
Q 991 1019 1311 708 
Q 1631 397 2203 397 
Q 2534 397 2845 478 
Q 3156 559 3463 722 
L 3463 178 
Q 3153 47 2828 -22 
Q 2503 -91 2169 -91 
Q 1331 -91 842 396 
Q 353 884 353 1716 
Q 353 2575 817 3079 
Q 1281 3584 2069 3584 
Q 2775 3584 3186 3129 
Q 3597 2675 3597 1894 
z
M 3022 2063 
Q 3016 2534 2758 2815 
Q 2500 3097 2075 3097 
Q 1594 3097 1305 2825 
Q 1016 2553 972 2059 
L 3022 2063 
z
" transform="scale(0.015625)"/>
       <path id="DejaVuSans-20" transform="scale(0.015625)"/>
       <path id="DejaVuSans-28" d="M 1984 4856 
Q 1566 4138 1362 3434 
Q 1159 2731 1159 2009 
Q 1159 1288 1364 580 
Q 1569 -128 1984 -844 
L 1484 -844 
Q 1016 -109 783 600 
Q 550 1309 550 2009 
Q 550 2706 781 3412 
Q 1013 4119 1484 4856 
L 1984 4856 
z
" transform="scale(0.015625)"/>
       <path id="DejaVuSans-6f" d="M 1959 3097 
Q 1497 3097 1228 2736 
Q 959 2375 959 1747 
Q 959 1119 1226 758 
Q 1494 397 1959 397 
Q 2419 397 2687 759 
Q 2956 1122 2956 1747 
Q 2956 2369 2687 2733 
Q 2419 3097 1959 3097 
z
M 1959 3584 
Q 2709 3584 3137 3096 
Q 3566 2609 3566 1747 
Q 3566 888 3137 398 
Q 2709 -91 1959 -91 
Q 1206 -91 779 398 
Q 353 888 353 1747 
Q 353 2609 779 3096 
Q 1206 3584 1959 3584 
z
" transform="scale(0.015625)"/>
       <path id="DejaVuSans-75" d="M 544 1381 
L 544 3500 
L 1119 3500 
L 1119 1403 
Q 1119 906 1312 657 
Q 1506 409 1894 409 
Q 2359 409 2629 706 
Q 2900 1003 2900 1516 
L 2900 3500 
L 3475 3500 
L 3475 0 
L 2900 0 
L 2900 538 
Q 2691 219 2414 64 
Q 2138 -91 1772 -91 
Q 1169 -91 856 284 
Q 544 659 544 1381 
z
M 1991 3584 
L 1991 3584 
z
" transform="scale(0.015625)"/>
       <path id="DejaVuSans-72" d="M 2631 2963 
Q 2534 3019 2420 3045 
Q 2306 3072 2169 3072 
Q 1681 3072 1420 2755 
Q 1159 2438 1159 1844 
L 1159 0 
L 581 0 
L 581 3500 
L 1159 3500 
L 1159 2956 
Q 1341 3275 1631 3429 
Q 1922 3584 2338 3584 
Q 2397 3584 2469 3576 
Q 2541 3569 2628 3553 
L 2631 2963 
z
" transform="scale(0.015625)"/>
       <path id="DejaVuSans-3a" d="M 750 794 
L 1409 794 
L 1409 0 
L 750 0 
L 750 794 
z
M 750 3309 
L 1409 3309 
L 1409 2516 
L 750 2516 
L 750 3309 
z
" transform="scale(0.015625)"/>
       <path id="DejaVuSans-6e" d="M 3513 2113 
L 3513 0 
L 2938 0 
L 2938 2094 
Q 2938 2591 2744 2837 
Q 2550 3084 2163 3084 
Q 1697 3084 1428 2787 
Q 1159 2491 1159 1978 
L 1159 0 
L 581 0 
L 581 3500 
L 1159 3500 
L 1159 2956 
Q 1366 3272 1645 3428 
Q 1925 3584 2291 3584 
Q 2894 3584 3203 3211 
Q 3513 2838 3513 2113 
z
" transform="scale(0.015625)"/>
       <path id="DejaVuSans-74" d="M 1172 4494 
L 1172 3500 
L 2356 3500 
L 2356 3053 
L 1172 3053 
L 1172 1153 
Q 1172 725 1289 603 
Q 1406 481 1766 481 
L 2356 481 
L 2356 0 
L 1766 0 
Q 1100 0 847 248 
Q 594 497 594 1153 
L 594 3053 
L 172 3053 
L 172 3500 
L 594 3500 
L 594 4494 
L 1172 4494 
z
" transform="scale(0.015625)"/>
       <path id="DejaVuSans-29" d="M 513 4856 
L 1013 4856 
Q 1481 4119 1714 3412 
Q 1947 2706 1947 2009 
Q 1947 1309 1714 600 
Q 1481 -109 1013 -844 
L 513 -844 
Q 928 -128 1133 580 
Q 1338 1288 1338 2009 
Q 1338 2731 1133 3434 
Q 928 4138 513 4856 
z
" transform="scale(0.015625)"/>
      </defs>
      <use xlink:href="#DejaVuSans-54"/>
      <use xlink:href="#DejaVuSans-69" x="57.958984"/>
      <use xlink:href="#DejaVuSans-6d" x="85.742188"/>
      <use xlink:href="#DejaVuSans-65" x="183.154297"/>
      <use xlink:href="#DejaVuSans-20" x="244.677734"/>
      <use xlink:href="#DejaVuSans-28" x="276.464844"/>
      <use xlink:href="#DejaVuSans-68" x="315.478516"/>
      <use xlink:href="#DejaVuSans-6f" x="378.857422"/>
      <use xlink:href="#DejaVuSans-75" x="440.039062"/>
      <use xlink:href="#DejaVuSans-72" x="503.417969"/>
      <use xlink:href="#DejaVuSans-3a" x="542.78125"/>
      <use xlink:href="#DejaVuSans-6d" x="576.472656"/>
      <use xlink:href="#DejaVuSans-69" x="673.884766"/>
      <use xlink:href="#DejaVuSans-6e" x="701.667969"/>
      <use xlink:href="#DejaVuSans-75" x="765.046875"/>
      <use xlink:href="#DejaVuSans-74" x="828.425781"/>
      <use xlink:href="#DejaVuSans-65" x="867.634766"/>
      <use xlink:href="#DejaVuSans-29" x="929.158203"/>
     </g>
    </g>
   </g>
   <g id="matplotlib.axis_2">
    <g id="ytick_1">
     <g id="line2d_14">
      <defs>
       <path id="mc9cbf71cb1" d="M 0 0 
L -3.5 0 
" style="stroke: #000000; stroke-width: 0.8"/>
      </defs>
      <g>
       <use xlink:href="#mc9cbf71cb1" x="53.328125" y="251.259883" style="stroke: #000000; stroke-width: 0.8"/>
      </g>
     </g>
     <g id="text_15">
      <!-- 2850 -->
      <g transform="translate(20.878125 255.059102) scale(0.1 -0.1)">
       <defs>
        <path id="DejaVuSans-35" d="M 691 4666 
L 3169 4666 
L 3169 4134 
L 1269 4134 
L 1269 2991 
Q 1406 3038 1543 3061 
Q 1681 3084 1819 3084 
Q 2600 3084 3056 2656 
Q 3513 2228 3513 1497 
Q 3513 744 3044 326 
Q 2575 -91 1722 -91 
Q 1428 -91 1123 -41 
Q 819 9 494 109 
L 494 744 
Q 775 591 1075 516 
Q 1375 441 1709 441 
Q 2250 441 2565 725 
Q 2881 1009 2881 1497 
Q 2881 1984 2565 2268 
Q 2250 2553 1709 2553 
Q 1456 2553 1204 2497 
Q 953 2441 691 2322 
L 691 4666 
z
" transform="scale(0.015625)"/>
       </defs>
       <use xlink:href="#DejaVuSans-32"/>
       <use xlink:href="#DejaVuSans-38" x="63.623047"/>
       <use xlink:href="#DejaVuSans-35" x="127.246094"/>
       <use xlink:href="#DejaVuSans-30" x="190.869141"/>
      </g>
     </g>
    </g>
    <g id="ytick_2">
     <g id="line2d_15">
      <g>
       <use xlink:href="#mc9cbf71cb1" x="53.328125" y="204.826102" style="stroke: #000000; stroke-width: 0.8"/>
      </g>
     </g>
     <g id="text_16">
      <!-- 2900 -->
      <g transform="translate(20.878125 208.625321) scale(0.1 -0.1)">
       <defs>
        <path id="DejaVuSans-39" d="M 703 97 
L 703 672 
Q 941 559 1184 500 
Q 1428 441 1663 441 
Q 2288 441 2617 861 
Q 2947 1281 2994 2138 
Q 2813 1869 2534 1725 
Q 2256 1581 1919 1581 
Q 1219 1581 811 2004 
Q 403 2428 403 3163 
Q 403 3881 828 4315 
Q 1253 4750 1959 4750 
Q 2769 4750 3195 4129 
Q 3622 3509 3622 2328 
Q 3622 1225 3098 567 
Q 2575 -91 1691 -91 
Q 1453 -91 1209 -44 
Q 966 3 703 97 
z
M 1959 2075 
Q 2384 2075 2632 2365 
Q 2881 2656 2881 3163 
Q 2881 3666 2632 3958 
Q 2384 4250 1959 4250 
Q 1534 4250 1286 3958 
Q 1038 3666 1038 3163 
Q 1038 2656 1286 2365 
Q 1534 2075 1959 2075 
z
" transform="scale(0.015625)"/>
       </defs>
       <use xlink:href="#DejaVuSans-32"/>
       <use xlink:href="#DejaVuSans-39" x="63.623047"/>
       <use xlink:href="#DejaVuSans-30" x="127.246094"/>
       <use xlink:href="#DejaVuSans-30" x="190.869141"/>
      </g>
     </g>
    </g>
    <g id="ytick_3">
     <g id="line2d_16">
      <g>
       <use xlink:href="#mc9cbf71cb1" x="53.328125" y="158.392321" style="stroke: #000000; stroke-width: 0.8"/>
      </g>
     </g>
     <g id="text_17">
      <!-- 2950 -->
      <g transform="translate(20.878125 162.19154) scale(0.1 -0.1)">
       <use xlink:href="#DejaVuSans-32"/>
       <use xlink:href="#DejaVuSans-39" x="63.623047"/>
       <use xlink:href="#DejaVuSans-35" x="127.246094"/>
       <use xlink:href="#DejaVuSans-30" x="190.869141"/>
      </g>
     </g>
    </g>
    <g id="ytick_4">
     <g id="line2d_17">
      <g>
       <use xlink:href="#mc9cbf71cb1" x="53.328125" y="111.95854" style="stroke: #000000; stroke-width: 0.8"/>
      </g>
     </g>
     <g id="text_18">
      <!-- 3000 -->
      <g transform="translate(20.878125 115.757758) scale(0.1 -0.1)">
       <defs>
        <path id="DejaVuSans-33" d="M 2597 2516 
Q 3050 2419 3304 2112 
Q 3559 1806 3559 1356 
Q 3559 666 3084 287 
Q 2609 -91 1734 -91 
Q 1441 -91 1130 -33 
Q 819 25 488 141 
L 488 750 
Q 750 597 1062 519 
Q 1375 441 1716 441 
Q 2309 441 2620 675 
Q 2931 909 2931 1356 
Q 2931 1769 2642 2001 
Q 2353 2234 1838 2234 
L 1294 2234 
L 1294 2753 
L 1863 2753 
Q 2328 2753 2575 2939 
Q 2822 3125 2822 3475 
Q 2822 3834 2567 4026 
Q 2313 4219 1838 4219 
Q 1578 4219 1281 4162 
Q 984 4106 628 3988 
L 628 4550 
Q 988 4650 1302 4700 
Q 1616 4750 1894 4750 
Q 2613 4750 3031 4423 
Q 3450 4097 3450 3541 
Q 3450 3153 3228 2886 
Q 3006 2619 2597 2516 
z
" transform="scale(0.015625)"/>
       </defs>
       <use xlink:href="#DejaVuSans-33"/>
       <use xlink:href="#DejaVuSans-30" x="63.623047"/>
       <use xlink:href="#DejaVuSans-30" x="127.246094"/>
       <use xlink:href="#DejaVuSans-30" x="190.869141"/>
      </g>
     </g>
    </g>
    <g id="ytick_5">
     <g id="line2d_18">
      <g>
       <use xlink:href="#mc9cbf71cb1" x="53.328125" y="65.524758" style="stroke: #000000; stroke-width: 0.8"/>
      </g>
     </g>
     <g id="text_19">
      <!-- 3050 -->
      <g transform="translate(20.878125 69.323977) scale(0.1 -0.1)">
       <use xlink:href="#DejaVuSans-33"/>
       <use xlink:href="#DejaVuSans-30" x="63.623047"/>
       <use xlink:href="#DejaVuSans-35" x="127.246094"/>
       <use xlink:href="#DejaVuSans-30" x="190.869141"/>
      </g>
     </g>
    </g>
    <g id="text_20">
     <!-- Code branch coverage -->
     <g transform="translate(14.798438 211.949125) rotate(-90) scale(0.1 -0.1)">
      <defs>
       <path id="DejaVuSans-43" d="M 4122 4306 
L 4122 3641 
Q 3803 3938 3442 4084 
Q 3081 4231 2675 4231 
Q 1875 4231 1450 3742 
Q 1025 3253 1025 2328 
Q 1025 1406 1450 917 
Q 1875 428 2675 428 
Q 3081 428 3442 575 
Q 3803 722 4122 1019 
L 4122 359 
Q 3791 134 3420 21 
Q 3050 -91 2638 -91 
Q 1578 -91 968 557 
Q 359 1206 359 2328 
Q 359 3453 968 4101 
Q 1578 4750 2638 4750 
Q 3056 4750 3426 4639 
Q 3797 4528 4122 4306 
z
" transform="scale(0.015625)"/>
       <path id="DejaVuSans-64" d="M 2906 2969 
L 2906 4863 
L 3481 4863 
L 3481 0 
L 2906 0 
L 2906 525 
Q 2725 213 2448 61 
Q 2172 -91 1784 -91 
Q 1150 -91 751 415 
Q 353 922 353 1747 
Q 353 2572 751 3078 
Q 1150 3584 1784 3584 
Q 2172 3584 2448 3432 
Q 2725 3281 2906 2969 
z
M 947 1747 
Q 947 1113 1208 752 
Q 1469 391 1925 391 
Q 2381 391 2643 752 
Q 2906 1113 2906 1747 
Q 2906 2381 2643 2742 
Q 2381 3103 1925 3103 
Q 1469 3103 1208 2742 
Q 947 2381 947 1747 
z
" transform="scale(0.015625)"/>
       <path id="DejaVuSans-62" d="M 3116 1747 
Q 3116 2381 2855 2742 
Q 2594 3103 2138 3103 
Q 1681 3103 1420 2742 
Q 1159 2381 1159 1747 
Q 1159 1113 1420 752 
Q 1681 391 2138 391 
Q 2594 391 2855 752 
Q 3116 1113 3116 1747 
z
M 1159 2969 
Q 1341 3281 1617 3432 
Q 1894 3584 2278 3584 
Q 2916 3584 3314 3078 
Q 3713 2572 3713 1747 
Q 3713 922 3314 415 
Q 2916 -91 2278 -91 
Q 1894 -91 1617 61 
Q 1341 213 1159 525 
L 1159 0 
L 581 0 
L 581 4863 
L 1159 4863 
L 1159 2969 
z
" transform="scale(0.015625)"/>
       <path id="DejaVuSans-61" d="M 2194 1759 
Q 1497 1759 1228 1600 
Q 959 1441 959 1056 
Q 959 750 1161 570 
Q 1363 391 1709 391 
Q 2188 391 2477 730 
Q 2766 1069 2766 1631 
L 2766 1759 
L 2194 1759 
z
M 3341 1997 
L 3341 0 
L 2766 0 
L 2766 531 
Q 2569 213 2275 61 
Q 1981 -91 1556 -91 
Q 1019 -91 701 211 
Q 384 513 384 1019 
Q 384 1609 779 1909 
Q 1175 2209 1959 2209 
L 2766 2209 
L 2766 2266 
Q 2766 2663 2505 2880 
Q 2244 3097 1772 3097 
Q 1472 3097 1187 3025 
Q 903 2953 641 2809 
L 641 3341 
Q 956 3463 1253 3523 
Q 1550 3584 1831 3584 
Q 2591 3584 2966 3190 
Q 3341 2797 3341 1997 
z
" transform="scale(0.015625)"/>
       <path id="DejaVuSans-63" d="M 3122 3366 
L 3122 2828 
Q 2878 2963 2633 3030 
Q 2388 3097 2138 3097 
Q 1578 3097 1268 2742 
Q 959 2388 959 1747 
Q 959 1106 1268 751 
Q 1578 397 2138 397 
Q 2388 397 2633 464 
Q 2878 531 3122 666 
L 3122 134 
Q 2881 22 2623 -34 
Q 2366 -91 2075 -91 
Q 1284 -91 818 406 
Q 353 903 353 1747 
Q 353 2603 823 3093 
Q 1294 3584 2113 3584 
Q 2378 3584 2631 3529 
Q 2884 3475 3122 3366 
z
" transform="scale(0.015625)"/>
       <path id="DejaVuSans-76" d="M 191 3500 
L 800 3500 
L 1894 563 
L 2988 3500 
L 3597 3500 
L 2284 0 
L 1503 0 
L 191 3500 
z
" transform="scale(0.015625)"/>
       <path id="DejaVuSans-67" d="M 2906 1791 
Q 2906 2416 2648 2759 
Q 2391 3103 1925 3103 
Q 1463 3103 1205 2759 
Q 947 2416 947 1791 
Q 947 1169 1205 825 
Q 1463 481 1925 481 
Q 2391 481 2648 825 
Q 2906 1169 2906 1791 
z
M 3481 434 
Q 3481 -459 3084 -895 
Q 2688 -1331 1869 -1331 
Q 1566 -1331 1297 -1286 
Q 1028 -1241 775 -1147 
L 775 -588 
Q 1028 -725 1275 -790 
Q 1522 -856 1778 -856 
Q 2344 -856 2625 -561 
Q 2906 -266 2906 331 
L 2906 616 
Q 2728 306 2450 153 
Q 2172 0 1784 0 
Q 1141 0 747 490 
Q 353 981 353 1791 
Q 353 2603 747 3093 
Q 1141 3584 1784 3584 
Q 2172 3584 2450 3431 
Q 2728 3278 2906 2969 
L 2906 3500 
L 3481 3500 
L 3481 434 
z
" transform="scale(0.015625)"/>
      </defs>
      <use xlink:href="#DejaVuSans-43"/>
      <use xlink:href="#DejaVuSans-6f" x="69.824219"/>
      <use xlink:href="#DejaVuSans-64" x="131.005859"/>
      <use xlink:href="#DejaVuSans-65" x="194.482422"/>
      <use xlink:href="#DejaVuSans-20" x="256.005859"/>
      <use xlink:href="#DejaVuSans-62" x="287.792969"/>
      <use xlink:href="#DejaVuSans-72" x="351.269531"/>
      <use xlink:href="#DejaVuSans-61" x="392.382812"/>
      <use xlink:href="#DejaVuSans-6e" x="453.662109"/>
      <use xlink:href="#DejaVuSans-63" x="517.041016"/>
      <use xlink:href="#DejaVuSans-68" x="572.021484"/>
      <use xlink:href="#DejaVuSans-20" x="635.400391"/>
      <use xlink:href="#DejaVuSans-63" x="667.1875"/>
      <use xlink:href="#DejaVuSans-6f" x="722.167969"/>
      <use xlink:href="#DejaVuSans-76" x="783.349609"/>
      <use xlink:href="#DejaVuSans-65" x="842.529297"/>
      <use xlink:href="#DejaVuSans-72" x="904.052734"/>
      <use xlink:href="#DejaVuSans-61" x="945.166016"/>
      <use xlink:href="#DejaVuSans-67" x="1006.445312"/>
      <use xlink:href="#DejaVuSans-65" x="1069.921875"/>
     </g>
    </g>
   </g>
   <g id="line2d_19">
    <path d="M 53.328125 276.334125 
L 60.413839 184.859576 
L 67.499554 160.71401 
L 74.585268 150.498578 
L 81.670982 142.140497 
L 88.756696 142.140497 
L 95.842411 141.67616 
L 102.928125 139.818808 
L 110.013839 138.890133 
L 117.099554 138.425795 
L 124.185268 137.497119 
L 131.270982 137.032781 
L 138.356696 134.711092 
L 145.442411 133.782417 
L 152.528125 133.318079 
L 159.613839 117.994931 
L 166.699554 117.994931 
L 173.785268 104.993472 
L 180.870982 100.814432 
L 187.956696 100.350094 
L 195.042411 100.350094 
L 202.128125 100.350094 
L 209.213839 100.350094 
L 216.299554 99.885756 
L 223.385268 99.421419 
L 230.470982 96.635392 
L 237.556696 96.635392 
L 244.642411 96.635392 
L 251.728125 96.635392 
L 258.813839 96.635392 
L 265.899554 96.635392 
L 272.985268 96.635392 
L 280.070982 96.171054 
L 287.156696 96.171054 
L 294.242411 95.706716 
L 301.328125 95.706716 
L 308.413839 95.706716 
L 315.499554 95.706716 
L 322.585268 95.706716 
L 329.670982 83.633933 
L 336.756696 83.169595 
L 343.842411 83.169595 
L 350.928125 65.060421 
L 358.013839 60.417042 
L 365.099554 60.417042 
L 372.185268 60.417042 
L 379.270982 47.879922 
L 386.356696 47.879922 
L 393.442411 47.879922 
L 400.528125 47.879922 
L 407.613839 43.236543 
L 414.699554 43.236543 
L 421.785268 43.236543 
L 428.870982 43.236543 
L 435.956696 43.236543 
L 443.042411 43.236543 
L 450.128125 43.236543 
L 457.213839 43.236543 
L 464.299554 43.236543 
L 471.385268 43.236543 
L 478.470982 43.236543 
L 485.556696 43.236543 
L 492.642411 43.236543 
L 499.728125 43.236543 
L 506.813839 43.236543 
L 513.899554 43.236543 
L 520.985268 42.772206 
L 528.070982 42.772206 
L 535.156696 42.772206 
L 542.242411 42.772206 
L 549.328125 42.772206 
L 556.413839 42.772206 
L 563.499554 42.772206 
L 570.585268 36.271476 
L 577.670982 36.271476 
L 584.756696 36.271476 
L 591.842411 36.271476 
L 598.928125 36.271476 
L 606.013839 36.271476 
L 613.099554 36.271476 
L 620.185268 36.271476 
L 627.270982 36.271476 
L 634.356696 36.271476 
L 641.442411 36.271476 
L 648.528125 36.271476 
L 655.613839 36.271476 
L 662.699554 36.271476 
L 669.785268 36.271476 
L 676.870982 36.271476 
L 683.956696 36.271476 
L 691.042411 36.271476 
L 698.128125 36.271476 
L 705.213839 36.271476 
L 712.299554 36.271476 
L 719.385268 36.271476 
L 726.470982 36.271476 
L 733.556696 36.271476 
" clip-path="url(#p5a34aaf453)" style="fill: none; stroke: #1f77b4; stroke-width: 1.5; stroke-linecap: square"/>
    <defs>
     <path id="m89e1a277c5" d="M 0 3 
C 0.795609 3 1.55874 2.683901 2.12132 2.12132 
C 2.683901 1.55874 3 0.795609 3 0 
C 3 -0.795609 2.683901 -1.55874 2.12132 -2.12132 
C 1.55874 -2.683901 0.795609 -3 0 -3 
C -0.795609 -3 -1.55874 -2.683901 -2.12132 -2.12132 
C -2.683901 -1.55874 -3 -0.795609 -3 0 
C -3 0.795609 -2.683901 1.55874 -2.12132 2.12132 
C -1.55874 2.683901 -0.795609 3 0 3 
z
" style="stroke: #ffffff; stroke-width: 0.75"/>
    </defs>
    <g clip-path="url(#p5a34aaf453)">
     <use xlink:href="#m89e1a277c5" x="53.328125" y="276.334125" style="fill: #1f77b4; stroke: #ffffff; stroke-width: 0.75"/>
     <use xlink:href="#m89e1a277c5" x="60.413839" y="184.859576" style="fill: #1f77b4; stroke: #ffffff; stroke-width: 0.75"/>
     <use xlink:href="#m89e1a277c5" x="67.499554" y="160.71401" style="fill: #1f77b4; stroke: #ffffff; stroke-width: 0.75"/>
     <use xlink:href="#m89e1a277c5" x="74.585268" y="150.498578" style="fill: #1f77b4; stroke: #ffffff; stroke-width: 0.75"/>
     <use xlink:href="#m89e1a277c5" x="81.670982" y="142.140497" style="fill: #1f77b4; stroke: #ffffff; stroke-width: 0.75"/>
     <use xlink:href="#m89e1a277c5" x="88.756696" y="142.140497" style="fill: #1f77b4; stroke: #ffffff; stroke-width: 0.75"/>
     <use xlink:href="#m89e1a277c5" x="95.842411" y="141.67616" style="fill: #1f77b4; stroke: #ffffff; stroke-width: 0.75"/>
     <use xlink:href="#m89e1a277c5" x="102.928125" y="139.818808" style="fill: #1f77b4; stroke: #ffffff; stroke-width: 0.75"/>
     <use xlink:href="#m89e1a277c5" x="110.013839" y="138.890133" style="fill: #1f77b4; stroke: #ffffff; stroke-width: 0.75"/>
     <use xlink:href="#m89e1a277c5" x="117.099554" y="138.425795" style="fill: #1f77b4; stroke: #ffffff; stroke-width: 0.75"/>
     <use xlink:href="#m89e1a277c5" x="124.185268" y="137.497119" style="fill: #1f77b4; stroke: #ffffff; stroke-width: 0.75"/>
     <use xlink:href="#m89e1a277c5" x="131.270982" y="137.032781" style="fill: #1f77b4; stroke: #ffffff; stroke-width: 0.75"/>
     <use xlink:href="#m89e1a277c5" x="138.356696" y="134.711092" style="fill: #1f77b4; stroke: #ffffff; stroke-width: 0.75"/>
     <use xlink:href="#m89e1a277c5" x="145.442411" y="133.782417" style="fill: #1f77b4; stroke: #ffffff; stroke-width: 0.75"/>
     <use xlink:href="#m89e1a277c5" x="152.528125" y="133.318079" style="fill: #1f77b4; stroke: #ffffff; stroke-width: 0.75"/>
     <use xlink:href="#m89e1a277c5" x="159.613839" y="117.994931" style="fill: #1f77b4; stroke: #ffffff; stroke-width: 0.75"/>
     <use xlink:href="#m89e1a277c5" x="166.699554" y="117.994931" style="fill: #1f77b4; stroke: #ffffff; stroke-width: 0.75"/>
     <use xlink:href="#m89e1a277c5" x="173.785268" y="104.993472" style="fill: #1f77b4; stroke: #ffffff; stroke-width: 0.75"/>
     <use xlink:href="#m89e1a277c5" x="180.870982" y="100.814432" style="fill: #1f77b4; stroke: #ffffff; stroke-width: 0.75"/>
     <use xlink:href="#m89e1a277c5" x="187.956696" y="100.350094" style="fill: #1f77b4; stroke: #ffffff; stroke-width: 0.75"/>
     <use xlink:href="#m89e1a277c5" x="195.042411" y="100.350094" style="fill: #1f77b4; stroke: #ffffff; stroke-width: 0.75"/>
     <use xlink:href="#m89e1a277c5" x="202.128125" y="100.350094" style="fill: #1f77b4; stroke: #ffffff; stroke-width: 0.75"/>
     <use xlink:href="#m89e1a277c5" x="209.213839" y="100.350094" style="fill: #1f77b4; stroke: #ffffff; stroke-width: 0.75"/>
     <use xlink:href="#m89e1a277c5" x="216.299554" y="99.885756" style="fill: #1f77b4; stroke: #ffffff; stroke-width: 0.75"/>
     <use xlink:href="#m89e1a277c5" x="223.385268" y="99.421419" style="fill: #1f77b4; stroke: #ffffff; stroke-width: 0.75"/>
     <use xlink:href="#m89e1a277c5" x="230.470982" y="96.635392" style="fill: #1f77b4; stroke: #ffffff; stroke-width: 0.75"/>
     <use xlink:href="#m89e1a277c5" x="237.556696" y="96.635392" style="fill: #1f77b4; stroke: #ffffff; stroke-width: 0.75"/>
     <use xlink:href="#m89e1a277c5" x="244.642411" y="96.635392" style="fill: #1f77b4; stroke: #ffffff; stroke-width: 0.75"/>
     <use xlink:href="#m89e1a277c5" x="251.728125" y="96.635392" style="fill: #1f77b4; stroke: #ffffff; stroke-width: 0.75"/>
     <use xlink:href="#m89e1a277c5" x="258.813839" y="96.635392" style="fill: #1f77b4; stroke: #ffffff; stroke-width: 0.75"/>
     <use xlink:href="#m89e1a277c5" x="265.899554" y="96.635392" style="fill: #1f77b4; stroke: #ffffff; stroke-width: 0.75"/>
     <use xlink:href="#m89e1a277c5" x="272.985268" y="96.635392" style="fill: #1f77b4; stroke: #ffffff; stroke-width: 0.75"/>
     <use xlink:href="#m89e1a277c5" x="280.070982" y="96.171054" style="fill: #1f77b4; stroke: #ffffff; stroke-width: 0.75"/>
     <use xlink:href="#m89e1a277c5" x="287.156696" y="96.171054" style="fill: #1f77b4; stroke: #ffffff; stroke-width: 0.75"/>
     <use xlink:href="#m89e1a277c5" x="294.242411" y="95.706716" style="fill: #1f77b4; stroke: #ffffff; stroke-width: 0.75"/>
     <use xlink:href="#m89e1a277c5" x="301.328125" y="95.706716" style="fill: #1f77b4; stroke: #ffffff; stroke-width: 0.75"/>
     <use xlink:href="#m89e1a277c5" x="308.413839" y="95.706716" style="fill: #1f77b4; stroke: #ffffff; stroke-width: 0.75"/>
     <use xlink:href="#m89e1a277c5" x="315.499554" y="95.706716" style="fill: #1f77b4; stroke: #ffffff; stroke-width: 0.75"/>
     <use xlink:href="#m89e1a277c5" x="322.585268" y="95.706716" style="fill: #1f77b4; stroke: #ffffff; stroke-width: 0.75"/>
     <use xlink:href="#m89e1a277c5" x="329.670982" y="83.633933" style="fill: #1f77b4; stroke: #ffffff; stroke-width: 0.75"/>
     <use xlink:href="#m89e1a277c5" x="336.756696" y="83.169595" style="fill: #1f77b4; stroke: #ffffff; stroke-width: 0.75"/>
     <use xlink:href="#m89e1a277c5" x="343.842411" y="83.169595" style="fill: #1f77b4; stroke: #ffffff; stroke-width: 0.75"/>
     <use xlink:href="#m89e1a277c5" x="350.928125" y="65.060421" style="fill: #1f77b4; stroke: #ffffff; stroke-width: 0.75"/>
     <use xlink:href="#m89e1a277c5" x="358.013839" y="60.417042" style="fill: #1f77b4; stroke: #ffffff; stroke-width: 0.75"/>
     <use xlink:href="#m89e1a277c5" x="365.099554" y="60.417042" style="fill: #1f77b4; stroke: #ffffff; stroke-width: 0.75"/>
     <use xlink:href="#m89e1a277c5" x="372.185268" y="60.417042" style="fill: #1f77b4; stroke: #ffffff; stroke-width: 0.75"/>
     <use xlink:href="#m89e1a277c5" x="379.270982" y="47.879922" style="fill: #1f77b4; stroke: #ffffff; stroke-width: 0.75"/>
     <use xlink:href="#m89e1a277c5" x="386.356696" y="47.879922" style="fill: #1f77b4; stroke: #ffffff; stroke-width: 0.75"/>
     <use xlink:href="#m89e1a277c5" x="393.442411" y="47.879922" style="fill: #1f77b4; stroke: #ffffff; stroke-width: 0.75"/>
     <use xlink:href="#m89e1a277c5" x="400.528125" y="47.879922" style="fill: #1f77b4; stroke: #ffffff; stroke-width: 0.75"/>
     <use xlink:href="#m89e1a277c5" x="407.613839" y="43.236543" style="fill: #1f77b4; stroke: #ffffff; stroke-width: 0.75"/>
     <use xlink:href="#m89e1a277c5" x="414.699554" y="43.236543" style="fill: #1f77b4; stroke: #ffffff; stroke-width: 0.75"/>
     <use xlink:href="#m89e1a277c5" x="421.785268" y="43.236543" style="fill: #1f77b4; stroke: #ffffff; stroke-width: 0.75"/>
     <use xlink:href="#m89e1a277c5" x="428.870982" y="43.236543" style="fill: #1f77b4; stroke: #ffffff; stroke-width: 0.75"/>
     <use xlink:href="#m89e1a277c5" x="435.956696" y="43.236543" style="fill: #1f77b4; stroke: #ffffff; stroke-width: 0.75"/>
     <use xlink:href="#m89e1a277c5" x="443.042411" y="43.236543" style="fill: #1f77b4; stroke: #ffffff; stroke-width: 0.75"/>
     <use xlink:href="#m89e1a277c5" x="450.128125" y="43.236543" style="fill: #1f77b4; stroke: #ffffff; stroke-width: 0.75"/>
     <use xlink:href="#m89e1a277c5" x="457.213839" y="43.236543" style="fill: #1f77b4; stroke: #ffffff; stroke-width: 0.75"/>
     <use xlink:href="#m89e1a277c5" x="464.299554" y="43.236543" style="fill: #1f77b4; stroke: #ffffff; stroke-width: 0.75"/>
     <use xlink:href="#m89e1a277c5" x="471.385268" y="43.236543" style="fill: #1f77b4; stroke: #ffffff; stroke-width: 0.75"/>
     <use xlink:href="#m89e1a277c5" x="478.470982" y="43.236543" style="fill: #1f77b4; stroke: #ffffff; stroke-width: 0.75"/>
     <use xlink:href="#m89e1a277c5" x="485.556696" y="43.236543" style="fill: #1f77b4; stroke: #ffffff; stroke-width: 0.75"/>
     <use xlink:href="#m89e1a277c5" x="492.642411" y="43.236543" style="fill: #1f77b4; stroke: #ffffff; stroke-width: 0.75"/>
     <use xlink:href="#m89e1a277c5" x="499.728125" y="43.236543" style="fill: #1f77b4; stroke: #ffffff; stroke-width: 0.75"/>
     <use xlink:href="#m89e1a277c5" x="506.813839" y="43.236543" style="fill: #1f77b4; stroke: #ffffff; stroke-width: 0.75"/>
     <use xlink:href="#m89e1a277c5" x="513.899554" y="43.236543" style="fill: #1f77b4; stroke: #ffffff; stroke-width: 0.75"/>
     <use xlink:href="#m89e1a277c5" x="520.985268" y="42.772206" style="fill: #1f77b4; stroke: #ffffff; stroke-width: 0.75"/>
     <use xlink:href="#m89e1a277c5" x="528.070982" y="42.772206" style="fill: #1f77b4; stroke: #ffffff; stroke-width: 0.75"/>
     <use xlink:href="#m89e1a277c5" x="535.156696" y="42.772206" style="fill: #1f77b4; stroke: #ffffff; stroke-width: 0.75"/>
     <use xlink:href="#m89e1a277c5" x="542.242411" y="42.772206" style="fill: #1f77b4; stroke: #ffffff; stroke-width: 0.75"/>
     <use xlink:href="#m89e1a277c5" x="549.328125" y="42.772206" style="fill: #1f77b4; stroke: #ffffff; stroke-width: 0.75"/>
     <use xlink:href="#m89e1a277c5" x="556.413839" y="42.772206" style="fill: #1f77b4; stroke: #ffffff; stroke-width: 0.75"/>
     <use xlink:href="#m89e1a277c5" x="563.499554" y="42.772206" style="fill: #1f77b4; stroke: #ffffff; stroke-width: 0.75"/>
     <use xlink:href="#m89e1a277c5" x="570.585268" y="36.271476" style="fill: #1f77b4; stroke: #ffffff; stroke-width: 0.75"/>
     <use xlink:href="#m89e1a277c5" x="577.670982" y="36.271476" style="fill: #1f77b4; stroke: #ffffff; stroke-width: 0.75"/>
     <use xlink:href="#m89e1a277c5" x="584.756696" y="36.271476" style="fill: #1f77b4; stroke: #ffffff; stroke-width: 0.75"/>
     <use xlink:href="#m89e1a277c5" x="591.842411" y="36.271476" style="fill: #1f77b4; stroke: #ffffff; stroke-width: 0.75"/>
     <use xlink:href="#m89e1a277c5" x="598.928125" y="36.271476" style="fill: #1f77b4; stroke: #ffffff; stroke-width: 0.75"/>
     <use xlink:href="#m89e1a277c5" x="606.013839" y="36.271476" style="fill: #1f77b4; stroke: #ffffff; stroke-width: 0.75"/>
     <use xlink:href="#m89e1a277c5" x="613.099554" y="36.271476" style="fill: #1f77b4; stroke: #ffffff; stroke-width: 0.75"/>
     <use xlink:href="#m89e1a277c5" x="620.185268" y="36.271476" style="fill: #1f77b4; stroke: #ffffff; stroke-width: 0.75"/>
     <use xlink:href="#m89e1a277c5" x="627.270982" y="36.271476" style="fill: #1f77b4; stroke: #ffffff; stroke-width: 0.75"/>
     <use xlink:href="#m89e1a277c5" x="634.356696" y="36.271476" style="fill: #1f77b4; stroke: #ffffff; stroke-width: 0.75"/>
     <use xlink:href="#m89e1a277c5" x="641.442411" y="36.271476" style="fill: #1f77b4; stroke: #ffffff; stroke-width: 0.75"/>
     <use xlink:href="#m89e1a277c5" x="648.528125" y="36.271476" style="fill: #1f77b4; stroke: #ffffff; stroke-width: 0.75"/>
     <use xlink:href="#m89e1a277c5" x="655.613839" y="36.271476" style="fill: #1f77b4; stroke: #ffffff; stroke-width: 0.75"/>
     <use xlink:href="#m89e1a277c5" x="662.699554" y="36.271476" style="fill: #1f77b4; stroke: #ffffff; stroke-width: 0.75"/>
     <use xlink:href="#m89e1a277c5" x="669.785268" y="36.271476" style="fill: #1f77b4; stroke: #ffffff; stroke-width: 0.75"/>
     <use xlink:href="#m89e1a277c5" x="676.870982" y="36.271476" style="fill: #1f77b4; stroke: #ffffff; stroke-width: 0.75"/>
     <use xlink:href="#m89e1a277c5" x="683.956696" y="36.271476" style="fill: #1f77b4; stroke: #ffffff; stroke-width: 0.75"/>
     <use xlink:href="#m89e1a277c5" x="691.042411" y="36.271476" style="fill: #1f77b4; stroke: #ffffff; stroke-width: 0.75"/>
     <use xlink:href="#m89e1a277c5" x="698.128125" y="36.271476" style="fill: #1f77b4; stroke: #ffffff; stroke-width: 0.75"/>
     <use xlink:href="#m89e1a277c5" x="705.213839" y="36.271476" style="fill: #1f77b4; stroke: #ffffff; stroke-width: 0.75"/>
     <use xlink:href="#m89e1a277c5" x="712.299554" y="36.271476" style="fill: #1f77b4; stroke: #ffffff; stroke-width: 0.75"/>
     <use xlink:href="#m89e1a277c5" x="719.385268" y="36.271476" style="fill: #1f77b4; stroke: #ffffff; stroke-width: 0.75"/>
     <use xlink:href="#m89e1a277c5" x="726.470982" y="36.271476" style="fill: #1f77b4; stroke: #ffffff; stroke-width: 0.75"/>
     <use xlink:href="#m89e1a277c5" x="733.556696" y="36.271476" style="fill: #1f77b4; stroke: #ffffff; stroke-width: 0.75"/>
    </g>
   </g>
   <g id="line2d_20">
    <path d="M 53.328125 276.334125 
L 60.413839 182.073549 
L 67.499554 154.677618 
L 74.585268 145.8552 
L 81.670982 142.140497 
L 88.756696 140.283146 
L 95.842411 138.425795 
L 102.928125 137.497119 
L 110.013839 137.032781 
L 117.099554 136.104106 
L 124.185268 136.104106 
L 131.270982 135.17543 
L 138.356696 134.711092 
L 145.442411 134.711092 
L 152.528125 134.246755 
L 159.613839 133.782417 
L 166.699554 133.318079 
L 173.785268 133.318079 
L 180.870982 133.318079 
L 187.956696 133.318079 
L 195.042411 132.389403 
L 202.128125 131.925065 
L 209.213839 116.601918 
L 216.299554 103.136121 
L 223.385268 103.136121 
L 230.470982 102.207446 
L 237.556696 102.207446 
L 244.642411 100.350094 
L 251.728125 98.492743 
L 258.813839 98.028405 
L 265.899554 97.564067 
L 272.985268 97.564067 
L 280.070982 97.564067 
L 287.156696 97.564067 
L 294.242411 97.09973 
L 301.328125 97.09973 
L 308.413839 97.09973 
L 315.499554 96.635392 
L 322.585268 96.635392 
L 329.670982 96.171054 
L 336.756696 96.171054 
L 343.842411 96.171054 
L 350.928125 96.171054 
L 358.013839 96.171054 
L 365.099554 96.171054 
L 372.185268 96.171054 
L 379.270982 96.171054 
L 386.356696 96.171054 
L 393.442411 96.171054 
L 400.528125 96.171054 
L 407.613839 96.171054 
L 414.699554 95.706716 
L 421.785268 95.706716 
L 428.870982 95.706716 
L 435.956696 95.706716 
L 443.042411 95.706716 
L 450.128125 95.706716 
L 457.213839 95.706716 
L 464.299554 95.706716 
L 471.385268 95.706716 
L 478.470982 95.706716 
L 485.556696 95.706716 
L 492.642411 95.706716 
L 499.728125 95.706716 
L 506.813839 95.706716 
L 513.899554 95.706716 
L 520.985268 95.706716 
L 528.070982 95.706716 
L 535.156696 95.706716 
L 542.242411 95.706716 
L 549.328125 95.706716 
L 556.413839 95.706716 
L 563.499554 95.706716 
L 570.585268 95.706716 
L 577.670982 95.706716 
L 584.756696 82.705257 
L 591.842411 82.705257 
L 598.928125 82.705257 
L 606.013839 82.705257 
L 613.099554 82.705257 
L 620.185268 82.705257 
L 627.270982 53.451975 
L 634.356696 53.451975 
L 641.442411 53.451975 
L 648.528125 53.451975 
L 655.613839 53.451975 
L 662.699554 52.5233 
L 669.785268 52.5233 
L 676.870982 52.5233 
L 683.956696 52.5233 
L 691.042411 52.5233 
L 698.128125 52.5233 
L 705.213839 52.5233 
L 712.299554 52.5233 
L 719.385268 52.5233 
L 726.470982 52.5233 
L 733.556696 52.5233 
" clip-path="url(#p5a34aaf453)" style="fill: none; stroke: #98df8a; stroke-width: 1.5; stroke-linecap: square"/>
    <defs>
     <path id="m3edca40ad4" d="M -0 3 
L 3 -3 
L -3 -3 
z
" style="stroke: #ffffff; stroke-width: 0.75; stroke-linejoin: miter"/>
    </defs>
    <g clip-path="url(#p5a34aaf453)">
     <use xlink:href="#m3edca40ad4" x="53.328125" y="276.334125" style="fill: #98df8a; stroke: #ffffff; stroke-width: 0.75; stroke-linejoin: miter"/>
     <use xlink:href="#m3edca40ad4" x="60.413839" y="182.073549" style="fill: #98df8a; stroke: #ffffff; stroke-width: 0.75; stroke-linejoin: miter"/>
     <use xlink:href="#m3edca40ad4" x="67.499554" y="154.677618" style="fill: #98df8a; stroke: #ffffff; stroke-width: 0.75; stroke-linejoin: miter"/>
     <use xlink:href="#m3edca40ad4" x="74.585268" y="145.8552" style="fill: #98df8a; stroke: #ffffff; stroke-width: 0.75; stroke-linejoin: miter"/>
     <use xlink:href="#m3edca40ad4" x="81.670982" y="142.140497" style="fill: #98df8a; stroke: #ffffff; stroke-width: 0.75; stroke-linejoin: miter"/>
     <use xlink:href="#m3edca40ad4" x="88.756696" y="140.283146" style="fill: #98df8a; stroke: #ffffff; stroke-width: 0.75; stroke-linejoin: miter"/>
     <use xlink:href="#m3edca40ad4" x="95.842411" y="138.425795" style="fill: #98df8a; stroke: #ffffff; stroke-width: 0.75; stroke-linejoin: miter"/>
     <use xlink:href="#m3edca40ad4" x="102.928125" y="137.497119" style="fill: #98df8a; stroke: #ffffff; stroke-width: 0.75; stroke-linejoin: miter"/>
     <use xlink:href="#m3edca40ad4" x="110.013839" y="137.032781" style="fill: #98df8a; stroke: #ffffff; stroke-width: 0.75; stroke-linejoin: miter"/>
     <use xlink:href="#m3edca40ad4" x="117.099554" y="136.104106" style="fill: #98df8a; stroke: #ffffff; stroke-width: 0.75; stroke-linejoin: miter"/>
     <use xlink:href="#m3edca40ad4" x="124.185268" y="136.104106" style="fill: #98df8a; stroke: #ffffff; stroke-width: 0.75; stroke-linejoin: miter"/>
     <use xlink:href="#m3edca40ad4" x="131.270982" y="135.17543" style="fill: #98df8a; stroke: #ffffff; stroke-width: 0.75; stroke-linejoin: miter"/>
     <use xlink:href="#m3edca40ad4" x="138.356696" y="134.711092" style="fill: #98df8a; stroke: #ffffff; stroke-width: 0.75; stroke-linejoin: miter"/>
     <use xlink:href="#m3edca40ad4" x="145.442411" y="134.711092" style="fill: #98df8a; stroke: #ffffff; stroke-width: 0.75; stroke-linejoin: miter"/>
     <use xlink:href="#m3edca40ad4" x="152.528125" y="134.246755" style="fill: #98df8a; stroke: #ffffff; stroke-width: 0.75; stroke-linejoin: miter"/>
     <use xlink:href="#m3edca40ad4" x="159.613839" y="133.782417" style="fill: #98df8a; stroke: #ffffff; stroke-width: 0.75; stroke-linejoin: miter"/>
     <use xlink:href="#m3edca40ad4" x="166.699554" y="133.318079" style="fill: #98df8a; stroke: #ffffff; stroke-width: 0.75; stroke-linejoin: miter"/>
     <use xlink:href="#m3edca40ad4" x="173.785268" y="133.318079" style="fill: #98df8a; stroke: #ffffff; stroke-width: 0.75; stroke-linejoin: miter"/>
     <use xlink:href="#m3edca40ad4" x="180.870982" y="133.318079" style="fill: #98df8a; stroke: #ffffff; stroke-width: 0.75; stroke-linejoin: miter"/>
     <use xlink:href="#m3edca40ad4" x="187.956696" y="133.318079" style="fill: #98df8a; stroke: #ffffff; stroke-width: 0.75; stroke-linejoin: miter"/>
     <use xlink:href="#m3edca40ad4" x="195.042411" y="132.389403" style="fill: #98df8a; stroke: #ffffff; stroke-width: 0.75; stroke-linejoin: miter"/>
     <use xlink:href="#m3edca40ad4" x="202.128125" y="131.925065" style="fill: #98df8a; stroke: #ffffff; stroke-width: 0.75; stroke-linejoin: miter"/>
     <use xlink:href="#m3edca40ad4" x="209.213839" y="116.601918" style="fill: #98df8a; stroke: #ffffff; stroke-width: 0.75; stroke-linejoin: miter"/>
     <use xlink:href="#m3edca40ad4" x="216.299554" y="103.136121" style="fill: #98df8a; stroke: #ffffff; stroke-width: 0.75; stroke-linejoin: miter"/>
     <use xlink:href="#m3edca40ad4" x="223.385268" y="103.136121" style="fill: #98df8a; stroke: #ffffff; stroke-width: 0.75; stroke-linejoin: miter"/>
     <use xlink:href="#m3edca40ad4" x="230.470982" y="102.207446" style="fill: #98df8a; stroke: #ffffff; stroke-width: 0.75; stroke-linejoin: miter"/>
     <use xlink:href="#m3edca40ad4" x="237.556696" y="102.207446" style="fill: #98df8a; stroke: #ffffff; stroke-width: 0.75; stroke-linejoin: miter"/>
     <use xlink:href="#m3edca40ad4" x="244.642411" y="100.350094" style="fill: #98df8a; stroke: #ffffff; stroke-width: 0.75; stroke-linejoin: miter"/>
     <use xlink:href="#m3edca40ad4" x="251.728125" y="98.492743" style="fill: #98df8a; stroke: #ffffff; stroke-width: 0.75; stroke-linejoin: miter"/>
     <use xlink:href="#m3edca40ad4" x="258.813839" y="98.028405" style="fill: #98df8a; stroke: #ffffff; stroke-width: 0.75; stroke-linejoin: miter"/>
     <use xlink:href="#m3edca40ad4" x="265.899554" y="97.564067" style="fill: #98df8a; stroke: #ffffff; stroke-width: 0.75; stroke-linejoin: miter"/>
     <use xlink:href="#m3edca40ad4" x="272.985268" y="97.564067" style="fill: #98df8a; stroke: #ffffff; stroke-width: 0.75; stroke-linejoin: miter"/>
     <use xlink:href="#m3edca40ad4" x="280.070982" y="97.564067" style="fill: #98df8a; stroke: #ffffff; stroke-width: 0.75; stroke-linejoin: miter"/>
     <use xlink:href="#m3edca40ad4" x="287.156696" y="97.564067" style="fill: #98df8a; stroke: #ffffff; stroke-width: 0.75; stroke-linejoin: miter"/>
     <use xlink:href="#m3edca40ad4" x="294.242411" y="97.09973" style="fill: #98df8a; stroke: #ffffff; stroke-width: 0.75; stroke-linejoin: miter"/>
     <use xlink:href="#m3edca40ad4" x="301.328125" y="97.09973" style="fill: #98df8a; stroke: #ffffff; stroke-width: 0.75; stroke-linejoin: miter"/>
     <use xlink:href="#m3edca40ad4" x="308.413839" y="97.09973" style="fill: #98df8a; stroke: #ffffff; stroke-width: 0.75; stroke-linejoin: miter"/>
     <use xlink:href="#m3edca40ad4" x="315.499554" y="96.635392" style="fill: #98df8a; stroke: #ffffff; stroke-width: 0.75; stroke-linejoin: miter"/>
     <use xlink:href="#m3edca40ad4" x="322.585268" y="96.635392" style="fill: #98df8a; stroke: #ffffff; stroke-width: 0.75; stroke-linejoin: miter"/>
     <use xlink:href="#m3edca40ad4" x="329.670982" y="96.171054" style="fill: #98df8a; stroke: #ffffff; stroke-width: 0.75; stroke-linejoin: miter"/>
     <use xlink:href="#m3edca40ad4" x="336.756696" y="96.171054" style="fill: #98df8a; stroke: #ffffff; stroke-width: 0.75; stroke-linejoin: miter"/>
     <use xlink:href="#m3edca40ad4" x="343.842411" y="96.171054" style="fill: #98df8a; stroke: #ffffff; stroke-width: 0.75; stroke-linejoin: miter"/>
     <use xlink:href="#m3edca40ad4" x="350.928125" y="96.171054" style="fill: #98df8a; stroke: #ffffff; stroke-width: 0.75; stroke-linejoin: miter"/>
     <use xlink:href="#m3edca40ad4" x="358.013839" y="96.171054" style="fill: #98df8a; stroke: #ffffff; stroke-width: 0.75; stroke-linejoin: miter"/>
     <use xlink:href="#m3edca40ad4" x="365.099554" y="96.171054" style="fill: #98df8a; stroke: #ffffff; stroke-width: 0.75; stroke-linejoin: miter"/>
     <use xlink:href="#m3edca40ad4" x="372.185268" y="96.171054" style="fill: #98df8a; stroke: #ffffff; stroke-width: 0.75; stroke-linejoin: miter"/>
     <use xlink:href="#m3edca40ad4" x="379.270982" y="96.171054" style="fill: #98df8a; stroke: #ffffff; stroke-width: 0.75; stroke-linejoin: miter"/>
     <use xlink:href="#m3edca40ad4" x="386.356696" y="96.171054" style="fill: #98df8a; stroke: #ffffff; stroke-width: 0.75; stroke-linejoin: miter"/>
     <use xlink:href="#m3edca40ad4" x="393.442411" y="96.171054" style="fill: #98df8a; stroke: #ffffff; stroke-width: 0.75; stroke-linejoin: miter"/>
     <use xlink:href="#m3edca40ad4" x="400.528125" y="96.171054" style="fill: #98df8a; stroke: #ffffff; stroke-width: 0.75; stroke-linejoin: miter"/>
     <use xlink:href="#m3edca40ad4" x="407.613839" y="96.171054" style="fill: #98df8a; stroke: #ffffff; stroke-width: 0.75; stroke-linejoin: miter"/>
     <use xlink:href="#m3edca40ad4" x="414.699554" y="95.706716" style="fill: #98df8a; stroke: #ffffff; stroke-width: 0.75; stroke-linejoin: miter"/>
     <use xlink:href="#m3edca40ad4" x="421.785268" y="95.706716" style="fill: #98df8a; stroke: #ffffff; stroke-width: 0.75; stroke-linejoin: miter"/>
     <use xlink:href="#m3edca40ad4" x="428.870982" y="95.706716" style="fill: #98df8a; stroke: #ffffff; stroke-width: 0.75; stroke-linejoin: miter"/>
     <use xlink:href="#m3edca40ad4" x="435.956696" y="95.706716" style="fill: #98df8a; stroke: #ffffff; stroke-width: 0.75; stroke-linejoin: miter"/>
     <use xlink:href="#m3edca40ad4" x="443.042411" y="95.706716" style="fill: #98df8a; stroke: #ffffff; stroke-width: 0.75; stroke-linejoin: miter"/>
     <use xlink:href="#m3edca40ad4" x="450.128125" y="95.706716" style="fill: #98df8a; stroke: #ffffff; stroke-width: 0.75; stroke-linejoin: miter"/>
     <use xlink:href="#m3edca40ad4" x="457.213839" y="95.706716" style="fill: #98df8a; stroke: #ffffff; stroke-width: 0.75; stroke-linejoin: miter"/>
     <use xlink:href="#m3edca40ad4" x="464.299554" y="95.706716" style="fill: #98df8a; stroke: #ffffff; stroke-width: 0.75; stroke-linejoin: miter"/>
     <use xlink:href="#m3edca40ad4" x="471.385268" y="95.706716" style="fill: #98df8a; stroke: #ffffff; stroke-width: 0.75; stroke-linejoin: miter"/>
     <use xlink:href="#m3edca40ad4" x="478.470982" y="95.706716" style="fill: #98df8a; stroke: #ffffff; stroke-width: 0.75; stroke-linejoin: miter"/>
     <use xlink:href="#m3edca40ad4" x="485.556696" y="95.706716" style="fill: #98df8a; stroke: #ffffff; stroke-width: 0.75; stroke-linejoin: miter"/>
     <use xlink:href="#m3edca40ad4" x="492.642411" y="95.706716" style="fill: #98df8a; stroke: #ffffff; stroke-width: 0.75; stroke-linejoin: miter"/>
     <use xlink:href="#m3edca40ad4" x="499.728125" y="95.706716" style="fill: #98df8a; stroke: #ffffff; stroke-width: 0.75; stroke-linejoin: miter"/>
     <use xlink:href="#m3edca40ad4" x="506.813839" y="95.706716" style="fill: #98df8a; stroke: #ffffff; stroke-width: 0.75; stroke-linejoin: miter"/>
     <use xlink:href="#m3edca40ad4" x="513.899554" y="95.706716" style="fill: #98df8a; stroke: #ffffff; stroke-width: 0.75; stroke-linejoin: miter"/>
     <use xlink:href="#m3edca40ad4" x="520.985268" y="95.706716" style="fill: #98df8a; stroke: #ffffff; stroke-width: 0.75; stroke-linejoin: miter"/>
     <use xlink:href="#m3edca40ad4" x="528.070982" y="95.706716" style="fill: #98df8a; stroke: #ffffff; stroke-width: 0.75; stroke-linejoin: miter"/>
     <use xlink:href="#m3edca40ad4" x="535.156696" y="95.706716" style="fill: #98df8a; stroke: #ffffff; stroke-width: 0.75; stroke-linejoin: miter"/>
     <use xlink:href="#m3edca40ad4" x="542.242411" y="95.706716" style="fill: #98df8a; stroke: #ffffff; stroke-width: 0.75; stroke-linejoin: miter"/>
     <use xlink:href="#m3edca40ad4" x="549.328125" y="95.706716" style="fill: #98df8a; stroke: #ffffff; stroke-width: 0.75; stroke-linejoin: miter"/>
     <use xlink:href="#m3edca40ad4" x="556.413839" y="95.706716" style="fill: #98df8a; stroke: #ffffff; stroke-width: 0.75; stroke-linejoin: miter"/>
     <use xlink:href="#m3edca40ad4" x="563.499554" y="95.706716" style="fill: #98df8a; stroke: #ffffff; stroke-width: 0.75; stroke-linejoin: miter"/>
     <use xlink:href="#m3edca40ad4" x="570.585268" y="95.706716" style="fill: #98df8a; stroke: #ffffff; stroke-width: 0.75; stroke-linejoin: miter"/>
     <use xlink:href="#m3edca40ad4" x="577.670982" y="95.706716" style="fill: #98df8a; stroke: #ffffff; stroke-width: 0.75; stroke-linejoin: miter"/>
     <use xlink:href="#m3edca40ad4" x="584.756696" y="82.705257" style="fill: #98df8a; stroke: #ffffff; stroke-width: 0.75; stroke-linejoin: miter"/>
     <use xlink:href="#m3edca40ad4" x="591.842411" y="82.705257" style="fill: #98df8a; stroke: #ffffff; stroke-width: 0.75; stroke-linejoin: miter"/>
     <use xlink:href="#m3edca40ad4" x="598.928125" y="82.705257" style="fill: #98df8a; stroke: #ffffff; stroke-width: 0.75; stroke-linejoin: miter"/>
     <use xlink:href="#m3edca40ad4" x="606.013839" y="82.705257" style="fill: #98df8a; stroke: #ffffff; stroke-width: 0.75; stroke-linejoin: miter"/>
     <use xlink:href="#m3edca40ad4" x="613.099554" y="82.705257" style="fill: #98df8a; stroke: #ffffff; stroke-width: 0.75; stroke-linejoin: miter"/>
     <use xlink:href="#m3edca40ad4" x="620.185268" y="82.705257" style="fill: #98df8a; stroke: #ffffff; stroke-width: 0.75; stroke-linejoin: miter"/>
     <use xlink:href="#m3edca40ad4" x="627.270982" y="53.451975" style="fill: #98df8a; stroke: #ffffff; stroke-width: 0.75; stroke-linejoin: miter"/>
     <use xlink:href="#m3edca40ad4" x="634.356696" y="53.451975" style="fill: #98df8a; stroke: #ffffff; stroke-width: 0.75; stroke-linejoin: miter"/>
     <use xlink:href="#m3edca40ad4" x="641.442411" y="53.451975" style="fill: #98df8a; stroke: #ffffff; stroke-width: 0.75; stroke-linejoin: miter"/>
     <use xlink:href="#m3edca40ad4" x="648.528125" y="53.451975" style="fill: #98df8a; stroke: #ffffff; stroke-width: 0.75; stroke-linejoin: miter"/>
     <use xlink:href="#m3edca40ad4" x="655.613839" y="53.451975" style="fill: #98df8a; stroke: #ffffff; stroke-width: 0.75; stroke-linejoin: miter"/>
     <use xlink:href="#m3edca40ad4" x="662.699554" y="52.5233" style="fill: #98df8a; stroke: #ffffff; stroke-width: 0.75; stroke-linejoin: miter"/>
     <use xlink:href="#m3edca40ad4" x="669.785268" y="52.5233" style="fill: #98df8a; stroke: #ffffff; stroke-width: 0.75; stroke-linejoin: miter"/>
     <use xlink:href="#m3edca40ad4" x="676.870982" y="52.5233" style="fill: #98df8a; stroke: #ffffff; stroke-width: 0.75; stroke-linejoin: miter"/>
     <use xlink:href="#m3edca40ad4" x="683.956696" y="52.5233" style="fill: #98df8a; stroke: #ffffff; stroke-width: 0.75; stroke-linejoin: miter"/>
     <use xlink:href="#m3edca40ad4" x="691.042411" y="52.5233" style="fill: #98df8a; stroke: #ffffff; stroke-width: 0.75; stroke-linejoin: miter"/>
     <use xlink:href="#m3edca40ad4" x="698.128125" y="52.5233" style="fill: #98df8a; stroke: #ffffff; stroke-width: 0.75; stroke-linejoin: miter"/>
     <use xlink:href="#m3edca40ad4" x="705.213839" y="52.5233" style="fill: #98df8a; stroke: #ffffff; stroke-width: 0.75; stroke-linejoin: miter"/>
     <use xlink:href="#m3edca40ad4" x="712.299554" y="52.5233" style="fill: #98df8a; stroke: #ffffff; stroke-width: 0.75; stroke-linejoin: miter"/>
     <use xlink:href="#m3edca40ad4" x="719.385268" y="52.5233" style="fill: #98df8a; stroke: #ffffff; stroke-width: 0.75; stroke-linejoin: miter"/>
     <use xlink:href="#m3edca40ad4" x="726.470982" y="52.5233" style="fill: #98df8a; stroke: #ffffff; stroke-width: 0.75; stroke-linejoin: miter"/>
     <use xlink:href="#m3edca40ad4" x="733.556696" y="52.5233" style="fill: #98df8a; stroke: #ffffff; stroke-width: 0.75; stroke-linejoin: miter"/>
    </g>
   </g>
   <g id="line2d_21"/>
   <g id="line2d_22"/>
   <g id="line2d_23">
    <path d="M 733.556696 288.430125 
L 733.556696 22.318125 
" clip-path="url(#p5a34aaf453)" style="fill: none; stroke: #ff0000; stroke-width: 1.5; stroke-linecap: square"/>
   </g>
   <g id="patch_3">
    <path d="M 53.328125 251.259883 
L 53.328125 65.524758 
" style="fill: none; stroke: #000000; stroke-width: 0.8; stroke-linejoin: miter; stroke-linecap: square"/>
   </g>
   <g id="patch_4">
    <path d="M 53.328125 288.430125 
L 733.556696 288.430125 
" style="fill: none; stroke: #000000; stroke-width: 0.8; stroke-linejoin: miter; stroke-linecap: square"/>
   </g>
   <g id="text_21">
    <!-- libjpeg-turbo_libjpeg_turbo_fuzzer (24h, at least 10 trials/fuzzer) -->
    <g transform="translate(217.384063 16.318125) scale(0.12 -0.12)">
     <defs>
      <path id="DejaVuSans-6c" d="M 603 4863 
L 1178 4863 
L 1178 0 
L 603 0 
L 603 4863 
z
" transform="scale(0.015625)"/>
      <path id="DejaVuSans-6a" d="M 603 3500 
L 1178 3500 
L 1178 -63 
Q 1178 -731 923 -1031 
Q 669 -1331 103 -1331 
L -116 -1331 
L -116 -844 
L 38 -844 
Q 366 -844 484 -692 
Q 603 -541 603 -63 
L 603 3500 
z
M 603 4863 
L 1178 4863 
L 1178 4134 
L 603 4134 
L 603 4863 
z
" transform="scale(0.015625)"/>
      <path id="DejaVuSans-70" d="M 1159 525 
L 1159 -1331 
L 581 -1331 
L 581 3500 
L 1159 3500 
L 1159 2969 
Q 1341 3281 1617 3432 
Q 1894 3584 2278 3584 
Q 2916 3584 3314 3078 
Q 3713 2572 3713 1747 
Q 3713 922 3314 415 
Q 2916 -91 2278 -91 
Q 1894 -91 1617 61 
Q 1341 213 1159 525 
z
M 3116 1747 
Q 3116 2381 2855 2742 
Q 2594 3103 2138 3103 
Q 1681 3103 1420 2742 
Q 1159 2381 1159 1747 
Q 1159 1113 1420 752 
Q 1681 391 2138 391 
Q 2594 391 2855 752 
Q 3116 1113 3116 1747 
z
" transform="scale(0.015625)"/>
      <path id="DejaVuSans-2d" d="M 313 2009 
L 1997 2009 
L 1997 1497 
L 313 1497 
L 313 2009 
z
" transform="scale(0.015625)"/>
      <path id="DejaVuSans-5f" d="M 3263 -1063 
L 3263 -1509 
L -63 -1509 
L -63 -1063 
L 3263 -1063 
z
" transform="scale(0.015625)"/>
      <path id="DejaVuSans-66" d="M 2375 4863 
L 2375 4384 
L 1825 4384 
Q 1516 4384 1395 4259 
Q 1275 4134 1275 3809 
L 1275 3500 
L 2222 3500 
L 2222 3053 
L 1275 3053 
L 1275 0 
L 697 0 
L 697 3053 
L 147 3053 
L 147 3500 
L 697 3500 
L 697 3744 
Q 697 4328 969 4595 
Q 1241 4863 1831 4863 
L 2375 4863 
z
" transform="scale(0.015625)"/>
      <path id="DejaVuSans-7a" d="M 353 3500 
L 3084 3500 
L 3084 2975 
L 922 459 
L 3084 459 
L 3084 0 
L 275 0 
L 275 525 
L 2438 3041 
L 353 3041 
L 353 3500 
z
" transform="scale(0.015625)"/>
      <path id="DejaVuSans-2c" d="M 750 794 
L 1409 794 
L 1409 256 
L 897 -744 
L 494 -744 
L 750 256 
L 750 794 
z
" transform="scale(0.015625)"/>
      <path id="DejaVuSans-73" d="M 2834 3397 
L 2834 2853 
Q 2591 2978 2328 3040 
Q 2066 3103 1784 3103 
Q 1356 3103 1142 2972 
Q 928 2841 928 2578 
Q 928 2378 1081 2264 
Q 1234 2150 1697 2047 
L 1894 2003 
Q 2506 1872 2764 1633 
Q 3022 1394 3022 966 
Q 3022 478 2636 193 
Q 2250 -91 1575 -91 
Q 1294 -91 989 -36 
Q 684 19 347 128 
L 347 722 
Q 666 556 975 473 
Q 1284 391 1588 391 
Q 1994 391 2212 530 
Q 2431 669 2431 922 
Q 2431 1156 2273 1281 
Q 2116 1406 1581 1522 
L 1381 1569 
Q 847 1681 609 1914 
Q 372 2147 372 2553 
Q 372 3047 722 3315 
Q 1072 3584 1716 3584 
Q 2034 3584 2315 3537 
Q 2597 3491 2834 3397 
z
" transform="scale(0.015625)"/>
      <path id="DejaVuSans-2f" d="M 1625 4666 
L 2156 4666 
L 531 -594 
L 0 -594 
L 1625 4666 
z
" transform="scale(0.015625)"/>
     </defs>
     <use xlink:href="#DejaVuSans-6c"/>
     <use xlink:href="#DejaVuSans-69" x="27.783203"/>
     <use xlink:href="#DejaVuSans-62" x="55.566406"/>
     <use xlink:href="#DejaVuSans-6a" x="119.042969"/>
     <use xlink:href="#DejaVuSans-70" x="146.826172"/>
     <use xlink:href="#DejaVuSans-65" x="210.302734"/>
     <use xlink:href="#DejaVuSans-67" x="271.826172"/>
     <use xlink:href="#DejaVuSans-2d" x="335.302734"/>
     <use xlink:href="#DejaVuSans-74" x="371.386719"/>
     <use xlink:href="#DejaVuSans-75" x="410.595703"/>
     <use xlink:href="#DejaVuSans-72" x="473.974609"/>
     <use xlink:href="#DejaVuSans-62" x="515.087891"/>
     <use xlink:href="#DejaVuSans-6f" x="578.564453"/>
     <use xlink:href="#DejaVuSans-5f" x="639.746094"/>
     <use xlink:href="#DejaVuSans-6c" x="689.746094"/>
     <use xlink:href="#DejaVuSans-69" x="717.529297"/>
     <use xlink:href="#DejaVuSans-62" x="745.3125"/>
     <use xlink:href="#DejaVuSans-6a" x="808.789062"/>
     <use xlink:href="#DejaVuSans-70" x="836.572266"/>
     <use xlink:href="#DejaVuSans-65" x="900.048828"/>
     <use xlink:href="#DejaVuSans-67" x="961.572266"/>
     <use xlink:href="#DejaVuSans-5f" x="1025.048828"/>
     <use xlink:href="#DejaVuSans-74" x="1075.048828"/>
     <use xlink:href="#DejaVuSans-75" x="1114.257812"/>
     <use xlink:href="#DejaVuSans-72" x="1177.636719"/>
     <use xlink:href="#DejaVuSans-62" x="1218.75"/>
     <use xlink:href="#DejaVuSans-6f" x="1282.226562"/>
     <use xlink:href="#DejaVuSans-5f" x="1343.408203"/>
     <use xlink:href="#DejaVuSans-66" x="1393.408203"/>
     <use xlink:href="#DejaVuSans-75" x="1428.613281"/>
     <use xlink:href="#DejaVuSans-7a" x="1491.992188"/>
     <use xlink:href="#DejaVuSans-7a" x="1544.482422"/>
     <use xlink:href="#DejaVuSans-65" x="1596.972656"/>
     <use xlink:href="#DejaVuSans-72" x="1658.496094"/>
     <use xlink:href="#DejaVuSans-20" x="1699.609375"/>
     <use xlink:href="#DejaVuSans-28" x="1731.396484"/>
     <use xlink:href="#DejaVuSans-32" x="1770.410156"/>
     <use xlink:href="#DejaVuSans-34" x="1834.033203"/>
     <use xlink:href="#DejaVuSans-68" x="1897.65625"/>
     <use xlink:href="#DejaVuSans-2c" x="1961.035156"/>
     <use xlink:href="#DejaVuSans-20" x="1992.822266"/>
     <use xlink:href="#DejaVuSans-61" x="2024.609375"/>
     <use xlink:href="#DejaVuSans-74" x="2085.888672"/>
     <use xlink:href="#DejaVuSans-20" x="2125.097656"/>
     <use xlink:href="#DejaVuSans-6c" x="2156.884766"/>
     <use xlink:href="#DejaVuSans-65" x="2184.667969"/>
     <use xlink:href="#DejaVuSans-61" x="2246.191406"/>
     <use xlink:href="#DejaVuSans-73" x="2307.470703"/>
     <use xlink:href="#DejaVuSans-74" x="2359.570312"/>
     <use xlink:href="#DejaVuSans-20" x="2398.779297"/>
     <use xlink:href="#DejaVuSans-31" x="2430.566406"/>
     <use xlink:href="#DejaVuSans-30" x="2494.189453"/>
     <use xlink:href="#DejaVuSans-20" x="2557.8125"/>
     <use xlink:href="#DejaVuSans-74" x="2589.599609"/>
     <use xlink:href="#DejaVuSans-72" x="2628.808594"/>
     <use xlink:href="#DejaVuSans-69" x="2669.921875"/>
     <use xlink:href="#DejaVuSans-61" x="2697.705078"/>
     <use xlink:href="#DejaVuSans-6c" x="2758.984375"/>
     <use xlink:href="#DejaVuSans-73" x="2786.767578"/>
     <use xlink:href="#DejaVuSans-2f" x="2838.867188"/>
     <use xlink:href="#DejaVuSans-66" x="2872.558594"/>
     <use xlink:href="#DejaVuSans-75" x="2907.763672"/>
     <use xlink:href="#DejaVuSans-7a" x="2971.142578"/>
     <use xlink:href="#DejaVuSans-7a" x="3023.632812"/>
     <use xlink:href="#DejaVuSans-65" x="3076.123047"/>
     <use xlink:href="#DejaVuSans-72" x="3137.646484"/>
     <use xlink:href="#DejaVuSans-29" x="3178.759766"/>
    </g>
   </g>
   <g id="legend_1">
    <g id="line2d_24">
     <path d="M 771.568125 30.416562 
L 781.568125 30.416562 
L 791.568125 30.416562 
" style="fill: none; stroke: #1f77b4; stroke-width: 1.5; stroke-linecap: square"/>
     <defs>
      <path id="me64ffcb1bb" d="M 0 3 
C 0.795609 3 1.55874 2.683901 2.12132 2.12132 
C 2.683901 1.55874 3 0.795609 3 0 
C 3 -0.795609 2.683901 -1.55874 2.12132 -2.12132 
C 1.55874 -2.683901 0.795609 -3 0 -3 
C -0.795609 -3 -1.55874 -2.683901 -2.12132 -2.12132 
C -2.683901 -1.55874 -3 -0.795609 -3 0 
C -3 0.795609 -2.683901 1.55874 -2.12132 2.12132 
C -1.55874 2.683901 -0.795609 3 0 3 
z
" style="stroke: #1f77b4"/>
     </defs>
     <g>
      <use xlink:href="#me64ffcb1bb" x="781.568125" y="30.416562" style="fill: #1f77b4; stroke: #1f77b4"/>
     </g>
    </g>
    <g id="text_22">
     <!-- darwin -->
     <g transform="translate(799.568125 33.916562) scale(0.1 -0.1)">
      <defs>
       <path id="DejaVuSans-77" d="M 269 3500 
L 844 3500 
L 1563 769 
L 2278 3500 
L 2956 3500 
L 3675 769 
L 4391 3500 
L 4966 3500 
L 4050 0 
L 3372 0 
L 2619 2869 
L 1863 0 
L 1184 0 
L 269 3500 
z
" transform="scale(0.015625)"/>
      </defs>
      <use xlink:href="#DejaVuSans-64"/>
      <use xlink:href="#DejaVuSans-61" x="63.476562"/>
      <use xlink:href="#DejaVuSans-72" x="124.755859"/>
      <use xlink:href="#DejaVuSans-77" x="165.869141"/>
      <use xlink:href="#DejaVuSans-69" x="247.65625"/>
      <use xlink:href="#DejaVuSans-6e" x="275.439453"/>
     </g>
    </g>
    <g id="line2d_25">
     <path d="M 771.568125 45.094688 
L 781.568125 45.094688 
L 791.568125 45.094688 
" style="fill: none; stroke: #98df8a; stroke-width: 1.5; stroke-linecap: square"/>
     <defs>
      <path id="m8a143ed957" d="M -0 3 
L 3 -3 
L -3 -3 
z
" style="stroke: #98df8a; stroke-linejoin: miter"/>
     </defs>
     <g>
      <use xlink:href="#m8a143ed957" x="781.568125" y="45.094688" style="fill: #98df8a; stroke: #98df8a; stroke-linejoin: miter"/>
     </g>
    </g>
    <g id="text_23">
     <!-- darwin_no_pre_seed -->
     <g transform="translate(799.568125 48.594688) scale(0.1 -0.1)">
      <use xlink:href="#DejaVuSans-64"/>
      <use xlink:href="#DejaVuSans-61" x="63.476562"/>
      <use xlink:href="#DejaVuSans-72" x="124.755859"/>
      <use xlink:href="#DejaVuSans-77" x="165.869141"/>
      <use xlink:href="#DejaVuSans-69" x="247.65625"/>
      <use xlink:href="#DejaVuSans-6e" x="275.439453"/>
      <use xlink:href="#DejaVuSans-5f" x="338.818359"/>
      <use xlink:href="#DejaVuSans-6e" x="388.818359"/>
      <use xlink:href="#DejaVuSans-6f" x="452.197266"/>
      <use xlink:href="#DejaVuSans-5f" x="513.378906"/>
      <use xlink:href="#DejaVuSans-70" x="563.378906"/>
      <use xlink:href="#DejaVuSans-72" x="626.855469"/>
      <use xlink:href="#DejaVuSans-65" x="665.71875"/>
      <use xlink:href="#DejaVuSans-5f" x="727.242188"/>
      <use xlink:href="#DejaVuSans-73" x="777.242188"/>
      <use xlink:href="#DejaVuSans-65" x="829.341797"/>
      <use xlink:href="#DejaVuSans-65" x="890.865234"/>
      <use xlink:href="#DejaVuSans-64" x="952.388672"/>
     </g>
    </g>
   </g>
  </g>
 </g>
 <defs>
  <clipPath id="p5a34aaf453">
   <rect x="53.328125" y="22.318125" width="714.24" height="266.112"/>
  </clipPath>
 </defs>
</svg>
