<?xml version="1.0" encoding="utf-8" standalone="no"?>
<!DOCTYPE svg PUBLIC "-//W3C//DTD SVG 1.1//EN"
  "http://www.w3.org/Graphics/SVG/1.1/DTD/svg11.dtd">
<svg xmlns:xlink="http://www.w3.org/1999/xlink" width="912.357187pt" height="325.986375pt" viewBox="0 0 912.357187 325.986375" xmlns="http://www.w3.org/2000/svg" version="1.1">
 <metadata>
  <rdf:RDF xmlns:dc="http://purl.org/dc/elements/1.1/" xmlns:cc="http://creativecommons.org/ns#" xmlns:rdf="http://www.w3.org/1999/02/22-rdf-syntax-ns#">
   <cc:Work>
    <dc:type rdf:resource="http://purl.org/dc/dcmitype/StillImage"/>
    <dc:date>2023-08-02T15:42:37.766949</dc:date>
    <dc:format>image/svg+xml</dc:format>
    <dc:creator>
     <cc:Agent>
      <dc:title>Matplotlib v3.7.1, https://matplotlib.org/</dc:title>
     </cc:Agent>
    </dc:creator>
   </cc:Work>
  </rdf:RDF>
 </metadata>
 <defs>
  <style type="text/css">*{stroke-linejoin: round; stroke-linecap: butt}</style>
 </defs>
 <g id="figure_1">
  <g id="patch_1">
   <path d="M 0 325.986375 
L 912.357187 325.986375 
L 912.357187 0 
L 0 0 
z
" style="fill: #ffffff"/>
  </g>
  <g id="axes_1">
   <g id="patch_2">
    <path d="M 53.328125 288.430125 
L 767.568125 288.430125 
L 767.568125 22.318125 
L 53.328125 22.318125 
z
" style="fill: #ffffff"/>
   </g>
   <g id="PolyCollection_1">
    <defs>
     <path id="mcc02514139" d="M 53.328125 -49.65225 
L 53.328125 -49.65225 
L 519.474297 -131.34088 
L 556.751639 -149.949217 
L 578.557487 -163.415014 
L 594.028982 -178.273824 
L 606.029605 -179.666837 
L 615.834829 -179.666837 
L 624.125027 -181.524189 
L 631.306324 -183.38154 
L 637.640676 -185.703229 
L 643.306948 -187.096242 
L 648.432713 -187.096242 
L 653.112171 -188.024918 
L 657.416855 -188.953594 
L 661.40237 -189.882269 
L 665.112795 -189.882269 
L 668.583666 -189.882269 
L 671.844048 -190.787728 
L 674.918019 -194.525647 
L 677.825745 -194.525647 
L 680.58429 -194.525647 
L 683.208217 -194.525647 
L 685.710056 -194.525647 
L 688.100664 -194.525647 
L 690.389513 -194.525647 
L 692.584914 -211.206983 
L 694.694197 -209.384457 
L 696.723866 -225.171943 
L 698.679712 -225.171943 
L 700.566917 -225.171943 
L 702.390137 -225.160334 
L 704.153569 -225.171943 
L 705.861008 -225.171943 
L 707.515903 -227.493632 
L 709.121391 -227.95797 
L 710.680336 -227.493632 
L 712.195361 -227.95797 
L 713.668873 -227.95797 
L 715.103087 -228.422308 
L 716.500045 -228.886645 
L 717.861632 -228.886645 
L 719.189597 -228.886645 
L 720.485559 -229.815321 
L 721.751025 -229.350983 
L 722.987398 -229.815321 
L 724.195985 -229.815321 
L 725.378007 -229.815321 
L 726.534607 -229.815321 
L 727.666856 -229.815321 
L 728.775758 -229.815321 
L 729.862256 -229.815321 
L 730.927238 -229.815321 
L 731.971539 -229.815321 
L 732.995948 -229.815321 
L 734.001208 -229.815321 
L 734.988022 -229.815321 
L 735.957054 -229.815321 
L 736.908934 -229.815321 
L 737.84426 -229.815321 
L 738.763595 -229.815321 
L 739.667479 -229.815321 
L 740.556423 -229.815321 
L 741.430911 -229.815321 
L 742.291407 -229.815321 
L 743.138351 -229.815321 
L 743.972163 -229.815321 
L 744.793245 -229.815321 
L 745.60198 -229.815321 
L 746.398733 -229.815321 
L 747.183854 -229.815321 
L 747.957678 -229.815321 
L 748.720525 -229.815321 
L 749.472703 -229.815321 
L 750.214506 -230.279659 
L 750.946215 -230.743997 
L 751.668103 -230.279659 
L 752.380429 -230.743997 
L 753.083444 -230.743997 
L 753.777387 -230.743997 
L 754.46249 -230.743997 
L 755.138974 -230.732388 
L 755.807055 -230.743997 
L 756.466939 -230.743997 
L 757.118824 -230.743997 
L 757.762901 -230.743997 
L 758.399357 -230.743997 
L 759.028368 -230.743997 
L 759.650107 -230.743997 
L 760.26474 -230.743997 
L 760.872429 -230.743997 
L 761.473327 -230.279659 
L 762.067585 -230.743997 
L 762.655349 -230.743997 
L 763.236758 -230.743997 
L 763.811949 -230.279659 
L 764.381053 -230.743997 
L 764.944198 -230.279659 
L 764.944198 -291.107912 
L 764.944198 -291.107912 
L 764.381053 -291.107912 
L 763.811949 -291.107912 
L 763.236758 -291.107912 
L 762.655349 -291.107912 
L 762.067585 -291.107912 
L 761.473327 -291.107912 
L 760.872429 -291.107912 
L 760.26474 -291.107912 
L 759.650107 -291.107912 
L 759.028368 -291.107912 
L 758.399357 -291.107912 
L 757.762901 -291.107912 
L 757.118824 -291.107912 
L 756.466939 -291.107912 
L 755.807055 -291.107912 
L 755.138974 -291.107912 
L 754.46249 -291.107912 
L 753.777387 -291.107912 
L 753.083444 -291.107912 
L 752.380429 -291.107912 
L 751.668103 -291.107912 
L 750.946215 -291.107912 
L 750.214506 -291.107912 
L 749.472703 -291.107912 
L 748.720525 -291.107912 
L 747.957678 -291.107912 
L 747.183854 -291.107912 
L 746.398733 -291.107912 
L 745.60198 -291.107912 
L 744.793245 -291.107912 
L 743.972163 -291.107912 
L 743.138351 -291.107912 
L 742.291407 -291.107912 
L 741.430911 -291.107912 
L 740.556423 -291.107912 
L 739.667479 -291.107912 
L 738.763595 -291.107912 
L 737.84426 -291.107912 
L 736.908934 -291.107912 
L 735.957054 -291.107912 
L 734.988022 -291.107912 
L 734.001208 -291.57225 
L 732.995948 -290.179237 
L 731.971539 -290.643574 
L 730.927238 -290.643574 
L 729.862256 -290.179237 
L 728.775758 -289.250561 
L 727.666856 -289.250561 
L 726.534607 -288.321885 
L 725.378007 -286.464534 
L 724.195985 -280.045064 
L 722.987398 -280.045064 
L 721.751025 -285.071521 
L 720.485559 -283.214169 
L 719.189597 -279.963805 
L 717.861632 -283.214169 
L 716.500045 -283.214169 
L 715.103087 -276.249102 
L 713.668873 -276.249102 
L 712.195361 -272.5344 
L 710.680336 -272.5344 
L 709.121391 -272.5344 
L 707.515903 -263.711981 
L 705.861008 -263.247643 
L 704.153569 -252.103536 
L 702.390137 -252.103536 
L 700.566917 -252.103536 
L 698.679712 -252.103536 
L 696.723866 -252.567874 
L 694.694197 -251.17486 
L 692.584914 -249.317509 
L 690.389513 -240.495091 
L 688.100664 -240.529916 
L 685.710056 -241.888104 
L 683.208217 -241.888104 
L 680.58429 -241.888104 
L 677.825745 -240.495091 
L 674.918019 -239.566415 
L 671.844048 -239.566415 
L 668.583666 -240.030753 
L 665.112795 -239.102077 
L 661.40237 -227.331114 
L 657.416855 -238.637739 
L 653.112171 -225.496979 
L 648.432713 -237.709064 
L 643.306948 -224.243267 
L 637.640676 -224.52187 
L 631.306324 -221.45724 
L 624.125027 -217.742538 
L 615.834829 -217.742538 
L 606.029605 -217.742538 
L 594.028982 -214.956511 
L 578.557487 -210.313133 
L 556.751639 -206.134093 
L 519.474297 -166.224258 
L 53.328125 -49.65225 
z
" style="stroke: #1f77b4; stroke-opacity: 0.2"/>
    </defs>
    <g clip-path="url(#p4c23bd5743)">
     <use xlink:href="#mcc02514139" x="0" y="325.986375" style="fill: #1f77b4; fill-opacity: 0.2; stroke: #1f77b4; stroke-opacity: 0.2"/>
    </g>
   </g>
   <g id="PolyCollection_2">
    <defs>
     <path id="mb3fe567dff" d="M 53.328125 -49.65225 
L 53.328125 -49.65225 
L 519.474297 -136.019083 
L 556.751639 -161.093325 
L 578.557487 -172.237432 
L 594.028982 -180.595513 
L 606.029605 -183.38154 
L 615.834829 -184.310215 
L 624.125027 -184.310215 
L 631.306324 -186.631905 
L 637.640676 -187.096242 
L 643.306948 -188.024918 
L 648.432713 -189.417931 
L 653.112171 -189.882269 
L 657.416855 -189.882269 
L 661.40237 -189.882269 
L 665.112795 -189.870661 
L 668.583666 -189.882269 
L 671.844048 -189.882269 
L 674.918019 -189.882269 
L 677.825745 -189.882269 
L 680.58429 -191.275283 
L 683.208217 -190.346607 
L 685.710056 -192.203958 
L 688.100664 -194.06131 
L 690.389513 -194.525647 
L 692.584914 -194.06131 
L 694.694197 -194.525647 
L 696.723866 -223.314592 
L 698.679712 -223.778929 
L 700.566917 -224.243267 
L 702.390137 -224.243267 
L 704.153569 -224.243267 
L 705.861008 -224.243267 
L 707.515903 -224.243267 
L 709.121391 -224.243267 
L 710.680336 -224.243267 
L 712.195361 -224.243267 
L 713.668873 -224.243267 
L 715.103087 -225.171943 
L 716.500045 -225.171943 
L 717.861632 -225.171943 
L 719.189597 -225.636281 
L 720.485559 -225.636281 
L 721.751025 -225.636281 
L 722.987398 -225.636281 
L 724.195985 -226.564956 
L 725.378007 -227.029294 
L 726.534607 -226.564956 
L 727.666856 -226.564956 
L 728.775758 -227.017686 
L 729.862256 -226.564956 
L 730.927238 -227.029294 
L 731.971539 -227.029294 
L 732.995948 -227.029294 
L 734.001208 -227.029294 
L 734.988022 -227.029294 
L 735.957054 -227.029294 
L 736.908934 -227.029294 
L 737.84426 -227.029294 
L 738.763595 -227.029294 
L 739.667479 -227.029294 
L 740.556423 -227.95797 
L 741.430911 -227.95797 
L 742.291407 -227.95797 
L 743.138351 -227.95797 
L 743.972163 -227.95797 
L 744.793245 -227.95797 
L 745.60198 -227.95797 
L 746.398733 -227.95797 
L 747.183854 -227.95797 
L 747.957678 -227.95797 
L 748.720525 -227.95797 
L 749.472703 -227.95797 
L 750.214506 -227.95797 
L 750.946215 -227.95797 
L 751.668103 -227.95797 
L 752.380429 -227.95797 
L 753.083444 -227.95797 
L 753.777387 -227.946361 
L 754.46249 -227.95797 
L 755.138974 -227.95797 
L 755.807055 -227.95797 
L 756.466939 -227.95797 
L 757.118824 -227.95797 
L 757.762901 -227.95797 
L 758.399357 -227.95797 
L 759.028368 -227.95797 
L 759.650107 -227.95797 
L 760.26474 -227.95797 
L 760.872429 -227.493632 
L 761.473327 -227.95797 
L 762.067585 -227.95797 
L 762.655349 -227.95797 
L 763.236758 -227.95797 
L 763.811949 -228.886645 
L 764.381053 -228.886645 
L 764.944198 -228.886645 
L 764.944198 -291.107912 
L 764.944198 -291.107912 
L 764.381053 -291.107912 
L 763.811949 -291.107912 
L 763.236758 -291.107912 
L 762.655349 -291.107912 
L 762.067585 -291.107912 
L 761.473327 -291.107912 
L 760.872429 -291.107912 
L 760.26474 -291.107912 
L 759.650107 -291.107912 
L 759.028368 -291.107912 
L 758.399357 -291.107912 
L 757.762901 -291.107912 
L 757.118824 -291.107912 
L 756.466939 -290.179237 
L 755.807055 -290.179237 
L 755.138974 -290.179237 
L 754.46249 -290.179237 
L 753.777387 -290.179237 
L 753.083444 -290.179237 
L 752.380429 -289.250561 
L 751.668103 -289.250561 
L 750.946215 -289.250561 
L 750.214506 -289.250561 
L 749.472703 -289.250561 
L 748.720525 -289.250561 
L 747.957678 -289.250561 
L 747.183854 -289.250561 
L 746.398733 -289.250561 
L 745.60198 -289.250561 
L 744.793245 -289.250561 
L 743.972163 -289.250561 
L 743.138351 -289.250561 
L 742.291407 -289.250561 
L 741.430911 -289.250561 
L 740.556423 -289.250561 
L 739.667479 -289.262169 
L 738.763595 -289.714899 
L 737.84426 -289.250561 
L 736.908934 -289.250561 
L 735.957054 -289.250561 
L 734.988022 -289.250561 
L 734.001208 -289.250561 
L 732.995948 -289.250561 
L 731.971539 -289.250561 
L 730.927238 -289.250561 
L 729.862256 -289.250561 
L 728.775758 -289.262169 
L 727.666856 -289.250561 
L 726.534607 -289.250561 
L 725.378007 -289.250561 
L 724.195985 -289.250561 
L 722.987398 -289.250561 
L 721.751025 -289.250561 
L 720.485559 -288.321885 
L 719.189597 -288.321885 
L 717.861632 -288.321885 
L 716.500045 -288.321885 
L 715.103087 -288.321885 
L 713.668873 -265.104995 
L 712.195361 -258.604265 
L 710.680336 -258.139928 
L 709.121391 -256.746914 
L 707.515903 -257.211252 
L 705.861008 -241.888104 
L 704.153569 -240.971037 
L 702.390137 -240.506699 
L 700.566917 -240.495091 
L 698.679712 -229.350983 
L 696.723866 -227.95797 
L 694.694197 -227.95797 
L 692.584914 -227.95797 
L 690.389513 -227.029294 
L 688.100664 -227.029294 
L 685.710056 -227.029294 
L 683.208217 -223.314592 
L 680.58429 -223.314592 
L 677.825745 -209.872012 
L 674.918019 -210.777471 
L 671.844048 -209.848795 
L 668.583666 -210.324741 
L 665.112795 -208.455782 
L 661.40237 -207.991444 
L 657.416855 -193.596972 
L 653.112171 -193.132634 
L 648.432713 -192.668296 
L 643.306948 -191.73962 
L 637.640676 -190.822553 
L 631.306324 -190.346607 
L 624.125027 -189.882269 
L 615.834829 -188.953594 
L 606.029605 -188.953594 
L 594.028982 -188.024918 
L 578.557487 -186.167567 
L 556.751639 -179.678446 
L 519.474297 -153.66392 
L 53.328125 -49.65225 
z
" style="stroke: #98df8a; stroke-opacity: 0.2"/>
    </defs>
    <g clip-path="url(#p4c23bd5743)">
     <use xlink:href="#mb3fe567dff" x="0" y="325.986375" style="fill: #98df8a; fill-opacity: 0.2; stroke: #98df8a; stroke-opacity: 0.2"/>
    </g>
   </g>
   <g id="matplotlib.axis_1">
    <g id="xtick_1">
     <g id="line2d_1">
      <defs>
       <path id="m1d5f66099c" d="M 0 0 
L 0 3.5 
" style="stroke: #000000; stroke-width: 0.8"/>
      </defs>
      <g>
       <use xlink:href="#m1d5f66099c" x="53.328125" y="288.430125" style="stroke: #000000; stroke-width: 0.8"/>
      </g>
     </g>
     <g id="text_1">
      <!-- 0m -->
      <g transform="translate(45.276563 303.028562) scale(0.1 -0.1)">
       <defs>
        <path id="DejaVuSans-30" d="M 2034 4250 
Q 1547 4250 1301 3770 
Q 1056 3291 1056 2328 
Q 1056 1369 1301 889 
Q 1547 409 2034 409 
Q 2525 409 2770 889 
Q 3016 1369 3016 2328 
Q 3016 3291 2770 3770 
Q 2525 4250 2034 4250 
z
M 2034 4750 
Q 2819 4750 3233 4129 
Q 3647 3509 3647 2328 
Q 3647 1150 3233 529 
Q 2819 -91 2034 -91 
Q 1250 -91 836 529 
Q 422 1150 422 2328 
Q 422 3509 836 4129 
Q 1250 4750 2034 4750 
z
" transform="scale(0.015625)"/>
        <path id="DejaVuSans-6d" d="M 3328 2828 
Q 3544 3216 3844 3400 
Q 4144 3584 4550 3584 
Q 5097 3584 5394 3201 
Q 5691 2819 5691 2113 
L 5691 0 
L 5113 0 
L 5113 2094 
Q 5113 2597 4934 2840 
Q 4756 3084 4391 3084 
Q 3944 3084 3684 2787 
Q 3425 2491 3425 1978 
L 3425 0 
L 2847 0 
L 2847 2094 
Q 2847 2600 2669 2842 
Q 2491 3084 2119 3084 
Q 1678 3084 1418 2786 
Q 1159 2488 1159 1978 
L 1159 0 
L 581 0 
L 581 3500 
L 1159 3500 
L 1159 2956 
Q 1356 3278 1631 3431 
Q 1906 3584 2284 3584 
Q 2666 3584 2933 3390 
Q 3200 3197 3328 2828 
z
" transform="scale(0.015625)"/>
       </defs>
       <use xlink:href="#DejaVuSans-30"/>
       <use xlink:href="#DejaVuSans-6d" x="63.623047"/>
      </g>
     </g>
    </g>
    <g id="xtick_2">
     <g id="line2d_2">
      <g>
       <use xlink:href="#m1d5f66099c" x="122.124042" y="288.430125" style="stroke: #000000; stroke-width: 0.8"/>
      </g>
     </g>
    </g>
    <g id="xtick_3">
     <g id="line2d_3">
      <g>
       <use xlink:href="#m1d5f66099c" x="214.772837" y="288.430125" style="stroke: #000000; stroke-width: 0.8"/>
      </g>
     </g>
    </g>
    <g id="xtick_4">
     <g id="line2d_4">
      <g>
       <use xlink:href="#m1d5f66099c" x="275.903057" y="288.430125" style="stroke: #000000; stroke-width: 0.8"/>
      </g>
     </g>
    </g>
    <g id="xtick_5">
     <g id="line2d_5">
      <g>
       <use xlink:href="#m1d5f66099c" x="337.033278" y="288.430125" style="stroke: #000000; stroke-width: 0.8"/>
      </g>
     </g>
    </g>
    <g id="xtick_6">
     <g id="line2d_6">
      <g>
       <use xlink:href="#m1d5f66099c" x="398.163498" y="288.430125" style="stroke: #000000; stroke-width: 0.8"/>
      </g>
     </g>
     <g id="text_2">
      <!-- 1m -->
      <g transform="translate(390.111936 303.028562) scale(0.1 -0.1)">
       <defs>
        <path id="DejaVuSans-31" d="M 794 531 
L 1825 531 
L 1825 4091 
L 703 3866 
L 703 4441 
L 1819 4666 
L 2450 4666 
L 2450 531 
L 3481 531 
L 3481 0 
L 794 0 
L 794 531 
z
" transform="scale(0.015625)"/>
       </defs>
       <use xlink:href="#DejaVuSans-31"/>
       <use xlink:href="#DejaVuSans-6d" x="63.623047"/>
      </g>
     </g>
    </g>
    <g id="xtick_7">
     <g id="line2d_7">
      <g>
       <use xlink:href="#m1d5f66099c" x="459.293719" y="288.430125" style="stroke: #000000; stroke-width: 0.8"/>
      </g>
     </g>
     <g id="text_3">
      <!-- 4m -->
      <g transform="translate(451.242156 303.028562) scale(0.1 -0.1)">
       <defs>
        <path id="DejaVuSans-34" d="M 2419 4116 
L 825 1625 
L 2419 1625 
L 2419 4116 
z
M 2253 4666 
L 3047 4666 
L 3047 1625 
L 3713 1625 
L 3713 1100 
L 3047 1100 
L 3047 0 
L 2419 0 
L 2419 1100 
L 313 1100 
L 313 1709 
L 2253 4666 
z
" transform="scale(0.015625)"/>
       </defs>
       <use xlink:href="#DejaVuSans-34"/>
       <use xlink:href="#DejaVuSans-6d" x="63.623047"/>
      </g>
     </g>
    </g>
    <g id="xtick_8">
     <g id="line2d_8">
      <g>
       <use xlink:href="#m1d5f66099c" x="520.423939" y="288.430125" style="stroke: #000000; stroke-width: 0.8"/>
      </g>
     </g>
     <g id="text_4">
      <!-- 15m -->
      <g transform="translate(509.191126 303.028562) scale(0.1 -0.1)">
       <defs>
        <path id="DejaVuSans-35" d="M 691 4666 
L 3169 4666 
L 3169 4134 
L 1269 4134 
L 1269 2991 
Q 1406 3038 1543 3061 
Q 1681 3084 1819 3084 
Q 2600 3084 3056 2656 
Q 3513 2228 3513 1497 
Q 3513 744 3044 326 
Q 2575 -91 1722 -91 
Q 1428 -91 1123 -41 
Q 819 9 494 109 
L 494 744 
Q 775 591 1075 516 
Q 1375 441 1709 441 
Q 2250 441 2565 725 
Q 2881 1009 2881 1497 
Q 2881 1984 2565 2268 
Q 2250 2553 1709 2553 
Q 1456 2553 1204 2497 
Q 953 2441 691 2322 
L 691 4666 
z
" transform="scale(0.015625)"/>
       </defs>
       <use xlink:href="#DejaVuSans-31"/>
       <use xlink:href="#DejaVuSans-35" x="63.623047"/>
       <use xlink:href="#DejaVuSans-6d" x="127.246094"/>
      </g>
     </g>
    </g>
    <g id="xtick_9">
     <g id="line2d_9">
      <g>
       <use xlink:href="#m1d5f66099c" x="581.554159" y="288.430125" style="stroke: #000000; stroke-width: 0.8"/>
      </g>
     </g>
     <g id="text_5">
      <!-- 47m -->
      <g transform="translate(570.321347 303.028562) scale(0.1 -0.1)">
       <defs>
        <path id="DejaVuSans-37" d="M 525 4666 
L 3525 4666 
L 3525 4397 
L 1831 0 
L 1172 0 
L 2766 4134 
L 525 4134 
L 525 4666 
z
" transform="scale(0.015625)"/>
       </defs>
       <use xlink:href="#DejaVuSans-34"/>
       <use xlink:href="#DejaVuSans-37" x="63.623047"/>
       <use xlink:href="#DejaVuSans-6d" x="127.246094"/>
      </g>
     </g>
    </g>
    <g id="xtick_10">
     <g id="line2d_10">
      <g>
       <use xlink:href="#m1d5f66099c" x="642.68438" y="288.430125" style="stroke: #000000; stroke-width: 0.8"/>
      </g>
     </g>
     <g id="text_6">
      <!-- 2h:28m -->
      <g transform="translate(623.417192 303.028562) scale(0.1 -0.1)">
       <defs>
        <path id="DejaVuSans-32" d="M 1228 531 
L 3431 531 
L 3431 0 
L 469 0 
L 469 531 
Q 828 903 1448 1529 
Q 2069 2156 2228 2338 
Q 2531 2678 2651 2914 
Q 2772 3150 2772 3378 
Q 2772 3750 2511 3984 
Q 2250 4219 1831 4219 
Q 1534 4219 1204 4116 
Q 875 4013 500 3803 
L 500 4441 
Q 881 4594 1212 4672 
Q 1544 4750 1819 4750 
Q 2544 4750 2975 4387 
Q 3406 4025 3406 3419 
Q 3406 3131 3298 2873 
Q 3191 2616 2906 2266 
Q 2828 2175 2409 1742 
Q 1991 1309 1228 531 
z
" transform="scale(0.015625)"/>
        <path id="DejaVuSans-68" d="M 3513 2113 
L 3513 0 
L 2938 0 
L 2938 2094 
Q 2938 2591 2744 2837 
Q 2550 3084 2163 3084 
Q 1697 3084 1428 2787 
Q 1159 2491 1159 1978 
L 1159 0 
L 581 0 
L 581 4863 
L 1159 4863 
L 1159 2956 
Q 1366 3272 1645 3428 
Q 1925 3584 2291 3584 
Q 2894 3584 3203 3211 
Q 3513 2838 3513 2113 
z
" transform="scale(0.015625)"/>
        <path id="DejaVuSans-3a" d="M 750 794 
L 1409 794 
L 1409 0 
L 750 0 
L 750 794 
z
M 750 3309 
L 1409 3309 
L 1409 2516 
L 750 2516 
L 750 3309 
z
" transform="scale(0.015625)"/>
        <path id="DejaVuSans-38" d="M 2034 2216 
Q 1584 2216 1326 1975 
Q 1069 1734 1069 1313 
Q 1069 891 1326 650 
Q 1584 409 2034 409 
Q 2484 409 2743 651 
Q 3003 894 3003 1313 
Q 3003 1734 2745 1975 
Q 2488 2216 2034 2216 
z
M 1403 2484 
Q 997 2584 770 2862 
Q 544 3141 544 3541 
Q 544 4100 942 4425 
Q 1341 4750 2034 4750 
Q 2731 4750 3128 4425 
Q 3525 4100 3525 3541 
Q 3525 3141 3298 2862 
Q 3072 2584 2669 2484 
Q 3125 2378 3379 2068 
Q 3634 1759 3634 1313 
Q 3634 634 3220 271 
Q 2806 -91 2034 -91 
Q 1263 -91 848 271 
Q 434 634 434 1313 
Q 434 1759 690 2068 
Q 947 2378 1403 2484 
z
M 1172 3481 
Q 1172 3119 1398 2916 
Q 1625 2713 2034 2713 
Q 2441 2713 2670 2916 
Q 2900 3119 2900 3481 
Q 2900 3844 2670 4047 
Q 2441 4250 2034 4250 
Q 1625 4250 1398 4047 
Q 1172 3844 1172 3481 
z
" transform="scale(0.015625)"/>
       </defs>
       <use xlink:href="#DejaVuSans-32"/>
       <use xlink:href="#DejaVuSans-68" x="63.623047"/>
       <use xlink:href="#DejaVuSans-3a" x="127.001953"/>
       <use xlink:href="#DejaVuSans-32" x="160.693359"/>
       <use xlink:href="#DejaVuSans-38" x="224.316406"/>
       <use xlink:href="#DejaVuSans-6d" x="287.939453"/>
      </g>
     </g>
    </g>
    <g id="xtick_11">
     <g id="line2d_11">
      <g>
       <use xlink:href="#m1d5f66099c" x="703.8146" y="288.430125" style="stroke: #000000; stroke-width: 0.8"/>
      </g>
     </g>
     <g id="text_7">
      <!-- 7h:42m -->
      <g transform="translate(684.547413 303.028562) scale(0.1 -0.1)">
       <use xlink:href="#DejaVuSans-37"/>
       <use xlink:href="#DejaVuSans-68" x="63.623047"/>
       <use xlink:href="#DejaVuSans-3a" x="127.001953"/>
       <use xlink:href="#DejaVuSans-34" x="160.693359"/>
       <use xlink:href="#DejaVuSans-32" x="224.316406"/>
       <use xlink:href="#DejaVuSans-6d" x="287.939453"/>
      </g>
     </g>
    </g>
    <g id="xtick_12">
     <g id="line2d_12">
      <g>
       <use xlink:href="#m1d5f66099c" x="764.94482" y="288.430125" style="stroke: #000000; stroke-width: 0.8"/>
      </g>
     </g>
     <g id="text_8">
      <!-- 24h -->
      <g transform="translate(755.41357 303.028562) scale(0.1 -0.1)">
       <use xlink:href="#DejaVuSans-32"/>
       <use xlink:href="#DejaVuSans-34" x="63.623047"/>
       <use xlink:href="#DejaVuSans-68" x="127.246094"/>
      </g>
     </g>
    </g>
    <g id="text_9">
     <!-- Time (hour:minute) -->
     <g transform="translate(362.041094 316.706687) scale(0.1 -0.1)">
      <defs>
       <path id="DejaVuSans-54" d="M -19 4666 
L 3928 4666 
L 3928 4134 
L 2272 4134 
L 2272 0 
L 1638 0 
L 1638 4134 
L -19 4134 
L -19 4666 
z
" transform="scale(0.015625)"/>
       <path id="DejaVuSans-69" d="M 603 3500 
L 1178 3500 
L 1178 0 
L 603 0 
L 603 3500 
z
M 603 4863 
L 1178 4863 
L 1178 4134 
L 603 4134 
L 603 4863 
z
" transform="scale(0.015625)"/>
       <path id="DejaVuSans-65" d="M 3597 1894 
L 3597 1613 
L 953 1613 
Q 991 1019 1311 708 
Q 1631 397 2203 397 
Q 2534 397 2845 478 
Q 3156 559 3463 722 
L 3463 178 
Q 3153 47 2828 -22 
Q 2503 -91 2169 -91 
Q 1331 -91 842 396 
Q 353 884 353 1716 
Q 353 2575 817 3079 
Q 1281 3584 2069 3584 
Q 2775 3584 3186 3129 
Q 3597 2675 3597 1894 
z
M 3022 2063 
Q 3016 2534 2758 2815 
Q 2500 3097 2075 3097 
Q 1594 3097 1305 2825 
Q 1016 2553 972 2059 
L 3022 2063 
z
" transform="scale(0.015625)"/>
       <path id="DejaVuSans-20" transform="scale(0.015625)"/>
       <path id="DejaVuSans-28" d="M 1984 4856 
Q 1566 4138 1362 3434 
Q 1159 2731 1159 2009 
Q 1159 1288 1364 580 
Q 1569 -128 1984 -844 
L 1484 -844 
Q 1016 -109 783 600 
Q 550 1309 550 2009 
Q 550 2706 781 3412 
Q 1013 4119 1484 4856 
L 1984 4856 
z
" transform="scale(0.015625)"/>
       <path id="DejaVuSans-6f" d="M 1959 3097 
Q 1497 3097 1228 2736 
Q 959 2375 959 1747 
Q 959 1119 1226 758 
Q 1494 397 1959 397 
Q 2419 397 2687 759 
Q 2956 1122 2956 1747 
Q 2956 2369 2687 2733 
Q 2419 3097 1959 3097 
z
M 1959 3584 
Q 2709 3584 3137 3096 
Q 3566 2609 3566 1747 
Q 3566 888 3137 398 
Q 2709 -91 1959 -91 
Q 1206 -91 779 398 
Q 353 888 353 1747 
Q 353 2609 779 3096 
Q 1206 3584 1959 3584 
z
" transform="scale(0.015625)"/>
       <path id="DejaVuSans-75" d="M 544 1381 
L 544 3500 
L 1119 3500 
L 1119 1403 
Q 1119 906 1312 657 
Q 1506 409 1894 409 
Q 2359 409 2629 706 
Q 2900 1003 2900 1516 
L 2900 3500 
L 3475 3500 
L 3475 0 
L 2900 0 
L 2900 538 
Q 2691 219 2414 64 
Q 2138 -91 1772 -91 
Q 1169 -91 856 284 
Q 544 659 544 1381 
z
M 1991 3584 
L 1991 3584 
z
" transform="scale(0.015625)"/>
       <path id="DejaVuSans-72" d="M 2631 2963 
Q 2534 3019 2420 3045 
Q 2306 3072 2169 3072 
Q 1681 3072 1420 2755 
Q 1159 2438 1159 1844 
L 1159 0 
L 581 0 
L 581 3500 
L 1159 3500 
L 1159 2956 
Q 1341 3275 1631 3429 
Q 1922 3584 2338 3584 
Q 2397 3584 2469 3576 
Q 2541 3569 2628 3553 
L 2631 2963 
z
" transform="scale(0.015625)"/>
       <path id="DejaVuSans-6e" d="M 3513 2113 
L 3513 0 
L 2938 0 
L 2938 2094 
Q 2938 2591 2744 2837 
Q 2550 3084 2163 3084 
Q 1697 3084 1428 2787 
Q 1159 2491 1159 1978 
L 1159 0 
L 581 0 
L 581 3500 
L 1159 3500 
L 1159 2956 
Q 1366 3272 1645 3428 
Q 1925 3584 2291 3584 
Q 2894 3584 3203 3211 
Q 3513 2838 3513 2113 
z
" transform="scale(0.015625)"/>
       <path id="DejaVuSans-74" d="M 1172 4494 
L 1172 3500 
L 2356 3500 
L 2356 3053 
L 1172 3053 
L 1172 1153 
Q 1172 725 1289 603 
Q 1406 481 1766 481 
L 2356 481 
L 2356 0 
L 1766 0 
Q 1100 0 847 248 
Q 594 497 594 1153 
L 594 3053 
L 172 3053 
L 172 3500 
L 594 3500 
L 594 4494 
L 1172 4494 
z
" transform="scale(0.015625)"/>
       <path id="DejaVuSans-29" d="M 513 4856 
L 1013 4856 
Q 1481 4119 1714 3412 
Q 1947 2706 1947 2009 
Q 1947 1309 1714 600 
Q 1481 -109 1013 -844 
L 513 -844 
Q 928 -128 1133 580 
Q 1338 1288 1338 2009 
Q 1338 2731 1133 3434 
Q 928 4138 513 4856 
z
" transform="scale(0.015625)"/>
      </defs>
      <use xlink:href="#DejaVuSans-54"/>
      <use xlink:href="#DejaVuSans-69" x="57.958984"/>
      <use xlink:href="#DejaVuSans-6d" x="85.742188"/>
      <use xlink:href="#DejaVuSans-65" x="183.154297"/>
      <use xlink:href="#DejaVuSans-20" x="244.677734"/>
      <use xlink:href="#DejaVuSans-28" x="276.464844"/>
      <use xlink:href="#DejaVuSans-68" x="315.478516"/>
      <use xlink:href="#DejaVuSans-6f" x="378.857422"/>
      <use xlink:href="#DejaVuSans-75" x="440.039062"/>
      <use xlink:href="#DejaVuSans-72" x="503.417969"/>
      <use xlink:href="#DejaVuSans-3a" x="542.78125"/>
      <use xlink:href="#DejaVuSans-6d" x="576.472656"/>
      <use xlink:href="#DejaVuSans-69" x="673.884766"/>
      <use xlink:href="#DejaVuSans-6e" x="701.667969"/>
      <use xlink:href="#DejaVuSans-75" x="765.046875"/>
      <use xlink:href="#DejaVuSans-74" x="828.425781"/>
      <use xlink:href="#DejaVuSans-65" x="867.634766"/>
      <use xlink:href="#DejaVuSans-29" x="929.158203"/>
     </g>
    </g>
   </g>
   <g id="matplotlib.axis_2">
    <g id="ytick_1">
     <g id="line2d_13">
      <defs>
       <path id="m3a116d3978" d="M 0 0 
L -3.5 0 
" style="stroke: #000000; stroke-width: 0.8"/>
      </defs>
      <g>
       <use xlink:href="#m3a116d3978" x="53.328125" y="251.259883" style="stroke: #000000; stroke-width: 0.8"/>
      </g>
     </g>
     <g id="text_10">
      <!-- 2850 -->
      <g transform="translate(20.878125 255.059102) scale(0.1 -0.1)">
       <use xlink:href="#DejaVuSans-32"/>
       <use xlink:href="#DejaVuSans-38" x="63.623047"/>
       <use xlink:href="#DejaVuSans-35" x="127.246094"/>
       <use xlink:href="#DejaVuSans-30" x="190.869141"/>
      </g>
     </g>
    </g>
    <g id="ytick_2">
     <g id="line2d_14">
      <g>
       <use xlink:href="#m3a116d3978" x="53.328125" y="204.826102" style="stroke: #000000; stroke-width: 0.8"/>
      </g>
     </g>
     <g id="text_11">
      <!-- 2900 -->
      <g transform="translate(20.878125 208.625321) scale(0.1 -0.1)">
       <defs>
        <path id="DejaVuSans-39" d="M 703 97 
L 703 672 
Q 941 559 1184 500 
Q 1428 441 1663 441 
Q 2288 441 2617 861 
Q 2947 1281 2994 2138 
Q 2813 1869 2534 1725 
Q 2256 1581 1919 1581 
Q 1219 1581 811 2004 
Q 403 2428 403 3163 
Q 403 3881 828 4315 
Q 1253 4750 1959 4750 
Q 2769 4750 3195 4129 
Q 3622 3509 3622 2328 
Q 3622 1225 3098 567 
Q 2575 -91 1691 -91 
Q 1453 -91 1209 -44 
Q 966 3 703 97 
z
M 1959 2075 
Q 2384 2075 2632 2365 
Q 2881 2656 2881 3163 
Q 2881 3666 2632 3958 
Q 2384 4250 1959 4250 
Q 1534 4250 1286 3958 
Q 1038 3666 1038 3163 
Q 1038 2656 1286 2365 
Q 1534 2075 1959 2075 
z
" transform="scale(0.015625)"/>
       </defs>
       <use xlink:href="#DejaVuSans-32"/>
       <use xlink:href="#DejaVuSans-39" x="63.623047"/>
       <use xlink:href="#DejaVuSans-30" x="127.246094"/>
       <use xlink:href="#DejaVuSans-30" x="190.869141"/>
      </g>
     </g>
    </g>
    <g id="ytick_3">
     <g id="line2d_15">
      <g>
       <use xlink:href="#m3a116d3978" x="53.328125" y="158.392321" style="stroke: #000000; stroke-width: 0.8"/>
      </g>
     </g>
     <g id="text_12">
      <!-- 2950 -->
      <g transform="translate(20.878125 162.19154) scale(0.1 -0.1)">
       <use xlink:href="#DejaVuSans-32"/>
       <use xlink:href="#DejaVuSans-39" x="63.623047"/>
       <use xlink:href="#DejaVuSans-35" x="127.246094"/>
       <use xlink:href="#DejaVuSans-30" x="190.869141"/>
      </g>
     </g>
    </g>
    <g id="ytick_4">
     <g id="line2d_16">
      <g>
       <use xlink:href="#m3a116d3978" x="53.328125" y="111.95854" style="stroke: #000000; stroke-width: 0.8"/>
      </g>
     </g>
     <g id="text_13">
      <!-- 3000 -->
      <g transform="translate(20.878125 115.757758) scale(0.1 -0.1)">
       <defs>
        <path id="DejaVuSans-33" d="M 2597 2516 
Q 3050 2419 3304 2112 
Q 3559 1806 3559 1356 
Q 3559 666 3084 287 
Q 2609 -91 1734 -91 
Q 1441 -91 1130 -33 
Q 819 25 488 141 
L 488 750 
Q 750 597 1062 519 
Q 1375 441 1716 441 
Q 2309 441 2620 675 
Q 2931 909 2931 1356 
Q 2931 1769 2642 2001 
Q 2353 2234 1838 2234 
L 1294 2234 
L 1294 2753 
L 1863 2753 
Q 2328 2753 2575 2939 
Q 2822 3125 2822 3475 
Q 2822 3834 2567 4026 
Q 2313 4219 1838 4219 
Q 1578 4219 1281 4162 
Q 984 4106 628 3988 
L 628 4550 
Q 988 4650 1302 4700 
Q 1616 4750 1894 4750 
Q 2613 4750 3031 4423 
Q 3450 4097 3450 3541 
Q 3450 3153 3228 2886 
Q 3006 2619 2597 2516 
z
" transform="scale(0.015625)"/>
       </defs>
       <use xlink:href="#DejaVuSans-33"/>
       <use xlink:href="#DejaVuSans-30" x="63.623047"/>
       <use xlink:href="#DejaVuSans-30" x="127.246094"/>
       <use xlink:href="#DejaVuSans-30" x="190.869141"/>
      </g>
     </g>
    </g>
    <g id="ytick_5">
     <g id="line2d_17">
      <g>
       <use xlink:href="#m3a116d3978" x="53.328125" y="65.524758" style="stroke: #000000; stroke-width: 0.8"/>
      </g>
     </g>
     <g id="text_14">
      <!-- 3050 -->
      <g transform="translate(20.878125 69.323977) scale(0.1 -0.1)">
       <use xlink:href="#DejaVuSans-33"/>
       <use xlink:href="#DejaVuSans-30" x="63.623047"/>
       <use xlink:href="#DejaVuSans-35" x="127.246094"/>
       <use xlink:href="#DejaVuSans-30" x="190.869141"/>
      </g>
     </g>
    </g>
    <g id="text_15">
     <!-- Code branch coverage -->
     <g transform="translate(14.798438 211.949125) rotate(-90) scale(0.1 -0.1)">
      <defs>
       <path id="DejaVuSans-43" d="M 4122 4306 
L 4122 3641 
Q 3803 3938 3442 4084 
Q 3081 4231 2675 4231 
Q 1875 4231 1450 3742 
Q 1025 3253 1025 2328 
Q 1025 1406 1450 917 
Q 1875 428 2675 428 
Q 3081 428 3442 575 
Q 3803 722 4122 1019 
L 4122 359 
Q 3791 134 3420 21 
Q 3050 -91 2638 -91 
Q 1578 -91 968 557 
Q 359 1206 359 2328 
Q 359 3453 968 4101 
Q 1578 4750 2638 4750 
Q 3056 4750 3426 4639 
Q 3797 4528 4122 4306 
z
" transform="scale(0.015625)"/>
       <path id="DejaVuSans-64" d="M 2906 2969 
L 2906 4863 
L 3481 4863 
L 3481 0 
L 2906 0 
L 2906 525 
Q 2725 213 2448 61 
Q 2172 -91 1784 -91 
Q 1150 -91 751 415 
Q 353 922 353 1747 
Q 353 2572 751 3078 
Q 1150 3584 1784 3584 
Q 2172 3584 2448 3432 
Q 2725 3281 2906 2969 
z
M 947 1747 
Q 947 1113 1208 752 
Q 1469 391 1925 391 
Q 2381 391 2643 752 
Q 2906 1113 2906 1747 
Q 2906 2381 2643 2742 
Q 2381 3103 1925 3103 
Q 1469 3103 1208 2742 
Q 947 2381 947 1747 
z
" transform="scale(0.015625)"/>
       <path id="DejaVuSans-62" d="M 3116 1747 
Q 3116 2381 2855 2742 
Q 2594 3103 2138 3103 
Q 1681 3103 1420 2742 
Q 1159 2381 1159 1747 
Q 1159 1113 1420 752 
Q 1681 391 2138 391 
Q 2594 391 2855 752 
Q 3116 1113 3116 1747 
z
M 1159 2969 
Q 1341 3281 1617 3432 
Q 1894 3584 2278 3584 
Q 2916 3584 3314 3078 
Q 3713 2572 3713 1747 
Q 3713 922 3314 415 
Q 2916 -91 2278 -91 
Q 1894 -91 1617 61 
Q 1341 213 1159 525 
L 1159 0 
L 581 0 
L 581 4863 
L 1159 4863 
L 1159 2969 
z
" transform="scale(0.015625)"/>
       <path id="DejaVuSans-61" d="M 2194 1759 
Q 1497 1759 1228 1600 
Q 959 1441 959 1056 
Q 959 750 1161 570 
Q 1363 391 1709 391 
Q 2188 391 2477 730 
Q 2766 1069 2766 1631 
L 2766 1759 
L 2194 1759 
z
M 3341 1997 
L 3341 0 
L 2766 0 
L 2766 531 
Q 2569 213 2275 61 
Q 1981 -91 1556 -91 
Q 1019 -91 701 211 
Q 384 513 384 1019 
Q 384 1609 779 1909 
Q 1175 2209 1959 2209 
L 2766 2209 
L 2766 2266 
Q 2766 2663 2505 2880 
Q 2244 3097 1772 3097 
Q 1472 3097 1187 3025 
Q 903 2953 641 2809 
L 641 3341 
Q 956 3463 1253 3523 
Q 1550 3584 1831 3584 
Q 2591 3584 2966 3190 
Q 3341 2797 3341 1997 
z
" transform="scale(0.015625)"/>
       <path id="DejaVuSans-63" d="M 3122 3366 
L 3122 2828 
Q 2878 2963 2633 3030 
Q 2388 3097 2138 3097 
Q 1578 3097 1268 2742 
Q 959 2388 959 1747 
Q 959 1106 1268 751 
Q 1578 397 2138 397 
Q 2388 397 2633 464 
Q 2878 531 3122 666 
L 3122 134 
Q 2881 22 2623 -34 
Q 2366 -91 2075 -91 
Q 1284 -91 818 406 
Q 353 903 353 1747 
Q 353 2603 823 3093 
Q 1294 3584 2113 3584 
Q 2378 3584 2631 3529 
Q 2884 3475 3122 3366 
z
" transform="scale(0.015625)"/>
       <path id="DejaVuSans-76" d="M 191 3500 
L 800 3500 
L 1894 563 
L 2988 3500 
L 3597 3500 
L 2284 0 
L 1503 0 
L 191 3500 
z
" transform="scale(0.015625)"/>
       <path id="DejaVuSans-67" d="M 2906 1791 
Q 2906 2416 2648 2759 
Q 2391 3103 1925 3103 
Q 1463 3103 1205 2759 
Q 947 2416 947 1791 
Q 947 1169 1205 825 
Q 1463 481 1925 481 
Q 2391 481 2648 825 
Q 2906 1169 2906 1791 
z
M 3481 434 
Q 3481 -459 3084 -895 
Q 2688 -1331 1869 -1331 
Q 1566 -1331 1297 -1286 
Q 1028 -1241 775 -1147 
L 775 -588 
Q 1028 -725 1275 -790 
Q 1522 -856 1778 -856 
Q 2344 -856 2625 -561 
Q 2906 -266 2906 331 
L 2906 616 
Q 2728 306 2450 153 
Q 2172 0 1784 0 
Q 1141 0 747 490 
Q 353 981 353 1791 
Q 353 2603 747 3093 
Q 1141 3584 1784 3584 
Q 2172 3584 2450 3431 
Q 2728 3278 2906 2969 
L 2906 3500 
L 3481 3500 
L 3481 434 
z
" transform="scale(0.015625)"/>
      </defs>
      <use xlink:href="#DejaVuSans-43"/>
      <use xlink:href="#DejaVuSans-6f" x="69.824219"/>
      <use xlink:href="#DejaVuSans-64" x="131.005859"/>
      <use xlink:href="#DejaVuSans-65" x="194.482422"/>
      <use xlink:href="#DejaVuSans-20" x="256.005859"/>
      <use xlink:href="#DejaVuSans-62" x="287.792969"/>
      <use xlink:href="#DejaVuSans-72" x="351.269531"/>
      <use xlink:href="#DejaVuSans-61" x="392.382812"/>
      <use xlink:href="#DejaVuSans-6e" x="453.662109"/>
      <use xlink:href="#DejaVuSans-63" x="517.041016"/>
      <use xlink:href="#DejaVuSans-68" x="572.021484"/>
      <use xlink:href="#DejaVuSans-20" x="635.400391"/>
      <use xlink:href="#DejaVuSans-63" x="667.1875"/>
      <use xlink:href="#DejaVuSans-6f" x="722.167969"/>
      <use xlink:href="#DejaVuSans-76" x="783.349609"/>
      <use xlink:href="#DejaVuSans-65" x="842.529297"/>
      <use xlink:href="#DejaVuSans-72" x="904.052734"/>
      <use xlink:href="#DejaVuSans-61" x="945.166016"/>
      <use xlink:href="#DejaVuSans-67" x="1006.445312"/>
      <use xlink:href="#DejaVuSans-65" x="1069.921875"/>
     </g>
    </g>
   </g>
   <g id="line2d_18">
    <path d="M 53.328125 276.334125 
L 519.474297 184.859576 
L 556.751639 160.71401 
L 578.557487 150.498578 
L 594.028982 142.140497 
L 606.029605 142.140497 
L 615.834829 141.67616 
L 624.125027 139.818808 
L 631.306324 138.890133 
L 637.640676 138.425795 
L 643.306948 137.497119 
L 648.432713 137.032781 
L 653.112171 134.711092 
L 657.416855 133.782417 
L 661.40237 133.318079 
L 665.112795 117.994931 
L 668.583666 117.994931 
L 671.844048 104.993472 
L 674.918019 100.814432 
L 677.825745 100.350094 
L 680.58429 100.350094 
L 683.208217 100.350094 
L 685.710056 100.350094 
L 688.100664 99.885756 
L 690.389513 99.421419 
L 692.584914 96.635392 
L 694.694197 96.635392 
L 696.723866 96.635392 
L 698.679712 96.635392 
L 700.566917 96.635392 
L 702.390137 96.635392 
L 704.153569 96.635392 
L 705.861008 96.171054 
L 707.515903 96.171054 
L 709.121391 95.706716 
L 710.680336 95.706716 
L 712.195361 95.706716 
L 713.668873 95.706716 
L 715.103087 95.706716 
L 716.500045 83.633933 
L 717.861632 83.169595 
L 719.189597 83.169595 
L 720.485559 65.060421 
L 721.751025 60.417042 
L 722.987398 60.417042 
L 724.195985 60.417042 
L 725.378007 47.879922 
L 726.534607 47.879922 
L 727.666856 47.879922 
L 728.775758 47.879922 
L 729.862256 43.236543 
L 730.927238 43.236543 
L 731.971539 43.236543 
L 732.995948 43.236543 
L 734.001208 43.236543 
L 734.988022 43.236543 
L 735.957054 43.236543 
L 736.908934 43.236543 
L 737.84426 43.236543 
L 738.763595 43.236543 
L 739.667479 43.236543 
L 740.556423 43.236543 
L 741.430911 43.236543 
L 742.291407 43.236543 
L 743.138351 43.236543 
L 743.972163 43.236543 
L 744.793245 42.772206 
L 745.60198 42.772206 
L 746.398733 42.772206 
L 747.183854 42.772206 
L 747.957678 42.772206 
L 748.720525 42.772206 
L 749.472703 42.772206 
L 750.214506 36.271476 
L 750.946215 36.271476 
L 751.668103 36.271476 
L 752.380429 36.271476 
L 753.083444 36.271476 
L 753.777387 36.271476 
L 754.46249 36.271476 
L 755.138974 36.271476 
L 755.807055 36.271476 
L 756.466939 36.271476 
L 757.118824 36.271476 
L 757.762901 36.271476 
L 758.399357 36.271476 
L 759.028368 36.271476 
L 759.650107 36.271476 
L 760.26474 36.271476 
L 760.872429 36.271476 
L 761.473327 36.271476 
L 762.067585 36.271476 
L 762.655349 36.271476 
L 763.236758 36.271476 
L 763.811949 36.271476 
L 764.381053 36.271476 
L 764.944198 36.271476 
" clip-path="url(#p4c23bd5743)" style="fill: none; stroke: #1f77b4; stroke-width: 1.5; stroke-linecap: square"/>
    <defs>
     <path id="m866a05f6a8" d="M 0 3 
C 0.795609 3 1.55874 2.683901 2.12132 2.12132 
C 2.683901 1.55874 3 0.795609 3 0 
C 3 -0.795609 2.683901 -1.55874 2.12132 -2.12132 
C 1.55874 -2.683901 0.795609 -3 0 -3 
C -0.795609 -3 -1.55874 -2.683901 -2.12132 -2.12132 
C -2.683901 -1.55874 -3 -0.795609 -3 0 
C -3 0.795609 -2.683901 1.55874 -2.12132 2.12132 
C -1.55874 2.683901 -0.795609 3 0 3 
z
" style="stroke: #ffffff; stroke-width: 0.75"/>
    </defs>
    <g clip-path="url(#p4c23bd5743)">
     <use xlink:href="#m866a05f6a8" x="53.328125" y="276.334125" style="fill: #1f77b4; stroke: #ffffff; stroke-width: 0.75"/>
     <use xlink:href="#m866a05f6a8" x="519.474297" y="184.859576" style="fill: #1f77b4; stroke: #ffffff; stroke-width: 0.75"/>
     <use xlink:href="#m866a05f6a8" x="556.751639" y="160.71401" style="fill: #1f77b4; stroke: #ffffff; stroke-width: 0.75"/>
     <use xlink:href="#m866a05f6a8" x="578.557487" y="150.498578" style="fill: #1f77b4; stroke: #ffffff; stroke-width: 0.75"/>
     <use xlink:href="#m866a05f6a8" x="594.028982" y="142.140497" style="fill: #1f77b4; stroke: #ffffff; stroke-width: 0.75"/>
     <use xlink:href="#m866a05f6a8" x="606.029605" y="142.140497" style="fill: #1f77b4; stroke: #ffffff; stroke-width: 0.75"/>
     <use xlink:href="#m866a05f6a8" x="615.834829" y="141.67616" style="fill: #1f77b4; stroke: #ffffff; stroke-width: 0.75"/>
     <use xlink:href="#m866a05f6a8" x="624.125027" y="139.818808" style="fill: #1f77b4; stroke: #ffffff; stroke-width: 0.75"/>
     <use xlink:href="#m866a05f6a8" x="631.306324" y="138.890133" style="fill: #1f77b4; stroke: #ffffff; stroke-width: 0.75"/>
     <use xlink:href="#m866a05f6a8" x="637.640676" y="138.425795" style="fill: #1f77b4; stroke: #ffffff; stroke-width: 0.75"/>
     <use xlink:href="#m866a05f6a8" x="643.306948" y="137.497119" style="fill: #1f77b4; stroke: #ffffff; stroke-width: 0.75"/>
     <use xlink:href="#m866a05f6a8" x="648.432713" y="137.032781" style="fill: #1f77b4; stroke: #ffffff; stroke-width: 0.75"/>
     <use xlink:href="#m866a05f6a8" x="653.112171" y="134.711092" style="fill: #1f77b4; stroke: #ffffff; stroke-width: 0.75"/>
     <use xlink:href="#m866a05f6a8" x="657.416855" y="133.782417" style="fill: #1f77b4; stroke: #ffffff; stroke-width: 0.75"/>
     <use xlink:href="#m866a05f6a8" x="661.40237" y="133.318079" style="fill: #1f77b4; stroke: #ffffff; stroke-width: 0.75"/>
     <use xlink:href="#m866a05f6a8" x="665.112795" y="117.994931" style="fill: #1f77b4; stroke: #ffffff; stroke-width: 0.75"/>
     <use xlink:href="#m866a05f6a8" x="668.583666" y="117.994931" style="fill: #1f77b4; stroke: #ffffff; stroke-width: 0.75"/>
     <use xlink:href="#m866a05f6a8" x="671.844048" y="104.993472" style="fill: #1f77b4; stroke: #ffffff; stroke-width: 0.75"/>
     <use xlink:href="#m866a05f6a8" x="674.918019" y="100.814432" style="fill: #1f77b4; stroke: #ffffff; stroke-width: 0.75"/>
     <use xlink:href="#m866a05f6a8" x="677.825745" y="100.350094" style="fill: #1f77b4; stroke: #ffffff; stroke-width: 0.75"/>
     <use xlink:href="#m866a05f6a8" x="680.58429" y="100.350094" style="fill: #1f77b4; stroke: #ffffff; stroke-width: 0.75"/>
     <use xlink:href="#m866a05f6a8" x="683.208217" y="100.350094" style="fill: #1f77b4; stroke: #ffffff; stroke-width: 0.75"/>
     <use xlink:href="#m866a05f6a8" x="685.710056" y="100.350094" style="fill: #1f77b4; stroke: #ffffff; stroke-width: 0.75"/>
     <use xlink:href="#m866a05f6a8" x="688.100664" y="99.885756" style="fill: #1f77b4; stroke: #ffffff; stroke-width: 0.75"/>
     <use xlink:href="#m866a05f6a8" x="690.389513" y="99.421419" style="fill: #1f77b4; stroke: #ffffff; stroke-width: 0.75"/>
     <use xlink:href="#m866a05f6a8" x="692.584914" y="96.635392" style="fill: #1f77b4; stroke: #ffffff; stroke-width: 0.75"/>
     <use xlink:href="#m866a05f6a8" x="694.694197" y="96.635392" style="fill: #1f77b4; stroke: #ffffff; stroke-width: 0.75"/>
     <use xlink:href="#m866a05f6a8" x="696.723866" y="96.635392" style="fill: #1f77b4; stroke: #ffffff; stroke-width: 0.75"/>
     <use xlink:href="#m866a05f6a8" x="698.679712" y="96.635392" style="fill: #1f77b4; stroke: #ffffff; stroke-width: 0.75"/>
     <use xlink:href="#m866a05f6a8" x="700.566917" y="96.635392" style="fill: #1f77b4; stroke: #ffffff; stroke-width: 0.75"/>
     <use xlink:href="#m866a05f6a8" x="702.390137" y="96.635392" style="fill: #1f77b4; stroke: #ffffff; stroke-width: 0.75"/>
     <use xlink:href="#m866a05f6a8" x="704.153569" y="96.635392" style="fill: #1f77b4; stroke: #ffffff; stroke-width: 0.75"/>
     <use xlink:href="#m866a05f6a8" x="705.861008" y="96.171054" style="fill: #1f77b4; stroke: #ffffff; stroke-width: 0.75"/>
     <use xlink:href="#m866a05f6a8" x="707.515903" y="96.171054" style="fill: #1f77b4; stroke: #ffffff; stroke-width: 0.75"/>
     <use xlink:href="#m866a05f6a8" x="709.121391" y="95.706716" style="fill: #1f77b4; stroke: #ffffff; stroke-width: 0.75"/>
     <use xlink:href="#m866a05f6a8" x="710.680336" y="95.706716" style="fill: #1f77b4; stroke: #ffffff; stroke-width: 0.75"/>
     <use xlink:href="#m866a05f6a8" x="712.195361" y="95.706716" style="fill: #1f77b4; stroke: #ffffff; stroke-width: 0.75"/>
     <use xlink:href="#m866a05f6a8" x="713.668873" y="95.706716" style="fill: #1f77b4; stroke: #ffffff; stroke-width: 0.75"/>
     <use xlink:href="#m866a05f6a8" x="715.103087" y="95.706716" style="fill: #1f77b4; stroke: #ffffff; stroke-width: 0.75"/>
     <use xlink:href="#m866a05f6a8" x="716.500045" y="83.633933" style="fill: #1f77b4; stroke: #ffffff; stroke-width: 0.75"/>
     <use xlink:href="#m866a05f6a8" x="717.861632" y="83.169595" style="fill: #1f77b4; stroke: #ffffff; stroke-width: 0.75"/>
     <use xlink:href="#m866a05f6a8" x="719.189597" y="83.169595" style="fill: #1f77b4; stroke: #ffffff; stroke-width: 0.75"/>
     <use xlink:href="#m866a05f6a8" x="720.485559" y="65.060421" style="fill: #1f77b4; stroke: #ffffff; stroke-width: 0.75"/>
     <use xlink:href="#m866a05f6a8" x="721.751025" y="60.417042" style="fill: #1f77b4; stroke: #ffffff; stroke-width: 0.75"/>
     <use xlink:href="#m866a05f6a8" x="722.987398" y="60.417042" style="fill: #1f77b4; stroke: #ffffff; stroke-width: 0.75"/>
     <use xlink:href="#m866a05f6a8" x="724.195985" y="60.417042" style="fill: #1f77b4; stroke: #ffffff; stroke-width: 0.75"/>
     <use xlink:href="#m866a05f6a8" x="725.378007" y="47.879922" style="fill: #1f77b4; stroke: #ffffff; stroke-width: 0.75"/>
     <use xlink:href="#m866a05f6a8" x="726.534607" y="47.879922" style="fill: #1f77b4; stroke: #ffffff; stroke-width: 0.75"/>
     <use xlink:href="#m866a05f6a8" x="727.666856" y="47.879922" style="fill: #1f77b4; stroke: #ffffff; stroke-width: 0.75"/>
     <use xlink:href="#m866a05f6a8" x="728.775758" y="47.879922" style="fill: #1f77b4; stroke: #ffffff; stroke-width: 0.75"/>
     <use xlink:href="#m866a05f6a8" x="729.862256" y="43.236543" style="fill: #1f77b4; stroke: #ffffff; stroke-width: 0.75"/>
     <use xlink:href="#m866a05f6a8" x="730.927238" y="43.236543" style="fill: #1f77b4; stroke: #ffffff; stroke-width: 0.75"/>
     <use xlink:href="#m866a05f6a8" x="731.971539" y="43.236543" style="fill: #1f77b4; stroke: #ffffff; stroke-width: 0.75"/>
     <use xlink:href="#m866a05f6a8" x="732.995948" y="43.236543" style="fill: #1f77b4; stroke: #ffffff; stroke-width: 0.75"/>
     <use xlink:href="#m866a05f6a8" x="734.001208" y="43.236543" style="fill: #1f77b4; stroke: #ffffff; stroke-width: 0.75"/>
     <use xlink:href="#m866a05f6a8" x="734.988022" y="43.236543" style="fill: #1f77b4; stroke: #ffffff; stroke-width: 0.75"/>
     <use xlink:href="#m866a05f6a8" x="735.957054" y="43.236543" style="fill: #1f77b4; stroke: #ffffff; stroke-width: 0.75"/>
     <use xlink:href="#m866a05f6a8" x="736.908934" y="43.236543" style="fill: #1f77b4; stroke: #ffffff; stroke-width: 0.75"/>
     <use xlink:href="#m866a05f6a8" x="737.84426" y="43.236543" style="fill: #1f77b4; stroke: #ffffff; stroke-width: 0.75"/>
     <use xlink:href="#m866a05f6a8" x="738.763595" y="43.236543" style="fill: #1f77b4; stroke: #ffffff; stroke-width: 0.75"/>
     <use xlink:href="#m866a05f6a8" x="739.667479" y="43.236543" style="fill: #1f77b4; stroke: #ffffff; stroke-width: 0.75"/>
     <use xlink:href="#m866a05f6a8" x="740.556423" y="43.236543" style="fill: #1f77b4; stroke: #ffffff; stroke-width: 0.75"/>
     <use xlink:href="#m866a05f6a8" x="741.430911" y="43.236543" style="fill: #1f77b4; stroke: #ffffff; stroke-width: 0.75"/>
     <use xlink:href="#m866a05f6a8" x="742.291407" y="43.236543" style="fill: #1f77b4; stroke: #ffffff; stroke-width: 0.75"/>
     <use xlink:href="#m866a05f6a8" x="743.138351" y="43.236543" style="fill: #1f77b4; stroke: #ffffff; stroke-width: 0.75"/>
     <use xlink:href="#m866a05f6a8" x="743.972163" y="43.236543" style="fill: #1f77b4; stroke: #ffffff; stroke-width: 0.75"/>
     <use xlink:href="#m866a05f6a8" x="744.793245" y="42.772206" style="fill: #1f77b4; stroke: #ffffff; stroke-width: 0.75"/>
     <use xlink:href="#m866a05f6a8" x="745.60198" y="42.772206" style="fill: #1f77b4; stroke: #ffffff; stroke-width: 0.75"/>
     <use xlink:href="#m866a05f6a8" x="746.398733" y="42.772206" style="fill: #1f77b4; stroke: #ffffff; stroke-width: 0.75"/>
     <use xlink:href="#m866a05f6a8" x="747.183854" y="42.772206" style="fill: #1f77b4; stroke: #ffffff; stroke-width: 0.75"/>
     <use xlink:href="#m866a05f6a8" x="747.957678" y="42.772206" style="fill: #1f77b4; stroke: #ffffff; stroke-width: 0.75"/>
     <use xlink:href="#m866a05f6a8" x="748.720525" y="42.772206" style="fill: #1f77b4; stroke: #ffffff; stroke-width: 0.75"/>
     <use xlink:href="#m866a05f6a8" x="749.472703" y="42.772206" style="fill: #1f77b4; stroke: #ffffff; stroke-width: 0.75"/>
     <use xlink:href="#m866a05f6a8" x="750.214506" y="36.271476" style="fill: #1f77b4; stroke: #ffffff; stroke-width: 0.75"/>
     <use xlink:href="#m866a05f6a8" x="750.946215" y="36.271476" style="fill: #1f77b4; stroke: #ffffff; stroke-width: 0.75"/>
     <use xlink:href="#m866a05f6a8" x="751.668103" y="36.271476" style="fill: #1f77b4; stroke: #ffffff; stroke-width: 0.75"/>
     <use xlink:href="#m866a05f6a8" x="752.380429" y="36.271476" style="fill: #1f77b4; stroke: #ffffff; stroke-width: 0.75"/>
     <use xlink:href="#m866a05f6a8" x="753.083444" y="36.271476" style="fill: #1f77b4; stroke: #ffffff; stroke-width: 0.75"/>
     <use xlink:href="#m866a05f6a8" x="753.777387" y="36.271476" style="fill: #1f77b4; stroke: #ffffff; stroke-width: 0.75"/>
     <use xlink:href="#m866a05f6a8" x="754.46249" y="36.271476" style="fill: #1f77b4; stroke: #ffffff; stroke-width: 0.75"/>
     <use xlink:href="#m866a05f6a8" x="755.138974" y="36.271476" style="fill: #1f77b4; stroke: #ffffff; stroke-width: 0.75"/>
     <use xlink:href="#m866a05f6a8" x="755.807055" y="36.271476" style="fill: #1f77b4; stroke: #ffffff; stroke-width: 0.75"/>
     <use xlink:href="#m866a05f6a8" x="756.466939" y="36.271476" style="fill: #1f77b4; stroke: #ffffff; stroke-width: 0.75"/>
     <use xlink:href="#m866a05f6a8" x="757.118824" y="36.271476" style="fill: #1f77b4; stroke: #ffffff; stroke-width: 0.75"/>
     <use xlink:href="#m866a05f6a8" x="757.762901" y="36.271476" style="fill: #1f77b4; stroke: #ffffff; stroke-width: 0.75"/>
     <use xlink:href="#m866a05f6a8" x="758.399357" y="36.271476" style="fill: #1f77b4; stroke: #ffffff; stroke-width: 0.75"/>
     <use xlink:href="#m866a05f6a8" x="759.028368" y="36.271476" style="fill: #1f77b4; stroke: #ffffff; stroke-width: 0.75"/>
     <use xlink:href="#m866a05f6a8" x="759.650107" y="36.271476" style="fill: #1f77b4; stroke: #ffffff; stroke-width: 0.75"/>
     <use xlink:href="#m866a05f6a8" x="760.26474" y="36.271476" style="fill: #1f77b4; stroke: #ffffff; stroke-width: 0.75"/>
     <use xlink:href="#m866a05f6a8" x="760.872429" y="36.271476" style="fill: #1f77b4; stroke: #ffffff; stroke-width: 0.75"/>
     <use xlink:href="#m866a05f6a8" x="761.473327" y="36.271476" style="fill: #1f77b4; stroke: #ffffff; stroke-width: 0.75"/>
     <use xlink:href="#m866a05f6a8" x="762.067585" y="36.271476" style="fill: #1f77b4; stroke: #ffffff; stroke-width: 0.75"/>
     <use xlink:href="#m866a05f6a8" x="762.655349" y="36.271476" style="fill: #1f77b4; stroke: #ffffff; stroke-width: 0.75"/>
     <use xlink:href="#m866a05f6a8" x="763.236758" y="36.271476" style="fill: #1f77b4; stroke: #ffffff; stroke-width: 0.75"/>
     <use xlink:href="#m866a05f6a8" x="763.811949" y="36.271476" style="fill: #1f77b4; stroke: #ffffff; stroke-width: 0.75"/>
     <use xlink:href="#m866a05f6a8" x="764.381053" y="36.271476" style="fill: #1f77b4; stroke: #ffffff; stroke-width: 0.75"/>
     <use xlink:href="#m866a05f6a8" x="764.944198" y="36.271476" style="fill: #1f77b4; stroke: #ffffff; stroke-width: 0.75"/>
    </g>
   </g>
   <g id="line2d_19">
    <path d="M 53.328125 276.334125 
L 519.474297 182.073549 
L 556.751639 154.677618 
L 578.557487 145.8552 
L 594.028982 142.140497 
L 606.029605 140.283146 
L 615.834829 138.425795 
L 624.125027 137.497119 
L 631.306324 137.032781 
L 637.640676 136.104106 
L 643.306948 136.104106 
L 648.432713 135.17543 
L 653.112171 134.711092 
L 657.416855 134.711092 
L 661.40237 134.246755 
L 665.112795 133.782417 
L 668.583666 133.318079 
L 671.844048 133.318079 
L 674.918019 133.318079 
L 677.825745 133.318079 
L 680.58429 132.389403 
L 683.208217 131.925065 
L 685.710056 116.601918 
L 688.100664 103.136121 
L 690.389513 103.136121 
L 692.584914 102.207446 
L 694.694197 102.207446 
L 696.723866 100.350094 
L 698.679712 98.492743 
L 700.566917 98.028405 
L 702.390137 97.564067 
L 704.153569 97.564067 
L 705.861008 97.564067 
L 707.515903 97.564067 
L 709.121391 97.09973 
L 710.680336 97.09973 
L 712.195361 97.09973 
L 713.668873 96.635392 
L 715.103087 96.635392 
L 716.500045 96.171054 
L 717.861632 96.171054 
L 719.189597 96.171054 
L 720.485559 96.171054 
L 721.751025 96.171054 
L 722.987398 96.171054 
L 724.195985 96.171054 
L 725.378007 96.171054 
L 726.534607 96.171054 
L 727.666856 96.171054 
L 728.775758 96.171054 
L 729.862256 96.171054 
L 730.927238 95.706716 
L 731.971539 95.706716 
L 732.995948 95.706716 
L 734.001208 95.706716 
L 734.988022 95.706716 
L 735.957054 95.706716 
L 736.908934 95.706716 
L 737.84426 95.706716 
L 738.763595 95.706716 
L 739.667479 95.706716 
L 740.556423 95.706716 
L 741.430911 95.706716 
L 742.291407 95.706716 
L 743.138351 95.706716 
L 743.972163 95.706716 
L 744.793245 95.706716 
L 745.60198 95.706716 
L 746.398733 95.706716 
L 747.183854 95.706716 
L 747.957678 95.706716 
L 748.720525 95.706716 
L 749.472703 95.706716 
L 750.214506 95.706716 
L 750.946215 95.706716 
L 751.668103 82.705257 
L 752.380429 82.705257 
L 753.083444 82.705257 
L 753.777387 82.705257 
L 754.46249 82.705257 
L 755.138974 82.705257 
L 755.807055 53.451975 
L 756.466939 53.451975 
L 757.118824 53.451975 
L 757.762901 53.451975 
L 758.399357 53.451975 
L 759.028368 52.5233 
L 759.650107 52.5233 
L 760.26474 52.5233 
L 760.872429 52.5233 
L 761.473327 52.5233 
L 762.067585 52.5233 
L 762.655349 52.5233 
L 763.236758 52.5233 
L 763.811949 52.5233 
L 764.381053 52.5233 
L 764.944198 52.5233 
" clip-path="url(#p4c23bd5743)" style="fill: none; stroke: #98df8a; stroke-width: 1.5; stroke-linecap: square"/>
    <defs>
     <path id="m18e9a81faf" d="M -0 3 
L 3 -3 
L -3 -3 
z
" style="stroke: #ffffff; stroke-width: 0.75; stroke-linejoin: miter"/>
    </defs>
    <g clip-path="url(#p4c23bd5743)">
     <use xlink:href="#m18e9a81faf" x="53.328125" y="276.334125" style="fill: #98df8a; stroke: #ffffff; stroke-width: 0.75; stroke-linejoin: miter"/>
     <use xlink:href="#m18e9a81faf" x="519.474297" y="182.073549" style="fill: #98df8a; stroke: #ffffff; stroke-width: 0.75; stroke-linejoin: miter"/>
     <use xlink:href="#m18e9a81faf" x="556.751639" y="154.677618" style="fill: #98df8a; stroke: #ffffff; stroke-width: 0.75; stroke-linejoin: miter"/>
     <use xlink:href="#m18e9a81faf" x="578.557487" y="145.8552" style="fill: #98df8a; stroke: #ffffff; stroke-width: 0.75; stroke-linejoin: miter"/>
     <use xlink:href="#m18e9a81faf" x="594.028982" y="142.140497" style="fill: #98df8a; stroke: #ffffff; stroke-width: 0.75; stroke-linejoin: miter"/>
     <use xlink:href="#m18e9a81faf" x="606.029605" y="140.283146" style="fill: #98df8a; stroke: #ffffff; stroke-width: 0.75; stroke-linejoin: miter"/>
     <use xlink:href="#m18e9a81faf" x="615.834829" y="138.425795" style="fill: #98df8a; stroke: #ffffff; stroke-width: 0.75; stroke-linejoin: miter"/>
     <use xlink:href="#m18e9a81faf" x="624.125027" y="137.497119" style="fill: #98df8a; stroke: #ffffff; stroke-width: 0.75; stroke-linejoin: miter"/>
     <use xlink:href="#m18e9a81faf" x="631.306324" y="137.032781" style="fill: #98df8a; stroke: #ffffff; stroke-width: 0.75; stroke-linejoin: miter"/>
     <use xlink:href="#m18e9a81faf" x="637.640676" y="136.104106" style="fill: #98df8a; stroke: #ffffff; stroke-width: 0.75; stroke-linejoin: miter"/>
     <use xlink:href="#m18e9a81faf" x="643.306948" y="136.104106" style="fill: #98df8a; stroke: #ffffff; stroke-width: 0.75; stroke-linejoin: miter"/>
     <use xlink:href="#m18e9a81faf" x="648.432713" y="135.17543" style="fill: #98df8a; stroke: #ffffff; stroke-width: 0.75; stroke-linejoin: miter"/>
     <use xlink:href="#m18e9a81faf" x="653.112171" y="134.711092" style="fill: #98df8a; stroke: #ffffff; stroke-width: 0.75; stroke-linejoin: miter"/>
     <use xlink:href="#m18e9a81faf" x="657.416855" y="134.711092" style="fill: #98df8a; stroke: #ffffff; stroke-width: 0.75; stroke-linejoin: miter"/>
     <use xlink:href="#m18e9a81faf" x="661.40237" y="134.246755" style="fill: #98df8a; stroke: #ffffff; stroke-width: 0.75; stroke-linejoin: miter"/>
     <use xlink:href="#m18e9a81faf" x="665.112795" y="133.782417" style="fill: #98df8a; stroke: #ffffff; stroke-width: 0.75; stroke-linejoin: miter"/>
     <use xlink:href="#m18e9a81faf" x="668.583666" y="133.318079" style="fill: #98df8a; stroke: #ffffff; stroke-width: 0.75; stroke-linejoin: miter"/>
     <use xlink:href="#m18e9a81faf" x="671.844048" y="133.318079" style="fill: #98df8a; stroke: #ffffff; stroke-width: 0.75; stroke-linejoin: miter"/>
     <use xlink:href="#m18e9a81faf" x="674.918019" y="133.318079" style="fill: #98df8a; stroke: #ffffff; stroke-width: 0.75; stroke-linejoin: miter"/>
     <use xlink:href="#m18e9a81faf" x="677.825745" y="133.318079" style="fill: #98df8a; stroke: #ffffff; stroke-width: 0.75; stroke-linejoin: miter"/>
     <use xlink:href="#m18e9a81faf" x="680.58429" y="132.389403" style="fill: #98df8a; stroke: #ffffff; stroke-width: 0.75; stroke-linejoin: miter"/>
     <use xlink:href="#m18e9a81faf" x="683.208217" y="131.925065" style="fill: #98df8a; stroke: #ffffff; stroke-width: 0.75; stroke-linejoin: miter"/>
     <use xlink:href="#m18e9a81faf" x="685.710056" y="116.601918" style="fill: #98df8a; stroke: #ffffff; stroke-width: 0.75; stroke-linejoin: miter"/>
     <use xlink:href="#m18e9a81faf" x="688.100664" y="103.136121" style="fill: #98df8a; stroke: #ffffff; stroke-width: 0.75; stroke-linejoin: miter"/>
     <use xlink:href="#m18e9a81faf" x="690.389513" y="103.136121" style="fill: #98df8a; stroke: #ffffff; stroke-width: 0.75; stroke-linejoin: miter"/>
     <use xlink:href="#m18e9a81faf" x="692.584914" y="102.207446" style="fill: #98df8a; stroke: #ffffff; stroke-width: 0.75; stroke-linejoin: miter"/>
     <use xlink:href="#m18e9a81faf" x="694.694197" y="102.207446" style="fill: #98df8a; stroke: #ffffff; stroke-width: 0.75; stroke-linejoin: miter"/>
     <use xlink:href="#m18e9a81faf" x="696.723866" y="100.350094" style="fill: #98df8a; stroke: #ffffff; stroke-width: 0.75; stroke-linejoin: miter"/>
     <use xlink:href="#m18e9a81faf" x="698.679712" y="98.492743" style="fill: #98df8a; stroke: #ffffff; stroke-width: 0.75; stroke-linejoin: miter"/>
     <use xlink:href="#m18e9a81faf" x="700.566917" y="98.028405" style="fill: #98df8a; stroke: #ffffff; stroke-width: 0.75; stroke-linejoin: miter"/>
     <use xlink:href="#m18e9a81faf" x="702.390137" y="97.564067" style="fill: #98df8a; stroke: #ffffff; stroke-width: 0.75; stroke-linejoin: miter"/>
     <use xlink:href="#m18e9a81faf" x="704.153569" y="97.564067" style="fill: #98df8a; stroke: #ffffff; stroke-width: 0.75; stroke-linejoin: miter"/>
     <use xlink:href="#m18e9a81faf" x="705.861008" y="97.564067" style="fill: #98df8a; stroke: #ffffff; stroke-width: 0.75; stroke-linejoin: miter"/>
     <use xlink:href="#m18e9a81faf" x="707.515903" y="97.564067" style="fill: #98df8a; stroke: #ffffff; stroke-width: 0.75; stroke-linejoin: miter"/>
     <use xlink:href="#m18e9a81faf" x="709.121391" y="97.09973" style="fill: #98df8a; stroke: #ffffff; stroke-width: 0.75; stroke-linejoin: miter"/>
     <use xlink:href="#m18e9a81faf" x="710.680336" y="97.09973" style="fill: #98df8a; stroke: #ffffff; stroke-width: 0.75; stroke-linejoin: miter"/>
     <use xlink:href="#m18e9a81faf" x="712.195361" y="97.09973" style="fill: #98df8a; stroke: #ffffff; stroke-width: 0.75; stroke-linejoin: miter"/>
     <use xlink:href="#m18e9a81faf" x="713.668873" y="96.635392" style="fill: #98df8a; stroke: #ffffff; stroke-width: 0.75; stroke-linejoin: miter"/>
     <use xlink:href="#m18e9a81faf" x="715.103087" y="96.635392" style="fill: #98df8a; stroke: #ffffff; stroke-width: 0.75; stroke-linejoin: miter"/>
     <use xlink:href="#m18e9a81faf" x="716.500045" y="96.171054" style="fill: #98df8a; stroke: #ffffff; stroke-width: 0.75; stroke-linejoin: miter"/>
     <use xlink:href="#m18e9a81faf" x="717.861632" y="96.171054" style="fill: #98df8a; stroke: #ffffff; stroke-width: 0.75; stroke-linejoin: miter"/>
     <use xlink:href="#m18e9a81faf" x="719.189597" y="96.171054" style="fill: #98df8a; stroke: #ffffff; stroke-width: 0.75; stroke-linejoin: miter"/>
     <use xlink:href="#m18e9a81faf" x="720.485559" y="96.171054" style="fill: #98df8a; stroke: #ffffff; stroke-width: 0.75; stroke-linejoin: miter"/>
     <use xlink:href="#m18e9a81faf" x="721.751025" y="96.171054" style="fill: #98df8a; stroke: #ffffff; stroke-width: 0.75; stroke-linejoin: miter"/>
     <use xlink:href="#m18e9a81faf" x="722.987398" y="96.171054" style="fill: #98df8a; stroke: #ffffff; stroke-width: 0.75; stroke-linejoin: miter"/>
     <use xlink:href="#m18e9a81faf" x="724.195985" y="96.171054" style="fill: #98df8a; stroke: #ffffff; stroke-width: 0.75; stroke-linejoin: miter"/>
     <use xlink:href="#m18e9a81faf" x="725.378007" y="96.171054" style="fill: #98df8a; stroke: #ffffff; stroke-width: 0.75; stroke-linejoin: miter"/>
     <use xlink:href="#m18e9a81faf" x="726.534607" y="96.171054" style="fill: #98df8a; stroke: #ffffff; stroke-width: 0.75; stroke-linejoin: miter"/>
     <use xlink:href="#m18e9a81faf" x="727.666856" y="96.171054" style="fill: #98df8a; stroke: #ffffff; stroke-width: 0.75; stroke-linejoin: miter"/>
     <use xlink:href="#m18e9a81faf" x="728.775758" y="96.171054" style="fill: #98df8a; stroke: #ffffff; stroke-width: 0.75; stroke-linejoin: miter"/>
     <use xlink:href="#m18e9a81faf" x="729.862256" y="96.171054" style="fill: #98df8a; stroke: #ffffff; stroke-width: 0.75; stroke-linejoin: miter"/>
     <use xlink:href="#m18e9a81faf" x="730.927238" y="95.706716" style="fill: #98df8a; stroke: #ffffff; stroke-width: 0.75; stroke-linejoin: miter"/>
     <use xlink:href="#m18e9a81faf" x="731.971539" y="95.706716" style="fill: #98df8a; stroke: #ffffff; stroke-width: 0.75; stroke-linejoin: miter"/>
     <use xlink:href="#m18e9a81faf" x="732.995948" y="95.706716" style="fill: #98df8a; stroke: #ffffff; stroke-width: 0.75; stroke-linejoin: miter"/>
     <use xlink:href="#m18e9a81faf" x="734.001208" y="95.706716" style="fill: #98df8a; stroke: #ffffff; stroke-width: 0.75; stroke-linejoin: miter"/>
     <use xlink:href="#m18e9a81faf" x="734.988022" y="95.706716" style="fill: #98df8a; stroke: #ffffff; stroke-width: 0.75; stroke-linejoin: miter"/>
     <use xlink:href="#m18e9a81faf" x="735.957054" y="95.706716" style="fill: #98df8a; stroke: #ffffff; stroke-width: 0.75; stroke-linejoin: miter"/>
     <use xlink:href="#m18e9a81faf" x="736.908934" y="95.706716" style="fill: #98df8a; stroke: #ffffff; stroke-width: 0.75; stroke-linejoin: miter"/>
     <use xlink:href="#m18e9a81faf" x="737.84426" y="95.706716" style="fill: #98df8a; stroke: #ffffff; stroke-width: 0.75; stroke-linejoin: miter"/>
     <use xlink:href="#m18e9a81faf" x="738.763595" y="95.706716" style="fill: #98df8a; stroke: #ffffff; stroke-width: 0.75; stroke-linejoin: miter"/>
     <use xlink:href="#m18e9a81faf" x="739.667479" y="95.706716" style="fill: #98df8a; stroke: #ffffff; stroke-width: 0.75; stroke-linejoin: miter"/>
     <use xlink:href="#m18e9a81faf" x="740.556423" y="95.706716" style="fill: #98df8a; stroke: #ffffff; stroke-width: 0.75; stroke-linejoin: miter"/>
     <use xlink:href="#m18e9a81faf" x="741.430911" y="95.706716" style="fill: #98df8a; stroke: #ffffff; stroke-width: 0.75; stroke-linejoin: miter"/>
     <use xlink:href="#m18e9a81faf" x="742.291407" y="95.706716" style="fill: #98df8a; stroke: #ffffff; stroke-width: 0.75; stroke-linejoin: miter"/>
     <use xlink:href="#m18e9a81faf" x="743.138351" y="95.706716" style="fill: #98df8a; stroke: #ffffff; stroke-width: 0.75; stroke-linejoin: miter"/>
     <use xlink:href="#m18e9a81faf" x="743.972163" y="95.706716" style="fill: #98df8a; stroke: #ffffff; stroke-width: 0.75; stroke-linejoin: miter"/>
     <use xlink:href="#m18e9a81faf" x="744.793245" y="95.706716" style="fill: #98df8a; stroke: #ffffff; stroke-width: 0.75; stroke-linejoin: miter"/>
     <use xlink:href="#m18e9a81faf" x="745.60198" y="95.706716" style="fill: #98df8a; stroke: #ffffff; stroke-width: 0.75; stroke-linejoin: miter"/>
     <use xlink:href="#m18e9a81faf" x="746.398733" y="95.706716" style="fill: #98df8a; stroke: #ffffff; stroke-width: 0.75; stroke-linejoin: miter"/>
     <use xlink:href="#m18e9a81faf" x="747.183854" y="95.706716" style="fill: #98df8a; stroke: #ffffff; stroke-width: 0.75; stroke-linejoin: miter"/>
     <use xlink:href="#m18e9a81faf" x="747.957678" y="95.706716" style="fill: #98df8a; stroke: #ffffff; stroke-width: 0.75; stroke-linejoin: miter"/>
     <use xlink:href="#m18e9a81faf" x="748.720525" y="95.706716" style="fill: #98df8a; stroke: #ffffff; stroke-width: 0.75; stroke-linejoin: miter"/>
     <use xlink:href="#m18e9a81faf" x="749.472703" y="95.706716" style="fill: #98df8a; stroke: #ffffff; stroke-width: 0.75; stroke-linejoin: miter"/>
     <use xlink:href="#m18e9a81faf" x="750.214506" y="95.706716" style="fill: #98df8a; stroke: #ffffff; stroke-width: 0.75; stroke-linejoin: miter"/>
     <use xlink:href="#m18e9a81faf" x="750.946215" y="95.706716" style="fill: #98df8a; stroke: #ffffff; stroke-width: 0.75; stroke-linejoin: miter"/>
     <use xlink:href="#m18e9a81faf" x="751.668103" y="82.705257" style="fill: #98df8a; stroke: #ffffff; stroke-width: 0.75; stroke-linejoin: miter"/>
     <use xlink:href="#m18e9a81faf" x="752.380429" y="82.705257" style="fill: #98df8a; stroke: #ffffff; stroke-width: 0.75; stroke-linejoin: miter"/>
     <use xlink:href="#m18e9a81faf" x="753.083444" y="82.705257" style="fill: #98df8a; stroke: #ffffff; stroke-width: 0.75; stroke-linejoin: miter"/>
     <use xlink:href="#m18e9a81faf" x="753.777387" y="82.705257" style="fill: #98df8a; stroke: #ffffff; stroke-width: 0.75; stroke-linejoin: miter"/>
     <use xlink:href="#m18e9a81faf" x="754.46249" y="82.705257" style="fill: #98df8a; stroke: #ffffff; stroke-width: 0.75; stroke-linejoin: miter"/>
     <use xlink:href="#m18e9a81faf" x="755.138974" y="82.705257" style="fill: #98df8a; stroke: #ffffff; stroke-width: 0.75; stroke-linejoin: miter"/>
     <use xlink:href="#m18e9a81faf" x="755.807055" y="53.451975" style="fill: #98df8a; stroke: #ffffff; stroke-width: 0.75; stroke-linejoin: miter"/>
     <use xlink:href="#m18e9a81faf" x="756.466939" y="53.451975" style="fill: #98df8a; stroke: #ffffff; stroke-width: 0.75; stroke-linejoin: miter"/>
     <use xlink:href="#m18e9a81faf" x="757.118824" y="53.451975" style="fill: #98df8a; stroke: #ffffff; stroke-width: 0.75; stroke-linejoin: miter"/>
     <use xlink:href="#m18e9a81faf" x="757.762901" y="53.451975" style="fill: #98df8a; stroke: #ffffff; stroke-width: 0.75; stroke-linejoin: miter"/>
     <use xlink:href="#m18e9a81faf" x="758.399357" y="53.451975" style="fill: #98df8a; stroke: #ffffff; stroke-width: 0.75; stroke-linejoin: miter"/>
     <use xlink:href="#m18e9a81faf" x="759.028368" y="52.5233" style="fill: #98df8a; stroke: #ffffff; stroke-width: 0.75; stroke-linejoin: miter"/>
     <use xlink:href="#m18e9a81faf" x="759.650107" y="52.5233" style="fill: #98df8a; stroke: #ffffff; stroke-width: 0.75; stroke-linejoin: miter"/>
     <use xlink:href="#m18e9a81faf" x="760.26474" y="52.5233" style="fill: #98df8a; stroke: #ffffff; stroke-width: 0.75; stroke-linejoin: miter"/>
     <use xlink:href="#m18e9a81faf" x="760.872429" y="52.5233" style="fill: #98df8a; stroke: #ffffff; stroke-width: 0.75; stroke-linejoin: miter"/>
     <use xlink:href="#m18e9a81faf" x="761.473327" y="52.5233" style="fill: #98df8a; stroke: #ffffff; stroke-width: 0.75; stroke-linejoin: miter"/>
     <use xlink:href="#m18e9a81faf" x="762.067585" y="52.5233" style="fill: #98df8a; stroke: #ffffff; stroke-width: 0.75; stroke-linejoin: miter"/>
     <use xlink:href="#m18e9a81faf" x="762.655349" y="52.5233" style="fill: #98df8a; stroke: #ffffff; stroke-width: 0.75; stroke-linejoin: miter"/>
     <use xlink:href="#m18e9a81faf" x="763.236758" y="52.5233" style="fill: #98df8a; stroke: #ffffff; stroke-width: 0.75; stroke-linejoin: miter"/>
     <use xlink:href="#m18e9a81faf" x="763.811949" y="52.5233" style="fill: #98df8a; stroke: #ffffff; stroke-width: 0.75; stroke-linejoin: miter"/>
     <use xlink:href="#m18e9a81faf" x="764.381053" y="52.5233" style="fill: #98df8a; stroke: #ffffff; stroke-width: 0.75; stroke-linejoin: miter"/>
     <use xlink:href="#m18e9a81faf" x="764.944198" y="52.5233" style="fill: #98df8a; stroke: #ffffff; stroke-width: 0.75; stroke-linejoin: miter"/>
    </g>
   </g>
   <g id="line2d_20"/>
   <g id="line2d_21"/>
   <g id="line2d_22">
    <path d="M 764.944198 288.430125 
L 764.944198 22.318125 
" clip-path="url(#p4c23bd5743)" style="fill: none; stroke: #ff0000; stroke-width: 1.5; stroke-linecap: square"/>
   </g>
   <g id="patch_3">
    <path d="M 53.328125 251.259883 
L 53.328125 65.524758 
" style="fill: none; stroke: #000000; stroke-width: 0.8; stroke-linejoin: miter; stroke-linecap: square"/>
   </g>
   <g id="patch_4">
    <path d="M 53.328125 288.430125 
L 764.94482 288.430125 
" style="fill: none; stroke: #000000; stroke-width: 0.8; stroke-linejoin: miter; stroke-linecap: square"/>
   </g>
   <g id="text_16">
    <!-- libjpeg-turbo_libjpeg_turbo_fuzzer (24h, at least 10 trials/fuzzer) -->
    <g transform="translate(217.384063 16.318125) scale(0.12 -0.12)">
     <defs>
      <path id="DejaVuSans-6c" d="M 603 4863 
L 1178 4863 
L 1178 0 
L 603 0 
L 603 4863 
z
" transform="scale(0.015625)"/>
      <path id="DejaVuSans-6a" d="M 603 3500 
L 1178 3500 
L 1178 -63 
Q 1178 -731 923 -1031 
Q 669 -1331 103 -1331 
L -116 -1331 
L -116 -844 
L 38 -844 
Q 366 -844 484 -692 
Q 603 -541 603 -63 
L 603 3500 
z
M 603 4863 
L 1178 4863 
L 1178 4134 
L 603 4134 
L 603 4863 
z
" transform="scale(0.015625)"/>
      <path id="DejaVuSans-70" d="M 1159 525 
L 1159 -1331 
L 581 -1331 
L 581 3500 
L 1159 3500 
L 1159 2969 
Q 1341 3281 1617 3432 
Q 1894 3584 2278 3584 
Q 2916 3584 3314 3078 
Q 3713 2572 3713 1747 
Q 3713 922 3314 415 
Q 2916 -91 2278 -91 
Q 1894 -91 1617 61 
Q 1341 213 1159 525 
z
M 3116 1747 
Q 3116 2381 2855 2742 
Q 2594 3103 2138 3103 
Q 1681 3103 1420 2742 
Q 1159 2381 1159 1747 
Q 1159 1113 1420 752 
Q 1681 391 2138 391 
Q 2594 391 2855 752 
Q 3116 1113 3116 1747 
z
" transform="scale(0.015625)"/>
      <path id="DejaVuSans-2d" d="M 313 2009 
L 1997 2009 
L 1997 1497 
L 313 1497 
L 313 2009 
z
" transform="scale(0.015625)"/>
      <path id="DejaVuSans-5f" d="M 3263 -1063 
L 3263 -1509 
L -63 -1509 
L -63 -1063 
L 3263 -1063 
z
" transform="scale(0.015625)"/>
      <path id="DejaVuSans-66" d="M 2375 4863 
L 2375 4384 
L 1825 4384 
Q 1516 4384 1395 4259 
Q 1275 4134 1275 3809 
L 1275 3500 
L 2222 3500 
L 2222 3053 
L 1275 3053 
L 1275 0 
L 697 0 
L 697 3053 
L 147 3053 
L 147 3500 
L 697 3500 
L 697 3744 
Q 697 4328 969 4595 
Q 1241 4863 1831 4863 
L 2375 4863 
z
" transform="scale(0.015625)"/>
      <path id="DejaVuSans-7a" d="M 353 3500 
L 3084 3500 
L 3084 2975 
L 922 459 
L 3084 459 
L 3084 0 
L 275 0 
L 275 525 
L 2438 3041 
L 353 3041 
L 353 3500 
z
" transform="scale(0.015625)"/>
      <path id="DejaVuSans-2c" d="M 750 794 
L 1409 794 
L 1409 256 
L 897 -744 
L 494 -744 
L 750 256 
L 750 794 
z
" transform="scale(0.015625)"/>
      <path id="DejaVuSans-73" d="M 2834 3397 
L 2834 2853 
Q 2591 2978 2328 3040 
Q 2066 3103 1784 3103 
Q 1356 3103 1142 2972 
Q 928 2841 928 2578 
Q 928 2378 1081 2264 
Q 1234 2150 1697 2047 
L 1894 2003 
Q 2506 1872 2764 1633 
Q 3022 1394 3022 966 
Q 3022 478 2636 193 
Q 2250 -91 1575 -91 
Q 1294 -91 989 -36 
Q 684 19 347 128 
L 347 722 
Q 666 556 975 473 
Q 1284 391 1588 391 
Q 1994 391 2212 530 
Q 2431 669 2431 922 
Q 2431 1156 2273 1281 
Q 2116 1406 1581 1522 
L 1381 1569 
Q 847 1681 609 1914 
Q 372 2147 372 2553 
Q 372 3047 722 3315 
Q 1072 3584 1716 3584 
Q 2034 3584 2315 3537 
Q 2597 3491 2834 3397 
z
" transform="scale(0.015625)"/>
      <path id="DejaVuSans-2f" d="M 1625 4666 
L 2156 4666 
L 531 -594 
L 0 -594 
L 1625 4666 
z
" transform="scale(0.015625)"/>
     </defs>
     <use xlink:href="#DejaVuSans-6c"/>
     <use xlink:href="#DejaVuSans-69" x="27.783203"/>
     <use xlink:href="#DejaVuSans-62" x="55.566406"/>
     <use xlink:href="#DejaVuSans-6a" x="119.042969"/>
     <use xlink:href="#DejaVuSans-70" x="146.826172"/>
     <use xlink:href="#DejaVuSans-65" x="210.302734"/>
     <use xlink:href="#DejaVuSans-67" x="271.826172"/>
     <use xlink:href="#DejaVuSans-2d" x="335.302734"/>
     <use xlink:href="#DejaVuSans-74" x="371.386719"/>
     <use xlink:href="#DejaVuSans-75" x="410.595703"/>
     <use xlink:href="#DejaVuSans-72" x="473.974609"/>
     <use xlink:href="#DejaVuSans-62" x="515.087891"/>
     <use xlink:href="#DejaVuSans-6f" x="578.564453"/>
     <use xlink:href="#DejaVuSans-5f" x="639.746094"/>
     <use xlink:href="#DejaVuSans-6c" x="689.746094"/>
     <use xlink:href="#DejaVuSans-69" x="717.529297"/>
     <use xlink:href="#DejaVuSans-62" x="745.3125"/>
     <use xlink:href="#DejaVuSans-6a" x="808.789062"/>
     <use xlink:href="#DejaVuSans-70" x="836.572266"/>
     <use xlink:href="#DejaVuSans-65" x="900.048828"/>
     <use xlink:href="#DejaVuSans-67" x="961.572266"/>
     <use xlink:href="#DejaVuSans-5f" x="1025.048828"/>
     <use xlink:href="#DejaVuSans-74" x="1075.048828"/>
     <use xlink:href="#DejaVuSans-75" x="1114.257812"/>
     <use xlink:href="#DejaVuSans-72" x="1177.636719"/>
     <use xlink:href="#DejaVuSans-62" x="1218.75"/>
     <use xlink:href="#DejaVuSans-6f" x="1282.226562"/>
     <use xlink:href="#DejaVuSans-5f" x="1343.408203"/>
     <use xlink:href="#DejaVuSans-66" x="1393.408203"/>
     <use xlink:href="#DejaVuSans-75" x="1428.613281"/>
     <use xlink:href="#DejaVuSans-7a" x="1491.992188"/>
     <use xlink:href="#DejaVuSans-7a" x="1544.482422"/>
     <use xlink:href="#DejaVuSans-65" x="1596.972656"/>
     <use xlink:href="#DejaVuSans-72" x="1658.496094"/>
     <use xlink:href="#DejaVuSans-20" x="1699.609375"/>
     <use xlink:href="#DejaVuSans-28" x="1731.396484"/>
     <use xlink:href="#DejaVuSans-32" x="1770.410156"/>
     <use xlink:href="#DejaVuSans-34" x="1834.033203"/>
     <use xlink:href="#DejaVuSans-68" x="1897.65625"/>
     <use xlink:href="#DejaVuSans-2c" x="1961.035156"/>
     <use xlink:href="#DejaVuSans-20" x="1992.822266"/>
     <use xlink:href="#DejaVuSans-61" x="2024.609375"/>
     <use xlink:href="#DejaVuSans-74" x="2085.888672"/>
     <use xlink:href="#DejaVuSans-20" x="2125.097656"/>
     <use xlink:href="#DejaVuSans-6c" x="2156.884766"/>
     <use xlink:href="#DejaVuSans-65" x="2184.667969"/>
     <use xlink:href="#DejaVuSans-61" x="2246.191406"/>
     <use xlink:href="#DejaVuSans-73" x="2307.470703"/>
     <use xlink:href="#DejaVuSans-74" x="2359.570312"/>
     <use xlink:href="#DejaVuSans-20" x="2398.779297"/>
     <use xlink:href="#DejaVuSans-31" x="2430.566406"/>
     <use xlink:href="#DejaVuSans-30" x="2494.189453"/>
     <use xlink:href="#DejaVuSans-20" x="2557.8125"/>
     <use xlink:href="#DejaVuSans-74" x="2589.599609"/>
     <use xlink:href="#DejaVuSans-72" x="2628.808594"/>
     <use xlink:href="#DejaVuSans-69" x="2669.921875"/>
     <use xlink:href="#DejaVuSans-61" x="2697.705078"/>
     <use xlink:href="#DejaVuSans-6c" x="2758.984375"/>
     <use xlink:href="#DejaVuSans-73" x="2786.767578"/>
     <use xlink:href="#DejaVuSans-2f" x="2838.867188"/>
     <use xlink:href="#DejaVuSans-66" x="2872.558594"/>
     <use xlink:href="#DejaVuSans-75" x="2907.763672"/>
     <use xlink:href="#DejaVuSans-7a" x="2971.142578"/>
     <use xlink:href="#DejaVuSans-7a" x="3023.632812"/>
     <use xlink:href="#DejaVuSans-65" x="3076.123047"/>
     <use xlink:href="#DejaVuSans-72" x="3137.646484"/>
     <use xlink:href="#DejaVuSans-29" x="3178.759766"/>
    </g>
   </g>
   <g id="legend_1">
    <g id="line2d_23">
     <path d="M 771.568125 30.416562 
L 781.568125 30.416562 
L 791.568125 30.416562 
" style="fill: none; stroke: #1f77b4; stroke-width: 1.5; stroke-linecap: square"/>
     <defs>
      <path id="m9c034b19a8" d="M 0 3 
C 0.795609 3 1.55874 2.683901 2.12132 2.12132 
C 2.683901 1.55874 3 0.795609 3 0 
C 3 -0.795609 2.683901 -1.55874 2.12132 -2.12132 
C 1.55874 -2.683901 0.795609 -3 0 -3 
C -0.795609 -3 -1.55874 -2.683901 -2.12132 -2.12132 
C -2.683901 -1.55874 -3 -0.795609 -3 0 
C -3 0.795609 -2.683901 1.55874 -2.12132 2.12132 
C -1.55874 2.683901 -0.795609 3 0 3 
z
" style="stroke: #1f77b4"/>
     </defs>
     <g>
      <use xlink:href="#m9c034b19a8" x="781.568125" y="30.416562" style="fill: #1f77b4; stroke: #1f77b4"/>
     </g>
    </g>
    <g id="text_17">
     <!-- darwin -->
     <g transform="translate(799.568125 33.916562) scale(0.1 -0.1)">
      <defs>
       <path id="DejaVuSans-77" d="M 269 3500 
L 844 3500 
L 1563 769 
L 2278 3500 
L 2956 3500 
L 3675 769 
L 4391 3500 
L 4966 3500 
L 4050 0 
L 3372 0 
L 2619 2869 
L 1863 0 
L 1184 0 
L 269 3500 
z
" transform="scale(0.015625)"/>
      </defs>
      <use xlink:href="#DejaVuSans-64"/>
      <use xlink:href="#DejaVuSans-61" x="63.476562"/>
      <use xlink:href="#DejaVuSans-72" x="124.755859"/>
      <use xlink:href="#DejaVuSans-77" x="165.869141"/>
      <use xlink:href="#DejaVuSans-69" x="247.65625"/>
      <use xlink:href="#DejaVuSans-6e" x="275.439453"/>
     </g>
    </g>
    <g id="line2d_24">
     <path d="M 771.568125 45.094688 
L 781.568125 45.094688 
L 791.568125 45.094688 
" style="fill: none; stroke: #98df8a; stroke-width: 1.5; stroke-linecap: square"/>
     <defs>
      <path id="mb3fde4938c" d="M -0 3 
L 3 -3 
L -3 -3 
z
" style="stroke: #98df8a; stroke-linejoin: miter"/>
     </defs>
     <g>
      <use xlink:href="#mb3fde4938c" x="781.568125" y="45.094688" style="fill: #98df8a; stroke: #98df8a; stroke-linejoin: miter"/>
     </g>
    </g>
    <g id="text_18">
     <!-- darwin_no_pre_seed -->
     <g transform="translate(799.568125 48.594688) scale(0.1 -0.1)">
      <use xlink:href="#DejaVuSans-64"/>
      <use xlink:href="#DejaVuSans-61" x="63.476562"/>
      <use xlink:href="#DejaVuSans-72" x="124.755859"/>
      <use xlink:href="#DejaVuSans-77" x="165.869141"/>
      <use xlink:href="#DejaVuSans-69" x="247.65625"/>
      <use xlink:href="#DejaVuSans-6e" x="275.439453"/>
      <use xlink:href="#DejaVuSans-5f" x="338.818359"/>
      <use xlink:href="#DejaVuSans-6e" x="388.818359"/>
      <use xlink:href="#DejaVuSans-6f" x="452.197266"/>
      <use xlink:href="#DejaVuSans-5f" x="513.378906"/>
      <use xlink:href="#DejaVuSans-70" x="563.378906"/>
      <use xlink:href="#DejaVuSans-72" x="626.855469"/>
      <use xlink:href="#DejaVuSans-65" x="665.71875"/>
      <use xlink:href="#DejaVuSans-5f" x="727.242188"/>
      <use xlink:href="#DejaVuSans-73" x="777.242188"/>
      <use xlink:href="#DejaVuSans-65" x="829.341797"/>
      <use xlink:href="#DejaVuSans-65" x="890.865234"/>
      <use xlink:href="#DejaVuSans-64" x="952.388672"/>
     </g>
    </g>
   </g>
  </g>
 </g>
 <defs>
  <clipPath id="p4c23bd5743">
   <rect x="53.328125" y="22.318125" width="714.24" height="266.112"/>
  </clipPath>
 </defs>
</svg>
