<?xml version="1.0" encoding="utf-8" standalone="no"?>
<!DOCTYPE svg PUBLIC "-//W3C//DTD SVG 1.1//EN"
  "http://www.w3.org/Graphics/SVG/1.1/DTD/svg11.dtd">
<svg xmlns:xlink="http://www.w3.org/1999/xlink" width="918.719687pt" height="325.986375pt" viewBox="0 0 918.719687 325.986375" xmlns="http://www.w3.org/2000/svg" version="1.1">
 <metadata>
  <rdf:RDF xmlns:dc="http://purl.org/dc/elements/1.1/" xmlns:cc="http://creativecommons.org/ns#" xmlns:rdf="http://www.w3.org/1999/02/22-rdf-syntax-ns#">
   <cc:Work>
    <dc:type rdf:resource="http://purl.org/dc/dcmitype/StillImage"/>
    <dc:date>2023-08-02T15:42:50.474116</dc:date>
    <dc:format>image/svg+xml</dc:format>
    <dc:creator>
     <cc:Agent>
      <dc:title>Matplotlib v3.7.1, https://matplotlib.org/</dc:title>
     </cc:Agent>
    </dc:creator>
   </cc:Work>
  </rdf:RDF>
 </metadata>
 <defs>
  <style type="text/css">*{stroke-linejoin: round; stroke-linecap: butt}</style>
 </defs>
 <g id="figure_1">
  <g id="patch_1">
   <path d="M 0 325.986375 
L 918.719687 325.986375 
L 918.719687 0 
L 0 0 
z
" style="fill: #ffffff"/>
  </g>
  <g id="axes_1">
   <g id="patch_2">
    <path d="M 59.690625 288.430125 
L 773.930625 288.430125 
L 773.930625 22.318125 
L 59.690625 22.318125 
z
" style="fill: #ffffff"/>
   </g>
   <g id="PolyCollection_1">
    <defs>
     <path id="mb893b91dec" d="M 59.690625 -49.65225 
L 59.690625 -49.65225 
L 525.836797 -157.185997 
L 563.114139 -197.875414 
L 584.919987 -207.281952 
L 600.391482 -230.605251 
L 612.392105 -242.345874 
L 622.197329 -247.540529 
L 630.487527 -251.506718 
L 637.668824 -258.421225 
L 644.003176 -263.089395 
L 649.669448 -264.423158 
L 654.795213 -267.968159 
L 659.474671 -270.42509 
L 663.779355 -272.460833 
L 667.76487 -273.794596 
L 671.475295 -274.389086 
L 674.946166 -274.812468 
L 678.206548 -274.882666 
L 681.280519 -274.882666 
L 684.188245 -275.09326 
L 686.94679 -275.830339 
L 689.570717 -276.321726 
L 692.072556 -276.356825 
L 694.463164 -276.567419 
L 696.752013 -276.707815 
L 698.947414 -277.111453 
L 701.056697 -277.725686 
L 703.086366 -277.655488 
L 705.042212 -278.076677 
L 706.929417 -278.568063 
L 708.752637 -278.954152 
L 710.516069 -279.480637 
L 712.223508 -280.042222 
L 713.878403 -281.041666 
L 715.483891 -281.110987 
L 717.042836 -281.218039 
L 718.557861 -281.218039 
L 720.031373 -281.375984 
L 721.465587 -281.53393 
L 722.862545 -281.631769 
L 724.224132 -281.633085 
L 725.552097 -281.691876 
L 726.848059 -281.832272 
L 728.113525 -281.832272 
L 729.349898 -281.854209 
L 730.558485 -281.867371 
L 731.740507 -282.007767 
L 732.897107 -282.25346 
L 734.029356 -282.323658 
L 735.138258 -282.323658 
L 736.224756 -282.393856 
L 737.289738 -282.393856 
L 738.334039 -282.850143 
L 739.358448 -283.11207 
L 740.363708 -283.148485 
L 741.350522 -283.288881 
L 742.319554 -283.359079 
L 743.271434 -283.429277 
L 744.20676 -283.70305 
L 745.126095 -283.446827 
L 746.029979 -283.446827 
L 746.918923 -283.481926 
L 747.793411 -283.727619 
L 748.653907 -283.903114 
L 749.500851 -284.429599 
L 750.334663 -283.973312 
L 751.155745 -283.973312 
L 751.96448 -284.306753 
L 752.761233 -284.131258 
L 753.546354 -284.464698 
L 754.320178 -284.622644 
L 755.083025 -284.41205 
L 755.835203 -284.710391 
L 756.577006 -285.13158 
L 757.308715 -285.269343 
L 758.030603 -285.447471 
L 758.742929 -284.938535 
L 759.445944 -284.938535 
L 760.139887 -285.11403 
L 760.82499 -286.009055 
L 761.501474 -285.271976 
L 762.169555 -285.271976 
L 762.829439 -285.394822 
L 763.481324 -285.447471 
L 764.125401 -285.447471 
L 764.761857 -285.640516 
L 765.390868 -285.552768 
L 766.012607 -286.57064 
L 766.62724 -285.658065 
L 767.234929 -285.658065 
L 767.835827 -285.658065 
L 768.430085 -286.588189 
L 769.017849 -285.570317 
L 769.599258 -286.728585 
L 770.174449 -285.675615 
L 770.743553 -286.746135 
L 771.306698 -286.395144 
L 771.306698 -291.57225 
L 771.306698 -291.57225 
L 770.743553 -291.315588 
L 770.174449 -291.309007 
L 769.599258 -291.57225 
L 769.017849 -291.5547 
L 768.430085 -291.273908 
L 767.835827 -291.361656 
L 767.234929 -291.238809 
L 766.62724 -291.344106 
L 766.012607 -291.20371 
L 765.390868 -291.168611 
L 764.761857 -291.133512 
L 764.125401 -291.133512 
L 763.481324 -291.028215 
L 762.829439 -291.028215 
L 762.169555 -291.045765 
L 761.501474 -291.010666 
L 760.82499 -290.642126 
L 760.139887 -290.642126 
L 759.445944 -290.466631 
L 758.742929 -290.361334 
L 758.030603 -290.214795 
L 757.308715 -290.045443 
L 756.577006 -290.13319 
L 755.835203 -290.589477 
L 755.083025 -290.012099 
L 754.320178 -289.975245 
L 753.546354 -289.922596 
L 752.761233 -289.606705 
L 751.96448 -289.606705 
L 751.155745 -289.027571 
L 750.334663 -289.155682 
L 749.500851 -288.395789 
L 748.653907 -288.852076 
L 747.793411 -288.325591 
L 746.918923 -288.220294 
L 746.029979 -288.730984 
L 745.126095 -288.869625 
L 744.20676 -288.079897 
L 743.271434 -288.079897 
L 742.319554 -288.325591 
L 741.350522 -288.079897 
L 740.363708 -288.050502 
L 739.358448 -288.553734 
L 738.334039 -288.132546 
L 737.289738 -287.764006 
L 736.224756 -287.728907 
L 735.138258 -287.62361 
L 734.029356 -287.53674 
L 732.897107 -287.026927 
L 731.740507 -287.448115 
L 730.558485 -287.026927 
L 729.349898 -287.026927 
L 728.113525 -287.27262 
L 726.848059 -287.026927 
L 725.552097 -286.746135 
L 724.224132 -287.026927 
L 722.862545 -286.605739 
L 721.465587 -286.535541 
L 720.031373 -286.535541 
L 718.557861 -286.465342 
L 717.042836 -285.903758 
L 715.483891 -285.342174 
L 713.878403 -285.078931 
L 712.223508 -284.938535 
L 710.516069 -284.605094 
L 708.752637 -283.973312 
L 706.929417 -284.236555 
L 705.042212 -283.762718 
L 703.086366 -283.762718 
L 701.056697 -283.552124 
L 698.947414 -283.446827 
L 696.752013 -283.446827 
L 694.463164 -282.622 
L 692.072556 -282.411406 
L 689.570717 -281.972668 
L 686.94679 -281.798928 
L 684.188245 -281.516381 
L 681.280519 -281.709425 
L 678.206548 -281.200489 
L 674.946166 -280.989895 
L 671.475295 -280.989895 
L 667.76487 -280.217717 
L 663.779355 -278.30482 
L 659.474671 -276.098847 
L 654.795213 -274.707171 
L 649.669448 -274.707171 
L 644.003176 -273.320759 
L 637.668824 -272.495932 
L 630.487527 -268.354248 
L 622.197329 -265.967514 
L 612.392105 -262.141721 
L 600.391482 -257.859641 
L 584.919987 -247.259736 
L 563.114139 -226.832106 
L 525.836797 -211.950122 
L 59.690625 -49.65225 
z
" style="stroke: #1f77b4; stroke-opacity: 0.2"/>
    </defs>
    <g clip-path="url(#p71d10d43fb)">
     <use xlink:href="#mb893b91dec" x="0" y="325.986375" style="fill: #1f77b4; fill-opacity: 0.2; stroke: #1f77b4; stroke-opacity: 0.2"/>
    </g>
   </g>
   <g id="PolyCollection_2">
    <defs>
     <path id="m8450ed4d17" d="M 59.690625 -49.65225 
L 59.690625 -49.65225 
L 525.836797 -180.641795 
L 563.114139 -186.889421 
L 584.919987 -211.792176 
L 600.391482 -237.116119 
L 612.392105 -243.012755 
L 622.197329 -250.804737 
L 630.487527 -256.717168 
L 637.668824 -257.491101 
L 644.003176 -260.527166 
L 649.669448 -262.264568 
L 654.795213 -265.05494 
L 659.474671 -267.371475 
L 663.779355 -270.389991 
L 667.76487 -271.179719 
L 671.475295 -271.86415 
L 674.946166 -272.741625 
L 678.206548 -273.022418 
L 681.280519 -273.338309 
L 684.188245 -274.040289 
L 686.94679 -274.426378 
L 689.570717 -274.426378 
L 692.072556 -274.74227 
L 694.463164 -275.374052 
L 696.752013 -276.216428 
L 698.947414 -276.602518 
L 701.056697 -277.058805 
L 703.086366 -277.567741 
L 705.042212 -278.059127 
L 706.929417 -278.024028 
L 708.752637 -278.67336 
L 710.516069 -278.790942 
L 712.223508 -278.883954 
L 713.878403 -278.919053 
L 715.483891 -279.641215 
L 717.042836 -279.076999 
L 718.557861 -279.287154 
L 720.031373 -279.460894 
L 721.465587 -279.549958 
L 722.862545 -279.656132 
L 724.224132 -279.691232 
L 725.552097 -281.352293 
L 726.848059 -279.989573 
L 728.113525 -280.252816 
L 729.349898 -280.674004 
L 730.558485 -280.516058 
L 731.740507 -280.428311 
L 732.897107 -280.480959 
L 734.029356 -281.060093 
L 735.138258 -282.674648 
L 736.224756 -281.200489 
L 737.289738 -281.130291 
L 738.334039 -281.146086 
L 739.358448 -281.446183 
L 740.363708 -281.814722 
L 741.350522 -281.323336 
L 742.319554 -281.814722 
L 743.271434 -281.867371 
L 744.20676 -282.435536 
L 745.126095 -281.586579 
L 746.029979 -282.060415 
L 746.918923 -281.726975 
L 747.793411 -283.724986 
L 748.653907 -282.191159 
L 749.500851 -282.422813 
L 750.334663 -282.428955 
L 751.155745 -282.446505 
L 751.96448 -282.481604 
L 752.761233 -282.674648 
L 753.546354 -282.744846 
L 754.320178 -282.779945 
L 755.083025 -282.867693 
L 755.835203 -282.867693 
L 756.577006 -282.60445 
L 757.308715 -282.990539 
L 758.030603 -283.376629 
L 758.742929 -282.797495 
L 759.445944 -283.183584 
L 760.139887 -282.902792 
L 760.82499 -283.201134 
L 761.501474 -283.201134 
L 762.169555 -283.446827 
L 762.829439 -284.166357 
L 763.481324 -284.168112 
L 764.125401 -284.236555 
L 764.761857 -283.552124 
L 765.390868 -283.762718 
L 766.012607 -284.341852 
L 766.62724 -283.815366 
L 767.234929 -285.342174 
L 767.835827 -285.342174 
L 768.430085 -284.359401 
L 769.017849 -284.359401 
L 769.599258 -284.423457 
L 770.174449 -284.534896 
L 770.743553 -284.675292 
L 771.306698 -286.360045 
L 771.306698 -289.712002 
L 771.306698 -289.712002 
L 770.743553 -289.589155 
L 770.174449 -289.589155 
L 769.599258 -289.448759 
L 769.017849 -289.378561 
L 768.430085 -289.536507 
L 767.835827 -289.501408 
L 767.234929 -289.729551 
L 766.62724 -289.41366 
L 766.012607 -289.378561 
L 765.390868 -289.343462 
L 764.761857 -289.343462 
L 764.125401 -288.939823 
L 763.481324 -288.887175 
L 762.829439 -288.71168 
L 762.169555 -288.430888 
L 761.501474 -288.606383 
L 760.82499 -288.501086 
L 760.139887 -288.290492 
L 759.445944 -288.430888 
L 758.742929 -288.430888 
L 758.030603 -288.311112 
L 757.308715 -288.114996 
L 756.577006 -288.553734 
L 755.835203 -288.553734 
L 755.083025 -287.764006 
L 754.320178 -287.746457 
L 753.546354 -287.483214 
L 752.761233 -287.202422 
L 751.96448 -287.026927 
L 751.155745 -286.816333 
L 750.334663 -286.781234 
L 749.500851 -286.781234 
L 748.653907 -286.605739 
L 747.793411 -286.430243 
L 746.918923 -286.324946 
L 746.029979 -286.188499 
L 745.126095 -286.18455 
L 744.20676 -286.816333 
L 743.271434 -286.167001 
L 742.319554 -286.167001 
L 741.350522 -285.938857 
L 740.363708 -286.009055 
L 739.358448 -285.938857 
L 738.334039 -285.938857 
L 737.289738 -285.622966 
L 736.224756 -285.447471 
L 735.138258 -285.447471 
L 734.029356 -285.605416 
L 732.897107 -284.26595 
L 731.740507 -284.469524 
L 730.558485 -284.607288 
L 729.349898 -284.447149 
L 728.113525 -283.938213 
L 726.848059 -283.34153 
L 725.552097 -283.148485 
L 724.224132 -282.95544 
L 722.862545 -282.779945 
L 721.465587 -282.727297 
L 720.031373 -282.446505 
L 718.557861 -282.358757 
L 717.042836 -282.148163 
L 715.483891 -281.903786 
L 713.878403 -281.90247 
L 712.223508 -281.55148 
L 710.516069 -281.132924 
L 708.752637 -280.989895 
L 706.929417 -280.8144 
L 705.042212 -280.551158 
L 703.086366 -280.46341 
L 701.056697 -280.287915 
L 698.947414 -280.287915 
L 696.752013 -279.972024 
L 694.463164 -279.954474 
L 692.072556 -279.621033 
L 689.570717 -279.410439 
L 686.94679 -279.076999 
L 684.188245 -279.112098 
L 681.280519 -278.111776 
L 678.206548 -278.585612 
L 674.946166 -277.737971 
L 671.475295 -276.830661 
L 667.76487 -276.725364 
L 663.779355 -275.970735 
L 659.474671 -274.321081 
L 654.795213 -272.671427 
L 649.669448 -271.653556 
L 644.003176 -270.881377 
L 637.668824 -269.301921 
L 630.487527 -268.389347 
L 622.197329 -267.231079 
L 612.392105 -260.781195 
L 600.391482 -257.806992 
L 584.919987 -248.031915 
L 563.114139 -239.871393 
L 525.836797 -212.617003 
L 59.690625 -49.65225 
z
" style="stroke: #98df8a; stroke-opacity: 0.2"/>
    </defs>
    <g clip-path="url(#p71d10d43fb)">
     <use xlink:href="#m8450ed4d17" x="0" y="325.986375" style="fill: #98df8a; fill-opacity: 0.2; stroke: #98df8a; stroke-opacity: 0.2"/>
    </g>
   </g>
   <g id="matplotlib.axis_1">
    <g id="xtick_1">
     <g id="line2d_1">
      <defs>
       <path id="mfb1745cc5e" d="M 0 0 
L 0 3.5 
" style="stroke: #000000; stroke-width: 0.8"/>
      </defs>
      <g>
       <use xlink:href="#mfb1745cc5e" x="59.690625" y="288.430125" style="stroke: #000000; stroke-width: 0.8"/>
      </g>
     </g>
     <g id="text_1">
      <!-- 0m -->
      <g transform="translate(51.639063 303.028562) scale(0.1 -0.1)">
       <defs>
        <path id="DejaVuSans-30" d="M 2034 4250 
Q 1547 4250 1301 3770 
Q 1056 3291 1056 2328 
Q 1056 1369 1301 889 
Q 1547 409 2034 409 
Q 2525 409 2770 889 
Q 3016 1369 3016 2328 
Q 3016 3291 2770 3770 
Q 2525 4250 2034 4250 
z
M 2034 4750 
Q 2819 4750 3233 4129 
Q 3647 3509 3647 2328 
Q 3647 1150 3233 529 
Q 2819 -91 2034 -91 
Q 1250 -91 836 529 
Q 422 1150 422 2328 
Q 422 3509 836 4129 
Q 1250 4750 2034 4750 
z
" transform="scale(0.015625)"/>
        <path id="DejaVuSans-6d" d="M 3328 2828 
Q 3544 3216 3844 3400 
Q 4144 3584 4550 3584 
Q 5097 3584 5394 3201 
Q 5691 2819 5691 2113 
L 5691 0 
L 5113 0 
L 5113 2094 
Q 5113 2597 4934 2840 
Q 4756 3084 4391 3084 
Q 3944 3084 3684 2787 
Q 3425 2491 3425 1978 
L 3425 0 
L 2847 0 
L 2847 2094 
Q 2847 2600 2669 2842 
Q 2491 3084 2119 3084 
Q 1678 3084 1418 2786 
Q 1159 2488 1159 1978 
L 1159 0 
L 581 0 
L 581 3500 
L 1159 3500 
L 1159 2956 
Q 1356 3278 1631 3431 
Q 1906 3584 2284 3584 
Q 2666 3584 2933 3390 
Q 3200 3197 3328 2828 
z
" transform="scale(0.015625)"/>
       </defs>
       <use xlink:href="#DejaVuSans-30"/>
       <use xlink:href="#DejaVuSans-6d" x="63.623047"/>
      </g>
     </g>
    </g>
    <g id="xtick_2">
     <g id="line2d_2">
      <g>
       <use xlink:href="#mfb1745cc5e" x="128.486542" y="288.430125" style="stroke: #000000; stroke-width: 0.8"/>
      </g>
     </g>
    </g>
    <g id="xtick_3">
     <g id="line2d_3">
      <g>
       <use xlink:href="#mfb1745cc5e" x="221.135337" y="288.430125" style="stroke: #000000; stroke-width: 0.8"/>
      </g>
     </g>
    </g>
    <g id="xtick_4">
     <g id="line2d_4">
      <g>
       <use xlink:href="#mfb1745cc5e" x="282.265557" y="288.430125" style="stroke: #000000; stroke-width: 0.8"/>
      </g>
     </g>
    </g>
    <g id="xtick_5">
     <g id="line2d_5">
      <g>
       <use xlink:href="#mfb1745cc5e" x="343.395778" y="288.430125" style="stroke: #000000; stroke-width: 0.8"/>
      </g>
     </g>
    </g>
    <g id="xtick_6">
     <g id="line2d_6">
      <g>
       <use xlink:href="#mfb1745cc5e" x="404.525998" y="288.430125" style="stroke: #000000; stroke-width: 0.8"/>
      </g>
     </g>
     <g id="text_2">
      <!-- 1m -->
      <g transform="translate(396.474436 303.028562) scale(0.1 -0.1)">
       <defs>
        <path id="DejaVuSans-31" d="M 794 531 
L 1825 531 
L 1825 4091 
L 703 3866 
L 703 4441 
L 1819 4666 
L 2450 4666 
L 2450 531 
L 3481 531 
L 3481 0 
L 794 0 
L 794 531 
z
" transform="scale(0.015625)"/>
       </defs>
       <use xlink:href="#DejaVuSans-31"/>
       <use xlink:href="#DejaVuSans-6d" x="63.623047"/>
      </g>
     </g>
    </g>
    <g id="xtick_7">
     <g id="line2d_7">
      <g>
       <use xlink:href="#mfb1745cc5e" x="465.656219" y="288.430125" style="stroke: #000000; stroke-width: 0.8"/>
      </g>
     </g>
     <g id="text_3">
      <!-- 4m -->
      <g transform="translate(457.604656 303.028562) scale(0.1 -0.1)">
       <defs>
        <path id="DejaVuSans-34" d="M 2419 4116 
L 825 1625 
L 2419 1625 
L 2419 4116 
z
M 2253 4666 
L 3047 4666 
L 3047 1625 
L 3713 1625 
L 3713 1100 
L 3047 1100 
L 3047 0 
L 2419 0 
L 2419 1100 
L 313 1100 
L 313 1709 
L 2253 4666 
z
" transform="scale(0.015625)"/>
       </defs>
       <use xlink:href="#DejaVuSans-34"/>
       <use xlink:href="#DejaVuSans-6d" x="63.623047"/>
      </g>
     </g>
    </g>
    <g id="xtick_8">
     <g id="line2d_8">
      <g>
       <use xlink:href="#mfb1745cc5e" x="526.786439" y="288.430125" style="stroke: #000000; stroke-width: 0.8"/>
      </g>
     </g>
     <g id="text_4">
      <!-- 15m -->
      <g transform="translate(515.553626 303.028562) scale(0.1 -0.1)">
       <defs>
        <path id="DejaVuSans-35" d="M 691 4666 
L 3169 4666 
L 3169 4134 
L 1269 4134 
L 1269 2991 
Q 1406 3038 1543 3061 
Q 1681 3084 1819 3084 
Q 2600 3084 3056 2656 
Q 3513 2228 3513 1497 
Q 3513 744 3044 326 
Q 2575 -91 1722 -91 
Q 1428 -91 1123 -41 
Q 819 9 494 109 
L 494 744 
Q 775 591 1075 516 
Q 1375 441 1709 441 
Q 2250 441 2565 725 
Q 2881 1009 2881 1497 
Q 2881 1984 2565 2268 
Q 2250 2553 1709 2553 
Q 1456 2553 1204 2497 
Q 953 2441 691 2322 
L 691 4666 
z
" transform="scale(0.015625)"/>
       </defs>
       <use xlink:href="#DejaVuSans-31"/>
       <use xlink:href="#DejaVuSans-35" x="63.623047"/>
       <use xlink:href="#DejaVuSans-6d" x="127.246094"/>
      </g>
     </g>
    </g>
    <g id="xtick_9">
     <g id="line2d_9">
      <g>
       <use xlink:href="#mfb1745cc5e" x="587.916659" y="288.430125" style="stroke: #000000; stroke-width: 0.8"/>
      </g>
     </g>
     <g id="text_5">
      <!-- 47m -->
      <g transform="translate(576.683847 303.028562) scale(0.1 -0.1)">
       <defs>
        <path id="DejaVuSans-37" d="M 525 4666 
L 3525 4666 
L 3525 4397 
L 1831 0 
L 1172 0 
L 2766 4134 
L 525 4134 
L 525 4666 
z
" transform="scale(0.015625)"/>
       </defs>
       <use xlink:href="#DejaVuSans-34"/>
       <use xlink:href="#DejaVuSans-37" x="63.623047"/>
       <use xlink:href="#DejaVuSans-6d" x="127.246094"/>
      </g>
     </g>
    </g>
    <g id="xtick_10">
     <g id="line2d_10">
      <g>
       <use xlink:href="#mfb1745cc5e" x="649.04688" y="288.430125" style="stroke: #000000; stroke-width: 0.8"/>
      </g>
     </g>
     <g id="text_6">
      <!-- 2h:28m -->
      <g transform="translate(629.779692 303.028562) scale(0.1 -0.1)">
       <defs>
        <path id="DejaVuSans-32" d="M 1228 531 
L 3431 531 
L 3431 0 
L 469 0 
L 469 531 
Q 828 903 1448 1529 
Q 2069 2156 2228 2338 
Q 2531 2678 2651 2914 
Q 2772 3150 2772 3378 
Q 2772 3750 2511 3984 
Q 2250 4219 1831 4219 
Q 1534 4219 1204 4116 
Q 875 4013 500 3803 
L 500 4441 
Q 881 4594 1212 4672 
Q 1544 4750 1819 4750 
Q 2544 4750 2975 4387 
Q 3406 4025 3406 3419 
Q 3406 3131 3298 2873 
Q 3191 2616 2906 2266 
Q 2828 2175 2409 1742 
Q 1991 1309 1228 531 
z
" transform="scale(0.015625)"/>
        <path id="DejaVuSans-68" d="M 3513 2113 
L 3513 0 
L 2938 0 
L 2938 2094 
Q 2938 2591 2744 2837 
Q 2550 3084 2163 3084 
Q 1697 3084 1428 2787 
Q 1159 2491 1159 1978 
L 1159 0 
L 581 0 
L 581 4863 
L 1159 4863 
L 1159 2956 
Q 1366 3272 1645 3428 
Q 1925 3584 2291 3584 
Q 2894 3584 3203 3211 
Q 3513 2838 3513 2113 
z
" transform="scale(0.015625)"/>
        <path id="DejaVuSans-3a" d="M 750 794 
L 1409 794 
L 1409 0 
L 750 0 
L 750 794 
z
M 750 3309 
L 1409 3309 
L 1409 2516 
L 750 2516 
L 750 3309 
z
" transform="scale(0.015625)"/>
        <path id="DejaVuSans-38" d="M 2034 2216 
Q 1584 2216 1326 1975 
Q 1069 1734 1069 1313 
Q 1069 891 1326 650 
Q 1584 409 2034 409 
Q 2484 409 2743 651 
Q 3003 894 3003 1313 
Q 3003 1734 2745 1975 
Q 2488 2216 2034 2216 
z
M 1403 2484 
Q 997 2584 770 2862 
Q 544 3141 544 3541 
Q 544 4100 942 4425 
Q 1341 4750 2034 4750 
Q 2731 4750 3128 4425 
Q 3525 4100 3525 3541 
Q 3525 3141 3298 2862 
Q 3072 2584 2669 2484 
Q 3125 2378 3379 2068 
Q 3634 1759 3634 1313 
Q 3634 634 3220 271 
Q 2806 -91 2034 -91 
Q 1263 -91 848 271 
Q 434 634 434 1313 
Q 434 1759 690 2068 
Q 947 2378 1403 2484 
z
M 1172 3481 
Q 1172 3119 1398 2916 
Q 1625 2713 2034 2713 
Q 2441 2713 2670 2916 
Q 2900 3119 2900 3481 
Q 2900 3844 2670 4047 
Q 2441 4250 2034 4250 
Q 1625 4250 1398 4047 
Q 1172 3844 1172 3481 
z
" transform="scale(0.015625)"/>
       </defs>
       <use xlink:href="#DejaVuSans-32"/>
       <use xlink:href="#DejaVuSans-68" x="63.623047"/>
       <use xlink:href="#DejaVuSans-3a" x="127.001953"/>
       <use xlink:href="#DejaVuSans-32" x="160.693359"/>
       <use xlink:href="#DejaVuSans-38" x="224.316406"/>
       <use xlink:href="#DejaVuSans-6d" x="287.939453"/>
      </g>
     </g>
    </g>
    <g id="xtick_11">
     <g id="line2d_11">
      <g>
       <use xlink:href="#mfb1745cc5e" x="710.1771" y="288.430125" style="stroke: #000000; stroke-width: 0.8"/>
      </g>
     </g>
     <g id="text_7">
      <!-- 7h:42m -->
      <g transform="translate(690.909913 303.028562) scale(0.1 -0.1)">
       <use xlink:href="#DejaVuSans-37"/>
       <use xlink:href="#DejaVuSans-68" x="63.623047"/>
       <use xlink:href="#DejaVuSans-3a" x="127.001953"/>
       <use xlink:href="#DejaVuSans-34" x="160.693359"/>
       <use xlink:href="#DejaVuSans-32" x="224.316406"/>
       <use xlink:href="#DejaVuSans-6d" x="287.939453"/>
      </g>
     </g>
    </g>
    <g id="xtick_12">
     <g id="line2d_12">
      <g>
       <use xlink:href="#mfb1745cc5e" x="771.30732" y="288.430125" style="stroke: #000000; stroke-width: 0.8"/>
      </g>
     </g>
     <g id="text_8">
      <!-- 24h -->
      <g transform="translate(761.77607 303.028562) scale(0.1 -0.1)">
       <use xlink:href="#DejaVuSans-32"/>
       <use xlink:href="#DejaVuSans-34" x="63.623047"/>
       <use xlink:href="#DejaVuSans-68" x="127.246094"/>
      </g>
     </g>
    </g>
    <g id="text_9">
     <!-- Time (hour:minute) -->
     <g transform="translate(368.403594 316.706687) scale(0.1 -0.1)">
      <defs>
       <path id="DejaVuSans-54" d="M -19 4666 
L 3928 4666 
L 3928 4134 
L 2272 4134 
L 2272 0 
L 1638 0 
L 1638 4134 
L -19 4134 
L -19 4666 
z
" transform="scale(0.015625)"/>
       <path id="DejaVuSans-69" d="M 603 3500 
L 1178 3500 
L 1178 0 
L 603 0 
L 603 3500 
z
M 603 4863 
L 1178 4863 
L 1178 4134 
L 603 4134 
L 603 4863 
z
" transform="scale(0.015625)"/>
       <path id="DejaVuSans-65" d="M 3597 1894 
L 3597 1613 
L 953 1613 
Q 991 1019 1311 708 
Q 1631 397 2203 397 
Q 2534 397 2845 478 
Q 3156 559 3463 722 
L 3463 178 
Q 3153 47 2828 -22 
Q 2503 -91 2169 -91 
Q 1331 -91 842 396 
Q 353 884 353 1716 
Q 353 2575 817 3079 
Q 1281 3584 2069 3584 
Q 2775 3584 3186 3129 
Q 3597 2675 3597 1894 
z
M 3022 2063 
Q 3016 2534 2758 2815 
Q 2500 3097 2075 3097 
Q 1594 3097 1305 2825 
Q 1016 2553 972 2059 
L 3022 2063 
z
" transform="scale(0.015625)"/>
       <path id="DejaVuSans-20" transform="scale(0.015625)"/>
       <path id="DejaVuSans-28" d="M 1984 4856 
Q 1566 4138 1362 3434 
Q 1159 2731 1159 2009 
Q 1159 1288 1364 580 
Q 1569 -128 1984 -844 
L 1484 -844 
Q 1016 -109 783 600 
Q 550 1309 550 2009 
Q 550 2706 781 3412 
Q 1013 4119 1484 4856 
L 1984 4856 
z
" transform="scale(0.015625)"/>
       <path id="DejaVuSans-6f" d="M 1959 3097 
Q 1497 3097 1228 2736 
Q 959 2375 959 1747 
Q 959 1119 1226 758 
Q 1494 397 1959 397 
Q 2419 397 2687 759 
Q 2956 1122 2956 1747 
Q 2956 2369 2687 2733 
Q 2419 3097 1959 3097 
z
M 1959 3584 
Q 2709 3584 3137 3096 
Q 3566 2609 3566 1747 
Q 3566 888 3137 398 
Q 2709 -91 1959 -91 
Q 1206 -91 779 398 
Q 353 888 353 1747 
Q 353 2609 779 3096 
Q 1206 3584 1959 3584 
z
" transform="scale(0.015625)"/>
       <path id="DejaVuSans-75" d="M 544 1381 
L 544 3500 
L 1119 3500 
L 1119 1403 
Q 1119 906 1312 657 
Q 1506 409 1894 409 
Q 2359 409 2629 706 
Q 2900 1003 2900 1516 
L 2900 3500 
L 3475 3500 
L 3475 0 
L 2900 0 
L 2900 538 
Q 2691 219 2414 64 
Q 2138 -91 1772 -91 
Q 1169 -91 856 284 
Q 544 659 544 1381 
z
M 1991 3584 
L 1991 3584 
z
" transform="scale(0.015625)"/>
       <path id="DejaVuSans-72" d="M 2631 2963 
Q 2534 3019 2420 3045 
Q 2306 3072 2169 3072 
Q 1681 3072 1420 2755 
Q 1159 2438 1159 1844 
L 1159 0 
L 581 0 
L 581 3500 
L 1159 3500 
L 1159 2956 
Q 1341 3275 1631 3429 
Q 1922 3584 2338 3584 
Q 2397 3584 2469 3576 
Q 2541 3569 2628 3553 
L 2631 2963 
z
" transform="scale(0.015625)"/>
       <path id="DejaVuSans-6e" d="M 3513 2113 
L 3513 0 
L 2938 0 
L 2938 2094 
Q 2938 2591 2744 2837 
Q 2550 3084 2163 3084 
Q 1697 3084 1428 2787 
Q 1159 2491 1159 1978 
L 1159 0 
L 581 0 
L 581 3500 
L 1159 3500 
L 1159 2956 
Q 1366 3272 1645 3428 
Q 1925 3584 2291 3584 
Q 2894 3584 3203 3211 
Q 3513 2838 3513 2113 
z
" transform="scale(0.015625)"/>
       <path id="DejaVuSans-74" d="M 1172 4494 
L 1172 3500 
L 2356 3500 
L 2356 3053 
L 1172 3053 
L 1172 1153 
Q 1172 725 1289 603 
Q 1406 481 1766 481 
L 2356 481 
L 2356 0 
L 1766 0 
Q 1100 0 847 248 
Q 594 497 594 1153 
L 594 3053 
L 172 3053 
L 172 3500 
L 594 3500 
L 594 4494 
L 1172 4494 
z
" transform="scale(0.015625)"/>
       <path id="DejaVuSans-29" d="M 513 4856 
L 1013 4856 
Q 1481 4119 1714 3412 
Q 1947 2706 1947 2009 
Q 1947 1309 1714 600 
Q 1481 -109 1013 -844 
L 513 -844 
Q 928 -128 1133 580 
Q 1338 1288 1338 2009 
Q 1338 2731 1133 3434 
Q 928 4138 513 4856 
z
" transform="scale(0.015625)"/>
      </defs>
      <use xlink:href="#DejaVuSans-54"/>
      <use xlink:href="#DejaVuSans-69" x="57.958984"/>
      <use xlink:href="#DejaVuSans-6d" x="85.742188"/>
      <use xlink:href="#DejaVuSans-65" x="183.154297"/>
      <use xlink:href="#DejaVuSans-20" x="244.677734"/>
      <use xlink:href="#DejaVuSans-28" x="276.464844"/>
      <use xlink:href="#DejaVuSans-68" x="315.478516"/>
      <use xlink:href="#DejaVuSans-6f" x="378.857422"/>
      <use xlink:href="#DejaVuSans-75" x="440.039062"/>
      <use xlink:href="#DejaVuSans-72" x="503.417969"/>
      <use xlink:href="#DejaVuSans-3a" x="542.78125"/>
      <use xlink:href="#DejaVuSans-6d" x="576.472656"/>
      <use xlink:href="#DejaVuSans-69" x="673.884766"/>
      <use xlink:href="#DejaVuSans-6e" x="701.667969"/>
      <use xlink:href="#DejaVuSans-75" x="765.046875"/>
      <use xlink:href="#DejaVuSans-74" x="828.425781"/>
      <use xlink:href="#DejaVuSans-65" x="867.634766"/>
      <use xlink:href="#DejaVuSans-29" x="929.158203"/>
     </g>
    </g>
   </g>
   <g id="matplotlib.axis_2">
    <g id="ytick_1">
     <g id="line2d_13">
      <defs>
       <path id="mfcd98f6b7f" d="M 0 0 
L -3.5 0 
" style="stroke: #000000; stroke-width: 0.8"/>
      </defs>
      <g>
       <use xlink:href="#mfcd98f6b7f" x="59.690625" y="260.75016" style="stroke: #000000; stroke-width: 0.8"/>
      </g>
     </g>
     <g id="text_10">
      <!-- 9000 -->
      <g transform="translate(27.240625 264.549379) scale(0.1 -0.1)">
       <defs>
        <path id="DejaVuSans-39" d="M 703 97 
L 703 672 
Q 941 559 1184 500 
Q 1428 441 1663 441 
Q 2288 441 2617 861 
Q 2947 1281 2994 2138 
Q 2813 1869 2534 1725 
Q 2256 1581 1919 1581 
Q 1219 1581 811 2004 
Q 403 2428 403 3163 
Q 403 3881 828 4315 
Q 1253 4750 1959 4750 
Q 2769 4750 3195 4129 
Q 3622 3509 3622 2328 
Q 3622 1225 3098 567 
Q 2575 -91 1691 -91 
Q 1453 -91 1209 -44 
Q 966 3 703 97 
z
M 1959 2075 
Q 2384 2075 2632 2365 
Q 2881 2656 2881 3163 
Q 2881 3666 2632 3958 
Q 2384 4250 1959 4250 
Q 1534 4250 1286 3958 
Q 1038 3666 1038 3163 
Q 1038 2656 1286 2365 
Q 1534 2075 1959 2075 
z
" transform="scale(0.015625)"/>
       </defs>
       <use xlink:href="#DejaVuSans-39"/>
       <use xlink:href="#DejaVuSans-30" x="63.623047"/>
       <use xlink:href="#DejaVuSans-30" x="127.246094"/>
       <use xlink:href="#DejaVuSans-30" x="190.869141"/>
      </g>
     </g>
    </g>
    <g id="ytick_2">
     <g id="line2d_14">
      <g>
       <use xlink:href="#mfcd98f6b7f" x="59.690625" y="225.651139" style="stroke: #000000; stroke-width: 0.8"/>
      </g>
     </g>
     <g id="text_11">
      <!-- 10000 -->
      <g transform="translate(20.878125 229.450358) scale(0.1 -0.1)">
       <use xlink:href="#DejaVuSans-31"/>
       <use xlink:href="#DejaVuSans-30" x="63.623047"/>
       <use xlink:href="#DejaVuSans-30" x="127.246094"/>
       <use xlink:href="#DejaVuSans-30" x="190.869141"/>
       <use xlink:href="#DejaVuSans-30" x="254.492188"/>
      </g>
     </g>
    </g>
    <g id="ytick_3">
     <g id="line2d_15">
      <g>
       <use xlink:href="#mfcd98f6b7f" x="59.690625" y="190.552118" style="stroke: #000000; stroke-width: 0.8"/>
      </g>
     </g>
     <g id="text_12">
      <!-- 11000 -->
      <g transform="translate(20.878125 194.351337) scale(0.1 -0.1)">
       <use xlink:href="#DejaVuSans-31"/>
       <use xlink:href="#DejaVuSans-31" x="63.623047"/>
       <use xlink:href="#DejaVuSans-30" x="127.246094"/>
       <use xlink:href="#DejaVuSans-30" x="190.869141"/>
       <use xlink:href="#DejaVuSans-30" x="254.492188"/>
      </g>
     </g>
    </g>
    <g id="ytick_4">
     <g id="line2d_16">
      <g>
       <use xlink:href="#mfcd98f6b7f" x="59.690625" y="155.453098" style="stroke: #000000; stroke-width: 0.8"/>
      </g>
     </g>
     <g id="text_13">
      <!-- 12000 -->
      <g transform="translate(20.878125 159.252317) scale(0.1 -0.1)">
       <use xlink:href="#DejaVuSans-31"/>
       <use xlink:href="#DejaVuSans-32" x="63.623047"/>
       <use xlink:href="#DejaVuSans-30" x="127.246094"/>
       <use xlink:href="#DejaVuSans-30" x="190.869141"/>
       <use xlink:href="#DejaVuSans-30" x="254.492188"/>
      </g>
     </g>
    </g>
    <g id="ytick_5">
     <g id="line2d_17">
      <g>
       <use xlink:href="#mfcd98f6b7f" x="59.690625" y="120.354077" style="stroke: #000000; stroke-width: 0.8"/>
      </g>
     </g>
     <g id="text_14">
      <!-- 13000 -->
      <g transform="translate(20.878125 124.153296) scale(0.1 -0.1)">
       <defs>
        <path id="DejaVuSans-33" d="M 2597 2516 
Q 3050 2419 3304 2112 
Q 3559 1806 3559 1356 
Q 3559 666 3084 287 
Q 2609 -91 1734 -91 
Q 1441 -91 1130 -33 
Q 819 25 488 141 
L 488 750 
Q 750 597 1062 519 
Q 1375 441 1716 441 
Q 2309 441 2620 675 
Q 2931 909 2931 1356 
Q 2931 1769 2642 2001 
Q 2353 2234 1838 2234 
L 1294 2234 
L 1294 2753 
L 1863 2753 
Q 2328 2753 2575 2939 
Q 2822 3125 2822 3475 
Q 2822 3834 2567 4026 
Q 2313 4219 1838 4219 
Q 1578 4219 1281 4162 
Q 984 4106 628 3988 
L 628 4550 
Q 988 4650 1302 4700 
Q 1616 4750 1894 4750 
Q 2613 4750 3031 4423 
Q 3450 4097 3450 3541 
Q 3450 3153 3228 2886 
Q 3006 2619 2597 2516 
z
" transform="scale(0.015625)"/>
       </defs>
       <use xlink:href="#DejaVuSans-31"/>
       <use xlink:href="#DejaVuSans-33" x="63.623047"/>
       <use xlink:href="#DejaVuSans-30" x="127.246094"/>
       <use xlink:href="#DejaVuSans-30" x="190.869141"/>
       <use xlink:href="#DejaVuSans-30" x="254.492188"/>
      </g>
     </g>
    </g>
    <g id="ytick_6">
     <g id="line2d_18">
      <g>
       <use xlink:href="#mfcd98f6b7f" x="59.690625" y="85.255056" style="stroke: #000000; stroke-width: 0.8"/>
      </g>
     </g>
     <g id="text_15">
      <!-- 14000 -->
      <g transform="translate(20.878125 89.054275) scale(0.1 -0.1)">
       <use xlink:href="#DejaVuSans-31"/>
       <use xlink:href="#DejaVuSans-34" x="63.623047"/>
       <use xlink:href="#DejaVuSans-30" x="127.246094"/>
       <use xlink:href="#DejaVuSans-30" x="190.869141"/>
       <use xlink:href="#DejaVuSans-30" x="254.492188"/>
      </g>
     </g>
    </g>
    <g id="ytick_7">
     <g id="line2d_19">
      <g>
       <use xlink:href="#mfcd98f6b7f" x="59.690625" y="50.156036" style="stroke: #000000; stroke-width: 0.8"/>
      </g>
     </g>
     <g id="text_16">
      <!-- 15000 -->
      <g transform="translate(20.878125 53.955255) scale(0.1 -0.1)">
       <use xlink:href="#DejaVuSans-31"/>
       <use xlink:href="#DejaVuSans-35" x="63.623047"/>
       <use xlink:href="#DejaVuSans-30" x="127.246094"/>
       <use xlink:href="#DejaVuSans-30" x="190.869141"/>
       <use xlink:href="#DejaVuSans-30" x="254.492188"/>
      </g>
     </g>
    </g>
    <g id="text_17">
     <!-- Code branch coverage -->
     <g transform="translate(14.798438 211.949125) rotate(-90) scale(0.1 -0.1)">
      <defs>
       <path id="DejaVuSans-43" d="M 4122 4306 
L 4122 3641 
Q 3803 3938 3442 4084 
Q 3081 4231 2675 4231 
Q 1875 4231 1450 3742 
Q 1025 3253 1025 2328 
Q 1025 1406 1450 917 
Q 1875 428 2675 428 
Q 3081 428 3442 575 
Q 3803 722 4122 1019 
L 4122 359 
Q 3791 134 3420 21 
Q 3050 -91 2638 -91 
Q 1578 -91 968 557 
Q 359 1206 359 2328 
Q 359 3453 968 4101 
Q 1578 4750 2638 4750 
Q 3056 4750 3426 4639 
Q 3797 4528 4122 4306 
z
" transform="scale(0.015625)"/>
       <path id="DejaVuSans-64" d="M 2906 2969 
L 2906 4863 
L 3481 4863 
L 3481 0 
L 2906 0 
L 2906 525 
Q 2725 213 2448 61 
Q 2172 -91 1784 -91 
Q 1150 -91 751 415 
Q 353 922 353 1747 
Q 353 2572 751 3078 
Q 1150 3584 1784 3584 
Q 2172 3584 2448 3432 
Q 2725 3281 2906 2969 
z
M 947 1747 
Q 947 1113 1208 752 
Q 1469 391 1925 391 
Q 2381 391 2643 752 
Q 2906 1113 2906 1747 
Q 2906 2381 2643 2742 
Q 2381 3103 1925 3103 
Q 1469 3103 1208 2742 
Q 947 2381 947 1747 
z
" transform="scale(0.015625)"/>
       <path id="DejaVuSans-62" d="M 3116 1747 
Q 3116 2381 2855 2742 
Q 2594 3103 2138 3103 
Q 1681 3103 1420 2742 
Q 1159 2381 1159 1747 
Q 1159 1113 1420 752 
Q 1681 391 2138 391 
Q 2594 391 2855 752 
Q 3116 1113 3116 1747 
z
M 1159 2969 
Q 1341 3281 1617 3432 
Q 1894 3584 2278 3584 
Q 2916 3584 3314 3078 
Q 3713 2572 3713 1747 
Q 3713 922 3314 415 
Q 2916 -91 2278 -91 
Q 1894 -91 1617 61 
Q 1341 213 1159 525 
L 1159 0 
L 581 0 
L 581 4863 
L 1159 4863 
L 1159 2969 
z
" transform="scale(0.015625)"/>
       <path id="DejaVuSans-61" d="M 2194 1759 
Q 1497 1759 1228 1600 
Q 959 1441 959 1056 
Q 959 750 1161 570 
Q 1363 391 1709 391 
Q 2188 391 2477 730 
Q 2766 1069 2766 1631 
L 2766 1759 
L 2194 1759 
z
M 3341 1997 
L 3341 0 
L 2766 0 
L 2766 531 
Q 2569 213 2275 61 
Q 1981 -91 1556 -91 
Q 1019 -91 701 211 
Q 384 513 384 1019 
Q 384 1609 779 1909 
Q 1175 2209 1959 2209 
L 2766 2209 
L 2766 2266 
Q 2766 2663 2505 2880 
Q 2244 3097 1772 3097 
Q 1472 3097 1187 3025 
Q 903 2953 641 2809 
L 641 3341 
Q 956 3463 1253 3523 
Q 1550 3584 1831 3584 
Q 2591 3584 2966 3190 
Q 3341 2797 3341 1997 
z
" transform="scale(0.015625)"/>
       <path id="DejaVuSans-63" d="M 3122 3366 
L 3122 2828 
Q 2878 2963 2633 3030 
Q 2388 3097 2138 3097 
Q 1578 3097 1268 2742 
Q 959 2388 959 1747 
Q 959 1106 1268 751 
Q 1578 397 2138 397 
Q 2388 397 2633 464 
Q 2878 531 3122 666 
L 3122 134 
Q 2881 22 2623 -34 
Q 2366 -91 2075 -91 
Q 1284 -91 818 406 
Q 353 903 353 1747 
Q 353 2603 823 3093 
Q 1294 3584 2113 3584 
Q 2378 3584 2631 3529 
Q 2884 3475 3122 3366 
z
" transform="scale(0.015625)"/>
       <path id="DejaVuSans-76" d="M 191 3500 
L 800 3500 
L 1894 563 
L 2988 3500 
L 3597 3500 
L 2284 0 
L 1503 0 
L 191 3500 
z
" transform="scale(0.015625)"/>
       <path id="DejaVuSans-67" d="M 2906 1791 
Q 2906 2416 2648 2759 
Q 2391 3103 1925 3103 
Q 1463 3103 1205 2759 
Q 947 2416 947 1791 
Q 947 1169 1205 825 
Q 1463 481 1925 481 
Q 2391 481 2648 825 
Q 2906 1169 2906 1791 
z
M 3481 434 
Q 3481 -459 3084 -895 
Q 2688 -1331 1869 -1331 
Q 1566 -1331 1297 -1286 
Q 1028 -1241 775 -1147 
L 775 -588 
Q 1028 -725 1275 -790 
Q 1522 -856 1778 -856 
Q 2344 -856 2625 -561 
Q 2906 -266 2906 331 
L 2906 616 
Q 2728 306 2450 153 
Q 2172 0 1784 0 
Q 1141 0 747 490 
Q 353 981 353 1791 
Q 353 2603 747 3093 
Q 1141 3584 1784 3584 
Q 2172 3584 2450 3431 
Q 2728 3278 2906 2969 
L 2906 3500 
L 3481 3500 
L 3481 434 
z
" transform="scale(0.015625)"/>
      </defs>
      <use xlink:href="#DejaVuSans-43"/>
      <use xlink:href="#DejaVuSans-6f" x="69.824219"/>
      <use xlink:href="#DejaVuSans-64" x="131.005859"/>
      <use xlink:href="#DejaVuSans-65" x="194.482422"/>
      <use xlink:href="#DejaVuSans-20" x="256.005859"/>
      <use xlink:href="#DejaVuSans-62" x="287.792969"/>
      <use xlink:href="#DejaVuSans-72" x="351.269531"/>
      <use xlink:href="#DejaVuSans-61" x="392.382812"/>
      <use xlink:href="#DejaVuSans-6e" x="453.662109"/>
      <use xlink:href="#DejaVuSans-63" x="517.041016"/>
      <use xlink:href="#DejaVuSans-68" x="572.021484"/>
      <use xlink:href="#DejaVuSans-20" x="635.400391"/>
      <use xlink:href="#DejaVuSans-63" x="667.1875"/>
      <use xlink:href="#DejaVuSans-6f" x="722.167969"/>
      <use xlink:href="#DejaVuSans-76" x="783.349609"/>
      <use xlink:href="#DejaVuSans-65" x="842.529297"/>
      <use xlink:href="#DejaVuSans-72" x="904.052734"/>
      <use xlink:href="#DejaVuSans-61" x="945.166016"/>
      <use xlink:href="#DejaVuSans-67" x="1006.445312"/>
      <use xlink:href="#DejaVuSans-65" x="1069.921875"/>
     </g>
    </g>
   </g>
   <g id="line2d_20">
    <path d="M 59.690625 276.334125 
L 525.836797 125.127544 
L 563.114139 111.561772 
L 584.919987 85.044462 
L 600.391482 78.375648 
L 612.392105 71.461141 
L 622.197329 68.161833 
L 630.487527 64.248293 
L 637.668824 60.124158 
L 644.003176 57.754974 
L 649.669448 55.157646 
L 654.795213 53.894081 
L 659.474671 51.78814 
L 663.779355 50.805368 
L 667.76487 50.050739 
L 671.475295 49.612001 
L 674.946166 48.892471 
L 678.206548 47.769302 
L 681.280519 47.13752 
L 684.188245 47.032223 
L 686.94679 46.014351 
L 689.570717 45.645812 
L 692.072556 45.575614 
L 694.463164 44.961381 
L 696.752013 44.487544 
L 698.947414 44.452445 
L 701.056697 44.101455 
L 703.086366 43.820663 
L 705.042212 43.645167 
L 706.929417 43.504771 
L 708.752637 43.469672 
L 710.516069 43.452123 
L 712.223508 42.855439 
L 713.878403 42.644845 
L 715.483891 42.539548 
L 717.042836 42.504449 
L 718.557861 42.4869 
L 720.031373 42.434251 
L 721.465587 42.048162 
L 722.862545 41.925315 
L 724.224132 41.837568 
L 725.552097 41.74982 
L 726.848059 41.521677 
L 728.113525 41.521677 
L 729.349898 41.433929 
L 730.558485 40.872345 
L 731.740507 40.819696 
L 732.897107 40.819696 
L 734.029356 40.714399 
L 735.138258 40.626652 
L 736.224756 40.451157 
L 737.289738 40.451157 
L 738.334039 40.451157 
L 739.358448 40.398508 
L 740.363708 40.029968 
L 741.350522 39.994869 
L 742.319554 39.889572 
L 743.271434 39.872023 
L 744.20676 39.872023 
L 745.126095 39.836924 
L 746.029979 39.801825 
L 746.918923 39.801825 
L 747.793411 39.801825 
L 748.653907 39.643879 
L 749.500851 39.643879 
L 750.334663 39.485933 
L 751.155745 39.380636 
L 751.96448 39.345537 
L 752.761233 39.327988 
L 753.546354 39.152493 
L 754.320178 39.099844 
L 755.083025 39.012097 
L 755.835203 38.52071 
L 756.577006 38.397864 
L 757.308715 37.959126 
L 758.030603 37.906478 
L 758.742929 37.83628 
L 759.445944 37.81873 
L 760.139887 37.783631 
L 760.82499 37.695883 
L 761.501474 37.695883 
L 762.169555 37.660784 
L 762.829439 37.643235 
L 763.481324 37.608136 
L 764.125401 37.590586 
L 764.761857 36.555165 
L 765.390868 36.537616 
L 766.012607 36.520066 
L 766.62724 36.502517 
L 767.234929 36.484967 
L 767.835827 36.449868 
L 768.430085 36.37967 
L 769.017849 36.256824 
L 769.599258 36.186626 
L 770.174449 36.151527 
L 770.743553 36.151527 
L 771.306698 36.151527 
" clip-path="url(#p71d10d43fb)" style="fill: none; stroke: #1f77b4; stroke-width: 1.5; stroke-linecap: square"/>
    <defs>
     <path id="m12cc76f320" d="M 0 3 
C 0.795609 3 1.55874 2.683901 2.12132 2.12132 
C 2.683901 1.55874 3 0.795609 3 0 
C 3 -0.795609 2.683901 -1.55874 2.12132 -2.12132 
C 1.55874 -2.683901 0.795609 -3 0 -3 
C -0.795609 -3 -1.55874 -2.683901 -2.12132 -2.12132 
C -2.683901 -1.55874 -3 -0.795609 -3 0 
C -3 0.795609 -2.683901 1.55874 -2.12132 2.12132 
C -1.55874 2.683901 -0.795609 3 0 3 
z
" style="stroke: #ffffff; stroke-width: 0.75"/>
    </defs>
    <g clip-path="url(#p71d10d43fb)">
     <use xlink:href="#m12cc76f320" x="59.690625" y="276.334125" style="fill: #1f77b4; stroke: #ffffff; stroke-width: 0.75"/>
     <use xlink:href="#m12cc76f320" x="525.836797" y="125.127544" style="fill: #1f77b4; stroke: #ffffff; stroke-width: 0.75"/>
     <use xlink:href="#m12cc76f320" x="563.114139" y="111.561772" style="fill: #1f77b4; stroke: #ffffff; stroke-width: 0.75"/>
     <use xlink:href="#m12cc76f320" x="584.919987" y="85.044462" style="fill: #1f77b4; stroke: #ffffff; stroke-width: 0.75"/>
     <use xlink:href="#m12cc76f320" x="600.391482" y="78.375648" style="fill: #1f77b4; stroke: #ffffff; stroke-width: 0.75"/>
     <use xlink:href="#m12cc76f320" x="612.392105" y="71.461141" style="fill: #1f77b4; stroke: #ffffff; stroke-width: 0.75"/>
     <use xlink:href="#m12cc76f320" x="622.197329" y="68.161833" style="fill: #1f77b4; stroke: #ffffff; stroke-width: 0.75"/>
     <use xlink:href="#m12cc76f320" x="630.487527" y="64.248293" style="fill: #1f77b4; stroke: #ffffff; stroke-width: 0.75"/>
     <use xlink:href="#m12cc76f320" x="637.668824" y="60.124158" style="fill: #1f77b4; stroke: #ffffff; stroke-width: 0.75"/>
     <use xlink:href="#m12cc76f320" x="644.003176" y="57.754974" style="fill: #1f77b4; stroke: #ffffff; stroke-width: 0.75"/>
     <use xlink:href="#m12cc76f320" x="649.669448" y="55.157646" style="fill: #1f77b4; stroke: #ffffff; stroke-width: 0.75"/>
     <use xlink:href="#m12cc76f320" x="654.795213" y="53.894081" style="fill: #1f77b4; stroke: #ffffff; stroke-width: 0.75"/>
     <use xlink:href="#m12cc76f320" x="659.474671" y="51.78814" style="fill: #1f77b4; stroke: #ffffff; stroke-width: 0.75"/>
     <use xlink:href="#m12cc76f320" x="663.779355" y="50.805368" style="fill: #1f77b4; stroke: #ffffff; stroke-width: 0.75"/>
     <use xlink:href="#m12cc76f320" x="667.76487" y="50.050739" style="fill: #1f77b4; stroke: #ffffff; stroke-width: 0.75"/>
     <use xlink:href="#m12cc76f320" x="671.475295" y="49.612001" style="fill: #1f77b4; stroke: #ffffff; stroke-width: 0.75"/>
     <use xlink:href="#m12cc76f320" x="674.946166" y="48.892471" style="fill: #1f77b4; stroke: #ffffff; stroke-width: 0.75"/>
     <use xlink:href="#m12cc76f320" x="678.206548" y="47.769302" style="fill: #1f77b4; stroke: #ffffff; stroke-width: 0.75"/>
     <use xlink:href="#m12cc76f320" x="681.280519" y="47.13752" style="fill: #1f77b4; stroke: #ffffff; stroke-width: 0.75"/>
     <use xlink:href="#m12cc76f320" x="684.188245" y="47.032223" style="fill: #1f77b4; stroke: #ffffff; stroke-width: 0.75"/>
     <use xlink:href="#m12cc76f320" x="686.94679" y="46.014351" style="fill: #1f77b4; stroke: #ffffff; stroke-width: 0.75"/>
     <use xlink:href="#m12cc76f320" x="689.570717" y="45.645812" style="fill: #1f77b4; stroke: #ffffff; stroke-width: 0.75"/>
     <use xlink:href="#m12cc76f320" x="692.072556" y="45.575614" style="fill: #1f77b4; stroke: #ffffff; stroke-width: 0.75"/>
     <use xlink:href="#m12cc76f320" x="694.463164" y="44.961381" style="fill: #1f77b4; stroke: #ffffff; stroke-width: 0.75"/>
     <use xlink:href="#m12cc76f320" x="696.752013" y="44.487544" style="fill: #1f77b4; stroke: #ffffff; stroke-width: 0.75"/>
     <use xlink:href="#m12cc76f320" x="698.947414" y="44.452445" style="fill: #1f77b4; stroke: #ffffff; stroke-width: 0.75"/>
     <use xlink:href="#m12cc76f320" x="701.056697" y="44.101455" style="fill: #1f77b4; stroke: #ffffff; stroke-width: 0.75"/>
     <use xlink:href="#m12cc76f320" x="703.086366" y="43.820663" style="fill: #1f77b4; stroke: #ffffff; stroke-width: 0.75"/>
     <use xlink:href="#m12cc76f320" x="705.042212" y="43.645167" style="fill: #1f77b4; stroke: #ffffff; stroke-width: 0.75"/>
     <use xlink:href="#m12cc76f320" x="706.929417" y="43.504771" style="fill: #1f77b4; stroke: #ffffff; stroke-width: 0.75"/>
     <use xlink:href="#m12cc76f320" x="708.752637" y="43.469672" style="fill: #1f77b4; stroke: #ffffff; stroke-width: 0.75"/>
     <use xlink:href="#m12cc76f320" x="710.516069" y="43.452123" style="fill: #1f77b4; stroke: #ffffff; stroke-width: 0.75"/>
     <use xlink:href="#m12cc76f320" x="712.223508" y="42.855439" style="fill: #1f77b4; stroke: #ffffff; stroke-width: 0.75"/>
     <use xlink:href="#m12cc76f320" x="713.878403" y="42.644845" style="fill: #1f77b4; stroke: #ffffff; stroke-width: 0.75"/>
     <use xlink:href="#m12cc76f320" x="715.483891" y="42.539548" style="fill: #1f77b4; stroke: #ffffff; stroke-width: 0.75"/>
     <use xlink:href="#m12cc76f320" x="717.042836" y="42.504449" style="fill: #1f77b4; stroke: #ffffff; stroke-width: 0.75"/>
     <use xlink:href="#m12cc76f320" x="718.557861" y="42.4869" style="fill: #1f77b4; stroke: #ffffff; stroke-width: 0.75"/>
     <use xlink:href="#m12cc76f320" x="720.031373" y="42.434251" style="fill: #1f77b4; stroke: #ffffff; stroke-width: 0.75"/>
     <use xlink:href="#m12cc76f320" x="721.465587" y="42.048162" style="fill: #1f77b4; stroke: #ffffff; stroke-width: 0.75"/>
     <use xlink:href="#m12cc76f320" x="722.862545" y="41.925315" style="fill: #1f77b4; stroke: #ffffff; stroke-width: 0.75"/>
     <use xlink:href="#m12cc76f320" x="724.224132" y="41.837568" style="fill: #1f77b4; stroke: #ffffff; stroke-width: 0.75"/>
     <use xlink:href="#m12cc76f320" x="725.552097" y="41.74982" style="fill: #1f77b4; stroke: #ffffff; stroke-width: 0.75"/>
     <use xlink:href="#m12cc76f320" x="726.848059" y="41.521677" style="fill: #1f77b4; stroke: #ffffff; stroke-width: 0.75"/>
     <use xlink:href="#m12cc76f320" x="728.113525" y="41.521677" style="fill: #1f77b4; stroke: #ffffff; stroke-width: 0.75"/>
     <use xlink:href="#m12cc76f320" x="729.349898" y="41.433929" style="fill: #1f77b4; stroke: #ffffff; stroke-width: 0.75"/>
     <use xlink:href="#m12cc76f320" x="730.558485" y="40.872345" style="fill: #1f77b4; stroke: #ffffff; stroke-width: 0.75"/>
     <use xlink:href="#m12cc76f320" x="731.740507" y="40.819696" style="fill: #1f77b4; stroke: #ffffff; stroke-width: 0.75"/>
     <use xlink:href="#m12cc76f320" x="732.897107" y="40.819696" style="fill: #1f77b4; stroke: #ffffff; stroke-width: 0.75"/>
     <use xlink:href="#m12cc76f320" x="734.029356" y="40.714399" style="fill: #1f77b4; stroke: #ffffff; stroke-width: 0.75"/>
     <use xlink:href="#m12cc76f320" x="735.138258" y="40.626652" style="fill: #1f77b4; stroke: #ffffff; stroke-width: 0.75"/>
     <use xlink:href="#m12cc76f320" x="736.224756" y="40.451157" style="fill: #1f77b4; stroke: #ffffff; stroke-width: 0.75"/>
     <use xlink:href="#m12cc76f320" x="737.289738" y="40.451157" style="fill: #1f77b4; stroke: #ffffff; stroke-width: 0.75"/>
     <use xlink:href="#m12cc76f320" x="738.334039" y="40.451157" style="fill: #1f77b4; stroke: #ffffff; stroke-width: 0.75"/>
     <use xlink:href="#m12cc76f320" x="739.358448" y="40.398508" style="fill: #1f77b4; stroke: #ffffff; stroke-width: 0.75"/>
     <use xlink:href="#m12cc76f320" x="740.363708" y="40.029968" style="fill: #1f77b4; stroke: #ffffff; stroke-width: 0.75"/>
     <use xlink:href="#m12cc76f320" x="741.350522" y="39.994869" style="fill: #1f77b4; stroke: #ffffff; stroke-width: 0.75"/>
     <use xlink:href="#m12cc76f320" x="742.319554" y="39.889572" style="fill: #1f77b4; stroke: #ffffff; stroke-width: 0.75"/>
     <use xlink:href="#m12cc76f320" x="743.271434" y="39.872023" style="fill: #1f77b4; stroke: #ffffff; stroke-width: 0.75"/>
     <use xlink:href="#m12cc76f320" x="744.20676" y="39.872023" style="fill: #1f77b4; stroke: #ffffff; stroke-width: 0.75"/>
     <use xlink:href="#m12cc76f320" x="745.126095" y="39.836924" style="fill: #1f77b4; stroke: #ffffff; stroke-width: 0.75"/>
     <use xlink:href="#m12cc76f320" x="746.029979" y="39.801825" style="fill: #1f77b4; stroke: #ffffff; stroke-width: 0.75"/>
     <use xlink:href="#m12cc76f320" x="746.918923" y="39.801825" style="fill: #1f77b4; stroke: #ffffff; stroke-width: 0.75"/>
     <use xlink:href="#m12cc76f320" x="747.793411" y="39.801825" style="fill: #1f77b4; stroke: #ffffff; stroke-width: 0.75"/>
     <use xlink:href="#m12cc76f320" x="748.653907" y="39.643879" style="fill: #1f77b4; stroke: #ffffff; stroke-width: 0.75"/>
     <use xlink:href="#m12cc76f320" x="749.500851" y="39.643879" style="fill: #1f77b4; stroke: #ffffff; stroke-width: 0.75"/>
     <use xlink:href="#m12cc76f320" x="750.334663" y="39.485933" style="fill: #1f77b4; stroke: #ffffff; stroke-width: 0.75"/>
     <use xlink:href="#m12cc76f320" x="751.155745" y="39.380636" style="fill: #1f77b4; stroke: #ffffff; stroke-width: 0.75"/>
     <use xlink:href="#m12cc76f320" x="751.96448" y="39.345537" style="fill: #1f77b4; stroke: #ffffff; stroke-width: 0.75"/>
     <use xlink:href="#m12cc76f320" x="752.761233" y="39.327988" style="fill: #1f77b4; stroke: #ffffff; stroke-width: 0.75"/>
     <use xlink:href="#m12cc76f320" x="753.546354" y="39.152493" style="fill: #1f77b4; stroke: #ffffff; stroke-width: 0.75"/>
     <use xlink:href="#m12cc76f320" x="754.320178" y="39.099844" style="fill: #1f77b4; stroke: #ffffff; stroke-width: 0.75"/>
     <use xlink:href="#m12cc76f320" x="755.083025" y="39.012097" style="fill: #1f77b4; stroke: #ffffff; stroke-width: 0.75"/>
     <use xlink:href="#m12cc76f320" x="755.835203" y="38.52071" style="fill: #1f77b4; stroke: #ffffff; stroke-width: 0.75"/>
     <use xlink:href="#m12cc76f320" x="756.577006" y="38.397864" style="fill: #1f77b4; stroke: #ffffff; stroke-width: 0.75"/>
     <use xlink:href="#m12cc76f320" x="757.308715" y="37.959126" style="fill: #1f77b4; stroke: #ffffff; stroke-width: 0.75"/>
     <use xlink:href="#m12cc76f320" x="758.030603" y="37.906478" style="fill: #1f77b4; stroke: #ffffff; stroke-width: 0.75"/>
     <use xlink:href="#m12cc76f320" x="758.742929" y="37.83628" style="fill: #1f77b4; stroke: #ffffff; stroke-width: 0.75"/>
     <use xlink:href="#m12cc76f320" x="759.445944" y="37.81873" style="fill: #1f77b4; stroke: #ffffff; stroke-width: 0.75"/>
     <use xlink:href="#m12cc76f320" x="760.139887" y="37.783631" style="fill: #1f77b4; stroke: #ffffff; stroke-width: 0.75"/>
     <use xlink:href="#m12cc76f320" x="760.82499" y="37.695883" style="fill: #1f77b4; stroke: #ffffff; stroke-width: 0.75"/>
     <use xlink:href="#m12cc76f320" x="761.501474" y="37.695883" style="fill: #1f77b4; stroke: #ffffff; stroke-width: 0.75"/>
     <use xlink:href="#m12cc76f320" x="762.169555" y="37.660784" style="fill: #1f77b4; stroke: #ffffff; stroke-width: 0.75"/>
     <use xlink:href="#m12cc76f320" x="762.829439" y="37.643235" style="fill: #1f77b4; stroke: #ffffff; stroke-width: 0.75"/>
     <use xlink:href="#m12cc76f320" x="763.481324" y="37.608136" style="fill: #1f77b4; stroke: #ffffff; stroke-width: 0.75"/>
     <use xlink:href="#m12cc76f320" x="764.125401" y="37.590586" style="fill: #1f77b4; stroke: #ffffff; stroke-width: 0.75"/>
     <use xlink:href="#m12cc76f320" x="764.761857" y="36.555165" style="fill: #1f77b4; stroke: #ffffff; stroke-width: 0.75"/>
     <use xlink:href="#m12cc76f320" x="765.390868" y="36.537616" style="fill: #1f77b4; stroke: #ffffff; stroke-width: 0.75"/>
     <use xlink:href="#m12cc76f320" x="766.012607" y="36.520066" style="fill: #1f77b4; stroke: #ffffff; stroke-width: 0.75"/>
     <use xlink:href="#m12cc76f320" x="766.62724" y="36.502517" style="fill: #1f77b4; stroke: #ffffff; stroke-width: 0.75"/>
     <use xlink:href="#m12cc76f320" x="767.234929" y="36.484967" style="fill: #1f77b4; stroke: #ffffff; stroke-width: 0.75"/>
     <use xlink:href="#m12cc76f320" x="767.835827" y="36.449868" style="fill: #1f77b4; stroke: #ffffff; stroke-width: 0.75"/>
     <use xlink:href="#m12cc76f320" x="768.430085" y="36.37967" style="fill: #1f77b4; stroke: #ffffff; stroke-width: 0.75"/>
     <use xlink:href="#m12cc76f320" x="769.017849" y="36.256824" style="fill: #1f77b4; stroke: #ffffff; stroke-width: 0.75"/>
     <use xlink:href="#m12cc76f320" x="769.599258" y="36.186626" style="fill: #1f77b4; stroke: #ffffff; stroke-width: 0.75"/>
     <use xlink:href="#m12cc76f320" x="770.174449" y="36.151527" style="fill: #1f77b4; stroke: #ffffff; stroke-width: 0.75"/>
     <use xlink:href="#m12cc76f320" x="770.743553" y="36.151527" style="fill: #1f77b4; stroke: #ffffff; stroke-width: 0.75"/>
     <use xlink:href="#m12cc76f320" x="771.306698" y="36.151527" style="fill: #1f77b4; stroke: #ffffff; stroke-width: 0.75"/>
    </g>
   </g>
   <g id="line2d_21">
    <path d="M 59.690625 276.334125 
L 525.836797 135.850295 
L 563.114139 103.366151 
L 584.919987 90.835801 
L 600.391482 80.972976 
L 612.392105 76.375004 
L 622.197329 70.882007 
L 630.487527 65.248615 
L 637.668824 61.931757 
L 644.003176 59.229133 
L 649.669448 59.176484 
L 654.795213 56.8073 
L 659.474671 55.245394 
L 663.779355 53.051705 
L 667.76487 52.770913 
L 671.475295 51.559997 
L 674.946166 50.419278 
L 678.206548 49.383857 
L 681.280519 48.857372 
L 684.188245 48.629228 
L 686.94679 48.278238 
L 689.570717 47.751753 
L 692.072556 47.558708 
L 694.463164 47.330565 
L 696.752013 46.716332 
L 698.947414 46.646134 
L 701.056697 46.189846 
L 703.086366 45.979252 
L 705.042212 45.838856 
L 706.929417 45.786208 
L 708.752637 45.435217 
L 710.516069 45.171975 
L 712.223508 45.119326 
L 713.878403 45.031579 
L 715.483891 44.943831 
L 717.042836 44.768336 
L 718.557861 44.698138 
L 720.031373 44.329598 
L 721.465587 44.294499 
L 722.862545 43.627618 
L 724.224132 43.592519 
L 725.552097 43.504771 
L 726.848059 43.381925 
L 728.113525 42.943187 
L 729.349898 42.925638 
L 730.558485 42.890538 
L 731.740507 42.785241 
L 732.897107 42.750142 
L 734.029356 42.644845 
L 735.138258 42.364053 
L 736.224756 42.013063 
L 737.289738 41.925315 
L 738.334039 41.907766 
L 739.358448 41.76737 
L 740.363708 41.644523 
L 741.350522 41.591875 
L 742.319554 41.591875 
L 743.271434 41.486578 
L 744.20676 41.363731 
L 745.126095 41.258434 
L 746.029979 41.100488 
L 746.918923 40.995191 
L 747.793411 40.977642 
L 748.653907 40.977642 
L 749.500851 40.942543 
L 750.334663 40.749498 
L 751.155745 40.749498 
L 751.96448 40.714399 
L 752.761233 40.503805 
L 753.546354 40.468706 
L 754.320178 40.082617 
L 755.083025 40.065067 
L 755.835203 39.696528 
L 756.577006 39.643879 
L 757.308715 39.591231 
L 758.030603 39.345537 
L 758.742929 39.117394 
L 759.445944 39.099844 
L 760.139887 38.994547 
L 760.82499 38.994547 
L 761.501474 38.713755 
L 762.169555 38.713755 
L 762.829439 38.661107 
L 763.481324 38.590908 
L 764.125401 38.485611 
L 764.761857 38.380314 
L 765.390868 38.380314 
L 766.012607 38.380314 
L 766.62724 38.380314 
L 767.234929 38.380314 
L 767.835827 38.362765 
L 768.430085 38.345215 
L 769.017849 38.292567 
L 769.599258 38.222369 
L 770.174449 38.18727 
L 770.743553 38.16972 
L 771.306698 38.16972 
" clip-path="url(#p71d10d43fb)" style="fill: none; stroke: #98df8a; stroke-width: 1.5; stroke-linecap: square"/>
    <defs>
     <path id="m84f68f593c" d="M -0 3 
L 3 -3 
L -3 -3 
z
" style="stroke: #ffffff; stroke-width: 0.75; stroke-linejoin: miter"/>
    </defs>
    <g clip-path="url(#p71d10d43fb)">
     <use xlink:href="#m84f68f593c" x="59.690625" y="276.334125" style="fill: #98df8a; stroke: #ffffff; stroke-width: 0.75; stroke-linejoin: miter"/>
     <use xlink:href="#m84f68f593c" x="525.836797" y="135.850295" style="fill: #98df8a; stroke: #ffffff; stroke-width: 0.75; stroke-linejoin: miter"/>
     <use xlink:href="#m84f68f593c" x="563.114139" y="103.366151" style="fill: #98df8a; stroke: #ffffff; stroke-width: 0.75; stroke-linejoin: miter"/>
     <use xlink:href="#m84f68f593c" x="584.919987" y="90.835801" style="fill: #98df8a; stroke: #ffffff; stroke-width: 0.75; stroke-linejoin: miter"/>
     <use xlink:href="#m84f68f593c" x="600.391482" y="80.972976" style="fill: #98df8a; stroke: #ffffff; stroke-width: 0.75; stroke-linejoin: miter"/>
     <use xlink:href="#m84f68f593c" x="612.392105" y="76.375004" style="fill: #98df8a; stroke: #ffffff; stroke-width: 0.75; stroke-linejoin: miter"/>
     <use xlink:href="#m84f68f593c" x="622.197329" y="70.882007" style="fill: #98df8a; stroke: #ffffff; stroke-width: 0.75; stroke-linejoin: miter"/>
     <use xlink:href="#m84f68f593c" x="630.487527" y="65.248615" style="fill: #98df8a; stroke: #ffffff; stroke-width: 0.75; stroke-linejoin: miter"/>
     <use xlink:href="#m84f68f593c" x="637.668824" y="61.931757" style="fill: #98df8a; stroke: #ffffff; stroke-width: 0.75; stroke-linejoin: miter"/>
     <use xlink:href="#m84f68f593c" x="644.003176" y="59.229133" style="fill: #98df8a; stroke: #ffffff; stroke-width: 0.75; stroke-linejoin: miter"/>
     <use xlink:href="#m84f68f593c" x="649.669448" y="59.176484" style="fill: #98df8a; stroke: #ffffff; stroke-width: 0.75; stroke-linejoin: miter"/>
     <use xlink:href="#m84f68f593c" x="654.795213" y="56.8073" style="fill: #98df8a; stroke: #ffffff; stroke-width: 0.75; stroke-linejoin: miter"/>
     <use xlink:href="#m84f68f593c" x="659.474671" y="55.245394" style="fill: #98df8a; stroke: #ffffff; stroke-width: 0.75; stroke-linejoin: miter"/>
     <use xlink:href="#m84f68f593c" x="663.779355" y="53.051705" style="fill: #98df8a; stroke: #ffffff; stroke-width: 0.75; stroke-linejoin: miter"/>
     <use xlink:href="#m84f68f593c" x="667.76487" y="52.770913" style="fill: #98df8a; stroke: #ffffff; stroke-width: 0.75; stroke-linejoin: miter"/>
     <use xlink:href="#m84f68f593c" x="671.475295" y="51.559997" style="fill: #98df8a; stroke: #ffffff; stroke-width: 0.75; stroke-linejoin: miter"/>
     <use xlink:href="#m84f68f593c" x="674.946166" y="50.419278" style="fill: #98df8a; stroke: #ffffff; stroke-width: 0.75; stroke-linejoin: miter"/>
     <use xlink:href="#m84f68f593c" x="678.206548" y="49.383857" style="fill: #98df8a; stroke: #ffffff; stroke-width: 0.75; stroke-linejoin: miter"/>
     <use xlink:href="#m84f68f593c" x="681.280519" y="48.857372" style="fill: #98df8a; stroke: #ffffff; stroke-width: 0.75; stroke-linejoin: miter"/>
     <use xlink:href="#m84f68f593c" x="684.188245" y="48.629228" style="fill: #98df8a; stroke: #ffffff; stroke-width: 0.75; stroke-linejoin: miter"/>
     <use xlink:href="#m84f68f593c" x="686.94679" y="48.278238" style="fill: #98df8a; stroke: #ffffff; stroke-width: 0.75; stroke-linejoin: miter"/>
     <use xlink:href="#m84f68f593c" x="689.570717" y="47.751753" style="fill: #98df8a; stroke: #ffffff; stroke-width: 0.75; stroke-linejoin: miter"/>
     <use xlink:href="#m84f68f593c" x="692.072556" y="47.558708" style="fill: #98df8a; stroke: #ffffff; stroke-width: 0.75; stroke-linejoin: miter"/>
     <use xlink:href="#m84f68f593c" x="694.463164" y="47.330565" style="fill: #98df8a; stroke: #ffffff; stroke-width: 0.75; stroke-linejoin: miter"/>
     <use xlink:href="#m84f68f593c" x="696.752013" y="46.716332" style="fill: #98df8a; stroke: #ffffff; stroke-width: 0.75; stroke-linejoin: miter"/>
     <use xlink:href="#m84f68f593c" x="698.947414" y="46.646134" style="fill: #98df8a; stroke: #ffffff; stroke-width: 0.75; stroke-linejoin: miter"/>
     <use xlink:href="#m84f68f593c" x="701.056697" y="46.189846" style="fill: #98df8a; stroke: #ffffff; stroke-width: 0.75; stroke-linejoin: miter"/>
     <use xlink:href="#m84f68f593c" x="703.086366" y="45.979252" style="fill: #98df8a; stroke: #ffffff; stroke-width: 0.75; stroke-linejoin: miter"/>
     <use xlink:href="#m84f68f593c" x="705.042212" y="45.838856" style="fill: #98df8a; stroke: #ffffff; stroke-width: 0.75; stroke-linejoin: miter"/>
     <use xlink:href="#m84f68f593c" x="706.929417" y="45.786208" style="fill: #98df8a; stroke: #ffffff; stroke-width: 0.75; stroke-linejoin: miter"/>
     <use xlink:href="#m84f68f593c" x="708.752637" y="45.435217" style="fill: #98df8a; stroke: #ffffff; stroke-width: 0.75; stroke-linejoin: miter"/>
     <use xlink:href="#m84f68f593c" x="710.516069" y="45.171975" style="fill: #98df8a; stroke: #ffffff; stroke-width: 0.75; stroke-linejoin: miter"/>
     <use xlink:href="#m84f68f593c" x="712.223508" y="45.119326" style="fill: #98df8a; stroke: #ffffff; stroke-width: 0.75; stroke-linejoin: miter"/>
     <use xlink:href="#m84f68f593c" x="713.878403" y="45.031579" style="fill: #98df8a; stroke: #ffffff; stroke-width: 0.75; stroke-linejoin: miter"/>
     <use xlink:href="#m84f68f593c" x="715.483891" y="44.943831" style="fill: #98df8a; stroke: #ffffff; stroke-width: 0.75; stroke-linejoin: miter"/>
     <use xlink:href="#m84f68f593c" x="717.042836" y="44.768336" style="fill: #98df8a; stroke: #ffffff; stroke-width: 0.75; stroke-linejoin: miter"/>
     <use xlink:href="#m84f68f593c" x="718.557861" y="44.698138" style="fill: #98df8a; stroke: #ffffff; stroke-width: 0.75; stroke-linejoin: miter"/>
     <use xlink:href="#m84f68f593c" x="720.031373" y="44.329598" style="fill: #98df8a; stroke: #ffffff; stroke-width: 0.75; stroke-linejoin: miter"/>
     <use xlink:href="#m84f68f593c" x="721.465587" y="44.294499" style="fill: #98df8a; stroke: #ffffff; stroke-width: 0.75; stroke-linejoin: miter"/>
     <use xlink:href="#m84f68f593c" x="722.862545" y="43.627618" style="fill: #98df8a; stroke: #ffffff; stroke-width: 0.75; stroke-linejoin: miter"/>
     <use xlink:href="#m84f68f593c" x="724.224132" y="43.592519" style="fill: #98df8a; stroke: #ffffff; stroke-width: 0.75; stroke-linejoin: miter"/>
     <use xlink:href="#m84f68f593c" x="725.552097" y="43.504771" style="fill: #98df8a; stroke: #ffffff; stroke-width: 0.75; stroke-linejoin: miter"/>
     <use xlink:href="#m84f68f593c" x="726.848059" y="43.381925" style="fill: #98df8a; stroke: #ffffff; stroke-width: 0.75; stroke-linejoin: miter"/>
     <use xlink:href="#m84f68f593c" x="728.113525" y="42.943187" style="fill: #98df8a; stroke: #ffffff; stroke-width: 0.75; stroke-linejoin: miter"/>
     <use xlink:href="#m84f68f593c" x="729.349898" y="42.925638" style="fill: #98df8a; stroke: #ffffff; stroke-width: 0.75; stroke-linejoin: miter"/>
     <use xlink:href="#m84f68f593c" x="730.558485" y="42.890538" style="fill: #98df8a; stroke: #ffffff; stroke-width: 0.75; stroke-linejoin: miter"/>
     <use xlink:href="#m84f68f593c" x="731.740507" y="42.785241" style="fill: #98df8a; stroke: #ffffff; stroke-width: 0.75; stroke-linejoin: miter"/>
     <use xlink:href="#m84f68f593c" x="732.897107" y="42.750142" style="fill: #98df8a; stroke: #ffffff; stroke-width: 0.75; stroke-linejoin: miter"/>
     <use xlink:href="#m84f68f593c" x="734.029356" y="42.644845" style="fill: #98df8a; stroke: #ffffff; stroke-width: 0.75; stroke-linejoin: miter"/>
     <use xlink:href="#m84f68f593c" x="735.138258" y="42.364053" style="fill: #98df8a; stroke: #ffffff; stroke-width: 0.75; stroke-linejoin: miter"/>
     <use xlink:href="#m84f68f593c" x="736.224756" y="42.013063" style="fill: #98df8a; stroke: #ffffff; stroke-width: 0.75; stroke-linejoin: miter"/>
     <use xlink:href="#m84f68f593c" x="737.289738" y="41.925315" style="fill: #98df8a; stroke: #ffffff; stroke-width: 0.75; stroke-linejoin: miter"/>
     <use xlink:href="#m84f68f593c" x="738.334039" y="41.907766" style="fill: #98df8a; stroke: #ffffff; stroke-width: 0.75; stroke-linejoin: miter"/>
     <use xlink:href="#m84f68f593c" x="739.358448" y="41.76737" style="fill: #98df8a; stroke: #ffffff; stroke-width: 0.75; stroke-linejoin: miter"/>
     <use xlink:href="#m84f68f593c" x="740.363708" y="41.644523" style="fill: #98df8a; stroke: #ffffff; stroke-width: 0.75; stroke-linejoin: miter"/>
     <use xlink:href="#m84f68f593c" x="741.350522" y="41.591875" style="fill: #98df8a; stroke: #ffffff; stroke-width: 0.75; stroke-linejoin: miter"/>
     <use xlink:href="#m84f68f593c" x="742.319554" y="41.591875" style="fill: #98df8a; stroke: #ffffff; stroke-width: 0.75; stroke-linejoin: miter"/>
     <use xlink:href="#m84f68f593c" x="743.271434" y="41.486578" style="fill: #98df8a; stroke: #ffffff; stroke-width: 0.75; stroke-linejoin: miter"/>
     <use xlink:href="#m84f68f593c" x="744.20676" y="41.363731" style="fill: #98df8a; stroke: #ffffff; stroke-width: 0.75; stroke-linejoin: miter"/>
     <use xlink:href="#m84f68f593c" x="745.126095" y="41.258434" style="fill: #98df8a; stroke: #ffffff; stroke-width: 0.75; stroke-linejoin: miter"/>
     <use xlink:href="#m84f68f593c" x="746.029979" y="41.100488" style="fill: #98df8a; stroke: #ffffff; stroke-width: 0.75; stroke-linejoin: miter"/>
     <use xlink:href="#m84f68f593c" x="746.918923" y="40.995191" style="fill: #98df8a; stroke: #ffffff; stroke-width: 0.75; stroke-linejoin: miter"/>
     <use xlink:href="#m84f68f593c" x="747.793411" y="40.977642" style="fill: #98df8a; stroke: #ffffff; stroke-width: 0.75; stroke-linejoin: miter"/>
     <use xlink:href="#m84f68f593c" x="748.653907" y="40.977642" style="fill: #98df8a; stroke: #ffffff; stroke-width: 0.75; stroke-linejoin: miter"/>
     <use xlink:href="#m84f68f593c" x="749.500851" y="40.942543" style="fill: #98df8a; stroke: #ffffff; stroke-width: 0.75; stroke-linejoin: miter"/>
     <use xlink:href="#m84f68f593c" x="750.334663" y="40.749498" style="fill: #98df8a; stroke: #ffffff; stroke-width: 0.75; stroke-linejoin: miter"/>
     <use xlink:href="#m84f68f593c" x="751.155745" y="40.749498" style="fill: #98df8a; stroke: #ffffff; stroke-width: 0.75; stroke-linejoin: miter"/>
     <use xlink:href="#m84f68f593c" x="751.96448" y="40.714399" style="fill: #98df8a; stroke: #ffffff; stroke-width: 0.75; stroke-linejoin: miter"/>
     <use xlink:href="#m84f68f593c" x="752.761233" y="40.503805" style="fill: #98df8a; stroke: #ffffff; stroke-width: 0.75; stroke-linejoin: miter"/>
     <use xlink:href="#m84f68f593c" x="753.546354" y="40.468706" style="fill: #98df8a; stroke: #ffffff; stroke-width: 0.75; stroke-linejoin: miter"/>
     <use xlink:href="#m84f68f593c" x="754.320178" y="40.082617" style="fill: #98df8a; stroke: #ffffff; stroke-width: 0.75; stroke-linejoin: miter"/>
     <use xlink:href="#m84f68f593c" x="755.083025" y="40.065067" style="fill: #98df8a; stroke: #ffffff; stroke-width: 0.75; stroke-linejoin: miter"/>
     <use xlink:href="#m84f68f593c" x="755.835203" y="39.696528" style="fill: #98df8a; stroke: #ffffff; stroke-width: 0.75; stroke-linejoin: miter"/>
     <use xlink:href="#m84f68f593c" x="756.577006" y="39.643879" style="fill: #98df8a; stroke: #ffffff; stroke-width: 0.75; stroke-linejoin: miter"/>
     <use xlink:href="#m84f68f593c" x="757.308715" y="39.591231" style="fill: #98df8a; stroke: #ffffff; stroke-width: 0.75; stroke-linejoin: miter"/>
     <use xlink:href="#m84f68f593c" x="758.030603" y="39.345537" style="fill: #98df8a; stroke: #ffffff; stroke-width: 0.75; stroke-linejoin: miter"/>
     <use xlink:href="#m84f68f593c" x="758.742929" y="39.117394" style="fill: #98df8a; stroke: #ffffff; stroke-width: 0.75; stroke-linejoin: miter"/>
     <use xlink:href="#m84f68f593c" x="759.445944" y="39.099844" style="fill: #98df8a; stroke: #ffffff; stroke-width: 0.75; stroke-linejoin: miter"/>
     <use xlink:href="#m84f68f593c" x="760.139887" y="38.994547" style="fill: #98df8a; stroke: #ffffff; stroke-width: 0.75; stroke-linejoin: miter"/>
     <use xlink:href="#m84f68f593c" x="760.82499" y="38.994547" style="fill: #98df8a; stroke: #ffffff; stroke-width: 0.75; stroke-linejoin: miter"/>
     <use xlink:href="#m84f68f593c" x="761.501474" y="38.713755" style="fill: #98df8a; stroke: #ffffff; stroke-width: 0.75; stroke-linejoin: miter"/>
     <use xlink:href="#m84f68f593c" x="762.169555" y="38.713755" style="fill: #98df8a; stroke: #ffffff; stroke-width: 0.75; stroke-linejoin: miter"/>
     <use xlink:href="#m84f68f593c" x="762.829439" y="38.661107" style="fill: #98df8a; stroke: #ffffff; stroke-width: 0.75; stroke-linejoin: miter"/>
     <use xlink:href="#m84f68f593c" x="763.481324" y="38.590908" style="fill: #98df8a; stroke: #ffffff; stroke-width: 0.75; stroke-linejoin: miter"/>
     <use xlink:href="#m84f68f593c" x="764.125401" y="38.485611" style="fill: #98df8a; stroke: #ffffff; stroke-width: 0.75; stroke-linejoin: miter"/>
     <use xlink:href="#m84f68f593c" x="764.761857" y="38.380314" style="fill: #98df8a; stroke: #ffffff; stroke-width: 0.75; stroke-linejoin: miter"/>
     <use xlink:href="#m84f68f593c" x="765.390868" y="38.380314" style="fill: #98df8a; stroke: #ffffff; stroke-width: 0.75; stroke-linejoin: miter"/>
     <use xlink:href="#m84f68f593c" x="766.012607" y="38.380314" style="fill: #98df8a; stroke: #ffffff; stroke-width: 0.75; stroke-linejoin: miter"/>
     <use xlink:href="#m84f68f593c" x="766.62724" y="38.380314" style="fill: #98df8a; stroke: #ffffff; stroke-width: 0.75; stroke-linejoin: miter"/>
     <use xlink:href="#m84f68f593c" x="767.234929" y="38.380314" style="fill: #98df8a; stroke: #ffffff; stroke-width: 0.75; stroke-linejoin: miter"/>
     <use xlink:href="#m84f68f593c" x="767.835827" y="38.362765" style="fill: #98df8a; stroke: #ffffff; stroke-width: 0.75; stroke-linejoin: miter"/>
     <use xlink:href="#m84f68f593c" x="768.430085" y="38.345215" style="fill: #98df8a; stroke: #ffffff; stroke-width: 0.75; stroke-linejoin: miter"/>
     <use xlink:href="#m84f68f593c" x="769.017849" y="38.292567" style="fill: #98df8a; stroke: #ffffff; stroke-width: 0.75; stroke-linejoin: miter"/>
     <use xlink:href="#m84f68f593c" x="769.599258" y="38.222369" style="fill: #98df8a; stroke: #ffffff; stroke-width: 0.75; stroke-linejoin: miter"/>
     <use xlink:href="#m84f68f593c" x="770.174449" y="38.18727" style="fill: #98df8a; stroke: #ffffff; stroke-width: 0.75; stroke-linejoin: miter"/>
     <use xlink:href="#m84f68f593c" x="770.743553" y="38.16972" style="fill: #98df8a; stroke: #ffffff; stroke-width: 0.75; stroke-linejoin: miter"/>
     <use xlink:href="#m84f68f593c" x="771.306698" y="38.16972" style="fill: #98df8a; stroke: #ffffff; stroke-width: 0.75; stroke-linejoin: miter"/>
    </g>
   </g>
   <g id="line2d_22"/>
   <g id="line2d_23"/>
   <g id="line2d_24">
    <path d="M 771.306698 288.430125 
L 771.306698 22.318125 
" clip-path="url(#p71d10d43fb)" style="fill: none; stroke: #ff0000; stroke-width: 1.5; stroke-linecap: square"/>
   </g>
   <g id="patch_3">
    <path d="M 59.690625 260.75016 
L 59.690625 50.156036 
" style="fill: none; stroke: #000000; stroke-width: 0.8; stroke-linejoin: miter; stroke-linecap: square"/>
   </g>
   <g id="patch_4">
    <path d="M 59.690625 288.430125 
L 771.30732 288.430125 
" style="fill: none; stroke: #000000; stroke-width: 0.8; stroke-linejoin: miter; stroke-linecap: square"/>
   </g>
   <g id="text_18">
    <!-- libxml2_xml (24h, at least 10 trials/fuzzer) -->
    <g transform="translate(289.639688 16.318125) scale(0.12 -0.12)">
     <defs>
      <path id="DejaVuSans-6c" d="M 603 4863 
L 1178 4863 
L 1178 0 
L 603 0 
L 603 4863 
z
" transform="scale(0.015625)"/>
      <path id="DejaVuSans-78" d="M 3513 3500 
L 2247 1797 
L 3578 0 
L 2900 0 
L 1881 1375 
L 863 0 
L 184 0 
L 1544 1831 
L 300 3500 
L 978 3500 
L 1906 2253 
L 2834 3500 
L 3513 3500 
z
" transform="scale(0.015625)"/>
      <path id="DejaVuSans-5f" d="M 3263 -1063 
L 3263 -1509 
L -63 -1509 
L -63 -1063 
L 3263 -1063 
z
" transform="scale(0.015625)"/>
      <path id="DejaVuSans-2c" d="M 750 794 
L 1409 794 
L 1409 256 
L 897 -744 
L 494 -744 
L 750 256 
L 750 794 
z
" transform="scale(0.015625)"/>
      <path id="DejaVuSans-73" d="M 2834 3397 
L 2834 2853 
Q 2591 2978 2328 3040 
Q 2066 3103 1784 3103 
Q 1356 3103 1142 2972 
Q 928 2841 928 2578 
Q 928 2378 1081 2264 
Q 1234 2150 1697 2047 
L 1894 2003 
Q 2506 1872 2764 1633 
Q 3022 1394 3022 966 
Q 3022 478 2636 193 
Q 2250 -91 1575 -91 
Q 1294 -91 989 -36 
Q 684 19 347 128 
L 347 722 
Q 666 556 975 473 
Q 1284 391 1588 391 
Q 1994 391 2212 530 
Q 2431 669 2431 922 
Q 2431 1156 2273 1281 
Q 2116 1406 1581 1522 
L 1381 1569 
Q 847 1681 609 1914 
Q 372 2147 372 2553 
Q 372 3047 722 3315 
Q 1072 3584 1716 3584 
Q 2034 3584 2315 3537 
Q 2597 3491 2834 3397 
z
" transform="scale(0.015625)"/>
      <path id="DejaVuSans-2f" d="M 1625 4666 
L 2156 4666 
L 531 -594 
L 0 -594 
L 1625 4666 
z
" transform="scale(0.015625)"/>
      <path id="DejaVuSans-66" d="M 2375 4863 
L 2375 4384 
L 1825 4384 
Q 1516 4384 1395 4259 
Q 1275 4134 1275 3809 
L 1275 3500 
L 2222 3500 
L 2222 3053 
L 1275 3053 
L 1275 0 
L 697 0 
L 697 3053 
L 147 3053 
L 147 3500 
L 697 3500 
L 697 3744 
Q 697 4328 969 4595 
Q 1241 4863 1831 4863 
L 2375 4863 
z
" transform="scale(0.015625)"/>
      <path id="DejaVuSans-7a" d="M 353 3500 
L 3084 3500 
L 3084 2975 
L 922 459 
L 3084 459 
L 3084 0 
L 275 0 
L 275 525 
L 2438 3041 
L 353 3041 
L 353 3500 
z
" transform="scale(0.015625)"/>
     </defs>
     <use xlink:href="#DejaVuSans-6c"/>
     <use xlink:href="#DejaVuSans-69" x="27.783203"/>
     <use xlink:href="#DejaVuSans-62" x="55.566406"/>
     <use xlink:href="#DejaVuSans-78" x="119.042969"/>
     <use xlink:href="#DejaVuSans-6d" x="178.222656"/>
     <use xlink:href="#DejaVuSans-6c" x="275.634766"/>
     <use xlink:href="#DejaVuSans-32" x="303.417969"/>
     <use xlink:href="#DejaVuSans-5f" x="367.041016"/>
     <use xlink:href="#DejaVuSans-78" x="417.041016"/>
     <use xlink:href="#DejaVuSans-6d" x="476.220703"/>
     <use xlink:href="#DejaVuSans-6c" x="573.632812"/>
     <use xlink:href="#DejaVuSans-20" x="601.416016"/>
     <use xlink:href="#DejaVuSans-28" x="633.203125"/>
     <use xlink:href="#DejaVuSans-32" x="672.216797"/>
     <use xlink:href="#DejaVuSans-34" x="735.839844"/>
     <use xlink:href="#DejaVuSans-68" x="799.462891"/>
     <use xlink:href="#DejaVuSans-2c" x="862.841797"/>
     <use xlink:href="#DejaVuSans-20" x="894.628906"/>
     <use xlink:href="#DejaVuSans-61" x="926.416016"/>
     <use xlink:href="#DejaVuSans-74" x="987.695312"/>
     <use xlink:href="#DejaVuSans-20" x="1026.904297"/>
     <use xlink:href="#DejaVuSans-6c" x="1058.691406"/>
     <use xlink:href="#DejaVuSans-65" x="1086.474609"/>
     <use xlink:href="#DejaVuSans-61" x="1147.998047"/>
     <use xlink:href="#DejaVuSans-73" x="1209.277344"/>
     <use xlink:href="#DejaVuSans-74" x="1261.376953"/>
     <use xlink:href="#DejaVuSans-20" x="1300.585938"/>
     <use xlink:href="#DejaVuSans-31" x="1332.373047"/>
     <use xlink:href="#DejaVuSans-30" x="1395.996094"/>
     <use xlink:href="#DejaVuSans-20" x="1459.619141"/>
     <use xlink:href="#DejaVuSans-74" x="1491.40625"/>
     <use xlink:href="#DejaVuSans-72" x="1530.615234"/>
     <use xlink:href="#DejaVuSans-69" x="1571.728516"/>
     <use xlink:href="#DejaVuSans-61" x="1599.511719"/>
     <use xlink:href="#DejaVuSans-6c" x="1660.791016"/>
     <use xlink:href="#DejaVuSans-73" x="1688.574219"/>
     <use xlink:href="#DejaVuSans-2f" x="1740.673828"/>
     <use xlink:href="#DejaVuSans-66" x="1774.365234"/>
     <use xlink:href="#DejaVuSans-75" x="1809.570312"/>
     <use xlink:href="#DejaVuSans-7a" x="1872.949219"/>
     <use xlink:href="#DejaVuSans-7a" x="1925.439453"/>
     <use xlink:href="#DejaVuSans-65" x="1977.929688"/>
     <use xlink:href="#DejaVuSans-72" x="2039.453125"/>
     <use xlink:href="#DejaVuSans-29" x="2080.566406"/>
    </g>
   </g>
   <g id="legend_1">
    <g id="line2d_25">
     <path d="M 777.930625 30.416562 
L 787.930625 30.416562 
L 797.930625 30.416562 
" style="fill: none; stroke: #1f77b4; stroke-width: 1.5; stroke-linecap: square"/>
     <defs>
      <path id="m4cc01d5e02" d="M 0 3 
C 0.795609 3 1.55874 2.683901 2.12132 2.12132 
C 2.683901 1.55874 3 0.795609 3 0 
C 3 -0.795609 2.683901 -1.55874 2.12132 -2.12132 
C 1.55874 -2.683901 0.795609 -3 0 -3 
C -0.795609 -3 -1.55874 -2.683901 -2.12132 -2.12132 
C -2.683901 -1.55874 -3 -0.795609 -3 0 
C -3 0.795609 -2.683901 1.55874 -2.12132 2.12132 
C -1.55874 2.683901 -0.795609 3 0 3 
z
" style="stroke: #1f77b4"/>
     </defs>
     <g>
      <use xlink:href="#m4cc01d5e02" x="787.930625" y="30.416562" style="fill: #1f77b4; stroke: #1f77b4"/>
     </g>
    </g>
    <g id="text_19">
     <!-- darwin -->
     <g transform="translate(805.930625 33.916562) scale(0.1 -0.1)">
      <defs>
       <path id="DejaVuSans-77" d="M 269 3500 
L 844 3500 
L 1563 769 
L 2278 3500 
L 2956 3500 
L 3675 769 
L 4391 3500 
L 4966 3500 
L 4050 0 
L 3372 0 
L 2619 2869 
L 1863 0 
L 1184 0 
L 269 3500 
z
" transform="scale(0.015625)"/>
      </defs>
      <use xlink:href="#DejaVuSans-64"/>
      <use xlink:href="#DejaVuSans-61" x="63.476562"/>
      <use xlink:href="#DejaVuSans-72" x="124.755859"/>
      <use xlink:href="#DejaVuSans-77" x="165.869141"/>
      <use xlink:href="#DejaVuSans-69" x="247.65625"/>
      <use xlink:href="#DejaVuSans-6e" x="275.439453"/>
     </g>
    </g>
    <g id="line2d_26">
     <path d="M 777.930625 45.094688 
L 787.930625 45.094688 
L 797.930625 45.094688 
" style="fill: none; stroke: #98df8a; stroke-width: 1.5; stroke-linecap: square"/>
     <defs>
      <path id="mad46905f81" d="M -0 3 
L 3 -3 
L -3 -3 
z
" style="stroke: #98df8a; stroke-linejoin: miter"/>
     </defs>
     <g>
      <use xlink:href="#mad46905f81" x="787.930625" y="45.094688" style="fill: #98df8a; stroke: #98df8a; stroke-linejoin: miter"/>
     </g>
    </g>
    <g id="text_20">
     <!-- darwin_no_pre_seed -->
     <g transform="translate(805.930625 48.594688) scale(0.1 -0.1)">
      <defs>
       <path id="DejaVuSans-70" d="M 1159 525 
L 1159 -1331 
L 581 -1331 
L 581 3500 
L 1159 3500 
L 1159 2969 
Q 1341 3281 1617 3432 
Q 1894 3584 2278 3584 
Q 2916 3584 3314 3078 
Q 3713 2572 3713 1747 
Q 3713 922 3314 415 
Q 2916 -91 2278 -91 
Q 1894 -91 1617 61 
Q 1341 213 1159 525 
z
M 3116 1747 
Q 3116 2381 2855 2742 
Q 2594 3103 2138 3103 
Q 1681 3103 1420 2742 
Q 1159 2381 1159 1747 
Q 1159 1113 1420 752 
Q 1681 391 2138 391 
Q 2594 391 2855 752 
Q 3116 1113 3116 1747 
z
" transform="scale(0.015625)"/>
      </defs>
      <use xlink:href="#DejaVuSans-64"/>
      <use xlink:href="#DejaVuSans-61" x="63.476562"/>
      <use xlink:href="#DejaVuSans-72" x="124.755859"/>
      <use xlink:href="#DejaVuSans-77" x="165.869141"/>
      <use xlink:href="#DejaVuSans-69" x="247.65625"/>
      <use xlink:href="#DejaVuSans-6e" x="275.439453"/>
      <use xlink:href="#DejaVuSans-5f" x="338.818359"/>
      <use xlink:href="#DejaVuSans-6e" x="388.818359"/>
      <use xlink:href="#DejaVuSans-6f" x="452.197266"/>
      <use xlink:href="#DejaVuSans-5f" x="513.378906"/>
      <use xlink:href="#DejaVuSans-70" x="563.378906"/>
      <use xlink:href="#DejaVuSans-72" x="626.855469"/>
      <use xlink:href="#DejaVuSans-65" x="665.71875"/>
      <use xlink:href="#DejaVuSans-5f" x="727.242188"/>
      <use xlink:href="#DejaVuSans-73" x="777.242188"/>
      <use xlink:href="#DejaVuSans-65" x="829.341797"/>
      <use xlink:href="#DejaVuSans-65" x="890.865234"/>
      <use xlink:href="#DejaVuSans-64" x="952.388672"/>
     </g>
    </g>
   </g>
  </g>
 </g>
 <defs>
  <clipPath id="p71d10d43fb">
   <rect x="59.690625" y="22.318125" width="714.24" height="266.112"/>
  </clipPath>
 </defs>
</svg>
