<?xml version="1.0" encoding="utf-8" standalone="no"?>
<!DOCTYPE svg PUBLIC "-//W3C//DTD SVG 1.1//EN"
  "http://www.w3.org/Graphics/SVG/1.1/DTD/svg11.dtd">
<svg xmlns:xlink="http://www.w3.org/1999/xlink" width="918.719687pt" height="325.986375pt" viewBox="0 0 918.719687 325.986375" xmlns="http://www.w3.org/2000/svg" version="1.1">
 <metadata>
  <rdf:RDF xmlns:dc="http://purl.org/dc/elements/1.1/" xmlns:cc="http://creativecommons.org/ns#" xmlns:rdf="http://www.w3.org/1999/02/22-rdf-syntax-ns#">
   <cc:Work>
    <dc:type rdf:resource="http://purl.org/dc/dcmitype/StillImage"/>
    <dc:date>2023-08-02T15:42:44.542808</dc:date>
    <dc:format>image/svg+xml</dc:format>
    <dc:creator>
     <cc:Agent>
      <dc:title>Matplotlib v3.7.1, https://matplotlib.org/</dc:title>
     </cc:Agent>
    </dc:creator>
   </cc:Work>
  </rdf:RDF>
 </metadata>
 <defs>
  <style type="text/css">*{stroke-linejoin: round; stroke-linecap: butt}</style>
 </defs>
 <g id="figure_1">
  <g id="patch_1">
   <path d="M 0 325.986375 
L 918.719687 325.986375 
L 918.719687 0 
L 0 0 
z
" style="fill: #ffffff"/>
  </g>
  <g id="axes_1">
   <g id="patch_2">
    <path d="M 59.690625 288.430125 
L 773.930625 288.430125 
L 773.930625 22.318125 
L 59.690625 22.318125 
z
" style="fill: #ffffff"/>
   </g>
   <g id="PolyCollection_1">
    <defs>
     <path id="m1c5e428686" d="M 59.690625 -49.65225 
L 59.690625 -49.65225 
L 66.776339 -157.178197 
L 73.862054 -195.951905 
L 80.947768 -207.270518 
L 88.033482 -235.803952 
L 95.119196 -241.910738 
L 102.204911 -247.526174 
L 109.290625 -251.527172 
L 116.376339 -258.406081 
L 123.462054 -263.073913 
L 130.547768 -264.407579 
L 137.633482 -267.671551 
L 144.719196 -270.409076 
L 151.804911 -272.444671 
L 158.890625 -273.774828 
L 165.976339 -274.374977 
L 173.062054 -274.796135 
L 180.147768 -274.861502 
L 187.233482 -274.866328 
L 194.319196 -274.918973 
L 201.404911 -275.806914 
L 208.490625 -276.305284 
L 215.576339 -276.34038 
L 222.662054 -276.550959 
L 229.747768 -276.691345 
L 236.833482 -277.463467 
L 243.919196 -277.709142 
L 251.004911 -277.849528 
L 258.090625 -278.411072 
L 265.176339 -278.551458 
L 272.262054 -278.937519 
L 279.347768 -279.463966 
L 286.433482 -280.02551 
L 293.519196 -281.024882 
L 300.604911 -281.095952 
L 307.690625 -281.148597 
L 314.776339 -281.201242 
L 321.862054 -281.359176 
L 328.947768 -280.551957 
L 336.033482 -281.639948 
L 343.119196 -281.639948 
L 350.204911 -281.675044 
L 357.290625 -281.81543 
L 364.376339 -281.81543 
L 371.462054 -281.850527 
L 378.547768 -281.850527 
L 385.633482 -281.464465 
L 392.719196 -282.236588 
L 399.804911 -282.306781 
L 406.890625 -282.306781 
L 413.976339 -282.376974 
L 421.062054 -282.376974 
L 428.147768 -282.833228 
L 435.233482 -283.114 
L 442.319196 -283.131548 
L 449.404911 -283.271934 
L 456.490625 -283.342127 
L 463.576339 -283.41232 
L 470.662054 -283.41232 
L 477.747768 -283.429868 
L 484.833482 -284.164262 
L 491.919196 -283.464964 
L 499.004911 -283.780833 
L 506.090625 -284.331409 
L 513.176339 -283.90367 
L 520.262054 -283.956315 
L 527.347768 -283.956315 
L 534.433482 -284.289732 
L 541.519196 -284.409937 
L 548.604911 -284.20199 
L 555.690625 -284.359924 
L 562.776339 -284.6056 
L 569.862054 -284.482762 
L 576.947768 -284.219539 
L 584.033482 -285.39527 
L 591.119196 -284.90392 
L 598.204911 -285.676042 
L 605.290625 -284.50031 
L 612.376339 -285.353593 
L 619.462054 -285.440018 
L 626.547768 -285.254885 
L 633.633482 -285.570753 
L 640.719196 -285.377722 
L 647.804911 -285.430367 
L 654.890625 -285.430367 
L 661.976339 -286.513093 
L 669.062054 -286.553454 
L 676.147768 -287.044805 
L 683.233482 -287.041734 
L 690.319196 -286.547751 
L 697.404911 -285.640946 
L 704.490625 -286.547751 
L 711.576339 -287.044805 
L 718.662054 -286.711388 
L 725.747768 -286.359985 
L 732.833482 -286.377972 
L 739.919196 -286.377972 
L 739.919196 -291.554702 
L 739.919196 -291.554702 
L 732.833482 -291.57225 
L 725.747768 -291.554702 
L 718.662054 -291.554702 
L 711.576339 -291.256382 
L 704.490625 -291.256382 
L 697.404911 -291.224356 
L 690.319196 -291.221285 
L 683.233482 -291.221285 
L 676.147768 -291.309026 
L 669.062054 -291.309026 
L 661.976339 -291.115996 
L 654.890625 -291.115996 
L 647.804911 -291.010706 
L 640.719196 -291.010706 
L 633.633482 -290.659742 
L 626.547768 -290.659742 
L 619.462054 -290.624645 
L 612.376339 -290.624645 
L 605.290625 -290.449163 
L 598.204911 -290.343873 
L 591.119196 -290.185939 
L 584.033482 -290.150843 
L 576.947768 -290.028005 
L 569.862054 -290.08065 
L 562.776339 -289.992909 
L 555.690625 -289.536654 
L 548.604911 -289.536654 
L 541.519196 -289.536654 
L 534.433482 -289.024685 
L 527.347768 -289.010207 
L 520.262054 -289.133045 
L 513.176339 -288.378471 
L 506.090625 -288.343374 
L 499.004911 -288.308278 
L 491.919196 -288.202988 
L 484.833482 -288.062603 
L 477.747768 -288.58905 
L 470.662054 -288.062603 
L 463.576339 -288.062603 
L 456.490625 -288.308278 
L 449.404911 -288.571501 
L 442.319196 -288.033209 
L 435.233482 -288.255633 
L 428.147768 -288.027506 
L 421.062054 -288.062603 
L 413.976339 -287.711638 
L 406.890625 -287.658993 
L 399.804911 -287.518607 
L 392.719196 -287.062353 
L 385.633482 -287.009708 
L 378.547768 -287.009708 
L 371.462054 -287.009708 
L 364.376339 -287.009708 
L 357.290625 -287.009708 
L 350.204911 -286.728936 
L 343.119196 -286.623647 
L 336.033482 -286.588551 
L 328.947768 -286.518358 
L 321.862054 -286.518358 
L 314.776339 -286.448165 
L 307.690625 -285.886621 
L 300.604911 -285.325078 
L 293.519196 -284.976306 
L 286.433482 -284.870139 
L 279.347768 -284.588052 
L 272.262054 -283.956315 
L 265.176339 -284.219539 
L 258.090625 -284.026508 
L 251.004911 -283.851026 
L 243.919196 -283.535157 
L 236.833482 -283.429868 
L 229.747768 -283.429868 
L 222.662054 -282.552456 
L 215.576339 -282.096202 
L 208.490625 -281.955816 
L 201.404911 -281.780334 
L 194.319196 -281.499562 
L 187.233482 -281.464465 
L 180.147768 -281.183693 
L 173.062054 -280.973115 
L 165.976339 -280.973115 
L 158.890625 -280.200992 
L 151.804911 -278.288234 
L 144.719196 -276.059608 
L 137.633482 -275.493678 
L 130.547768 -274.092012 
L 123.462054 -273.304535 
L 116.376339 -271.134257 
L 109.290625 -268.338384 
L 102.204911 -265.951823 
L 95.119196 -264.337386 
L 88.033482 -257.844538 
L 80.947768 -247.613915 
L 73.862054 -231.645019 
L 66.776339 -211.9888 
L 59.690625 -49.65225 
z
" style="stroke: #1f77b4; stroke-opacity: 0.2"/>
    </defs>
    <g clip-path="url(#p7de8ed1659)">
     <use xlink:href="#m1c5e428686" x="0" y="325.986375" style="fill: #1f77b4; fill-opacity: 0.2; stroke: #1f77b4; stroke-opacity: 0.2"/>
    </g>
   </g>
   <g id="PolyCollection_2">
    <defs>
     <path id="mba9dc368f9" d="M 59.690625 -49.65225 
L 59.690625 -49.65225 
L 66.776339 -179.386369 
L 73.862054 -186.879466 
L 80.947768 -212.148928 
L 88.033482 -237.102521 
L 95.119196 -242.946084 
L 102.204911 -250.790146 
L 109.290625 -256.633709 
L 116.376339 -258.774594 
L 123.462054 -259.827489 
L 130.547768 -263.389781 
L 137.633482 -265.026593 
L 144.719196 -267.355682 
L 151.804911 -270.36345 
L 158.890625 -271.16365 
L 165.976339 -271.848031 
L 173.062054 -272.725443 
L 180.147768 -273.006215 
L 187.233482 -273.322083 
L 194.319196 -274.015239 
L 201.404911 -274.410074 
L 208.490625 -274.410074 
L 215.576339 -274.725942 
L 222.662054 -275.357679 
L 229.747768 -276.199994 
L 236.833482 -276.586055 
L 243.919196 -277.042309 
L 251.004911 -277.551208 
L 258.090625 -278.247873 
L 265.176339 -278.370272 
L 272.262054 -278.5304 
L 279.347768 -278.569006 
L 286.433482 -278.779585 
L 293.519196 -278.902423 
L 300.604911 -279.007712 
L 307.690625 -279.407812 
L 314.776339 -279.639449 
L 321.862054 -279.358677 
L 328.947768 -279.499063 
L 336.033482 -278.972616 
L 343.119196 -279.674545 
L 350.204911 -279.867576 
L 357.290625 -279.709642 
L 364.376339 -280.394023 
L 371.462054 -280.982327 
L 378.547768 -280.341378 
L 385.633482 -280.411571 
L 392.719196 -280.569505 
L 399.804911 -280.604602 
L 406.890625 -280.885373 
L 413.976339 -281.252132 
L 421.062054 -281.113501 
L 428.147768 -281.131049 
L 435.233482 -281.429369 
L 442.319196 -281.253886 
L 449.404911 -281.762785 
L 456.490625 -282.341877 
L 463.576339 -281.850527 
L 470.662054 -281.920719 
L 477.747768 -281.920719 
L 484.833482 -282.166395 
L 491.919196 -282.043557 
L 499.004911 -282.043557 
L 506.090625 -282.183943 
L 513.176339 -282.429618 
L 520.262054 -282.41207 
L 527.347768 -283.886122 
L 534.433482 -282.956065 
L 541.519196 -283.886122 
L 548.604911 -283.908496 
L 555.690625 -283.228502 
L 562.776339 -282.920969 
L 569.862054 -282.850776 
L 576.947768 -282.956065 
L 584.033482 -283.042052 
L 591.119196 -283.149096 
L 598.204911 -283.543054 
L 605.290625 -284.549007 
L 612.376339 -283.184193 
L 619.462054 -283.184193 
L 626.547768 -282.885873 
L 633.633482 -283.429868 
L 640.719196 -283.535157 
L 647.804911 -284.535407 
L 654.890625 -283.535157 
L 661.976339 -283.535157 
L 669.062054 -283.745736 
L 676.147768 -283.763284 
L 683.233482 -283.394771 
L 690.319196 -284.00896 
L 697.404911 -284.843378 
L 704.490625 -284.855662 
L 711.576339 -284.342376 
L 718.662054 -284.412569 
L 725.747768 -285.770803 
L 732.833482 -284.658244 
L 739.919196 -285.20224 
L 739.919196 -289.694589 
L 739.919196 -289.694589 
L 732.833482 -289.694589 
L 725.747768 -289.641944 
L 718.662054 -289.571751 
L 711.576339 -289.519106 
L 704.490625 -289.519106 
L 697.404911 -289.48401 
L 690.319196 -289.361172 
L 683.233482 -289.396269 
L 676.147768 -289.361172 
L 669.062054 -289.326076 
L 661.976339 -289.326076 
L 654.890625 -288.922466 
L 647.804911 -288.413567 
L 640.719196 -288.413567 
L 633.633482 -288.466212 
L 626.547768 -288.58905 
L 619.462054 -288.729436 
L 612.376339 -288.505257 
L 605.290625 -288.413567 
L 598.204911 -288.413567 
L 591.119196 -288.413567 
L 584.033482 -288.378471 
L 576.947768 -288.378471 
L 569.862054 -288.100331 
L 562.776339 -287.711638 
L 555.690625 -287.729186 
L 548.604911 -287.325577 
L 541.519196 -287.185191 
L 534.433482 -287.009708 
L 527.347768 -286.799129 
L 520.262054 -286.764033 
L 513.176339 -286.764033 
L 506.090625 -286.588551 
L 499.004911 -286.413068 
L 491.919196 -286.307779 
L 484.833482 -286.377972 
L 477.747768 -286.167393 
L 470.662054 -286.167393 
L 463.576339 -286.149845 
L 456.490625 -285.921718 
L 449.404911 -285.939266 
L 442.319196 -285.991911 
L 435.233482 -285.921718 
L 428.147768 -285.921718 
L 421.062054 -285.605849 
L 413.976339 -285.430367 
L 406.890625 -285.079402 
L 399.804911 -285.412819 
L 392.719196 -285.377722 
L 385.633482 -284.675793 
L 378.547768 -284.348518 
L 371.462054 -284.237087 
L 364.376339 -283.921219 
L 357.290625 -283.324578 
L 350.204911 -283.131548 
L 343.119196 -282.973614 
L 336.033482 -282.745487 
L 328.947768 -282.657745 
L 321.862054 -282.41207 
L 314.776339 -282.341877 
L 307.690625 -281.745237 
L 300.604911 -281.938268 
L 293.519196 -281.885623 
L 286.433482 -281.657496 
L 279.347768 -281.21879 
L 272.262054 -280.973115 
L 265.176339 -280.850277 
L 258.090625 -280.481764 
L 251.004911 -280.446668 
L 243.919196 -280.271185 
L 236.833482 -280.271185 
L 229.747768 -279.955756 
L 222.662054 -279.937769 
L 215.576339 -279.604352 
L 208.490625 -279.32358 
L 201.404911 -279.060357 
L 194.319196 -278.83223 
L 187.233482 -278.797133 
L 180.147768 -278.323331 
L 173.062054 -278.200493 
L 165.976339 -276.814182 
L 158.890625 -276.305284 
L 151.804911 -275.182196 
L 144.719196 -274.304784 
L 137.633482 -272.865829 
L 130.547768 -271.637452 
L 123.462054 -270.86533 
L 116.376339 -269.584309 
L 109.290625 -269.250892 
L 102.204911 -267.215297 
L 95.119196 -261.775343 
L 88.033482 -256.791644 
L 80.947768 -248.017525 
L 73.862054 -239.875143 
L 66.776339 -212.605182 
L 59.690625 -49.65225 
z
" style="stroke: #98df8a; stroke-opacity: 0.2"/>
    </defs>
    <g clip-path="url(#p7de8ed1659)">
     <use xlink:href="#mba9dc368f9" x="0" y="325.986375" style="fill: #98df8a; fill-opacity: 0.2; stroke: #98df8a; stroke-opacity: 0.2"/>
    </g>
   </g>
   <g id="matplotlib.axis_1">
    <g id="xtick_1">
     <g id="line2d_1">
      <defs>
       <path id="m45653bdd2b" d="M 0 0 
L 0 3.5 
" style="stroke: #000000; stroke-width: 0.8"/>
      </defs>
      <g>
       <use xlink:href="#m45653bdd2b" x="59.690625" y="288.430125" style="stroke: #000000; stroke-width: 0.8"/>
      </g>
     </g>
     <g id="text_1">
      <!-- 0m -->
      <g transform="translate(51.639063 303.028562) scale(0.1 -0.1)">
       <defs>
        <path id="DejaVuSans-30" d="M 2034 4250 
Q 1547 4250 1301 3770 
Q 1056 3291 1056 2328 
Q 1056 1369 1301 889 
Q 1547 409 2034 409 
Q 2525 409 2770 889 
Q 3016 1369 3016 2328 
Q 3016 3291 2770 3770 
Q 2525 4250 2034 4250 
z
M 2034 4750 
Q 2819 4750 3233 4129 
Q 3647 3509 3647 2328 
Q 3647 1150 3233 529 
Q 2819 -91 2034 -91 
Q 1250 -91 836 529 
Q 422 1150 422 2328 
Q 422 3509 836 4129 
Q 1250 4750 2034 4750 
z
" transform="scale(0.015625)"/>
        <path id="DejaVuSans-6d" d="M 3328 2828 
Q 3544 3216 3844 3400 
Q 4144 3584 4550 3584 
Q 5097 3584 5394 3201 
Q 5691 2819 5691 2113 
L 5691 0 
L 5113 0 
L 5113 2094 
Q 5113 2597 4934 2840 
Q 4756 3084 4391 3084 
Q 3944 3084 3684 2787 
Q 3425 2491 3425 1978 
L 3425 0 
L 2847 0 
L 2847 2094 
Q 2847 2600 2669 2842 
Q 2491 3084 2119 3084 
Q 1678 3084 1418 2786 
Q 1159 2488 1159 1978 
L 1159 0 
L 581 0 
L 581 3500 
L 1159 3500 
L 1159 2956 
Q 1356 3278 1631 3431 
Q 1906 3584 2284 3584 
Q 2666 3584 2933 3390 
Q 3200 3197 3328 2828 
z
" transform="scale(0.015625)"/>
       </defs>
       <use xlink:href="#DejaVuSans-30"/>
       <use xlink:href="#DejaVuSans-6d" x="63.623047"/>
      </g>
     </g>
    </g>
    <g id="xtick_2">
     <g id="line2d_2">
      <g>
       <use xlink:href="#m45653bdd2b" x="116.376339" y="288.430125" style="stroke: #000000; stroke-width: 0.8"/>
      </g>
     </g>
     <g id="text_2">
      <!-- 2h -->
      <g transform="translate(110.026339 303.028562) scale(0.1 -0.1)">
       <defs>
        <path id="DejaVuSans-32" d="M 1228 531 
L 3431 531 
L 3431 0 
L 469 0 
L 469 531 
Q 828 903 1448 1529 
Q 2069 2156 2228 2338 
Q 2531 2678 2651 2914 
Q 2772 3150 2772 3378 
Q 2772 3750 2511 3984 
Q 2250 4219 1831 4219 
Q 1534 4219 1204 4116 
Q 875 4013 500 3803 
L 500 4441 
Q 881 4594 1212 4672 
Q 1544 4750 1819 4750 
Q 2544 4750 2975 4387 
Q 3406 4025 3406 3419 
Q 3406 3131 3298 2873 
Q 3191 2616 2906 2266 
Q 2828 2175 2409 1742 
Q 1991 1309 1228 531 
z
" transform="scale(0.015625)"/>
        <path id="DejaVuSans-68" d="M 3513 2113 
L 3513 0 
L 2938 0 
L 2938 2094 
Q 2938 2591 2744 2837 
Q 2550 3084 2163 3084 
Q 1697 3084 1428 2787 
Q 1159 2491 1159 1978 
L 1159 0 
L 581 0 
L 581 4863 
L 1159 4863 
L 1159 2956 
Q 1366 3272 1645 3428 
Q 1925 3584 2291 3584 
Q 2894 3584 3203 3211 
Q 3513 2838 3513 2113 
z
" transform="scale(0.015625)"/>
       </defs>
       <use xlink:href="#DejaVuSans-32"/>
       <use xlink:href="#DejaVuSans-68" x="63.623047"/>
      </g>
     </g>
    </g>
    <g id="xtick_3">
     <g id="line2d_3">
      <g>
       <use xlink:href="#m45653bdd2b" x="173.062054" y="288.430125" style="stroke: #000000; stroke-width: 0.8"/>
      </g>
     </g>
     <g id="text_3">
      <!-- 4h -->
      <g transform="translate(166.712054 303.028562) scale(0.1 -0.1)">
       <defs>
        <path id="DejaVuSans-34" d="M 2419 4116 
L 825 1625 
L 2419 1625 
L 2419 4116 
z
M 2253 4666 
L 3047 4666 
L 3047 1625 
L 3713 1625 
L 3713 1100 
L 3047 1100 
L 3047 0 
L 2419 0 
L 2419 1100 
L 313 1100 
L 313 1709 
L 2253 4666 
z
" transform="scale(0.015625)"/>
       </defs>
       <use xlink:href="#DejaVuSans-34"/>
       <use xlink:href="#DejaVuSans-68" x="63.623047"/>
      </g>
     </g>
    </g>
    <g id="xtick_4">
     <g id="line2d_4">
      <g>
       <use xlink:href="#m45653bdd2b" x="229.747768" y="288.430125" style="stroke: #000000; stroke-width: 0.8"/>
      </g>
     </g>
     <g id="text_4">
      <!-- 6h -->
      <g transform="translate(223.397768 303.028562) scale(0.1 -0.1)">
       <defs>
        <path id="DejaVuSans-36" d="M 2113 2584 
Q 1688 2584 1439 2293 
Q 1191 2003 1191 1497 
Q 1191 994 1439 701 
Q 1688 409 2113 409 
Q 2538 409 2786 701 
Q 3034 994 3034 1497 
Q 3034 2003 2786 2293 
Q 2538 2584 2113 2584 
z
M 3366 4563 
L 3366 3988 
Q 3128 4100 2886 4159 
Q 2644 4219 2406 4219 
Q 1781 4219 1451 3797 
Q 1122 3375 1075 2522 
Q 1259 2794 1537 2939 
Q 1816 3084 2150 3084 
Q 2853 3084 3261 2657 
Q 3669 2231 3669 1497 
Q 3669 778 3244 343 
Q 2819 -91 2113 -91 
Q 1303 -91 875 529 
Q 447 1150 447 2328 
Q 447 3434 972 4092 
Q 1497 4750 2381 4750 
Q 2619 4750 2861 4703 
Q 3103 4656 3366 4563 
z
" transform="scale(0.015625)"/>
       </defs>
       <use xlink:href="#DejaVuSans-36"/>
       <use xlink:href="#DejaVuSans-68" x="63.623047"/>
      </g>
     </g>
    </g>
    <g id="xtick_5">
     <g id="line2d_5">
      <g>
       <use xlink:href="#m45653bdd2b" x="286.433482" y="288.430125" style="stroke: #000000; stroke-width: 0.8"/>
      </g>
     </g>
     <g id="text_5">
      <!-- 8h -->
      <g transform="translate(280.083482 303.028562) scale(0.1 -0.1)">
       <defs>
        <path id="DejaVuSans-38" d="M 2034 2216 
Q 1584 2216 1326 1975 
Q 1069 1734 1069 1313 
Q 1069 891 1326 650 
Q 1584 409 2034 409 
Q 2484 409 2743 651 
Q 3003 894 3003 1313 
Q 3003 1734 2745 1975 
Q 2488 2216 2034 2216 
z
M 1403 2484 
Q 997 2584 770 2862 
Q 544 3141 544 3541 
Q 544 4100 942 4425 
Q 1341 4750 2034 4750 
Q 2731 4750 3128 4425 
Q 3525 4100 3525 3541 
Q 3525 3141 3298 2862 
Q 3072 2584 2669 2484 
Q 3125 2378 3379 2068 
Q 3634 1759 3634 1313 
Q 3634 634 3220 271 
Q 2806 -91 2034 -91 
Q 1263 -91 848 271 
Q 434 634 434 1313 
Q 434 1759 690 2068 
Q 947 2378 1403 2484 
z
M 1172 3481 
Q 1172 3119 1398 2916 
Q 1625 2713 2034 2713 
Q 2441 2713 2670 2916 
Q 2900 3119 2900 3481 
Q 2900 3844 2670 4047 
Q 2441 4250 2034 4250 
Q 1625 4250 1398 4047 
Q 1172 3844 1172 3481 
z
" transform="scale(0.015625)"/>
       </defs>
       <use xlink:href="#DejaVuSans-38"/>
       <use xlink:href="#DejaVuSans-68" x="63.623047"/>
      </g>
     </g>
    </g>
    <g id="xtick_6">
     <g id="line2d_6">
      <g>
       <use xlink:href="#m45653bdd2b" x="343.119196" y="288.430125" style="stroke: #000000; stroke-width: 0.8"/>
      </g>
     </g>
     <g id="text_6">
      <!-- 10h -->
      <g transform="translate(333.587946 303.028562) scale(0.1 -0.1)">
       <defs>
        <path id="DejaVuSans-31" d="M 794 531 
L 1825 531 
L 1825 4091 
L 703 3866 
L 703 4441 
L 1819 4666 
L 2450 4666 
L 2450 531 
L 3481 531 
L 3481 0 
L 794 0 
L 794 531 
z
" transform="scale(0.015625)"/>
       </defs>
       <use xlink:href="#DejaVuSans-31"/>
       <use xlink:href="#DejaVuSans-30" x="63.623047"/>
       <use xlink:href="#DejaVuSans-68" x="127.246094"/>
      </g>
     </g>
    </g>
    <g id="xtick_7">
     <g id="line2d_7">
      <g>
       <use xlink:href="#m45653bdd2b" x="399.804911" y="288.430125" style="stroke: #000000; stroke-width: 0.8"/>
      </g>
     </g>
     <g id="text_7">
      <!-- 12h -->
      <g transform="translate(390.273661 303.028562) scale(0.1 -0.1)">
       <use xlink:href="#DejaVuSans-31"/>
       <use xlink:href="#DejaVuSans-32" x="63.623047"/>
       <use xlink:href="#DejaVuSans-68" x="127.246094"/>
      </g>
     </g>
    </g>
    <g id="xtick_8">
     <g id="line2d_8">
      <g>
       <use xlink:href="#m45653bdd2b" x="456.490625" y="288.430125" style="stroke: #000000; stroke-width: 0.8"/>
      </g>
     </g>
     <g id="text_8">
      <!-- 14h -->
      <g transform="translate(446.959375 303.028562) scale(0.1 -0.1)">
       <use xlink:href="#DejaVuSans-31"/>
       <use xlink:href="#DejaVuSans-34" x="63.623047"/>
       <use xlink:href="#DejaVuSans-68" x="127.246094"/>
      </g>
     </g>
    </g>
    <g id="xtick_9">
     <g id="line2d_9">
      <g>
       <use xlink:href="#m45653bdd2b" x="513.176339" y="288.430125" style="stroke: #000000; stroke-width: 0.8"/>
      </g>
     </g>
     <g id="text_9">
      <!-- 16h -->
      <g transform="translate(503.645089 303.028562) scale(0.1 -0.1)">
       <use xlink:href="#DejaVuSans-31"/>
       <use xlink:href="#DejaVuSans-36" x="63.623047"/>
       <use xlink:href="#DejaVuSans-68" x="127.246094"/>
      </g>
     </g>
    </g>
    <g id="xtick_10">
     <g id="line2d_10">
      <g>
       <use xlink:href="#m45653bdd2b" x="569.862054" y="288.430125" style="stroke: #000000; stroke-width: 0.8"/>
      </g>
     </g>
     <g id="text_10">
      <!-- 18h -->
      <g transform="translate(560.330804 303.028562) scale(0.1 -0.1)">
       <use xlink:href="#DejaVuSans-31"/>
       <use xlink:href="#DejaVuSans-38" x="63.623047"/>
       <use xlink:href="#DejaVuSans-68" x="127.246094"/>
      </g>
     </g>
    </g>
    <g id="xtick_11">
     <g id="line2d_11">
      <g>
       <use xlink:href="#m45653bdd2b" x="626.547768" y="288.430125" style="stroke: #000000; stroke-width: 0.8"/>
      </g>
     </g>
     <g id="text_11">
      <!-- 20h -->
      <g transform="translate(617.016518 303.028562) scale(0.1 -0.1)">
       <use xlink:href="#DejaVuSans-32"/>
       <use xlink:href="#DejaVuSans-30" x="63.623047"/>
       <use xlink:href="#DejaVuSans-68" x="127.246094"/>
      </g>
     </g>
    </g>
    <g id="xtick_12">
     <g id="line2d_12">
      <g>
       <use xlink:href="#m45653bdd2b" x="683.233482" y="288.430125" style="stroke: #000000; stroke-width: 0.8"/>
      </g>
     </g>
     <g id="text_12">
      <!-- 22h -->
      <g transform="translate(673.702232 303.028562) scale(0.1 -0.1)">
       <use xlink:href="#DejaVuSans-32"/>
       <use xlink:href="#DejaVuSans-32" x="63.623047"/>
       <use xlink:href="#DejaVuSans-68" x="127.246094"/>
      </g>
     </g>
    </g>
    <g id="xtick_13">
     <g id="line2d_13">
      <g>
       <use xlink:href="#m45653bdd2b" x="739.919196" y="288.430125" style="stroke: #000000; stroke-width: 0.8"/>
      </g>
     </g>
     <g id="text_13">
      <!-- 24h -->
      <g transform="translate(730.387946 303.028562) scale(0.1 -0.1)">
       <use xlink:href="#DejaVuSans-32"/>
       <use xlink:href="#DejaVuSans-34" x="63.623047"/>
       <use xlink:href="#DejaVuSans-68" x="127.246094"/>
      </g>
     </g>
    </g>
    <g id="text_14">
     <!-- Time (hour:minute) -->
     <g transform="translate(368.403594 316.706687) scale(0.1 -0.1)">
      <defs>
       <path id="DejaVuSans-54" d="M -19 4666 
L 3928 4666 
L 3928 4134 
L 2272 4134 
L 2272 0 
L 1638 0 
L 1638 4134 
L -19 4134 
L -19 4666 
z
" transform="scale(0.015625)"/>
       <path id="DejaVuSans-69" d="M 603 3500 
L 1178 3500 
L 1178 0 
L 603 0 
L 603 3500 
z
M 603 4863 
L 1178 4863 
L 1178 4134 
L 603 4134 
L 603 4863 
z
" transform="scale(0.015625)"/>
       <path id="DejaVuSans-65" d="M 3597 1894 
L 3597 1613 
L 953 1613 
Q 991 1019 1311 708 
Q 1631 397 2203 397 
Q 2534 397 2845 478 
Q 3156 559 3463 722 
L 3463 178 
Q 3153 47 2828 -22 
Q 2503 -91 2169 -91 
Q 1331 -91 842 396 
Q 353 884 353 1716 
Q 353 2575 817 3079 
Q 1281 3584 2069 3584 
Q 2775 3584 3186 3129 
Q 3597 2675 3597 1894 
z
M 3022 2063 
Q 3016 2534 2758 2815 
Q 2500 3097 2075 3097 
Q 1594 3097 1305 2825 
Q 1016 2553 972 2059 
L 3022 2063 
z
" transform="scale(0.015625)"/>
       <path id="DejaVuSans-20" transform="scale(0.015625)"/>
       <path id="DejaVuSans-28" d="M 1984 4856 
Q 1566 4138 1362 3434 
Q 1159 2731 1159 2009 
Q 1159 1288 1364 580 
Q 1569 -128 1984 -844 
L 1484 -844 
Q 1016 -109 783 600 
Q 550 1309 550 2009 
Q 550 2706 781 3412 
Q 1013 4119 1484 4856 
L 1984 4856 
z
" transform="scale(0.015625)"/>
       <path id="DejaVuSans-6f" d="M 1959 3097 
Q 1497 3097 1228 2736 
Q 959 2375 959 1747 
Q 959 1119 1226 758 
Q 1494 397 1959 397 
Q 2419 397 2687 759 
Q 2956 1122 2956 1747 
Q 2956 2369 2687 2733 
Q 2419 3097 1959 3097 
z
M 1959 3584 
Q 2709 3584 3137 3096 
Q 3566 2609 3566 1747 
Q 3566 888 3137 398 
Q 2709 -91 1959 -91 
Q 1206 -91 779 398 
Q 353 888 353 1747 
Q 353 2609 779 3096 
Q 1206 3584 1959 3584 
z
" transform="scale(0.015625)"/>
       <path id="DejaVuSans-75" d="M 544 1381 
L 544 3500 
L 1119 3500 
L 1119 1403 
Q 1119 906 1312 657 
Q 1506 409 1894 409 
Q 2359 409 2629 706 
Q 2900 1003 2900 1516 
L 2900 3500 
L 3475 3500 
L 3475 0 
L 2900 0 
L 2900 538 
Q 2691 219 2414 64 
Q 2138 -91 1772 -91 
Q 1169 -91 856 284 
Q 544 659 544 1381 
z
M 1991 3584 
L 1991 3584 
z
" transform="scale(0.015625)"/>
       <path id="DejaVuSans-72" d="M 2631 2963 
Q 2534 3019 2420 3045 
Q 2306 3072 2169 3072 
Q 1681 3072 1420 2755 
Q 1159 2438 1159 1844 
L 1159 0 
L 581 0 
L 581 3500 
L 1159 3500 
L 1159 2956 
Q 1341 3275 1631 3429 
Q 1922 3584 2338 3584 
Q 2397 3584 2469 3576 
Q 2541 3569 2628 3553 
L 2631 2963 
z
" transform="scale(0.015625)"/>
       <path id="DejaVuSans-3a" d="M 750 794 
L 1409 794 
L 1409 0 
L 750 0 
L 750 794 
z
M 750 3309 
L 1409 3309 
L 1409 2516 
L 750 2516 
L 750 3309 
z
" transform="scale(0.015625)"/>
       <path id="DejaVuSans-6e" d="M 3513 2113 
L 3513 0 
L 2938 0 
L 2938 2094 
Q 2938 2591 2744 2837 
Q 2550 3084 2163 3084 
Q 1697 3084 1428 2787 
Q 1159 2491 1159 1978 
L 1159 0 
L 581 0 
L 581 3500 
L 1159 3500 
L 1159 2956 
Q 1366 3272 1645 3428 
Q 1925 3584 2291 3584 
Q 2894 3584 3203 3211 
Q 3513 2838 3513 2113 
z
" transform="scale(0.015625)"/>
       <path id="DejaVuSans-74" d="M 1172 4494 
L 1172 3500 
L 2356 3500 
L 2356 3053 
L 1172 3053 
L 1172 1153 
Q 1172 725 1289 603 
Q 1406 481 1766 481 
L 2356 481 
L 2356 0 
L 1766 0 
Q 1100 0 847 248 
Q 594 497 594 1153 
L 594 3053 
L 172 3053 
L 172 3500 
L 594 3500 
L 594 4494 
L 1172 4494 
z
" transform="scale(0.015625)"/>
       <path id="DejaVuSans-29" d="M 513 4856 
L 1013 4856 
Q 1481 4119 1714 3412 
Q 1947 2706 1947 2009 
Q 1947 1309 1714 600 
Q 1481 -109 1013 -844 
L 513 -844 
Q 928 -128 1133 580 
Q 1338 1288 1338 2009 
Q 1338 2731 1133 3434 
Q 928 4138 513 4856 
z
" transform="scale(0.015625)"/>
      </defs>
      <use xlink:href="#DejaVuSans-54"/>
      <use xlink:href="#DejaVuSans-69" x="57.958984"/>
      <use xlink:href="#DejaVuSans-6d" x="85.742188"/>
      <use xlink:href="#DejaVuSans-65" x="183.154297"/>
      <use xlink:href="#DejaVuSans-20" x="244.677734"/>
      <use xlink:href="#DejaVuSans-28" x="276.464844"/>
      <use xlink:href="#DejaVuSans-68" x="315.478516"/>
      <use xlink:href="#DejaVuSans-6f" x="378.857422"/>
      <use xlink:href="#DejaVuSans-75" x="440.039062"/>
      <use xlink:href="#DejaVuSans-72" x="503.417969"/>
      <use xlink:href="#DejaVuSans-3a" x="542.78125"/>
      <use xlink:href="#DejaVuSans-6d" x="576.472656"/>
      <use xlink:href="#DejaVuSans-69" x="673.884766"/>
      <use xlink:href="#DejaVuSans-6e" x="701.667969"/>
      <use xlink:href="#DejaVuSans-75" x="765.046875"/>
      <use xlink:href="#DejaVuSans-74" x="828.425781"/>
      <use xlink:href="#DejaVuSans-65" x="867.634766"/>
      <use xlink:href="#DejaVuSans-29" x="929.158203"/>
     </g>
    </g>
   </g>
   <g id="matplotlib.axis_2">
    <g id="ytick_1">
     <g id="line2d_14">
      <defs>
       <path id="me49b55e746" d="M 0 0 
L -3.5 0 
" style="stroke: #000000; stroke-width: 0.8"/>
      </defs>
      <g>
       <use xlink:href="#me49b55e746" x="59.690625" y="260.75129" style="stroke: #000000; stroke-width: 0.8"/>
      </g>
     </g>
     <g id="text_15">
      <!-- 9000 -->
      <g transform="translate(27.240625 264.550509) scale(0.1 -0.1)">
       <defs>
        <path id="DejaVuSans-39" d="M 703 97 
L 703 672 
Q 941 559 1184 500 
Q 1428 441 1663 441 
Q 2288 441 2617 861 
Q 2947 1281 2994 2138 
Q 2813 1869 2534 1725 
Q 2256 1581 1919 1581 
Q 1219 1581 811 2004 
Q 403 2428 403 3163 
Q 403 3881 828 4315 
Q 1253 4750 1959 4750 
Q 2769 4750 3195 4129 
Q 3622 3509 3622 2328 
Q 3622 1225 3098 567 
Q 2575 -91 1691 -91 
Q 1453 -91 1209 -44 
Q 966 3 703 97 
z
M 1959 2075 
Q 2384 2075 2632 2365 
Q 2881 2656 2881 3163 
Q 2881 3666 2632 3958 
Q 2384 4250 1959 4250 
Q 1534 4250 1286 3958 
Q 1038 3666 1038 3163 
Q 1038 2656 1286 2365 
Q 1534 2075 1959 2075 
z
" transform="scale(0.015625)"/>
       </defs>
       <use xlink:href="#DejaVuSans-39"/>
       <use xlink:href="#DejaVuSans-30" x="63.623047"/>
       <use xlink:href="#DejaVuSans-30" x="127.246094"/>
       <use xlink:href="#DejaVuSans-30" x="190.869141"/>
      </g>
     </g>
    </g>
    <g id="ytick_2">
     <g id="line2d_15">
      <g>
       <use xlink:href="#me49b55e746" x="59.690625" y="225.654816" style="stroke: #000000; stroke-width: 0.8"/>
      </g>
     </g>
     <g id="text_16">
      <!-- 10000 -->
      <g transform="translate(20.878125 229.454034) scale(0.1 -0.1)">
       <use xlink:href="#DejaVuSans-31"/>
       <use xlink:href="#DejaVuSans-30" x="63.623047"/>
       <use xlink:href="#DejaVuSans-30" x="127.246094"/>
       <use xlink:href="#DejaVuSans-30" x="190.869141"/>
       <use xlink:href="#DejaVuSans-30" x="254.492188"/>
      </g>
     </g>
    </g>
    <g id="ytick_3">
     <g id="line2d_16">
      <g>
       <use xlink:href="#me49b55e746" x="59.690625" y="190.558341" style="stroke: #000000; stroke-width: 0.8"/>
      </g>
     </g>
     <g id="text_17">
      <!-- 11000 -->
      <g transform="translate(20.878125 194.35756) scale(0.1 -0.1)">
       <use xlink:href="#DejaVuSans-31"/>
       <use xlink:href="#DejaVuSans-31" x="63.623047"/>
       <use xlink:href="#DejaVuSans-30" x="127.246094"/>
       <use xlink:href="#DejaVuSans-30" x="190.869141"/>
       <use xlink:href="#DejaVuSans-30" x="254.492188"/>
      </g>
     </g>
    </g>
    <g id="ytick_4">
     <g id="line2d_17">
      <g>
       <use xlink:href="#me49b55e746" x="59.690625" y="155.461866" style="stroke: #000000; stroke-width: 0.8"/>
      </g>
     </g>
     <g id="text_18">
      <!-- 12000 -->
      <g transform="translate(20.878125 159.261085) scale(0.1 -0.1)">
       <use xlink:href="#DejaVuSans-31"/>
       <use xlink:href="#DejaVuSans-32" x="63.623047"/>
       <use xlink:href="#DejaVuSans-30" x="127.246094"/>
       <use xlink:href="#DejaVuSans-30" x="190.869141"/>
       <use xlink:href="#DejaVuSans-30" x="254.492188"/>
      </g>
     </g>
    </g>
    <g id="ytick_5">
     <g id="line2d_18">
      <g>
       <use xlink:href="#me49b55e746" x="59.690625" y="120.365392" style="stroke: #000000; stroke-width: 0.8"/>
      </g>
     </g>
     <g id="text_19">
      <!-- 13000 -->
      <g transform="translate(20.878125 124.16461) scale(0.1 -0.1)">
       <defs>
        <path id="DejaVuSans-33" d="M 2597 2516 
Q 3050 2419 3304 2112 
Q 3559 1806 3559 1356 
Q 3559 666 3084 287 
Q 2609 -91 1734 -91 
Q 1441 -91 1130 -33 
Q 819 25 488 141 
L 488 750 
Q 750 597 1062 519 
Q 1375 441 1716 441 
Q 2309 441 2620 675 
Q 2931 909 2931 1356 
Q 2931 1769 2642 2001 
Q 2353 2234 1838 2234 
L 1294 2234 
L 1294 2753 
L 1863 2753 
Q 2328 2753 2575 2939 
Q 2822 3125 2822 3475 
Q 2822 3834 2567 4026 
Q 2313 4219 1838 4219 
Q 1578 4219 1281 4162 
Q 984 4106 628 3988 
L 628 4550 
Q 988 4650 1302 4700 
Q 1616 4750 1894 4750 
Q 2613 4750 3031 4423 
Q 3450 4097 3450 3541 
Q 3450 3153 3228 2886 
Q 3006 2619 2597 2516 
z
" transform="scale(0.015625)"/>
       </defs>
       <use xlink:href="#DejaVuSans-31"/>
       <use xlink:href="#DejaVuSans-33" x="63.623047"/>
       <use xlink:href="#DejaVuSans-30" x="127.246094"/>
       <use xlink:href="#DejaVuSans-30" x="190.869141"/>
       <use xlink:href="#DejaVuSans-30" x="254.492188"/>
      </g>
     </g>
    </g>
    <g id="ytick_6">
     <g id="line2d_19">
      <g>
       <use xlink:href="#me49b55e746" x="59.690625" y="85.268917" style="stroke: #000000; stroke-width: 0.8"/>
      </g>
     </g>
     <g id="text_20">
      <!-- 14000 -->
      <g transform="translate(20.878125 89.068136) scale(0.1 -0.1)">
       <use xlink:href="#DejaVuSans-31"/>
       <use xlink:href="#DejaVuSans-34" x="63.623047"/>
       <use xlink:href="#DejaVuSans-30" x="127.246094"/>
       <use xlink:href="#DejaVuSans-30" x="190.869141"/>
       <use xlink:href="#DejaVuSans-30" x="254.492188"/>
      </g>
     </g>
    </g>
    <g id="ytick_7">
     <g id="line2d_20">
      <g>
       <use xlink:href="#me49b55e746" x="59.690625" y="50.172442" style="stroke: #000000; stroke-width: 0.8"/>
      </g>
     </g>
     <g id="text_21">
      <!-- 15000 -->
      <g transform="translate(20.878125 53.971661) scale(0.1 -0.1)">
       <defs>
        <path id="DejaVuSans-35" d="M 691 4666 
L 3169 4666 
L 3169 4134 
L 1269 4134 
L 1269 2991 
Q 1406 3038 1543 3061 
Q 1681 3084 1819 3084 
Q 2600 3084 3056 2656 
Q 3513 2228 3513 1497 
Q 3513 744 3044 326 
Q 2575 -91 1722 -91 
Q 1428 -91 1123 -41 
Q 819 9 494 109 
L 494 744 
Q 775 591 1075 516 
Q 1375 441 1709 441 
Q 2250 441 2565 725 
Q 2881 1009 2881 1497 
Q 2881 1984 2565 2268 
Q 2250 2553 1709 2553 
Q 1456 2553 1204 2497 
Q 953 2441 691 2322 
L 691 4666 
z
" transform="scale(0.015625)"/>
       </defs>
       <use xlink:href="#DejaVuSans-31"/>
       <use xlink:href="#DejaVuSans-35" x="63.623047"/>
       <use xlink:href="#DejaVuSans-30" x="127.246094"/>
       <use xlink:href="#DejaVuSans-30" x="190.869141"/>
       <use xlink:href="#DejaVuSans-30" x="254.492188"/>
      </g>
     </g>
    </g>
    <g id="text_22">
     <!-- Code branch coverage -->
     <g transform="translate(14.798438 211.949125) rotate(-90) scale(0.1 -0.1)">
      <defs>
       <path id="DejaVuSans-43" d="M 4122 4306 
L 4122 3641 
Q 3803 3938 3442 4084 
Q 3081 4231 2675 4231 
Q 1875 4231 1450 3742 
Q 1025 3253 1025 2328 
Q 1025 1406 1450 917 
Q 1875 428 2675 428 
Q 3081 428 3442 575 
Q 3803 722 4122 1019 
L 4122 359 
Q 3791 134 3420 21 
Q 3050 -91 2638 -91 
Q 1578 -91 968 557 
Q 359 1206 359 2328 
Q 359 3453 968 4101 
Q 1578 4750 2638 4750 
Q 3056 4750 3426 4639 
Q 3797 4528 4122 4306 
z
" transform="scale(0.015625)"/>
       <path id="DejaVuSans-64" d="M 2906 2969 
L 2906 4863 
L 3481 4863 
L 3481 0 
L 2906 0 
L 2906 525 
Q 2725 213 2448 61 
Q 2172 -91 1784 -91 
Q 1150 -91 751 415 
Q 353 922 353 1747 
Q 353 2572 751 3078 
Q 1150 3584 1784 3584 
Q 2172 3584 2448 3432 
Q 2725 3281 2906 2969 
z
M 947 1747 
Q 947 1113 1208 752 
Q 1469 391 1925 391 
Q 2381 391 2643 752 
Q 2906 1113 2906 1747 
Q 2906 2381 2643 2742 
Q 2381 3103 1925 3103 
Q 1469 3103 1208 2742 
Q 947 2381 947 1747 
z
" transform="scale(0.015625)"/>
       <path id="DejaVuSans-62" d="M 3116 1747 
Q 3116 2381 2855 2742 
Q 2594 3103 2138 3103 
Q 1681 3103 1420 2742 
Q 1159 2381 1159 1747 
Q 1159 1113 1420 752 
Q 1681 391 2138 391 
Q 2594 391 2855 752 
Q 3116 1113 3116 1747 
z
M 1159 2969 
Q 1341 3281 1617 3432 
Q 1894 3584 2278 3584 
Q 2916 3584 3314 3078 
Q 3713 2572 3713 1747 
Q 3713 922 3314 415 
Q 2916 -91 2278 -91 
Q 1894 -91 1617 61 
Q 1341 213 1159 525 
L 1159 0 
L 581 0 
L 581 4863 
L 1159 4863 
L 1159 2969 
z
" transform="scale(0.015625)"/>
       <path id="DejaVuSans-61" d="M 2194 1759 
Q 1497 1759 1228 1600 
Q 959 1441 959 1056 
Q 959 750 1161 570 
Q 1363 391 1709 391 
Q 2188 391 2477 730 
Q 2766 1069 2766 1631 
L 2766 1759 
L 2194 1759 
z
M 3341 1997 
L 3341 0 
L 2766 0 
L 2766 531 
Q 2569 213 2275 61 
Q 1981 -91 1556 -91 
Q 1019 -91 701 211 
Q 384 513 384 1019 
Q 384 1609 779 1909 
Q 1175 2209 1959 2209 
L 2766 2209 
L 2766 2266 
Q 2766 2663 2505 2880 
Q 2244 3097 1772 3097 
Q 1472 3097 1187 3025 
Q 903 2953 641 2809 
L 641 3341 
Q 956 3463 1253 3523 
Q 1550 3584 1831 3584 
Q 2591 3584 2966 3190 
Q 3341 2797 3341 1997 
z
" transform="scale(0.015625)"/>
       <path id="DejaVuSans-63" d="M 3122 3366 
L 3122 2828 
Q 2878 2963 2633 3030 
Q 2388 3097 2138 3097 
Q 1578 3097 1268 2742 
Q 959 2388 959 1747 
Q 959 1106 1268 751 
Q 1578 397 2138 397 
Q 2388 397 2633 464 
Q 2878 531 3122 666 
L 3122 134 
Q 2881 22 2623 -34 
Q 2366 -91 2075 -91 
Q 1284 -91 818 406 
Q 353 903 353 1747 
Q 353 2603 823 3093 
Q 1294 3584 2113 3584 
Q 2378 3584 2631 3529 
Q 2884 3475 3122 3366 
z
" transform="scale(0.015625)"/>
       <path id="DejaVuSans-76" d="M 191 3500 
L 800 3500 
L 1894 563 
L 2988 3500 
L 3597 3500 
L 2284 0 
L 1503 0 
L 191 3500 
z
" transform="scale(0.015625)"/>
       <path id="DejaVuSans-67" d="M 2906 1791 
Q 2906 2416 2648 2759 
Q 2391 3103 1925 3103 
Q 1463 3103 1205 2759 
Q 947 2416 947 1791 
Q 947 1169 1205 825 
Q 1463 481 1925 481 
Q 2391 481 2648 825 
Q 2906 1169 2906 1791 
z
M 3481 434 
Q 3481 -459 3084 -895 
Q 2688 -1331 1869 -1331 
Q 1566 -1331 1297 -1286 
Q 1028 -1241 775 -1147 
L 775 -588 
Q 1028 -725 1275 -790 
Q 1522 -856 1778 -856 
Q 2344 -856 2625 -561 
Q 2906 -266 2906 331 
L 2906 616 
Q 2728 306 2450 153 
Q 2172 0 1784 0 
Q 1141 0 747 490 
Q 353 981 353 1791 
Q 353 2603 747 3093 
Q 1141 3584 1784 3584 
Q 2172 3584 2450 3431 
Q 2728 3278 2906 2969 
L 2906 3500 
L 3481 3500 
L 3481 434 
z
" transform="scale(0.015625)"/>
      </defs>
      <use xlink:href="#DejaVuSans-43"/>
      <use xlink:href="#DejaVuSans-6f" x="69.824219"/>
      <use xlink:href="#DejaVuSans-64" x="131.005859"/>
      <use xlink:href="#DejaVuSans-65" x="194.482422"/>
      <use xlink:href="#DejaVuSans-20" x="256.005859"/>
      <use xlink:href="#DejaVuSans-62" x="287.792969"/>
      <use xlink:href="#DejaVuSans-72" x="351.269531"/>
      <use xlink:href="#DejaVuSans-61" x="392.382812"/>
      <use xlink:href="#DejaVuSans-6e" x="453.662109"/>
      <use xlink:href="#DejaVuSans-63" x="517.041016"/>
      <use xlink:href="#DejaVuSans-68" x="572.021484"/>
      <use xlink:href="#DejaVuSans-20" x="635.400391"/>
      <use xlink:href="#DejaVuSans-63" x="667.1875"/>
      <use xlink:href="#DejaVuSans-6f" x="722.167969"/>
      <use xlink:href="#DejaVuSans-76" x="783.349609"/>
      <use xlink:href="#DejaVuSans-65" x="842.529297"/>
      <use xlink:href="#DejaVuSans-72" x="904.052734"/>
      <use xlink:href="#DejaVuSans-61" x="945.166016"/>
      <use xlink:href="#DejaVuSans-67" x="1006.445312"/>
      <use xlink:href="#DejaVuSans-65" x="1069.921875"/>
     </g>
    </g>
   </g>
   <g id="line2d_21">
    <path d="M 59.690625 276.334125 
L 66.776339 125.138512 
L 73.862054 111.573725 
L 80.947768 85.058338 
L 88.033482 78.390008 
L 95.119196 71.476002 
L 102.204911 68.176934 
L 109.290625 64.263677 
L 116.376339 60.139841 
L 123.462054 57.770829 
L 130.547768 55.17369 
L 137.633482 53.910217 
L 144.719196 51.804428 
L 151.804911 50.821727 
L 158.890625 50.067153 
L 165.976339 49.628447 
L 173.062054 48.908969 
L 180.147768 47.785882 
L 187.233482 47.154145 
L 194.319196 47.048856 
L 201.404911 46.031058 
L 208.490625 45.662545 
L 215.576339 45.592352 
L 222.662054 44.978164 
L 229.747768 44.504361 
L 236.833482 44.469265 
L 243.919196 44.1183 
L 251.004911 43.837528 
L 258.090625 43.662046 
L 265.176339 43.52166 
L 272.262054 43.486564 
L 279.347768 43.469015 
L 286.433482 42.872375 
L 293.519196 42.661797 
L 300.604911 42.556507 
L 307.690625 42.521411 
L 314.776339 42.503862 
L 321.862054 42.451218 
L 328.947768 42.065156 
L 336.033482 41.942319 
L 343.119196 41.854578 
L 350.204911 41.766836 
L 357.290625 41.538709 
L 364.376339 41.538709 
L 371.462054 41.450968 
L 378.547768 40.889425 
L 385.633482 40.83678 
L 392.719196 40.83678 
L 399.804911 40.73149 
L 406.890625 40.643749 
L 413.976339 40.468267 
L 421.062054 40.468267 
L 428.147768 40.468267 
L 435.233482 40.415622 
L 442.319196 40.047109 
L 449.404911 40.012013 
L 456.490625 39.906723 
L 463.576339 39.889175 
L 470.662054 39.889175 
L 477.747768 39.854079 
L 484.833482 39.818982 
L 491.919196 39.818982 
L 499.004911 39.818982 
L 506.090625 39.661048 
L 513.176339 39.661048 
L 520.262054 39.503114 
L 527.347768 39.397824 
L 534.433482 39.362728 
L 541.519196 39.34518 
L 548.604911 39.169697 
L 555.690625 39.117053 
L 562.776339 39.029311 
L 569.862054 38.537961 
L 576.947768 38.415123 
L 584.033482 37.976417 
L 591.119196 37.923772 
L 598.204911 37.85358 
L 605.290625 37.836031 
L 612.376339 37.800935 
L 619.462054 37.713194 
L 626.547768 37.713194 
L 633.633482 37.678097 
L 640.719196 37.660549 
L 647.804911 37.625452 
L 654.890625 37.607904 
L 661.976339 36.572558 
L 669.062054 36.55501 
L 676.147768 36.537462 
L 683.233482 36.519913 
L 690.319196 36.502365 
L 697.404911 36.467269 
L 704.490625 36.397076 
L 711.576339 36.274238 
L 718.662054 36.204045 
L 725.747768 36.168949 
L 732.833482 36.168949 
L 739.919196 36.168949 
" clip-path="url(#p7de8ed1659)" style="fill: none; stroke: #1f77b4; stroke-width: 1.5; stroke-linecap: square"/>
    <defs>
     <path id="mecbbf0f406" d="M 0 3 
C 0.795609 3 1.55874 2.683901 2.12132 2.12132 
C 2.683901 1.55874 3 0.795609 3 0 
C 3 -0.795609 2.683901 -1.55874 2.12132 -2.12132 
C 1.55874 -2.683901 0.795609 -3 0 -3 
C -0.795609 -3 -1.55874 -2.683901 -2.12132 -2.12132 
C -2.683901 -1.55874 -3 -0.795609 -3 0 
C -3 0.795609 -2.683901 1.55874 -2.12132 2.12132 
C -1.55874 2.683901 -0.795609 3 0 3 
z
" style="stroke: #ffffff; stroke-width: 0.75"/>
    </defs>
    <g clip-path="url(#p7de8ed1659)">
     <use xlink:href="#mecbbf0f406" x="59.690625" y="276.334125" style="fill: #1f77b4; stroke: #ffffff; stroke-width: 0.75"/>
     <use xlink:href="#mecbbf0f406" x="66.776339" y="125.138512" style="fill: #1f77b4; stroke: #ffffff; stroke-width: 0.75"/>
     <use xlink:href="#mecbbf0f406" x="73.862054" y="111.573725" style="fill: #1f77b4; stroke: #ffffff; stroke-width: 0.75"/>
     <use xlink:href="#mecbbf0f406" x="80.947768" y="85.058338" style="fill: #1f77b4; stroke: #ffffff; stroke-width: 0.75"/>
     <use xlink:href="#mecbbf0f406" x="88.033482" y="78.390008" style="fill: #1f77b4; stroke: #ffffff; stroke-width: 0.75"/>
     <use xlink:href="#mecbbf0f406" x="95.119196" y="71.476002" style="fill: #1f77b4; stroke: #ffffff; stroke-width: 0.75"/>
     <use xlink:href="#mecbbf0f406" x="102.204911" y="68.176934" style="fill: #1f77b4; stroke: #ffffff; stroke-width: 0.75"/>
     <use xlink:href="#mecbbf0f406" x="109.290625" y="64.263677" style="fill: #1f77b4; stroke: #ffffff; stroke-width: 0.75"/>
     <use xlink:href="#mecbbf0f406" x="116.376339" y="60.139841" style="fill: #1f77b4; stroke: #ffffff; stroke-width: 0.75"/>
     <use xlink:href="#mecbbf0f406" x="123.462054" y="57.770829" style="fill: #1f77b4; stroke: #ffffff; stroke-width: 0.75"/>
     <use xlink:href="#mecbbf0f406" x="130.547768" y="55.17369" style="fill: #1f77b4; stroke: #ffffff; stroke-width: 0.75"/>
     <use xlink:href="#mecbbf0f406" x="137.633482" y="53.910217" style="fill: #1f77b4; stroke: #ffffff; stroke-width: 0.75"/>
     <use xlink:href="#mecbbf0f406" x="144.719196" y="51.804428" style="fill: #1f77b4; stroke: #ffffff; stroke-width: 0.75"/>
     <use xlink:href="#mecbbf0f406" x="151.804911" y="50.821727" style="fill: #1f77b4; stroke: #ffffff; stroke-width: 0.75"/>
     <use xlink:href="#mecbbf0f406" x="158.890625" y="50.067153" style="fill: #1f77b4; stroke: #ffffff; stroke-width: 0.75"/>
     <use xlink:href="#mecbbf0f406" x="165.976339" y="49.628447" style="fill: #1f77b4; stroke: #ffffff; stroke-width: 0.75"/>
     <use xlink:href="#mecbbf0f406" x="173.062054" y="48.908969" style="fill: #1f77b4; stroke: #ffffff; stroke-width: 0.75"/>
     <use xlink:href="#mecbbf0f406" x="180.147768" y="47.785882" style="fill: #1f77b4; stroke: #ffffff; stroke-width: 0.75"/>
     <use xlink:href="#mecbbf0f406" x="187.233482" y="47.154145" style="fill: #1f77b4; stroke: #ffffff; stroke-width: 0.75"/>
     <use xlink:href="#mecbbf0f406" x="194.319196" y="47.048856" style="fill: #1f77b4; stroke: #ffffff; stroke-width: 0.75"/>
     <use xlink:href="#mecbbf0f406" x="201.404911" y="46.031058" style="fill: #1f77b4; stroke: #ffffff; stroke-width: 0.75"/>
     <use xlink:href="#mecbbf0f406" x="208.490625" y="45.662545" style="fill: #1f77b4; stroke: #ffffff; stroke-width: 0.75"/>
     <use xlink:href="#mecbbf0f406" x="215.576339" y="45.592352" style="fill: #1f77b4; stroke: #ffffff; stroke-width: 0.75"/>
     <use xlink:href="#mecbbf0f406" x="222.662054" y="44.978164" style="fill: #1f77b4; stroke: #ffffff; stroke-width: 0.75"/>
     <use xlink:href="#mecbbf0f406" x="229.747768" y="44.504361" style="fill: #1f77b4; stroke: #ffffff; stroke-width: 0.75"/>
     <use xlink:href="#mecbbf0f406" x="236.833482" y="44.469265" style="fill: #1f77b4; stroke: #ffffff; stroke-width: 0.75"/>
     <use xlink:href="#mecbbf0f406" x="243.919196" y="44.1183" style="fill: #1f77b4; stroke: #ffffff; stroke-width: 0.75"/>
     <use xlink:href="#mecbbf0f406" x="251.004911" y="43.837528" style="fill: #1f77b4; stroke: #ffffff; stroke-width: 0.75"/>
     <use xlink:href="#mecbbf0f406" x="258.090625" y="43.662046" style="fill: #1f77b4; stroke: #ffffff; stroke-width: 0.75"/>
     <use xlink:href="#mecbbf0f406" x="265.176339" y="43.52166" style="fill: #1f77b4; stroke: #ffffff; stroke-width: 0.75"/>
     <use xlink:href="#mecbbf0f406" x="272.262054" y="43.486564" style="fill: #1f77b4; stroke: #ffffff; stroke-width: 0.75"/>
     <use xlink:href="#mecbbf0f406" x="279.347768" y="43.469015" style="fill: #1f77b4; stroke: #ffffff; stroke-width: 0.75"/>
     <use xlink:href="#mecbbf0f406" x="286.433482" y="42.872375" style="fill: #1f77b4; stroke: #ffffff; stroke-width: 0.75"/>
     <use xlink:href="#mecbbf0f406" x="293.519196" y="42.661797" style="fill: #1f77b4; stroke: #ffffff; stroke-width: 0.75"/>
     <use xlink:href="#mecbbf0f406" x="300.604911" y="42.556507" style="fill: #1f77b4; stroke: #ffffff; stroke-width: 0.75"/>
     <use xlink:href="#mecbbf0f406" x="307.690625" y="42.521411" style="fill: #1f77b4; stroke: #ffffff; stroke-width: 0.75"/>
     <use xlink:href="#mecbbf0f406" x="314.776339" y="42.503862" style="fill: #1f77b4; stroke: #ffffff; stroke-width: 0.75"/>
     <use xlink:href="#mecbbf0f406" x="321.862054" y="42.451218" style="fill: #1f77b4; stroke: #ffffff; stroke-width: 0.75"/>
     <use xlink:href="#mecbbf0f406" x="328.947768" y="42.065156" style="fill: #1f77b4; stroke: #ffffff; stroke-width: 0.75"/>
     <use xlink:href="#mecbbf0f406" x="336.033482" y="41.942319" style="fill: #1f77b4; stroke: #ffffff; stroke-width: 0.75"/>
     <use xlink:href="#mecbbf0f406" x="343.119196" y="41.854578" style="fill: #1f77b4; stroke: #ffffff; stroke-width: 0.75"/>
     <use xlink:href="#mecbbf0f406" x="350.204911" y="41.766836" style="fill: #1f77b4; stroke: #ffffff; stroke-width: 0.75"/>
     <use xlink:href="#mecbbf0f406" x="357.290625" y="41.538709" style="fill: #1f77b4; stroke: #ffffff; stroke-width: 0.75"/>
     <use xlink:href="#mecbbf0f406" x="364.376339" y="41.538709" style="fill: #1f77b4; stroke: #ffffff; stroke-width: 0.75"/>
     <use xlink:href="#mecbbf0f406" x="371.462054" y="41.450968" style="fill: #1f77b4; stroke: #ffffff; stroke-width: 0.75"/>
     <use xlink:href="#mecbbf0f406" x="378.547768" y="40.889425" style="fill: #1f77b4; stroke: #ffffff; stroke-width: 0.75"/>
     <use xlink:href="#mecbbf0f406" x="385.633482" y="40.83678" style="fill: #1f77b4; stroke: #ffffff; stroke-width: 0.75"/>
     <use xlink:href="#mecbbf0f406" x="392.719196" y="40.83678" style="fill: #1f77b4; stroke: #ffffff; stroke-width: 0.75"/>
     <use xlink:href="#mecbbf0f406" x="399.804911" y="40.73149" style="fill: #1f77b4; stroke: #ffffff; stroke-width: 0.75"/>
     <use xlink:href="#mecbbf0f406" x="406.890625" y="40.643749" style="fill: #1f77b4; stroke: #ffffff; stroke-width: 0.75"/>
     <use xlink:href="#mecbbf0f406" x="413.976339" y="40.468267" style="fill: #1f77b4; stroke: #ffffff; stroke-width: 0.75"/>
     <use xlink:href="#mecbbf0f406" x="421.062054" y="40.468267" style="fill: #1f77b4; stroke: #ffffff; stroke-width: 0.75"/>
     <use xlink:href="#mecbbf0f406" x="428.147768" y="40.468267" style="fill: #1f77b4; stroke: #ffffff; stroke-width: 0.75"/>
     <use xlink:href="#mecbbf0f406" x="435.233482" y="40.415622" style="fill: #1f77b4; stroke: #ffffff; stroke-width: 0.75"/>
     <use xlink:href="#mecbbf0f406" x="442.319196" y="40.047109" style="fill: #1f77b4; stroke: #ffffff; stroke-width: 0.75"/>
     <use xlink:href="#mecbbf0f406" x="449.404911" y="40.012013" style="fill: #1f77b4; stroke: #ffffff; stroke-width: 0.75"/>
     <use xlink:href="#mecbbf0f406" x="456.490625" y="39.906723" style="fill: #1f77b4; stroke: #ffffff; stroke-width: 0.75"/>
     <use xlink:href="#mecbbf0f406" x="463.576339" y="39.889175" style="fill: #1f77b4; stroke: #ffffff; stroke-width: 0.75"/>
     <use xlink:href="#mecbbf0f406" x="470.662054" y="39.889175" style="fill: #1f77b4; stroke: #ffffff; stroke-width: 0.75"/>
     <use xlink:href="#mecbbf0f406" x="477.747768" y="39.854079" style="fill: #1f77b4; stroke: #ffffff; stroke-width: 0.75"/>
     <use xlink:href="#mecbbf0f406" x="484.833482" y="39.818982" style="fill: #1f77b4; stroke: #ffffff; stroke-width: 0.75"/>
     <use xlink:href="#mecbbf0f406" x="491.919196" y="39.818982" style="fill: #1f77b4; stroke: #ffffff; stroke-width: 0.75"/>
     <use xlink:href="#mecbbf0f406" x="499.004911" y="39.818982" style="fill: #1f77b4; stroke: #ffffff; stroke-width: 0.75"/>
     <use xlink:href="#mecbbf0f406" x="506.090625" y="39.661048" style="fill: #1f77b4; stroke: #ffffff; stroke-width: 0.75"/>
     <use xlink:href="#mecbbf0f406" x="513.176339" y="39.661048" style="fill: #1f77b4; stroke: #ffffff; stroke-width: 0.75"/>
     <use xlink:href="#mecbbf0f406" x="520.262054" y="39.503114" style="fill: #1f77b4; stroke: #ffffff; stroke-width: 0.75"/>
     <use xlink:href="#mecbbf0f406" x="527.347768" y="39.397824" style="fill: #1f77b4; stroke: #ffffff; stroke-width: 0.75"/>
     <use xlink:href="#mecbbf0f406" x="534.433482" y="39.362728" style="fill: #1f77b4; stroke: #ffffff; stroke-width: 0.75"/>
     <use xlink:href="#mecbbf0f406" x="541.519196" y="39.34518" style="fill: #1f77b4; stroke: #ffffff; stroke-width: 0.75"/>
     <use xlink:href="#mecbbf0f406" x="548.604911" y="39.169697" style="fill: #1f77b4; stroke: #ffffff; stroke-width: 0.75"/>
     <use xlink:href="#mecbbf0f406" x="555.690625" y="39.117053" style="fill: #1f77b4; stroke: #ffffff; stroke-width: 0.75"/>
     <use xlink:href="#mecbbf0f406" x="562.776339" y="39.029311" style="fill: #1f77b4; stroke: #ffffff; stroke-width: 0.75"/>
     <use xlink:href="#mecbbf0f406" x="569.862054" y="38.537961" style="fill: #1f77b4; stroke: #ffffff; stroke-width: 0.75"/>
     <use xlink:href="#mecbbf0f406" x="576.947768" y="38.415123" style="fill: #1f77b4; stroke: #ffffff; stroke-width: 0.75"/>
     <use xlink:href="#mecbbf0f406" x="584.033482" y="37.976417" style="fill: #1f77b4; stroke: #ffffff; stroke-width: 0.75"/>
     <use xlink:href="#mecbbf0f406" x="591.119196" y="37.923772" style="fill: #1f77b4; stroke: #ffffff; stroke-width: 0.75"/>
     <use xlink:href="#mecbbf0f406" x="598.204911" y="37.85358" style="fill: #1f77b4; stroke: #ffffff; stroke-width: 0.75"/>
     <use xlink:href="#mecbbf0f406" x="605.290625" y="37.836031" style="fill: #1f77b4; stroke: #ffffff; stroke-width: 0.75"/>
     <use xlink:href="#mecbbf0f406" x="612.376339" y="37.800935" style="fill: #1f77b4; stroke: #ffffff; stroke-width: 0.75"/>
     <use xlink:href="#mecbbf0f406" x="619.462054" y="37.713194" style="fill: #1f77b4; stroke: #ffffff; stroke-width: 0.75"/>
     <use xlink:href="#mecbbf0f406" x="626.547768" y="37.713194" style="fill: #1f77b4; stroke: #ffffff; stroke-width: 0.75"/>
     <use xlink:href="#mecbbf0f406" x="633.633482" y="37.678097" style="fill: #1f77b4; stroke: #ffffff; stroke-width: 0.75"/>
     <use xlink:href="#mecbbf0f406" x="640.719196" y="37.660549" style="fill: #1f77b4; stroke: #ffffff; stroke-width: 0.75"/>
     <use xlink:href="#mecbbf0f406" x="647.804911" y="37.625452" style="fill: #1f77b4; stroke: #ffffff; stroke-width: 0.75"/>
     <use xlink:href="#mecbbf0f406" x="654.890625" y="37.607904" style="fill: #1f77b4; stroke: #ffffff; stroke-width: 0.75"/>
     <use xlink:href="#mecbbf0f406" x="661.976339" y="36.572558" style="fill: #1f77b4; stroke: #ffffff; stroke-width: 0.75"/>
     <use xlink:href="#mecbbf0f406" x="669.062054" y="36.55501" style="fill: #1f77b4; stroke: #ffffff; stroke-width: 0.75"/>
     <use xlink:href="#mecbbf0f406" x="676.147768" y="36.537462" style="fill: #1f77b4; stroke: #ffffff; stroke-width: 0.75"/>
     <use xlink:href="#mecbbf0f406" x="683.233482" y="36.519913" style="fill: #1f77b4; stroke: #ffffff; stroke-width: 0.75"/>
     <use xlink:href="#mecbbf0f406" x="690.319196" y="36.502365" style="fill: #1f77b4; stroke: #ffffff; stroke-width: 0.75"/>
     <use xlink:href="#mecbbf0f406" x="697.404911" y="36.467269" style="fill: #1f77b4; stroke: #ffffff; stroke-width: 0.75"/>
     <use xlink:href="#mecbbf0f406" x="704.490625" y="36.397076" style="fill: #1f77b4; stroke: #ffffff; stroke-width: 0.75"/>
     <use xlink:href="#mecbbf0f406" x="711.576339" y="36.274238" style="fill: #1f77b4; stroke: #ffffff; stroke-width: 0.75"/>
     <use xlink:href="#mecbbf0f406" x="718.662054" y="36.204045" style="fill: #1f77b4; stroke: #ffffff; stroke-width: 0.75"/>
     <use xlink:href="#mecbbf0f406" x="725.747768" y="36.168949" style="fill: #1f77b4; stroke: #ffffff; stroke-width: 0.75"/>
     <use xlink:href="#mecbbf0f406" x="732.833482" y="36.168949" style="fill: #1f77b4; stroke: #ffffff; stroke-width: 0.75"/>
     <use xlink:href="#mecbbf0f406" x="739.919196" y="36.168949" style="fill: #1f77b4; stroke: #ffffff; stroke-width: 0.75"/>
    </g>
   </g>
   <g id="line2d_22">
    <path d="M 59.690625 276.334125 
L 66.776339 135.860485 
L 73.862054 103.378698 
L 80.947768 90.849256 
L 88.033482 80.987147 
L 95.119196 76.389509 
L 102.204911 70.89691 
L 109.290625 65.263926 
L 116.376339 61.947309 
L 123.462054 59.244881 
L 130.547768 59.192236 
L 137.633482 56.823224 
L 144.719196 55.261431 
L 151.804911 53.067901 
L 158.890625 52.787129 
L 165.976339 51.576301 
L 173.062054 50.435666 
L 180.147768 49.40032 
L 187.233482 48.873873 
L 194.319196 48.645745 
L 201.404911 48.294781 
L 208.490625 47.768334 
L 215.576339 47.575303 
L 222.662054 47.347176 
L 229.747768 46.732988 
L 236.833482 46.662795 
L 243.919196 46.20654 
L 251.004911 45.995962 
L 258.090625 45.855576 
L 265.176339 45.802931 
L 272.262054 45.451966 
L 279.347768 45.188743 
L 286.433482 45.136098 
L 293.519196 45.048357 
L 300.604911 44.960616 
L 307.690625 44.785133 
L 314.776339 44.71494 
L 321.862054 44.346427 
L 328.947768 44.311331 
L 336.033482 43.644498 
L 343.119196 43.609401 
L 350.204911 43.52166 
L 357.290625 43.398823 
L 364.376339 42.960117 
L 371.462054 42.942568 
L 378.547768 42.907472 
L 385.633482 42.802182 
L 392.719196 42.767086 
L 399.804911 42.661797 
L 406.890625 42.381025 
L 413.976339 42.03006 
L 421.062054 41.942319 
L 428.147768 41.924771 
L 435.233482 41.784385 
L 442.319196 41.661547 
L 449.404911 41.608902 
L 456.490625 41.608902 
L 463.576339 41.503613 
L 470.662054 41.380775 
L 477.747768 41.275486 
L 484.833482 41.117552 
L 491.919196 41.012262 
L 499.004911 40.994714 
L 506.090625 40.994714 
L 513.176339 40.959618 
L 520.262054 40.766587 
L 527.347768 40.766587 
L 534.433482 40.73149 
L 541.519196 40.520912 
L 548.604911 40.485815 
L 555.690625 40.099754 
L 562.776339 40.082206 
L 569.862054 39.713693 
L 576.947768 39.661048 
L 584.033482 39.608403 
L 591.119196 39.362728 
L 598.204911 39.134601 
L 605.290625 39.117053 
L 612.376339 39.011763 
L 619.462054 39.011763 
L 626.547768 38.730991 
L 633.633482 38.730991 
L 640.719196 38.678347 
L 647.804911 38.608154 
L 654.890625 38.502864 
L 661.976339 38.397575 
L 669.062054 38.397575 
L 676.147768 38.397575 
L 683.233482 38.397575 
L 690.319196 38.397575 
L 697.404911 38.380027 
L 704.490625 38.362478 
L 711.576339 38.309834 
L 718.662054 38.239641 
L 725.747768 38.204544 
L 732.833482 38.186996 
L 739.919196 38.186996 
" clip-path="url(#p7de8ed1659)" style="fill: none; stroke: #98df8a; stroke-width: 1.5; stroke-linecap: square"/>
    <defs>
     <path id="m1236222e8b" d="M -0 3 
L 3 -3 
L -3 -3 
z
" style="stroke: #ffffff; stroke-width: 0.75; stroke-linejoin: miter"/>
    </defs>
    <g clip-path="url(#p7de8ed1659)">
     <use xlink:href="#m1236222e8b" x="59.690625" y="276.334125" style="fill: #98df8a; stroke: #ffffff; stroke-width: 0.75; stroke-linejoin: miter"/>
     <use xlink:href="#m1236222e8b" x="66.776339" y="135.860485" style="fill: #98df8a; stroke: #ffffff; stroke-width: 0.75; stroke-linejoin: miter"/>
     <use xlink:href="#m1236222e8b" x="73.862054" y="103.378698" style="fill: #98df8a; stroke: #ffffff; stroke-width: 0.75; stroke-linejoin: miter"/>
     <use xlink:href="#m1236222e8b" x="80.947768" y="90.849256" style="fill: #98df8a; stroke: #ffffff; stroke-width: 0.75; stroke-linejoin: miter"/>
     <use xlink:href="#m1236222e8b" x="88.033482" y="80.987147" style="fill: #98df8a; stroke: #ffffff; stroke-width: 0.75; stroke-linejoin: miter"/>
     <use xlink:href="#m1236222e8b" x="95.119196" y="76.389509" style="fill: #98df8a; stroke: #ffffff; stroke-width: 0.75; stroke-linejoin: miter"/>
     <use xlink:href="#m1236222e8b" x="102.204911" y="70.89691" style="fill: #98df8a; stroke: #ffffff; stroke-width: 0.75; stroke-linejoin: miter"/>
     <use xlink:href="#m1236222e8b" x="109.290625" y="65.263926" style="fill: #98df8a; stroke: #ffffff; stroke-width: 0.75; stroke-linejoin: miter"/>
     <use xlink:href="#m1236222e8b" x="116.376339" y="61.947309" style="fill: #98df8a; stroke: #ffffff; stroke-width: 0.75; stroke-linejoin: miter"/>
     <use xlink:href="#m1236222e8b" x="123.462054" y="59.244881" style="fill: #98df8a; stroke: #ffffff; stroke-width: 0.75; stroke-linejoin: miter"/>
     <use xlink:href="#m1236222e8b" x="130.547768" y="59.192236" style="fill: #98df8a; stroke: #ffffff; stroke-width: 0.75; stroke-linejoin: miter"/>
     <use xlink:href="#m1236222e8b" x="137.633482" y="56.823224" style="fill: #98df8a; stroke: #ffffff; stroke-width: 0.75; stroke-linejoin: miter"/>
     <use xlink:href="#m1236222e8b" x="144.719196" y="55.261431" style="fill: #98df8a; stroke: #ffffff; stroke-width: 0.75; stroke-linejoin: miter"/>
     <use xlink:href="#m1236222e8b" x="151.804911" y="53.067901" style="fill: #98df8a; stroke: #ffffff; stroke-width: 0.75; stroke-linejoin: miter"/>
     <use xlink:href="#m1236222e8b" x="158.890625" y="52.787129" style="fill: #98df8a; stroke: #ffffff; stroke-width: 0.75; stroke-linejoin: miter"/>
     <use xlink:href="#m1236222e8b" x="165.976339" y="51.576301" style="fill: #98df8a; stroke: #ffffff; stroke-width: 0.75; stroke-linejoin: miter"/>
     <use xlink:href="#m1236222e8b" x="173.062054" y="50.435666" style="fill: #98df8a; stroke: #ffffff; stroke-width: 0.75; stroke-linejoin: miter"/>
     <use xlink:href="#m1236222e8b" x="180.147768" y="49.40032" style="fill: #98df8a; stroke: #ffffff; stroke-width: 0.75; stroke-linejoin: miter"/>
     <use xlink:href="#m1236222e8b" x="187.233482" y="48.873873" style="fill: #98df8a; stroke: #ffffff; stroke-width: 0.75; stroke-linejoin: miter"/>
     <use xlink:href="#m1236222e8b" x="194.319196" y="48.645745" style="fill: #98df8a; stroke: #ffffff; stroke-width: 0.75; stroke-linejoin: miter"/>
     <use xlink:href="#m1236222e8b" x="201.404911" y="48.294781" style="fill: #98df8a; stroke: #ffffff; stroke-width: 0.75; stroke-linejoin: miter"/>
     <use xlink:href="#m1236222e8b" x="208.490625" y="47.768334" style="fill: #98df8a; stroke: #ffffff; stroke-width: 0.75; stroke-linejoin: miter"/>
     <use xlink:href="#m1236222e8b" x="215.576339" y="47.575303" style="fill: #98df8a; stroke: #ffffff; stroke-width: 0.75; stroke-linejoin: miter"/>
     <use xlink:href="#m1236222e8b" x="222.662054" y="47.347176" style="fill: #98df8a; stroke: #ffffff; stroke-width: 0.75; stroke-linejoin: miter"/>
     <use xlink:href="#m1236222e8b" x="229.747768" y="46.732988" style="fill: #98df8a; stroke: #ffffff; stroke-width: 0.75; stroke-linejoin: miter"/>
     <use xlink:href="#m1236222e8b" x="236.833482" y="46.662795" style="fill: #98df8a; stroke: #ffffff; stroke-width: 0.75; stroke-linejoin: miter"/>
     <use xlink:href="#m1236222e8b" x="243.919196" y="46.20654" style="fill: #98df8a; stroke: #ffffff; stroke-width: 0.75; stroke-linejoin: miter"/>
     <use xlink:href="#m1236222e8b" x="251.004911" y="45.995962" style="fill: #98df8a; stroke: #ffffff; stroke-width: 0.75; stroke-linejoin: miter"/>
     <use xlink:href="#m1236222e8b" x="258.090625" y="45.855576" style="fill: #98df8a; stroke: #ffffff; stroke-width: 0.75; stroke-linejoin: miter"/>
     <use xlink:href="#m1236222e8b" x="265.176339" y="45.802931" style="fill: #98df8a; stroke: #ffffff; stroke-width: 0.75; stroke-linejoin: miter"/>
     <use xlink:href="#m1236222e8b" x="272.262054" y="45.451966" style="fill: #98df8a; stroke: #ffffff; stroke-width: 0.75; stroke-linejoin: miter"/>
     <use xlink:href="#m1236222e8b" x="279.347768" y="45.188743" style="fill: #98df8a; stroke: #ffffff; stroke-width: 0.75; stroke-linejoin: miter"/>
     <use xlink:href="#m1236222e8b" x="286.433482" y="45.136098" style="fill: #98df8a; stroke: #ffffff; stroke-width: 0.75; stroke-linejoin: miter"/>
     <use xlink:href="#m1236222e8b" x="293.519196" y="45.048357" style="fill: #98df8a; stroke: #ffffff; stroke-width: 0.75; stroke-linejoin: miter"/>
     <use xlink:href="#m1236222e8b" x="300.604911" y="44.960616" style="fill: #98df8a; stroke: #ffffff; stroke-width: 0.75; stroke-linejoin: miter"/>
     <use xlink:href="#m1236222e8b" x="307.690625" y="44.785133" style="fill: #98df8a; stroke: #ffffff; stroke-width: 0.75; stroke-linejoin: miter"/>
     <use xlink:href="#m1236222e8b" x="314.776339" y="44.71494" style="fill: #98df8a; stroke: #ffffff; stroke-width: 0.75; stroke-linejoin: miter"/>
     <use xlink:href="#m1236222e8b" x="321.862054" y="44.346427" style="fill: #98df8a; stroke: #ffffff; stroke-width: 0.75; stroke-linejoin: miter"/>
     <use xlink:href="#m1236222e8b" x="328.947768" y="44.311331" style="fill: #98df8a; stroke: #ffffff; stroke-width: 0.75; stroke-linejoin: miter"/>
     <use xlink:href="#m1236222e8b" x="336.033482" y="43.644498" style="fill: #98df8a; stroke: #ffffff; stroke-width: 0.75; stroke-linejoin: miter"/>
     <use xlink:href="#m1236222e8b" x="343.119196" y="43.609401" style="fill: #98df8a; stroke: #ffffff; stroke-width: 0.75; stroke-linejoin: miter"/>
     <use xlink:href="#m1236222e8b" x="350.204911" y="43.52166" style="fill: #98df8a; stroke: #ffffff; stroke-width: 0.75; stroke-linejoin: miter"/>
     <use xlink:href="#m1236222e8b" x="357.290625" y="43.398823" style="fill: #98df8a; stroke: #ffffff; stroke-width: 0.75; stroke-linejoin: miter"/>
     <use xlink:href="#m1236222e8b" x="364.376339" y="42.960117" style="fill: #98df8a; stroke: #ffffff; stroke-width: 0.75; stroke-linejoin: miter"/>
     <use xlink:href="#m1236222e8b" x="371.462054" y="42.942568" style="fill: #98df8a; stroke: #ffffff; stroke-width: 0.75; stroke-linejoin: miter"/>
     <use xlink:href="#m1236222e8b" x="378.547768" y="42.907472" style="fill: #98df8a; stroke: #ffffff; stroke-width: 0.75; stroke-linejoin: miter"/>
     <use xlink:href="#m1236222e8b" x="385.633482" y="42.802182" style="fill: #98df8a; stroke: #ffffff; stroke-width: 0.75; stroke-linejoin: miter"/>
     <use xlink:href="#m1236222e8b" x="392.719196" y="42.767086" style="fill: #98df8a; stroke: #ffffff; stroke-width: 0.75; stroke-linejoin: miter"/>
     <use xlink:href="#m1236222e8b" x="399.804911" y="42.661797" style="fill: #98df8a; stroke: #ffffff; stroke-width: 0.75; stroke-linejoin: miter"/>
     <use xlink:href="#m1236222e8b" x="406.890625" y="42.381025" style="fill: #98df8a; stroke: #ffffff; stroke-width: 0.75; stroke-linejoin: miter"/>
     <use xlink:href="#m1236222e8b" x="413.976339" y="42.03006" style="fill: #98df8a; stroke: #ffffff; stroke-width: 0.75; stroke-linejoin: miter"/>
     <use xlink:href="#m1236222e8b" x="421.062054" y="41.942319" style="fill: #98df8a; stroke: #ffffff; stroke-width: 0.75; stroke-linejoin: miter"/>
     <use xlink:href="#m1236222e8b" x="428.147768" y="41.924771" style="fill: #98df8a; stroke: #ffffff; stroke-width: 0.75; stroke-linejoin: miter"/>
     <use xlink:href="#m1236222e8b" x="435.233482" y="41.784385" style="fill: #98df8a; stroke: #ffffff; stroke-width: 0.75; stroke-linejoin: miter"/>
     <use xlink:href="#m1236222e8b" x="442.319196" y="41.661547" style="fill: #98df8a; stroke: #ffffff; stroke-width: 0.75; stroke-linejoin: miter"/>
     <use xlink:href="#m1236222e8b" x="449.404911" y="41.608902" style="fill: #98df8a; stroke: #ffffff; stroke-width: 0.75; stroke-linejoin: miter"/>
     <use xlink:href="#m1236222e8b" x="456.490625" y="41.608902" style="fill: #98df8a; stroke: #ffffff; stroke-width: 0.75; stroke-linejoin: miter"/>
     <use xlink:href="#m1236222e8b" x="463.576339" y="41.503613" style="fill: #98df8a; stroke: #ffffff; stroke-width: 0.75; stroke-linejoin: miter"/>
     <use xlink:href="#m1236222e8b" x="470.662054" y="41.380775" style="fill: #98df8a; stroke: #ffffff; stroke-width: 0.75; stroke-linejoin: miter"/>
     <use xlink:href="#m1236222e8b" x="477.747768" y="41.275486" style="fill: #98df8a; stroke: #ffffff; stroke-width: 0.75; stroke-linejoin: miter"/>
     <use xlink:href="#m1236222e8b" x="484.833482" y="41.117552" style="fill: #98df8a; stroke: #ffffff; stroke-width: 0.75; stroke-linejoin: miter"/>
     <use xlink:href="#m1236222e8b" x="491.919196" y="41.012262" style="fill: #98df8a; stroke: #ffffff; stroke-width: 0.75; stroke-linejoin: miter"/>
     <use xlink:href="#m1236222e8b" x="499.004911" y="40.994714" style="fill: #98df8a; stroke: #ffffff; stroke-width: 0.75; stroke-linejoin: miter"/>
     <use xlink:href="#m1236222e8b" x="506.090625" y="40.994714" style="fill: #98df8a; stroke: #ffffff; stroke-width: 0.75; stroke-linejoin: miter"/>
     <use xlink:href="#m1236222e8b" x="513.176339" y="40.959618" style="fill: #98df8a; stroke: #ffffff; stroke-width: 0.75; stroke-linejoin: miter"/>
     <use xlink:href="#m1236222e8b" x="520.262054" y="40.766587" style="fill: #98df8a; stroke: #ffffff; stroke-width: 0.75; stroke-linejoin: miter"/>
     <use xlink:href="#m1236222e8b" x="527.347768" y="40.766587" style="fill: #98df8a; stroke: #ffffff; stroke-width: 0.75; stroke-linejoin: miter"/>
     <use xlink:href="#m1236222e8b" x="534.433482" y="40.73149" style="fill: #98df8a; stroke: #ffffff; stroke-width: 0.75; stroke-linejoin: miter"/>
     <use xlink:href="#m1236222e8b" x="541.519196" y="40.520912" style="fill: #98df8a; stroke: #ffffff; stroke-width: 0.75; stroke-linejoin: miter"/>
     <use xlink:href="#m1236222e8b" x="548.604911" y="40.485815" style="fill: #98df8a; stroke: #ffffff; stroke-width: 0.75; stroke-linejoin: miter"/>
     <use xlink:href="#m1236222e8b" x="555.690625" y="40.099754" style="fill: #98df8a; stroke: #ffffff; stroke-width: 0.75; stroke-linejoin: miter"/>
     <use xlink:href="#m1236222e8b" x="562.776339" y="40.082206" style="fill: #98df8a; stroke: #ffffff; stroke-width: 0.75; stroke-linejoin: miter"/>
     <use xlink:href="#m1236222e8b" x="569.862054" y="39.713693" style="fill: #98df8a; stroke: #ffffff; stroke-width: 0.75; stroke-linejoin: miter"/>
     <use xlink:href="#m1236222e8b" x="576.947768" y="39.661048" style="fill: #98df8a; stroke: #ffffff; stroke-width: 0.75; stroke-linejoin: miter"/>
     <use xlink:href="#m1236222e8b" x="584.033482" y="39.608403" style="fill: #98df8a; stroke: #ffffff; stroke-width: 0.75; stroke-linejoin: miter"/>
     <use xlink:href="#m1236222e8b" x="591.119196" y="39.362728" style="fill: #98df8a; stroke: #ffffff; stroke-width: 0.75; stroke-linejoin: miter"/>
     <use xlink:href="#m1236222e8b" x="598.204911" y="39.134601" style="fill: #98df8a; stroke: #ffffff; stroke-width: 0.75; stroke-linejoin: miter"/>
     <use xlink:href="#m1236222e8b" x="605.290625" y="39.117053" style="fill: #98df8a; stroke: #ffffff; stroke-width: 0.75; stroke-linejoin: miter"/>
     <use xlink:href="#m1236222e8b" x="612.376339" y="39.011763" style="fill: #98df8a; stroke: #ffffff; stroke-width: 0.75; stroke-linejoin: miter"/>
     <use xlink:href="#m1236222e8b" x="619.462054" y="39.011763" style="fill: #98df8a; stroke: #ffffff; stroke-width: 0.75; stroke-linejoin: miter"/>
     <use xlink:href="#m1236222e8b" x="626.547768" y="38.730991" style="fill: #98df8a; stroke: #ffffff; stroke-width: 0.75; stroke-linejoin: miter"/>
     <use xlink:href="#m1236222e8b" x="633.633482" y="38.730991" style="fill: #98df8a; stroke: #ffffff; stroke-width: 0.75; stroke-linejoin: miter"/>
     <use xlink:href="#m1236222e8b" x="640.719196" y="38.678347" style="fill: #98df8a; stroke: #ffffff; stroke-width: 0.75; stroke-linejoin: miter"/>
     <use xlink:href="#m1236222e8b" x="647.804911" y="38.608154" style="fill: #98df8a; stroke: #ffffff; stroke-width: 0.75; stroke-linejoin: miter"/>
     <use xlink:href="#m1236222e8b" x="654.890625" y="38.502864" style="fill: #98df8a; stroke: #ffffff; stroke-width: 0.75; stroke-linejoin: miter"/>
     <use xlink:href="#m1236222e8b" x="661.976339" y="38.397575" style="fill: #98df8a; stroke: #ffffff; stroke-width: 0.75; stroke-linejoin: miter"/>
     <use xlink:href="#m1236222e8b" x="669.062054" y="38.397575" style="fill: #98df8a; stroke: #ffffff; stroke-width: 0.75; stroke-linejoin: miter"/>
     <use xlink:href="#m1236222e8b" x="676.147768" y="38.397575" style="fill: #98df8a; stroke: #ffffff; stroke-width: 0.75; stroke-linejoin: miter"/>
     <use xlink:href="#m1236222e8b" x="683.233482" y="38.397575" style="fill: #98df8a; stroke: #ffffff; stroke-width: 0.75; stroke-linejoin: miter"/>
     <use xlink:href="#m1236222e8b" x="690.319196" y="38.397575" style="fill: #98df8a; stroke: #ffffff; stroke-width: 0.75; stroke-linejoin: miter"/>
     <use xlink:href="#m1236222e8b" x="697.404911" y="38.380027" style="fill: #98df8a; stroke: #ffffff; stroke-width: 0.75; stroke-linejoin: miter"/>
     <use xlink:href="#m1236222e8b" x="704.490625" y="38.362478" style="fill: #98df8a; stroke: #ffffff; stroke-width: 0.75; stroke-linejoin: miter"/>
     <use xlink:href="#m1236222e8b" x="711.576339" y="38.309834" style="fill: #98df8a; stroke: #ffffff; stroke-width: 0.75; stroke-linejoin: miter"/>
     <use xlink:href="#m1236222e8b" x="718.662054" y="38.239641" style="fill: #98df8a; stroke: #ffffff; stroke-width: 0.75; stroke-linejoin: miter"/>
     <use xlink:href="#m1236222e8b" x="725.747768" y="38.204544" style="fill: #98df8a; stroke: #ffffff; stroke-width: 0.75; stroke-linejoin: miter"/>
     <use xlink:href="#m1236222e8b" x="732.833482" y="38.186996" style="fill: #98df8a; stroke: #ffffff; stroke-width: 0.75; stroke-linejoin: miter"/>
     <use xlink:href="#m1236222e8b" x="739.919196" y="38.186996" style="fill: #98df8a; stroke: #ffffff; stroke-width: 0.75; stroke-linejoin: miter"/>
    </g>
   </g>
   <g id="line2d_23"/>
   <g id="line2d_24"/>
   <g id="line2d_25">
    <path d="M 739.919196 288.430125 
L 739.919196 22.318125 
" clip-path="url(#p7de8ed1659)" style="fill: none; stroke: #ff0000; stroke-width: 1.5; stroke-linecap: square"/>
   </g>
   <g id="patch_3">
    <path d="M 59.690625 260.75129 
L 59.690625 50.172442 
" style="fill: none; stroke: #000000; stroke-width: 0.8; stroke-linejoin: miter; stroke-linecap: square"/>
   </g>
   <g id="patch_4">
    <path d="M 59.690625 288.430125 
L 739.919196 288.430125 
" style="fill: none; stroke: #000000; stroke-width: 0.8; stroke-linejoin: miter; stroke-linecap: square"/>
   </g>
   <g id="text_23">
    <!-- libxml2_xml (24h, at least 10 trials/fuzzer) -->
    <g transform="translate(289.639688 16.318125) scale(0.12 -0.12)">
     <defs>
      <path id="DejaVuSans-6c" d="M 603 4863 
L 1178 4863 
L 1178 0 
L 603 0 
L 603 4863 
z
" transform="scale(0.015625)"/>
      <path id="DejaVuSans-78" d="M 3513 3500 
L 2247 1797 
L 3578 0 
L 2900 0 
L 1881 1375 
L 863 0 
L 184 0 
L 1544 1831 
L 300 3500 
L 978 3500 
L 1906 2253 
L 2834 3500 
L 3513 3500 
z
" transform="scale(0.015625)"/>
      <path id="DejaVuSans-5f" d="M 3263 -1063 
L 3263 -1509 
L -63 -1509 
L -63 -1063 
L 3263 -1063 
z
" transform="scale(0.015625)"/>
      <path id="DejaVuSans-2c" d="M 750 794 
L 1409 794 
L 1409 256 
L 897 -744 
L 494 -744 
L 750 256 
L 750 794 
z
" transform="scale(0.015625)"/>
      <path id="DejaVuSans-73" d="M 2834 3397 
L 2834 2853 
Q 2591 2978 2328 3040 
Q 2066 3103 1784 3103 
Q 1356 3103 1142 2972 
Q 928 2841 928 2578 
Q 928 2378 1081 2264 
Q 1234 2150 1697 2047 
L 1894 2003 
Q 2506 1872 2764 1633 
Q 3022 1394 3022 966 
Q 3022 478 2636 193 
Q 2250 -91 1575 -91 
Q 1294 -91 989 -36 
Q 684 19 347 128 
L 347 722 
Q 666 556 975 473 
Q 1284 391 1588 391 
Q 1994 391 2212 530 
Q 2431 669 2431 922 
Q 2431 1156 2273 1281 
Q 2116 1406 1581 1522 
L 1381 1569 
Q 847 1681 609 1914 
Q 372 2147 372 2553 
Q 372 3047 722 3315 
Q 1072 3584 1716 3584 
Q 2034 3584 2315 3537 
Q 2597 3491 2834 3397 
z
" transform="scale(0.015625)"/>
      <path id="DejaVuSans-2f" d="M 1625 4666 
L 2156 4666 
L 531 -594 
L 0 -594 
L 1625 4666 
z
" transform="scale(0.015625)"/>
      <path id="DejaVuSans-66" d="M 2375 4863 
L 2375 4384 
L 1825 4384 
Q 1516 4384 1395 4259 
Q 1275 4134 1275 3809 
L 1275 3500 
L 2222 3500 
L 2222 3053 
L 1275 3053 
L 1275 0 
L 697 0 
L 697 3053 
L 147 3053 
L 147 3500 
L 697 3500 
L 697 3744 
Q 697 4328 969 4595 
Q 1241 4863 1831 4863 
L 2375 4863 
z
" transform="scale(0.015625)"/>
      <path id="DejaVuSans-7a" d="M 353 3500 
L 3084 3500 
L 3084 2975 
L 922 459 
L 3084 459 
L 3084 0 
L 275 0 
L 275 525 
L 2438 3041 
L 353 3041 
L 353 3500 
z
" transform="scale(0.015625)"/>
     </defs>
     <use xlink:href="#DejaVuSans-6c"/>
     <use xlink:href="#DejaVuSans-69" x="27.783203"/>
     <use xlink:href="#DejaVuSans-62" x="55.566406"/>
     <use xlink:href="#DejaVuSans-78" x="119.042969"/>
     <use xlink:href="#DejaVuSans-6d" x="178.222656"/>
     <use xlink:href="#DejaVuSans-6c" x="275.634766"/>
     <use xlink:href="#DejaVuSans-32" x="303.417969"/>
     <use xlink:href="#DejaVuSans-5f" x="367.041016"/>
     <use xlink:href="#DejaVuSans-78" x="417.041016"/>
     <use xlink:href="#DejaVuSans-6d" x="476.220703"/>
     <use xlink:href="#DejaVuSans-6c" x="573.632812"/>
     <use xlink:href="#DejaVuSans-20" x="601.416016"/>
     <use xlink:href="#DejaVuSans-28" x="633.203125"/>
     <use xlink:href="#DejaVuSans-32" x="672.216797"/>
     <use xlink:href="#DejaVuSans-34" x="735.839844"/>
     <use xlink:href="#DejaVuSans-68" x="799.462891"/>
     <use xlink:href="#DejaVuSans-2c" x="862.841797"/>
     <use xlink:href="#DejaVuSans-20" x="894.628906"/>
     <use xlink:href="#DejaVuSans-61" x="926.416016"/>
     <use xlink:href="#DejaVuSans-74" x="987.695312"/>
     <use xlink:href="#DejaVuSans-20" x="1026.904297"/>
     <use xlink:href="#DejaVuSans-6c" x="1058.691406"/>
     <use xlink:href="#DejaVuSans-65" x="1086.474609"/>
     <use xlink:href="#DejaVuSans-61" x="1147.998047"/>
     <use xlink:href="#DejaVuSans-73" x="1209.277344"/>
     <use xlink:href="#DejaVuSans-74" x="1261.376953"/>
     <use xlink:href="#DejaVuSans-20" x="1300.585938"/>
     <use xlink:href="#DejaVuSans-31" x="1332.373047"/>
     <use xlink:href="#DejaVuSans-30" x="1395.996094"/>
     <use xlink:href="#DejaVuSans-20" x="1459.619141"/>
     <use xlink:href="#DejaVuSans-74" x="1491.40625"/>
     <use xlink:href="#DejaVuSans-72" x="1530.615234"/>
     <use xlink:href="#DejaVuSans-69" x="1571.728516"/>
     <use xlink:href="#DejaVuSans-61" x="1599.511719"/>
     <use xlink:href="#DejaVuSans-6c" x="1660.791016"/>
     <use xlink:href="#DejaVuSans-73" x="1688.574219"/>
     <use xlink:href="#DejaVuSans-2f" x="1740.673828"/>
     <use xlink:href="#DejaVuSans-66" x="1774.365234"/>
     <use xlink:href="#DejaVuSans-75" x="1809.570312"/>
     <use xlink:href="#DejaVuSans-7a" x="1872.949219"/>
     <use xlink:href="#DejaVuSans-7a" x="1925.439453"/>
     <use xlink:href="#DejaVuSans-65" x="1977.929688"/>
     <use xlink:href="#DejaVuSans-72" x="2039.453125"/>
     <use xlink:href="#DejaVuSans-29" x="2080.566406"/>
    </g>
   </g>
   <g id="legend_1">
    <g id="line2d_26">
     <path d="M 777.930625 30.416562 
L 787.930625 30.416562 
L 797.930625 30.416562 
" style="fill: none; stroke: #1f77b4; stroke-width: 1.5; stroke-linecap: square"/>
     <defs>
      <path id="m612d67f48e" d="M 0 3 
C 0.795609 3 1.55874 2.683901 2.12132 2.12132 
C 2.683901 1.55874 3 0.795609 3 0 
C 3 -0.795609 2.683901 -1.55874 2.12132 -2.12132 
C 1.55874 -2.683901 0.795609 -3 0 -3 
C -0.795609 -3 -1.55874 -2.683901 -2.12132 -2.12132 
C -2.683901 -1.55874 -3 -0.795609 -3 0 
C -3 0.795609 -2.683901 1.55874 -2.12132 2.12132 
C -1.55874 2.683901 -0.795609 3 0 3 
z
" style="stroke: #1f77b4"/>
     </defs>
     <g>
      <use xlink:href="#m612d67f48e" x="787.930625" y="30.416562" style="fill: #1f77b4; stroke: #1f77b4"/>
     </g>
    </g>
    <g id="text_24">
     <!-- darwin -->
     <g transform="translate(805.930625 33.916562) scale(0.1 -0.1)">
      <defs>
       <path id="DejaVuSans-77" d="M 269 3500 
L 844 3500 
L 1563 769 
L 2278 3500 
L 2956 3500 
L 3675 769 
L 4391 3500 
L 4966 3500 
L 4050 0 
L 3372 0 
L 2619 2869 
L 1863 0 
L 1184 0 
L 269 3500 
z
" transform="scale(0.015625)"/>
      </defs>
      <use xlink:href="#DejaVuSans-64"/>
      <use xlink:href="#DejaVuSans-61" x="63.476562"/>
      <use xlink:href="#DejaVuSans-72" x="124.755859"/>
      <use xlink:href="#DejaVuSans-77" x="165.869141"/>
      <use xlink:href="#DejaVuSans-69" x="247.65625"/>
      <use xlink:href="#DejaVuSans-6e" x="275.439453"/>
     </g>
    </g>
    <g id="line2d_27">
     <path d="M 777.930625 45.094688 
L 787.930625 45.094688 
L 797.930625 45.094688 
" style="fill: none; stroke: #98df8a; stroke-width: 1.5; stroke-linecap: square"/>
     <defs>
      <path id="m24e6e0b5cb" d="M -0 3 
L 3 -3 
L -3 -3 
z
" style="stroke: #98df8a; stroke-linejoin: miter"/>
     </defs>
     <g>
      <use xlink:href="#m24e6e0b5cb" x="787.930625" y="45.094688" style="fill: #98df8a; stroke: #98df8a; stroke-linejoin: miter"/>
     </g>
    </g>
    <g id="text_25">
     <!-- darwin_no_pre_seed -->
     <g transform="translate(805.930625 48.594688) scale(0.1 -0.1)">
      <defs>
       <path id="DejaVuSans-70" d="M 1159 525 
L 1159 -1331 
L 581 -1331 
L 581 3500 
L 1159 3500 
L 1159 2969 
Q 1341 3281 1617 3432 
Q 1894 3584 2278 3584 
Q 2916 3584 3314 3078 
Q 3713 2572 3713 1747 
Q 3713 922 3314 415 
Q 2916 -91 2278 -91 
Q 1894 -91 1617 61 
Q 1341 213 1159 525 
z
M 3116 1747 
Q 3116 2381 2855 2742 
Q 2594 3103 2138 3103 
Q 1681 3103 1420 2742 
Q 1159 2381 1159 1747 
Q 1159 1113 1420 752 
Q 1681 391 2138 391 
Q 2594 391 2855 752 
Q 3116 1113 3116 1747 
z
" transform="scale(0.015625)"/>
      </defs>
      <use xlink:href="#DejaVuSans-64"/>
      <use xlink:href="#DejaVuSans-61" x="63.476562"/>
      <use xlink:href="#DejaVuSans-72" x="124.755859"/>
      <use xlink:href="#DejaVuSans-77" x="165.869141"/>
      <use xlink:href="#DejaVuSans-69" x="247.65625"/>
      <use xlink:href="#DejaVuSans-6e" x="275.439453"/>
      <use xlink:href="#DejaVuSans-5f" x="338.818359"/>
      <use xlink:href="#DejaVuSans-6e" x="388.818359"/>
      <use xlink:href="#DejaVuSans-6f" x="452.197266"/>
      <use xlink:href="#DejaVuSans-5f" x="513.378906"/>
      <use xlink:href="#DejaVuSans-70" x="563.378906"/>
      <use xlink:href="#DejaVuSans-72" x="626.855469"/>
      <use xlink:href="#DejaVuSans-65" x="665.71875"/>
      <use xlink:href="#DejaVuSans-5f" x="727.242188"/>
      <use xlink:href="#DejaVuSans-73" x="777.242188"/>
      <use xlink:href="#DejaVuSans-65" x="829.341797"/>
      <use xlink:href="#DejaVuSans-65" x="890.865234"/>
      <use xlink:href="#DejaVuSans-64" x="952.388672"/>
     </g>
    </g>
   </g>
  </g>
 </g>
 <defs>
  <clipPath id="p7de8ed1659">
   <rect x="59.690625" y="22.318125" width="714.24" height="266.112"/>
  </clipPath>
 </defs>
</svg>
