<?xml version="1.0" encoding="utf-8" standalone="no"?>
<!DOCTYPE svg PUBLIC "-//W3C//DTD SVG 1.1//EN"
  "http://www.w3.org/Graphics/SVG/1.1/DTD/svg11.dtd">
<svg xmlns:xlink="http://www.w3.org/1999/xlink" width="918.719687pt" height="325.986375pt" viewBox="0 0 918.719687 325.986375" xmlns="http://www.w3.org/2000/svg" version="1.1">
 <metadata>
  <rdf:RDF xmlns:dc="http://purl.org/dc/elements/1.1/" xmlns:cc="http://creativecommons.org/ns#" xmlns:rdf="http://www.w3.org/1999/02/22-rdf-syntax-ns#">
   <cc:Work>
    <dc:type rdf:resource="http://purl.org/dc/dcmitype/StillImage"/>
    <dc:date>2023-08-02T15:42:57.244135</dc:date>
    <dc:format>image/svg+xml</dc:format>
    <dc:creator>
     <cc:Agent>
      <dc:title>Matplotlib v3.7.1, https://matplotlib.org/</dc:title>
     </cc:Agent>
    </dc:creator>
   </cc:Work>
  </rdf:RDF>
 </metadata>
 <defs>
  <style type="text/css">*{stroke-linejoin: round; stroke-linecap: butt}</style>
 </defs>
 <g id="figure_1">
  <g id="patch_1">
   <path d="M 0 325.986375 
L 918.719687 325.986375 
L 918.719687 0 
L 0 0 
z
" style="fill: #ffffff"/>
  </g>
  <g id="axes_1">
   <g id="patch_2">
    <path d="M 59.690625 288.430125 
L 773.930625 288.430125 
L 773.930625 22.318125 
L 59.690625 22.318125 
z
" style="fill: #ffffff"/>
   </g>
   <g id="PolyCollection_1">
    <defs>
     <path id="m40846dca2d" d="M 59.690625 -49.65225 
L 59.690625 -49.65225 
L 66.776339 -182.989883 
L 73.862054 -190.373862 
L 80.947768 -196.243179 
L 88.033482 -199.272504 
L 95.119196 -202.585829 
L 102.204911 -205.047155 
L 109.290625 -205.023489 
L 116.376339 -209.591143 
L 123.462054 -210.411782 
L 130.547768 -208.857478 
L 137.633482 -213.614465 
L 144.719196 -214.27713 
L 151.804911 -216.407124 
L 158.890625 -216.596457 
L 165.976339 -241.777721 
L 173.062054 -242.109053 
L 180.147768 -263.361661 
L 187.233482 -264.335542 
L 194.319196 -265.491655 
L 201.404911 -268.44998 
L 208.490625 -269.964051 
L 215.576339 -270.907757 
L 222.662054 -270.532641 
L 229.747768 -271.715971 
L 236.833482 -271.928971 
L 243.919196 -272.814102 
L 251.004911 -272.970301 
L 258.090625 -273.632966 
L 265.176339 -274.390297 
L 272.262054 -274.958296 
L 279.347768 -275.573627 
L 286.433482 -275.90496 
L 293.519196 -276.236292 
L 300.604911 -276.851624 
L 307.690625 -277.277623 
L 314.776339 -277.845621 
L 321.862054 -277.490622 
L 328.947768 -277.845621 
L 336.033482 -278.460953 
L 343.119196 -278.686969 
L 350.204911 -278.744952 
L 357.290625 -279.028951 
L 364.376339 -279.170951 
L 371.462054 -279.738949 
L 378.547768 -280.046615 
L 385.633482 -280.18684 
L 392.719196 -280.63828 
L 399.804911 -280.874946 
L 406.890625 -280.874946 
L 413.976339 -281.016946 
L 421.062054 -281.206279 
L 428.147768 -281.490278 
L 435.233482 -281.490278 
L 442.319196 -281.490278 
L 449.404911 -281.537611 
L 456.490625 -281.632277 
L 463.576339 -281.82161 
L 470.662054 -281.82161 
L 477.747768 -282.152943 
L 484.833482 -282.294942 
L 491.919196 -282.484275 
L 499.004911 -282.531608 
L 506.090625 -282.531608 
L 513.176339 -282.531608 
L 520.262054 -282.531608 
L 527.347768 -282.626275 
L 534.433482 -282.910274 
L 541.519196 -282.910274 
L 548.604911 -283.00494 
L 555.690625 -283.241606 
L 562.776339 -283.478272 
L 569.862054 -283.762272 
L 576.947768 -283.951604 
L 584.033482 -283.993613 
L 591.119196 -284.046271 
L 598.204911 -284.235604 
L 605.290625 -284.235604 
L 612.376339 -284.164604 
L 619.462054 -284.282937 
L 626.547768 -284.756269 
L 633.633482 -285.750266 
L 640.719196 -285.3716 
L 647.804911 -285.608266 
L 654.890625 -286.294598 
L 661.976339 -286.492806 
L 669.062054 -286.247265 
L 676.147768 -286.247265 
L 683.233482 -286.057932 
L 690.319196 -286.294598 
L 697.404911 -286.365598 
L 704.490625 -286.744263 
L 711.576339 -286.744263 
L 718.662054 -286.791597 
L 725.747768 -286.791597 
L 732.833482 -286.791597 
L 739.919196 -286.791597 
L 739.919196 -291.359251 
L 739.919196 -291.359251 
L 732.833482 -290.672919 
L 725.747768 -291.311917 
L 718.662054 -291.075251 
L 711.576339 -291.004252 
L 704.490625 -290.53092 
L 697.404911 -290.38892 
L 690.319196 -290.38892 
L 683.233482 -290.791252 
L 676.147768 -290.767586 
L 669.062054 -290.625586 
L 661.976339 -290.578253 
L 654.890625 -290.010254 
L 647.804911 -290.010254 
L 640.719196 -290.010254 
L 633.633482 -290.507253 
L 626.547768 -289.702588 
L 619.462054 -289.702588 
L 612.376339 -288.874257 
L 605.290625 -289.655255 
L 598.204911 -289.20559 
L 591.119196 -289.418589 
L 584.033482 -289.023357 
L 576.947768 -288.826924 
L 569.862054 -288.880766 
L 562.776339 -287.88026 
L 555.690625 -288.09326 
L 548.604911 -288.069593 
L 541.519196 -288.424592 
L 534.433482 -287.691519 
L 527.347768 -288.377259 
L 520.262054 -287.122929 
L 513.176339 -287.974927 
L 506.090625 -287.903927 
L 499.004911 -287.028263 
L 491.919196 -286.791597 
L 484.833482 -287.580878 
L 477.747768 -287.430595 
L 470.662054 -286.531264 
L 463.576339 -287.335928 
L 456.490625 -286.034265 
L 449.404911 -287.264929 
L 442.319196 -287.146596 
L 435.233482 -287.099262 
L 428.147768 -286.507597 
L 421.062054 -285.963265 
L 413.976339 -285.134934 
L 406.890625 -286.223598 
L 399.804911 -286.034265 
L 392.719196 -285.797599 
L 385.633482 -285.679266 
L 378.547768 -285.4426 
L 371.462054 -285.253267 
L 364.376339 -284.945602 
L 357.290625 -284.571669 
L 350.204911 -283.856938 
L 343.119196 -283.691272 
L 336.033482 -283.596605 
L 328.947768 -281.774277 
L 321.862054 -282.41505 
L 314.776339 -282.136968 
L 307.690625 -281.89261 
L 300.604911 -281.378453 
L 293.519196 -280.130632 
L 286.433482 -280.661947 
L 279.347768 -280.377948 
L 272.262054 -279.975615 
L 265.176339 -279.837757 
L 258.090625 -279.241951 
L 251.004911 -279.218284 
L 243.919196 -279.194617 
L 236.833482 -276.520291 
L 229.747768 -278.011287 
L 222.662054 -276.496625 
L 215.576339 -276.614958 
L 208.490625 -275.786627 
L 201.404911 -275.336961 
L 194.319196 -273.041301 
L 187.233482 -272.04257 
L 180.147768 -273.372633 
L 173.062054 -271.644972 
L 165.976339 -271.905304 
L 158.890625 -270.295975 
L 151.804911 -269.798977 
L 144.719196 -269.514977 
L 137.633482 -269.514977 
L 130.547768 -269.372978 
L 123.462054 -268.615647 
L 116.376339 -264.172242 
L 109.290625 -262.414997 
L 102.204911 -259.646005 
L 95.119196 -256.593013 
L 88.033482 -254.983684 
L 80.947768 -249.665207 
L 73.862054 -247.017506 
L 66.776339 -241.825054 
L 59.690625 -49.65225 
z
" style="stroke: #1f77b4; stroke-opacity: 0.2"/>
    </defs>
    <g clip-path="url(#pd21797bc0a)">
     <use xlink:href="#m40846dca2d" x="0" y="325.986375" style="fill: #1f77b4; fill-opacity: 0.2; stroke: #1f77b4; stroke-opacity: 0.2"/>
    </g>
   </g>
   <g id="PolyCollection_2">
    <defs>
     <path id="mb391567e18" d="M 59.690625 -49.65225 
L 59.690625 -49.65225 
L 66.776339 -184.362545 
L 73.862054 -194.231518 
L 80.947768 -197.852508 
L 88.033482 -200.632151 
L 95.119196 -203.958491 
L 102.204911 -224.974434 
L 109.290625 -225.471432 
L 116.376339 -227.009761 
L 123.462054 -247.197372 
L 130.547768 -253.421688 
L 137.633482 -258.581008 
L 144.719196 -256.971679 
L 151.804911 -260.285003 
L 158.890625 -260.521669 
L 165.976339 -261.042334 
L 173.062054 -261.823332 
L 180.147768 -262.178331 
L 187.233482 -264.544991 
L 194.319196 -265.11299 
L 201.404911 -262.320331 
L 208.490625 -266.248986 
L 215.576339 -264.379325 
L 222.662054 -267.288542 
L 229.747768 -266.035987 
L 236.833482 -266.485652 
L 243.919196 -267.40865 
L 251.004911 -267.077318 
L 258.090625 -268.047648 
L 265.176339 -268.047648 
L 272.262054 -268.189648 
L 279.347768 -268.189648 
L 286.433482 -268.189648 
L 293.519196 -269.893643 
L 300.604911 -269.988309 
L 307.690625 -270.035643 
L 314.776339 -268.213314 
L 321.862054 -270.224975 
L 328.947768 -270.461642 
L 336.033482 -268.52098 
L 343.119196 -270.508975 
L 350.204911 -270.508975 
L 357.290625 -270.88764 
L 364.376339 -271.692305 
L 371.462054 -271.834304 
L 378.547768 -271.834304 
L 385.633482 -272.780968 
L 392.719196 -272.780968 
L 399.804911 -271.597638 
L 406.890625 -273.064968 
L 413.976339 -273.3963 
L 421.062054 -273.443633 
L 428.147768 -274.106298 
L 435.233482 -274.626963 
L 442.319196 -274.708613 
L 449.404911 -275.052962 
L 456.490625 -275.336961 
L 463.576339 -275.336961 
L 470.662054 -275.573627 
L 477.747768 -275.620961 
L 484.833482 -275.620961 
L 491.919196 -276.046959 
L 499.004911 -276.046959 
L 506.090625 -276.141626 
L 513.176339 -276.236292 
L 520.262054 -276.472958 
L 527.347768 -276.614958 
L 534.433482 -276.614958 
L 541.519196 -276.614958 
L 548.604911 -276.662291 
L 555.690625 -277.703622 
L 562.776339 -277.372289 
L 569.862054 -277.845621 
L 576.947768 -278.34972 
L 584.033482 -278.460953 
L 591.119196 -278.460953 
L 598.204911 -278.508286 
L 605.290625 -278.724244 
L 612.376339 -278.839618 
L 619.462054 -278.886952 
L 626.547768 -279.45495 
L 633.633482 -280.685613 
L 640.719196 -281.442945 
L 647.804911 -281.584944 
L 654.890625 -281.774277 
L 661.976339 -281.774277 
L 669.062054 -281.774277 
L 676.147768 -281.96361 
L 683.233482 -282.010943 
L 690.319196 -282.010943 
L 697.404911 -282.768274 
L 704.490625 -283.170606 
L 711.576339 -282.862941 
L 718.662054 -283.454606 
L 725.747768 -283.194273 
L 732.833482 -283.951604 
L 739.919196 -284.093604 
L 739.919196 -290.625586 
L 739.919196 -290.625586 
L 732.833482 -290.625586 
L 725.747768 -290.601919 
L 718.662054 -290.578253 
L 711.576339 -291.57225 
L 704.490625 -290.53092 
L 697.404911 -290.275912 
L 690.319196 -288.542925 
L 683.233482 -290.31792 
L 676.147768 -288.448259 
L 669.062054 -290.294254 
L 661.976339 -290.294254 
L 654.890625 -291.264584 
L 647.804911 -290.057588 
L 640.719196 -288.116926 
L 633.633482 -289.799622 
L 626.547768 -289.729213 
L 619.462054 -289.425689 
L 612.376339 -289.797255 
L 605.290625 -289.560589 
L 598.204911 -289.489589 
L 591.119196 -287.406928 
L 584.033482 -288.860057 
L 576.947768 -288.495592 
L 569.862054 -288.519258 
L 562.776339 -288.258926 
L 555.690625 -287.264929 
L 548.604911 -287.099262 
L 541.519196 -287.028263 
L 534.433482 -286.69693 
L 527.347768 -286.957263 
L 520.262054 -286.69693 
L 513.176339 -286.69693 
L 506.090625 -286.722963 
L 499.004911 -286.649597 
L 491.919196 -285.986932 
L 484.833482 -286.176265 
L 477.747768 -286.341931 
L 470.662054 -286.034265 
L 463.576339 -286.128932 
L 456.490625 -285.608266 
L 449.404911 -285.849666 
L 442.319196 -285.608266 
L 435.233482 -285.608266 
L 428.147768 -285.466267 
L 421.062054 -286.578597 
L 413.976339 -286.460264 
L 406.890625 -285.158601 
L 399.804911 -285.111268 
L 392.719196 -283.691863 
L 385.633482 -284.827269 
L 378.547768 -284.495936 
L 371.462054 -284.33027 
L 364.376339 -284.33027 
L 357.290625 -283.611397 
L 350.204911 -281.158945 
L 343.119196 -283.977638 
L 336.033482 -283.859305 
L 328.947768 -283.714938 
L 321.862054 -283.265273 
L 314.776339 -283.21794 
L 307.690625 -283.028607 
L 300.604911 -282.768274 
L 293.519196 -280.324106 
L 286.433482 -282.791941 
L 279.347768 -280.732947 
L 272.262054 -280.543614 
L 265.176339 -280.874946 
L 258.090625 -280.153706 
L 251.004911 -279.407617 
L 243.919196 -280.448947 
L 236.833482 -278.508286 
L 229.747768 -278.34972 
L 222.662054 -278.295287 
L 215.576339 -277.826688 
L 208.490625 -277.15929 
L 201.404911 -276.685958 
L 194.319196 -275.90496 
L 187.233482 -274.177298 
L 180.147768 -273.2543 
L 173.062054 -272.875635 
L 165.976339 -271.597638 
L 158.890625 -270.485308 
L 151.804911 -269.84631 
L 144.719196 -269.136312 
L 137.633482 -267.881982 
L 130.547768 -267.47965 
L 123.462054 -265.633655 
L 116.376339 -265.089323 
L 109.290625 -263.219661 
L 102.204911 -260.474336 
L 95.119196 -255.267683 
L 88.033482 -250.629029 
L 80.947768 -245.990376 
L 73.862054 -240.59439 
L 66.776339 -230.039086 
L 59.690625 -49.65225 
z
" style="stroke: #98df8a; stroke-opacity: 0.2"/>
    </defs>
    <g clip-path="url(#pd21797bc0a)">
     <use xlink:href="#mb391567e18" x="0" y="325.986375" style="fill: #98df8a; fill-opacity: 0.2; stroke: #98df8a; stroke-opacity: 0.2"/>
    </g>
   </g>
   <g id="matplotlib.axis_1">
    <g id="xtick_1">
     <g id="line2d_1">
      <defs>
       <path id="m209a8e7325" d="M 0 0 
L 0 3.5 
" style="stroke: #000000; stroke-width: 0.8"/>
      </defs>
      <g>
       <use xlink:href="#m209a8e7325" x="59.690625" y="288.430125" style="stroke: #000000; stroke-width: 0.8"/>
      </g>
     </g>
     <g id="text_1">
      <!-- 0m -->
      <g transform="translate(51.639063 303.028562) scale(0.1 -0.1)">
       <defs>
        <path id="DejaVuSans-30" d="M 2034 4250 
Q 1547 4250 1301 3770 
Q 1056 3291 1056 2328 
Q 1056 1369 1301 889 
Q 1547 409 2034 409 
Q 2525 409 2770 889 
Q 3016 1369 3016 2328 
Q 3016 3291 2770 3770 
Q 2525 4250 2034 4250 
z
M 2034 4750 
Q 2819 4750 3233 4129 
Q 3647 3509 3647 2328 
Q 3647 1150 3233 529 
Q 2819 -91 2034 -91 
Q 1250 -91 836 529 
Q 422 1150 422 2328 
Q 422 3509 836 4129 
Q 1250 4750 2034 4750 
z
" transform="scale(0.015625)"/>
        <path id="DejaVuSans-6d" d="M 3328 2828 
Q 3544 3216 3844 3400 
Q 4144 3584 4550 3584 
Q 5097 3584 5394 3201 
Q 5691 2819 5691 2113 
L 5691 0 
L 5113 0 
L 5113 2094 
Q 5113 2597 4934 2840 
Q 4756 3084 4391 3084 
Q 3944 3084 3684 2787 
Q 3425 2491 3425 1978 
L 3425 0 
L 2847 0 
L 2847 2094 
Q 2847 2600 2669 2842 
Q 2491 3084 2119 3084 
Q 1678 3084 1418 2786 
Q 1159 2488 1159 1978 
L 1159 0 
L 581 0 
L 581 3500 
L 1159 3500 
L 1159 2956 
Q 1356 3278 1631 3431 
Q 1906 3584 2284 3584 
Q 2666 3584 2933 3390 
Q 3200 3197 3328 2828 
z
" transform="scale(0.015625)"/>
       </defs>
       <use xlink:href="#DejaVuSans-30"/>
       <use xlink:href="#DejaVuSans-6d" x="63.623047"/>
      </g>
     </g>
    </g>
    <g id="xtick_2">
     <g id="line2d_2">
      <g>
       <use xlink:href="#m209a8e7325" x="116.376339" y="288.430125" style="stroke: #000000; stroke-width: 0.8"/>
      </g>
     </g>
     <g id="text_2">
      <!-- 2h -->
      <g transform="translate(110.026339 303.028562) scale(0.1 -0.1)">
       <defs>
        <path id="DejaVuSans-32" d="M 1228 531 
L 3431 531 
L 3431 0 
L 469 0 
L 469 531 
Q 828 903 1448 1529 
Q 2069 2156 2228 2338 
Q 2531 2678 2651 2914 
Q 2772 3150 2772 3378 
Q 2772 3750 2511 3984 
Q 2250 4219 1831 4219 
Q 1534 4219 1204 4116 
Q 875 4013 500 3803 
L 500 4441 
Q 881 4594 1212 4672 
Q 1544 4750 1819 4750 
Q 2544 4750 2975 4387 
Q 3406 4025 3406 3419 
Q 3406 3131 3298 2873 
Q 3191 2616 2906 2266 
Q 2828 2175 2409 1742 
Q 1991 1309 1228 531 
z
" transform="scale(0.015625)"/>
        <path id="DejaVuSans-68" d="M 3513 2113 
L 3513 0 
L 2938 0 
L 2938 2094 
Q 2938 2591 2744 2837 
Q 2550 3084 2163 3084 
Q 1697 3084 1428 2787 
Q 1159 2491 1159 1978 
L 1159 0 
L 581 0 
L 581 4863 
L 1159 4863 
L 1159 2956 
Q 1366 3272 1645 3428 
Q 1925 3584 2291 3584 
Q 2894 3584 3203 3211 
Q 3513 2838 3513 2113 
z
" transform="scale(0.015625)"/>
       </defs>
       <use xlink:href="#DejaVuSans-32"/>
       <use xlink:href="#DejaVuSans-68" x="63.623047"/>
      </g>
     </g>
    </g>
    <g id="xtick_3">
     <g id="line2d_3">
      <g>
       <use xlink:href="#m209a8e7325" x="173.062054" y="288.430125" style="stroke: #000000; stroke-width: 0.8"/>
      </g>
     </g>
     <g id="text_3">
      <!-- 4h -->
      <g transform="translate(166.712054 303.028562) scale(0.1 -0.1)">
       <defs>
        <path id="DejaVuSans-34" d="M 2419 4116 
L 825 1625 
L 2419 1625 
L 2419 4116 
z
M 2253 4666 
L 3047 4666 
L 3047 1625 
L 3713 1625 
L 3713 1100 
L 3047 1100 
L 3047 0 
L 2419 0 
L 2419 1100 
L 313 1100 
L 313 1709 
L 2253 4666 
z
" transform="scale(0.015625)"/>
       </defs>
       <use xlink:href="#DejaVuSans-34"/>
       <use xlink:href="#DejaVuSans-68" x="63.623047"/>
      </g>
     </g>
    </g>
    <g id="xtick_4">
     <g id="line2d_4">
      <g>
       <use xlink:href="#m209a8e7325" x="229.747768" y="288.430125" style="stroke: #000000; stroke-width: 0.8"/>
      </g>
     </g>
     <g id="text_4">
      <!-- 6h -->
      <g transform="translate(223.397768 303.028562) scale(0.1 -0.1)">
       <defs>
        <path id="DejaVuSans-36" d="M 2113 2584 
Q 1688 2584 1439 2293 
Q 1191 2003 1191 1497 
Q 1191 994 1439 701 
Q 1688 409 2113 409 
Q 2538 409 2786 701 
Q 3034 994 3034 1497 
Q 3034 2003 2786 2293 
Q 2538 2584 2113 2584 
z
M 3366 4563 
L 3366 3988 
Q 3128 4100 2886 4159 
Q 2644 4219 2406 4219 
Q 1781 4219 1451 3797 
Q 1122 3375 1075 2522 
Q 1259 2794 1537 2939 
Q 1816 3084 2150 3084 
Q 2853 3084 3261 2657 
Q 3669 2231 3669 1497 
Q 3669 778 3244 343 
Q 2819 -91 2113 -91 
Q 1303 -91 875 529 
Q 447 1150 447 2328 
Q 447 3434 972 4092 
Q 1497 4750 2381 4750 
Q 2619 4750 2861 4703 
Q 3103 4656 3366 4563 
z
" transform="scale(0.015625)"/>
       </defs>
       <use xlink:href="#DejaVuSans-36"/>
       <use xlink:href="#DejaVuSans-68" x="63.623047"/>
      </g>
     </g>
    </g>
    <g id="xtick_5">
     <g id="line2d_5">
      <g>
       <use xlink:href="#m209a8e7325" x="286.433482" y="288.430125" style="stroke: #000000; stroke-width: 0.8"/>
      </g>
     </g>
     <g id="text_5">
      <!-- 8h -->
      <g transform="translate(280.083482 303.028562) scale(0.1 -0.1)">
       <defs>
        <path id="DejaVuSans-38" d="M 2034 2216 
Q 1584 2216 1326 1975 
Q 1069 1734 1069 1313 
Q 1069 891 1326 650 
Q 1584 409 2034 409 
Q 2484 409 2743 651 
Q 3003 894 3003 1313 
Q 3003 1734 2745 1975 
Q 2488 2216 2034 2216 
z
M 1403 2484 
Q 997 2584 770 2862 
Q 544 3141 544 3541 
Q 544 4100 942 4425 
Q 1341 4750 2034 4750 
Q 2731 4750 3128 4425 
Q 3525 4100 3525 3541 
Q 3525 3141 3298 2862 
Q 3072 2584 2669 2484 
Q 3125 2378 3379 2068 
Q 3634 1759 3634 1313 
Q 3634 634 3220 271 
Q 2806 -91 2034 -91 
Q 1263 -91 848 271 
Q 434 634 434 1313 
Q 434 1759 690 2068 
Q 947 2378 1403 2484 
z
M 1172 3481 
Q 1172 3119 1398 2916 
Q 1625 2713 2034 2713 
Q 2441 2713 2670 2916 
Q 2900 3119 2900 3481 
Q 2900 3844 2670 4047 
Q 2441 4250 2034 4250 
Q 1625 4250 1398 4047 
Q 1172 3844 1172 3481 
z
" transform="scale(0.015625)"/>
       </defs>
       <use xlink:href="#DejaVuSans-38"/>
       <use xlink:href="#DejaVuSans-68" x="63.623047"/>
      </g>
     </g>
    </g>
    <g id="xtick_6">
     <g id="line2d_6">
      <g>
       <use xlink:href="#m209a8e7325" x="343.119196" y="288.430125" style="stroke: #000000; stroke-width: 0.8"/>
      </g>
     </g>
     <g id="text_6">
      <!-- 10h -->
      <g transform="translate(333.587946 303.028562) scale(0.1 -0.1)">
       <defs>
        <path id="DejaVuSans-31" d="M 794 531 
L 1825 531 
L 1825 4091 
L 703 3866 
L 703 4441 
L 1819 4666 
L 2450 4666 
L 2450 531 
L 3481 531 
L 3481 0 
L 794 0 
L 794 531 
z
" transform="scale(0.015625)"/>
       </defs>
       <use xlink:href="#DejaVuSans-31"/>
       <use xlink:href="#DejaVuSans-30" x="63.623047"/>
       <use xlink:href="#DejaVuSans-68" x="127.246094"/>
      </g>
     </g>
    </g>
    <g id="xtick_7">
     <g id="line2d_7">
      <g>
       <use xlink:href="#m209a8e7325" x="399.804911" y="288.430125" style="stroke: #000000; stroke-width: 0.8"/>
      </g>
     </g>
     <g id="text_7">
      <!-- 12h -->
      <g transform="translate(390.273661 303.028562) scale(0.1 -0.1)">
       <use xlink:href="#DejaVuSans-31"/>
       <use xlink:href="#DejaVuSans-32" x="63.623047"/>
       <use xlink:href="#DejaVuSans-68" x="127.246094"/>
      </g>
     </g>
    </g>
    <g id="xtick_8">
     <g id="line2d_8">
      <g>
       <use xlink:href="#m209a8e7325" x="456.490625" y="288.430125" style="stroke: #000000; stroke-width: 0.8"/>
      </g>
     </g>
     <g id="text_8">
      <!-- 14h -->
      <g transform="translate(446.959375 303.028562) scale(0.1 -0.1)">
       <use xlink:href="#DejaVuSans-31"/>
       <use xlink:href="#DejaVuSans-34" x="63.623047"/>
       <use xlink:href="#DejaVuSans-68" x="127.246094"/>
      </g>
     </g>
    </g>
    <g id="xtick_9">
     <g id="line2d_9">
      <g>
       <use xlink:href="#m209a8e7325" x="513.176339" y="288.430125" style="stroke: #000000; stroke-width: 0.8"/>
      </g>
     </g>
     <g id="text_9">
      <!-- 16h -->
      <g transform="translate(503.645089 303.028562) scale(0.1 -0.1)">
       <use xlink:href="#DejaVuSans-31"/>
       <use xlink:href="#DejaVuSans-36" x="63.623047"/>
       <use xlink:href="#DejaVuSans-68" x="127.246094"/>
      </g>
     </g>
    </g>
    <g id="xtick_10">
     <g id="line2d_10">
      <g>
       <use xlink:href="#m209a8e7325" x="569.862054" y="288.430125" style="stroke: #000000; stroke-width: 0.8"/>
      </g>
     </g>
     <g id="text_10">
      <!-- 18h -->
      <g transform="translate(560.330804 303.028562) scale(0.1 -0.1)">
       <use xlink:href="#DejaVuSans-31"/>
       <use xlink:href="#DejaVuSans-38" x="63.623047"/>
       <use xlink:href="#DejaVuSans-68" x="127.246094"/>
      </g>
     </g>
    </g>
    <g id="xtick_11">
     <g id="line2d_11">
      <g>
       <use xlink:href="#m209a8e7325" x="626.547768" y="288.430125" style="stroke: #000000; stroke-width: 0.8"/>
      </g>
     </g>
     <g id="text_11">
      <!-- 20h -->
      <g transform="translate(617.016518 303.028562) scale(0.1 -0.1)">
       <use xlink:href="#DejaVuSans-32"/>
       <use xlink:href="#DejaVuSans-30" x="63.623047"/>
       <use xlink:href="#DejaVuSans-68" x="127.246094"/>
      </g>
     </g>
    </g>
    <g id="xtick_12">
     <g id="line2d_12">
      <g>
       <use xlink:href="#m209a8e7325" x="683.233482" y="288.430125" style="stroke: #000000; stroke-width: 0.8"/>
      </g>
     </g>
     <g id="text_12">
      <!-- 22h -->
      <g transform="translate(673.702232 303.028562) scale(0.1 -0.1)">
       <use xlink:href="#DejaVuSans-32"/>
       <use xlink:href="#DejaVuSans-32" x="63.623047"/>
       <use xlink:href="#DejaVuSans-68" x="127.246094"/>
      </g>
     </g>
    </g>
    <g id="xtick_13">
     <g id="line2d_13">
      <g>
       <use xlink:href="#m209a8e7325" x="739.919196" y="288.430125" style="stroke: #000000; stroke-width: 0.8"/>
      </g>
     </g>
     <g id="text_13">
      <!-- 24h -->
      <g transform="translate(730.387946 303.028562) scale(0.1 -0.1)">
       <use xlink:href="#DejaVuSans-32"/>
       <use xlink:href="#DejaVuSans-34" x="63.623047"/>
       <use xlink:href="#DejaVuSans-68" x="127.246094"/>
      </g>
     </g>
    </g>
    <g id="text_14">
     <!-- Time (hour:minute) -->
     <g transform="translate(368.403594 316.706687) scale(0.1 -0.1)">
      <defs>
       <path id="DejaVuSans-54" d="M -19 4666 
L 3928 4666 
L 3928 4134 
L 2272 4134 
L 2272 0 
L 1638 0 
L 1638 4134 
L -19 4134 
L -19 4666 
z
" transform="scale(0.015625)"/>
       <path id="DejaVuSans-69" d="M 603 3500 
L 1178 3500 
L 1178 0 
L 603 0 
L 603 3500 
z
M 603 4863 
L 1178 4863 
L 1178 4134 
L 603 4134 
L 603 4863 
z
" transform="scale(0.015625)"/>
       <path id="DejaVuSans-65" d="M 3597 1894 
L 3597 1613 
L 953 1613 
Q 991 1019 1311 708 
Q 1631 397 2203 397 
Q 2534 397 2845 478 
Q 3156 559 3463 722 
L 3463 178 
Q 3153 47 2828 -22 
Q 2503 -91 2169 -91 
Q 1331 -91 842 396 
Q 353 884 353 1716 
Q 353 2575 817 3079 
Q 1281 3584 2069 3584 
Q 2775 3584 3186 3129 
Q 3597 2675 3597 1894 
z
M 3022 2063 
Q 3016 2534 2758 2815 
Q 2500 3097 2075 3097 
Q 1594 3097 1305 2825 
Q 1016 2553 972 2059 
L 3022 2063 
z
" transform="scale(0.015625)"/>
       <path id="DejaVuSans-20" transform="scale(0.015625)"/>
       <path id="DejaVuSans-28" d="M 1984 4856 
Q 1566 4138 1362 3434 
Q 1159 2731 1159 2009 
Q 1159 1288 1364 580 
Q 1569 -128 1984 -844 
L 1484 -844 
Q 1016 -109 783 600 
Q 550 1309 550 2009 
Q 550 2706 781 3412 
Q 1013 4119 1484 4856 
L 1984 4856 
z
" transform="scale(0.015625)"/>
       <path id="DejaVuSans-6f" d="M 1959 3097 
Q 1497 3097 1228 2736 
Q 959 2375 959 1747 
Q 959 1119 1226 758 
Q 1494 397 1959 397 
Q 2419 397 2687 759 
Q 2956 1122 2956 1747 
Q 2956 2369 2687 2733 
Q 2419 3097 1959 3097 
z
M 1959 3584 
Q 2709 3584 3137 3096 
Q 3566 2609 3566 1747 
Q 3566 888 3137 398 
Q 2709 -91 1959 -91 
Q 1206 -91 779 398 
Q 353 888 353 1747 
Q 353 2609 779 3096 
Q 1206 3584 1959 3584 
z
" transform="scale(0.015625)"/>
       <path id="DejaVuSans-75" d="M 544 1381 
L 544 3500 
L 1119 3500 
L 1119 1403 
Q 1119 906 1312 657 
Q 1506 409 1894 409 
Q 2359 409 2629 706 
Q 2900 1003 2900 1516 
L 2900 3500 
L 3475 3500 
L 3475 0 
L 2900 0 
L 2900 538 
Q 2691 219 2414 64 
Q 2138 -91 1772 -91 
Q 1169 -91 856 284 
Q 544 659 544 1381 
z
M 1991 3584 
L 1991 3584 
z
" transform="scale(0.015625)"/>
       <path id="DejaVuSans-72" d="M 2631 2963 
Q 2534 3019 2420 3045 
Q 2306 3072 2169 3072 
Q 1681 3072 1420 2755 
Q 1159 2438 1159 1844 
L 1159 0 
L 581 0 
L 581 3500 
L 1159 3500 
L 1159 2956 
Q 1341 3275 1631 3429 
Q 1922 3584 2338 3584 
Q 2397 3584 2469 3576 
Q 2541 3569 2628 3553 
L 2631 2963 
z
" transform="scale(0.015625)"/>
       <path id="DejaVuSans-3a" d="M 750 794 
L 1409 794 
L 1409 0 
L 750 0 
L 750 794 
z
M 750 3309 
L 1409 3309 
L 1409 2516 
L 750 2516 
L 750 3309 
z
" transform="scale(0.015625)"/>
       <path id="DejaVuSans-6e" d="M 3513 2113 
L 3513 0 
L 2938 0 
L 2938 2094 
Q 2938 2591 2744 2837 
Q 2550 3084 2163 3084 
Q 1697 3084 1428 2787 
Q 1159 2491 1159 1978 
L 1159 0 
L 581 0 
L 581 3500 
L 1159 3500 
L 1159 2956 
Q 1366 3272 1645 3428 
Q 1925 3584 2291 3584 
Q 2894 3584 3203 3211 
Q 3513 2838 3513 2113 
z
" transform="scale(0.015625)"/>
       <path id="DejaVuSans-74" d="M 1172 4494 
L 1172 3500 
L 2356 3500 
L 2356 3053 
L 1172 3053 
L 1172 1153 
Q 1172 725 1289 603 
Q 1406 481 1766 481 
L 2356 481 
L 2356 0 
L 1766 0 
Q 1100 0 847 248 
Q 594 497 594 1153 
L 594 3053 
L 172 3053 
L 172 3500 
L 594 3500 
L 594 4494 
L 1172 4494 
z
" transform="scale(0.015625)"/>
       <path id="DejaVuSans-29" d="M 513 4856 
L 1013 4856 
Q 1481 4119 1714 3412 
Q 1947 2706 1947 2009 
Q 1947 1309 1714 600 
Q 1481 -109 1013 -844 
L 513 -844 
Q 928 -128 1133 580 
Q 1338 1288 1338 2009 
Q 1338 2731 1133 3434 
Q 928 4138 513 4856 
z
" transform="scale(0.015625)"/>
      </defs>
      <use xlink:href="#DejaVuSans-54"/>
      <use xlink:href="#DejaVuSans-69" x="57.958984"/>
      <use xlink:href="#DejaVuSans-6d" x="85.742188"/>
      <use xlink:href="#DejaVuSans-65" x="183.154297"/>
      <use xlink:href="#DejaVuSans-20" x="244.677734"/>
      <use xlink:href="#DejaVuSans-28" x="276.464844"/>
      <use xlink:href="#DejaVuSans-68" x="315.478516"/>
      <use xlink:href="#DejaVuSans-6f" x="378.857422"/>
      <use xlink:href="#DejaVuSans-75" x="440.039062"/>
      <use xlink:href="#DejaVuSans-72" x="503.417969"/>
      <use xlink:href="#DejaVuSans-3a" x="542.78125"/>
      <use xlink:href="#DejaVuSans-6d" x="576.472656"/>
      <use xlink:href="#DejaVuSans-69" x="673.884766"/>
      <use xlink:href="#DejaVuSans-6e" x="701.667969"/>
      <use xlink:href="#DejaVuSans-75" x="765.046875"/>
      <use xlink:href="#DejaVuSans-74" x="828.425781"/>
      <use xlink:href="#DejaVuSans-65" x="867.634766"/>
      <use xlink:href="#DejaVuSans-29" x="929.158203"/>
     </g>
    </g>
   </g>
   <g id="matplotlib.axis_2">
    <g id="ytick_1">
     <g id="line2d_14">
      <defs>
       <path id="mbb56a96935" d="M 0 0 
L -3.5 0 
" style="stroke: #000000; stroke-width: 0.8"/>
      </defs>
      <g>
       <use xlink:href="#mbb56a96935" x="59.690625" y="259.720171" style="stroke: #000000; stroke-width: 0.8"/>
      </g>
     </g>
     <g id="text_15">
      <!-- 6000 -->
      <g transform="translate(27.240625 263.51939) scale(0.1 -0.1)">
       <use xlink:href="#DejaVuSans-36"/>
       <use xlink:href="#DejaVuSans-30" x="63.623047"/>
       <use xlink:href="#DejaVuSans-30" x="127.246094"/>
       <use xlink:href="#DejaVuSans-30" x="190.869141"/>
      </g>
     </g>
    </g>
    <g id="ytick_2">
     <g id="line2d_15">
      <g>
       <use xlink:href="#mbb56a96935" x="59.690625" y="212.386968" style="stroke: #000000; stroke-width: 0.8"/>
      </g>
     </g>
     <g id="text_16">
      <!-- 7000 -->
      <g transform="translate(27.240625 216.186187) scale(0.1 -0.1)">
       <defs>
        <path id="DejaVuSans-37" d="M 525 4666 
L 3525 4666 
L 3525 4397 
L 1831 0 
L 1172 0 
L 2766 4134 
L 525 4134 
L 525 4666 
z
" transform="scale(0.015625)"/>
       </defs>
       <use xlink:href="#DejaVuSans-37"/>
       <use xlink:href="#DejaVuSans-30" x="63.623047"/>
       <use xlink:href="#DejaVuSans-30" x="127.246094"/>
       <use xlink:href="#DejaVuSans-30" x="190.869141"/>
      </g>
     </g>
    </g>
    <g id="ytick_3">
     <g id="line2d_16">
      <g>
       <use xlink:href="#mbb56a96935" x="59.690625" y="165.053765" style="stroke: #000000; stroke-width: 0.8"/>
      </g>
     </g>
     <g id="text_17">
      <!-- 8000 -->
      <g transform="translate(27.240625 168.852984) scale(0.1 -0.1)">
       <use xlink:href="#DejaVuSans-38"/>
       <use xlink:href="#DejaVuSans-30" x="63.623047"/>
       <use xlink:href="#DejaVuSans-30" x="127.246094"/>
       <use xlink:href="#DejaVuSans-30" x="190.869141"/>
      </g>
     </g>
    </g>
    <g id="ytick_4">
     <g id="line2d_17">
      <g>
       <use xlink:href="#mbb56a96935" x="59.690625" y="117.720562" style="stroke: #000000; stroke-width: 0.8"/>
      </g>
     </g>
     <g id="text_18">
      <!-- 9000 -->
      <g transform="translate(27.240625 121.519781) scale(0.1 -0.1)">
       <defs>
        <path id="DejaVuSans-39" d="M 703 97 
L 703 672 
Q 941 559 1184 500 
Q 1428 441 1663 441 
Q 2288 441 2617 861 
Q 2947 1281 2994 2138 
Q 2813 1869 2534 1725 
Q 2256 1581 1919 1581 
Q 1219 1581 811 2004 
Q 403 2428 403 3163 
Q 403 3881 828 4315 
Q 1253 4750 1959 4750 
Q 2769 4750 3195 4129 
Q 3622 3509 3622 2328 
Q 3622 1225 3098 567 
Q 2575 -91 1691 -91 
Q 1453 -91 1209 -44 
Q 966 3 703 97 
z
M 1959 2075 
Q 2384 2075 2632 2365 
Q 2881 2656 2881 3163 
Q 2881 3666 2632 3958 
Q 2384 4250 1959 4250 
Q 1534 4250 1286 3958 
Q 1038 3666 1038 3163 
Q 1038 2656 1286 2365 
Q 1534 2075 1959 2075 
z
" transform="scale(0.015625)"/>
       </defs>
       <use xlink:href="#DejaVuSans-39"/>
       <use xlink:href="#DejaVuSans-30" x="63.623047"/>
       <use xlink:href="#DejaVuSans-30" x="127.246094"/>
       <use xlink:href="#DejaVuSans-30" x="190.869141"/>
      </g>
     </g>
    </g>
    <g id="ytick_5">
     <g id="line2d_18">
      <g>
       <use xlink:href="#mbb56a96935" x="59.690625" y="70.387359" style="stroke: #000000; stroke-width: 0.8"/>
      </g>
     </g>
     <g id="text_19">
      <!-- 10000 -->
      <g transform="translate(20.878125 74.186578) scale(0.1 -0.1)">
       <use xlink:href="#DejaVuSans-31"/>
       <use xlink:href="#DejaVuSans-30" x="63.623047"/>
       <use xlink:href="#DejaVuSans-30" x="127.246094"/>
       <use xlink:href="#DejaVuSans-30" x="190.869141"/>
       <use xlink:href="#DejaVuSans-30" x="254.492188"/>
      </g>
     </g>
    </g>
    <g id="ytick_6">
     <g id="line2d_19">
      <g>
       <use xlink:href="#mbb56a96935" x="59.690625" y="23.054156" style="stroke: #000000; stroke-width: 0.8"/>
      </g>
     </g>
     <g id="text_20">
      <!-- 11000 -->
      <g transform="translate(20.878125 26.853375) scale(0.1 -0.1)">
       <use xlink:href="#DejaVuSans-31"/>
       <use xlink:href="#DejaVuSans-31" x="63.623047"/>
       <use xlink:href="#DejaVuSans-30" x="127.246094"/>
       <use xlink:href="#DejaVuSans-30" x="190.869141"/>
       <use xlink:href="#DejaVuSans-30" x="254.492188"/>
      </g>
     </g>
    </g>
    <g id="text_21">
     <!-- Code branch coverage -->
     <g transform="translate(14.798438 211.949125) rotate(-90) scale(0.1 -0.1)">
      <defs>
       <path id="DejaVuSans-43" d="M 4122 4306 
L 4122 3641 
Q 3803 3938 3442 4084 
Q 3081 4231 2675 4231 
Q 1875 4231 1450 3742 
Q 1025 3253 1025 2328 
Q 1025 1406 1450 917 
Q 1875 428 2675 428 
Q 3081 428 3442 575 
Q 3803 722 4122 1019 
L 4122 359 
Q 3791 134 3420 21 
Q 3050 -91 2638 -91 
Q 1578 -91 968 557 
Q 359 1206 359 2328 
Q 359 3453 968 4101 
Q 1578 4750 2638 4750 
Q 3056 4750 3426 4639 
Q 3797 4528 4122 4306 
z
" transform="scale(0.015625)"/>
       <path id="DejaVuSans-64" d="M 2906 2969 
L 2906 4863 
L 3481 4863 
L 3481 0 
L 2906 0 
L 2906 525 
Q 2725 213 2448 61 
Q 2172 -91 1784 -91 
Q 1150 -91 751 415 
Q 353 922 353 1747 
Q 353 2572 751 3078 
Q 1150 3584 1784 3584 
Q 2172 3584 2448 3432 
Q 2725 3281 2906 2969 
z
M 947 1747 
Q 947 1113 1208 752 
Q 1469 391 1925 391 
Q 2381 391 2643 752 
Q 2906 1113 2906 1747 
Q 2906 2381 2643 2742 
Q 2381 3103 1925 3103 
Q 1469 3103 1208 2742 
Q 947 2381 947 1747 
z
" transform="scale(0.015625)"/>
       <path id="DejaVuSans-62" d="M 3116 1747 
Q 3116 2381 2855 2742 
Q 2594 3103 2138 3103 
Q 1681 3103 1420 2742 
Q 1159 2381 1159 1747 
Q 1159 1113 1420 752 
Q 1681 391 2138 391 
Q 2594 391 2855 752 
Q 3116 1113 3116 1747 
z
M 1159 2969 
Q 1341 3281 1617 3432 
Q 1894 3584 2278 3584 
Q 2916 3584 3314 3078 
Q 3713 2572 3713 1747 
Q 3713 922 3314 415 
Q 2916 -91 2278 -91 
Q 1894 -91 1617 61 
Q 1341 213 1159 525 
L 1159 0 
L 581 0 
L 581 4863 
L 1159 4863 
L 1159 2969 
z
" transform="scale(0.015625)"/>
       <path id="DejaVuSans-61" d="M 2194 1759 
Q 1497 1759 1228 1600 
Q 959 1441 959 1056 
Q 959 750 1161 570 
Q 1363 391 1709 391 
Q 2188 391 2477 730 
Q 2766 1069 2766 1631 
L 2766 1759 
L 2194 1759 
z
M 3341 1997 
L 3341 0 
L 2766 0 
L 2766 531 
Q 2569 213 2275 61 
Q 1981 -91 1556 -91 
Q 1019 -91 701 211 
Q 384 513 384 1019 
Q 384 1609 779 1909 
Q 1175 2209 1959 2209 
L 2766 2209 
L 2766 2266 
Q 2766 2663 2505 2880 
Q 2244 3097 1772 3097 
Q 1472 3097 1187 3025 
Q 903 2953 641 2809 
L 641 3341 
Q 956 3463 1253 3523 
Q 1550 3584 1831 3584 
Q 2591 3584 2966 3190 
Q 3341 2797 3341 1997 
z
" transform="scale(0.015625)"/>
       <path id="DejaVuSans-63" d="M 3122 3366 
L 3122 2828 
Q 2878 2963 2633 3030 
Q 2388 3097 2138 3097 
Q 1578 3097 1268 2742 
Q 959 2388 959 1747 
Q 959 1106 1268 751 
Q 1578 397 2138 397 
Q 2388 397 2633 464 
Q 2878 531 3122 666 
L 3122 134 
Q 2881 22 2623 -34 
Q 2366 -91 2075 -91 
Q 1284 -91 818 406 
Q 353 903 353 1747 
Q 353 2603 823 3093 
Q 1294 3584 2113 3584 
Q 2378 3584 2631 3529 
Q 2884 3475 3122 3366 
z
" transform="scale(0.015625)"/>
       <path id="DejaVuSans-76" d="M 191 3500 
L 800 3500 
L 1894 563 
L 2988 3500 
L 3597 3500 
L 2284 0 
L 1503 0 
L 191 3500 
z
" transform="scale(0.015625)"/>
       <path id="DejaVuSans-67" d="M 2906 1791 
Q 2906 2416 2648 2759 
Q 2391 3103 1925 3103 
Q 1463 3103 1205 2759 
Q 947 2416 947 1791 
Q 947 1169 1205 825 
Q 1463 481 1925 481 
Q 2391 481 2648 825 
Q 2906 1169 2906 1791 
z
M 3481 434 
Q 3481 -459 3084 -895 
Q 2688 -1331 1869 -1331 
Q 1566 -1331 1297 -1286 
Q 1028 -1241 775 -1147 
L 775 -588 
Q 1028 -725 1275 -790 
Q 1522 -856 1778 -856 
Q 2344 -856 2625 -561 
Q 2906 -266 2906 331 
L 2906 616 
Q 2728 306 2450 153 
Q 2172 0 1784 0 
Q 1141 0 747 490 
Q 353 981 353 1791 
Q 353 2603 747 3093 
Q 1141 3584 1784 3584 
Q 2172 3584 2450 3431 
Q 2728 3278 2906 2969 
L 2906 3500 
L 3481 3500 
L 3481 434 
z
" transform="scale(0.015625)"/>
      </defs>
      <use xlink:href="#DejaVuSans-43"/>
      <use xlink:href="#DejaVuSans-6f" x="69.824219"/>
      <use xlink:href="#DejaVuSans-64" x="131.005859"/>
      <use xlink:href="#DejaVuSans-65" x="194.482422"/>
      <use xlink:href="#DejaVuSans-20" x="256.005859"/>
      <use xlink:href="#DejaVuSans-62" x="287.792969"/>
      <use xlink:href="#DejaVuSans-72" x="351.269531"/>
      <use xlink:href="#DejaVuSans-61" x="392.382812"/>
      <use xlink:href="#DejaVuSans-6e" x="453.662109"/>
      <use xlink:href="#DejaVuSans-63" x="517.041016"/>
      <use xlink:href="#DejaVuSans-68" x="572.021484"/>
      <use xlink:href="#DejaVuSans-20" x="635.400391"/>
      <use xlink:href="#DejaVuSans-63" x="667.1875"/>
      <use xlink:href="#DejaVuSans-6f" x="722.167969"/>
      <use xlink:href="#DejaVuSans-76" x="783.349609"/>
      <use xlink:href="#DejaVuSans-65" x="842.529297"/>
      <use xlink:href="#DejaVuSans-72" x="904.052734"/>
      <use xlink:href="#DejaVuSans-61" x="945.166016"/>
      <use xlink:href="#DejaVuSans-67" x="1006.445312"/>
      <use xlink:href="#DejaVuSans-65" x="1069.921875"/>
     </g>
    </g>
   </g>
   <g id="line2d_20">
    <path d="M 59.690625 276.334125 
L 66.776339 139.18617 
L 73.862054 107.827923 
L 80.947768 104.277932 
L 88.033482 101.343274 
L 95.119196 95.260957 
L 102.204911 73.677017 
L 109.290625 71.736355 
L 116.376339 70.482026 
L 123.462054 67.452701 
L 130.547768 66.245704 
L 137.633482 65.512039 
L 144.719196 63.098046 
L 151.804911 62.648381 
L 158.890625 61.701716 
L 165.976339 60.471053 
L 173.062054 59.122057 
L 180.147768 56.755397 
L 187.233482 56.637064 
L 194.319196 56.353065 
L 201.404911 54.696402 
L 208.490625 53.797072 
L 215.576339 53.300073 
L 222.662054 52.826741 
L 229.747768 51.99841 
L 236.833482 51.170079 
L 243.919196 50.67308 
L 251.004911 50.531081 
L 258.090625 50.270748 
L 265.176339 49.963082 
L 272.262054 49.442417 
L 279.347768 49.111084 
L 286.433482 48.945418 
L 293.519196 48.37742 
L 300.604911 48.188087 
L 307.690625 47.762088 
L 314.776339 47.525422 
L 321.862054 46.105426 
L 328.947768 45.79776 
L 336.033482 45.79776 
L 343.119196 45.774094 
L 350.204911 45.537428 
L 357.290625 45.490094 
L 364.376339 44.75643 
L 371.462054 44.68543 
L 378.547768 44.68543 
L 385.633482 44.61443 
L 392.719196 44.401431 
L 399.804911 43.3601 
L 406.890625 42.957768 
L 413.976339 42.886768 
L 421.062054 42.839435 
L 428.147768 42.626436 
L 435.233482 42.555436 
L 442.319196 42.484436 
L 449.404911 42.460769 
L 456.490625 42.31877 
L 463.576339 42.034771 
L 470.662054 41.892771 
L 477.747768 41.821771 
L 484.833482 41.750771 
L 491.919196 41.727105 
L 499.004911 41.13544 
L 506.090625 40.804107 
L 513.176339 40.614775 
L 520.262054 40.567441 
L 527.347768 40.567441 
L 534.433482 40.496442 
L 541.519196 40.496442 
L 548.604911 40.212442 
L 555.690625 40.117776 
L 562.776339 39.762777 
L 569.862054 39.147445 
L 576.947768 39.123779 
L 584.033482 39.076445 
L 591.119196 39.076445 
L 598.204911 39.076445 
L 605.290625 39.076445 
L 612.376339 39.005446 
L 619.462054 38.816113 
L 626.547768 38.745113 
L 633.633482 38.413781 
L 640.719196 38.413781 
L 647.804911 38.366447 
L 654.890625 38.295448 
L 661.976339 38.011448 
L 669.062054 37.656449 
L 676.147768 37.561783 
L 683.233482 37.396117 
L 690.319196 37.30145 
L 697.404911 37.254117 
L 704.490625 37.183117 
L 711.576339 37.183117 
L 718.662054 37.183117 
L 725.747768 37.017451 
L 732.833482 37.017451 
L 739.919196 37.017451 
" clip-path="url(#pd21797bc0a)" style="fill: none; stroke: #1f77b4; stroke-width: 1.5; stroke-linecap: square"/>
    <defs>
     <path id="m4ca518d432" d="M 0 3 
C 0.795609 3 1.55874 2.683901 2.12132 2.12132 
C 2.683901 1.55874 3 0.795609 3 0 
C 3 -0.795609 2.683901 -1.55874 2.12132 -2.12132 
C 1.55874 -2.683901 0.795609 -3 0 -3 
C -0.795609 -3 -1.55874 -2.683901 -2.12132 -2.12132 
C -2.683901 -1.55874 -3 -0.795609 -3 0 
C -3 0.795609 -2.683901 1.55874 -2.12132 2.12132 
C -1.55874 2.683901 -0.795609 3 0 3 
z
" style="stroke: #ffffff; stroke-width: 0.75"/>
    </defs>
    <g clip-path="url(#pd21797bc0a)">
     <use xlink:href="#m4ca518d432" x="59.690625" y="276.334125" style="fill: #1f77b4; stroke: #ffffff; stroke-width: 0.75"/>
     <use xlink:href="#m4ca518d432" x="66.776339" y="139.18617" style="fill: #1f77b4; stroke: #ffffff; stroke-width: 0.75"/>
     <use xlink:href="#m4ca518d432" x="73.862054" y="107.827923" style="fill: #1f77b4; stroke: #ffffff; stroke-width: 0.75"/>
     <use xlink:href="#m4ca518d432" x="80.947768" y="104.277932" style="fill: #1f77b4; stroke: #ffffff; stroke-width: 0.75"/>
     <use xlink:href="#m4ca518d432" x="88.033482" y="101.343274" style="fill: #1f77b4; stroke: #ffffff; stroke-width: 0.75"/>
     <use xlink:href="#m4ca518d432" x="95.119196" y="95.260957" style="fill: #1f77b4; stroke: #ffffff; stroke-width: 0.75"/>
     <use xlink:href="#m4ca518d432" x="102.204911" y="73.677017" style="fill: #1f77b4; stroke: #ffffff; stroke-width: 0.75"/>
     <use xlink:href="#m4ca518d432" x="109.290625" y="71.736355" style="fill: #1f77b4; stroke: #ffffff; stroke-width: 0.75"/>
     <use xlink:href="#m4ca518d432" x="116.376339" y="70.482026" style="fill: #1f77b4; stroke: #ffffff; stroke-width: 0.75"/>
     <use xlink:href="#m4ca518d432" x="123.462054" y="67.452701" style="fill: #1f77b4; stroke: #ffffff; stroke-width: 0.75"/>
     <use xlink:href="#m4ca518d432" x="130.547768" y="66.245704" style="fill: #1f77b4; stroke: #ffffff; stroke-width: 0.75"/>
     <use xlink:href="#m4ca518d432" x="137.633482" y="65.512039" style="fill: #1f77b4; stroke: #ffffff; stroke-width: 0.75"/>
     <use xlink:href="#m4ca518d432" x="144.719196" y="63.098046" style="fill: #1f77b4; stroke: #ffffff; stroke-width: 0.75"/>
     <use xlink:href="#m4ca518d432" x="151.804911" y="62.648381" style="fill: #1f77b4; stroke: #ffffff; stroke-width: 0.75"/>
     <use xlink:href="#m4ca518d432" x="158.890625" y="61.701716" style="fill: #1f77b4; stroke: #ffffff; stroke-width: 0.75"/>
     <use xlink:href="#m4ca518d432" x="165.976339" y="60.471053" style="fill: #1f77b4; stroke: #ffffff; stroke-width: 0.75"/>
     <use xlink:href="#m4ca518d432" x="173.062054" y="59.122057" style="fill: #1f77b4; stroke: #ffffff; stroke-width: 0.75"/>
     <use xlink:href="#m4ca518d432" x="180.147768" y="56.755397" style="fill: #1f77b4; stroke: #ffffff; stroke-width: 0.75"/>
     <use xlink:href="#m4ca518d432" x="187.233482" y="56.637064" style="fill: #1f77b4; stroke: #ffffff; stroke-width: 0.75"/>
     <use xlink:href="#m4ca518d432" x="194.319196" y="56.353065" style="fill: #1f77b4; stroke: #ffffff; stroke-width: 0.75"/>
     <use xlink:href="#m4ca518d432" x="201.404911" y="54.696402" style="fill: #1f77b4; stroke: #ffffff; stroke-width: 0.75"/>
     <use xlink:href="#m4ca518d432" x="208.490625" y="53.797072" style="fill: #1f77b4; stroke: #ffffff; stroke-width: 0.75"/>
     <use xlink:href="#m4ca518d432" x="215.576339" y="53.300073" style="fill: #1f77b4; stroke: #ffffff; stroke-width: 0.75"/>
     <use xlink:href="#m4ca518d432" x="222.662054" y="52.826741" style="fill: #1f77b4; stroke: #ffffff; stroke-width: 0.75"/>
     <use xlink:href="#m4ca518d432" x="229.747768" y="51.99841" style="fill: #1f77b4; stroke: #ffffff; stroke-width: 0.75"/>
     <use xlink:href="#m4ca518d432" x="236.833482" y="51.170079" style="fill: #1f77b4; stroke: #ffffff; stroke-width: 0.75"/>
     <use xlink:href="#m4ca518d432" x="243.919196" y="50.67308" style="fill: #1f77b4; stroke: #ffffff; stroke-width: 0.75"/>
     <use xlink:href="#m4ca518d432" x="251.004911" y="50.531081" style="fill: #1f77b4; stroke: #ffffff; stroke-width: 0.75"/>
     <use xlink:href="#m4ca518d432" x="258.090625" y="50.270748" style="fill: #1f77b4; stroke: #ffffff; stroke-width: 0.75"/>
     <use xlink:href="#m4ca518d432" x="265.176339" y="49.963082" style="fill: #1f77b4; stroke: #ffffff; stroke-width: 0.75"/>
     <use xlink:href="#m4ca518d432" x="272.262054" y="49.442417" style="fill: #1f77b4; stroke: #ffffff; stroke-width: 0.75"/>
     <use xlink:href="#m4ca518d432" x="279.347768" y="49.111084" style="fill: #1f77b4; stroke: #ffffff; stroke-width: 0.75"/>
     <use xlink:href="#m4ca518d432" x="286.433482" y="48.945418" style="fill: #1f77b4; stroke: #ffffff; stroke-width: 0.75"/>
     <use xlink:href="#m4ca518d432" x="293.519196" y="48.37742" style="fill: #1f77b4; stroke: #ffffff; stroke-width: 0.75"/>
     <use xlink:href="#m4ca518d432" x="300.604911" y="48.188087" style="fill: #1f77b4; stroke: #ffffff; stroke-width: 0.75"/>
     <use xlink:href="#m4ca518d432" x="307.690625" y="47.762088" style="fill: #1f77b4; stroke: #ffffff; stroke-width: 0.75"/>
     <use xlink:href="#m4ca518d432" x="314.776339" y="47.525422" style="fill: #1f77b4; stroke: #ffffff; stroke-width: 0.75"/>
     <use xlink:href="#m4ca518d432" x="321.862054" y="46.105426" style="fill: #1f77b4; stroke: #ffffff; stroke-width: 0.75"/>
     <use xlink:href="#m4ca518d432" x="328.947768" y="45.79776" style="fill: #1f77b4; stroke: #ffffff; stroke-width: 0.75"/>
     <use xlink:href="#m4ca518d432" x="336.033482" y="45.79776" style="fill: #1f77b4; stroke: #ffffff; stroke-width: 0.75"/>
     <use xlink:href="#m4ca518d432" x="343.119196" y="45.774094" style="fill: #1f77b4; stroke: #ffffff; stroke-width: 0.75"/>
     <use xlink:href="#m4ca518d432" x="350.204911" y="45.537428" style="fill: #1f77b4; stroke: #ffffff; stroke-width: 0.75"/>
     <use xlink:href="#m4ca518d432" x="357.290625" y="45.490094" style="fill: #1f77b4; stroke: #ffffff; stroke-width: 0.75"/>
     <use xlink:href="#m4ca518d432" x="364.376339" y="44.75643" style="fill: #1f77b4; stroke: #ffffff; stroke-width: 0.75"/>
     <use xlink:href="#m4ca518d432" x="371.462054" y="44.68543" style="fill: #1f77b4; stroke: #ffffff; stroke-width: 0.75"/>
     <use xlink:href="#m4ca518d432" x="378.547768" y="44.68543" style="fill: #1f77b4; stroke: #ffffff; stroke-width: 0.75"/>
     <use xlink:href="#m4ca518d432" x="385.633482" y="44.61443" style="fill: #1f77b4; stroke: #ffffff; stroke-width: 0.75"/>
     <use xlink:href="#m4ca518d432" x="392.719196" y="44.401431" style="fill: #1f77b4; stroke: #ffffff; stroke-width: 0.75"/>
     <use xlink:href="#m4ca518d432" x="399.804911" y="43.3601" style="fill: #1f77b4; stroke: #ffffff; stroke-width: 0.75"/>
     <use xlink:href="#m4ca518d432" x="406.890625" y="42.957768" style="fill: #1f77b4; stroke: #ffffff; stroke-width: 0.75"/>
     <use xlink:href="#m4ca518d432" x="413.976339" y="42.886768" style="fill: #1f77b4; stroke: #ffffff; stroke-width: 0.75"/>
     <use xlink:href="#m4ca518d432" x="421.062054" y="42.839435" style="fill: #1f77b4; stroke: #ffffff; stroke-width: 0.75"/>
     <use xlink:href="#m4ca518d432" x="428.147768" y="42.626436" style="fill: #1f77b4; stroke: #ffffff; stroke-width: 0.75"/>
     <use xlink:href="#m4ca518d432" x="435.233482" y="42.555436" style="fill: #1f77b4; stroke: #ffffff; stroke-width: 0.75"/>
     <use xlink:href="#m4ca518d432" x="442.319196" y="42.484436" style="fill: #1f77b4; stroke: #ffffff; stroke-width: 0.75"/>
     <use xlink:href="#m4ca518d432" x="449.404911" y="42.460769" style="fill: #1f77b4; stroke: #ffffff; stroke-width: 0.75"/>
     <use xlink:href="#m4ca518d432" x="456.490625" y="42.31877" style="fill: #1f77b4; stroke: #ffffff; stroke-width: 0.75"/>
     <use xlink:href="#m4ca518d432" x="463.576339" y="42.034771" style="fill: #1f77b4; stroke: #ffffff; stroke-width: 0.75"/>
     <use xlink:href="#m4ca518d432" x="470.662054" y="41.892771" style="fill: #1f77b4; stroke: #ffffff; stroke-width: 0.75"/>
     <use xlink:href="#m4ca518d432" x="477.747768" y="41.821771" style="fill: #1f77b4; stroke: #ffffff; stroke-width: 0.75"/>
     <use xlink:href="#m4ca518d432" x="484.833482" y="41.750771" style="fill: #1f77b4; stroke: #ffffff; stroke-width: 0.75"/>
     <use xlink:href="#m4ca518d432" x="491.919196" y="41.727105" style="fill: #1f77b4; stroke: #ffffff; stroke-width: 0.75"/>
     <use xlink:href="#m4ca518d432" x="499.004911" y="41.13544" style="fill: #1f77b4; stroke: #ffffff; stroke-width: 0.75"/>
     <use xlink:href="#m4ca518d432" x="506.090625" y="40.804107" style="fill: #1f77b4; stroke: #ffffff; stroke-width: 0.75"/>
     <use xlink:href="#m4ca518d432" x="513.176339" y="40.614775" style="fill: #1f77b4; stroke: #ffffff; stroke-width: 0.75"/>
     <use xlink:href="#m4ca518d432" x="520.262054" y="40.567441" style="fill: #1f77b4; stroke: #ffffff; stroke-width: 0.75"/>
     <use xlink:href="#m4ca518d432" x="527.347768" y="40.567441" style="fill: #1f77b4; stroke: #ffffff; stroke-width: 0.75"/>
     <use xlink:href="#m4ca518d432" x="534.433482" y="40.496442" style="fill: #1f77b4; stroke: #ffffff; stroke-width: 0.75"/>
     <use xlink:href="#m4ca518d432" x="541.519196" y="40.496442" style="fill: #1f77b4; stroke: #ffffff; stroke-width: 0.75"/>
     <use xlink:href="#m4ca518d432" x="548.604911" y="40.212442" style="fill: #1f77b4; stroke: #ffffff; stroke-width: 0.75"/>
     <use xlink:href="#m4ca518d432" x="555.690625" y="40.117776" style="fill: #1f77b4; stroke: #ffffff; stroke-width: 0.75"/>
     <use xlink:href="#m4ca518d432" x="562.776339" y="39.762777" style="fill: #1f77b4; stroke: #ffffff; stroke-width: 0.75"/>
     <use xlink:href="#m4ca518d432" x="569.862054" y="39.147445" style="fill: #1f77b4; stroke: #ffffff; stroke-width: 0.75"/>
     <use xlink:href="#m4ca518d432" x="576.947768" y="39.123779" style="fill: #1f77b4; stroke: #ffffff; stroke-width: 0.75"/>
     <use xlink:href="#m4ca518d432" x="584.033482" y="39.076445" style="fill: #1f77b4; stroke: #ffffff; stroke-width: 0.75"/>
     <use xlink:href="#m4ca518d432" x="591.119196" y="39.076445" style="fill: #1f77b4; stroke: #ffffff; stroke-width: 0.75"/>
     <use xlink:href="#m4ca518d432" x="598.204911" y="39.076445" style="fill: #1f77b4; stroke: #ffffff; stroke-width: 0.75"/>
     <use xlink:href="#m4ca518d432" x="605.290625" y="39.076445" style="fill: #1f77b4; stroke: #ffffff; stroke-width: 0.75"/>
     <use xlink:href="#m4ca518d432" x="612.376339" y="39.005446" style="fill: #1f77b4; stroke: #ffffff; stroke-width: 0.75"/>
     <use xlink:href="#m4ca518d432" x="619.462054" y="38.816113" style="fill: #1f77b4; stroke: #ffffff; stroke-width: 0.75"/>
     <use xlink:href="#m4ca518d432" x="626.547768" y="38.745113" style="fill: #1f77b4; stroke: #ffffff; stroke-width: 0.75"/>
     <use xlink:href="#m4ca518d432" x="633.633482" y="38.413781" style="fill: #1f77b4; stroke: #ffffff; stroke-width: 0.75"/>
     <use xlink:href="#m4ca518d432" x="640.719196" y="38.413781" style="fill: #1f77b4; stroke: #ffffff; stroke-width: 0.75"/>
     <use xlink:href="#m4ca518d432" x="647.804911" y="38.366447" style="fill: #1f77b4; stroke: #ffffff; stroke-width: 0.75"/>
     <use xlink:href="#m4ca518d432" x="654.890625" y="38.295448" style="fill: #1f77b4; stroke: #ffffff; stroke-width: 0.75"/>
     <use xlink:href="#m4ca518d432" x="661.976339" y="38.011448" style="fill: #1f77b4; stroke: #ffffff; stroke-width: 0.75"/>
     <use xlink:href="#m4ca518d432" x="669.062054" y="37.656449" style="fill: #1f77b4; stroke: #ffffff; stroke-width: 0.75"/>
     <use xlink:href="#m4ca518d432" x="676.147768" y="37.561783" style="fill: #1f77b4; stroke: #ffffff; stroke-width: 0.75"/>
     <use xlink:href="#m4ca518d432" x="683.233482" y="37.396117" style="fill: #1f77b4; stroke: #ffffff; stroke-width: 0.75"/>
     <use xlink:href="#m4ca518d432" x="690.319196" y="37.30145" style="fill: #1f77b4; stroke: #ffffff; stroke-width: 0.75"/>
     <use xlink:href="#m4ca518d432" x="697.404911" y="37.254117" style="fill: #1f77b4; stroke: #ffffff; stroke-width: 0.75"/>
     <use xlink:href="#m4ca518d432" x="704.490625" y="37.183117" style="fill: #1f77b4; stroke: #ffffff; stroke-width: 0.75"/>
     <use xlink:href="#m4ca518d432" x="711.576339" y="37.183117" style="fill: #1f77b4; stroke: #ffffff; stroke-width: 0.75"/>
     <use xlink:href="#m4ca518d432" x="718.662054" y="37.183117" style="fill: #1f77b4; stroke: #ffffff; stroke-width: 0.75"/>
     <use xlink:href="#m4ca518d432" x="725.747768" y="37.017451" style="fill: #1f77b4; stroke: #ffffff; stroke-width: 0.75"/>
     <use xlink:href="#m4ca518d432" x="732.833482" y="37.017451" style="fill: #1f77b4; stroke: #ffffff; stroke-width: 0.75"/>
     <use xlink:href="#m4ca518d432" x="739.919196" y="37.017451" style="fill: #1f77b4; stroke: #ffffff; stroke-width: 0.75"/>
    </g>
   </g>
   <g id="line2d_21">
    <path d="M 59.690625 276.334125 
L 66.776339 129.861529 
L 73.862054 115.779901 
L 80.947768 86.196649 
L 88.033482 85.155319 
L 95.119196 76.801008 
L 102.204911 73.58235 
L 109.290625 70.789691 
L 116.376339 68.801697 
L 123.462054 63.855377 
L 130.547768 61.370384 
L 137.633482 60.755052 
L 144.719196 59.287723 
L 151.804911 58.483059 
L 158.890625 57.891394 
L 165.976339 57.228729 
L 173.062054 56.87373 
L 180.147768 55.595733 
L 187.233482 54.838402 
L 194.319196 53.939071 
L 201.404911 53.655072 
L 208.490625 52.992407 
L 215.576339 51.548744 
L 222.662054 51.028079 
L 229.747768 50.933413 
L 236.833482 50.862413 
L 243.919196 50.578414 
L 251.004911 50.507414 
L 258.090625 50.460081 
L 265.176339 50.105082 
L 272.262054 49.726416 
L 279.347768 49.466084 
L 286.433482 49.182084 
L 293.519196 48.685086 
L 300.604911 48.543086 
L 307.690625 48.424753 
L 314.776339 48.282753 
L 321.862054 48.117087 
L 328.947768 47.833088 
L 336.033482 47.312423 
L 343.119196 46.862757 
L 350.204911 46.697091 
L 357.290625 46.531425 
L 364.376339 46.200093 
L 371.462054 45.79776 
L 378.547768 45.750427 
L 385.633482 45.442761 
L 392.719196 45.324428 
L 399.804911 45.229762 
L 406.890625 45.040429 
L 413.976339 44.61443 
L 421.062054 44.070098 
L 428.147768 43.880766 
L 435.233482 43.857099 
L 442.319196 43.667766 
L 449.404911 43.383767 
L 456.490625 43.3601 
L 463.576339 43.312767 
L 470.662054 43.123434 
L 477.747768 43.076101 
L 484.833482 43.005101 
L 491.919196 42.957768 
L 499.004911 42.910435 
L 506.090625 42.38977 
L 513.176339 42.153104 
L 520.262054 42.10577 
L 527.347768 42.034771 
L 534.433482 42.034771 
L 541.519196 42.011104 
L 548.604911 41.774438 
L 555.690625 41.585105 
L 562.776339 41.419439 
L 569.862054 41.301106 
L 576.947768 41.253773 
L 584.033482 41.040773 
L 591.119196 40.969774 
L 598.204911 40.969774 
L 605.290625 40.92244 
L 612.376339 40.92244 
L 619.462054 40.804107 
L 626.547768 40.733108 
L 633.633482 40.662108 
L 640.719196 40.662108 
L 647.804911 40.567441 
L 654.890625 40.567441 
L 661.976339 40.496442 
L 669.062054 40.425442 
L 676.147768 40.307109 
L 683.233482 40.259776 
L 690.319196 40.212442 
L 697.404911 40.165109 
L 704.490625 40.094109 
L 711.576339 40.046776 
L 718.662054 39.857443 
L 725.747768 39.833777 
L 732.833482 39.691777 
L 739.919196 39.691777 
" clip-path="url(#pd21797bc0a)" style="fill: none; stroke: #98df8a; stroke-width: 1.5; stroke-linecap: square"/>
    <defs>
     <path id="m69892182db" d="M -0 3 
L 3 -3 
L -3 -3 
z
" style="stroke: #ffffff; stroke-width: 0.75; stroke-linejoin: miter"/>
    </defs>
    <g clip-path="url(#pd21797bc0a)">
     <use xlink:href="#m69892182db" x="59.690625" y="276.334125" style="fill: #98df8a; stroke: #ffffff; stroke-width: 0.75; stroke-linejoin: miter"/>
     <use xlink:href="#m69892182db" x="66.776339" y="129.861529" style="fill: #98df8a; stroke: #ffffff; stroke-width: 0.75; stroke-linejoin: miter"/>
     <use xlink:href="#m69892182db" x="73.862054" y="115.779901" style="fill: #98df8a; stroke: #ffffff; stroke-width: 0.75; stroke-linejoin: miter"/>
     <use xlink:href="#m69892182db" x="80.947768" y="86.196649" style="fill: #98df8a; stroke: #ffffff; stroke-width: 0.75; stroke-linejoin: miter"/>
     <use xlink:href="#m69892182db" x="88.033482" y="85.155319" style="fill: #98df8a; stroke: #ffffff; stroke-width: 0.75; stroke-linejoin: miter"/>
     <use xlink:href="#m69892182db" x="95.119196" y="76.801008" style="fill: #98df8a; stroke: #ffffff; stroke-width: 0.75; stroke-linejoin: miter"/>
     <use xlink:href="#m69892182db" x="102.204911" y="73.58235" style="fill: #98df8a; stroke: #ffffff; stroke-width: 0.75; stroke-linejoin: miter"/>
     <use xlink:href="#m69892182db" x="109.290625" y="70.789691" style="fill: #98df8a; stroke: #ffffff; stroke-width: 0.75; stroke-linejoin: miter"/>
     <use xlink:href="#m69892182db" x="116.376339" y="68.801697" style="fill: #98df8a; stroke: #ffffff; stroke-width: 0.75; stroke-linejoin: miter"/>
     <use xlink:href="#m69892182db" x="123.462054" y="63.855377" style="fill: #98df8a; stroke: #ffffff; stroke-width: 0.75; stroke-linejoin: miter"/>
     <use xlink:href="#m69892182db" x="130.547768" y="61.370384" style="fill: #98df8a; stroke: #ffffff; stroke-width: 0.75; stroke-linejoin: miter"/>
     <use xlink:href="#m69892182db" x="137.633482" y="60.755052" style="fill: #98df8a; stroke: #ffffff; stroke-width: 0.75; stroke-linejoin: miter"/>
     <use xlink:href="#m69892182db" x="144.719196" y="59.287723" style="fill: #98df8a; stroke: #ffffff; stroke-width: 0.75; stroke-linejoin: miter"/>
     <use xlink:href="#m69892182db" x="151.804911" y="58.483059" style="fill: #98df8a; stroke: #ffffff; stroke-width: 0.75; stroke-linejoin: miter"/>
     <use xlink:href="#m69892182db" x="158.890625" y="57.891394" style="fill: #98df8a; stroke: #ffffff; stroke-width: 0.75; stroke-linejoin: miter"/>
     <use xlink:href="#m69892182db" x="165.976339" y="57.228729" style="fill: #98df8a; stroke: #ffffff; stroke-width: 0.75; stroke-linejoin: miter"/>
     <use xlink:href="#m69892182db" x="173.062054" y="56.87373" style="fill: #98df8a; stroke: #ffffff; stroke-width: 0.75; stroke-linejoin: miter"/>
     <use xlink:href="#m69892182db" x="180.147768" y="55.595733" style="fill: #98df8a; stroke: #ffffff; stroke-width: 0.75; stroke-linejoin: miter"/>
     <use xlink:href="#m69892182db" x="187.233482" y="54.838402" style="fill: #98df8a; stroke: #ffffff; stroke-width: 0.75; stroke-linejoin: miter"/>
     <use xlink:href="#m69892182db" x="194.319196" y="53.939071" style="fill: #98df8a; stroke: #ffffff; stroke-width: 0.75; stroke-linejoin: miter"/>
     <use xlink:href="#m69892182db" x="201.404911" y="53.655072" style="fill: #98df8a; stroke: #ffffff; stroke-width: 0.75; stroke-linejoin: miter"/>
     <use xlink:href="#m69892182db" x="208.490625" y="52.992407" style="fill: #98df8a; stroke: #ffffff; stroke-width: 0.75; stroke-linejoin: miter"/>
     <use xlink:href="#m69892182db" x="215.576339" y="51.548744" style="fill: #98df8a; stroke: #ffffff; stroke-width: 0.75; stroke-linejoin: miter"/>
     <use xlink:href="#m69892182db" x="222.662054" y="51.028079" style="fill: #98df8a; stroke: #ffffff; stroke-width: 0.75; stroke-linejoin: miter"/>
     <use xlink:href="#m69892182db" x="229.747768" y="50.933413" style="fill: #98df8a; stroke: #ffffff; stroke-width: 0.75; stroke-linejoin: miter"/>
     <use xlink:href="#m69892182db" x="236.833482" y="50.862413" style="fill: #98df8a; stroke: #ffffff; stroke-width: 0.75; stroke-linejoin: miter"/>
     <use xlink:href="#m69892182db" x="243.919196" y="50.578414" style="fill: #98df8a; stroke: #ffffff; stroke-width: 0.75; stroke-linejoin: miter"/>
     <use xlink:href="#m69892182db" x="251.004911" y="50.507414" style="fill: #98df8a; stroke: #ffffff; stroke-width: 0.75; stroke-linejoin: miter"/>
     <use xlink:href="#m69892182db" x="258.090625" y="50.460081" style="fill: #98df8a; stroke: #ffffff; stroke-width: 0.75; stroke-linejoin: miter"/>
     <use xlink:href="#m69892182db" x="265.176339" y="50.105082" style="fill: #98df8a; stroke: #ffffff; stroke-width: 0.75; stroke-linejoin: miter"/>
     <use xlink:href="#m69892182db" x="272.262054" y="49.726416" style="fill: #98df8a; stroke: #ffffff; stroke-width: 0.75; stroke-linejoin: miter"/>
     <use xlink:href="#m69892182db" x="279.347768" y="49.466084" style="fill: #98df8a; stroke: #ffffff; stroke-width: 0.75; stroke-linejoin: miter"/>
     <use xlink:href="#m69892182db" x="286.433482" y="49.182084" style="fill: #98df8a; stroke: #ffffff; stroke-width: 0.75; stroke-linejoin: miter"/>
     <use xlink:href="#m69892182db" x="293.519196" y="48.685086" style="fill: #98df8a; stroke: #ffffff; stroke-width: 0.75; stroke-linejoin: miter"/>
     <use xlink:href="#m69892182db" x="300.604911" y="48.543086" style="fill: #98df8a; stroke: #ffffff; stroke-width: 0.75; stroke-linejoin: miter"/>
     <use xlink:href="#m69892182db" x="307.690625" y="48.424753" style="fill: #98df8a; stroke: #ffffff; stroke-width: 0.75; stroke-linejoin: miter"/>
     <use xlink:href="#m69892182db" x="314.776339" y="48.282753" style="fill: #98df8a; stroke: #ffffff; stroke-width: 0.75; stroke-linejoin: miter"/>
     <use xlink:href="#m69892182db" x="321.862054" y="48.117087" style="fill: #98df8a; stroke: #ffffff; stroke-width: 0.75; stroke-linejoin: miter"/>
     <use xlink:href="#m69892182db" x="328.947768" y="47.833088" style="fill: #98df8a; stroke: #ffffff; stroke-width: 0.75; stroke-linejoin: miter"/>
     <use xlink:href="#m69892182db" x="336.033482" y="47.312423" style="fill: #98df8a; stroke: #ffffff; stroke-width: 0.75; stroke-linejoin: miter"/>
     <use xlink:href="#m69892182db" x="343.119196" y="46.862757" style="fill: #98df8a; stroke: #ffffff; stroke-width: 0.75; stroke-linejoin: miter"/>
     <use xlink:href="#m69892182db" x="350.204911" y="46.697091" style="fill: #98df8a; stroke: #ffffff; stroke-width: 0.75; stroke-linejoin: miter"/>
     <use xlink:href="#m69892182db" x="357.290625" y="46.531425" style="fill: #98df8a; stroke: #ffffff; stroke-width: 0.75; stroke-linejoin: miter"/>
     <use xlink:href="#m69892182db" x="364.376339" y="46.200093" style="fill: #98df8a; stroke: #ffffff; stroke-width: 0.75; stroke-linejoin: miter"/>
     <use xlink:href="#m69892182db" x="371.462054" y="45.79776" style="fill: #98df8a; stroke: #ffffff; stroke-width: 0.75; stroke-linejoin: miter"/>
     <use xlink:href="#m69892182db" x="378.547768" y="45.750427" style="fill: #98df8a; stroke: #ffffff; stroke-width: 0.75; stroke-linejoin: miter"/>
     <use xlink:href="#m69892182db" x="385.633482" y="45.442761" style="fill: #98df8a; stroke: #ffffff; stroke-width: 0.75; stroke-linejoin: miter"/>
     <use xlink:href="#m69892182db" x="392.719196" y="45.324428" style="fill: #98df8a; stroke: #ffffff; stroke-width: 0.75; stroke-linejoin: miter"/>
     <use xlink:href="#m69892182db" x="399.804911" y="45.229762" style="fill: #98df8a; stroke: #ffffff; stroke-width: 0.75; stroke-linejoin: miter"/>
     <use xlink:href="#m69892182db" x="406.890625" y="45.040429" style="fill: #98df8a; stroke: #ffffff; stroke-width: 0.75; stroke-linejoin: miter"/>
     <use xlink:href="#m69892182db" x="413.976339" y="44.61443" style="fill: #98df8a; stroke: #ffffff; stroke-width: 0.75; stroke-linejoin: miter"/>
     <use xlink:href="#m69892182db" x="421.062054" y="44.070098" style="fill: #98df8a; stroke: #ffffff; stroke-width: 0.75; stroke-linejoin: miter"/>
     <use xlink:href="#m69892182db" x="428.147768" y="43.880766" style="fill: #98df8a; stroke: #ffffff; stroke-width: 0.75; stroke-linejoin: miter"/>
     <use xlink:href="#m69892182db" x="435.233482" y="43.857099" style="fill: #98df8a; stroke: #ffffff; stroke-width: 0.75; stroke-linejoin: miter"/>
     <use xlink:href="#m69892182db" x="442.319196" y="43.667766" style="fill: #98df8a; stroke: #ffffff; stroke-width: 0.75; stroke-linejoin: miter"/>
     <use xlink:href="#m69892182db" x="449.404911" y="43.383767" style="fill: #98df8a; stroke: #ffffff; stroke-width: 0.75; stroke-linejoin: miter"/>
     <use xlink:href="#m69892182db" x="456.490625" y="43.3601" style="fill: #98df8a; stroke: #ffffff; stroke-width: 0.75; stroke-linejoin: miter"/>
     <use xlink:href="#m69892182db" x="463.576339" y="43.312767" style="fill: #98df8a; stroke: #ffffff; stroke-width: 0.75; stroke-linejoin: miter"/>
     <use xlink:href="#m69892182db" x="470.662054" y="43.123434" style="fill: #98df8a; stroke: #ffffff; stroke-width: 0.75; stroke-linejoin: miter"/>
     <use xlink:href="#m69892182db" x="477.747768" y="43.076101" style="fill: #98df8a; stroke: #ffffff; stroke-width: 0.75; stroke-linejoin: miter"/>
     <use xlink:href="#m69892182db" x="484.833482" y="43.005101" style="fill: #98df8a; stroke: #ffffff; stroke-width: 0.75; stroke-linejoin: miter"/>
     <use xlink:href="#m69892182db" x="491.919196" y="42.957768" style="fill: #98df8a; stroke: #ffffff; stroke-width: 0.75; stroke-linejoin: miter"/>
     <use xlink:href="#m69892182db" x="499.004911" y="42.910435" style="fill: #98df8a; stroke: #ffffff; stroke-width: 0.75; stroke-linejoin: miter"/>
     <use xlink:href="#m69892182db" x="506.090625" y="42.38977" style="fill: #98df8a; stroke: #ffffff; stroke-width: 0.75; stroke-linejoin: miter"/>
     <use xlink:href="#m69892182db" x="513.176339" y="42.153104" style="fill: #98df8a; stroke: #ffffff; stroke-width: 0.75; stroke-linejoin: miter"/>
     <use xlink:href="#m69892182db" x="520.262054" y="42.10577" style="fill: #98df8a; stroke: #ffffff; stroke-width: 0.75; stroke-linejoin: miter"/>
     <use xlink:href="#m69892182db" x="527.347768" y="42.034771" style="fill: #98df8a; stroke: #ffffff; stroke-width: 0.75; stroke-linejoin: miter"/>
     <use xlink:href="#m69892182db" x="534.433482" y="42.034771" style="fill: #98df8a; stroke: #ffffff; stroke-width: 0.75; stroke-linejoin: miter"/>
     <use xlink:href="#m69892182db" x="541.519196" y="42.011104" style="fill: #98df8a; stroke: #ffffff; stroke-width: 0.75; stroke-linejoin: miter"/>
     <use xlink:href="#m69892182db" x="548.604911" y="41.774438" style="fill: #98df8a; stroke: #ffffff; stroke-width: 0.75; stroke-linejoin: miter"/>
     <use xlink:href="#m69892182db" x="555.690625" y="41.585105" style="fill: #98df8a; stroke: #ffffff; stroke-width: 0.75; stroke-linejoin: miter"/>
     <use xlink:href="#m69892182db" x="562.776339" y="41.419439" style="fill: #98df8a; stroke: #ffffff; stroke-width: 0.75; stroke-linejoin: miter"/>
     <use xlink:href="#m69892182db" x="569.862054" y="41.301106" style="fill: #98df8a; stroke: #ffffff; stroke-width: 0.75; stroke-linejoin: miter"/>
     <use xlink:href="#m69892182db" x="576.947768" y="41.253773" style="fill: #98df8a; stroke: #ffffff; stroke-width: 0.75; stroke-linejoin: miter"/>
     <use xlink:href="#m69892182db" x="584.033482" y="41.040773" style="fill: #98df8a; stroke: #ffffff; stroke-width: 0.75; stroke-linejoin: miter"/>
     <use xlink:href="#m69892182db" x="591.119196" y="40.969774" style="fill: #98df8a; stroke: #ffffff; stroke-width: 0.75; stroke-linejoin: miter"/>
     <use xlink:href="#m69892182db" x="598.204911" y="40.969774" style="fill: #98df8a; stroke: #ffffff; stroke-width: 0.75; stroke-linejoin: miter"/>
     <use xlink:href="#m69892182db" x="605.290625" y="40.92244" style="fill: #98df8a; stroke: #ffffff; stroke-width: 0.75; stroke-linejoin: miter"/>
     <use xlink:href="#m69892182db" x="612.376339" y="40.92244" style="fill: #98df8a; stroke: #ffffff; stroke-width: 0.75; stroke-linejoin: miter"/>
     <use xlink:href="#m69892182db" x="619.462054" y="40.804107" style="fill: #98df8a; stroke: #ffffff; stroke-width: 0.75; stroke-linejoin: miter"/>
     <use xlink:href="#m69892182db" x="626.547768" y="40.733108" style="fill: #98df8a; stroke: #ffffff; stroke-width: 0.75; stroke-linejoin: miter"/>
     <use xlink:href="#m69892182db" x="633.633482" y="40.662108" style="fill: #98df8a; stroke: #ffffff; stroke-width: 0.75; stroke-linejoin: miter"/>
     <use xlink:href="#m69892182db" x="640.719196" y="40.662108" style="fill: #98df8a; stroke: #ffffff; stroke-width: 0.75; stroke-linejoin: miter"/>
     <use xlink:href="#m69892182db" x="647.804911" y="40.567441" style="fill: #98df8a; stroke: #ffffff; stroke-width: 0.75; stroke-linejoin: miter"/>
     <use xlink:href="#m69892182db" x="654.890625" y="40.567441" style="fill: #98df8a; stroke: #ffffff; stroke-width: 0.75; stroke-linejoin: miter"/>
     <use xlink:href="#m69892182db" x="661.976339" y="40.496442" style="fill: #98df8a; stroke: #ffffff; stroke-width: 0.75; stroke-linejoin: miter"/>
     <use xlink:href="#m69892182db" x="669.062054" y="40.425442" style="fill: #98df8a; stroke: #ffffff; stroke-width: 0.75; stroke-linejoin: miter"/>
     <use xlink:href="#m69892182db" x="676.147768" y="40.307109" style="fill: #98df8a; stroke: #ffffff; stroke-width: 0.75; stroke-linejoin: miter"/>
     <use xlink:href="#m69892182db" x="683.233482" y="40.259776" style="fill: #98df8a; stroke: #ffffff; stroke-width: 0.75; stroke-linejoin: miter"/>
     <use xlink:href="#m69892182db" x="690.319196" y="40.212442" style="fill: #98df8a; stroke: #ffffff; stroke-width: 0.75; stroke-linejoin: miter"/>
     <use xlink:href="#m69892182db" x="697.404911" y="40.165109" style="fill: #98df8a; stroke: #ffffff; stroke-width: 0.75; stroke-linejoin: miter"/>
     <use xlink:href="#m69892182db" x="704.490625" y="40.094109" style="fill: #98df8a; stroke: #ffffff; stroke-width: 0.75; stroke-linejoin: miter"/>
     <use xlink:href="#m69892182db" x="711.576339" y="40.046776" style="fill: #98df8a; stroke: #ffffff; stroke-width: 0.75; stroke-linejoin: miter"/>
     <use xlink:href="#m69892182db" x="718.662054" y="39.857443" style="fill: #98df8a; stroke: #ffffff; stroke-width: 0.75; stroke-linejoin: miter"/>
     <use xlink:href="#m69892182db" x="725.747768" y="39.833777" style="fill: #98df8a; stroke: #ffffff; stroke-width: 0.75; stroke-linejoin: miter"/>
     <use xlink:href="#m69892182db" x="732.833482" y="39.691777" style="fill: #98df8a; stroke: #ffffff; stroke-width: 0.75; stroke-linejoin: miter"/>
     <use xlink:href="#m69892182db" x="739.919196" y="39.691777" style="fill: #98df8a; stroke: #ffffff; stroke-width: 0.75; stroke-linejoin: miter"/>
    </g>
   </g>
   <g id="line2d_22"/>
   <g id="line2d_23"/>
   <g id="line2d_24">
    <path d="M 739.919196 288.430125 
L 739.919196 22.318125 
" clip-path="url(#pd21797bc0a)" style="fill: none; stroke: #ff0000; stroke-width: 1.5; stroke-linecap: square"/>
   </g>
   <g id="patch_3">
    <path d="M 59.690625 259.720171 
L 59.690625 23.054156 
" style="fill: none; stroke: #000000; stroke-width: 0.8; stroke-linejoin: miter; stroke-linecap: square"/>
   </g>
   <g id="patch_4">
    <path d="M 59.690625 288.430125 
L 739.919196 288.430125 
" style="fill: none; stroke: #000000; stroke-width: 0.8; stroke-linejoin: miter; stroke-linecap: square"/>
   </g>
   <g id="text_22">
    <!-- libxslt_xpath (24h, at least 10 trials/fuzzer) -->
    <g transform="translate(287.694375 16.318125) scale(0.12 -0.12)">
     <defs>
      <path id="DejaVuSans-6c" d="M 603 4863 
L 1178 4863 
L 1178 0 
L 603 0 
L 603 4863 
z
" transform="scale(0.015625)"/>
      <path id="DejaVuSans-78" d="M 3513 3500 
L 2247 1797 
L 3578 0 
L 2900 0 
L 1881 1375 
L 863 0 
L 184 0 
L 1544 1831 
L 300 3500 
L 978 3500 
L 1906 2253 
L 2834 3500 
L 3513 3500 
z
" transform="scale(0.015625)"/>
      <path id="DejaVuSans-73" d="M 2834 3397 
L 2834 2853 
Q 2591 2978 2328 3040 
Q 2066 3103 1784 3103 
Q 1356 3103 1142 2972 
Q 928 2841 928 2578 
Q 928 2378 1081 2264 
Q 1234 2150 1697 2047 
L 1894 2003 
Q 2506 1872 2764 1633 
Q 3022 1394 3022 966 
Q 3022 478 2636 193 
Q 2250 -91 1575 -91 
Q 1294 -91 989 -36 
Q 684 19 347 128 
L 347 722 
Q 666 556 975 473 
Q 1284 391 1588 391 
Q 1994 391 2212 530 
Q 2431 669 2431 922 
Q 2431 1156 2273 1281 
Q 2116 1406 1581 1522 
L 1381 1569 
Q 847 1681 609 1914 
Q 372 2147 372 2553 
Q 372 3047 722 3315 
Q 1072 3584 1716 3584 
Q 2034 3584 2315 3537 
Q 2597 3491 2834 3397 
z
" transform="scale(0.015625)"/>
      <path id="DejaVuSans-5f" d="M 3263 -1063 
L 3263 -1509 
L -63 -1509 
L -63 -1063 
L 3263 -1063 
z
" transform="scale(0.015625)"/>
      <path id="DejaVuSans-70" d="M 1159 525 
L 1159 -1331 
L 581 -1331 
L 581 3500 
L 1159 3500 
L 1159 2969 
Q 1341 3281 1617 3432 
Q 1894 3584 2278 3584 
Q 2916 3584 3314 3078 
Q 3713 2572 3713 1747 
Q 3713 922 3314 415 
Q 2916 -91 2278 -91 
Q 1894 -91 1617 61 
Q 1341 213 1159 525 
z
M 3116 1747 
Q 3116 2381 2855 2742 
Q 2594 3103 2138 3103 
Q 1681 3103 1420 2742 
Q 1159 2381 1159 1747 
Q 1159 1113 1420 752 
Q 1681 391 2138 391 
Q 2594 391 2855 752 
Q 3116 1113 3116 1747 
z
" transform="scale(0.015625)"/>
      <path id="DejaVuSans-2c" d="M 750 794 
L 1409 794 
L 1409 256 
L 897 -744 
L 494 -744 
L 750 256 
L 750 794 
z
" transform="scale(0.015625)"/>
      <path id="DejaVuSans-2f" d="M 1625 4666 
L 2156 4666 
L 531 -594 
L 0 -594 
L 1625 4666 
z
" transform="scale(0.015625)"/>
      <path id="DejaVuSans-66" d="M 2375 4863 
L 2375 4384 
L 1825 4384 
Q 1516 4384 1395 4259 
Q 1275 4134 1275 3809 
L 1275 3500 
L 2222 3500 
L 2222 3053 
L 1275 3053 
L 1275 0 
L 697 0 
L 697 3053 
L 147 3053 
L 147 3500 
L 697 3500 
L 697 3744 
Q 697 4328 969 4595 
Q 1241 4863 1831 4863 
L 2375 4863 
z
" transform="scale(0.015625)"/>
      <path id="DejaVuSans-7a" d="M 353 3500 
L 3084 3500 
L 3084 2975 
L 922 459 
L 3084 459 
L 3084 0 
L 275 0 
L 275 525 
L 2438 3041 
L 353 3041 
L 353 3500 
z
" transform="scale(0.015625)"/>
     </defs>
     <use xlink:href="#DejaVuSans-6c"/>
     <use xlink:href="#DejaVuSans-69" x="27.783203"/>
     <use xlink:href="#DejaVuSans-62" x="55.566406"/>
     <use xlink:href="#DejaVuSans-78" x="119.042969"/>
     <use xlink:href="#DejaVuSans-73" x="178.222656"/>
     <use xlink:href="#DejaVuSans-6c" x="230.322266"/>
     <use xlink:href="#DejaVuSans-74" x="258.105469"/>
     <use xlink:href="#DejaVuSans-5f" x="297.314453"/>
     <use xlink:href="#DejaVuSans-78" x="347.314453"/>
     <use xlink:href="#DejaVuSans-70" x="406.494141"/>
     <use xlink:href="#DejaVuSans-61" x="469.970703"/>
     <use xlink:href="#DejaVuSans-74" x="531.25"/>
     <use xlink:href="#DejaVuSans-68" x="570.458984"/>
     <use xlink:href="#DejaVuSans-20" x="633.837891"/>
     <use xlink:href="#DejaVuSans-28" x="665.625"/>
     <use xlink:href="#DejaVuSans-32" x="704.638672"/>
     <use xlink:href="#DejaVuSans-34" x="768.261719"/>
     <use xlink:href="#DejaVuSans-68" x="831.884766"/>
     <use xlink:href="#DejaVuSans-2c" x="895.263672"/>
     <use xlink:href="#DejaVuSans-20" x="927.050781"/>
     <use xlink:href="#DejaVuSans-61" x="958.837891"/>
     <use xlink:href="#DejaVuSans-74" x="1020.117188"/>
     <use xlink:href="#DejaVuSans-20" x="1059.326172"/>
     <use xlink:href="#DejaVuSans-6c" x="1091.113281"/>
     <use xlink:href="#DejaVuSans-65" x="1118.896484"/>
     <use xlink:href="#DejaVuSans-61" x="1180.419922"/>
     <use xlink:href="#DejaVuSans-73" x="1241.699219"/>
     <use xlink:href="#DejaVuSans-74" x="1293.798828"/>
     <use xlink:href="#DejaVuSans-20" x="1333.007812"/>
     <use xlink:href="#DejaVuSans-31" x="1364.794922"/>
     <use xlink:href="#DejaVuSans-30" x="1428.417969"/>
     <use xlink:href="#DejaVuSans-20" x="1492.041016"/>
     <use xlink:href="#DejaVuSans-74" x="1523.828125"/>
     <use xlink:href="#DejaVuSans-72" x="1563.037109"/>
     <use xlink:href="#DejaVuSans-69" x="1604.150391"/>
     <use xlink:href="#DejaVuSans-61" x="1631.933594"/>
     <use xlink:href="#DejaVuSans-6c" x="1693.212891"/>
     <use xlink:href="#DejaVuSans-73" x="1720.996094"/>
     <use xlink:href="#DejaVuSans-2f" x="1773.095703"/>
     <use xlink:href="#DejaVuSans-66" x="1806.787109"/>
     <use xlink:href="#DejaVuSans-75" x="1841.992188"/>
     <use xlink:href="#DejaVuSans-7a" x="1905.371094"/>
     <use xlink:href="#DejaVuSans-7a" x="1957.861328"/>
     <use xlink:href="#DejaVuSans-65" x="2010.351562"/>
     <use xlink:href="#DejaVuSans-72" x="2071.875"/>
     <use xlink:href="#DejaVuSans-29" x="2112.988281"/>
    </g>
   </g>
   <g id="legend_1">
    <g id="line2d_25">
     <path d="M 777.930625 30.416562 
L 787.930625 30.416562 
L 797.930625 30.416562 
" style="fill: none; stroke: #1f77b4; stroke-width: 1.5; stroke-linecap: square"/>
     <defs>
      <path id="mda73ec71a8" d="M 0 3 
C 0.795609 3 1.55874 2.683901 2.12132 2.12132 
C 2.683901 1.55874 3 0.795609 3 0 
C 3 -0.795609 2.683901 -1.55874 2.12132 -2.12132 
C 1.55874 -2.683901 0.795609 -3 0 -3 
C -0.795609 -3 -1.55874 -2.683901 -2.12132 -2.12132 
C -2.683901 -1.55874 -3 -0.795609 -3 0 
C -3 0.795609 -2.683901 1.55874 -2.12132 2.12132 
C -1.55874 2.683901 -0.795609 3 0 3 
z
" style="stroke: #1f77b4"/>
     </defs>
     <g>
      <use xlink:href="#mda73ec71a8" x="787.930625" y="30.416562" style="fill: #1f77b4; stroke: #1f77b4"/>
     </g>
    </g>
    <g id="text_23">
     <!-- darwin -->
     <g transform="translate(805.930625 33.916562) scale(0.1 -0.1)">
      <defs>
       <path id="DejaVuSans-77" d="M 269 3500 
L 844 3500 
L 1563 769 
L 2278 3500 
L 2956 3500 
L 3675 769 
L 4391 3500 
L 4966 3500 
L 4050 0 
L 3372 0 
L 2619 2869 
L 1863 0 
L 1184 0 
L 269 3500 
z
" transform="scale(0.015625)"/>
      </defs>
      <use xlink:href="#DejaVuSans-64"/>
      <use xlink:href="#DejaVuSans-61" x="63.476562"/>
      <use xlink:href="#DejaVuSans-72" x="124.755859"/>
      <use xlink:href="#DejaVuSans-77" x="165.869141"/>
      <use xlink:href="#DejaVuSans-69" x="247.65625"/>
      <use xlink:href="#DejaVuSans-6e" x="275.439453"/>
     </g>
    </g>
    <g id="line2d_26">
     <path d="M 777.930625 45.094688 
L 787.930625 45.094688 
L 797.930625 45.094688 
" style="fill: none; stroke: #98df8a; stroke-width: 1.5; stroke-linecap: square"/>
     <defs>
      <path id="m7c465e5db5" d="M -0 3 
L 3 -3 
L -3 -3 
z
" style="stroke: #98df8a; stroke-linejoin: miter"/>
     </defs>
     <g>
      <use xlink:href="#m7c465e5db5" x="787.930625" y="45.094688" style="fill: #98df8a; stroke: #98df8a; stroke-linejoin: miter"/>
     </g>
    </g>
    <g id="text_24">
     <!-- darwin_no_pre_seed -->
     <g transform="translate(805.930625 48.594688) scale(0.1 -0.1)">
      <use xlink:href="#DejaVuSans-64"/>
      <use xlink:href="#DejaVuSans-61" x="63.476562"/>
      <use xlink:href="#DejaVuSans-72" x="124.755859"/>
      <use xlink:href="#DejaVuSans-77" x="165.869141"/>
      <use xlink:href="#DejaVuSans-69" x="247.65625"/>
      <use xlink:href="#DejaVuSans-6e" x="275.439453"/>
      <use xlink:href="#DejaVuSans-5f" x="338.818359"/>
      <use xlink:href="#DejaVuSans-6e" x="388.818359"/>
      <use xlink:href="#DejaVuSans-6f" x="452.197266"/>
      <use xlink:href="#DejaVuSans-5f" x="513.378906"/>
      <use xlink:href="#DejaVuSans-70" x="563.378906"/>
      <use xlink:href="#DejaVuSans-72" x="626.855469"/>
      <use xlink:href="#DejaVuSans-65" x="665.71875"/>
      <use xlink:href="#DejaVuSans-5f" x="727.242188"/>
      <use xlink:href="#DejaVuSans-73" x="777.242188"/>
      <use xlink:href="#DejaVuSans-65" x="829.341797"/>
      <use xlink:href="#DejaVuSans-65" x="890.865234"/>
      <use xlink:href="#DejaVuSans-64" x="952.388672"/>
     </g>
    </g>
   </g>
  </g>
 </g>
 <defs>
  <clipPath id="pd21797bc0a">
   <rect x="59.690625" y="22.318125" width="714.24" height="266.112"/>
  </clipPath>
 </defs>
</svg>
