<?xml version="1.0" encoding="utf-8" standalone="no"?>
<!DOCTYPE svg PUBLIC "-//W3C//DTD SVG 1.1//EN"
  "http://www.w3.org/Graphics/SVG/1.1/DTD/svg11.dtd">
<svg xmlns:xlink="http://www.w3.org/1999/xlink" width="918.719687pt" height="325.986375pt" viewBox="0 0 918.719687 325.986375" xmlns="http://www.w3.org/2000/svg" version="1.1">
 <metadata>
  <rdf:RDF xmlns:dc="http://purl.org/dc/elements/1.1/" xmlns:cc="http://creativecommons.org/ns#" xmlns:rdf="http://www.w3.org/1999/02/22-rdf-syntax-ns#">
   <cc:Work>
    <dc:type rdf:resource="http://purl.org/dc/dcmitype/StillImage"/>
    <dc:date>2023-08-02T15:43:03.180696</dc:date>
    <dc:format>image/svg+xml</dc:format>
    <dc:creator>
     <cc:Agent>
      <dc:title>Matplotlib v3.7.1, https://matplotlib.org/</dc:title>
     </cc:Agent>
    </dc:creator>
   </cc:Work>
  </rdf:RDF>
 </metadata>
 <defs>
  <style type="text/css">*{stroke-linejoin: round; stroke-linecap: butt}</style>
 </defs>
 <g id="figure_1">
  <g id="patch_1">
   <path d="M 0 325.986375 
L 918.719687 325.986375 
L 918.719687 0 
L 0 0 
z
" style="fill: #ffffff"/>
  </g>
  <g id="axes_1">
   <g id="patch_2">
    <path d="M 59.690625 288.430125 
L 773.930625 288.430125 
L 773.930625 22.318125 
L 59.690625 22.318125 
z
" style="fill: #ffffff"/>
   </g>
   <g id="PolyCollection_1">
    <defs>
     <path id="mee783507a2" d="M 59.690625 -49.65225 
L 59.690625 -49.65225 
L 525.836797 -182.963824 
L 563.114139 -190.360097 
L 584.919987 -195.73189 
L 600.391482 -199.257869 
L 612.392105 -202.570869 
L 622.197329 -205.031955 
L 630.487527 -205.00829 
L 637.668824 -206.404483 
L 644.003176 -210.47474 
L 649.669448 -211.847269 
L 654.795213 -213.598426 
L 659.474671 -214.261026 
L 663.779355 -216.390812 
L 667.76487 -214.757976 
L 671.475295 -238.067298 
L 674.946166 -241.506902 
L 678.206548 -265.735582 
L 681.280519 -264.749965 
L 684.188245 -265.470542 
L 686.94679 -268.428578 
L 689.570717 -269.943092 
L 692.072556 -271.286632 
L 694.463164 -271.173635 
L 696.752013 -271.694249 
L 698.947414 -272.475171 
L 701.056697 -272.238528 
L 703.086366 -272.948457 
L 705.042212 -273.421742 
L 706.929417 -274.297321 
L 708.752637 -274.936257 
L 710.516069 -275.551528 
L 712.223508 -275.859164 
L 713.878403 -276.214128 
L 715.483891 -276.924057 
L 717.042836 -277.255357 
L 718.557861 -277.373678 
L 720.031373 -277.350014 
L 721.465587 -278.1546 
L 722.862545 -278.438571 
L 724.224132 -278.012614 
L 725.552097 -278.713077 
L 726.848059 -279.006514 
L 728.113525 -279.1485 
L 729.349898 -279.716443 
L 730.558485 -280.000414 
L 731.740507 -280.095071 
L 732.897107 -280.189728 
L 734.029356 -280.852328 
L 735.138258 -280.852328 
L 736.224756 -280.994314 
L 737.289738 -281.183628 
L 738.334039 -281.4676 
L 739.358448 -281.4676 
L 740.363708 -281.4676 
L 741.350522 -281.514928 
L 742.319554 -281.609585 
L 743.271434 -281.7989 
L 744.20676 -281.7989 
L 745.126095 -282.1302 
L 746.029979 -282.272185 
L 746.918923 -282.4615 
L 747.793411 -282.508828 
L 748.653907 -282.508828 
L 749.500851 -282.508828 
L 750.334663 -282.508828 
L 751.155745 -282.603485 
L 751.96448 -282.887457 
L 752.761233 -282.7928 
L 753.546354 -282.982114 
L 754.320178 -283.218757 
L 755.083025 -283.4554 
L 755.835203 -283.739371 
L 756.577006 -283.928685 
L 757.308715 -283.976014 
L 758.030603 -284.023343 
L 758.742929 -284.212657 
L 759.445944 -284.212657 
L 760.139887 -284.259985 
L 760.82499 -284.354643 
L 761.501474 -284.733271 
L 762.169555 -285.561521 
L 762.829439 -285.561521 
L 763.481324 -285.585186 
L 764.125401 -286.4371 
L 764.761857 -285.892821 
L 765.390868 -286.224121 
L 766.012607 -286.224121 
L 766.62724 -286.531757 
L 767.234929 -286.2679 
L 767.835827 -286.224121 
L 768.430085 -286.484428 
L 769.017849 -286.389771 
L 769.599258 -286.531757 
L 770.174449 -286.7684 
L 770.743553 -286.7684 
L 771.306698 -286.7684 
L 771.306698 -291.335607 
L 771.306698 -291.335607 
L 770.743553 -291.335607 
L 770.174449 -290.515048 
L 769.599258 -290.507357 
L 769.017849 -290.980643 
L 768.430085 -290.517414 
L 767.835827 -290.365371 
L 767.234929 -290.365371 
L 766.62724 -290.176057 
L 766.012607 -290.294379 
L 765.390868 -290.602014 
L 764.761857 -290.554686 
L 764.125401 -289.987926 
L 763.481324 -289.986743 
L 762.829439 -289.986743 
L 762.169555 -290.483693 
L 761.501474 -288.850857 
L 760.82499 -289.707504 
L 760.139887 -289.631779 
L 759.445944 -289.182157 
L 758.742929 -289.560786 
L 758.030603 -289.395136 
L 757.308715 -288.992843 
L 756.577006 -288.803528 
L 755.835203 -288.857365 
L 755.083025 -288.661543 
L 754.320178 -288.084726 
L 753.546354 -287.785964 
L 752.761233 -288.401236 
L 751.96448 -288.377571 
L 751.155745 -287.273041 
L 750.334663 -287.448156 
L 749.500851 -288.211921 
L 748.653907 -287.880621 
L 747.793411 -287.998943 
L 746.918923 -287.620314 
L 746.029979 -287.549321 
L 745.126095 -287.501993 
L 744.20676 -287.383671 
L 743.271434 -286.111124 
L 742.319554 -286.484428 
L 741.350522 -285.642571 
L 740.363708 -287.123364 
L 739.358448 -285.395871 
L 738.334039 -286.484428 
L 737.289738 -286.460764 
L 736.224756 -286.247786 
L 735.138258 -285.727171 
L 734.029356 -285.60885 
L 732.897107 -285.313046 
L 731.740507 -285.171652 
L 730.558485 -285.419536 
L 729.349898 -285.230221 
L 728.113525 -283.976014 
L 726.848059 -284.543957 
L 725.552097 -284.378307 
L 724.224132 -284.259985 
L 722.862545 -283.1241 
L 721.465587 -282.698143 
L 720.031373 -282.390507 
L 718.557861 -282.414171 
L 717.042836 -279.953085 
L 715.483891 -281.349278 
L 713.878403 -280.899657 
L 712.223508 -280.63935 
L 710.516069 -280.379043 
L 708.752637 -279.961368 
L 706.929417 -279.669114 
L 705.042212 -279.811691 
L 703.086366 -279.195828 
L 701.056697 -279.172164 
L 698.947414 -278.201928 
L 696.752013 -276.000558 
L 694.463164 -275.882828 
L 692.072556 -276.095807 
L 689.570717 -276.356114 
L 686.94679 -274.557628 
L 684.188245 -274.439307 
L 681.280519 -274.155335 
L 678.206548 -272.475171 
L 674.946166 -271.623257 
L 671.475295 -271.883564 
L 667.76487 -270.061414 
L 663.779355 -269.777442 
L 659.474671 -269.493471 
L 654.795213 -269.493471 
L 649.669448 -269.351485 
L 644.003176 -268.594228 
L 637.668824 -264.098013 
L 630.487527 -262.394185 
L 622.197329 -257.755985 
L 612.392105 -256.57277 
L 600.391482 -254.963599 
L 584.919987 -249.899442 
L 563.114139 -246.042755 
L 525.836797 -241.711599 
L 59.690625 -49.65225 
z
" style="stroke: #1f77b4; stroke-opacity: 0.2"/>
    </defs>
    <g clip-path="url(#p25f00e8ea1)">
     <use xlink:href="#mee783507a2" x="0" y="325.986375" style="fill: #1f77b4; fill-opacity: 0.2; stroke: #1f77b4; stroke-opacity: 0.2"/>
    </g>
   </g>
   <g id="PolyCollection_2">
    <defs>
     <path id="m7ac9279eb0" d="M 59.690625 -49.65225 
L 59.690625 -49.65225 
L 525.836797 -183.947075 
L 563.114139 -194.217376 
L 584.919987 -197.838012 
L 600.391482 -200.630397 
L 612.392105 -203.943397 
L 622.197329 -228.57792 
L 630.487527 -225.477898 
L 637.668824 -226.992412 
L 644.003176 -251.674263 
L 649.669448 -253.401756 
L 654.795213 -258.56057 
L 659.474671 -259.033856 
L 663.779355 -260.264399 
L 667.76487 -260.501042 
L 671.475295 -258.631563 
L 674.946166 -261.802578 
L 678.206548 -262.157542 
L 681.280519 -263.139018 
L 684.188245 -265.091914 
L 686.94679 -265.423214 
L 689.570717 -264.192671 
L 692.072556 -266.788643 
L 694.463164 -264.642292 
L 696.752013 -267.411014 
L 698.947414 -263.908699 
L 701.056697 -266.464442 
L 703.086366 -267.789642 
L 705.042212 -268.026285 
L 706.929417 -268.026285 
L 708.752637 -268.11266 
L 710.516069 -268.168271 
L 712.223508 -268.168271 
L 713.878403 -269.872099 
L 715.483891 -269.966757 
L 717.042836 -270.014085 
L 718.557861 -270.156071 
L 720.031373 -270.203399 
L 721.465587 -270.440042 
L 722.862545 -270.487371 
L 724.224132 -270.487371 
L 725.552097 -270.487371 
L 726.848059 -270.84411 
L 728.113525 -271.670585 
L 729.349898 -271.812571 
L 730.558485 -271.812571 
L 731.740507 -272.759142 
L 732.897107 -271.457607 
L 734.029356 -272.995785 
L 735.138258 -273.043114 
L 736.224756 -273.374414 
L 737.289738 -273.421742 
L 738.334039 -274.084342 
L 739.358448 -274.604957 
L 740.363708 -274.699614 
L 741.350522 -275.030914 
L 742.319554 -274.888928 
L 743.271434 -275.314885 
L 744.20676 -275.551528 
L 745.126095 -275.598857 
L 746.029979 -275.598857 
L 746.918923 -276.024814 
L 747.793411 -276.024814 
L 748.653907 -276.119471 
L 749.500851 -276.214128 
L 750.334663 -276.450771 
L 751.155745 -276.592757 
L 751.96448 -276.592757 
L 752.761233 -276.592757 
L 753.546354 -276.640085 
L 754.320178 -277.681314 
L 755.083025 -277.728642 
L 755.835203 -277.8233 
L 756.577006 -278.343914 
L 757.308715 -277.728642 
L 758.030603 -278.438571 
L 758.742929 -278.4859 
L 759.445944 -278.722542 
L 760.139887 -278.8172 
L 760.82499 -278.864528 
L 761.501474 -279.432471 
L 762.169555 -280.663014 
L 762.829439 -281.420271 
L 763.481324 -281.562257 
L 764.125401 -281.751571 
L 764.761857 -281.751571 
L 765.390868 -281.751571 
L 766.012607 -281.940885 
L 766.62724 -281.988214 
L 767.234929 -281.988214 
L 767.835827 -282.745471 
L 768.430085 -282.7928 
L 769.017849 -282.840128 
L 769.599258 -283.928685 
L 770.174449 -283.155455 
L 770.743553 -284.070671 
L 771.306698 -283.171428 
L 771.306698 -290.602014 
L 771.306698 -290.602014 
L 770.743553 -291.57225 
L 770.174449 -291.041578 
L 769.599258 -291.57225 
L 769.017849 -290.556461 
L 768.430085 -291.524921 
L 767.835827 -290.460029 
L 767.234929 -291.477593 
L 766.62724 -290.223386 
L 766.012607 -290.294379 
L 765.390868 -291.335607 
L 764.761857 -290.057736 
L 764.125401 -289.940597 
L 763.481324 -289.826417 
L 762.829439 -289.939414 
L 762.169555 -289.776131 
L 761.501474 -289.821093 
L 760.82499 -289.773764 
L 760.139887 -289.608114 
L 759.445944 -289.537121 
L 758.742929 -289.466129 
L 758.030603 -289.205821 
L 757.308715 -288.827193 
L 756.577006 -289.442464 
L 755.835203 -289.4188 
L 755.083025 -289.371471 
L 754.320178 -287.241686 
L 753.546354 -286.960672 
L 752.761233 -286.815728 
L 751.96448 -286.93405 
L 751.155745 -286.93405 
L 750.334663 -286.744736 
L 749.500851 -286.703915 
L 748.653907 -287.714971 
L 747.793411 -286.626414 
L 746.918923 -286.224121 
L 746.029979 -286.153128 
L 745.126095 -286.082136 
L 744.20676 -286.011143 
L 743.271434 -286.131239 
L 742.319554 -286.011143 
L 741.350522 -285.821828 
L 740.363708 -285.60885 
L 739.358448 -285.585186 
L 738.334039 -285.4432 
L 737.289738 -286.463131 
L 736.224756 -285.182893 
L 735.138258 -285.135564 
L 734.029356 -284.969914 
L 732.897107 -284.827928 
L 731.740507 -283.550057 
L 730.558485 -284.472964 
L 729.349898 -284.307314 
L 728.113525 -284.425636 
L 726.848059 -283.053107 
L 725.552097 -284.000862 
L 724.224132 -283.95235 
L 722.862545 -283.834028 
L 721.465587 -283.905021 
L 720.031373 -283.257211 
L 718.557861 -282.29585 
L 717.042836 -282.1302 
L 715.483891 -282.745471 
L 713.878403 -280.986623 
L 712.223508 -281.420271 
L 710.516069 -280.713892 
L 708.752637 -281.088971 
L 706.929417 -280.402707 
L 705.042212 -280.615685 
L 703.086366 -279.503464 
L 701.056697 -278.864528 
L 698.947414 -278.059942 
L 696.752013 -278.629069 
L 694.463164 -275.477577 
L 692.072556 -277.707345 
L 689.570717 -277.137035 
L 686.94679 -276.66375 
L 684.188245 -275.5817 
L 681.280519 -273.753042 
L 678.206548 -273.232428 
L 674.946166 -272.853799 
L 671.475295 -271.055314 
L 667.76487 -270.463707 
L 663.779355 -269.824771 
L 659.474671 -269.114842 
L 654.795213 -267.505671 
L 649.669448 -267.694985 
L 644.003176 -265.612528 
L 637.668824 -265.068249 
L 630.487527 -263.198771 
L 622.197329 -260.453713 
L 612.392105 -255.24757 
L 600.391482 -250.62771 
L 584.919987 -246.207813 
L 563.114139 -240.575713 
L 525.836797 -230.092434 
L 59.690625 -49.65225 
z
" style="stroke: #98df8a; stroke-opacity: 0.2"/>
    </defs>
    <g clip-path="url(#p25f00e8ea1)">
     <use xlink:href="#m7ac9279eb0" x="0" y="325.986375" style="fill: #98df8a; fill-opacity: 0.2; stroke: #98df8a; stroke-opacity: 0.2"/>
    </g>
   </g>
   <g id="matplotlib.axis_1">
    <g id="xtick_1">
     <g id="line2d_1">
      <defs>
       <path id="mf9f7d549f7" d="M 0 0 
L 0 3.5 
" style="stroke: #000000; stroke-width: 0.8"/>
      </defs>
      <g>
       <use xlink:href="#mf9f7d549f7" x="59.690625" y="288.430125" style="stroke: #000000; stroke-width: 0.8"/>
      </g>
     </g>
     <g id="text_1">
      <!-- 0m -->
      <g transform="translate(51.639063 303.028562) scale(0.1 -0.1)">
       <defs>
        <path id="DejaVuSans-30" d="M 2034 4250 
Q 1547 4250 1301 3770 
Q 1056 3291 1056 2328 
Q 1056 1369 1301 889 
Q 1547 409 2034 409 
Q 2525 409 2770 889 
Q 3016 1369 3016 2328 
Q 3016 3291 2770 3770 
Q 2525 4250 2034 4250 
z
M 2034 4750 
Q 2819 4750 3233 4129 
Q 3647 3509 3647 2328 
Q 3647 1150 3233 529 
Q 2819 -91 2034 -91 
Q 1250 -91 836 529 
Q 422 1150 422 2328 
Q 422 3509 836 4129 
Q 1250 4750 2034 4750 
z
" transform="scale(0.015625)"/>
        <path id="DejaVuSans-6d" d="M 3328 2828 
Q 3544 3216 3844 3400 
Q 4144 3584 4550 3584 
Q 5097 3584 5394 3201 
Q 5691 2819 5691 2113 
L 5691 0 
L 5113 0 
L 5113 2094 
Q 5113 2597 4934 2840 
Q 4756 3084 4391 3084 
Q 3944 3084 3684 2787 
Q 3425 2491 3425 1978 
L 3425 0 
L 2847 0 
L 2847 2094 
Q 2847 2600 2669 2842 
Q 2491 3084 2119 3084 
Q 1678 3084 1418 2786 
Q 1159 2488 1159 1978 
L 1159 0 
L 581 0 
L 581 3500 
L 1159 3500 
L 1159 2956 
Q 1356 3278 1631 3431 
Q 1906 3584 2284 3584 
Q 2666 3584 2933 3390 
Q 3200 3197 3328 2828 
z
" transform="scale(0.015625)"/>
       </defs>
       <use xlink:href="#DejaVuSans-30"/>
       <use xlink:href="#DejaVuSans-6d" x="63.623047"/>
      </g>
     </g>
    </g>
    <g id="xtick_2">
     <g id="line2d_2">
      <g>
       <use xlink:href="#mf9f7d549f7" x="128.486542" y="288.430125" style="stroke: #000000; stroke-width: 0.8"/>
      </g>
     </g>
    </g>
    <g id="xtick_3">
     <g id="line2d_3">
      <g>
       <use xlink:href="#mf9f7d549f7" x="221.135337" y="288.430125" style="stroke: #000000; stroke-width: 0.8"/>
      </g>
     </g>
    </g>
    <g id="xtick_4">
     <g id="line2d_4">
      <g>
       <use xlink:href="#mf9f7d549f7" x="282.265557" y="288.430125" style="stroke: #000000; stroke-width: 0.8"/>
      </g>
     </g>
    </g>
    <g id="xtick_5">
     <g id="line2d_5">
      <g>
       <use xlink:href="#mf9f7d549f7" x="343.395778" y="288.430125" style="stroke: #000000; stroke-width: 0.8"/>
      </g>
     </g>
    </g>
    <g id="xtick_6">
     <g id="line2d_6">
      <g>
       <use xlink:href="#mf9f7d549f7" x="404.525998" y="288.430125" style="stroke: #000000; stroke-width: 0.8"/>
      </g>
     </g>
     <g id="text_2">
      <!-- 1m -->
      <g transform="translate(396.474436 303.028562) scale(0.1 -0.1)">
       <defs>
        <path id="DejaVuSans-31" d="M 794 531 
L 1825 531 
L 1825 4091 
L 703 3866 
L 703 4441 
L 1819 4666 
L 2450 4666 
L 2450 531 
L 3481 531 
L 3481 0 
L 794 0 
L 794 531 
z
" transform="scale(0.015625)"/>
       </defs>
       <use xlink:href="#DejaVuSans-31"/>
       <use xlink:href="#DejaVuSans-6d" x="63.623047"/>
      </g>
     </g>
    </g>
    <g id="xtick_7">
     <g id="line2d_7">
      <g>
       <use xlink:href="#mf9f7d549f7" x="465.656219" y="288.430125" style="stroke: #000000; stroke-width: 0.8"/>
      </g>
     </g>
     <g id="text_3">
      <!-- 4m -->
      <g transform="translate(457.604656 303.028562) scale(0.1 -0.1)">
       <defs>
        <path id="DejaVuSans-34" d="M 2419 4116 
L 825 1625 
L 2419 1625 
L 2419 4116 
z
M 2253 4666 
L 3047 4666 
L 3047 1625 
L 3713 1625 
L 3713 1100 
L 3047 1100 
L 3047 0 
L 2419 0 
L 2419 1100 
L 313 1100 
L 313 1709 
L 2253 4666 
z
" transform="scale(0.015625)"/>
       </defs>
       <use xlink:href="#DejaVuSans-34"/>
       <use xlink:href="#DejaVuSans-6d" x="63.623047"/>
      </g>
     </g>
    </g>
    <g id="xtick_8">
     <g id="line2d_8">
      <g>
       <use xlink:href="#mf9f7d549f7" x="526.786439" y="288.430125" style="stroke: #000000; stroke-width: 0.8"/>
      </g>
     </g>
     <g id="text_4">
      <!-- 15m -->
      <g transform="translate(515.553626 303.028562) scale(0.1 -0.1)">
       <defs>
        <path id="DejaVuSans-35" d="M 691 4666 
L 3169 4666 
L 3169 4134 
L 1269 4134 
L 1269 2991 
Q 1406 3038 1543 3061 
Q 1681 3084 1819 3084 
Q 2600 3084 3056 2656 
Q 3513 2228 3513 1497 
Q 3513 744 3044 326 
Q 2575 -91 1722 -91 
Q 1428 -91 1123 -41 
Q 819 9 494 109 
L 494 744 
Q 775 591 1075 516 
Q 1375 441 1709 441 
Q 2250 441 2565 725 
Q 2881 1009 2881 1497 
Q 2881 1984 2565 2268 
Q 2250 2553 1709 2553 
Q 1456 2553 1204 2497 
Q 953 2441 691 2322 
L 691 4666 
z
" transform="scale(0.015625)"/>
       </defs>
       <use xlink:href="#DejaVuSans-31"/>
       <use xlink:href="#DejaVuSans-35" x="63.623047"/>
       <use xlink:href="#DejaVuSans-6d" x="127.246094"/>
      </g>
     </g>
    </g>
    <g id="xtick_9">
     <g id="line2d_9">
      <g>
       <use xlink:href="#mf9f7d549f7" x="587.916659" y="288.430125" style="stroke: #000000; stroke-width: 0.8"/>
      </g>
     </g>
     <g id="text_5">
      <!-- 47m -->
      <g transform="translate(576.683847 303.028562) scale(0.1 -0.1)">
       <defs>
        <path id="DejaVuSans-37" d="M 525 4666 
L 3525 4666 
L 3525 4397 
L 1831 0 
L 1172 0 
L 2766 4134 
L 525 4134 
L 525 4666 
z
" transform="scale(0.015625)"/>
       </defs>
       <use xlink:href="#DejaVuSans-34"/>
       <use xlink:href="#DejaVuSans-37" x="63.623047"/>
       <use xlink:href="#DejaVuSans-6d" x="127.246094"/>
      </g>
     </g>
    </g>
    <g id="xtick_10">
     <g id="line2d_10">
      <g>
       <use xlink:href="#mf9f7d549f7" x="649.04688" y="288.430125" style="stroke: #000000; stroke-width: 0.8"/>
      </g>
     </g>
     <g id="text_6">
      <!-- 2h:28m -->
      <g transform="translate(629.779692 303.028562) scale(0.1 -0.1)">
       <defs>
        <path id="DejaVuSans-32" d="M 1228 531 
L 3431 531 
L 3431 0 
L 469 0 
L 469 531 
Q 828 903 1448 1529 
Q 2069 2156 2228 2338 
Q 2531 2678 2651 2914 
Q 2772 3150 2772 3378 
Q 2772 3750 2511 3984 
Q 2250 4219 1831 4219 
Q 1534 4219 1204 4116 
Q 875 4013 500 3803 
L 500 4441 
Q 881 4594 1212 4672 
Q 1544 4750 1819 4750 
Q 2544 4750 2975 4387 
Q 3406 4025 3406 3419 
Q 3406 3131 3298 2873 
Q 3191 2616 2906 2266 
Q 2828 2175 2409 1742 
Q 1991 1309 1228 531 
z
" transform="scale(0.015625)"/>
        <path id="DejaVuSans-68" d="M 3513 2113 
L 3513 0 
L 2938 0 
L 2938 2094 
Q 2938 2591 2744 2837 
Q 2550 3084 2163 3084 
Q 1697 3084 1428 2787 
Q 1159 2491 1159 1978 
L 1159 0 
L 581 0 
L 581 4863 
L 1159 4863 
L 1159 2956 
Q 1366 3272 1645 3428 
Q 1925 3584 2291 3584 
Q 2894 3584 3203 3211 
Q 3513 2838 3513 2113 
z
" transform="scale(0.015625)"/>
        <path id="DejaVuSans-3a" d="M 750 794 
L 1409 794 
L 1409 0 
L 750 0 
L 750 794 
z
M 750 3309 
L 1409 3309 
L 1409 2516 
L 750 2516 
L 750 3309 
z
" transform="scale(0.015625)"/>
        <path id="DejaVuSans-38" d="M 2034 2216 
Q 1584 2216 1326 1975 
Q 1069 1734 1069 1313 
Q 1069 891 1326 650 
Q 1584 409 2034 409 
Q 2484 409 2743 651 
Q 3003 894 3003 1313 
Q 3003 1734 2745 1975 
Q 2488 2216 2034 2216 
z
M 1403 2484 
Q 997 2584 770 2862 
Q 544 3141 544 3541 
Q 544 4100 942 4425 
Q 1341 4750 2034 4750 
Q 2731 4750 3128 4425 
Q 3525 4100 3525 3541 
Q 3525 3141 3298 2862 
Q 3072 2584 2669 2484 
Q 3125 2378 3379 2068 
Q 3634 1759 3634 1313 
Q 3634 634 3220 271 
Q 2806 -91 2034 -91 
Q 1263 -91 848 271 
Q 434 634 434 1313 
Q 434 1759 690 2068 
Q 947 2378 1403 2484 
z
M 1172 3481 
Q 1172 3119 1398 2916 
Q 1625 2713 2034 2713 
Q 2441 2713 2670 2916 
Q 2900 3119 2900 3481 
Q 2900 3844 2670 4047 
Q 2441 4250 2034 4250 
Q 1625 4250 1398 4047 
Q 1172 3844 1172 3481 
z
" transform="scale(0.015625)"/>
       </defs>
       <use xlink:href="#DejaVuSans-32"/>
       <use xlink:href="#DejaVuSans-68" x="63.623047"/>
       <use xlink:href="#DejaVuSans-3a" x="127.001953"/>
       <use xlink:href="#DejaVuSans-32" x="160.693359"/>
       <use xlink:href="#DejaVuSans-38" x="224.316406"/>
       <use xlink:href="#DejaVuSans-6d" x="287.939453"/>
      </g>
     </g>
    </g>
    <g id="xtick_11">
     <g id="line2d_11">
      <g>
       <use xlink:href="#mf9f7d549f7" x="710.1771" y="288.430125" style="stroke: #000000; stroke-width: 0.8"/>
      </g>
     </g>
     <g id="text_7">
      <!-- 7h:42m -->
      <g transform="translate(690.909913 303.028562) scale(0.1 -0.1)">
       <use xlink:href="#DejaVuSans-37"/>
       <use xlink:href="#DejaVuSans-68" x="63.623047"/>
       <use xlink:href="#DejaVuSans-3a" x="127.001953"/>
       <use xlink:href="#DejaVuSans-34" x="160.693359"/>
       <use xlink:href="#DejaVuSans-32" x="224.316406"/>
       <use xlink:href="#DejaVuSans-6d" x="287.939453"/>
      </g>
     </g>
    </g>
    <g id="xtick_12">
     <g id="line2d_12">
      <g>
       <use xlink:href="#mf9f7d549f7" x="771.30732" y="288.430125" style="stroke: #000000; stroke-width: 0.8"/>
      </g>
     </g>
     <g id="text_8">
      <!-- 24h -->
      <g transform="translate(761.77607 303.028562) scale(0.1 -0.1)">
       <use xlink:href="#DejaVuSans-32"/>
       <use xlink:href="#DejaVuSans-34" x="63.623047"/>
       <use xlink:href="#DejaVuSans-68" x="127.246094"/>
      </g>
     </g>
    </g>
    <g id="text_9">
     <!-- Time (hour:minute) -->
     <g transform="translate(368.403594 316.706687) scale(0.1 -0.1)">
      <defs>
       <path id="DejaVuSans-54" d="M -19 4666 
L 3928 4666 
L 3928 4134 
L 2272 4134 
L 2272 0 
L 1638 0 
L 1638 4134 
L -19 4134 
L -19 4666 
z
" transform="scale(0.015625)"/>
       <path id="DejaVuSans-69" d="M 603 3500 
L 1178 3500 
L 1178 0 
L 603 0 
L 603 3500 
z
M 603 4863 
L 1178 4863 
L 1178 4134 
L 603 4134 
L 603 4863 
z
" transform="scale(0.015625)"/>
       <path id="DejaVuSans-65" d="M 3597 1894 
L 3597 1613 
L 953 1613 
Q 991 1019 1311 708 
Q 1631 397 2203 397 
Q 2534 397 2845 478 
Q 3156 559 3463 722 
L 3463 178 
Q 3153 47 2828 -22 
Q 2503 -91 2169 -91 
Q 1331 -91 842 396 
Q 353 884 353 1716 
Q 353 2575 817 3079 
Q 1281 3584 2069 3584 
Q 2775 3584 3186 3129 
Q 3597 2675 3597 1894 
z
M 3022 2063 
Q 3016 2534 2758 2815 
Q 2500 3097 2075 3097 
Q 1594 3097 1305 2825 
Q 1016 2553 972 2059 
L 3022 2063 
z
" transform="scale(0.015625)"/>
       <path id="DejaVuSans-20" transform="scale(0.015625)"/>
       <path id="DejaVuSans-28" d="M 1984 4856 
Q 1566 4138 1362 3434 
Q 1159 2731 1159 2009 
Q 1159 1288 1364 580 
Q 1569 -128 1984 -844 
L 1484 -844 
Q 1016 -109 783 600 
Q 550 1309 550 2009 
Q 550 2706 781 3412 
Q 1013 4119 1484 4856 
L 1984 4856 
z
" transform="scale(0.015625)"/>
       <path id="DejaVuSans-6f" d="M 1959 3097 
Q 1497 3097 1228 2736 
Q 959 2375 959 1747 
Q 959 1119 1226 758 
Q 1494 397 1959 397 
Q 2419 397 2687 759 
Q 2956 1122 2956 1747 
Q 2956 2369 2687 2733 
Q 2419 3097 1959 3097 
z
M 1959 3584 
Q 2709 3584 3137 3096 
Q 3566 2609 3566 1747 
Q 3566 888 3137 398 
Q 2709 -91 1959 -91 
Q 1206 -91 779 398 
Q 353 888 353 1747 
Q 353 2609 779 3096 
Q 1206 3584 1959 3584 
z
" transform="scale(0.015625)"/>
       <path id="DejaVuSans-75" d="M 544 1381 
L 544 3500 
L 1119 3500 
L 1119 1403 
Q 1119 906 1312 657 
Q 1506 409 1894 409 
Q 2359 409 2629 706 
Q 2900 1003 2900 1516 
L 2900 3500 
L 3475 3500 
L 3475 0 
L 2900 0 
L 2900 538 
Q 2691 219 2414 64 
Q 2138 -91 1772 -91 
Q 1169 -91 856 284 
Q 544 659 544 1381 
z
M 1991 3584 
L 1991 3584 
z
" transform="scale(0.015625)"/>
       <path id="DejaVuSans-72" d="M 2631 2963 
Q 2534 3019 2420 3045 
Q 2306 3072 2169 3072 
Q 1681 3072 1420 2755 
Q 1159 2438 1159 1844 
L 1159 0 
L 581 0 
L 581 3500 
L 1159 3500 
L 1159 2956 
Q 1341 3275 1631 3429 
Q 1922 3584 2338 3584 
Q 2397 3584 2469 3576 
Q 2541 3569 2628 3553 
L 2631 2963 
z
" transform="scale(0.015625)"/>
       <path id="DejaVuSans-6e" d="M 3513 2113 
L 3513 0 
L 2938 0 
L 2938 2094 
Q 2938 2591 2744 2837 
Q 2550 3084 2163 3084 
Q 1697 3084 1428 2787 
Q 1159 2491 1159 1978 
L 1159 0 
L 581 0 
L 581 3500 
L 1159 3500 
L 1159 2956 
Q 1366 3272 1645 3428 
Q 1925 3584 2291 3584 
Q 2894 3584 3203 3211 
Q 3513 2838 3513 2113 
z
" transform="scale(0.015625)"/>
       <path id="DejaVuSans-74" d="M 1172 4494 
L 1172 3500 
L 2356 3500 
L 2356 3053 
L 1172 3053 
L 1172 1153 
Q 1172 725 1289 603 
Q 1406 481 1766 481 
L 2356 481 
L 2356 0 
L 1766 0 
Q 1100 0 847 248 
Q 594 497 594 1153 
L 594 3053 
L 172 3053 
L 172 3500 
L 594 3500 
L 594 4494 
L 1172 4494 
z
" transform="scale(0.015625)"/>
       <path id="DejaVuSans-29" d="M 513 4856 
L 1013 4856 
Q 1481 4119 1714 3412 
Q 1947 2706 1947 2009 
Q 1947 1309 1714 600 
Q 1481 -109 1013 -844 
L 513 -844 
Q 928 -128 1133 580 
Q 1338 1288 1338 2009 
Q 1338 2731 1133 3434 
Q 928 4138 513 4856 
z
" transform="scale(0.015625)"/>
      </defs>
      <use xlink:href="#DejaVuSans-54"/>
      <use xlink:href="#DejaVuSans-69" x="57.958984"/>
      <use xlink:href="#DejaVuSans-6d" x="85.742188"/>
      <use xlink:href="#DejaVuSans-65" x="183.154297"/>
      <use xlink:href="#DejaVuSans-20" x="244.677734"/>
      <use xlink:href="#DejaVuSans-28" x="276.464844"/>
      <use xlink:href="#DejaVuSans-68" x="315.478516"/>
      <use xlink:href="#DejaVuSans-6f" x="378.857422"/>
      <use xlink:href="#DejaVuSans-75" x="440.039062"/>
      <use xlink:href="#DejaVuSans-72" x="503.417969"/>
      <use xlink:href="#DejaVuSans-3a" x="542.78125"/>
      <use xlink:href="#DejaVuSans-6d" x="576.472656"/>
      <use xlink:href="#DejaVuSans-69" x="673.884766"/>
      <use xlink:href="#DejaVuSans-6e" x="701.667969"/>
      <use xlink:href="#DejaVuSans-75" x="765.046875"/>
      <use xlink:href="#DejaVuSans-74" x="828.425781"/>
      <use xlink:href="#DejaVuSans-65" x="867.634766"/>
      <use xlink:href="#DejaVuSans-29" x="929.158203"/>
     </g>
    </g>
   </g>
   <g id="matplotlib.axis_2">
    <g id="ytick_1">
     <g id="line2d_13">
      <defs>
       <path id="m40fedc20cc" d="M 0 0 
L -3.5 0 
" style="stroke: #000000; stroke-width: 0.8"/>
      </defs>
      <g>
       <use xlink:href="#m40fedc20cc" x="59.690625" y="259.721796" style="stroke: #000000; stroke-width: 0.8"/>
      </g>
     </g>
     <g id="text_10">
      <!-- 6000 -->
      <g transform="translate(27.240625 263.521015) scale(0.1 -0.1)">
       <defs>
        <path id="DejaVuSans-36" d="M 2113 2584 
Q 1688 2584 1439 2293 
Q 1191 2003 1191 1497 
Q 1191 994 1439 701 
Q 1688 409 2113 409 
Q 2538 409 2786 701 
Q 3034 994 3034 1497 
Q 3034 2003 2786 2293 
Q 2538 2584 2113 2584 
z
M 3366 4563 
L 3366 3988 
Q 3128 4100 2886 4159 
Q 2644 4219 2406 4219 
Q 1781 4219 1451 3797 
Q 1122 3375 1075 2522 
Q 1259 2794 1537 2939 
Q 1816 3084 2150 3084 
Q 2853 3084 3261 2657 
Q 3669 2231 3669 1497 
Q 3669 778 3244 343 
Q 2819 -91 2113 -91 
Q 1303 -91 875 529 
Q 447 1150 447 2328 
Q 447 3434 972 4092 
Q 1497 4750 2381 4750 
Q 2619 4750 2861 4703 
Q 3103 4656 3366 4563 
z
" transform="scale(0.015625)"/>
       </defs>
       <use xlink:href="#DejaVuSans-36"/>
       <use xlink:href="#DejaVuSans-30" x="63.623047"/>
       <use xlink:href="#DejaVuSans-30" x="127.246094"/>
       <use xlink:href="#DejaVuSans-30" x="190.869141"/>
      </g>
     </g>
    </g>
    <g id="ytick_2">
     <g id="line2d_14">
      <g>
       <use xlink:href="#m40fedc20cc" x="59.690625" y="212.393223" style="stroke: #000000; stroke-width: 0.8"/>
      </g>
     </g>
     <g id="text_11">
      <!-- 7000 -->
      <g transform="translate(27.240625 216.192442) scale(0.1 -0.1)">
       <use xlink:href="#DejaVuSans-37"/>
       <use xlink:href="#DejaVuSans-30" x="63.623047"/>
       <use xlink:href="#DejaVuSans-30" x="127.246094"/>
       <use xlink:href="#DejaVuSans-30" x="190.869141"/>
      </g>
     </g>
    </g>
    <g id="ytick_3">
     <g id="line2d_15">
      <g>
       <use xlink:href="#m40fedc20cc" x="59.690625" y="165.06465" style="stroke: #000000; stroke-width: 0.8"/>
      </g>
     </g>
     <g id="text_12">
      <!-- 8000 -->
      <g transform="translate(27.240625 168.863869) scale(0.1 -0.1)">
       <use xlink:href="#DejaVuSans-38"/>
       <use xlink:href="#DejaVuSans-30" x="63.623047"/>
       <use xlink:href="#DejaVuSans-30" x="127.246094"/>
       <use xlink:href="#DejaVuSans-30" x="190.869141"/>
      </g>
     </g>
    </g>
    <g id="ytick_4">
     <g id="line2d_16">
      <g>
       <use xlink:href="#m40fedc20cc" x="59.690625" y="117.736077" style="stroke: #000000; stroke-width: 0.8"/>
      </g>
     </g>
     <g id="text_13">
      <!-- 9000 -->
      <g transform="translate(27.240625 121.535296) scale(0.1 -0.1)">
       <defs>
        <path id="DejaVuSans-39" d="M 703 97 
L 703 672 
Q 941 559 1184 500 
Q 1428 441 1663 441 
Q 2288 441 2617 861 
Q 2947 1281 2994 2138 
Q 2813 1869 2534 1725 
Q 2256 1581 1919 1581 
Q 1219 1581 811 2004 
Q 403 2428 403 3163 
Q 403 3881 828 4315 
Q 1253 4750 1959 4750 
Q 2769 4750 3195 4129 
Q 3622 3509 3622 2328 
Q 3622 1225 3098 567 
Q 2575 -91 1691 -91 
Q 1453 -91 1209 -44 
Q 966 3 703 97 
z
M 1959 2075 
Q 2384 2075 2632 2365 
Q 2881 2656 2881 3163 
Q 2881 3666 2632 3958 
Q 2384 4250 1959 4250 
Q 1534 4250 1286 3958 
Q 1038 3666 1038 3163 
Q 1038 2656 1286 2365 
Q 1534 2075 1959 2075 
z
" transform="scale(0.015625)"/>
       </defs>
       <use xlink:href="#DejaVuSans-39"/>
       <use xlink:href="#DejaVuSans-30" x="63.623047"/>
       <use xlink:href="#DejaVuSans-30" x="127.246094"/>
       <use xlink:href="#DejaVuSans-30" x="190.869141"/>
      </g>
     </g>
    </g>
    <g id="ytick_5">
     <g id="line2d_17">
      <g>
       <use xlink:href="#m40fedc20cc" x="59.690625" y="70.407505" style="stroke: #000000; stroke-width: 0.8"/>
      </g>
     </g>
     <g id="text_14">
      <!-- 10000 -->
      <g transform="translate(20.878125 74.206723) scale(0.1 -0.1)">
       <use xlink:href="#DejaVuSans-31"/>
       <use xlink:href="#DejaVuSans-30" x="63.623047"/>
       <use xlink:href="#DejaVuSans-30" x="127.246094"/>
       <use xlink:href="#DejaVuSans-30" x="190.869141"/>
       <use xlink:href="#DejaVuSans-30" x="254.492188"/>
      </g>
     </g>
    </g>
    <g id="ytick_6">
     <g id="line2d_18">
      <g>
       <use xlink:href="#m40fedc20cc" x="59.690625" y="23.078932" style="stroke: #000000; stroke-width: 0.8"/>
      </g>
     </g>
     <g id="text_15">
      <!-- 11000 -->
      <g transform="translate(20.878125 26.878151) scale(0.1 -0.1)">
       <use xlink:href="#DejaVuSans-31"/>
       <use xlink:href="#DejaVuSans-31" x="63.623047"/>
       <use xlink:href="#DejaVuSans-30" x="127.246094"/>
       <use xlink:href="#DejaVuSans-30" x="190.869141"/>
       <use xlink:href="#DejaVuSans-30" x="254.492188"/>
      </g>
     </g>
    </g>
    <g id="text_16">
     <!-- Code branch coverage -->
     <g transform="translate(14.798438 211.949125) rotate(-90) scale(0.1 -0.1)">
      <defs>
       <path id="DejaVuSans-43" d="M 4122 4306 
L 4122 3641 
Q 3803 3938 3442 4084 
Q 3081 4231 2675 4231 
Q 1875 4231 1450 3742 
Q 1025 3253 1025 2328 
Q 1025 1406 1450 917 
Q 1875 428 2675 428 
Q 3081 428 3442 575 
Q 3803 722 4122 1019 
L 4122 359 
Q 3791 134 3420 21 
Q 3050 -91 2638 -91 
Q 1578 -91 968 557 
Q 359 1206 359 2328 
Q 359 3453 968 4101 
Q 1578 4750 2638 4750 
Q 3056 4750 3426 4639 
Q 3797 4528 4122 4306 
z
" transform="scale(0.015625)"/>
       <path id="DejaVuSans-64" d="M 2906 2969 
L 2906 4863 
L 3481 4863 
L 3481 0 
L 2906 0 
L 2906 525 
Q 2725 213 2448 61 
Q 2172 -91 1784 -91 
Q 1150 -91 751 415 
Q 353 922 353 1747 
Q 353 2572 751 3078 
Q 1150 3584 1784 3584 
Q 2172 3584 2448 3432 
Q 2725 3281 2906 2969 
z
M 947 1747 
Q 947 1113 1208 752 
Q 1469 391 1925 391 
Q 2381 391 2643 752 
Q 2906 1113 2906 1747 
Q 2906 2381 2643 2742 
Q 2381 3103 1925 3103 
Q 1469 3103 1208 2742 
Q 947 2381 947 1747 
z
" transform="scale(0.015625)"/>
       <path id="DejaVuSans-62" d="M 3116 1747 
Q 3116 2381 2855 2742 
Q 2594 3103 2138 3103 
Q 1681 3103 1420 2742 
Q 1159 2381 1159 1747 
Q 1159 1113 1420 752 
Q 1681 391 2138 391 
Q 2594 391 2855 752 
Q 3116 1113 3116 1747 
z
M 1159 2969 
Q 1341 3281 1617 3432 
Q 1894 3584 2278 3584 
Q 2916 3584 3314 3078 
Q 3713 2572 3713 1747 
Q 3713 922 3314 415 
Q 2916 -91 2278 -91 
Q 1894 -91 1617 61 
Q 1341 213 1159 525 
L 1159 0 
L 581 0 
L 581 4863 
L 1159 4863 
L 1159 2969 
z
" transform="scale(0.015625)"/>
       <path id="DejaVuSans-61" d="M 2194 1759 
Q 1497 1759 1228 1600 
Q 959 1441 959 1056 
Q 959 750 1161 570 
Q 1363 391 1709 391 
Q 2188 391 2477 730 
Q 2766 1069 2766 1631 
L 2766 1759 
L 2194 1759 
z
M 3341 1997 
L 3341 0 
L 2766 0 
L 2766 531 
Q 2569 213 2275 61 
Q 1981 -91 1556 -91 
Q 1019 -91 701 211 
Q 384 513 384 1019 
Q 384 1609 779 1909 
Q 1175 2209 1959 2209 
L 2766 2209 
L 2766 2266 
Q 2766 2663 2505 2880 
Q 2244 3097 1772 3097 
Q 1472 3097 1187 3025 
Q 903 2953 641 2809 
L 641 3341 
Q 956 3463 1253 3523 
Q 1550 3584 1831 3584 
Q 2591 3584 2966 3190 
Q 3341 2797 3341 1997 
z
" transform="scale(0.015625)"/>
       <path id="DejaVuSans-63" d="M 3122 3366 
L 3122 2828 
Q 2878 2963 2633 3030 
Q 2388 3097 2138 3097 
Q 1578 3097 1268 2742 
Q 959 2388 959 1747 
Q 959 1106 1268 751 
Q 1578 397 2138 397 
Q 2388 397 2633 464 
Q 2878 531 3122 666 
L 3122 134 
Q 2881 22 2623 -34 
Q 2366 -91 2075 -91 
Q 1284 -91 818 406 
Q 353 903 353 1747 
Q 353 2603 823 3093 
Q 1294 3584 2113 3584 
Q 2378 3584 2631 3529 
Q 2884 3475 3122 3366 
z
" transform="scale(0.015625)"/>
       <path id="DejaVuSans-76" d="M 191 3500 
L 800 3500 
L 1894 563 
L 2988 3500 
L 3597 3500 
L 2284 0 
L 1503 0 
L 191 3500 
z
" transform="scale(0.015625)"/>
       <path id="DejaVuSans-67" d="M 2906 1791 
Q 2906 2416 2648 2759 
Q 2391 3103 1925 3103 
Q 1463 3103 1205 2759 
Q 947 2416 947 1791 
Q 947 1169 1205 825 
Q 1463 481 1925 481 
Q 2391 481 2648 825 
Q 2906 1169 2906 1791 
z
M 3481 434 
Q 3481 -459 3084 -895 
Q 2688 -1331 1869 -1331 
Q 1566 -1331 1297 -1286 
Q 1028 -1241 775 -1147 
L 775 -588 
Q 1028 -725 1275 -790 
Q 1522 -856 1778 -856 
Q 2344 -856 2625 -561 
Q 2906 -266 2906 331 
L 2906 616 
Q 2728 306 2450 153 
Q 2172 0 1784 0 
Q 1141 0 747 490 
Q 353 981 353 1791 
Q 353 2603 747 3093 
Q 1141 3584 1784 3584 
Q 2172 3584 2450 3431 
Q 2728 3278 2906 2969 
L 2906 3500 
L 3481 3500 
L 3481 434 
z
" transform="scale(0.015625)"/>
      </defs>
      <use xlink:href="#DejaVuSans-43"/>
      <use xlink:href="#DejaVuSans-6f" x="69.824219"/>
      <use xlink:href="#DejaVuSans-64" x="131.005859"/>
      <use xlink:href="#DejaVuSans-65" x="194.482422"/>
      <use xlink:href="#DejaVuSans-20" x="256.005859"/>
      <use xlink:href="#DejaVuSans-62" x="287.792969"/>
      <use xlink:href="#DejaVuSans-72" x="351.269531"/>
      <use xlink:href="#DejaVuSans-61" x="392.382812"/>
      <use xlink:href="#DejaVuSans-6e" x="453.662109"/>
      <use xlink:href="#DejaVuSans-63" x="517.041016"/>
      <use xlink:href="#DejaVuSans-68" x="572.021484"/>
      <use xlink:href="#DejaVuSans-20" x="635.400391"/>
      <use xlink:href="#DejaVuSans-63" x="667.1875"/>
      <use xlink:href="#DejaVuSans-6f" x="722.167969"/>
      <use xlink:href="#DejaVuSans-76" x="783.349609"/>
      <use xlink:href="#DejaVuSans-65" x="842.529297"/>
      <use xlink:href="#DejaVuSans-72" x="904.052734"/>
      <use xlink:href="#DejaVuSans-61" x="945.166016"/>
      <use xlink:href="#DejaVuSans-67" x="1006.445312"/>
      <use xlink:href="#DejaVuSans-65" x="1069.921875"/>
     </g>
    </g>
   </g>
   <g id="line2d_19">
    <path d="M 59.690625 276.334125 
L 525.836797 139.199585 
L 563.114139 107.844406 
L 584.919987 104.294763 
L 600.391482 101.360391 
L 612.392105 95.27867 
L 622.197329 73.69684 
L 630.487527 71.756369 
L 637.668824 70.502162 
L 644.003176 67.473133 
L 649.669448 66.266255 
L 654.795213 65.532662 
L 659.474671 63.118904 
L 663.779355 62.669283 
L 667.76487 61.722712 
L 671.475295 60.492169 
L 674.946166 59.143304 
L 678.206548 56.776876 
L 681.280519 56.658554 
L 684.188245 56.374583 
L 686.94679 54.718083 
L 689.570717 53.81884 
L 692.072556 53.32189 
L 694.463164 52.848604 
L 696.752013 52.020354 
L 698.947414 51.192104 
L 701.056697 50.695154 
L 703.086366 50.553168 
L 705.042212 50.292861 
L 706.929417 49.985225 
L 708.752637 49.464611 
L 710.516069 49.133311 
L 712.223508 48.967661 
L 713.878403 48.399718 
L 715.483891 48.210404 
L 717.042836 47.784447 
L 718.557861 47.547804 
L 720.031373 46.127947 
L 721.465587 45.820311 
L 722.862545 45.820311 
L 724.224132 45.796647 
L 725.552097 45.560004 
L 726.848059 45.512675 
L 728.113525 44.779082 
L 729.349898 44.70809 
L 730.558485 44.70809 
L 731.740507 44.637097 
L 732.897107 44.424118 
L 734.029356 43.38289 
L 735.138258 42.980597 
L 736.224756 42.909604 
L 737.289738 42.862275 
L 738.334039 42.649297 
L 739.358448 42.578304 
L 740.363708 42.507311 
L 741.350522 42.483647 
L 742.319554 42.341661 
L 743.271434 42.05769 
L 744.20676 41.915704 
L 745.126095 41.844711 
L 746.029979 41.773718 
L 746.918923 41.750054 
L 747.793411 41.158447 
L 748.653907 40.827147 
L 749.500851 40.637832 
L 750.334663 40.590504 
L 751.155745 40.590504 
L 751.96448 40.519511 
L 752.761233 40.519511 
L 753.546354 40.235539 
L 754.320178 40.140882 
L 755.083025 39.785918 
L 755.835203 39.170647 
L 756.577006 39.146982 
L 757.308715 39.099654 
L 758.030603 39.099654 
L 758.742929 39.099654 
L 759.445944 39.099654 
L 760.139887 39.028661 
L 760.82499 38.839347 
L 761.501474 38.768354 
L 762.169555 38.437054 
L 762.829439 38.437054 
L 763.481324 38.389725 
L 764.125401 38.318732 
L 764.761857 38.034761 
L 765.390868 37.679797 
L 766.012607 37.585139 
L 766.62724 37.419489 
L 767.234929 37.324832 
L 767.835827 37.277504 
L 768.430085 37.206511 
L 769.017849 37.206511 
L 769.599258 37.206511 
L 770.174449 37.040861 
L 770.743553 37.040861 
L 771.306698 37.040861 
" clip-path="url(#p25f00e8ea1)" style="fill: none; stroke: #1f77b4; stroke-width: 1.5; stroke-linecap: square"/>
    <defs>
     <path id="m54798bad5d" d="M 0 3 
C 0.795609 3 1.55874 2.683901 2.12132 2.12132 
C 2.683901 1.55874 3 0.795609 3 0 
C 3 -0.795609 2.683901 -1.55874 2.12132 -2.12132 
C 1.55874 -2.683901 0.795609 -3 0 -3 
C -0.795609 -3 -1.55874 -2.683901 -2.12132 -2.12132 
C -2.683901 -1.55874 -3 -0.795609 -3 0 
C -3 0.795609 -2.683901 1.55874 -2.12132 2.12132 
C -1.55874 2.683901 -0.795609 3 0 3 
z
" style="stroke: #ffffff; stroke-width: 0.75"/>
    </defs>
    <g clip-path="url(#p25f00e8ea1)">
     <use xlink:href="#m54798bad5d" x="59.690625" y="276.334125" style="fill: #1f77b4; stroke: #ffffff; stroke-width: 0.75"/>
     <use xlink:href="#m54798bad5d" x="525.836797" y="139.199585" style="fill: #1f77b4; stroke: #ffffff; stroke-width: 0.75"/>
     <use xlink:href="#m54798bad5d" x="563.114139" y="107.844406" style="fill: #1f77b4; stroke: #ffffff; stroke-width: 0.75"/>
     <use xlink:href="#m54798bad5d" x="584.919987" y="104.294763" style="fill: #1f77b4; stroke: #ffffff; stroke-width: 0.75"/>
     <use xlink:href="#m54798bad5d" x="600.391482" y="101.360391" style="fill: #1f77b4; stroke: #ffffff; stroke-width: 0.75"/>
     <use xlink:href="#m54798bad5d" x="612.392105" y="95.27867" style="fill: #1f77b4; stroke: #ffffff; stroke-width: 0.75"/>
     <use xlink:href="#m54798bad5d" x="622.197329" y="73.69684" style="fill: #1f77b4; stroke: #ffffff; stroke-width: 0.75"/>
     <use xlink:href="#m54798bad5d" x="630.487527" y="71.756369" style="fill: #1f77b4; stroke: #ffffff; stroke-width: 0.75"/>
     <use xlink:href="#m54798bad5d" x="637.668824" y="70.502162" style="fill: #1f77b4; stroke: #ffffff; stroke-width: 0.75"/>
     <use xlink:href="#m54798bad5d" x="644.003176" y="67.473133" style="fill: #1f77b4; stroke: #ffffff; stroke-width: 0.75"/>
     <use xlink:href="#m54798bad5d" x="649.669448" y="66.266255" style="fill: #1f77b4; stroke: #ffffff; stroke-width: 0.75"/>
     <use xlink:href="#m54798bad5d" x="654.795213" y="65.532662" style="fill: #1f77b4; stroke: #ffffff; stroke-width: 0.75"/>
     <use xlink:href="#m54798bad5d" x="659.474671" y="63.118904" style="fill: #1f77b4; stroke: #ffffff; stroke-width: 0.75"/>
     <use xlink:href="#m54798bad5d" x="663.779355" y="62.669283" style="fill: #1f77b4; stroke: #ffffff; stroke-width: 0.75"/>
     <use xlink:href="#m54798bad5d" x="667.76487" y="61.722712" style="fill: #1f77b4; stroke: #ffffff; stroke-width: 0.75"/>
     <use xlink:href="#m54798bad5d" x="671.475295" y="60.492169" style="fill: #1f77b4; stroke: #ffffff; stroke-width: 0.75"/>
     <use xlink:href="#m54798bad5d" x="674.946166" y="59.143304" style="fill: #1f77b4; stroke: #ffffff; stroke-width: 0.75"/>
     <use xlink:href="#m54798bad5d" x="678.206548" y="56.776876" style="fill: #1f77b4; stroke: #ffffff; stroke-width: 0.75"/>
     <use xlink:href="#m54798bad5d" x="681.280519" y="56.658554" style="fill: #1f77b4; stroke: #ffffff; stroke-width: 0.75"/>
     <use xlink:href="#m54798bad5d" x="684.188245" y="56.374583" style="fill: #1f77b4; stroke: #ffffff; stroke-width: 0.75"/>
     <use xlink:href="#m54798bad5d" x="686.94679" y="54.718083" style="fill: #1f77b4; stroke: #ffffff; stroke-width: 0.75"/>
     <use xlink:href="#m54798bad5d" x="689.570717" y="53.81884" style="fill: #1f77b4; stroke: #ffffff; stroke-width: 0.75"/>
     <use xlink:href="#m54798bad5d" x="692.072556" y="53.32189" style="fill: #1f77b4; stroke: #ffffff; stroke-width: 0.75"/>
     <use xlink:href="#m54798bad5d" x="694.463164" y="52.848604" style="fill: #1f77b4; stroke: #ffffff; stroke-width: 0.75"/>
     <use xlink:href="#m54798bad5d" x="696.752013" y="52.020354" style="fill: #1f77b4; stroke: #ffffff; stroke-width: 0.75"/>
     <use xlink:href="#m54798bad5d" x="698.947414" y="51.192104" style="fill: #1f77b4; stroke: #ffffff; stroke-width: 0.75"/>
     <use xlink:href="#m54798bad5d" x="701.056697" y="50.695154" style="fill: #1f77b4; stroke: #ffffff; stroke-width: 0.75"/>
     <use xlink:href="#m54798bad5d" x="703.086366" y="50.553168" style="fill: #1f77b4; stroke: #ffffff; stroke-width: 0.75"/>
     <use xlink:href="#m54798bad5d" x="705.042212" y="50.292861" style="fill: #1f77b4; stroke: #ffffff; stroke-width: 0.75"/>
     <use xlink:href="#m54798bad5d" x="706.929417" y="49.985225" style="fill: #1f77b4; stroke: #ffffff; stroke-width: 0.75"/>
     <use xlink:href="#m54798bad5d" x="708.752637" y="49.464611" style="fill: #1f77b4; stroke: #ffffff; stroke-width: 0.75"/>
     <use xlink:href="#m54798bad5d" x="710.516069" y="49.133311" style="fill: #1f77b4; stroke: #ffffff; stroke-width: 0.75"/>
     <use xlink:href="#m54798bad5d" x="712.223508" y="48.967661" style="fill: #1f77b4; stroke: #ffffff; stroke-width: 0.75"/>
     <use xlink:href="#m54798bad5d" x="713.878403" y="48.399718" style="fill: #1f77b4; stroke: #ffffff; stroke-width: 0.75"/>
     <use xlink:href="#m54798bad5d" x="715.483891" y="48.210404" style="fill: #1f77b4; stroke: #ffffff; stroke-width: 0.75"/>
     <use xlink:href="#m54798bad5d" x="717.042836" y="47.784447" style="fill: #1f77b4; stroke: #ffffff; stroke-width: 0.75"/>
     <use xlink:href="#m54798bad5d" x="718.557861" y="47.547804" style="fill: #1f77b4; stroke: #ffffff; stroke-width: 0.75"/>
     <use xlink:href="#m54798bad5d" x="720.031373" y="46.127947" style="fill: #1f77b4; stroke: #ffffff; stroke-width: 0.75"/>
     <use xlink:href="#m54798bad5d" x="721.465587" y="45.820311" style="fill: #1f77b4; stroke: #ffffff; stroke-width: 0.75"/>
     <use xlink:href="#m54798bad5d" x="722.862545" y="45.820311" style="fill: #1f77b4; stroke: #ffffff; stroke-width: 0.75"/>
     <use xlink:href="#m54798bad5d" x="724.224132" y="45.796647" style="fill: #1f77b4; stroke: #ffffff; stroke-width: 0.75"/>
     <use xlink:href="#m54798bad5d" x="725.552097" y="45.560004" style="fill: #1f77b4; stroke: #ffffff; stroke-width: 0.75"/>
     <use xlink:href="#m54798bad5d" x="726.848059" y="45.512675" style="fill: #1f77b4; stroke: #ffffff; stroke-width: 0.75"/>
     <use xlink:href="#m54798bad5d" x="728.113525" y="44.779082" style="fill: #1f77b4; stroke: #ffffff; stroke-width: 0.75"/>
     <use xlink:href="#m54798bad5d" x="729.349898" y="44.70809" style="fill: #1f77b4; stroke: #ffffff; stroke-width: 0.75"/>
     <use xlink:href="#m54798bad5d" x="730.558485" y="44.70809" style="fill: #1f77b4; stroke: #ffffff; stroke-width: 0.75"/>
     <use xlink:href="#m54798bad5d" x="731.740507" y="44.637097" style="fill: #1f77b4; stroke: #ffffff; stroke-width: 0.75"/>
     <use xlink:href="#m54798bad5d" x="732.897107" y="44.424118" style="fill: #1f77b4; stroke: #ffffff; stroke-width: 0.75"/>
     <use xlink:href="#m54798bad5d" x="734.029356" y="43.38289" style="fill: #1f77b4; stroke: #ffffff; stroke-width: 0.75"/>
     <use xlink:href="#m54798bad5d" x="735.138258" y="42.980597" style="fill: #1f77b4; stroke: #ffffff; stroke-width: 0.75"/>
     <use xlink:href="#m54798bad5d" x="736.224756" y="42.909604" style="fill: #1f77b4; stroke: #ffffff; stroke-width: 0.75"/>
     <use xlink:href="#m54798bad5d" x="737.289738" y="42.862275" style="fill: #1f77b4; stroke: #ffffff; stroke-width: 0.75"/>
     <use xlink:href="#m54798bad5d" x="738.334039" y="42.649297" style="fill: #1f77b4; stroke: #ffffff; stroke-width: 0.75"/>
     <use xlink:href="#m54798bad5d" x="739.358448" y="42.578304" style="fill: #1f77b4; stroke: #ffffff; stroke-width: 0.75"/>
     <use xlink:href="#m54798bad5d" x="740.363708" y="42.507311" style="fill: #1f77b4; stroke: #ffffff; stroke-width: 0.75"/>
     <use xlink:href="#m54798bad5d" x="741.350522" y="42.483647" style="fill: #1f77b4; stroke: #ffffff; stroke-width: 0.75"/>
     <use xlink:href="#m54798bad5d" x="742.319554" y="42.341661" style="fill: #1f77b4; stroke: #ffffff; stroke-width: 0.75"/>
     <use xlink:href="#m54798bad5d" x="743.271434" y="42.05769" style="fill: #1f77b4; stroke: #ffffff; stroke-width: 0.75"/>
     <use xlink:href="#m54798bad5d" x="744.20676" y="41.915704" style="fill: #1f77b4; stroke: #ffffff; stroke-width: 0.75"/>
     <use xlink:href="#m54798bad5d" x="745.126095" y="41.844711" style="fill: #1f77b4; stroke: #ffffff; stroke-width: 0.75"/>
     <use xlink:href="#m54798bad5d" x="746.029979" y="41.773718" style="fill: #1f77b4; stroke: #ffffff; stroke-width: 0.75"/>
     <use xlink:href="#m54798bad5d" x="746.918923" y="41.750054" style="fill: #1f77b4; stroke: #ffffff; stroke-width: 0.75"/>
     <use xlink:href="#m54798bad5d" x="747.793411" y="41.158447" style="fill: #1f77b4; stroke: #ffffff; stroke-width: 0.75"/>
     <use xlink:href="#m54798bad5d" x="748.653907" y="40.827147" style="fill: #1f77b4; stroke: #ffffff; stroke-width: 0.75"/>
     <use xlink:href="#m54798bad5d" x="749.500851" y="40.637832" style="fill: #1f77b4; stroke: #ffffff; stroke-width: 0.75"/>
     <use xlink:href="#m54798bad5d" x="750.334663" y="40.590504" style="fill: #1f77b4; stroke: #ffffff; stroke-width: 0.75"/>
     <use xlink:href="#m54798bad5d" x="751.155745" y="40.590504" style="fill: #1f77b4; stroke: #ffffff; stroke-width: 0.75"/>
     <use xlink:href="#m54798bad5d" x="751.96448" y="40.519511" style="fill: #1f77b4; stroke: #ffffff; stroke-width: 0.75"/>
     <use xlink:href="#m54798bad5d" x="752.761233" y="40.519511" style="fill: #1f77b4; stroke: #ffffff; stroke-width: 0.75"/>
     <use xlink:href="#m54798bad5d" x="753.546354" y="40.235539" style="fill: #1f77b4; stroke: #ffffff; stroke-width: 0.75"/>
     <use xlink:href="#m54798bad5d" x="754.320178" y="40.140882" style="fill: #1f77b4; stroke: #ffffff; stroke-width: 0.75"/>
     <use xlink:href="#m54798bad5d" x="755.083025" y="39.785918" style="fill: #1f77b4; stroke: #ffffff; stroke-width: 0.75"/>
     <use xlink:href="#m54798bad5d" x="755.835203" y="39.170647" style="fill: #1f77b4; stroke: #ffffff; stroke-width: 0.75"/>
     <use xlink:href="#m54798bad5d" x="756.577006" y="39.146982" style="fill: #1f77b4; stroke: #ffffff; stroke-width: 0.75"/>
     <use xlink:href="#m54798bad5d" x="757.308715" y="39.099654" style="fill: #1f77b4; stroke: #ffffff; stroke-width: 0.75"/>
     <use xlink:href="#m54798bad5d" x="758.030603" y="39.099654" style="fill: #1f77b4; stroke: #ffffff; stroke-width: 0.75"/>
     <use xlink:href="#m54798bad5d" x="758.742929" y="39.099654" style="fill: #1f77b4; stroke: #ffffff; stroke-width: 0.75"/>
     <use xlink:href="#m54798bad5d" x="759.445944" y="39.099654" style="fill: #1f77b4; stroke: #ffffff; stroke-width: 0.75"/>
     <use xlink:href="#m54798bad5d" x="760.139887" y="39.028661" style="fill: #1f77b4; stroke: #ffffff; stroke-width: 0.75"/>
     <use xlink:href="#m54798bad5d" x="760.82499" y="38.839347" style="fill: #1f77b4; stroke: #ffffff; stroke-width: 0.75"/>
     <use xlink:href="#m54798bad5d" x="761.501474" y="38.768354" style="fill: #1f77b4; stroke: #ffffff; stroke-width: 0.75"/>
     <use xlink:href="#m54798bad5d" x="762.169555" y="38.437054" style="fill: #1f77b4; stroke: #ffffff; stroke-width: 0.75"/>
     <use xlink:href="#m54798bad5d" x="762.829439" y="38.437054" style="fill: #1f77b4; stroke: #ffffff; stroke-width: 0.75"/>
     <use xlink:href="#m54798bad5d" x="763.481324" y="38.389725" style="fill: #1f77b4; stroke: #ffffff; stroke-width: 0.75"/>
     <use xlink:href="#m54798bad5d" x="764.125401" y="38.318732" style="fill: #1f77b4; stroke: #ffffff; stroke-width: 0.75"/>
     <use xlink:href="#m54798bad5d" x="764.761857" y="38.034761" style="fill: #1f77b4; stroke: #ffffff; stroke-width: 0.75"/>
     <use xlink:href="#m54798bad5d" x="765.390868" y="37.679797" style="fill: #1f77b4; stroke: #ffffff; stroke-width: 0.75"/>
     <use xlink:href="#m54798bad5d" x="766.012607" y="37.585139" style="fill: #1f77b4; stroke: #ffffff; stroke-width: 0.75"/>
     <use xlink:href="#m54798bad5d" x="766.62724" y="37.419489" style="fill: #1f77b4; stroke: #ffffff; stroke-width: 0.75"/>
     <use xlink:href="#m54798bad5d" x="767.234929" y="37.324832" style="fill: #1f77b4; stroke: #ffffff; stroke-width: 0.75"/>
     <use xlink:href="#m54798bad5d" x="767.835827" y="37.277504" style="fill: #1f77b4; stroke: #ffffff; stroke-width: 0.75"/>
     <use xlink:href="#m54798bad5d" x="768.430085" y="37.206511" style="fill: #1f77b4; stroke: #ffffff; stroke-width: 0.75"/>
     <use xlink:href="#m54798bad5d" x="769.017849" y="37.206511" style="fill: #1f77b4; stroke: #ffffff; stroke-width: 0.75"/>
     <use xlink:href="#m54798bad5d" x="769.599258" y="37.206511" style="fill: #1f77b4; stroke: #ffffff; stroke-width: 0.75"/>
     <use xlink:href="#m54798bad5d" x="770.174449" y="37.040861" style="fill: #1f77b4; stroke: #ffffff; stroke-width: 0.75"/>
     <use xlink:href="#m54798bad5d" x="770.743553" y="37.040861" style="fill: #1f77b4; stroke: #ffffff; stroke-width: 0.75"/>
     <use xlink:href="#m54798bad5d" x="771.306698" y="37.040861" style="fill: #1f77b4; stroke: #ffffff; stroke-width: 0.75"/>
    </g>
   </g>
   <g id="line2d_20">
    <path d="M 59.690625 276.334125 
L 525.836797 129.875856 
L 563.114139 115.795606 
L 584.919987 86.215248 
L 600.391482 85.174019 
L 612.392105 76.820526 
L 622.197329 73.602183 
L 630.487527 70.809798 
L 637.668824 68.821997 
L 644.003176 63.876162 
L 649.669448 61.391412 
L 654.795213 60.77614 
L 659.474671 59.308954 
L 663.779355 58.504369 
L 667.76487 57.912761 
L 671.475295 57.250161 
L 674.946166 56.895197 
L 678.206548 55.617326 
L 681.280519 54.860068 
L 684.188245 53.960826 
L 686.94679 53.676854 
L 689.570717 53.014254 
L 692.072556 51.570733 
L 694.463164 51.050118 
L 696.752013 50.955461 
L 698.947414 50.884468 
L 701.056697 50.600497 
L 703.086366 50.529504 
L 705.042212 50.482175 
L 706.929417 50.127211 
L 708.752637 49.748583 
L 710.516069 49.488275 
L 712.223508 49.204304 
L 713.878403 48.707354 
L 715.483891 48.565368 
L 717.042836 48.447047 
L 718.557861 48.305061 
L 720.031373 48.139411 
L 721.465587 47.85544 
L 722.862545 47.334825 
L 724.224132 46.885204 
L 725.552097 46.719554 
L 726.848059 46.553904 
L 728.113525 46.222604 
L 729.349898 45.820311 
L 730.558485 45.772982 
L 731.740507 45.465347 
L 732.897107 45.347025 
L 734.029356 45.252368 
L 735.138258 45.063054 
L 736.224756 44.637097 
L 737.289738 44.092818 
L 738.334039 43.903504 
L 739.358448 43.87984 
L 740.363708 43.690525 
L 741.350522 43.406554 
L 742.319554 43.38289 
L 743.271434 43.335561 
L 744.20676 43.146247 
L 745.126095 43.098918 
L 746.029979 43.027925 
L 746.918923 42.980597 
L 747.793411 42.933268 
L 748.653907 42.412654 
L 749.500851 42.176011 
L 750.334663 42.128682 
L 751.155745 42.05769 
L 751.96448 42.05769 
L 752.761233 42.034025 
L 753.546354 41.797382 
L 754.320178 41.608068 
L 755.083025 41.442418 
L 755.835203 41.324097 
L 756.577006 41.276768 
L 757.308715 41.063789 
L 758.030603 40.992797 
L 758.742929 40.992797 
L 759.445944 40.945468 
L 760.139887 40.945468 
L 760.82499 40.827147 
L 761.501474 40.756154 
L 762.169555 40.685161 
L 762.829439 40.685161 
L 763.481324 40.590504 
L 764.125401 40.590504 
L 764.761857 40.519511 
L 765.390868 40.448518 
L 766.012607 40.330197 
L 766.62724 40.282868 
L 767.234929 40.235539 
L 767.835827 40.188211 
L 768.430085 40.117218 
L 769.017849 40.069889 
L 769.599258 39.880575 
L 770.174449 39.856911 
L 770.743553 39.714925 
L 771.306698 39.714925 
" clip-path="url(#p25f00e8ea1)" style="fill: none; stroke: #98df8a; stroke-width: 1.5; stroke-linecap: square"/>
    <defs>
     <path id="m16c7203078" d="M -0 3 
L 3 -3 
L -3 -3 
z
" style="stroke: #ffffff; stroke-width: 0.75; stroke-linejoin: miter"/>
    </defs>
    <g clip-path="url(#p25f00e8ea1)">
     <use xlink:href="#m16c7203078" x="59.690625" y="276.334125" style="fill: #98df8a; stroke: #ffffff; stroke-width: 0.75; stroke-linejoin: miter"/>
     <use xlink:href="#m16c7203078" x="525.836797" y="129.875856" style="fill: #98df8a; stroke: #ffffff; stroke-width: 0.75; stroke-linejoin: miter"/>
     <use xlink:href="#m16c7203078" x="563.114139" y="115.795606" style="fill: #98df8a; stroke: #ffffff; stroke-width: 0.75; stroke-linejoin: miter"/>
     <use xlink:href="#m16c7203078" x="584.919987" y="86.215248" style="fill: #98df8a; stroke: #ffffff; stroke-width: 0.75; stroke-linejoin: miter"/>
     <use xlink:href="#m16c7203078" x="600.391482" y="85.174019" style="fill: #98df8a; stroke: #ffffff; stroke-width: 0.75; stroke-linejoin: miter"/>
     <use xlink:href="#m16c7203078" x="612.392105" y="76.820526" style="fill: #98df8a; stroke: #ffffff; stroke-width: 0.75; stroke-linejoin: miter"/>
     <use xlink:href="#m16c7203078" x="622.197329" y="73.602183" style="fill: #98df8a; stroke: #ffffff; stroke-width: 0.75; stroke-linejoin: miter"/>
     <use xlink:href="#m16c7203078" x="630.487527" y="70.809798" style="fill: #98df8a; stroke: #ffffff; stroke-width: 0.75; stroke-linejoin: miter"/>
     <use xlink:href="#m16c7203078" x="637.668824" y="68.821997" style="fill: #98df8a; stroke: #ffffff; stroke-width: 0.75; stroke-linejoin: miter"/>
     <use xlink:href="#m16c7203078" x="644.003176" y="63.876162" style="fill: #98df8a; stroke: #ffffff; stroke-width: 0.75; stroke-linejoin: miter"/>
     <use xlink:href="#m16c7203078" x="649.669448" y="61.391412" style="fill: #98df8a; stroke: #ffffff; stroke-width: 0.75; stroke-linejoin: miter"/>
     <use xlink:href="#m16c7203078" x="654.795213" y="60.77614" style="fill: #98df8a; stroke: #ffffff; stroke-width: 0.75; stroke-linejoin: miter"/>
     <use xlink:href="#m16c7203078" x="659.474671" y="59.308954" style="fill: #98df8a; stroke: #ffffff; stroke-width: 0.75; stroke-linejoin: miter"/>
     <use xlink:href="#m16c7203078" x="663.779355" y="58.504369" style="fill: #98df8a; stroke: #ffffff; stroke-width: 0.75; stroke-linejoin: miter"/>
     <use xlink:href="#m16c7203078" x="667.76487" y="57.912761" style="fill: #98df8a; stroke: #ffffff; stroke-width: 0.75; stroke-linejoin: miter"/>
     <use xlink:href="#m16c7203078" x="671.475295" y="57.250161" style="fill: #98df8a; stroke: #ffffff; stroke-width: 0.75; stroke-linejoin: miter"/>
     <use xlink:href="#m16c7203078" x="674.946166" y="56.895197" style="fill: #98df8a; stroke: #ffffff; stroke-width: 0.75; stroke-linejoin: miter"/>
     <use xlink:href="#m16c7203078" x="678.206548" y="55.617326" style="fill: #98df8a; stroke: #ffffff; stroke-width: 0.75; stroke-linejoin: miter"/>
     <use xlink:href="#m16c7203078" x="681.280519" y="54.860068" style="fill: #98df8a; stroke: #ffffff; stroke-width: 0.75; stroke-linejoin: miter"/>
     <use xlink:href="#m16c7203078" x="684.188245" y="53.960826" style="fill: #98df8a; stroke: #ffffff; stroke-width: 0.75; stroke-linejoin: miter"/>
     <use xlink:href="#m16c7203078" x="686.94679" y="53.676854" style="fill: #98df8a; stroke: #ffffff; stroke-width: 0.75; stroke-linejoin: miter"/>
     <use xlink:href="#m16c7203078" x="689.570717" y="53.014254" style="fill: #98df8a; stroke: #ffffff; stroke-width: 0.75; stroke-linejoin: miter"/>
     <use xlink:href="#m16c7203078" x="692.072556" y="51.570733" style="fill: #98df8a; stroke: #ffffff; stroke-width: 0.75; stroke-linejoin: miter"/>
     <use xlink:href="#m16c7203078" x="694.463164" y="51.050118" style="fill: #98df8a; stroke: #ffffff; stroke-width: 0.75; stroke-linejoin: miter"/>
     <use xlink:href="#m16c7203078" x="696.752013" y="50.955461" style="fill: #98df8a; stroke: #ffffff; stroke-width: 0.75; stroke-linejoin: miter"/>
     <use xlink:href="#m16c7203078" x="698.947414" y="50.884468" style="fill: #98df8a; stroke: #ffffff; stroke-width: 0.75; stroke-linejoin: miter"/>
     <use xlink:href="#m16c7203078" x="701.056697" y="50.600497" style="fill: #98df8a; stroke: #ffffff; stroke-width: 0.75; stroke-linejoin: miter"/>
     <use xlink:href="#m16c7203078" x="703.086366" y="50.529504" style="fill: #98df8a; stroke: #ffffff; stroke-width: 0.75; stroke-linejoin: miter"/>
     <use xlink:href="#m16c7203078" x="705.042212" y="50.482175" style="fill: #98df8a; stroke: #ffffff; stroke-width: 0.75; stroke-linejoin: miter"/>
     <use xlink:href="#m16c7203078" x="706.929417" y="50.127211" style="fill: #98df8a; stroke: #ffffff; stroke-width: 0.75; stroke-linejoin: miter"/>
     <use xlink:href="#m16c7203078" x="708.752637" y="49.748583" style="fill: #98df8a; stroke: #ffffff; stroke-width: 0.75; stroke-linejoin: miter"/>
     <use xlink:href="#m16c7203078" x="710.516069" y="49.488275" style="fill: #98df8a; stroke: #ffffff; stroke-width: 0.75; stroke-linejoin: miter"/>
     <use xlink:href="#m16c7203078" x="712.223508" y="49.204304" style="fill: #98df8a; stroke: #ffffff; stroke-width: 0.75; stroke-linejoin: miter"/>
     <use xlink:href="#m16c7203078" x="713.878403" y="48.707354" style="fill: #98df8a; stroke: #ffffff; stroke-width: 0.75; stroke-linejoin: miter"/>
     <use xlink:href="#m16c7203078" x="715.483891" y="48.565368" style="fill: #98df8a; stroke: #ffffff; stroke-width: 0.75; stroke-linejoin: miter"/>
     <use xlink:href="#m16c7203078" x="717.042836" y="48.447047" style="fill: #98df8a; stroke: #ffffff; stroke-width: 0.75; stroke-linejoin: miter"/>
     <use xlink:href="#m16c7203078" x="718.557861" y="48.305061" style="fill: #98df8a; stroke: #ffffff; stroke-width: 0.75; stroke-linejoin: miter"/>
     <use xlink:href="#m16c7203078" x="720.031373" y="48.139411" style="fill: #98df8a; stroke: #ffffff; stroke-width: 0.75; stroke-linejoin: miter"/>
     <use xlink:href="#m16c7203078" x="721.465587" y="47.85544" style="fill: #98df8a; stroke: #ffffff; stroke-width: 0.75; stroke-linejoin: miter"/>
     <use xlink:href="#m16c7203078" x="722.862545" y="47.334825" style="fill: #98df8a; stroke: #ffffff; stroke-width: 0.75; stroke-linejoin: miter"/>
     <use xlink:href="#m16c7203078" x="724.224132" y="46.885204" style="fill: #98df8a; stroke: #ffffff; stroke-width: 0.75; stroke-linejoin: miter"/>
     <use xlink:href="#m16c7203078" x="725.552097" y="46.719554" style="fill: #98df8a; stroke: #ffffff; stroke-width: 0.75; stroke-linejoin: miter"/>
     <use xlink:href="#m16c7203078" x="726.848059" y="46.553904" style="fill: #98df8a; stroke: #ffffff; stroke-width: 0.75; stroke-linejoin: miter"/>
     <use xlink:href="#m16c7203078" x="728.113525" y="46.222604" style="fill: #98df8a; stroke: #ffffff; stroke-width: 0.75; stroke-linejoin: miter"/>
     <use xlink:href="#m16c7203078" x="729.349898" y="45.820311" style="fill: #98df8a; stroke: #ffffff; stroke-width: 0.75; stroke-linejoin: miter"/>
     <use xlink:href="#m16c7203078" x="730.558485" y="45.772982" style="fill: #98df8a; stroke: #ffffff; stroke-width: 0.75; stroke-linejoin: miter"/>
     <use xlink:href="#m16c7203078" x="731.740507" y="45.465347" style="fill: #98df8a; stroke: #ffffff; stroke-width: 0.75; stroke-linejoin: miter"/>
     <use xlink:href="#m16c7203078" x="732.897107" y="45.347025" style="fill: #98df8a; stroke: #ffffff; stroke-width: 0.75; stroke-linejoin: miter"/>
     <use xlink:href="#m16c7203078" x="734.029356" y="45.252368" style="fill: #98df8a; stroke: #ffffff; stroke-width: 0.75; stroke-linejoin: miter"/>
     <use xlink:href="#m16c7203078" x="735.138258" y="45.063054" style="fill: #98df8a; stroke: #ffffff; stroke-width: 0.75; stroke-linejoin: miter"/>
     <use xlink:href="#m16c7203078" x="736.224756" y="44.637097" style="fill: #98df8a; stroke: #ffffff; stroke-width: 0.75; stroke-linejoin: miter"/>
     <use xlink:href="#m16c7203078" x="737.289738" y="44.092818" style="fill: #98df8a; stroke: #ffffff; stroke-width: 0.75; stroke-linejoin: miter"/>
     <use xlink:href="#m16c7203078" x="738.334039" y="43.903504" style="fill: #98df8a; stroke: #ffffff; stroke-width: 0.75; stroke-linejoin: miter"/>
     <use xlink:href="#m16c7203078" x="739.358448" y="43.87984" style="fill: #98df8a; stroke: #ffffff; stroke-width: 0.75; stroke-linejoin: miter"/>
     <use xlink:href="#m16c7203078" x="740.363708" y="43.690525" style="fill: #98df8a; stroke: #ffffff; stroke-width: 0.75; stroke-linejoin: miter"/>
     <use xlink:href="#m16c7203078" x="741.350522" y="43.406554" style="fill: #98df8a; stroke: #ffffff; stroke-width: 0.75; stroke-linejoin: miter"/>
     <use xlink:href="#m16c7203078" x="742.319554" y="43.38289" style="fill: #98df8a; stroke: #ffffff; stroke-width: 0.75; stroke-linejoin: miter"/>
     <use xlink:href="#m16c7203078" x="743.271434" y="43.335561" style="fill: #98df8a; stroke: #ffffff; stroke-width: 0.75; stroke-linejoin: miter"/>
     <use xlink:href="#m16c7203078" x="744.20676" y="43.146247" style="fill: #98df8a; stroke: #ffffff; stroke-width: 0.75; stroke-linejoin: miter"/>
     <use xlink:href="#m16c7203078" x="745.126095" y="43.098918" style="fill: #98df8a; stroke: #ffffff; stroke-width: 0.75; stroke-linejoin: miter"/>
     <use xlink:href="#m16c7203078" x="746.029979" y="43.027925" style="fill: #98df8a; stroke: #ffffff; stroke-width: 0.75; stroke-linejoin: miter"/>
     <use xlink:href="#m16c7203078" x="746.918923" y="42.980597" style="fill: #98df8a; stroke: #ffffff; stroke-width: 0.75; stroke-linejoin: miter"/>
     <use xlink:href="#m16c7203078" x="747.793411" y="42.933268" style="fill: #98df8a; stroke: #ffffff; stroke-width: 0.75; stroke-linejoin: miter"/>
     <use xlink:href="#m16c7203078" x="748.653907" y="42.412654" style="fill: #98df8a; stroke: #ffffff; stroke-width: 0.75; stroke-linejoin: miter"/>
     <use xlink:href="#m16c7203078" x="749.500851" y="42.176011" style="fill: #98df8a; stroke: #ffffff; stroke-width: 0.75; stroke-linejoin: miter"/>
     <use xlink:href="#m16c7203078" x="750.334663" y="42.128682" style="fill: #98df8a; stroke: #ffffff; stroke-width: 0.75; stroke-linejoin: miter"/>
     <use xlink:href="#m16c7203078" x="751.155745" y="42.05769" style="fill: #98df8a; stroke: #ffffff; stroke-width: 0.75; stroke-linejoin: miter"/>
     <use xlink:href="#m16c7203078" x="751.96448" y="42.05769" style="fill: #98df8a; stroke: #ffffff; stroke-width: 0.75; stroke-linejoin: miter"/>
     <use xlink:href="#m16c7203078" x="752.761233" y="42.034025" style="fill: #98df8a; stroke: #ffffff; stroke-width: 0.75; stroke-linejoin: miter"/>
     <use xlink:href="#m16c7203078" x="753.546354" y="41.797382" style="fill: #98df8a; stroke: #ffffff; stroke-width: 0.75; stroke-linejoin: miter"/>
     <use xlink:href="#m16c7203078" x="754.320178" y="41.608068" style="fill: #98df8a; stroke: #ffffff; stroke-width: 0.75; stroke-linejoin: miter"/>
     <use xlink:href="#m16c7203078" x="755.083025" y="41.442418" style="fill: #98df8a; stroke: #ffffff; stroke-width: 0.75; stroke-linejoin: miter"/>
     <use xlink:href="#m16c7203078" x="755.835203" y="41.324097" style="fill: #98df8a; stroke: #ffffff; stroke-width: 0.75; stroke-linejoin: miter"/>
     <use xlink:href="#m16c7203078" x="756.577006" y="41.276768" style="fill: #98df8a; stroke: #ffffff; stroke-width: 0.75; stroke-linejoin: miter"/>
     <use xlink:href="#m16c7203078" x="757.308715" y="41.063789" style="fill: #98df8a; stroke: #ffffff; stroke-width: 0.75; stroke-linejoin: miter"/>
     <use xlink:href="#m16c7203078" x="758.030603" y="40.992797" style="fill: #98df8a; stroke: #ffffff; stroke-width: 0.75; stroke-linejoin: miter"/>
     <use xlink:href="#m16c7203078" x="758.742929" y="40.992797" style="fill: #98df8a; stroke: #ffffff; stroke-width: 0.75; stroke-linejoin: miter"/>
     <use xlink:href="#m16c7203078" x="759.445944" y="40.945468" style="fill: #98df8a; stroke: #ffffff; stroke-width: 0.75; stroke-linejoin: miter"/>
     <use xlink:href="#m16c7203078" x="760.139887" y="40.945468" style="fill: #98df8a; stroke: #ffffff; stroke-width: 0.75; stroke-linejoin: miter"/>
     <use xlink:href="#m16c7203078" x="760.82499" y="40.827147" style="fill: #98df8a; stroke: #ffffff; stroke-width: 0.75; stroke-linejoin: miter"/>
     <use xlink:href="#m16c7203078" x="761.501474" y="40.756154" style="fill: #98df8a; stroke: #ffffff; stroke-width: 0.75; stroke-linejoin: miter"/>
     <use xlink:href="#m16c7203078" x="762.169555" y="40.685161" style="fill: #98df8a; stroke: #ffffff; stroke-width: 0.75; stroke-linejoin: miter"/>
     <use xlink:href="#m16c7203078" x="762.829439" y="40.685161" style="fill: #98df8a; stroke: #ffffff; stroke-width: 0.75; stroke-linejoin: miter"/>
     <use xlink:href="#m16c7203078" x="763.481324" y="40.590504" style="fill: #98df8a; stroke: #ffffff; stroke-width: 0.75; stroke-linejoin: miter"/>
     <use xlink:href="#m16c7203078" x="764.125401" y="40.590504" style="fill: #98df8a; stroke: #ffffff; stroke-width: 0.75; stroke-linejoin: miter"/>
     <use xlink:href="#m16c7203078" x="764.761857" y="40.519511" style="fill: #98df8a; stroke: #ffffff; stroke-width: 0.75; stroke-linejoin: miter"/>
     <use xlink:href="#m16c7203078" x="765.390868" y="40.448518" style="fill: #98df8a; stroke: #ffffff; stroke-width: 0.75; stroke-linejoin: miter"/>
     <use xlink:href="#m16c7203078" x="766.012607" y="40.330197" style="fill: #98df8a; stroke: #ffffff; stroke-width: 0.75; stroke-linejoin: miter"/>
     <use xlink:href="#m16c7203078" x="766.62724" y="40.282868" style="fill: #98df8a; stroke: #ffffff; stroke-width: 0.75; stroke-linejoin: miter"/>
     <use xlink:href="#m16c7203078" x="767.234929" y="40.235539" style="fill: #98df8a; stroke: #ffffff; stroke-width: 0.75; stroke-linejoin: miter"/>
     <use xlink:href="#m16c7203078" x="767.835827" y="40.188211" style="fill: #98df8a; stroke: #ffffff; stroke-width: 0.75; stroke-linejoin: miter"/>
     <use xlink:href="#m16c7203078" x="768.430085" y="40.117218" style="fill: #98df8a; stroke: #ffffff; stroke-width: 0.75; stroke-linejoin: miter"/>
     <use xlink:href="#m16c7203078" x="769.017849" y="40.069889" style="fill: #98df8a; stroke: #ffffff; stroke-width: 0.75; stroke-linejoin: miter"/>
     <use xlink:href="#m16c7203078" x="769.599258" y="39.880575" style="fill: #98df8a; stroke: #ffffff; stroke-width: 0.75; stroke-linejoin: miter"/>
     <use xlink:href="#m16c7203078" x="770.174449" y="39.856911" style="fill: #98df8a; stroke: #ffffff; stroke-width: 0.75; stroke-linejoin: miter"/>
     <use xlink:href="#m16c7203078" x="770.743553" y="39.714925" style="fill: #98df8a; stroke: #ffffff; stroke-width: 0.75; stroke-linejoin: miter"/>
     <use xlink:href="#m16c7203078" x="771.306698" y="39.714925" style="fill: #98df8a; stroke: #ffffff; stroke-width: 0.75; stroke-linejoin: miter"/>
    </g>
   </g>
   <g id="line2d_21"/>
   <g id="line2d_22"/>
   <g id="line2d_23">
    <path d="M 771.306698 288.430125 
L 771.306698 22.318125 
" clip-path="url(#p25f00e8ea1)" style="fill: none; stroke: #ff0000; stroke-width: 1.5; stroke-linecap: square"/>
   </g>
   <g id="patch_3">
    <path d="M 59.690625 259.721796 
L 59.690625 23.078932 
" style="fill: none; stroke: #000000; stroke-width: 0.8; stroke-linejoin: miter; stroke-linecap: square"/>
   </g>
   <g id="patch_4">
    <path d="M 59.690625 288.430125 
L 771.30732 288.430125 
" style="fill: none; stroke: #000000; stroke-width: 0.8; stroke-linejoin: miter; stroke-linecap: square"/>
   </g>
   <g id="text_17">
    <!-- libxslt_xpath (24h, at least 10 trials/fuzzer) -->
    <g transform="translate(287.694375 16.318125) scale(0.12 -0.12)">
     <defs>
      <path id="DejaVuSans-6c" d="M 603 4863 
L 1178 4863 
L 1178 0 
L 603 0 
L 603 4863 
z
" transform="scale(0.015625)"/>
      <path id="DejaVuSans-78" d="M 3513 3500 
L 2247 1797 
L 3578 0 
L 2900 0 
L 1881 1375 
L 863 0 
L 184 0 
L 1544 1831 
L 300 3500 
L 978 3500 
L 1906 2253 
L 2834 3500 
L 3513 3500 
z
" transform="scale(0.015625)"/>
      <path id="DejaVuSans-73" d="M 2834 3397 
L 2834 2853 
Q 2591 2978 2328 3040 
Q 2066 3103 1784 3103 
Q 1356 3103 1142 2972 
Q 928 2841 928 2578 
Q 928 2378 1081 2264 
Q 1234 2150 1697 2047 
L 1894 2003 
Q 2506 1872 2764 1633 
Q 3022 1394 3022 966 
Q 3022 478 2636 193 
Q 2250 -91 1575 -91 
Q 1294 -91 989 -36 
Q 684 19 347 128 
L 347 722 
Q 666 556 975 473 
Q 1284 391 1588 391 
Q 1994 391 2212 530 
Q 2431 669 2431 922 
Q 2431 1156 2273 1281 
Q 2116 1406 1581 1522 
L 1381 1569 
Q 847 1681 609 1914 
Q 372 2147 372 2553 
Q 372 3047 722 3315 
Q 1072 3584 1716 3584 
Q 2034 3584 2315 3537 
Q 2597 3491 2834 3397 
z
" transform="scale(0.015625)"/>
      <path id="DejaVuSans-5f" d="M 3263 -1063 
L 3263 -1509 
L -63 -1509 
L -63 -1063 
L 3263 -1063 
z
" transform="scale(0.015625)"/>
      <path id="DejaVuSans-70" d="M 1159 525 
L 1159 -1331 
L 581 -1331 
L 581 3500 
L 1159 3500 
L 1159 2969 
Q 1341 3281 1617 3432 
Q 1894 3584 2278 3584 
Q 2916 3584 3314 3078 
Q 3713 2572 3713 1747 
Q 3713 922 3314 415 
Q 2916 -91 2278 -91 
Q 1894 -91 1617 61 
Q 1341 213 1159 525 
z
M 3116 1747 
Q 3116 2381 2855 2742 
Q 2594 3103 2138 3103 
Q 1681 3103 1420 2742 
Q 1159 2381 1159 1747 
Q 1159 1113 1420 752 
Q 1681 391 2138 391 
Q 2594 391 2855 752 
Q 3116 1113 3116 1747 
z
" transform="scale(0.015625)"/>
      <path id="DejaVuSans-2c" d="M 750 794 
L 1409 794 
L 1409 256 
L 897 -744 
L 494 -744 
L 750 256 
L 750 794 
z
" transform="scale(0.015625)"/>
      <path id="DejaVuSans-2f" d="M 1625 4666 
L 2156 4666 
L 531 -594 
L 0 -594 
L 1625 4666 
z
" transform="scale(0.015625)"/>
      <path id="DejaVuSans-66" d="M 2375 4863 
L 2375 4384 
L 1825 4384 
Q 1516 4384 1395 4259 
Q 1275 4134 1275 3809 
L 1275 3500 
L 2222 3500 
L 2222 3053 
L 1275 3053 
L 1275 0 
L 697 0 
L 697 3053 
L 147 3053 
L 147 3500 
L 697 3500 
L 697 3744 
Q 697 4328 969 4595 
Q 1241 4863 1831 4863 
L 2375 4863 
z
" transform="scale(0.015625)"/>
      <path id="DejaVuSans-7a" d="M 353 3500 
L 3084 3500 
L 3084 2975 
L 922 459 
L 3084 459 
L 3084 0 
L 275 0 
L 275 525 
L 2438 3041 
L 353 3041 
L 353 3500 
z
" transform="scale(0.015625)"/>
     </defs>
     <use xlink:href="#DejaVuSans-6c"/>
     <use xlink:href="#DejaVuSans-69" x="27.783203"/>
     <use xlink:href="#DejaVuSans-62" x="55.566406"/>
     <use xlink:href="#DejaVuSans-78" x="119.042969"/>
     <use xlink:href="#DejaVuSans-73" x="178.222656"/>
     <use xlink:href="#DejaVuSans-6c" x="230.322266"/>
     <use xlink:href="#DejaVuSans-74" x="258.105469"/>
     <use xlink:href="#DejaVuSans-5f" x="297.314453"/>
     <use xlink:href="#DejaVuSans-78" x="347.314453"/>
     <use xlink:href="#DejaVuSans-70" x="406.494141"/>
     <use xlink:href="#DejaVuSans-61" x="469.970703"/>
     <use xlink:href="#DejaVuSans-74" x="531.25"/>
     <use xlink:href="#DejaVuSans-68" x="570.458984"/>
     <use xlink:href="#DejaVuSans-20" x="633.837891"/>
     <use xlink:href="#DejaVuSans-28" x="665.625"/>
     <use xlink:href="#DejaVuSans-32" x="704.638672"/>
     <use xlink:href="#DejaVuSans-34" x="768.261719"/>
     <use xlink:href="#DejaVuSans-68" x="831.884766"/>
     <use xlink:href="#DejaVuSans-2c" x="895.263672"/>
     <use xlink:href="#DejaVuSans-20" x="927.050781"/>
     <use xlink:href="#DejaVuSans-61" x="958.837891"/>
     <use xlink:href="#DejaVuSans-74" x="1020.117188"/>
     <use xlink:href="#DejaVuSans-20" x="1059.326172"/>
     <use xlink:href="#DejaVuSans-6c" x="1091.113281"/>
     <use xlink:href="#DejaVuSans-65" x="1118.896484"/>
     <use xlink:href="#DejaVuSans-61" x="1180.419922"/>
     <use xlink:href="#DejaVuSans-73" x="1241.699219"/>
     <use xlink:href="#DejaVuSans-74" x="1293.798828"/>
     <use xlink:href="#DejaVuSans-20" x="1333.007812"/>
     <use xlink:href="#DejaVuSans-31" x="1364.794922"/>
     <use xlink:href="#DejaVuSans-30" x="1428.417969"/>
     <use xlink:href="#DejaVuSans-20" x="1492.041016"/>
     <use xlink:href="#DejaVuSans-74" x="1523.828125"/>
     <use xlink:href="#DejaVuSans-72" x="1563.037109"/>
     <use xlink:href="#DejaVuSans-69" x="1604.150391"/>
     <use xlink:href="#DejaVuSans-61" x="1631.933594"/>
     <use xlink:href="#DejaVuSans-6c" x="1693.212891"/>
     <use xlink:href="#DejaVuSans-73" x="1720.996094"/>
     <use xlink:href="#DejaVuSans-2f" x="1773.095703"/>
     <use xlink:href="#DejaVuSans-66" x="1806.787109"/>
     <use xlink:href="#DejaVuSans-75" x="1841.992188"/>
     <use xlink:href="#DejaVuSans-7a" x="1905.371094"/>
     <use xlink:href="#DejaVuSans-7a" x="1957.861328"/>
     <use xlink:href="#DejaVuSans-65" x="2010.351562"/>
     <use xlink:href="#DejaVuSans-72" x="2071.875"/>
     <use xlink:href="#DejaVuSans-29" x="2112.988281"/>
    </g>
   </g>
   <g id="legend_1">
    <g id="line2d_24">
     <path d="M 777.930625 30.416562 
L 787.930625 30.416562 
L 797.930625 30.416562 
" style="fill: none; stroke: #1f77b4; stroke-width: 1.5; stroke-linecap: square"/>
     <defs>
      <path id="m5f3ce76529" d="M 0 3 
C 0.795609 3 1.55874 2.683901 2.12132 2.12132 
C 2.683901 1.55874 3 0.795609 3 0 
C 3 -0.795609 2.683901 -1.55874 2.12132 -2.12132 
C 1.55874 -2.683901 0.795609 -3 0 -3 
C -0.795609 -3 -1.55874 -2.683901 -2.12132 -2.12132 
C -2.683901 -1.55874 -3 -0.795609 -3 0 
C -3 0.795609 -2.683901 1.55874 -2.12132 2.12132 
C -1.55874 2.683901 -0.795609 3 0 3 
z
" style="stroke: #1f77b4"/>
     </defs>
     <g>
      <use xlink:href="#m5f3ce76529" x="787.930625" y="30.416562" style="fill: #1f77b4; stroke: #1f77b4"/>
     </g>
    </g>
    <g id="text_18">
     <!-- darwin -->
     <g transform="translate(805.930625 33.916562) scale(0.1 -0.1)">
      <defs>
       <path id="DejaVuSans-77" d="M 269 3500 
L 844 3500 
L 1563 769 
L 2278 3500 
L 2956 3500 
L 3675 769 
L 4391 3500 
L 4966 3500 
L 4050 0 
L 3372 0 
L 2619 2869 
L 1863 0 
L 1184 0 
L 269 3500 
z
" transform="scale(0.015625)"/>
      </defs>
      <use xlink:href="#DejaVuSans-64"/>
      <use xlink:href="#DejaVuSans-61" x="63.476562"/>
      <use xlink:href="#DejaVuSans-72" x="124.755859"/>
      <use xlink:href="#DejaVuSans-77" x="165.869141"/>
      <use xlink:href="#DejaVuSans-69" x="247.65625"/>
      <use xlink:href="#DejaVuSans-6e" x="275.439453"/>
     </g>
    </g>
    <g id="line2d_25">
     <path d="M 777.930625 45.094688 
L 787.930625 45.094688 
L 797.930625 45.094688 
" style="fill: none; stroke: #98df8a; stroke-width: 1.5; stroke-linecap: square"/>
     <defs>
      <path id="m106c874465" d="M -0 3 
L 3 -3 
L -3 -3 
z
" style="stroke: #98df8a; stroke-linejoin: miter"/>
     </defs>
     <g>
      <use xlink:href="#m106c874465" x="787.930625" y="45.094688" style="fill: #98df8a; stroke: #98df8a; stroke-linejoin: miter"/>
     </g>
    </g>
    <g id="text_19">
     <!-- darwin_no_pre_seed -->
     <g transform="translate(805.930625 48.594688) scale(0.1 -0.1)">
      <use xlink:href="#DejaVuSans-64"/>
      <use xlink:href="#DejaVuSans-61" x="63.476562"/>
      <use xlink:href="#DejaVuSans-72" x="124.755859"/>
      <use xlink:href="#DejaVuSans-77" x="165.869141"/>
      <use xlink:href="#DejaVuSans-69" x="247.65625"/>
      <use xlink:href="#DejaVuSans-6e" x="275.439453"/>
      <use xlink:href="#DejaVuSans-5f" x="338.818359"/>
      <use xlink:href="#DejaVuSans-6e" x="388.818359"/>
      <use xlink:href="#DejaVuSans-6f" x="452.197266"/>
      <use xlink:href="#DejaVuSans-5f" x="513.378906"/>
      <use xlink:href="#DejaVuSans-70" x="563.378906"/>
      <use xlink:href="#DejaVuSans-72" x="626.855469"/>
      <use xlink:href="#DejaVuSans-65" x="665.71875"/>
      <use xlink:href="#DejaVuSans-5f" x="727.242188"/>
      <use xlink:href="#DejaVuSans-73" x="777.242188"/>
      <use xlink:href="#DejaVuSans-65" x="829.341797"/>
      <use xlink:href="#DejaVuSans-65" x="890.865234"/>
      <use xlink:href="#DejaVuSans-64" x="952.388672"/>
     </g>
    </g>
   </g>
  </g>
 </g>
 <defs>
  <clipPath id="p25f00e8ea1">
   <rect x="59.690625" y="22.318125" width="714.24" height="266.112"/>
  </clipPath>
 </defs>
</svg>
