<?xml version="1.0" encoding="utf-8" standalone="no"?>
<!DOCTYPE svg PUBLIC "-//W3C//DTD SVG 1.1//EN"
  "http://www.w3.org/Graphics/SVG/1.1/DTD/svg11.dtd">
<svg xmlns:xlink="http://www.w3.org/1999/xlink" width="905.994687pt" height="325.986375pt" viewBox="0 0 905.994687 325.986375" xmlns="http://www.w3.org/2000/svg" version="1.1">
 <metadata>
  <rdf:RDF xmlns:dc="http://purl.org/dc/elements/1.1/" xmlns:cc="http://creativecommons.org/ns#" xmlns:rdf="http://www.w3.org/1999/02/22-rdf-syntax-ns#">
   <cc:Work>
    <dc:type rdf:resource="http://purl.org/dc/dcmitype/StillImage"/>
    <dc:date>2023-08-02T15:43:10.243839</dc:date>
    <dc:format>image/svg+xml</dc:format>
    <dc:creator>
     <cc:Agent>
      <dc:title>Matplotlib v3.7.1, https://matplotlib.org/</dc:title>
     </cc:Agent>
    </dc:creator>
   </cc:Work>
  </rdf:RDF>
 </metadata>
 <defs>
  <style type="text/css">*{stroke-linejoin: round; stroke-linecap: butt}</style>
 </defs>
 <g id="figure_1">
  <g id="patch_1">
   <path d="M 0 325.986375 
L 905.994687 325.986375 
L 905.994687 0 
L 0 0 
z
" style="fill: #ffffff"/>
  </g>
  <g id="axes_1">
   <g id="patch_2">
    <path d="M 46.965625 288.430125 
L 761.205625 288.430125 
L 761.205625 22.318125 
L 46.965625 22.318125 
z
" style="fill: #ffffff"/>
   </g>
   <g id="PolyCollection_1">
    <defs>
     <path id="m5143aa5179" d="M 46.965625 -49.65225 
L 46.965625 -49.65225 
L 54.051339 -186.666074 
L 61.137054 -186.983971 
L 68.222768 -186.983971 
L 75.308482 -187.14292 
L 82.394196 -187.297895 
L 89.479911 -187.301869 
L 96.565625 -187.301869 
L 103.651339 -187.301869 
L 110.737054 -187.301869 
L 117.822768 -187.301869 
L 124.908482 -187.301869 
L 131.994196 -187.460818 
L 139.079911 -187.619766 
L 146.165625 -187.619766 
L 153.251339 -187.619766 
L 160.337054 -187.619766 
L 167.422768 -187.619766 
L 174.508482 -187.460818 
L 181.594196 -187.619766 
L 188.679911 -187.619766 
L 195.765625 -187.619766 
L 202.851339 -187.619766 
L 209.937054 -187.619766 
L 217.022768 -187.619766 
L 224.108482 -226.085364 
L 231.194196 -226.085364 
L 238.279911 -264.550962 
L 245.365625 -226.244313 
L 252.451339 -226.403262 
L 259.537054 -226.244313 
L 266.622768 -226.244313 
L 273.708482 -226.244313 
L 280.794196 -226.399288 
L 287.879911 -226.244313 
L 294.965625 -264.709911 
L 302.051339 -264.86886 
L 309.137054 -264.709911 
L 316.222768 -264.709911 
L 323.308482 -264.709911 
L 330.394196 -264.709911 
L 337.479911 -264.709911 
L 344.565625 -264.709911 
L 351.651339 -264.709911 
L 358.737054 -264.86886 
L 365.822768 -264.86886 
L 372.908482 -264.709911 
L 379.994196 -264.709911 
L 387.079911 -264.86886 
L 394.165625 -264.709911 
L 401.251339 -264.709911 
L 408.337054 -264.86886 
L 415.422768 -264.86886 
L 422.508482 -264.709911 
L 429.594196 -264.709911 
L 436.679911 -264.709911 
L 443.765625 -264.86886 
L 450.851339 -264.86886 
L 457.937054 -264.86886 
L 465.022768 -264.709911 
L 472.108482 -264.86886 
L 479.194196 -264.709911 
L 486.279911 -264.86886 
L 493.365625 -264.86886 
L 500.451339 -264.709911 
L 507.537054 -264.709911 
L 514.622768 -264.709911 
L 521.708482 -264.709911 
L 528.794196 -264.86886 
L 535.879911 -264.709911 
L 542.965625 -264.709911 
L 550.051339 -264.709911 
L 557.137054 -264.709911 
L 564.222768 -264.86886 
L 571.308482 -264.86886 
L 578.394196 -264.709911 
L 585.479911 -264.86886 
L 592.565625 -264.864886 
L 599.651339 -264.86886 
L 606.737054 -264.709911 
L 613.822768 -264.86886 
L 620.908482 -264.86886 
L 627.994196 -264.86886 
L 635.079911 -264.86886 
L 642.165625 -264.86886 
L 649.251339 -264.86886 
L 656.337054 -264.86886 
L 663.422768 -264.864886 
L 670.508482 -264.86886 
L 677.594196 -264.86886 
L 684.679911 -264.86886 
L 691.765625 -264.86886 
L 698.851339 -264.86886 
L 705.937054 -264.709911 
L 713.022768 -264.86886 
L 720.108482 -264.86886 
L 727.194196 -264.86886 
L 727.194196 -291.57225 
L 727.194196 -291.57225 
L 720.108482 -291.57225 
L 713.022768 -291.57225 
L 705.937054 -291.57225 
L 698.851339 -291.57225 
L 691.765625 -291.57225 
L 684.679911 -291.57225 
L 677.594196 -291.57225 
L 670.508482 -291.57225 
L 663.422768 -290.145685 
L 656.337054 -290.30066 
L 649.251339 -290.141711 
L 642.165625 -290.30066 
L 635.079911 -290.304634 
L 627.994196 -289.346967 
L 620.908482 -290.30066 
L 613.822768 -290.304634 
L 606.737054 -290.30066 
L 599.651339 -289.346967 
L 592.565625 -290.30066 
L 585.479911 -290.30066 
L 578.394196 -290.30066 
L 571.308482 -289.346967 
L 564.222768 -290.459609 
L 557.137054 -289.346967 
L 550.051339 -289.346967 
L 542.965625 -290.30066 
L 535.879911 -289.346967 
L 528.794196 -289.346967 
L 521.708482 -289.346967 
L 514.622768 -289.346967 
L 507.537054 -289.346967 
L 500.451339 -289.02907 
L 493.365625 -289.188019 
L 486.279911 -289.02907 
L 479.194196 -289.02907 
L 472.108482 -289.02907 
L 465.022768 -289.02907 
L 457.937054 -289.02907 
L 450.851339 -289.02907 
L 443.765625 -289.02907 
L 436.679911 -289.02907 
L 429.594196 -289.02907 
L 422.508482 -289.02907 
L 415.422768 -289.02907 
L 408.337054 -289.02907 
L 401.251339 -289.02907 
L 394.165625 -289.02907 
L 387.079911 -289.02907 
L 379.994196 -289.02907 
L 372.908482 -289.02907 
L 365.822768 -288.711172 
L 358.737054 -288.711172 
L 351.651339 -288.711172 
L 344.565625 -288.711172 
L 337.479911 -288.71912 
L 330.394196 -288.711172 
L 323.308482 -288.711172 
L 316.222768 -288.711172 
L 309.137054 -288.711172 
L 302.051339 -288.711172 
L 294.965625 -288.711172 
L 287.879911 -288.711172 
L 280.794196 -288.711172 
L 273.708482 -288.711172 
L 266.622768 -288.711172 
L 259.537054 -288.711172 
L 252.451339 -288.711172 
L 245.365625 -288.711172 
L 238.279911 -288.711172 
L 231.194196 -288.711172 
L 224.108482 -288.711172 
L 217.022768 -288.711172 
L 209.937054 -288.711172 
L 202.851339 -288.711172 
L 195.765625 -288.711172 
L 188.679911 -288.711172 
L 181.594196 -288.711172 
L 174.508482 -284.260607 
L 167.422768 -276.790016 
L 160.337054 -276.790016 
L 153.251339 -276.631067 
L 146.165625 -276.790016 
L 139.079911 -275.995272 
L 131.994196 -275.836324 
L 124.908482 -265.449023 
L 117.822768 -275.836324 
L 110.737054 -275.836324 
L 103.651339 -275.359477 
L 96.565625 -274.882631 
L 89.479911 -265.186757 
L 82.394196 -265.186757 
L 75.308482 -264.86886 
L 68.222768 -263.915167 
L 61.137054 -263.915167 
L 54.051339 -263.915167 
L 46.965625 -49.65225 
z
" style="stroke: #98df8a; stroke-opacity: 0.2"/>
    </defs>
    <g clip-path="url(#pfb3315ef48)">
     <use xlink:href="#m5143aa5179" x="0" y="325.986375" style="fill: #98df8a; fill-opacity: 0.2; stroke: #98df8a; stroke-opacity: 0.2"/>
    </g>
   </g>
   <g id="PolyCollection_2">
    <defs>
     <path id="m3ce679a37b" d="M 46.965625 -49.65225 
L 46.965625 -49.65225 
L 54.051339 -186.983971 
L 61.137054 -186.983971 
L 68.222768 -186.983971 
L 75.308482 -187.14292 
L 82.394196 -187.301869 
L 89.479911 -187.301869 
L 96.565625 -187.301869 
L 103.651339 -187.301869 
L 110.737054 -187.301869 
L 117.822768 -191.434536 
L 124.908482 -225.926416 
L 131.994196 -226.085364 
L 139.079911 -226.244313 
L 146.165625 -226.244313 
L 153.251339 -226.244313 
L 160.337054 -226.244313 
L 167.422768 -227.515903 
L 174.508482 -226.244313 
L 181.594196 -226.403262 
L 188.679911 -226.244313 
L 195.765625 -226.085364 
L 202.851339 -226.399288 
L 209.937054 -226.244313 
L 217.022768 -226.403262 
L 224.108482 -226.403262 
L 231.194196 -226.403262 
L 238.279911 -227.488087 
L 245.365625 -227.515903 
L 252.451339 -227.515903 
L 259.537054 -227.515903 
L 266.622768 -227.515903 
L 273.708482 -227.515903 
L 280.794196 -227.515903 
L 287.879911 -226.085364 
L 294.965625 -263.93901 
L 302.051339 -227.670878 
L 309.137054 -227.515903 
L 316.222768 -227.515903 
L 323.308482 -227.515903 
L 330.394196 -227.515903 
L 337.479911 -226.085364 
L 344.565625 -227.515903 
L 351.651339 -227.515903 
L 358.737054 -264.86886 
L 365.822768 -227.515903 
L 372.908482 -227.515903 
L 379.994196 -264.86886 
L 387.079911 -227.515903 
L 394.165625 -227.515903 
L 401.251339 -227.515903 
L 408.337054 -266.299398 
L 415.422768 -266.299398 
L 422.508482 -266.299398 
L 429.594196 -266.299398 
L 436.679911 -266.299398 
L 443.765625 -266.454374 
L 450.851339 -266.299398 
L 457.937054 -266.299398 
L 465.022768 -266.458347 
L 472.108482 -266.299398 
L 479.194196 -266.299398 
L 486.279911 -266.299398 
L 493.365625 -266.299398 
L 500.451339 -266.299398 
L 507.537054 -266.776245 
L 514.622768 -266.776245 
L 521.708482 -266.299398 
L 528.794196 -267.729937 
L 535.879911 -267.729937 
L 542.965625 -267.729937 
L 550.051339 -267.729937 
L 557.137054 -267.729937 
L 564.222768 -267.729937 
L 571.308482 -267.729937 
L 578.394196 -267.729937 
L 585.479911 -267.729937 
L 592.565625 -267.729937 
L 599.651339 -267.729937 
L 606.737054 -267.729937 
L 613.822768 -267.729937 
L 620.908482 -267.729937 
L 627.994196 -267.729937 
L 635.079911 -267.729937 
L 642.165625 -267.729937 
L 649.251339 -267.729937 
L 656.337054 -267.729937 
L 663.422768 -267.729937 
L 670.508482 -267.729937 
L 677.594196 -267.729937 
L 684.679911 -267.729937 
L 691.765625 -267.729937 
L 698.851339 -267.729937 
L 705.937054 -267.729937 
L 713.022768 -267.729937 
L 720.108482 -267.729937 
L 727.194196 -267.729937 
L 727.194196 -289.346967 
L 727.194196 -289.346967 
L 720.108482 -289.346967 
L 713.022768 -289.346967 
L 705.937054 -290.459609 
L 698.851339 -289.346967 
L 691.765625 -289.346967 
L 684.679911 -289.346967 
L 677.594196 -290.459609 
L 670.508482 -289.374784 
L 663.422768 -290.459609 
L 656.337054 -290.459609 
L 649.251339 -289.346967 
L 642.165625 -290.459609 
L 635.079911 -290.459609 
L 627.994196 -289.374784 
L 620.908482 -290.777506 
L 613.822768 -289.346967 
L 606.737054 -289.346967 
L 599.651339 -290.459609 
L 592.565625 -289.346967 
L 585.479911 -289.346967 
L 578.394196 -289.346967 
L 571.308482 -290.30066 
L 564.222768 -289.346967 
L 557.137054 -289.982762 
L 550.051339 -289.346967 
L 542.965625 -289.346967 
L 535.879911 -289.346967 
L 528.794196 -289.37081 
L 521.708482 -289.346967 
L 514.622768 -289.346967 
L 507.537054 -289.346967 
L 500.451339 -289.346967 
L 493.365625 -289.346967 
L 486.279911 -289.346967 
L 479.194196 -289.346967 
L 472.108482 -289.346967 
L 465.022768 -289.346967 
L 457.937054 -289.346967 
L 450.851339 -289.346967 
L 443.765625 -289.346967 
L 436.679911 -289.346967 
L 429.594196 -289.346967 
L 422.508482 -289.346967 
L 415.422768 -289.346967 
L 408.337054 -289.37081 
L 401.251339 -289.346967 
L 394.165625 -289.346967 
L 387.079911 -289.346967 
L 379.994196 -288.393275 
L 372.908482 -288.405196 
L 365.822768 -288.393275 
L 358.737054 -288.393275 
L 351.651339 -288.393275 
L 344.565625 -288.393275 
L 337.479911 -288.393275 
L 330.394196 -288.393275 
L 323.308482 -288.393275 
L 316.222768 -288.393275 
L 309.137054 -288.393275 
L 302.051339 -288.393275 
L 294.965625 -288.393275 
L 287.879911 -283.94271 
L 280.794196 -283.94271 
L 273.708482 -283.94271 
L 266.622768 -283.94271 
L 259.537054 -283.94271 
L 252.451339 -283.94271 
L 245.365625 -283.94271 
L 238.279911 -278.220555 
L 231.194196 -278.220555 
L 224.108482 -278.061606 
L 217.022768 -278.061606 
L 209.937054 -278.220555 
L 202.851339 -278.061606 
L 195.765625 -278.061606 
L 188.679911 -268.047835 
L 181.594196 -278.06558 
L 174.508482 -278.061606 
L 167.422768 -278.061606 
L 160.337054 -278.061606 
L 153.251339 -275.363451 
L 146.165625 -274.087887 
L 139.079911 -267.729937 
L 131.994196 -267.729937 
L 124.908482 -267.888886 
L 117.822768 -267.41204 
L 110.737054 -266.14045 
L 103.651339 -265.663603 
L 96.565625 -264.86886 
L 89.479911 -264.86886 
L 82.394196 -264.86886 
L 75.308482 -264.550962 
L 68.222768 -263.915167 
L 61.137054 -263.279372 
L 54.051339 -262.337601 
L 46.965625 -49.65225 
z
" style="stroke: #1f77b4; stroke-opacity: 0.2"/>
    </defs>
    <g clip-path="url(#pfb3315ef48)">
     <use xlink:href="#m3ce679a37b" x="0" y="325.986375" style="fill: #1f77b4; fill-opacity: 0.2; stroke: #1f77b4; stroke-opacity: 0.2"/>
    </g>
   </g>
   <g id="matplotlib.axis_1">
    <g id="xtick_1">
     <g id="line2d_1">
      <defs>
       <path id="m65c6157afd" d="M 0 0 
L 0 3.5 
" style="stroke: #000000; stroke-width: 0.8"/>
      </defs>
      <g>
       <use xlink:href="#m65c6157afd" x="46.965625" y="288.430125" style="stroke: #000000; stroke-width: 0.8"/>
      </g>
     </g>
     <g id="text_1">
      <!-- 0m -->
      <g transform="translate(38.914063 303.028562) scale(0.1 -0.1)">
       <defs>
        <path id="DejaVuSans-30" d="M 2034 4250 
Q 1547 4250 1301 3770 
Q 1056 3291 1056 2328 
Q 1056 1369 1301 889 
Q 1547 409 2034 409 
Q 2525 409 2770 889 
Q 3016 1369 3016 2328 
Q 3016 3291 2770 3770 
Q 2525 4250 2034 4250 
z
M 2034 4750 
Q 2819 4750 3233 4129 
Q 3647 3509 3647 2328 
Q 3647 1150 3233 529 
Q 2819 -91 2034 -91 
Q 1250 -91 836 529 
Q 422 1150 422 2328 
Q 422 3509 836 4129 
Q 1250 4750 2034 4750 
z
" transform="scale(0.015625)"/>
        <path id="DejaVuSans-6d" d="M 3328 2828 
Q 3544 3216 3844 3400 
Q 4144 3584 4550 3584 
Q 5097 3584 5394 3201 
Q 5691 2819 5691 2113 
L 5691 0 
L 5113 0 
L 5113 2094 
Q 5113 2597 4934 2840 
Q 4756 3084 4391 3084 
Q 3944 3084 3684 2787 
Q 3425 2491 3425 1978 
L 3425 0 
L 2847 0 
L 2847 2094 
Q 2847 2600 2669 2842 
Q 2491 3084 2119 3084 
Q 1678 3084 1418 2786 
Q 1159 2488 1159 1978 
L 1159 0 
L 581 0 
L 581 3500 
L 1159 3500 
L 1159 2956 
Q 1356 3278 1631 3431 
Q 1906 3584 2284 3584 
Q 2666 3584 2933 3390 
Q 3200 3197 3328 2828 
z
" transform="scale(0.015625)"/>
       </defs>
       <use xlink:href="#DejaVuSans-30"/>
       <use xlink:href="#DejaVuSans-6d" x="63.623047"/>
      </g>
     </g>
    </g>
    <g id="xtick_2">
     <g id="line2d_2">
      <g>
       <use xlink:href="#m65c6157afd" x="103.651339" y="288.430125" style="stroke: #000000; stroke-width: 0.8"/>
      </g>
     </g>
     <g id="text_2">
      <!-- 2h -->
      <g transform="translate(97.301339 303.028562) scale(0.1 -0.1)">
       <defs>
        <path id="DejaVuSans-32" d="M 1228 531 
L 3431 531 
L 3431 0 
L 469 0 
L 469 531 
Q 828 903 1448 1529 
Q 2069 2156 2228 2338 
Q 2531 2678 2651 2914 
Q 2772 3150 2772 3378 
Q 2772 3750 2511 3984 
Q 2250 4219 1831 4219 
Q 1534 4219 1204 4116 
Q 875 4013 500 3803 
L 500 4441 
Q 881 4594 1212 4672 
Q 1544 4750 1819 4750 
Q 2544 4750 2975 4387 
Q 3406 4025 3406 3419 
Q 3406 3131 3298 2873 
Q 3191 2616 2906 2266 
Q 2828 2175 2409 1742 
Q 1991 1309 1228 531 
z
" transform="scale(0.015625)"/>
        <path id="DejaVuSans-68" d="M 3513 2113 
L 3513 0 
L 2938 0 
L 2938 2094 
Q 2938 2591 2744 2837 
Q 2550 3084 2163 3084 
Q 1697 3084 1428 2787 
Q 1159 2491 1159 1978 
L 1159 0 
L 581 0 
L 581 4863 
L 1159 4863 
L 1159 2956 
Q 1366 3272 1645 3428 
Q 1925 3584 2291 3584 
Q 2894 3584 3203 3211 
Q 3513 2838 3513 2113 
z
" transform="scale(0.015625)"/>
       </defs>
       <use xlink:href="#DejaVuSans-32"/>
       <use xlink:href="#DejaVuSans-68" x="63.623047"/>
      </g>
     </g>
    </g>
    <g id="xtick_3">
     <g id="line2d_3">
      <g>
       <use xlink:href="#m65c6157afd" x="160.337054" y="288.430125" style="stroke: #000000; stroke-width: 0.8"/>
      </g>
     </g>
     <g id="text_3">
      <!-- 4h -->
      <g transform="translate(153.987054 303.028562) scale(0.1 -0.1)">
       <defs>
        <path id="DejaVuSans-34" d="M 2419 4116 
L 825 1625 
L 2419 1625 
L 2419 4116 
z
M 2253 4666 
L 3047 4666 
L 3047 1625 
L 3713 1625 
L 3713 1100 
L 3047 1100 
L 3047 0 
L 2419 0 
L 2419 1100 
L 313 1100 
L 313 1709 
L 2253 4666 
z
" transform="scale(0.015625)"/>
       </defs>
       <use xlink:href="#DejaVuSans-34"/>
       <use xlink:href="#DejaVuSans-68" x="63.623047"/>
      </g>
     </g>
    </g>
    <g id="xtick_4">
     <g id="line2d_4">
      <g>
       <use xlink:href="#m65c6157afd" x="217.022768" y="288.430125" style="stroke: #000000; stroke-width: 0.8"/>
      </g>
     </g>
     <g id="text_4">
      <!-- 6h -->
      <g transform="translate(210.672768 303.028562) scale(0.1 -0.1)">
       <defs>
        <path id="DejaVuSans-36" d="M 2113 2584 
Q 1688 2584 1439 2293 
Q 1191 2003 1191 1497 
Q 1191 994 1439 701 
Q 1688 409 2113 409 
Q 2538 409 2786 701 
Q 3034 994 3034 1497 
Q 3034 2003 2786 2293 
Q 2538 2584 2113 2584 
z
M 3366 4563 
L 3366 3988 
Q 3128 4100 2886 4159 
Q 2644 4219 2406 4219 
Q 1781 4219 1451 3797 
Q 1122 3375 1075 2522 
Q 1259 2794 1537 2939 
Q 1816 3084 2150 3084 
Q 2853 3084 3261 2657 
Q 3669 2231 3669 1497 
Q 3669 778 3244 343 
Q 2819 -91 2113 -91 
Q 1303 -91 875 529 
Q 447 1150 447 2328 
Q 447 3434 972 4092 
Q 1497 4750 2381 4750 
Q 2619 4750 2861 4703 
Q 3103 4656 3366 4563 
z
" transform="scale(0.015625)"/>
       </defs>
       <use xlink:href="#DejaVuSans-36"/>
       <use xlink:href="#DejaVuSans-68" x="63.623047"/>
      </g>
     </g>
    </g>
    <g id="xtick_5">
     <g id="line2d_5">
      <g>
       <use xlink:href="#m65c6157afd" x="273.708482" y="288.430125" style="stroke: #000000; stroke-width: 0.8"/>
      </g>
     </g>
     <g id="text_5">
      <!-- 8h -->
      <g transform="translate(267.358482 303.028562) scale(0.1 -0.1)">
       <defs>
        <path id="DejaVuSans-38" d="M 2034 2216 
Q 1584 2216 1326 1975 
Q 1069 1734 1069 1313 
Q 1069 891 1326 650 
Q 1584 409 2034 409 
Q 2484 409 2743 651 
Q 3003 894 3003 1313 
Q 3003 1734 2745 1975 
Q 2488 2216 2034 2216 
z
M 1403 2484 
Q 997 2584 770 2862 
Q 544 3141 544 3541 
Q 544 4100 942 4425 
Q 1341 4750 2034 4750 
Q 2731 4750 3128 4425 
Q 3525 4100 3525 3541 
Q 3525 3141 3298 2862 
Q 3072 2584 2669 2484 
Q 3125 2378 3379 2068 
Q 3634 1759 3634 1313 
Q 3634 634 3220 271 
Q 2806 -91 2034 -91 
Q 1263 -91 848 271 
Q 434 634 434 1313 
Q 434 1759 690 2068 
Q 947 2378 1403 2484 
z
M 1172 3481 
Q 1172 3119 1398 2916 
Q 1625 2713 2034 2713 
Q 2441 2713 2670 2916 
Q 2900 3119 2900 3481 
Q 2900 3844 2670 4047 
Q 2441 4250 2034 4250 
Q 1625 4250 1398 4047 
Q 1172 3844 1172 3481 
z
" transform="scale(0.015625)"/>
       </defs>
       <use xlink:href="#DejaVuSans-38"/>
       <use xlink:href="#DejaVuSans-68" x="63.623047"/>
      </g>
     </g>
    </g>
    <g id="xtick_6">
     <g id="line2d_6">
      <g>
       <use xlink:href="#m65c6157afd" x="330.394196" y="288.430125" style="stroke: #000000; stroke-width: 0.8"/>
      </g>
     </g>
     <g id="text_6">
      <!-- 10h -->
      <g transform="translate(320.862946 303.028562) scale(0.1 -0.1)">
       <defs>
        <path id="DejaVuSans-31" d="M 794 531 
L 1825 531 
L 1825 4091 
L 703 3866 
L 703 4441 
L 1819 4666 
L 2450 4666 
L 2450 531 
L 3481 531 
L 3481 0 
L 794 0 
L 794 531 
z
" transform="scale(0.015625)"/>
       </defs>
       <use xlink:href="#DejaVuSans-31"/>
       <use xlink:href="#DejaVuSans-30" x="63.623047"/>
       <use xlink:href="#DejaVuSans-68" x="127.246094"/>
      </g>
     </g>
    </g>
    <g id="xtick_7">
     <g id="line2d_7">
      <g>
       <use xlink:href="#m65c6157afd" x="387.079911" y="288.430125" style="stroke: #000000; stroke-width: 0.8"/>
      </g>
     </g>
     <g id="text_7">
      <!-- 12h -->
      <g transform="translate(377.548661 303.028562) scale(0.1 -0.1)">
       <use xlink:href="#DejaVuSans-31"/>
       <use xlink:href="#DejaVuSans-32" x="63.623047"/>
       <use xlink:href="#DejaVuSans-68" x="127.246094"/>
      </g>
     </g>
    </g>
    <g id="xtick_8">
     <g id="line2d_8">
      <g>
       <use xlink:href="#m65c6157afd" x="443.765625" y="288.430125" style="stroke: #000000; stroke-width: 0.8"/>
      </g>
     </g>
     <g id="text_8">
      <!-- 14h -->
      <g transform="translate(434.234375 303.028562) scale(0.1 -0.1)">
       <use xlink:href="#DejaVuSans-31"/>
       <use xlink:href="#DejaVuSans-34" x="63.623047"/>
       <use xlink:href="#DejaVuSans-68" x="127.246094"/>
      </g>
     </g>
    </g>
    <g id="xtick_9">
     <g id="line2d_9">
      <g>
       <use xlink:href="#m65c6157afd" x="500.451339" y="288.430125" style="stroke: #000000; stroke-width: 0.8"/>
      </g>
     </g>
     <g id="text_9">
      <!-- 16h -->
      <g transform="translate(490.920089 303.028562) scale(0.1 -0.1)">
       <use xlink:href="#DejaVuSans-31"/>
       <use xlink:href="#DejaVuSans-36" x="63.623047"/>
       <use xlink:href="#DejaVuSans-68" x="127.246094"/>
      </g>
     </g>
    </g>
    <g id="xtick_10">
     <g id="line2d_10">
      <g>
       <use xlink:href="#m65c6157afd" x="557.137054" y="288.430125" style="stroke: #000000; stroke-width: 0.8"/>
      </g>
     </g>
     <g id="text_10">
      <!-- 18h -->
      <g transform="translate(547.605804 303.028562) scale(0.1 -0.1)">
       <use xlink:href="#DejaVuSans-31"/>
       <use xlink:href="#DejaVuSans-38" x="63.623047"/>
       <use xlink:href="#DejaVuSans-68" x="127.246094"/>
      </g>
     </g>
    </g>
    <g id="xtick_11">
     <g id="line2d_11">
      <g>
       <use xlink:href="#m65c6157afd" x="613.822768" y="288.430125" style="stroke: #000000; stroke-width: 0.8"/>
      </g>
     </g>
     <g id="text_11">
      <!-- 20h -->
      <g transform="translate(604.291518 303.028562) scale(0.1 -0.1)">
       <use xlink:href="#DejaVuSans-32"/>
       <use xlink:href="#DejaVuSans-30" x="63.623047"/>
       <use xlink:href="#DejaVuSans-68" x="127.246094"/>
      </g>
     </g>
    </g>
    <g id="xtick_12">
     <g id="line2d_12">
      <g>
       <use xlink:href="#m65c6157afd" x="670.508482" y="288.430125" style="stroke: #000000; stroke-width: 0.8"/>
      </g>
     </g>
     <g id="text_12">
      <!-- 22h -->
      <g transform="translate(660.977232 303.028562) scale(0.1 -0.1)">
       <use xlink:href="#DejaVuSans-32"/>
       <use xlink:href="#DejaVuSans-32" x="63.623047"/>
       <use xlink:href="#DejaVuSans-68" x="127.246094"/>
      </g>
     </g>
    </g>
    <g id="xtick_13">
     <g id="line2d_13">
      <g>
       <use xlink:href="#m65c6157afd" x="727.194196" y="288.430125" style="stroke: #000000; stroke-width: 0.8"/>
      </g>
     </g>
     <g id="text_13">
      <!-- 24h -->
      <g transform="translate(717.662946 303.028562) scale(0.1 -0.1)">
       <use xlink:href="#DejaVuSans-32"/>
       <use xlink:href="#DejaVuSans-34" x="63.623047"/>
       <use xlink:href="#DejaVuSans-68" x="127.246094"/>
      </g>
     </g>
    </g>
    <g id="text_14">
     <!-- Time (hour:minute) -->
     <g transform="translate(355.678594 316.706687) scale(0.1 -0.1)">
      <defs>
       <path id="DejaVuSans-54" d="M -19 4666 
L 3928 4666 
L 3928 4134 
L 2272 4134 
L 2272 0 
L 1638 0 
L 1638 4134 
L -19 4134 
L -19 4666 
z
" transform="scale(0.015625)"/>
       <path id="DejaVuSans-69" d="M 603 3500 
L 1178 3500 
L 1178 0 
L 603 0 
L 603 3500 
z
M 603 4863 
L 1178 4863 
L 1178 4134 
L 603 4134 
L 603 4863 
z
" transform="scale(0.015625)"/>
       <path id="DejaVuSans-65" d="M 3597 1894 
L 3597 1613 
L 953 1613 
Q 991 1019 1311 708 
Q 1631 397 2203 397 
Q 2534 397 2845 478 
Q 3156 559 3463 722 
L 3463 178 
Q 3153 47 2828 -22 
Q 2503 -91 2169 -91 
Q 1331 -91 842 396 
Q 353 884 353 1716 
Q 353 2575 817 3079 
Q 1281 3584 2069 3584 
Q 2775 3584 3186 3129 
Q 3597 2675 3597 1894 
z
M 3022 2063 
Q 3016 2534 2758 2815 
Q 2500 3097 2075 3097 
Q 1594 3097 1305 2825 
Q 1016 2553 972 2059 
L 3022 2063 
z
" transform="scale(0.015625)"/>
       <path id="DejaVuSans-20" transform="scale(0.015625)"/>
       <path id="DejaVuSans-28" d="M 1984 4856 
Q 1566 4138 1362 3434 
Q 1159 2731 1159 2009 
Q 1159 1288 1364 580 
Q 1569 -128 1984 -844 
L 1484 -844 
Q 1016 -109 783 600 
Q 550 1309 550 2009 
Q 550 2706 781 3412 
Q 1013 4119 1484 4856 
L 1984 4856 
z
" transform="scale(0.015625)"/>
       <path id="DejaVuSans-6f" d="M 1959 3097 
Q 1497 3097 1228 2736 
Q 959 2375 959 1747 
Q 959 1119 1226 758 
Q 1494 397 1959 397 
Q 2419 397 2687 759 
Q 2956 1122 2956 1747 
Q 2956 2369 2687 2733 
Q 2419 3097 1959 3097 
z
M 1959 3584 
Q 2709 3584 3137 3096 
Q 3566 2609 3566 1747 
Q 3566 888 3137 398 
Q 2709 -91 1959 -91 
Q 1206 -91 779 398 
Q 353 888 353 1747 
Q 353 2609 779 3096 
Q 1206 3584 1959 3584 
z
" transform="scale(0.015625)"/>
       <path id="DejaVuSans-75" d="M 544 1381 
L 544 3500 
L 1119 3500 
L 1119 1403 
Q 1119 906 1312 657 
Q 1506 409 1894 409 
Q 2359 409 2629 706 
Q 2900 1003 2900 1516 
L 2900 3500 
L 3475 3500 
L 3475 0 
L 2900 0 
L 2900 538 
Q 2691 219 2414 64 
Q 2138 -91 1772 -91 
Q 1169 -91 856 284 
Q 544 659 544 1381 
z
M 1991 3584 
L 1991 3584 
z
" transform="scale(0.015625)"/>
       <path id="DejaVuSans-72" d="M 2631 2963 
Q 2534 3019 2420 3045 
Q 2306 3072 2169 3072 
Q 1681 3072 1420 2755 
Q 1159 2438 1159 1844 
L 1159 0 
L 581 0 
L 581 3500 
L 1159 3500 
L 1159 2956 
Q 1341 3275 1631 3429 
Q 1922 3584 2338 3584 
Q 2397 3584 2469 3576 
Q 2541 3569 2628 3553 
L 2631 2963 
z
" transform="scale(0.015625)"/>
       <path id="DejaVuSans-3a" d="M 750 794 
L 1409 794 
L 1409 0 
L 750 0 
L 750 794 
z
M 750 3309 
L 1409 3309 
L 1409 2516 
L 750 2516 
L 750 3309 
z
" transform="scale(0.015625)"/>
       <path id="DejaVuSans-6e" d="M 3513 2113 
L 3513 0 
L 2938 0 
L 2938 2094 
Q 2938 2591 2744 2837 
Q 2550 3084 2163 3084 
Q 1697 3084 1428 2787 
Q 1159 2491 1159 1978 
L 1159 0 
L 581 0 
L 581 3500 
L 1159 3500 
L 1159 2956 
Q 1366 3272 1645 3428 
Q 1925 3584 2291 3584 
Q 2894 3584 3203 3211 
Q 3513 2838 3513 2113 
z
" transform="scale(0.015625)"/>
       <path id="DejaVuSans-74" d="M 1172 4494 
L 1172 3500 
L 2356 3500 
L 2356 3053 
L 1172 3053 
L 1172 1153 
Q 1172 725 1289 603 
Q 1406 481 1766 481 
L 2356 481 
L 2356 0 
L 1766 0 
Q 1100 0 847 248 
Q 594 497 594 1153 
L 594 3053 
L 172 3053 
L 172 3500 
L 594 3500 
L 594 4494 
L 1172 4494 
z
" transform="scale(0.015625)"/>
       <path id="DejaVuSans-29" d="M 513 4856 
L 1013 4856 
Q 1481 4119 1714 3412 
Q 1947 2706 1947 2009 
Q 1947 1309 1714 600 
Q 1481 -109 1013 -844 
L 513 -844 
Q 928 -128 1133 580 
Q 1338 1288 1338 2009 
Q 1338 2731 1133 3434 
Q 928 4138 513 4856 
z
" transform="scale(0.015625)"/>
      </defs>
      <use xlink:href="#DejaVuSans-54"/>
      <use xlink:href="#DejaVuSans-69" x="57.958984"/>
      <use xlink:href="#DejaVuSans-6d" x="85.742188"/>
      <use xlink:href="#DejaVuSans-65" x="183.154297"/>
      <use xlink:href="#DejaVuSans-20" x="244.677734"/>
      <use xlink:href="#DejaVuSans-28" x="276.464844"/>
      <use xlink:href="#DejaVuSans-68" x="315.478516"/>
      <use xlink:href="#DejaVuSans-6f" x="378.857422"/>
      <use xlink:href="#DejaVuSans-75" x="440.039062"/>
      <use xlink:href="#DejaVuSans-72" x="503.417969"/>
      <use xlink:href="#DejaVuSans-3a" x="542.78125"/>
      <use xlink:href="#DejaVuSans-6d" x="576.472656"/>
      <use xlink:href="#DejaVuSans-69" x="673.884766"/>
      <use xlink:href="#DejaVuSans-6e" x="701.667969"/>
      <use xlink:href="#DejaVuSans-75" x="765.046875"/>
      <use xlink:href="#DejaVuSans-74" x="828.425781"/>
      <use xlink:href="#DejaVuSans-65" x="867.634766"/>
      <use xlink:href="#DejaVuSans-29" x="929.158203"/>
     </g>
    </g>
   </g>
   <g id="matplotlib.axis_2">
    <g id="ytick_1">
     <g id="line2d_14">
      <defs>
       <path id="m7f23083509" d="M 0 0 
L -3.5 0 
" style="stroke: #000000; stroke-width: 0.8"/>
      </defs>
      <g>
       <use xlink:href="#m7f23083509" x="46.965625" y="262.028737" style="stroke: #000000; stroke-width: 0.8"/>
      </g>
     </g>
     <g id="text_15">
      <!-- 100 -->
      <g transform="translate(20.878125 265.827956) scale(0.1 -0.1)">
       <use xlink:href="#DejaVuSans-31"/>
       <use xlink:href="#DejaVuSans-30" x="63.623047"/>
       <use xlink:href="#DejaVuSans-30" x="127.246094"/>
      </g>
     </g>
    </g>
    <g id="ytick_2">
     <g id="line2d_15">
      <g>
       <use xlink:href="#m7f23083509" x="46.965625" y="230.238987" style="stroke: #000000; stroke-width: 0.8"/>
      </g>
     </g>
     <g id="text_16">
      <!-- 200 -->
      <g transform="translate(20.878125 234.038206) scale(0.1 -0.1)">
       <use xlink:href="#DejaVuSans-32"/>
       <use xlink:href="#DejaVuSans-30" x="63.623047"/>
       <use xlink:href="#DejaVuSans-30" x="127.246094"/>
      </g>
     </g>
    </g>
    <g id="ytick_3">
     <g id="line2d_16">
      <g>
       <use xlink:href="#m7f23083509" x="46.965625" y="198.449237" style="stroke: #000000; stroke-width: 0.8"/>
      </g>
     </g>
     <g id="text_17">
      <!-- 300 -->
      <g transform="translate(20.878125 202.248455) scale(0.1 -0.1)">
       <defs>
        <path id="DejaVuSans-33" d="M 2597 2516 
Q 3050 2419 3304 2112 
Q 3559 1806 3559 1356 
Q 3559 666 3084 287 
Q 2609 -91 1734 -91 
Q 1441 -91 1130 -33 
Q 819 25 488 141 
L 488 750 
Q 750 597 1062 519 
Q 1375 441 1716 441 
Q 2309 441 2620 675 
Q 2931 909 2931 1356 
Q 2931 1769 2642 2001 
Q 2353 2234 1838 2234 
L 1294 2234 
L 1294 2753 
L 1863 2753 
Q 2328 2753 2575 2939 
Q 2822 3125 2822 3475 
Q 2822 3834 2567 4026 
Q 2313 4219 1838 4219 
Q 1578 4219 1281 4162 
Q 984 4106 628 3988 
L 628 4550 
Q 988 4650 1302 4700 
Q 1616 4750 1894 4750 
Q 2613 4750 3031 4423 
Q 3450 4097 3450 3541 
Q 3450 3153 3228 2886 
Q 3006 2619 2597 2516 
z
" transform="scale(0.015625)"/>
       </defs>
       <use xlink:href="#DejaVuSans-33"/>
       <use xlink:href="#DejaVuSans-30" x="63.623047"/>
       <use xlink:href="#DejaVuSans-30" x="127.246094"/>
      </g>
     </g>
    </g>
    <g id="ytick_4">
     <g id="line2d_17">
      <g>
       <use xlink:href="#m7f23083509" x="46.965625" y="166.659486" style="stroke: #000000; stroke-width: 0.8"/>
      </g>
     </g>
     <g id="text_18">
      <!-- 400 -->
      <g transform="translate(20.878125 170.458705) scale(0.1 -0.1)">
       <use xlink:href="#DejaVuSans-34"/>
       <use xlink:href="#DejaVuSans-30" x="63.623047"/>
       <use xlink:href="#DejaVuSans-30" x="127.246094"/>
      </g>
     </g>
    </g>
    <g id="ytick_5">
     <g id="line2d_18">
      <g>
       <use xlink:href="#m7f23083509" x="46.965625" y="134.869736" style="stroke: #000000; stroke-width: 0.8"/>
      </g>
     </g>
     <g id="text_19">
      <!-- 500 -->
      <g transform="translate(20.878125 138.668955) scale(0.1 -0.1)">
       <defs>
        <path id="DejaVuSans-35" d="M 691 4666 
L 3169 4666 
L 3169 4134 
L 1269 4134 
L 1269 2991 
Q 1406 3038 1543 3061 
Q 1681 3084 1819 3084 
Q 2600 3084 3056 2656 
Q 3513 2228 3513 1497 
Q 3513 744 3044 326 
Q 2575 -91 1722 -91 
Q 1428 -91 1123 -41 
Q 819 9 494 109 
L 494 744 
Q 775 591 1075 516 
Q 1375 441 1709 441 
Q 2250 441 2565 725 
Q 2881 1009 2881 1497 
Q 2881 1984 2565 2268 
Q 2250 2553 1709 2553 
Q 1456 2553 1204 2497 
Q 953 2441 691 2322 
L 691 4666 
z
" transform="scale(0.015625)"/>
       </defs>
       <use xlink:href="#DejaVuSans-35"/>
       <use xlink:href="#DejaVuSans-30" x="63.623047"/>
       <use xlink:href="#DejaVuSans-30" x="127.246094"/>
      </g>
     </g>
    </g>
    <g id="ytick_6">
     <g id="line2d_19">
      <g>
       <use xlink:href="#m7f23083509" x="46.965625" y="103.079986" style="stroke: #000000; stroke-width: 0.8"/>
      </g>
     </g>
     <g id="text_20">
      <!-- 600 -->
      <g transform="translate(20.878125 106.879204) scale(0.1 -0.1)">
       <use xlink:href="#DejaVuSans-36"/>
       <use xlink:href="#DejaVuSans-30" x="63.623047"/>
       <use xlink:href="#DejaVuSans-30" x="127.246094"/>
      </g>
     </g>
    </g>
    <g id="ytick_7">
     <g id="line2d_20">
      <g>
       <use xlink:href="#m7f23083509" x="46.965625" y="71.290235" style="stroke: #000000; stroke-width: 0.8"/>
      </g>
     </g>
     <g id="text_21">
      <!-- 700 -->
      <g transform="translate(20.878125 75.089454) scale(0.1 -0.1)">
       <defs>
        <path id="DejaVuSans-37" d="M 525 4666 
L 3525 4666 
L 3525 4397 
L 1831 0 
L 1172 0 
L 2766 4134 
L 525 4134 
L 525 4666 
z
" transform="scale(0.015625)"/>
       </defs>
       <use xlink:href="#DejaVuSans-37"/>
       <use xlink:href="#DejaVuSans-30" x="63.623047"/>
       <use xlink:href="#DejaVuSans-30" x="127.246094"/>
      </g>
     </g>
    </g>
    <g id="ytick_8">
     <g id="line2d_21">
      <g>
       <use xlink:href="#m7f23083509" x="46.965625" y="39.500485" style="stroke: #000000; stroke-width: 0.8"/>
      </g>
     </g>
     <g id="text_22">
      <!-- 800 -->
      <g transform="translate(20.878125 43.299704) scale(0.1 -0.1)">
       <use xlink:href="#DejaVuSans-38"/>
       <use xlink:href="#DejaVuSans-30" x="63.623047"/>
       <use xlink:href="#DejaVuSans-30" x="127.246094"/>
      </g>
     </g>
    </g>
    <g id="text_23">
     <!-- Code branch coverage -->
     <g transform="translate(14.798438 211.949125) rotate(-90) scale(0.1 -0.1)">
      <defs>
       <path id="DejaVuSans-43" d="M 4122 4306 
L 4122 3641 
Q 3803 3938 3442 4084 
Q 3081 4231 2675 4231 
Q 1875 4231 1450 3742 
Q 1025 3253 1025 2328 
Q 1025 1406 1450 917 
Q 1875 428 2675 428 
Q 3081 428 3442 575 
Q 3803 722 4122 1019 
L 4122 359 
Q 3791 134 3420 21 
Q 3050 -91 2638 -91 
Q 1578 -91 968 557 
Q 359 1206 359 2328 
Q 359 3453 968 4101 
Q 1578 4750 2638 4750 
Q 3056 4750 3426 4639 
Q 3797 4528 4122 4306 
z
" transform="scale(0.015625)"/>
       <path id="DejaVuSans-64" d="M 2906 2969 
L 2906 4863 
L 3481 4863 
L 3481 0 
L 2906 0 
L 2906 525 
Q 2725 213 2448 61 
Q 2172 -91 1784 -91 
Q 1150 -91 751 415 
Q 353 922 353 1747 
Q 353 2572 751 3078 
Q 1150 3584 1784 3584 
Q 2172 3584 2448 3432 
Q 2725 3281 2906 2969 
z
M 947 1747 
Q 947 1113 1208 752 
Q 1469 391 1925 391 
Q 2381 391 2643 752 
Q 2906 1113 2906 1747 
Q 2906 2381 2643 2742 
Q 2381 3103 1925 3103 
Q 1469 3103 1208 2742 
Q 947 2381 947 1747 
z
" transform="scale(0.015625)"/>
       <path id="DejaVuSans-62" d="M 3116 1747 
Q 3116 2381 2855 2742 
Q 2594 3103 2138 3103 
Q 1681 3103 1420 2742 
Q 1159 2381 1159 1747 
Q 1159 1113 1420 752 
Q 1681 391 2138 391 
Q 2594 391 2855 752 
Q 3116 1113 3116 1747 
z
M 1159 2969 
Q 1341 3281 1617 3432 
Q 1894 3584 2278 3584 
Q 2916 3584 3314 3078 
Q 3713 2572 3713 1747 
Q 3713 922 3314 415 
Q 2916 -91 2278 -91 
Q 1894 -91 1617 61 
Q 1341 213 1159 525 
L 1159 0 
L 581 0 
L 581 4863 
L 1159 4863 
L 1159 2969 
z
" transform="scale(0.015625)"/>
       <path id="DejaVuSans-61" d="M 2194 1759 
Q 1497 1759 1228 1600 
Q 959 1441 959 1056 
Q 959 750 1161 570 
Q 1363 391 1709 391 
Q 2188 391 2477 730 
Q 2766 1069 2766 1631 
L 2766 1759 
L 2194 1759 
z
M 3341 1997 
L 3341 0 
L 2766 0 
L 2766 531 
Q 2569 213 2275 61 
Q 1981 -91 1556 -91 
Q 1019 -91 701 211 
Q 384 513 384 1019 
Q 384 1609 779 1909 
Q 1175 2209 1959 2209 
L 2766 2209 
L 2766 2266 
Q 2766 2663 2505 2880 
Q 2244 3097 1772 3097 
Q 1472 3097 1187 3025 
Q 903 2953 641 2809 
L 641 3341 
Q 956 3463 1253 3523 
Q 1550 3584 1831 3584 
Q 2591 3584 2966 3190 
Q 3341 2797 3341 1997 
z
" transform="scale(0.015625)"/>
       <path id="DejaVuSans-63" d="M 3122 3366 
L 3122 2828 
Q 2878 2963 2633 3030 
Q 2388 3097 2138 3097 
Q 1578 3097 1268 2742 
Q 959 2388 959 1747 
Q 959 1106 1268 751 
Q 1578 397 2138 397 
Q 2388 397 2633 464 
Q 2878 531 3122 666 
L 3122 134 
Q 2881 22 2623 -34 
Q 2366 -91 2075 -91 
Q 1284 -91 818 406 
Q 353 903 353 1747 
Q 353 2603 823 3093 
Q 1294 3584 2113 3584 
Q 2378 3584 2631 3529 
Q 2884 3475 3122 3366 
z
" transform="scale(0.015625)"/>
       <path id="DejaVuSans-76" d="M 191 3500 
L 800 3500 
L 1894 563 
L 2988 3500 
L 3597 3500 
L 2284 0 
L 1503 0 
L 191 3500 
z
" transform="scale(0.015625)"/>
       <path id="DejaVuSans-67" d="M 2906 1791 
Q 2906 2416 2648 2759 
Q 2391 3103 1925 3103 
Q 1463 3103 1205 2759 
Q 947 2416 947 1791 
Q 947 1169 1205 825 
Q 1463 481 1925 481 
Q 2391 481 2648 825 
Q 2906 1169 2906 1791 
z
M 3481 434 
Q 3481 -459 3084 -895 
Q 2688 -1331 1869 -1331 
Q 1566 -1331 1297 -1286 
Q 1028 -1241 775 -1147 
L 775 -588 
Q 1028 -725 1275 -790 
Q 1522 -856 1778 -856 
Q 2344 -856 2625 -561 
Q 2906 -266 2906 331 
L 2906 616 
Q 2728 306 2450 153 
Q 2172 0 1784 0 
Q 1141 0 747 490 
Q 353 981 353 1791 
Q 353 2603 747 3093 
Q 1141 3584 1784 3584 
Q 2172 3584 2450 3431 
Q 2728 3278 2906 2969 
L 2906 3500 
L 3481 3500 
L 3481 434 
z
" transform="scale(0.015625)"/>
      </defs>
      <use xlink:href="#DejaVuSans-43"/>
      <use xlink:href="#DejaVuSans-6f" x="69.824219"/>
      <use xlink:href="#DejaVuSans-64" x="131.005859"/>
      <use xlink:href="#DejaVuSans-65" x="194.482422"/>
      <use xlink:href="#DejaVuSans-20" x="256.005859"/>
      <use xlink:href="#DejaVuSans-62" x="287.792969"/>
      <use xlink:href="#DejaVuSans-72" x="351.269531"/>
      <use xlink:href="#DejaVuSans-61" x="392.382812"/>
      <use xlink:href="#DejaVuSans-6e" x="453.662109"/>
      <use xlink:href="#DejaVuSans-63" x="517.041016"/>
      <use xlink:href="#DejaVuSans-68" x="572.021484"/>
      <use xlink:href="#DejaVuSans-20" x="635.400391"/>
      <use xlink:href="#DejaVuSans-63" x="667.1875"/>
      <use xlink:href="#DejaVuSans-6f" x="722.167969"/>
      <use xlink:href="#DejaVuSans-76" x="783.349609"/>
      <use xlink:href="#DejaVuSans-65" x="842.529297"/>
      <use xlink:href="#DejaVuSans-72" x="904.052734"/>
      <use xlink:href="#DejaVuSans-61" x="945.166016"/>
      <use xlink:href="#DejaVuSans-67" x="1006.445312"/>
      <use xlink:href="#DejaVuSans-65" x="1069.921875"/>
     </g>
    </g>
   </g>
   <g id="line2d_22">
    <path d="M 46.965625 276.334125 
L 54.051339 138.843455 
L 61.137054 138.684506 
L 68.222768 104.510524 
L 75.308482 100.059959 
L 82.394196 99.901011 
L 89.479911 99.901011 
L 96.565625 99.901011 
L 103.651339 99.901011 
L 110.737054 99.901011 
L 117.822768 99.901011 
L 124.908482 99.901011 
L 131.994196 63.342798 
L 139.079911 63.0249 
L 146.165625 62.548054 
L 153.251339 61.435413 
L 160.337054 61.276464 
L 167.422768 61.276464 
L 174.508482 60.958567 
L 181.594196 60.958567 
L 188.679911 60.958567 
L 195.765625 60.958567 
L 202.851339 60.958567 
L 209.937054 60.958567 
L 217.022768 60.958567 
L 224.108482 60.958567 
L 231.194196 60.958567 
L 238.279911 60.958567 
L 245.365625 60.958567 
L 252.451339 60.958567 
L 259.537054 60.958567 
L 266.622768 60.958567 
L 273.708482 60.958567 
L 280.794196 60.958567 
L 287.879911 60.958567 
L 294.965625 59.528028 
L 302.051339 59.528028 
L 309.137054 59.528028 
L 316.222768 59.528028 
L 323.308482 59.528028 
L 330.394196 59.528028 
L 337.479911 59.528028 
L 344.565625 59.528028 
L 351.651339 59.528028 
L 358.737054 59.528028 
L 365.822768 59.528028 
L 372.908482 59.528028 
L 379.994196 59.528028 
L 387.079911 59.528028 
L 394.165625 59.528028 
L 401.251339 59.528028 
L 408.337054 59.528028 
L 415.422768 59.528028 
L 422.508482 59.528028 
L 429.594196 59.528028 
L 436.679911 59.528028 
L 443.765625 59.528028 
L 450.851339 59.528028 
L 457.937054 59.528028 
L 465.022768 59.528028 
L 472.108482 59.528028 
L 479.194196 59.528028 
L 486.279911 59.528028 
L 493.365625 59.528028 
L 500.451339 59.528028 
L 507.537054 59.528028 
L 514.622768 59.528028 
L 521.708482 59.528028 
L 528.794196 59.528028 
L 535.879911 59.528028 
L 542.965625 59.528028 
L 550.051339 59.528028 
L 557.137054 59.528028 
L 564.222768 50.626898 
L 571.308482 50.626898 
L 578.394196 50.626898 
L 585.479911 50.626898 
L 592.565625 50.150051 
L 599.651339 50.150051 
L 606.737054 50.150051 
L 613.822768 50.150051 
L 620.908482 50.150051 
L 627.994196 50.150051 
L 635.079911 50.150051 
L 642.165625 50.150051 
L 649.251339 47.447923 
L 656.337054 38.546793 
L 663.422768 38.069946 
L 670.508482 37.116254 
L 677.594196 37.116254 
L 684.679911 37.116254 
L 691.765625 37.116254 
L 698.851339 37.116254 
L 705.937054 37.116254 
L 713.022768 37.116254 
L 720.108482 37.116254 
L 727.194196 37.116254 
" clip-path="url(#pfb3315ef48)" style="fill: none; stroke: #98df8a; stroke-width: 1.5; stroke-linecap: square"/>
    <defs>
     <path id="mcd9da5beb1" d="M -0 3 
L 3 -3 
L -3 -3 
z
" style="stroke: #ffffff; stroke-width: 0.75; stroke-linejoin: miter"/>
    </defs>
    <g clip-path="url(#pfb3315ef48)">
     <use xlink:href="#mcd9da5beb1" x="46.965625" y="276.334125" style="fill: #98df8a; stroke: #ffffff; stroke-width: 0.75; stroke-linejoin: miter"/>
     <use xlink:href="#mcd9da5beb1" x="54.051339" y="138.843455" style="fill: #98df8a; stroke: #ffffff; stroke-width: 0.75; stroke-linejoin: miter"/>
     <use xlink:href="#mcd9da5beb1" x="61.137054" y="138.684506" style="fill: #98df8a; stroke: #ffffff; stroke-width: 0.75; stroke-linejoin: miter"/>
     <use xlink:href="#mcd9da5beb1" x="68.222768" y="104.510524" style="fill: #98df8a; stroke: #ffffff; stroke-width: 0.75; stroke-linejoin: miter"/>
     <use xlink:href="#mcd9da5beb1" x="75.308482" y="100.059959" style="fill: #98df8a; stroke: #ffffff; stroke-width: 0.75; stroke-linejoin: miter"/>
     <use xlink:href="#mcd9da5beb1" x="82.394196" y="99.901011" style="fill: #98df8a; stroke: #ffffff; stroke-width: 0.75; stroke-linejoin: miter"/>
     <use xlink:href="#mcd9da5beb1" x="89.479911" y="99.901011" style="fill: #98df8a; stroke: #ffffff; stroke-width: 0.75; stroke-linejoin: miter"/>
     <use xlink:href="#mcd9da5beb1" x="96.565625" y="99.901011" style="fill: #98df8a; stroke: #ffffff; stroke-width: 0.75; stroke-linejoin: miter"/>
     <use xlink:href="#mcd9da5beb1" x="103.651339" y="99.901011" style="fill: #98df8a; stroke: #ffffff; stroke-width: 0.75; stroke-linejoin: miter"/>
     <use xlink:href="#mcd9da5beb1" x="110.737054" y="99.901011" style="fill: #98df8a; stroke: #ffffff; stroke-width: 0.75; stroke-linejoin: miter"/>
     <use xlink:href="#mcd9da5beb1" x="117.822768" y="99.901011" style="fill: #98df8a; stroke: #ffffff; stroke-width: 0.75; stroke-linejoin: miter"/>
     <use xlink:href="#mcd9da5beb1" x="124.908482" y="99.901011" style="fill: #98df8a; stroke: #ffffff; stroke-width: 0.75; stroke-linejoin: miter"/>
     <use xlink:href="#mcd9da5beb1" x="131.994196" y="63.342798" style="fill: #98df8a; stroke: #ffffff; stroke-width: 0.75; stroke-linejoin: miter"/>
     <use xlink:href="#mcd9da5beb1" x="139.079911" y="63.0249" style="fill: #98df8a; stroke: #ffffff; stroke-width: 0.75; stroke-linejoin: miter"/>
     <use xlink:href="#mcd9da5beb1" x="146.165625" y="62.548054" style="fill: #98df8a; stroke: #ffffff; stroke-width: 0.75; stroke-linejoin: miter"/>
     <use xlink:href="#mcd9da5beb1" x="153.251339" y="61.435413" style="fill: #98df8a; stroke: #ffffff; stroke-width: 0.75; stroke-linejoin: miter"/>
     <use xlink:href="#mcd9da5beb1" x="160.337054" y="61.276464" style="fill: #98df8a; stroke: #ffffff; stroke-width: 0.75; stroke-linejoin: miter"/>
     <use xlink:href="#mcd9da5beb1" x="167.422768" y="61.276464" style="fill: #98df8a; stroke: #ffffff; stroke-width: 0.75; stroke-linejoin: miter"/>
     <use xlink:href="#mcd9da5beb1" x="174.508482" y="60.958567" style="fill: #98df8a; stroke: #ffffff; stroke-width: 0.75; stroke-linejoin: miter"/>
     <use xlink:href="#mcd9da5beb1" x="181.594196" y="60.958567" style="fill: #98df8a; stroke: #ffffff; stroke-width: 0.75; stroke-linejoin: miter"/>
     <use xlink:href="#mcd9da5beb1" x="188.679911" y="60.958567" style="fill: #98df8a; stroke: #ffffff; stroke-width: 0.75; stroke-linejoin: miter"/>
     <use xlink:href="#mcd9da5beb1" x="195.765625" y="60.958567" style="fill: #98df8a; stroke: #ffffff; stroke-width: 0.75; stroke-linejoin: miter"/>
     <use xlink:href="#mcd9da5beb1" x="202.851339" y="60.958567" style="fill: #98df8a; stroke: #ffffff; stroke-width: 0.75; stroke-linejoin: miter"/>
     <use xlink:href="#mcd9da5beb1" x="209.937054" y="60.958567" style="fill: #98df8a; stroke: #ffffff; stroke-width: 0.75; stroke-linejoin: miter"/>
     <use xlink:href="#mcd9da5beb1" x="217.022768" y="60.958567" style="fill: #98df8a; stroke: #ffffff; stroke-width: 0.75; stroke-linejoin: miter"/>
     <use xlink:href="#mcd9da5beb1" x="224.108482" y="60.958567" style="fill: #98df8a; stroke: #ffffff; stroke-width: 0.75; stroke-linejoin: miter"/>
     <use xlink:href="#mcd9da5beb1" x="231.194196" y="60.958567" style="fill: #98df8a; stroke: #ffffff; stroke-width: 0.75; stroke-linejoin: miter"/>
     <use xlink:href="#mcd9da5beb1" x="238.279911" y="60.958567" style="fill: #98df8a; stroke: #ffffff; stroke-width: 0.75; stroke-linejoin: miter"/>
     <use xlink:href="#mcd9da5beb1" x="245.365625" y="60.958567" style="fill: #98df8a; stroke: #ffffff; stroke-width: 0.75; stroke-linejoin: miter"/>
     <use xlink:href="#mcd9da5beb1" x="252.451339" y="60.958567" style="fill: #98df8a; stroke: #ffffff; stroke-width: 0.75; stroke-linejoin: miter"/>
     <use xlink:href="#mcd9da5beb1" x="259.537054" y="60.958567" style="fill: #98df8a; stroke: #ffffff; stroke-width: 0.75; stroke-linejoin: miter"/>
     <use xlink:href="#mcd9da5beb1" x="266.622768" y="60.958567" style="fill: #98df8a; stroke: #ffffff; stroke-width: 0.75; stroke-linejoin: miter"/>
     <use xlink:href="#mcd9da5beb1" x="273.708482" y="60.958567" style="fill: #98df8a; stroke: #ffffff; stroke-width: 0.75; stroke-linejoin: miter"/>
     <use xlink:href="#mcd9da5beb1" x="280.794196" y="60.958567" style="fill: #98df8a; stroke: #ffffff; stroke-width: 0.75; stroke-linejoin: miter"/>
     <use xlink:href="#mcd9da5beb1" x="287.879911" y="60.958567" style="fill: #98df8a; stroke: #ffffff; stroke-width: 0.75; stroke-linejoin: miter"/>
     <use xlink:href="#mcd9da5beb1" x="294.965625" y="59.528028" style="fill: #98df8a; stroke: #ffffff; stroke-width: 0.75; stroke-linejoin: miter"/>
     <use xlink:href="#mcd9da5beb1" x="302.051339" y="59.528028" style="fill: #98df8a; stroke: #ffffff; stroke-width: 0.75; stroke-linejoin: miter"/>
     <use xlink:href="#mcd9da5beb1" x="309.137054" y="59.528028" style="fill: #98df8a; stroke: #ffffff; stroke-width: 0.75; stroke-linejoin: miter"/>
     <use xlink:href="#mcd9da5beb1" x="316.222768" y="59.528028" style="fill: #98df8a; stroke: #ffffff; stroke-width: 0.75; stroke-linejoin: miter"/>
     <use xlink:href="#mcd9da5beb1" x="323.308482" y="59.528028" style="fill: #98df8a; stroke: #ffffff; stroke-width: 0.75; stroke-linejoin: miter"/>
     <use xlink:href="#mcd9da5beb1" x="330.394196" y="59.528028" style="fill: #98df8a; stroke: #ffffff; stroke-width: 0.75; stroke-linejoin: miter"/>
     <use xlink:href="#mcd9da5beb1" x="337.479911" y="59.528028" style="fill: #98df8a; stroke: #ffffff; stroke-width: 0.75; stroke-linejoin: miter"/>
     <use xlink:href="#mcd9da5beb1" x="344.565625" y="59.528028" style="fill: #98df8a; stroke: #ffffff; stroke-width: 0.75; stroke-linejoin: miter"/>
     <use xlink:href="#mcd9da5beb1" x="351.651339" y="59.528028" style="fill: #98df8a; stroke: #ffffff; stroke-width: 0.75; stroke-linejoin: miter"/>
     <use xlink:href="#mcd9da5beb1" x="358.737054" y="59.528028" style="fill: #98df8a; stroke: #ffffff; stroke-width: 0.75; stroke-linejoin: miter"/>
     <use xlink:href="#mcd9da5beb1" x="365.822768" y="59.528028" style="fill: #98df8a; stroke: #ffffff; stroke-width: 0.75; stroke-linejoin: miter"/>
     <use xlink:href="#mcd9da5beb1" x="372.908482" y="59.528028" style="fill: #98df8a; stroke: #ffffff; stroke-width: 0.75; stroke-linejoin: miter"/>
     <use xlink:href="#mcd9da5beb1" x="379.994196" y="59.528028" style="fill: #98df8a; stroke: #ffffff; stroke-width: 0.75; stroke-linejoin: miter"/>
     <use xlink:href="#mcd9da5beb1" x="387.079911" y="59.528028" style="fill: #98df8a; stroke: #ffffff; stroke-width: 0.75; stroke-linejoin: miter"/>
     <use xlink:href="#mcd9da5beb1" x="394.165625" y="59.528028" style="fill: #98df8a; stroke: #ffffff; stroke-width: 0.75; stroke-linejoin: miter"/>
     <use xlink:href="#mcd9da5beb1" x="401.251339" y="59.528028" style="fill: #98df8a; stroke: #ffffff; stroke-width: 0.75; stroke-linejoin: miter"/>
     <use xlink:href="#mcd9da5beb1" x="408.337054" y="59.528028" style="fill: #98df8a; stroke: #ffffff; stroke-width: 0.75; stroke-linejoin: miter"/>
     <use xlink:href="#mcd9da5beb1" x="415.422768" y="59.528028" style="fill: #98df8a; stroke: #ffffff; stroke-width: 0.75; stroke-linejoin: miter"/>
     <use xlink:href="#mcd9da5beb1" x="422.508482" y="59.528028" style="fill: #98df8a; stroke: #ffffff; stroke-width: 0.75; stroke-linejoin: miter"/>
     <use xlink:href="#mcd9da5beb1" x="429.594196" y="59.528028" style="fill: #98df8a; stroke: #ffffff; stroke-width: 0.75; stroke-linejoin: miter"/>
     <use xlink:href="#mcd9da5beb1" x="436.679911" y="59.528028" style="fill: #98df8a; stroke: #ffffff; stroke-width: 0.75; stroke-linejoin: miter"/>
     <use xlink:href="#mcd9da5beb1" x="443.765625" y="59.528028" style="fill: #98df8a; stroke: #ffffff; stroke-width: 0.75; stroke-linejoin: miter"/>
     <use xlink:href="#mcd9da5beb1" x="450.851339" y="59.528028" style="fill: #98df8a; stroke: #ffffff; stroke-width: 0.75; stroke-linejoin: miter"/>
     <use xlink:href="#mcd9da5beb1" x="457.937054" y="59.528028" style="fill: #98df8a; stroke: #ffffff; stroke-width: 0.75; stroke-linejoin: miter"/>
     <use xlink:href="#mcd9da5beb1" x="465.022768" y="59.528028" style="fill: #98df8a; stroke: #ffffff; stroke-width: 0.75; stroke-linejoin: miter"/>
     <use xlink:href="#mcd9da5beb1" x="472.108482" y="59.528028" style="fill: #98df8a; stroke: #ffffff; stroke-width: 0.75; stroke-linejoin: miter"/>
     <use xlink:href="#mcd9da5beb1" x="479.194196" y="59.528028" style="fill: #98df8a; stroke: #ffffff; stroke-width: 0.75; stroke-linejoin: miter"/>
     <use xlink:href="#mcd9da5beb1" x="486.279911" y="59.528028" style="fill: #98df8a; stroke: #ffffff; stroke-width: 0.75; stroke-linejoin: miter"/>
     <use xlink:href="#mcd9da5beb1" x="493.365625" y="59.528028" style="fill: #98df8a; stroke: #ffffff; stroke-width: 0.75; stroke-linejoin: miter"/>
     <use xlink:href="#mcd9da5beb1" x="500.451339" y="59.528028" style="fill: #98df8a; stroke: #ffffff; stroke-width: 0.75; stroke-linejoin: miter"/>
     <use xlink:href="#mcd9da5beb1" x="507.537054" y="59.528028" style="fill: #98df8a; stroke: #ffffff; stroke-width: 0.75; stroke-linejoin: miter"/>
     <use xlink:href="#mcd9da5beb1" x="514.622768" y="59.528028" style="fill: #98df8a; stroke: #ffffff; stroke-width: 0.75; stroke-linejoin: miter"/>
     <use xlink:href="#mcd9da5beb1" x="521.708482" y="59.528028" style="fill: #98df8a; stroke: #ffffff; stroke-width: 0.75; stroke-linejoin: miter"/>
     <use xlink:href="#mcd9da5beb1" x="528.794196" y="59.528028" style="fill: #98df8a; stroke: #ffffff; stroke-width: 0.75; stroke-linejoin: miter"/>
     <use xlink:href="#mcd9da5beb1" x="535.879911" y="59.528028" style="fill: #98df8a; stroke: #ffffff; stroke-width: 0.75; stroke-linejoin: miter"/>
     <use xlink:href="#mcd9da5beb1" x="542.965625" y="59.528028" style="fill: #98df8a; stroke: #ffffff; stroke-width: 0.75; stroke-linejoin: miter"/>
     <use xlink:href="#mcd9da5beb1" x="550.051339" y="59.528028" style="fill: #98df8a; stroke: #ffffff; stroke-width: 0.75; stroke-linejoin: miter"/>
     <use xlink:href="#mcd9da5beb1" x="557.137054" y="59.528028" style="fill: #98df8a; stroke: #ffffff; stroke-width: 0.75; stroke-linejoin: miter"/>
     <use xlink:href="#mcd9da5beb1" x="564.222768" y="50.626898" style="fill: #98df8a; stroke: #ffffff; stroke-width: 0.75; stroke-linejoin: miter"/>
     <use xlink:href="#mcd9da5beb1" x="571.308482" y="50.626898" style="fill: #98df8a; stroke: #ffffff; stroke-width: 0.75; stroke-linejoin: miter"/>
     <use xlink:href="#mcd9da5beb1" x="578.394196" y="50.626898" style="fill: #98df8a; stroke: #ffffff; stroke-width: 0.75; stroke-linejoin: miter"/>
     <use xlink:href="#mcd9da5beb1" x="585.479911" y="50.626898" style="fill: #98df8a; stroke: #ffffff; stroke-width: 0.75; stroke-linejoin: miter"/>
     <use xlink:href="#mcd9da5beb1" x="592.565625" y="50.150051" style="fill: #98df8a; stroke: #ffffff; stroke-width: 0.75; stroke-linejoin: miter"/>
     <use xlink:href="#mcd9da5beb1" x="599.651339" y="50.150051" style="fill: #98df8a; stroke: #ffffff; stroke-width: 0.75; stroke-linejoin: miter"/>
     <use xlink:href="#mcd9da5beb1" x="606.737054" y="50.150051" style="fill: #98df8a; stroke: #ffffff; stroke-width: 0.75; stroke-linejoin: miter"/>
     <use xlink:href="#mcd9da5beb1" x="613.822768" y="50.150051" style="fill: #98df8a; stroke: #ffffff; stroke-width: 0.75; stroke-linejoin: miter"/>
     <use xlink:href="#mcd9da5beb1" x="620.908482" y="50.150051" style="fill: #98df8a; stroke: #ffffff; stroke-width: 0.75; stroke-linejoin: miter"/>
     <use xlink:href="#mcd9da5beb1" x="627.994196" y="50.150051" style="fill: #98df8a; stroke: #ffffff; stroke-width: 0.75; stroke-linejoin: miter"/>
     <use xlink:href="#mcd9da5beb1" x="635.079911" y="50.150051" style="fill: #98df8a; stroke: #ffffff; stroke-width: 0.75; stroke-linejoin: miter"/>
     <use xlink:href="#mcd9da5beb1" x="642.165625" y="50.150051" style="fill: #98df8a; stroke: #ffffff; stroke-width: 0.75; stroke-linejoin: miter"/>
     <use xlink:href="#mcd9da5beb1" x="649.251339" y="47.447923" style="fill: #98df8a; stroke: #ffffff; stroke-width: 0.75; stroke-linejoin: miter"/>
     <use xlink:href="#mcd9da5beb1" x="656.337054" y="38.546793" style="fill: #98df8a; stroke: #ffffff; stroke-width: 0.75; stroke-linejoin: miter"/>
     <use xlink:href="#mcd9da5beb1" x="663.422768" y="38.069946" style="fill: #98df8a; stroke: #ffffff; stroke-width: 0.75; stroke-linejoin: miter"/>
     <use xlink:href="#mcd9da5beb1" x="670.508482" y="37.116254" style="fill: #98df8a; stroke: #ffffff; stroke-width: 0.75; stroke-linejoin: miter"/>
     <use xlink:href="#mcd9da5beb1" x="677.594196" y="37.116254" style="fill: #98df8a; stroke: #ffffff; stroke-width: 0.75; stroke-linejoin: miter"/>
     <use xlink:href="#mcd9da5beb1" x="684.679911" y="37.116254" style="fill: #98df8a; stroke: #ffffff; stroke-width: 0.75; stroke-linejoin: miter"/>
     <use xlink:href="#mcd9da5beb1" x="691.765625" y="37.116254" style="fill: #98df8a; stroke: #ffffff; stroke-width: 0.75; stroke-linejoin: miter"/>
     <use xlink:href="#mcd9da5beb1" x="698.851339" y="37.116254" style="fill: #98df8a; stroke: #ffffff; stroke-width: 0.75; stroke-linejoin: miter"/>
     <use xlink:href="#mcd9da5beb1" x="705.937054" y="37.116254" style="fill: #98df8a; stroke: #ffffff; stroke-width: 0.75; stroke-linejoin: miter"/>
     <use xlink:href="#mcd9da5beb1" x="713.022768" y="37.116254" style="fill: #98df8a; stroke: #ffffff; stroke-width: 0.75; stroke-linejoin: miter"/>
     <use xlink:href="#mcd9da5beb1" x="720.108482" y="37.116254" style="fill: #98df8a; stroke: #ffffff; stroke-width: 0.75; stroke-linejoin: miter"/>
     <use xlink:href="#mcd9da5beb1" x="727.194196" y="37.116254" style="fill: #98df8a; stroke: #ffffff; stroke-width: 0.75; stroke-linejoin: miter"/>
    </g>
   </g>
   <g id="line2d_23">
    <path d="M 46.965625 276.334125 
L 54.051339 138.684506 
L 61.137054 138.525557 
L 68.222768 138.525557 
L 75.308482 104.510524 
L 82.394196 100.059959 
L 89.479911 99.106267 
L 96.565625 98.788369 
L 103.651339 61.435413 
L 110.737054 61.435413 
L 117.822768 61.117515 
L 124.908482 60.958567 
L 131.994196 60.799618 
L 139.079911 60.799618 
L 146.165625 59.528028 
L 153.251339 59.528028 
L 160.337054 59.528028 
L 167.422768 59.528028 
L 174.508482 59.528028 
L 181.594196 59.369079 
L 188.679911 59.369079 
L 195.765625 59.369079 
L 202.851339 59.369079 
L 209.937054 59.369079 
L 217.022768 58.256438 
L 224.108482 58.256438 
L 231.194196 58.256438 
L 238.279911 58.256438 
L 245.365625 58.097489 
L 252.451339 58.097489 
L 259.537054 58.097489 
L 266.622768 58.097489 
L 273.708482 58.097489 
L 280.794196 58.097489 
L 287.879911 58.097489 
L 294.965625 58.097489 
L 302.051339 58.097489 
L 309.137054 58.097489 
L 316.222768 58.097489 
L 323.308482 58.097489 
L 330.394196 58.097489 
L 337.479911 58.097489 
L 344.565625 58.097489 
L 351.651339 58.097489 
L 358.737054 58.097489 
L 365.822768 58.097489 
L 372.908482 58.097489 
L 379.994196 58.097489 
L 387.079911 58.097489 
L 394.165625 58.097489 
L 401.251339 58.097489 
L 408.337054 57.461694 
L 415.422768 57.461694 
L 422.508482 57.461694 
L 429.594196 57.461694 
L 436.679911 57.461694 
L 443.765625 57.461694 
L 450.851339 57.461694 
L 457.937054 57.461694 
L 465.022768 57.461694 
L 472.108482 57.461694 
L 479.194196 57.461694 
L 486.279911 57.461694 
L 493.365625 57.461694 
L 500.451339 57.143796 
L 507.537054 57.143796 
L 514.622768 57.143796 
L 521.708482 57.143796 
L 528.794196 57.143796 
L 535.879911 57.143796 
L 542.965625 57.143796 
L 550.051339 57.143796 
L 557.137054 57.143796 
L 564.222768 57.143796 
L 571.308482 57.143796 
L 578.394196 57.143796 
L 585.479911 57.143796 
L 592.565625 57.143796 
L 599.651339 57.143796 
L 606.737054 57.143796 
L 613.822768 57.143796 
L 620.908482 57.143796 
L 627.994196 57.143796 
L 635.079911 57.143796 
L 642.165625 57.143796 
L 649.251339 57.143796 
L 656.337054 57.143796 
L 663.422768 57.143796 
L 670.508482 57.143796 
L 677.594196 57.143796 
L 684.679911 57.143796 
L 691.765625 57.143796 
L 698.851339 57.143796 
L 705.937054 57.143796 
L 713.022768 57.143796 
L 720.108482 57.143796 
L 727.194196 57.143796 
" clip-path="url(#pfb3315ef48)" style="fill: none; stroke: #1f77b4; stroke-width: 1.5; stroke-linecap: square"/>
    <defs>
     <path id="m98ba01f76f" d="M 0 3 
C 0.795609 3 1.55874 2.683901 2.12132 2.12132 
C 2.683901 1.55874 3 0.795609 3 0 
C 3 -0.795609 2.683901 -1.55874 2.12132 -2.12132 
C 1.55874 -2.683901 0.795609 -3 0 -3 
C -0.795609 -3 -1.55874 -2.683901 -2.12132 -2.12132 
C -2.683901 -1.55874 -3 -0.795609 -3 0 
C -3 0.795609 -2.683901 1.55874 -2.12132 2.12132 
C -1.55874 2.683901 -0.795609 3 0 3 
z
" style="stroke: #ffffff; stroke-width: 0.75"/>
    </defs>
    <g clip-path="url(#pfb3315ef48)">
     <use xlink:href="#m98ba01f76f" x="46.965625" y="276.334125" style="fill: #1f77b4; stroke: #ffffff; stroke-width: 0.75"/>
     <use xlink:href="#m98ba01f76f" x="54.051339" y="138.684506" style="fill: #1f77b4; stroke: #ffffff; stroke-width: 0.75"/>
     <use xlink:href="#m98ba01f76f" x="61.137054" y="138.525557" style="fill: #1f77b4; stroke: #ffffff; stroke-width: 0.75"/>
     <use xlink:href="#m98ba01f76f" x="68.222768" y="138.525557" style="fill: #1f77b4; stroke: #ffffff; stroke-width: 0.75"/>
     <use xlink:href="#m98ba01f76f" x="75.308482" y="104.510524" style="fill: #1f77b4; stroke: #ffffff; stroke-width: 0.75"/>
     <use xlink:href="#m98ba01f76f" x="82.394196" y="100.059959" style="fill: #1f77b4; stroke: #ffffff; stroke-width: 0.75"/>
     <use xlink:href="#m98ba01f76f" x="89.479911" y="99.106267" style="fill: #1f77b4; stroke: #ffffff; stroke-width: 0.75"/>
     <use xlink:href="#m98ba01f76f" x="96.565625" y="98.788369" style="fill: #1f77b4; stroke: #ffffff; stroke-width: 0.75"/>
     <use xlink:href="#m98ba01f76f" x="103.651339" y="61.435413" style="fill: #1f77b4; stroke: #ffffff; stroke-width: 0.75"/>
     <use xlink:href="#m98ba01f76f" x="110.737054" y="61.435413" style="fill: #1f77b4; stroke: #ffffff; stroke-width: 0.75"/>
     <use xlink:href="#m98ba01f76f" x="117.822768" y="61.117515" style="fill: #1f77b4; stroke: #ffffff; stroke-width: 0.75"/>
     <use xlink:href="#m98ba01f76f" x="124.908482" y="60.958567" style="fill: #1f77b4; stroke: #ffffff; stroke-width: 0.75"/>
     <use xlink:href="#m98ba01f76f" x="131.994196" y="60.799618" style="fill: #1f77b4; stroke: #ffffff; stroke-width: 0.75"/>
     <use xlink:href="#m98ba01f76f" x="139.079911" y="60.799618" style="fill: #1f77b4; stroke: #ffffff; stroke-width: 0.75"/>
     <use xlink:href="#m98ba01f76f" x="146.165625" y="59.528028" style="fill: #1f77b4; stroke: #ffffff; stroke-width: 0.75"/>
     <use xlink:href="#m98ba01f76f" x="153.251339" y="59.528028" style="fill: #1f77b4; stroke: #ffffff; stroke-width: 0.75"/>
     <use xlink:href="#m98ba01f76f" x="160.337054" y="59.528028" style="fill: #1f77b4; stroke: #ffffff; stroke-width: 0.75"/>
     <use xlink:href="#m98ba01f76f" x="167.422768" y="59.528028" style="fill: #1f77b4; stroke: #ffffff; stroke-width: 0.75"/>
     <use xlink:href="#m98ba01f76f" x="174.508482" y="59.528028" style="fill: #1f77b4; stroke: #ffffff; stroke-width: 0.75"/>
     <use xlink:href="#m98ba01f76f" x="181.594196" y="59.369079" style="fill: #1f77b4; stroke: #ffffff; stroke-width: 0.75"/>
     <use xlink:href="#m98ba01f76f" x="188.679911" y="59.369079" style="fill: #1f77b4; stroke: #ffffff; stroke-width: 0.75"/>
     <use xlink:href="#m98ba01f76f" x="195.765625" y="59.369079" style="fill: #1f77b4; stroke: #ffffff; stroke-width: 0.75"/>
     <use xlink:href="#m98ba01f76f" x="202.851339" y="59.369079" style="fill: #1f77b4; stroke: #ffffff; stroke-width: 0.75"/>
     <use xlink:href="#m98ba01f76f" x="209.937054" y="59.369079" style="fill: #1f77b4; stroke: #ffffff; stroke-width: 0.75"/>
     <use xlink:href="#m98ba01f76f" x="217.022768" y="58.256438" style="fill: #1f77b4; stroke: #ffffff; stroke-width: 0.75"/>
     <use xlink:href="#m98ba01f76f" x="224.108482" y="58.256438" style="fill: #1f77b4; stroke: #ffffff; stroke-width: 0.75"/>
     <use xlink:href="#m98ba01f76f" x="231.194196" y="58.256438" style="fill: #1f77b4; stroke: #ffffff; stroke-width: 0.75"/>
     <use xlink:href="#m98ba01f76f" x="238.279911" y="58.256438" style="fill: #1f77b4; stroke: #ffffff; stroke-width: 0.75"/>
     <use xlink:href="#m98ba01f76f" x="245.365625" y="58.097489" style="fill: #1f77b4; stroke: #ffffff; stroke-width: 0.75"/>
     <use xlink:href="#m98ba01f76f" x="252.451339" y="58.097489" style="fill: #1f77b4; stroke: #ffffff; stroke-width: 0.75"/>
     <use xlink:href="#m98ba01f76f" x="259.537054" y="58.097489" style="fill: #1f77b4; stroke: #ffffff; stroke-width: 0.75"/>
     <use xlink:href="#m98ba01f76f" x="266.622768" y="58.097489" style="fill: #1f77b4; stroke: #ffffff; stroke-width: 0.75"/>
     <use xlink:href="#m98ba01f76f" x="273.708482" y="58.097489" style="fill: #1f77b4; stroke: #ffffff; stroke-width: 0.75"/>
     <use xlink:href="#m98ba01f76f" x="280.794196" y="58.097489" style="fill: #1f77b4; stroke: #ffffff; stroke-width: 0.75"/>
     <use xlink:href="#m98ba01f76f" x="287.879911" y="58.097489" style="fill: #1f77b4; stroke: #ffffff; stroke-width: 0.75"/>
     <use xlink:href="#m98ba01f76f" x="294.965625" y="58.097489" style="fill: #1f77b4; stroke: #ffffff; stroke-width: 0.75"/>
     <use xlink:href="#m98ba01f76f" x="302.051339" y="58.097489" style="fill: #1f77b4; stroke: #ffffff; stroke-width: 0.75"/>
     <use xlink:href="#m98ba01f76f" x="309.137054" y="58.097489" style="fill: #1f77b4; stroke: #ffffff; stroke-width: 0.75"/>
     <use xlink:href="#m98ba01f76f" x="316.222768" y="58.097489" style="fill: #1f77b4; stroke: #ffffff; stroke-width: 0.75"/>
     <use xlink:href="#m98ba01f76f" x="323.308482" y="58.097489" style="fill: #1f77b4; stroke: #ffffff; stroke-width: 0.75"/>
     <use xlink:href="#m98ba01f76f" x="330.394196" y="58.097489" style="fill: #1f77b4; stroke: #ffffff; stroke-width: 0.75"/>
     <use xlink:href="#m98ba01f76f" x="337.479911" y="58.097489" style="fill: #1f77b4; stroke: #ffffff; stroke-width: 0.75"/>
     <use xlink:href="#m98ba01f76f" x="344.565625" y="58.097489" style="fill: #1f77b4; stroke: #ffffff; stroke-width: 0.75"/>
     <use xlink:href="#m98ba01f76f" x="351.651339" y="58.097489" style="fill: #1f77b4; stroke: #ffffff; stroke-width: 0.75"/>
     <use xlink:href="#m98ba01f76f" x="358.737054" y="58.097489" style="fill: #1f77b4; stroke: #ffffff; stroke-width: 0.75"/>
     <use xlink:href="#m98ba01f76f" x="365.822768" y="58.097489" style="fill: #1f77b4; stroke: #ffffff; stroke-width: 0.75"/>
     <use xlink:href="#m98ba01f76f" x="372.908482" y="58.097489" style="fill: #1f77b4; stroke: #ffffff; stroke-width: 0.75"/>
     <use xlink:href="#m98ba01f76f" x="379.994196" y="58.097489" style="fill: #1f77b4; stroke: #ffffff; stroke-width: 0.75"/>
     <use xlink:href="#m98ba01f76f" x="387.079911" y="58.097489" style="fill: #1f77b4; stroke: #ffffff; stroke-width: 0.75"/>
     <use xlink:href="#m98ba01f76f" x="394.165625" y="58.097489" style="fill: #1f77b4; stroke: #ffffff; stroke-width: 0.75"/>
     <use xlink:href="#m98ba01f76f" x="401.251339" y="58.097489" style="fill: #1f77b4; stroke: #ffffff; stroke-width: 0.75"/>
     <use xlink:href="#m98ba01f76f" x="408.337054" y="57.461694" style="fill: #1f77b4; stroke: #ffffff; stroke-width: 0.75"/>
     <use xlink:href="#m98ba01f76f" x="415.422768" y="57.461694" style="fill: #1f77b4; stroke: #ffffff; stroke-width: 0.75"/>
     <use xlink:href="#m98ba01f76f" x="422.508482" y="57.461694" style="fill: #1f77b4; stroke: #ffffff; stroke-width: 0.75"/>
     <use xlink:href="#m98ba01f76f" x="429.594196" y="57.461694" style="fill: #1f77b4; stroke: #ffffff; stroke-width: 0.75"/>
     <use xlink:href="#m98ba01f76f" x="436.679911" y="57.461694" style="fill: #1f77b4; stroke: #ffffff; stroke-width: 0.75"/>
     <use xlink:href="#m98ba01f76f" x="443.765625" y="57.461694" style="fill: #1f77b4; stroke: #ffffff; stroke-width: 0.75"/>
     <use xlink:href="#m98ba01f76f" x="450.851339" y="57.461694" style="fill: #1f77b4; stroke: #ffffff; stroke-width: 0.75"/>
     <use xlink:href="#m98ba01f76f" x="457.937054" y="57.461694" style="fill: #1f77b4; stroke: #ffffff; stroke-width: 0.75"/>
     <use xlink:href="#m98ba01f76f" x="465.022768" y="57.461694" style="fill: #1f77b4; stroke: #ffffff; stroke-width: 0.75"/>
     <use xlink:href="#m98ba01f76f" x="472.108482" y="57.461694" style="fill: #1f77b4; stroke: #ffffff; stroke-width: 0.75"/>
     <use xlink:href="#m98ba01f76f" x="479.194196" y="57.461694" style="fill: #1f77b4; stroke: #ffffff; stroke-width: 0.75"/>
     <use xlink:href="#m98ba01f76f" x="486.279911" y="57.461694" style="fill: #1f77b4; stroke: #ffffff; stroke-width: 0.75"/>
     <use xlink:href="#m98ba01f76f" x="493.365625" y="57.461694" style="fill: #1f77b4; stroke: #ffffff; stroke-width: 0.75"/>
     <use xlink:href="#m98ba01f76f" x="500.451339" y="57.143796" style="fill: #1f77b4; stroke: #ffffff; stroke-width: 0.75"/>
     <use xlink:href="#m98ba01f76f" x="507.537054" y="57.143796" style="fill: #1f77b4; stroke: #ffffff; stroke-width: 0.75"/>
     <use xlink:href="#m98ba01f76f" x="514.622768" y="57.143796" style="fill: #1f77b4; stroke: #ffffff; stroke-width: 0.75"/>
     <use xlink:href="#m98ba01f76f" x="521.708482" y="57.143796" style="fill: #1f77b4; stroke: #ffffff; stroke-width: 0.75"/>
     <use xlink:href="#m98ba01f76f" x="528.794196" y="57.143796" style="fill: #1f77b4; stroke: #ffffff; stroke-width: 0.75"/>
     <use xlink:href="#m98ba01f76f" x="535.879911" y="57.143796" style="fill: #1f77b4; stroke: #ffffff; stroke-width: 0.75"/>
     <use xlink:href="#m98ba01f76f" x="542.965625" y="57.143796" style="fill: #1f77b4; stroke: #ffffff; stroke-width: 0.75"/>
     <use xlink:href="#m98ba01f76f" x="550.051339" y="57.143796" style="fill: #1f77b4; stroke: #ffffff; stroke-width: 0.75"/>
     <use xlink:href="#m98ba01f76f" x="557.137054" y="57.143796" style="fill: #1f77b4; stroke: #ffffff; stroke-width: 0.75"/>
     <use xlink:href="#m98ba01f76f" x="564.222768" y="57.143796" style="fill: #1f77b4; stroke: #ffffff; stroke-width: 0.75"/>
     <use xlink:href="#m98ba01f76f" x="571.308482" y="57.143796" style="fill: #1f77b4; stroke: #ffffff; stroke-width: 0.75"/>
     <use xlink:href="#m98ba01f76f" x="578.394196" y="57.143796" style="fill: #1f77b4; stroke: #ffffff; stroke-width: 0.75"/>
     <use xlink:href="#m98ba01f76f" x="585.479911" y="57.143796" style="fill: #1f77b4; stroke: #ffffff; stroke-width: 0.75"/>
     <use xlink:href="#m98ba01f76f" x="592.565625" y="57.143796" style="fill: #1f77b4; stroke: #ffffff; stroke-width: 0.75"/>
     <use xlink:href="#m98ba01f76f" x="599.651339" y="57.143796" style="fill: #1f77b4; stroke: #ffffff; stroke-width: 0.75"/>
     <use xlink:href="#m98ba01f76f" x="606.737054" y="57.143796" style="fill: #1f77b4; stroke: #ffffff; stroke-width: 0.75"/>
     <use xlink:href="#m98ba01f76f" x="613.822768" y="57.143796" style="fill: #1f77b4; stroke: #ffffff; stroke-width: 0.75"/>
     <use xlink:href="#m98ba01f76f" x="620.908482" y="57.143796" style="fill: #1f77b4; stroke: #ffffff; stroke-width: 0.75"/>
     <use xlink:href="#m98ba01f76f" x="627.994196" y="57.143796" style="fill: #1f77b4; stroke: #ffffff; stroke-width: 0.75"/>
     <use xlink:href="#m98ba01f76f" x="635.079911" y="57.143796" style="fill: #1f77b4; stroke: #ffffff; stroke-width: 0.75"/>
     <use xlink:href="#m98ba01f76f" x="642.165625" y="57.143796" style="fill: #1f77b4; stroke: #ffffff; stroke-width: 0.75"/>
     <use xlink:href="#m98ba01f76f" x="649.251339" y="57.143796" style="fill: #1f77b4; stroke: #ffffff; stroke-width: 0.75"/>
     <use xlink:href="#m98ba01f76f" x="656.337054" y="57.143796" style="fill: #1f77b4; stroke: #ffffff; stroke-width: 0.75"/>
     <use xlink:href="#m98ba01f76f" x="663.422768" y="57.143796" style="fill: #1f77b4; stroke: #ffffff; stroke-width: 0.75"/>
     <use xlink:href="#m98ba01f76f" x="670.508482" y="57.143796" style="fill: #1f77b4; stroke: #ffffff; stroke-width: 0.75"/>
     <use xlink:href="#m98ba01f76f" x="677.594196" y="57.143796" style="fill: #1f77b4; stroke: #ffffff; stroke-width: 0.75"/>
     <use xlink:href="#m98ba01f76f" x="684.679911" y="57.143796" style="fill: #1f77b4; stroke: #ffffff; stroke-width: 0.75"/>
     <use xlink:href="#m98ba01f76f" x="691.765625" y="57.143796" style="fill: #1f77b4; stroke: #ffffff; stroke-width: 0.75"/>
     <use xlink:href="#m98ba01f76f" x="698.851339" y="57.143796" style="fill: #1f77b4; stroke: #ffffff; stroke-width: 0.75"/>
     <use xlink:href="#m98ba01f76f" x="705.937054" y="57.143796" style="fill: #1f77b4; stroke: #ffffff; stroke-width: 0.75"/>
     <use xlink:href="#m98ba01f76f" x="713.022768" y="57.143796" style="fill: #1f77b4; stroke: #ffffff; stroke-width: 0.75"/>
     <use xlink:href="#m98ba01f76f" x="720.108482" y="57.143796" style="fill: #1f77b4; stroke: #ffffff; stroke-width: 0.75"/>
     <use xlink:href="#m98ba01f76f" x="727.194196" y="57.143796" style="fill: #1f77b4; stroke: #ffffff; stroke-width: 0.75"/>
    </g>
   </g>
   <g id="line2d_24"/>
   <g id="line2d_25"/>
   <g id="line2d_26">
    <path d="M 727.194196 288.430125 
L 727.194196 22.318125 
" clip-path="url(#pfb3315ef48)" style="fill: none; stroke: #ff0000; stroke-width: 1.5; stroke-linecap: square"/>
   </g>
   <g id="patch_3">
    <path d="M 46.965625 262.028737 
L 46.965625 39.500485 
" style="fill: none; stroke: #000000; stroke-width: 0.8; stroke-linejoin: miter; stroke-linecap: square"/>
   </g>
   <g id="patch_4">
    <path d="M 46.965625 288.430125 
L 727.194196 288.430125 
" style="fill: none; stroke: #000000; stroke-width: 0.8; stroke-linejoin: miter; stroke-linecap: square"/>
   </g>
   <g id="text_24">
    <!-- proj4_proj_crs_to_crs_fuzzer (24h, at least 10 trials/fuzzer) -->
    <g transform="translate(229.047813 16.318125) scale(0.12 -0.12)">
     <defs>
      <path id="DejaVuSans-70" d="M 1159 525 
L 1159 -1331 
L 581 -1331 
L 581 3500 
L 1159 3500 
L 1159 2969 
Q 1341 3281 1617 3432 
Q 1894 3584 2278 3584 
Q 2916 3584 3314 3078 
Q 3713 2572 3713 1747 
Q 3713 922 3314 415 
Q 2916 -91 2278 -91 
Q 1894 -91 1617 61 
Q 1341 213 1159 525 
z
M 3116 1747 
Q 3116 2381 2855 2742 
Q 2594 3103 2138 3103 
Q 1681 3103 1420 2742 
Q 1159 2381 1159 1747 
Q 1159 1113 1420 752 
Q 1681 391 2138 391 
Q 2594 391 2855 752 
Q 3116 1113 3116 1747 
z
" transform="scale(0.015625)"/>
      <path id="DejaVuSans-6a" d="M 603 3500 
L 1178 3500 
L 1178 -63 
Q 1178 -731 923 -1031 
Q 669 -1331 103 -1331 
L -116 -1331 
L -116 -844 
L 38 -844 
Q 366 -844 484 -692 
Q 603 -541 603 -63 
L 603 3500 
z
M 603 4863 
L 1178 4863 
L 1178 4134 
L 603 4134 
L 603 4863 
z
" transform="scale(0.015625)"/>
      <path id="DejaVuSans-5f" d="M 3263 -1063 
L 3263 -1509 
L -63 -1509 
L -63 -1063 
L 3263 -1063 
z
" transform="scale(0.015625)"/>
      <path id="DejaVuSans-73" d="M 2834 3397 
L 2834 2853 
Q 2591 2978 2328 3040 
Q 2066 3103 1784 3103 
Q 1356 3103 1142 2972 
Q 928 2841 928 2578 
Q 928 2378 1081 2264 
Q 1234 2150 1697 2047 
L 1894 2003 
Q 2506 1872 2764 1633 
Q 3022 1394 3022 966 
Q 3022 478 2636 193 
Q 2250 -91 1575 -91 
Q 1294 -91 989 -36 
Q 684 19 347 128 
L 347 722 
Q 666 556 975 473 
Q 1284 391 1588 391 
Q 1994 391 2212 530 
Q 2431 669 2431 922 
Q 2431 1156 2273 1281 
Q 2116 1406 1581 1522 
L 1381 1569 
Q 847 1681 609 1914 
Q 372 2147 372 2553 
Q 372 3047 722 3315 
Q 1072 3584 1716 3584 
Q 2034 3584 2315 3537 
Q 2597 3491 2834 3397 
z
" transform="scale(0.015625)"/>
      <path id="DejaVuSans-66" d="M 2375 4863 
L 2375 4384 
L 1825 4384 
Q 1516 4384 1395 4259 
Q 1275 4134 1275 3809 
L 1275 3500 
L 2222 3500 
L 2222 3053 
L 1275 3053 
L 1275 0 
L 697 0 
L 697 3053 
L 147 3053 
L 147 3500 
L 697 3500 
L 697 3744 
Q 697 4328 969 4595 
Q 1241 4863 1831 4863 
L 2375 4863 
z
" transform="scale(0.015625)"/>
      <path id="DejaVuSans-7a" d="M 353 3500 
L 3084 3500 
L 3084 2975 
L 922 459 
L 3084 459 
L 3084 0 
L 275 0 
L 275 525 
L 2438 3041 
L 353 3041 
L 353 3500 
z
" transform="scale(0.015625)"/>
      <path id="DejaVuSans-2c" d="M 750 794 
L 1409 794 
L 1409 256 
L 897 -744 
L 494 -744 
L 750 256 
L 750 794 
z
" transform="scale(0.015625)"/>
      <path id="DejaVuSans-6c" d="M 603 4863 
L 1178 4863 
L 1178 0 
L 603 0 
L 603 4863 
z
" transform="scale(0.015625)"/>
      <path id="DejaVuSans-2f" d="M 1625 4666 
L 2156 4666 
L 531 -594 
L 0 -594 
L 1625 4666 
z
" transform="scale(0.015625)"/>
     </defs>
     <use xlink:href="#DejaVuSans-70"/>
     <use xlink:href="#DejaVuSans-72" x="63.476562"/>
     <use xlink:href="#DejaVuSans-6f" x="102.339844"/>
     <use xlink:href="#DejaVuSans-6a" x="163.521484"/>
     <use xlink:href="#DejaVuSans-34" x="191.304688"/>
     <use xlink:href="#DejaVuSans-5f" x="254.927734"/>
     <use xlink:href="#DejaVuSans-70" x="304.927734"/>
     <use xlink:href="#DejaVuSans-72" x="368.404297"/>
     <use xlink:href="#DejaVuSans-6f" x="407.267578"/>
     <use xlink:href="#DejaVuSans-6a" x="468.449219"/>
     <use xlink:href="#DejaVuSans-5f" x="496.232422"/>
     <use xlink:href="#DejaVuSans-63" x="546.232422"/>
     <use xlink:href="#DejaVuSans-72" x="601.212891"/>
     <use xlink:href="#DejaVuSans-73" x="642.326172"/>
     <use xlink:href="#DejaVuSans-5f" x="694.425781"/>
     <use xlink:href="#DejaVuSans-74" x="744.425781"/>
     <use xlink:href="#DejaVuSans-6f" x="783.634766"/>
     <use xlink:href="#DejaVuSans-5f" x="844.816406"/>
     <use xlink:href="#DejaVuSans-63" x="894.816406"/>
     <use xlink:href="#DejaVuSans-72" x="949.796875"/>
     <use xlink:href="#DejaVuSans-73" x="990.910156"/>
     <use xlink:href="#DejaVuSans-5f" x="1043.009766"/>
     <use xlink:href="#DejaVuSans-66" x="1093.009766"/>
     <use xlink:href="#DejaVuSans-75" x="1128.214844"/>
     <use xlink:href="#DejaVuSans-7a" x="1191.59375"/>
     <use xlink:href="#DejaVuSans-7a" x="1244.083984"/>
     <use xlink:href="#DejaVuSans-65" x="1296.574219"/>
     <use xlink:href="#DejaVuSans-72" x="1358.097656"/>
     <use xlink:href="#DejaVuSans-20" x="1399.210938"/>
     <use xlink:href="#DejaVuSans-28" x="1430.998047"/>
     <use xlink:href="#DejaVuSans-32" x="1470.011719"/>
     <use xlink:href="#DejaVuSans-34" x="1533.634766"/>
     <use xlink:href="#DejaVuSans-68" x="1597.257812"/>
     <use xlink:href="#DejaVuSans-2c" x="1660.636719"/>
     <use xlink:href="#DejaVuSans-20" x="1692.423828"/>
     <use xlink:href="#DejaVuSans-61" x="1724.210938"/>
     <use xlink:href="#DejaVuSans-74" x="1785.490234"/>
     <use xlink:href="#DejaVuSans-20" x="1824.699219"/>
     <use xlink:href="#DejaVuSans-6c" x="1856.486328"/>
     <use xlink:href="#DejaVuSans-65" x="1884.269531"/>
     <use xlink:href="#DejaVuSans-61" x="1945.792969"/>
     <use xlink:href="#DejaVuSans-73" x="2007.072266"/>
     <use xlink:href="#DejaVuSans-74" x="2059.171875"/>
     <use xlink:href="#DejaVuSans-20" x="2098.380859"/>
     <use xlink:href="#DejaVuSans-31" x="2130.167969"/>
     <use xlink:href="#DejaVuSans-30" x="2193.791016"/>
     <use xlink:href="#DejaVuSans-20" x="2257.414062"/>
     <use xlink:href="#DejaVuSans-74" x="2289.201172"/>
     <use xlink:href="#DejaVuSans-72" x="2328.410156"/>
     <use xlink:href="#DejaVuSans-69" x="2369.523438"/>
     <use xlink:href="#DejaVuSans-61" x="2397.306641"/>
     <use xlink:href="#DejaVuSans-6c" x="2458.585938"/>
     <use xlink:href="#DejaVuSans-73" x="2486.369141"/>
     <use xlink:href="#DejaVuSans-2f" x="2538.46875"/>
     <use xlink:href="#DejaVuSans-66" x="2572.160156"/>
     <use xlink:href="#DejaVuSans-75" x="2607.365234"/>
     <use xlink:href="#DejaVuSans-7a" x="2670.744141"/>
     <use xlink:href="#DejaVuSans-7a" x="2723.234375"/>
     <use xlink:href="#DejaVuSans-65" x="2775.724609"/>
     <use xlink:href="#DejaVuSans-72" x="2837.248047"/>
     <use xlink:href="#DejaVuSans-29" x="2878.361328"/>
    </g>
   </g>
   <g id="legend_1">
    <g id="line2d_27">
     <path d="M 765.205625 30.416562 
L 775.205625 30.416562 
L 785.205625 30.416562 
" style="fill: none; stroke: #98df8a; stroke-width: 1.5; stroke-linecap: square"/>
     <defs>
      <path id="m78a29349f4" d="M -0 3 
L 3 -3 
L -3 -3 
z
" style="stroke: #98df8a; stroke-linejoin: miter"/>
     </defs>
     <g>
      <use xlink:href="#m78a29349f4" x="775.205625" y="30.416562" style="fill: #98df8a; stroke: #98df8a; stroke-linejoin: miter"/>
     </g>
    </g>
    <g id="text_25">
     <!-- darwin_no_pre_seed -->
     <g transform="translate(793.205625 33.916562) scale(0.1 -0.1)">
      <defs>
       <path id="DejaVuSans-77" d="M 269 3500 
L 844 3500 
L 1563 769 
L 2278 3500 
L 2956 3500 
L 3675 769 
L 4391 3500 
L 4966 3500 
L 4050 0 
L 3372 0 
L 2619 2869 
L 1863 0 
L 1184 0 
L 269 3500 
z
" transform="scale(0.015625)"/>
      </defs>
      <use xlink:href="#DejaVuSans-64"/>
      <use xlink:href="#DejaVuSans-61" x="63.476562"/>
      <use xlink:href="#DejaVuSans-72" x="124.755859"/>
      <use xlink:href="#DejaVuSans-77" x="165.869141"/>
      <use xlink:href="#DejaVuSans-69" x="247.65625"/>
      <use xlink:href="#DejaVuSans-6e" x="275.439453"/>
      <use xlink:href="#DejaVuSans-5f" x="338.818359"/>
      <use xlink:href="#DejaVuSans-6e" x="388.818359"/>
      <use xlink:href="#DejaVuSans-6f" x="452.197266"/>
      <use xlink:href="#DejaVuSans-5f" x="513.378906"/>
      <use xlink:href="#DejaVuSans-70" x="563.378906"/>
      <use xlink:href="#DejaVuSans-72" x="626.855469"/>
      <use xlink:href="#DejaVuSans-65" x="665.71875"/>
      <use xlink:href="#DejaVuSans-5f" x="727.242188"/>
      <use xlink:href="#DejaVuSans-73" x="777.242188"/>
      <use xlink:href="#DejaVuSans-65" x="829.341797"/>
      <use xlink:href="#DejaVuSans-65" x="890.865234"/>
      <use xlink:href="#DejaVuSans-64" x="952.388672"/>
     </g>
    </g>
    <g id="line2d_28">
     <path d="M 765.205625 45.372813 
L 775.205625 45.372813 
L 785.205625 45.372813 
" style="fill: none; stroke: #1f77b4; stroke-width: 1.5; stroke-linecap: square"/>
     <defs>
      <path id="m743057a151" d="M 0 3 
C 0.795609 3 1.55874 2.683901 2.12132 2.12132 
C 2.683901 1.55874 3 0.795609 3 0 
C 3 -0.795609 2.683901 -1.55874 2.12132 -2.12132 
C 1.55874 -2.683901 0.795609 -3 0 -3 
C -0.795609 -3 -1.55874 -2.683901 -2.12132 -2.12132 
C -2.683901 -1.55874 -3 -0.795609 -3 0 
C -3 0.795609 -2.683901 1.55874 -2.12132 2.12132 
C -1.55874 2.683901 -0.795609 3 0 3 
z
" style="stroke: #1f77b4"/>
     </defs>
     <g>
      <use xlink:href="#m743057a151" x="775.205625" y="45.372813" style="fill: #1f77b4; stroke: #1f77b4"/>
     </g>
    </g>
    <g id="text_26">
     <!-- darwin -->
     <g transform="translate(793.205625 48.872813) scale(0.1 -0.1)">
      <use xlink:href="#DejaVuSans-64"/>
      <use xlink:href="#DejaVuSans-61" x="63.476562"/>
      <use xlink:href="#DejaVuSans-72" x="124.755859"/>
      <use xlink:href="#DejaVuSans-77" x="165.869141"/>
      <use xlink:href="#DejaVuSans-69" x="247.65625"/>
      <use xlink:href="#DejaVuSans-6e" x="275.439453"/>
     </g>
    </g>
   </g>
  </g>
 </g>
 <defs>
  <clipPath id="pfb3315ef48">
   <rect x="46.965625" y="22.318125" width="714.24" height="266.112"/>
  </clipPath>
 </defs>
</svg>
