<?xml version="1.0" encoding="utf-8" standalone="no"?>
<!DOCTYPE svg PUBLIC "-//W3C//DTD SVG 1.1//EN"
  "http://www.w3.org/Graphics/SVG/1.1/DTD/svg11.dtd">
<svg xmlns:xlink="http://www.w3.org/1999/xlink" width="413.350662pt" height="389.101062pt" viewBox="0 0 413.350662 389.101062" xmlns="http://www.w3.org/2000/svg" version="1.1">
 <metadata>
  <rdf:RDF xmlns:dc="http://purl.org/dc/elements/1.1/" xmlns:cc="http://creativecommons.org/ns#" xmlns:rdf="http://www.w3.org/1999/02/22-rdf-syntax-ns#">
   <cc:Work>
    <dc:type rdf:resource="http://purl.org/dc/dcmitype/StillImage"/>
    <dc:date>2023-08-02T15:43:16.460718</dc:date>
    <dc:format>image/svg+xml</dc:format>
    <dc:creator>
     <cc:Agent>
      <dc:title>Matplotlib v3.7.1, https://matplotlib.org/</dc:title>
     </cc:Agent>
    </dc:creator>
   </cc:Work>
  </rdf:RDF>
 </metadata>
 <defs>
  <style type="text/css">*{stroke-linejoin: round; stroke-linecap: butt}</style>
 </defs>
 <g id="figure_1">
  <g id="patch_1">
   <path d="M 0 389.101062 
L 413.350662 389.101062 
L 413.350662 0 
L 0 0 
z
" style="fill: #ffffff"/>
  </g>
  <g id="axes_1">
   <g id="patch_2">
    <path d="M 115.789062 273.312 
L 381.901062 273.312 
L 381.901062 7.2 
L 115.789062 7.2 
z
" style="fill: #ffffff"/>
   </g>
   <g id="QuadMesh_1">
    <path d="M 115.789062 7.2 
L 248.845062 7.2 
L 248.845062 140.256 
L 115.789062 140.256 
L 115.789062 7.2 
" clip-path="url(#p47f230bfee)" style="fill: none; stroke: #808080; stroke-width: 0.5"/>
    <path d="M 248.845062 7.2 
L 381.901062 7.2 
L 381.901062 140.256 
L 248.845062 140.256 
L 248.845062 7.2 
" clip-path="url(#p47f230bfee)" style="fill: #fbd7d4; stroke: #808080; stroke-width: 0.5"/>
    <path d="M 115.789062 140.256 
L 248.845062 140.256 
L 248.845062 273.312 
L 115.789062 273.312 
L 115.789062 140.256 
" clip-path="url(#p47f230bfee)" style="fill: #fbd7d4; stroke: #808080; stroke-width: 0.5"/>
    <path d="M 248.845062 140.256 
L 381.901062 140.256 
L 381.901062 273.312 
L 248.845062 273.312 
L 248.845062 140.256 
" clip-path="url(#p47f230bfee)" style="fill: none; stroke: #808080; stroke-width: 0.5"/>
   </g>
   <g id="matplotlib.axis_1">
    <g id="xtick_1">
     <g id="line2d_1">
      <defs>
       <path id="m7a34296a68" d="M 0 0 
L 0 3.5 
" style="stroke: #000000; stroke-width: 0.8"/>
      </defs>
      <g>
       <use xlink:href="#m7a34296a68" x="182.317062" y="273.312" style="stroke: #000000; stroke-width: 0.8"/>
      </g>
     </g>
     <g id="text_1">
      <!-- darwin -->
      <g transform="translate(174.718625 280.312) rotate(-270) scale(0.1 -0.1)">
       <defs>
        <path id="DejaVuSans-64" d="M 2906 2969 
L 2906 4863 
L 3481 4863 
L 3481 0 
L 2906 0 
L 2906 525 
Q 2725 213 2448 61 
Q 2172 -91 1784 -91 
Q 1150 -91 751 415 
Q 353 922 353 1747 
Q 353 2572 751 3078 
Q 1150 3584 1784 3584 
Q 2172 3584 2448 3432 
Q 2725 3281 2906 2969 
z
M 947 1747 
Q 947 1113 1208 752 
Q 1469 391 1925 391 
Q 2381 391 2643 752 
Q 2906 1113 2906 1747 
Q 2906 2381 2643 2742 
Q 2381 3103 1925 3103 
Q 1469 3103 1208 2742 
Q 947 2381 947 1747 
z
" transform="scale(0.015625)"/>
        <path id="DejaVuSans-61" d="M 2194 1759 
Q 1497 1759 1228 1600 
Q 959 1441 959 1056 
Q 959 750 1161 570 
Q 1363 391 1709 391 
Q 2188 391 2477 730 
Q 2766 1069 2766 1631 
L 2766 1759 
L 2194 1759 
z
M 3341 1997 
L 3341 0 
L 2766 0 
L 2766 531 
Q 2569 213 2275 61 
Q 1981 -91 1556 -91 
Q 1019 -91 701 211 
Q 384 513 384 1019 
Q 384 1609 779 1909 
Q 1175 2209 1959 2209 
L 2766 2209 
L 2766 2266 
Q 2766 2663 2505 2880 
Q 2244 3097 1772 3097 
Q 1472 3097 1187 3025 
Q 903 2953 641 2809 
L 641 3341 
Q 956 3463 1253 3523 
Q 1550 3584 1831 3584 
Q 2591 3584 2966 3190 
Q 3341 2797 3341 1997 
z
" transform="scale(0.015625)"/>
        <path id="DejaVuSans-72" d="M 2631 2963 
Q 2534 3019 2420 3045 
Q 2306 3072 2169 3072 
Q 1681 3072 1420 2755 
Q 1159 2438 1159 1844 
L 1159 0 
L 581 0 
L 581 3500 
L 1159 3500 
L 1159 2956 
Q 1341 3275 1631 3429 
Q 1922 3584 2338 3584 
Q 2397 3584 2469 3576 
Q 2541 3569 2628 3553 
L 2631 2963 
z
" transform="scale(0.015625)"/>
        <path id="DejaVuSans-77" d="M 269 3500 
L 844 3500 
L 1563 769 
L 2278 3500 
L 2956 3500 
L 3675 769 
L 4391 3500 
L 4966 3500 
L 4050 0 
L 3372 0 
L 2619 2869 
L 1863 0 
L 1184 0 
L 269 3500 
z
" transform="scale(0.015625)"/>
        <path id="DejaVuSans-69" d="M 603 3500 
L 1178 3500 
L 1178 0 
L 603 0 
L 603 3500 
z
M 603 4863 
L 1178 4863 
L 1178 4134 
L 603 4134 
L 603 4863 
z
" transform="scale(0.015625)"/>
        <path id="DejaVuSans-6e" d="M 3513 2113 
L 3513 0 
L 2938 0 
L 2938 2094 
Q 2938 2591 2744 2837 
Q 2550 3084 2163 3084 
Q 1697 3084 1428 2787 
Q 1159 2491 1159 1978 
L 1159 0 
L 581 0 
L 581 3500 
L 1159 3500 
L 1159 2956 
Q 1366 3272 1645 3428 
Q 1925 3584 2291 3584 
Q 2894 3584 3203 3211 
Q 3513 2838 3513 2113 
z
" transform="scale(0.015625)"/>
       </defs>
       <use xlink:href="#DejaVuSans-64"/>
       <use xlink:href="#DejaVuSans-61" x="63.476562"/>
       <use xlink:href="#DejaVuSans-72" x="124.755859"/>
       <use xlink:href="#DejaVuSans-77" x="165.869141"/>
       <use xlink:href="#DejaVuSans-69" x="247.65625"/>
       <use xlink:href="#DejaVuSans-6e" x="275.439453"/>
      </g>
     </g>
    </g>
    <g id="xtick_2">
     <g id="line2d_2">
      <g>
       <use xlink:href="#m7a34296a68" x="315.373062" y="273.312" style="stroke: #000000; stroke-width: 0.8"/>
      </g>
     </g>
     <g id="text_2">
      <!-- darwin_no_pre_seed -->
      <g transform="translate(307.774625 280.312) rotate(-270) scale(0.1 -0.1)">
       <defs>
        <path id="DejaVuSans-5f" d="M 3263 -1063 
L 3263 -1509 
L -63 -1509 
L -63 -1063 
L 3263 -1063 
z
" transform="scale(0.015625)"/>
        <path id="DejaVuSans-6f" d="M 1959 3097 
Q 1497 3097 1228 2736 
Q 959 2375 959 1747 
Q 959 1119 1226 758 
Q 1494 397 1959 397 
Q 2419 397 2687 759 
Q 2956 1122 2956 1747 
Q 2956 2369 2687 2733 
Q 2419 3097 1959 3097 
z
M 1959 3584 
Q 2709 3584 3137 3096 
Q 3566 2609 3566 1747 
Q 3566 888 3137 398 
Q 2709 -91 1959 -91 
Q 1206 -91 779 398 
Q 353 888 353 1747 
Q 353 2609 779 3096 
Q 1206 3584 1959 3584 
z
" transform="scale(0.015625)"/>
        <path id="DejaVuSans-70" d="M 1159 525 
L 1159 -1331 
L 581 -1331 
L 581 3500 
L 1159 3500 
L 1159 2969 
Q 1341 3281 1617 3432 
Q 1894 3584 2278 3584 
Q 2916 3584 3314 3078 
Q 3713 2572 3713 1747 
Q 3713 922 3314 415 
Q 2916 -91 2278 -91 
Q 1894 -91 1617 61 
Q 1341 213 1159 525 
z
M 3116 1747 
Q 3116 2381 2855 2742 
Q 2594 3103 2138 3103 
Q 1681 3103 1420 2742 
Q 1159 2381 1159 1747 
Q 1159 1113 1420 752 
Q 1681 391 2138 391 
Q 2594 391 2855 752 
Q 3116 1113 3116 1747 
z
" transform="scale(0.015625)"/>
        <path id="DejaVuSans-65" d="M 3597 1894 
L 3597 1613 
L 953 1613 
Q 991 1019 1311 708 
Q 1631 397 2203 397 
Q 2534 397 2845 478 
Q 3156 559 3463 722 
L 3463 178 
Q 3153 47 2828 -22 
Q 2503 -91 2169 -91 
Q 1331 -91 842 396 
Q 353 884 353 1716 
Q 353 2575 817 3079 
Q 1281 3584 2069 3584 
Q 2775 3584 3186 3129 
Q 3597 2675 3597 1894 
z
M 3022 2063 
Q 3016 2534 2758 2815 
Q 2500 3097 2075 3097 
Q 1594 3097 1305 2825 
Q 1016 2553 972 2059 
L 3022 2063 
z
" transform="scale(0.015625)"/>
        <path id="DejaVuSans-73" d="M 2834 3397 
L 2834 2853 
Q 2591 2978 2328 3040 
Q 2066 3103 1784 3103 
Q 1356 3103 1142 2972 
Q 928 2841 928 2578 
Q 928 2378 1081 2264 
Q 1234 2150 1697 2047 
L 1894 2003 
Q 2506 1872 2764 1633 
Q 3022 1394 3022 966 
Q 3022 478 2636 193 
Q 2250 -91 1575 -91 
Q 1294 -91 989 -36 
Q 684 19 347 128 
L 347 722 
Q 666 556 975 473 
Q 1284 391 1588 391 
Q 1994 391 2212 530 
Q 2431 669 2431 922 
Q 2431 1156 2273 1281 
Q 2116 1406 1581 1522 
L 1381 1569 
Q 847 1681 609 1914 
Q 372 2147 372 2553 
Q 372 3047 722 3315 
Q 1072 3584 1716 3584 
Q 2034 3584 2315 3537 
Q 2597 3491 2834 3397 
z
" transform="scale(0.015625)"/>
       </defs>
       <use xlink:href="#DejaVuSans-64"/>
       <use xlink:href="#DejaVuSans-61" x="63.476562"/>
       <use xlink:href="#DejaVuSans-72" x="124.755859"/>
       <use xlink:href="#DejaVuSans-77" x="165.869141"/>
       <use xlink:href="#DejaVuSans-69" x="247.65625"/>
       <use xlink:href="#DejaVuSans-6e" x="275.439453"/>
       <use xlink:href="#DejaVuSans-5f" x="338.818359"/>
       <use xlink:href="#DejaVuSans-6e" x="388.818359"/>
       <use xlink:href="#DejaVuSans-6f" x="452.197266"/>
       <use xlink:href="#DejaVuSans-5f" x="513.378906"/>
       <use xlink:href="#DejaVuSans-70" x="563.378906"/>
       <use xlink:href="#DejaVuSans-72" x="626.855469"/>
       <use xlink:href="#DejaVuSans-65" x="665.71875"/>
       <use xlink:href="#DejaVuSans-5f" x="727.242188"/>
       <use xlink:href="#DejaVuSans-73" x="777.242188"/>
       <use xlink:href="#DejaVuSans-65" x="829.341797"/>
       <use xlink:href="#DejaVuSans-65" x="890.865234"/>
       <use xlink:href="#DejaVuSans-64" x="952.388672"/>
      </g>
     </g>
    </g>
   </g>
   <g id="matplotlib.axis_2">
    <g id="ytick_1">
     <g id="line2d_3">
      <defs>
       <path id="m455d305674" d="M 0 0 
L -3.5 0 
" style="stroke: #000000; stroke-width: 0.8"/>
      </defs>
      <g>
       <use xlink:href="#m455d305674" x="115.789062" y="73.728" style="stroke: #000000; stroke-width: 0.8"/>
      </g>
     </g>
     <g id="text_3">
      <!-- darwin -->
      <g transform="translate(74.907813 76.487375) scale(0.1 -0.1)">
       <use xlink:href="#DejaVuSans-64"/>
       <use xlink:href="#DejaVuSans-61" x="63.476562"/>
       <use xlink:href="#DejaVuSans-72" x="124.755859"/>
       <use xlink:href="#DejaVuSans-77" x="165.869141"/>
       <use xlink:href="#DejaVuSans-69" x="247.65625"/>
       <use xlink:href="#DejaVuSans-6e" x="275.439453"/>
      </g>
     </g>
    </g>
    <g id="ytick_2">
     <g id="line2d_4">
      <g>
       <use xlink:href="#m455d305674" x="115.789062" y="206.784" style="stroke: #000000; stroke-width: 0.8"/>
      </g>
     </g>
     <g id="text_4">
      <!-- darwin_no_pre_seed -->
      <g transform="translate(7.2 209.404312) scale(0.1 -0.1)">
       <use xlink:href="#DejaVuSans-64"/>
       <use xlink:href="#DejaVuSans-61" x="63.476562"/>
       <use xlink:href="#DejaVuSans-72" x="124.755859"/>
       <use xlink:href="#DejaVuSans-77" x="165.869141"/>
       <use xlink:href="#DejaVuSans-69" x="247.65625"/>
       <use xlink:href="#DejaVuSans-6e" x="275.439453"/>
       <use xlink:href="#DejaVuSans-5f" x="338.818359"/>
       <use xlink:href="#DejaVuSans-6e" x="388.818359"/>
       <use xlink:href="#DejaVuSans-6f" x="452.197266"/>
       <use xlink:href="#DejaVuSans-5f" x="513.378906"/>
       <use xlink:href="#DejaVuSans-70" x="563.378906"/>
       <use xlink:href="#DejaVuSans-72" x="626.855469"/>
       <use xlink:href="#DejaVuSans-65" x="665.71875"/>
       <use xlink:href="#DejaVuSans-5f" x="727.242188"/>
       <use xlink:href="#DejaVuSans-73" x="777.242188"/>
       <use xlink:href="#DejaVuSans-65" x="829.341797"/>
       <use xlink:href="#DejaVuSans-65" x="890.865234"/>
       <use xlink:href="#DejaVuSans-64" x="952.388672"/>
      </g>
     </g>
    </g>
   </g>
  </g>
  <g id="axes_2">
   <g id="patch_3">
    <path d="M 399.757063 204.192 
L 406.150663 204.192 
L 406.150663 76.32 
L 399.757063 76.32 
z
" style="fill: #ffffff"/>
   </g>
   <g id="QuadMesh_2">
    <path d="M 399.757063 204.192 
L 406.150663 204.192 
L 406.150663 182.88 
L 399.757063 182.88 
L 399.757063 204.192 
" clip-path="url(#p1e6a75d977)" style="fill: #005a32"/>
    <path d="M 399.757063 182.88 
L 406.150663 182.88 
L 406.150663 161.568 
L 399.757063 161.568 
L 399.757063 182.88 
" clip-path="url(#p1e6a75d977)" style="fill: #238b45"/>
    <path d="M 399.757063 161.568 
L 406.150663 161.568 
L 406.150663 140.256 
L 399.757063 140.256 
L 399.757063 161.568 
" clip-path="url(#p1e6a75d977)" style="fill: #fbd7d4"/>
   </g>
   <g id="matplotlib.axis_3"/>
   <g id="matplotlib.axis_4">
    <g id="ytick_3">
     <g id="line2d_5"/>
    </g>
    <g id="ytick_4">
     <g id="line2d_6"/>
    </g>
    <g id="ytick_5">
     <g id="line2d_7"/>
    </g>
    <g id="ytick_6">
     <g id="line2d_8"/>
    </g>
    <g id="ytick_7">
     <g id="line2d_9">
      <defs>
       <path id="mc6abcddca7" d="M 0 0 
L 2 0 
" style="stroke: #000000; stroke-width: 0.6"/>
      </defs>
      <g>
       <use xlink:href="#mc6abcddca7" x="406.150663" y="204.192" style="stroke: #000000; stroke-width: 0.6"/>
      </g>
     </g>
    </g>
    <g id="ytick_8">
     <g id="line2d_10">
      <g>
       <use xlink:href="#mc6abcddca7" x="406.150663" y="182.88" style="stroke: #000000; stroke-width: 0.6"/>
      </g>
     </g>
    </g>
    <g id="ytick_9">
     <g id="line2d_11">
      <g>
       <use xlink:href="#mc6abcddca7" x="406.150663" y="161.568" style="stroke: #000000; stroke-width: 0.6"/>
      </g>
     </g>
    </g>
    <g id="ytick_10">
     <g id="line2d_12">
      <g>
       <use xlink:href="#mc6abcddca7" x="406.150663" y="140.256" style="stroke: #000000; stroke-width: 0.6"/>
      </g>
     </g>
    </g>
   </g>
   <g id="LineCollection_1"/>
   <g id="patch_4">
    <path d="M 399.757063 204.192 
L 402.953863 204.192 
L 406.150663 204.192 
L 406.150663 76.32 
L 402.953863 76.32 
L 399.757063 76.32 
L 399.757063 204.192 
z
" style="fill: none; stroke: #808080; stroke-linejoin: miter; stroke-linecap: square"/>
   </g>
  </g>
 </g>
 <defs>
  <clipPath id="p47f230bfee">
   <rect x="115.789062" y="7.2" width="266.112" height="266.112"/>
  </clipPath>
  <clipPath id="p1e6a75d977">
   <rect x="399.757063" y="76.32" width="6.3936" height="127.872"/>
  </clipPath>
 </defs>
</svg>
