<?xml version="1.0" encoding="utf-8" standalone="no"?>
<!DOCTYPE svg PUBLIC "-//W3C//DTD SVG 1.1//EN"
  "http://www.w3.org/Graphics/SVG/1.1/DTD/svg11.dtd">
<svg xmlns:xlink="http://www.w3.org/1999/xlink" width="905.994687pt" height="325.986375pt" viewBox="0 0 905.994687 325.986375" xmlns="http://www.w3.org/2000/svg" version="1.1">
 <metadata>
  <rdf:RDF xmlns:dc="http://purl.org/dc/elements/1.1/" xmlns:cc="http://creativecommons.org/ns#" xmlns:rdf="http://www.w3.org/1999/02/22-rdf-syntax-ns#">
   <cc:Work>
    <dc:type rdf:resource="http://purl.org/dc/dcmitype/StillImage"/>
    <dc:date>2023-08-02T15:43:16.178493</dc:date>
    <dc:format>image/svg+xml</dc:format>
    <dc:creator>
     <cc:Agent>
      <dc:title>Matplotlib v3.7.1, https://matplotlib.org/</dc:title>
     </cc:Agent>
    </dc:creator>
   </cc:Work>
  </rdf:RDF>
 </metadata>
 <defs>
  <style type="text/css">*{stroke-linejoin: round; stroke-linecap: butt}</style>
 </defs>
 <g id="figure_1">
  <g id="patch_1">
   <path d="M 0 325.986375 
L 905.994687 325.986375 
L 905.994687 0 
L 0 0 
z
" style="fill: #ffffff"/>
  </g>
  <g id="axes_1">
   <g id="patch_2">
    <path d="M 46.965625 288.430125 
L 761.205625 288.430125 
L 761.205625 22.318125 
L 46.965625 22.318125 
z
" style="fill: #ffffff"/>
   </g>
   <g id="PolyCollection_1">
    <defs>
     <path id="ma90905fca3" d="M 46.965625 -49.65225 
L 46.965625 -49.65225 
L 513.111797 -186.666074 
L 550.389139 -186.983971 
L 572.194987 -186.983971 
L 587.666482 -187.14292 
L 599.667105 -187.301869 
L 609.472329 -187.301869 
L 617.762527 -187.301869 
L 624.943824 -187.301869 
L 631.278176 -187.301869 
L 636.944448 -187.301869 
L 642.070213 -187.301869 
L 646.749671 -187.460818 
L 651.054355 -187.619766 
L 655.03987 -187.619766 
L 658.750295 -187.619766 
L 662.221166 -187.619766 
L 665.481548 -187.619766 
L 668.555519 -187.619766 
L 671.463245 -187.619766 
L 674.22179 -187.619766 
L 676.845717 -187.619766 
L 679.347556 -187.619766 
L 681.738164 -187.619766 
L 684.027013 -187.619766 
L 686.222414 -226.085364 
L 688.331697 -264.550962 
L 690.361366 -226.399288 
L 692.317212 -226.244313 
L 694.204417 -226.244313 
L 696.027637 -226.244313 
L 697.791069 -226.244313 
L 699.498508 -264.550962 
L 701.153403 -226.244313 
L 702.758891 -226.244313 
L 704.317836 -264.709911 
L 705.832861 -264.709911 
L 707.306373 -264.86886 
L 708.740587 -264.864886 
L 710.137545 -264.86886 
L 711.499132 -264.86886 
L 712.827097 -264.709911 
L 714.123059 -264.709911 
L 715.388525 -264.86886 
L 716.624898 -264.709911 
L 717.833485 -264.709911 
L 719.015507 -264.709911 
L 720.172107 -264.709911 
L 721.304356 -264.86886 
L 722.413258 -264.709911 
L 723.499756 -264.86886 
L 724.564738 -264.709911 
L 725.609039 -264.709911 
L 726.633448 -264.864886 
L 727.638708 -264.86886 
L 728.625522 -264.709911 
L 729.594554 -264.709911 
L 730.546434 -264.86886 
L 731.48176 -264.709911 
L 732.401095 -264.86886 
L 733.304979 -264.86886 
L 734.193923 -264.709911 
L 735.068411 -264.86886 
L 735.928907 -264.709911 
L 736.775851 -264.709911 
L 737.609663 -264.864886 
L 738.430745 -264.86886 
L 739.23948 -264.709911 
L 740.036233 -264.709911 
L 740.821354 -264.86886 
L 741.595178 -264.709911 
L 742.358025 -264.709911 
L 743.110203 -264.709911 
L 743.852006 -264.86886 
L 744.583715 -264.86886 
L 745.305603 -264.86886 
L 746.017929 -264.709911 
L 746.720944 -264.86886 
L 747.414887 -264.709911 
L 748.09999 -264.709911 
L 748.776474 -264.86886 
L 749.444555 -264.86886 
L 750.104439 -264.86886 
L 750.756324 -264.86886 
L 751.400401 -264.86886 
L 752.036857 -264.86886 
L 752.665868 -264.86886 
L 753.287607 -264.86886 
L 753.90224 -264.86886 
L 754.509929 -264.86886 
L 755.110827 -264.86886 
L 755.705085 -264.86886 
L 756.292849 -264.86886 
L 756.874258 -264.86886 
L 757.449449 -264.709911 
L 758.018553 -264.86886 
L 758.581698 -264.86886 
L 758.581698 -291.57225 
L 758.581698 -291.57225 
L 758.018553 -291.57225 
L 757.449449 -291.57225 
L 756.874258 -291.57225 
L 756.292849 -291.57225 
L 755.705085 -291.57225 
L 755.110827 -291.57225 
L 754.509929 -291.57225 
L 753.90224 -291.57225 
L 753.287607 -290.30066 
L 752.665868 -289.346967 
L 752.036857 -290.30066 
L 751.400401 -290.30066 
L 750.756324 -290.30066 
L 750.104439 -290.30066 
L 749.444555 -289.346967 
L 748.776474 -289.346967 
L 748.09999 -289.346967 
L 747.414887 -289.346967 
L 746.720944 -290.30066 
L 746.017929 -290.459609 
L 745.305603 -290.30066 
L 744.583715 -290.30066 
L 743.852006 -289.346967 
L 743.110203 -290.30066 
L 742.358025 -289.346967 
L 741.595178 -290.304634 
L 740.821354 -289.346967 
L 740.036233 -289.346967 
L 739.23948 -289.346967 
L 738.430745 -289.346967 
L 737.609663 -290.30066 
L 736.775851 -289.02907 
L 735.928907 -289.02907 
L 735.068411 -289.02907 
L 734.193923 -289.02907 
L 733.304979 -289.02907 
L 732.401095 -289.033044 
L 731.48176 -289.02907 
L 730.546434 -289.02907 
L 729.594554 -289.188019 
L 728.625522 -289.02907 
L 727.638708 -289.02907 
L 726.633448 -289.02907 
L 725.609039 -289.02907 
L 724.564738 -289.02907 
L 723.499756 -289.02907 
L 722.413258 -289.02907 
L 721.304356 -289.02907 
L 720.172107 -289.02907 
L 719.015507 -289.02907 
L 717.833485 -288.711172 
L 716.624898 -288.711172 
L 715.388525 -288.711172 
L 714.123059 -288.711172 
L 712.827097 -288.711172 
L 711.499132 -288.711172 
L 710.137545 -289.02907 
L 708.740587 -288.711172 
L 707.306373 -288.711172 
L 705.832861 -288.711172 
L 704.317836 -288.711172 
L 702.758891 -288.711172 
L 701.153403 -288.711172 
L 699.498508 -288.711172 
L 697.791069 -288.711172 
L 696.027637 -288.711172 
L 694.204417 -288.711172 
L 692.317212 -288.711172 
L 690.361366 -288.711172 
L 688.331697 -288.711172 
L 686.222414 -288.711172 
L 684.027013 -288.711172 
L 681.738164 -288.711172 
L 679.347556 -288.711172 
L 676.845717 -288.711172 
L 674.22179 -288.711172 
L 671.463245 -288.71912 
L 668.555519 -284.260607 
L 665.481548 -265.476839 
L 662.221166 -276.790016 
L 658.750295 -276.790016 
L 655.03987 -276.790016 
L 651.054355 -275.836324 
L 646.749671 -275.995272 
L 642.070213 -275.836324 
L 636.944448 -265.186757 
L 631.278176 -275.836324 
L 624.943824 -265.186757 
L 617.762527 -265.429154 
L 609.472329 -265.186757 
L 599.667105 -265.186757 
L 587.666482 -264.86886 
L 572.194987 -263.915167 
L 550.389139 -263.915167 
L 513.111797 -263.915167 
L 46.965625 -49.65225 
z
" style="stroke: #98df8a; stroke-opacity: 0.2"/>
    </defs>
    <g clip-path="url(#p455b9ac772)">
     <use xlink:href="#ma90905fca3" x="0" y="325.986375" style="fill: #98df8a; fill-opacity: 0.2; stroke: #98df8a; stroke-opacity: 0.2"/>
    </g>
   </g>
   <g id="PolyCollection_2">
    <defs>
     <path id="m8ef44a0ee8" d="M 46.965625 -49.65225 
L 46.965625 -49.65225 
L 513.111797 -186.983971 
L 550.389139 -186.983971 
L 572.194987 -186.983971 
L 587.666482 -187.14292 
L 599.667105 -187.301869 
L 609.472329 -187.301869 
L 617.762527 -187.301869 
L 624.943824 -187.301869 
L 631.278176 -187.301869 
L 636.944448 -191.434536 
L 642.070213 -264.233065 
L 646.749671 -226.240339 
L 651.054355 -226.244313 
L 655.03987 -226.244313 
L 658.750295 -226.244313 
L 662.221166 -226.244313 
L 665.481548 -227.484113 
L 668.555519 -264.86886 
L 671.463245 -227.488087 
L 674.22179 -226.244313 
L 676.845717 -226.240339 
L 679.347556 -226.244313 
L 681.738164 -226.244313 
L 684.027013 -226.403262 
L 686.222414 -226.403262 
L 688.331697 -226.403262 
L 690.361366 -226.403262 
L 692.317212 -227.515903 
L 694.204417 -264.86886 
L 696.027637 -226.085364 
L 697.791069 -227.515903 
L 699.498508 -227.515903 
L 701.153403 -226.085364 
L 702.758891 -227.48014 
L 704.317836 -227.515903 
L 705.832861 -227.515903 
L 707.306373 -264.86886 
L 708.740587 -227.515903 
L 710.137545 -226.085364 
L 711.499132 -227.515903 
L 712.827097 -227.670878 
L 714.123059 -227.515903 
L 715.388525 -227.515903 
L 716.624898 -264.86886 
L 717.833485 -227.515903 
L 719.015507 -227.515903 
L 720.172107 -264.86886 
L 721.304356 -227.674852 
L 722.413258 -227.515903 
L 723.499756 -227.515903 
L 724.564738 -266.299398 
L 725.609039 -266.299398 
L 726.633448 -266.299398 
L 727.638708 -266.299398 
L 728.625522 -266.299398 
L 729.594554 -266.454374 
L 730.546434 -266.299398 
L 731.48176 -267.729937 
L 732.401095 -266.299398 
L 733.304979 -267.729937 
L 734.193923 -266.454374 
L 735.068411 -267.729937 
L 735.928907 -267.729937 
L 736.775851 -267.706095 
L 737.609663 -266.764324 
L 738.430745 -266.764324 
L 739.23948 -266.299398 
L 740.036233 -267.729937 
L 740.821354 -267.729937 
L 741.595178 -267.729937 
L 742.358025 -267.729937 
L 743.110203 -267.729937 
L 743.852006 -267.729937 
L 744.583715 -267.729937 
L 745.305603 -267.729937 
L 746.017929 -267.729937 
L 746.720944 -267.729937 
L 747.414887 -267.729937 
L 748.09999 -267.729937 
L 748.776474 -267.729937 
L 749.444555 -267.729937 
L 750.104439 -267.729937 
L 750.756324 -267.729937 
L 751.400401 -267.729937 
L 752.036857 -267.729937 
L 752.665868 -267.729937 
L 753.287607 -267.729937 
L 753.90224 -267.729937 
L 754.509929 -267.729937 
L 755.110827 -267.729937 
L 755.705085 -267.729937 
L 756.292849 -267.729937 
L 756.874258 -267.729937 
L 757.449449 -267.729937 
L 758.018553 -267.729937 
L 758.581698 -267.729937 
L 758.581698 -290.459609 
L 758.581698 -290.459609 
L 758.018553 -290.459609 
L 757.449449 -290.459609 
L 756.874258 -290.459609 
L 756.292849 -290.459609 
L 755.705085 -290.459609 
L 755.110827 -289.346967 
L 754.509929 -290.459609 
L 753.90224 -289.346967 
L 753.287607 -289.346967 
L 752.665868 -289.346967 
L 752.036857 -289.346967 
L 751.400401 -290.459609 
L 750.756324 -290.459609 
L 750.104439 -289.346967 
L 749.444555 -289.374784 
L 748.776474 -290.777506 
L 748.09999 -290.459609 
L 747.414887 -290.459609 
L 746.720944 -290.459609 
L 746.017929 -289.346967 
L 745.305603 -290.30066 
L 744.583715 -290.618557 
L 743.852006 -289.982762 
L 743.110203 -289.346967 
L 742.358025 -289.346967 
L 741.595178 -289.346967 
L 740.821354 -289.346967 
L 740.036233 -289.346967 
L 739.23948 -289.346967 
L 738.430745 -290.30066 
L 737.609663 -289.346967 
L 736.775851 -289.346967 
L 735.928907 -290.30066 
L 735.068411 -289.346967 
L 734.193923 -289.346967 
L 733.304979 -289.346967 
L 732.401095 -290.30066 
L 731.48176 -289.346967 
L 730.546434 -289.346967 
L 729.594554 -290.30066 
L 728.625522 -289.346967 
L 727.638708 -289.346967 
L 726.633448 -289.346967 
L 725.609039 -289.346967 
L 724.564738 -289.346967 
L 723.499756 -289.346967 
L 722.413258 -289.346967 
L 721.304356 -290.30066 
L 720.172107 -288.393275 
L 719.015507 -288.393275 
L 717.833485 -288.393275 
L 716.624898 -288.393275 
L 715.388525 -288.393275 
L 714.123059 -288.393275 
L 712.827097 -288.405196 
L 711.499132 -288.393275 
L 710.137545 -288.393275 
L 708.740587 -288.393275 
L 707.306373 -288.393275 
L 705.832861 -288.393275 
L 704.317836 -288.393275 
L 702.758891 -283.94271 
L 701.153403 -283.94271 
L 699.498508 -283.94271 
L 697.791069 -283.94271 
L 696.027637 -283.94271 
L 694.204417 -283.94271 
L 692.317212 -283.94271 
L 690.361366 -278.061606 
L 688.331697 -278.06558 
L 686.222414 -268.047835 
L 684.027013 -278.220555 
L 681.738164 -278.220555 
L 679.347556 -278.061606 
L 676.845717 -276.948965 
L 674.22179 -278.061606 
L 671.463245 -278.061606 
L 668.555519 -278.061606 
L 665.481548 -276.790016 
L 662.221166 -278.220555 
L 658.750295 -268.047835 
L 655.03987 -275.359477 
L 651.054355 -267.733911 
L 646.749671 -267.733911 
L 642.070213 -267.729937 
L 636.944448 -267.41204 
L 631.278176 -264.86886 
L 624.943824 -265.981501 
L 617.762527 -264.86886 
L 609.472329 -264.86886 
L 599.667105 -264.86886 
L 587.666482 -264.709911 
L 572.194987 -263.915167 
L 550.389139 -263.283346 
L 513.111797 -262.32568 
L 46.965625 -49.65225 
z
" style="stroke: #1f77b4; stroke-opacity: 0.2"/>
    </defs>
    <g clip-path="url(#p455b9ac772)">
     <use xlink:href="#m8ef44a0ee8" x="0" y="325.986375" style="fill: #1f77b4; fill-opacity: 0.2; stroke: #1f77b4; stroke-opacity: 0.2"/>
    </g>
   </g>
   <g id="matplotlib.axis_1">
    <g id="xtick_1">
     <g id="line2d_1">
      <defs>
       <path id="m2edd84e606" d="M 0 0 
L 0 3.5 
" style="stroke: #000000; stroke-width: 0.8"/>
      </defs>
      <g>
       <use xlink:href="#m2edd84e606" x="46.965625" y="288.430125" style="stroke: #000000; stroke-width: 0.8"/>
      </g>
     </g>
     <g id="text_1">
      <!-- 0m -->
      <g transform="translate(38.914063 303.028562) scale(0.1 -0.1)">
       <defs>
        <path id="DejaVuSans-30" d="M 2034 4250 
Q 1547 4250 1301 3770 
Q 1056 3291 1056 2328 
Q 1056 1369 1301 889 
Q 1547 409 2034 409 
Q 2525 409 2770 889 
Q 3016 1369 3016 2328 
Q 3016 3291 2770 3770 
Q 2525 4250 2034 4250 
z
M 2034 4750 
Q 2819 4750 3233 4129 
Q 3647 3509 3647 2328 
Q 3647 1150 3233 529 
Q 2819 -91 2034 -91 
Q 1250 -91 836 529 
Q 422 1150 422 2328 
Q 422 3509 836 4129 
Q 1250 4750 2034 4750 
z
" transform="scale(0.015625)"/>
        <path id="DejaVuSans-6d" d="M 3328 2828 
Q 3544 3216 3844 3400 
Q 4144 3584 4550 3584 
Q 5097 3584 5394 3201 
Q 5691 2819 5691 2113 
L 5691 0 
L 5113 0 
L 5113 2094 
Q 5113 2597 4934 2840 
Q 4756 3084 4391 3084 
Q 3944 3084 3684 2787 
Q 3425 2491 3425 1978 
L 3425 0 
L 2847 0 
L 2847 2094 
Q 2847 2600 2669 2842 
Q 2491 3084 2119 3084 
Q 1678 3084 1418 2786 
Q 1159 2488 1159 1978 
L 1159 0 
L 581 0 
L 581 3500 
L 1159 3500 
L 1159 2956 
Q 1356 3278 1631 3431 
Q 1906 3584 2284 3584 
Q 2666 3584 2933 3390 
Q 3200 3197 3328 2828 
z
" transform="scale(0.015625)"/>
       </defs>
       <use xlink:href="#DejaVuSans-30"/>
       <use xlink:href="#DejaVuSans-6d" x="63.623047"/>
      </g>
     </g>
    </g>
    <g id="xtick_2">
     <g id="line2d_2">
      <g>
       <use xlink:href="#m2edd84e606" x="115.761542" y="288.430125" style="stroke: #000000; stroke-width: 0.8"/>
      </g>
     </g>
    </g>
    <g id="xtick_3">
     <g id="line2d_3">
      <g>
       <use xlink:href="#m2edd84e606" x="208.410337" y="288.430125" style="stroke: #000000; stroke-width: 0.8"/>
      </g>
     </g>
    </g>
    <g id="xtick_4">
     <g id="line2d_4">
      <g>
       <use xlink:href="#m2edd84e606" x="269.540557" y="288.430125" style="stroke: #000000; stroke-width: 0.8"/>
      </g>
     </g>
    </g>
    <g id="xtick_5">
     <g id="line2d_5">
      <g>
       <use xlink:href="#m2edd84e606" x="330.670778" y="288.430125" style="stroke: #000000; stroke-width: 0.8"/>
      </g>
     </g>
    </g>
    <g id="xtick_6">
     <g id="line2d_6">
      <g>
       <use xlink:href="#m2edd84e606" x="391.800998" y="288.430125" style="stroke: #000000; stroke-width: 0.8"/>
      </g>
     </g>
     <g id="text_2">
      <!-- 1m -->
      <g transform="translate(383.749436 303.028562) scale(0.1 -0.1)">
       <defs>
        <path id="DejaVuSans-31" d="M 794 531 
L 1825 531 
L 1825 4091 
L 703 3866 
L 703 4441 
L 1819 4666 
L 2450 4666 
L 2450 531 
L 3481 531 
L 3481 0 
L 794 0 
L 794 531 
z
" transform="scale(0.015625)"/>
       </defs>
       <use xlink:href="#DejaVuSans-31"/>
       <use xlink:href="#DejaVuSans-6d" x="63.623047"/>
      </g>
     </g>
    </g>
    <g id="xtick_7">
     <g id="line2d_7">
      <g>
       <use xlink:href="#m2edd84e606" x="452.931219" y="288.430125" style="stroke: #000000; stroke-width: 0.8"/>
      </g>
     </g>
     <g id="text_3">
      <!-- 4m -->
      <g transform="translate(444.879656 303.028562) scale(0.1 -0.1)">
       <defs>
        <path id="DejaVuSans-34" d="M 2419 4116 
L 825 1625 
L 2419 1625 
L 2419 4116 
z
M 2253 4666 
L 3047 4666 
L 3047 1625 
L 3713 1625 
L 3713 1100 
L 3047 1100 
L 3047 0 
L 2419 0 
L 2419 1100 
L 313 1100 
L 313 1709 
L 2253 4666 
z
" transform="scale(0.015625)"/>
       </defs>
       <use xlink:href="#DejaVuSans-34"/>
       <use xlink:href="#DejaVuSans-6d" x="63.623047"/>
      </g>
     </g>
    </g>
    <g id="xtick_8">
     <g id="line2d_8">
      <g>
       <use xlink:href="#m2edd84e606" x="514.061439" y="288.430125" style="stroke: #000000; stroke-width: 0.8"/>
      </g>
     </g>
     <g id="text_4">
      <!-- 15m -->
      <g transform="translate(502.828626 303.028562) scale(0.1 -0.1)">
       <defs>
        <path id="DejaVuSans-35" d="M 691 4666 
L 3169 4666 
L 3169 4134 
L 1269 4134 
L 1269 2991 
Q 1406 3038 1543 3061 
Q 1681 3084 1819 3084 
Q 2600 3084 3056 2656 
Q 3513 2228 3513 1497 
Q 3513 744 3044 326 
Q 2575 -91 1722 -91 
Q 1428 -91 1123 -41 
Q 819 9 494 109 
L 494 744 
Q 775 591 1075 516 
Q 1375 441 1709 441 
Q 2250 441 2565 725 
Q 2881 1009 2881 1497 
Q 2881 1984 2565 2268 
Q 2250 2553 1709 2553 
Q 1456 2553 1204 2497 
Q 953 2441 691 2322 
L 691 4666 
z
" transform="scale(0.015625)"/>
       </defs>
       <use xlink:href="#DejaVuSans-31"/>
       <use xlink:href="#DejaVuSans-35" x="63.623047"/>
       <use xlink:href="#DejaVuSans-6d" x="127.246094"/>
      </g>
     </g>
    </g>
    <g id="xtick_9">
     <g id="line2d_9">
      <g>
       <use xlink:href="#m2edd84e606" x="575.191659" y="288.430125" style="stroke: #000000; stroke-width: 0.8"/>
      </g>
     </g>
     <g id="text_5">
      <!-- 47m -->
      <g transform="translate(563.958847 303.028562) scale(0.1 -0.1)">
       <defs>
        <path id="DejaVuSans-37" d="M 525 4666 
L 3525 4666 
L 3525 4397 
L 1831 0 
L 1172 0 
L 2766 4134 
L 525 4134 
L 525 4666 
z
" transform="scale(0.015625)"/>
       </defs>
       <use xlink:href="#DejaVuSans-34"/>
       <use xlink:href="#DejaVuSans-37" x="63.623047"/>
       <use xlink:href="#DejaVuSans-6d" x="127.246094"/>
      </g>
     </g>
    </g>
    <g id="xtick_10">
     <g id="line2d_10">
      <g>
       <use xlink:href="#m2edd84e606" x="636.32188" y="288.430125" style="stroke: #000000; stroke-width: 0.8"/>
      </g>
     </g>
     <g id="text_6">
      <!-- 2h:28m -->
      <g transform="translate(617.054692 303.028562) scale(0.1 -0.1)">
       <defs>
        <path id="DejaVuSans-32" d="M 1228 531 
L 3431 531 
L 3431 0 
L 469 0 
L 469 531 
Q 828 903 1448 1529 
Q 2069 2156 2228 2338 
Q 2531 2678 2651 2914 
Q 2772 3150 2772 3378 
Q 2772 3750 2511 3984 
Q 2250 4219 1831 4219 
Q 1534 4219 1204 4116 
Q 875 4013 500 3803 
L 500 4441 
Q 881 4594 1212 4672 
Q 1544 4750 1819 4750 
Q 2544 4750 2975 4387 
Q 3406 4025 3406 3419 
Q 3406 3131 3298 2873 
Q 3191 2616 2906 2266 
Q 2828 2175 2409 1742 
Q 1991 1309 1228 531 
z
" transform="scale(0.015625)"/>
        <path id="DejaVuSans-68" d="M 3513 2113 
L 3513 0 
L 2938 0 
L 2938 2094 
Q 2938 2591 2744 2837 
Q 2550 3084 2163 3084 
Q 1697 3084 1428 2787 
Q 1159 2491 1159 1978 
L 1159 0 
L 581 0 
L 581 4863 
L 1159 4863 
L 1159 2956 
Q 1366 3272 1645 3428 
Q 1925 3584 2291 3584 
Q 2894 3584 3203 3211 
Q 3513 2838 3513 2113 
z
" transform="scale(0.015625)"/>
        <path id="DejaVuSans-3a" d="M 750 794 
L 1409 794 
L 1409 0 
L 750 0 
L 750 794 
z
M 750 3309 
L 1409 3309 
L 1409 2516 
L 750 2516 
L 750 3309 
z
" transform="scale(0.015625)"/>
        <path id="DejaVuSans-38" d="M 2034 2216 
Q 1584 2216 1326 1975 
Q 1069 1734 1069 1313 
Q 1069 891 1326 650 
Q 1584 409 2034 409 
Q 2484 409 2743 651 
Q 3003 894 3003 1313 
Q 3003 1734 2745 1975 
Q 2488 2216 2034 2216 
z
M 1403 2484 
Q 997 2584 770 2862 
Q 544 3141 544 3541 
Q 544 4100 942 4425 
Q 1341 4750 2034 4750 
Q 2731 4750 3128 4425 
Q 3525 4100 3525 3541 
Q 3525 3141 3298 2862 
Q 3072 2584 2669 2484 
Q 3125 2378 3379 2068 
Q 3634 1759 3634 1313 
Q 3634 634 3220 271 
Q 2806 -91 2034 -91 
Q 1263 -91 848 271 
Q 434 634 434 1313 
Q 434 1759 690 2068 
Q 947 2378 1403 2484 
z
M 1172 3481 
Q 1172 3119 1398 2916 
Q 1625 2713 2034 2713 
Q 2441 2713 2670 2916 
Q 2900 3119 2900 3481 
Q 2900 3844 2670 4047 
Q 2441 4250 2034 4250 
Q 1625 4250 1398 4047 
Q 1172 3844 1172 3481 
z
" transform="scale(0.015625)"/>
       </defs>
       <use xlink:href="#DejaVuSans-32"/>
       <use xlink:href="#DejaVuSans-68" x="63.623047"/>
       <use xlink:href="#DejaVuSans-3a" x="127.001953"/>
       <use xlink:href="#DejaVuSans-32" x="160.693359"/>
       <use xlink:href="#DejaVuSans-38" x="224.316406"/>
       <use xlink:href="#DejaVuSans-6d" x="287.939453"/>
      </g>
     </g>
    </g>
    <g id="xtick_11">
     <g id="line2d_11">
      <g>
       <use xlink:href="#m2edd84e606" x="697.4521" y="288.430125" style="stroke: #000000; stroke-width: 0.8"/>
      </g>
     </g>
     <g id="text_7">
      <!-- 7h:42m -->
      <g transform="translate(678.184913 303.028562) scale(0.1 -0.1)">
       <use xlink:href="#DejaVuSans-37"/>
       <use xlink:href="#DejaVuSans-68" x="63.623047"/>
       <use xlink:href="#DejaVuSans-3a" x="127.001953"/>
       <use xlink:href="#DejaVuSans-34" x="160.693359"/>
       <use xlink:href="#DejaVuSans-32" x="224.316406"/>
       <use xlink:href="#DejaVuSans-6d" x="287.939453"/>
      </g>
     </g>
    </g>
    <g id="xtick_12">
     <g id="line2d_12">
      <g>
       <use xlink:href="#m2edd84e606" x="758.58232" y="288.430125" style="stroke: #000000; stroke-width: 0.8"/>
      </g>
     </g>
     <g id="text_8">
      <!-- 24h -->
      <g transform="translate(749.05107 303.028562) scale(0.1 -0.1)">
       <use xlink:href="#DejaVuSans-32"/>
       <use xlink:href="#DejaVuSans-34" x="63.623047"/>
       <use xlink:href="#DejaVuSans-68" x="127.246094"/>
      </g>
     </g>
    </g>
    <g id="text_9">
     <!-- Time (hour:minute) -->
     <g transform="translate(355.678594 316.706687) scale(0.1 -0.1)">
      <defs>
       <path id="DejaVuSans-54" d="M -19 4666 
L 3928 4666 
L 3928 4134 
L 2272 4134 
L 2272 0 
L 1638 0 
L 1638 4134 
L -19 4134 
L -19 4666 
z
" transform="scale(0.015625)"/>
       <path id="DejaVuSans-69" d="M 603 3500 
L 1178 3500 
L 1178 0 
L 603 0 
L 603 3500 
z
M 603 4863 
L 1178 4863 
L 1178 4134 
L 603 4134 
L 603 4863 
z
" transform="scale(0.015625)"/>
       <path id="DejaVuSans-65" d="M 3597 1894 
L 3597 1613 
L 953 1613 
Q 991 1019 1311 708 
Q 1631 397 2203 397 
Q 2534 397 2845 478 
Q 3156 559 3463 722 
L 3463 178 
Q 3153 47 2828 -22 
Q 2503 -91 2169 -91 
Q 1331 -91 842 396 
Q 353 884 353 1716 
Q 353 2575 817 3079 
Q 1281 3584 2069 3584 
Q 2775 3584 3186 3129 
Q 3597 2675 3597 1894 
z
M 3022 2063 
Q 3016 2534 2758 2815 
Q 2500 3097 2075 3097 
Q 1594 3097 1305 2825 
Q 1016 2553 972 2059 
L 3022 2063 
z
" transform="scale(0.015625)"/>
       <path id="DejaVuSans-20" transform="scale(0.015625)"/>
       <path id="DejaVuSans-28" d="M 1984 4856 
Q 1566 4138 1362 3434 
Q 1159 2731 1159 2009 
Q 1159 1288 1364 580 
Q 1569 -128 1984 -844 
L 1484 -844 
Q 1016 -109 783 600 
Q 550 1309 550 2009 
Q 550 2706 781 3412 
Q 1013 4119 1484 4856 
L 1984 4856 
z
" transform="scale(0.015625)"/>
       <path id="DejaVuSans-6f" d="M 1959 3097 
Q 1497 3097 1228 2736 
Q 959 2375 959 1747 
Q 959 1119 1226 758 
Q 1494 397 1959 397 
Q 2419 397 2687 759 
Q 2956 1122 2956 1747 
Q 2956 2369 2687 2733 
Q 2419 3097 1959 3097 
z
M 1959 3584 
Q 2709 3584 3137 3096 
Q 3566 2609 3566 1747 
Q 3566 888 3137 398 
Q 2709 -91 1959 -91 
Q 1206 -91 779 398 
Q 353 888 353 1747 
Q 353 2609 779 3096 
Q 1206 3584 1959 3584 
z
" transform="scale(0.015625)"/>
       <path id="DejaVuSans-75" d="M 544 1381 
L 544 3500 
L 1119 3500 
L 1119 1403 
Q 1119 906 1312 657 
Q 1506 409 1894 409 
Q 2359 409 2629 706 
Q 2900 1003 2900 1516 
L 2900 3500 
L 3475 3500 
L 3475 0 
L 2900 0 
L 2900 538 
Q 2691 219 2414 64 
Q 2138 -91 1772 -91 
Q 1169 -91 856 284 
Q 544 659 544 1381 
z
M 1991 3584 
L 1991 3584 
z
" transform="scale(0.015625)"/>
       <path id="DejaVuSans-72" d="M 2631 2963 
Q 2534 3019 2420 3045 
Q 2306 3072 2169 3072 
Q 1681 3072 1420 2755 
Q 1159 2438 1159 1844 
L 1159 0 
L 581 0 
L 581 3500 
L 1159 3500 
L 1159 2956 
Q 1341 3275 1631 3429 
Q 1922 3584 2338 3584 
Q 2397 3584 2469 3576 
Q 2541 3569 2628 3553 
L 2631 2963 
z
" transform="scale(0.015625)"/>
       <path id="DejaVuSans-6e" d="M 3513 2113 
L 3513 0 
L 2938 0 
L 2938 2094 
Q 2938 2591 2744 2837 
Q 2550 3084 2163 3084 
Q 1697 3084 1428 2787 
Q 1159 2491 1159 1978 
L 1159 0 
L 581 0 
L 581 3500 
L 1159 3500 
L 1159 2956 
Q 1366 3272 1645 3428 
Q 1925 3584 2291 3584 
Q 2894 3584 3203 3211 
Q 3513 2838 3513 2113 
z
" transform="scale(0.015625)"/>
       <path id="DejaVuSans-74" d="M 1172 4494 
L 1172 3500 
L 2356 3500 
L 2356 3053 
L 1172 3053 
L 1172 1153 
Q 1172 725 1289 603 
Q 1406 481 1766 481 
L 2356 481 
L 2356 0 
L 1766 0 
Q 1100 0 847 248 
Q 594 497 594 1153 
L 594 3053 
L 172 3053 
L 172 3500 
L 594 3500 
L 594 4494 
L 1172 4494 
z
" transform="scale(0.015625)"/>
       <path id="DejaVuSans-29" d="M 513 4856 
L 1013 4856 
Q 1481 4119 1714 3412 
Q 1947 2706 1947 2009 
Q 1947 1309 1714 600 
Q 1481 -109 1013 -844 
L 513 -844 
Q 928 -128 1133 580 
Q 1338 1288 1338 2009 
Q 1338 2731 1133 3434 
Q 928 4138 513 4856 
z
" transform="scale(0.015625)"/>
      </defs>
      <use xlink:href="#DejaVuSans-54"/>
      <use xlink:href="#DejaVuSans-69" x="57.958984"/>
      <use xlink:href="#DejaVuSans-6d" x="85.742188"/>
      <use xlink:href="#DejaVuSans-65" x="183.154297"/>
      <use xlink:href="#DejaVuSans-20" x="244.677734"/>
      <use xlink:href="#DejaVuSans-28" x="276.464844"/>
      <use xlink:href="#DejaVuSans-68" x="315.478516"/>
      <use xlink:href="#DejaVuSans-6f" x="378.857422"/>
      <use xlink:href="#DejaVuSans-75" x="440.039062"/>
      <use xlink:href="#DejaVuSans-72" x="503.417969"/>
      <use xlink:href="#DejaVuSans-3a" x="542.78125"/>
      <use xlink:href="#DejaVuSans-6d" x="576.472656"/>
      <use xlink:href="#DejaVuSans-69" x="673.884766"/>
      <use xlink:href="#DejaVuSans-6e" x="701.667969"/>
      <use xlink:href="#DejaVuSans-75" x="765.046875"/>
      <use xlink:href="#DejaVuSans-74" x="828.425781"/>
      <use xlink:href="#DejaVuSans-65" x="867.634766"/>
      <use xlink:href="#DejaVuSans-29" x="929.158203"/>
     </g>
    </g>
   </g>
   <g id="matplotlib.axis_2">
    <g id="ytick_1">
     <g id="line2d_13">
      <defs>
       <path id="m1268f44f04" d="M 0 0 
L -3.5 0 
" style="stroke: #000000; stroke-width: 0.8"/>
      </defs>
      <g>
       <use xlink:href="#m1268f44f04" x="46.965625" y="262.028737" style="stroke: #000000; stroke-width: 0.8"/>
      </g>
     </g>
     <g id="text_10">
      <!-- 100 -->
      <g transform="translate(20.878125 265.827956) scale(0.1 -0.1)">
       <use xlink:href="#DejaVuSans-31"/>
       <use xlink:href="#DejaVuSans-30" x="63.623047"/>
       <use xlink:href="#DejaVuSans-30" x="127.246094"/>
      </g>
     </g>
    </g>
    <g id="ytick_2">
     <g id="line2d_14">
      <g>
       <use xlink:href="#m1268f44f04" x="46.965625" y="230.238987" style="stroke: #000000; stroke-width: 0.8"/>
      </g>
     </g>
     <g id="text_11">
      <!-- 200 -->
      <g transform="translate(20.878125 234.038206) scale(0.1 -0.1)">
       <use xlink:href="#DejaVuSans-32"/>
       <use xlink:href="#DejaVuSans-30" x="63.623047"/>
       <use xlink:href="#DejaVuSans-30" x="127.246094"/>
      </g>
     </g>
    </g>
    <g id="ytick_3">
     <g id="line2d_15">
      <g>
       <use xlink:href="#m1268f44f04" x="46.965625" y="198.449237" style="stroke: #000000; stroke-width: 0.8"/>
      </g>
     </g>
     <g id="text_12">
      <!-- 300 -->
      <g transform="translate(20.878125 202.248455) scale(0.1 -0.1)">
       <defs>
        <path id="DejaVuSans-33" d="M 2597 2516 
Q 3050 2419 3304 2112 
Q 3559 1806 3559 1356 
Q 3559 666 3084 287 
Q 2609 -91 1734 -91 
Q 1441 -91 1130 -33 
Q 819 25 488 141 
L 488 750 
Q 750 597 1062 519 
Q 1375 441 1716 441 
Q 2309 441 2620 675 
Q 2931 909 2931 1356 
Q 2931 1769 2642 2001 
Q 2353 2234 1838 2234 
L 1294 2234 
L 1294 2753 
L 1863 2753 
Q 2328 2753 2575 2939 
Q 2822 3125 2822 3475 
Q 2822 3834 2567 4026 
Q 2313 4219 1838 4219 
Q 1578 4219 1281 4162 
Q 984 4106 628 3988 
L 628 4550 
Q 988 4650 1302 4700 
Q 1616 4750 1894 4750 
Q 2613 4750 3031 4423 
Q 3450 4097 3450 3541 
Q 3450 3153 3228 2886 
Q 3006 2619 2597 2516 
z
" transform="scale(0.015625)"/>
       </defs>
       <use xlink:href="#DejaVuSans-33"/>
       <use xlink:href="#DejaVuSans-30" x="63.623047"/>
       <use xlink:href="#DejaVuSans-30" x="127.246094"/>
      </g>
     </g>
    </g>
    <g id="ytick_4">
     <g id="line2d_16">
      <g>
       <use xlink:href="#m1268f44f04" x="46.965625" y="166.659486" style="stroke: #000000; stroke-width: 0.8"/>
      </g>
     </g>
     <g id="text_13">
      <!-- 400 -->
      <g transform="translate(20.878125 170.458705) scale(0.1 -0.1)">
       <use xlink:href="#DejaVuSans-34"/>
       <use xlink:href="#DejaVuSans-30" x="63.623047"/>
       <use xlink:href="#DejaVuSans-30" x="127.246094"/>
      </g>
     </g>
    </g>
    <g id="ytick_5">
     <g id="line2d_17">
      <g>
       <use xlink:href="#m1268f44f04" x="46.965625" y="134.869736" style="stroke: #000000; stroke-width: 0.8"/>
      </g>
     </g>
     <g id="text_14">
      <!-- 500 -->
      <g transform="translate(20.878125 138.668955) scale(0.1 -0.1)">
       <use xlink:href="#DejaVuSans-35"/>
       <use xlink:href="#DejaVuSans-30" x="63.623047"/>
       <use xlink:href="#DejaVuSans-30" x="127.246094"/>
      </g>
     </g>
    </g>
    <g id="ytick_6">
     <g id="line2d_18">
      <g>
       <use xlink:href="#m1268f44f04" x="46.965625" y="103.079986" style="stroke: #000000; stroke-width: 0.8"/>
      </g>
     </g>
     <g id="text_15">
      <!-- 600 -->
      <g transform="translate(20.878125 106.879204) scale(0.1 -0.1)">
       <defs>
        <path id="DejaVuSans-36" d="M 2113 2584 
Q 1688 2584 1439 2293 
Q 1191 2003 1191 1497 
Q 1191 994 1439 701 
Q 1688 409 2113 409 
Q 2538 409 2786 701 
Q 3034 994 3034 1497 
Q 3034 2003 2786 2293 
Q 2538 2584 2113 2584 
z
M 3366 4563 
L 3366 3988 
Q 3128 4100 2886 4159 
Q 2644 4219 2406 4219 
Q 1781 4219 1451 3797 
Q 1122 3375 1075 2522 
Q 1259 2794 1537 2939 
Q 1816 3084 2150 3084 
Q 2853 3084 3261 2657 
Q 3669 2231 3669 1497 
Q 3669 778 3244 343 
Q 2819 -91 2113 -91 
Q 1303 -91 875 529 
Q 447 1150 447 2328 
Q 447 3434 972 4092 
Q 1497 4750 2381 4750 
Q 2619 4750 2861 4703 
Q 3103 4656 3366 4563 
z
" transform="scale(0.015625)"/>
       </defs>
       <use xlink:href="#DejaVuSans-36"/>
       <use xlink:href="#DejaVuSans-30" x="63.623047"/>
       <use xlink:href="#DejaVuSans-30" x="127.246094"/>
      </g>
     </g>
    </g>
    <g id="ytick_7">
     <g id="line2d_19">
      <g>
       <use xlink:href="#m1268f44f04" x="46.965625" y="71.290235" style="stroke: #000000; stroke-width: 0.8"/>
      </g>
     </g>
     <g id="text_16">
      <!-- 700 -->
      <g transform="translate(20.878125 75.089454) scale(0.1 -0.1)">
       <use xlink:href="#DejaVuSans-37"/>
       <use xlink:href="#DejaVuSans-30" x="63.623047"/>
       <use xlink:href="#DejaVuSans-30" x="127.246094"/>
      </g>
     </g>
    </g>
    <g id="ytick_8">
     <g id="line2d_20">
      <g>
       <use xlink:href="#m1268f44f04" x="46.965625" y="39.500485" style="stroke: #000000; stroke-width: 0.8"/>
      </g>
     </g>
     <g id="text_17">
      <!-- 800 -->
      <g transform="translate(20.878125 43.299704) scale(0.1 -0.1)">
       <use xlink:href="#DejaVuSans-38"/>
       <use xlink:href="#DejaVuSans-30" x="63.623047"/>
       <use xlink:href="#DejaVuSans-30" x="127.246094"/>
      </g>
     </g>
    </g>
    <g id="text_18">
     <!-- Code branch coverage -->
     <g transform="translate(14.798438 211.949125) rotate(-90) scale(0.1 -0.1)">
      <defs>
       <path id="DejaVuSans-43" d="M 4122 4306 
L 4122 3641 
Q 3803 3938 3442 4084 
Q 3081 4231 2675 4231 
Q 1875 4231 1450 3742 
Q 1025 3253 1025 2328 
Q 1025 1406 1450 917 
Q 1875 428 2675 428 
Q 3081 428 3442 575 
Q 3803 722 4122 1019 
L 4122 359 
Q 3791 134 3420 21 
Q 3050 -91 2638 -91 
Q 1578 -91 968 557 
Q 359 1206 359 2328 
Q 359 3453 968 4101 
Q 1578 4750 2638 4750 
Q 3056 4750 3426 4639 
Q 3797 4528 4122 4306 
z
" transform="scale(0.015625)"/>
       <path id="DejaVuSans-64" d="M 2906 2969 
L 2906 4863 
L 3481 4863 
L 3481 0 
L 2906 0 
L 2906 525 
Q 2725 213 2448 61 
Q 2172 -91 1784 -91 
Q 1150 -91 751 415 
Q 353 922 353 1747 
Q 353 2572 751 3078 
Q 1150 3584 1784 3584 
Q 2172 3584 2448 3432 
Q 2725 3281 2906 2969 
z
M 947 1747 
Q 947 1113 1208 752 
Q 1469 391 1925 391 
Q 2381 391 2643 752 
Q 2906 1113 2906 1747 
Q 2906 2381 2643 2742 
Q 2381 3103 1925 3103 
Q 1469 3103 1208 2742 
Q 947 2381 947 1747 
z
" transform="scale(0.015625)"/>
       <path id="DejaVuSans-62" d="M 3116 1747 
Q 3116 2381 2855 2742 
Q 2594 3103 2138 3103 
Q 1681 3103 1420 2742 
Q 1159 2381 1159 1747 
Q 1159 1113 1420 752 
Q 1681 391 2138 391 
Q 2594 391 2855 752 
Q 3116 1113 3116 1747 
z
M 1159 2969 
Q 1341 3281 1617 3432 
Q 1894 3584 2278 3584 
Q 2916 3584 3314 3078 
Q 3713 2572 3713 1747 
Q 3713 922 3314 415 
Q 2916 -91 2278 -91 
Q 1894 -91 1617 61 
Q 1341 213 1159 525 
L 1159 0 
L 581 0 
L 581 4863 
L 1159 4863 
L 1159 2969 
z
" transform="scale(0.015625)"/>
       <path id="DejaVuSans-61" d="M 2194 1759 
Q 1497 1759 1228 1600 
Q 959 1441 959 1056 
Q 959 750 1161 570 
Q 1363 391 1709 391 
Q 2188 391 2477 730 
Q 2766 1069 2766 1631 
L 2766 1759 
L 2194 1759 
z
M 3341 1997 
L 3341 0 
L 2766 0 
L 2766 531 
Q 2569 213 2275 61 
Q 1981 -91 1556 -91 
Q 1019 -91 701 211 
Q 384 513 384 1019 
Q 384 1609 779 1909 
Q 1175 2209 1959 2209 
L 2766 2209 
L 2766 2266 
Q 2766 2663 2505 2880 
Q 2244 3097 1772 3097 
Q 1472 3097 1187 3025 
Q 903 2953 641 2809 
L 641 3341 
Q 956 3463 1253 3523 
Q 1550 3584 1831 3584 
Q 2591 3584 2966 3190 
Q 3341 2797 3341 1997 
z
" transform="scale(0.015625)"/>
       <path id="DejaVuSans-63" d="M 3122 3366 
L 3122 2828 
Q 2878 2963 2633 3030 
Q 2388 3097 2138 3097 
Q 1578 3097 1268 2742 
Q 959 2388 959 1747 
Q 959 1106 1268 751 
Q 1578 397 2138 397 
Q 2388 397 2633 464 
Q 2878 531 3122 666 
L 3122 134 
Q 2881 22 2623 -34 
Q 2366 -91 2075 -91 
Q 1284 -91 818 406 
Q 353 903 353 1747 
Q 353 2603 823 3093 
Q 1294 3584 2113 3584 
Q 2378 3584 2631 3529 
Q 2884 3475 3122 3366 
z
" transform="scale(0.015625)"/>
       <path id="DejaVuSans-76" d="M 191 3500 
L 800 3500 
L 1894 563 
L 2988 3500 
L 3597 3500 
L 2284 0 
L 1503 0 
L 191 3500 
z
" transform="scale(0.015625)"/>
       <path id="DejaVuSans-67" d="M 2906 1791 
Q 2906 2416 2648 2759 
Q 2391 3103 1925 3103 
Q 1463 3103 1205 2759 
Q 947 2416 947 1791 
Q 947 1169 1205 825 
Q 1463 481 1925 481 
Q 2391 481 2648 825 
Q 2906 1169 2906 1791 
z
M 3481 434 
Q 3481 -459 3084 -895 
Q 2688 -1331 1869 -1331 
Q 1566 -1331 1297 -1286 
Q 1028 -1241 775 -1147 
L 775 -588 
Q 1028 -725 1275 -790 
Q 1522 -856 1778 -856 
Q 2344 -856 2625 -561 
Q 2906 -266 2906 331 
L 2906 616 
Q 2728 306 2450 153 
Q 2172 0 1784 0 
Q 1141 0 747 490 
Q 353 981 353 1791 
Q 353 2603 747 3093 
Q 1141 3584 1784 3584 
Q 2172 3584 2450 3431 
Q 2728 3278 2906 2969 
L 2906 3500 
L 3481 3500 
L 3481 434 
z
" transform="scale(0.015625)"/>
      </defs>
      <use xlink:href="#DejaVuSans-43"/>
      <use xlink:href="#DejaVuSans-6f" x="69.824219"/>
      <use xlink:href="#DejaVuSans-64" x="131.005859"/>
      <use xlink:href="#DejaVuSans-65" x="194.482422"/>
      <use xlink:href="#DejaVuSans-20" x="256.005859"/>
      <use xlink:href="#DejaVuSans-62" x="287.792969"/>
      <use xlink:href="#DejaVuSans-72" x="351.269531"/>
      <use xlink:href="#DejaVuSans-61" x="392.382812"/>
      <use xlink:href="#DejaVuSans-6e" x="453.662109"/>
      <use xlink:href="#DejaVuSans-63" x="517.041016"/>
      <use xlink:href="#DejaVuSans-68" x="572.021484"/>
      <use xlink:href="#DejaVuSans-20" x="635.400391"/>
      <use xlink:href="#DejaVuSans-63" x="667.1875"/>
      <use xlink:href="#DejaVuSans-6f" x="722.167969"/>
      <use xlink:href="#DejaVuSans-76" x="783.349609"/>
      <use xlink:href="#DejaVuSans-65" x="842.529297"/>
      <use xlink:href="#DejaVuSans-72" x="904.052734"/>
      <use xlink:href="#DejaVuSans-61" x="945.166016"/>
      <use xlink:href="#DejaVuSans-67" x="1006.445312"/>
      <use xlink:href="#DejaVuSans-65" x="1069.921875"/>
     </g>
    </g>
   </g>
   <g id="line2d_21">
    <path d="M 46.965625 276.334125 
L 513.111797 138.843455 
L 550.389139 138.684506 
L 572.194987 104.510524 
L 587.666482 100.059959 
L 599.667105 99.901011 
L 609.472329 99.901011 
L 617.762527 99.901011 
L 624.943824 99.901011 
L 631.278176 99.901011 
L 636.944448 99.901011 
L 642.070213 99.901011 
L 646.749671 63.342798 
L 651.054355 63.0249 
L 655.03987 62.548054 
L 658.750295 61.435413 
L 662.221166 61.276464 
L 665.481548 61.276464 
L 668.555519 60.958567 
L 671.463245 60.958567 
L 674.22179 60.958567 
L 676.845717 60.958567 
L 679.347556 60.958567 
L 681.738164 60.958567 
L 684.027013 60.958567 
L 686.222414 60.958567 
L 688.331697 60.958567 
L 690.361366 60.958567 
L 692.317212 60.958567 
L 694.204417 60.958567 
L 696.027637 60.958567 
L 697.791069 60.958567 
L 699.498508 60.958567 
L 701.153403 60.958567 
L 702.758891 60.958567 
L 704.317836 59.528028 
L 705.832861 59.528028 
L 707.306373 59.528028 
L 708.740587 59.528028 
L 710.137545 59.528028 
L 711.499132 59.528028 
L 712.827097 59.528028 
L 714.123059 59.528028 
L 715.388525 59.528028 
L 716.624898 59.528028 
L 717.833485 59.528028 
L 719.015507 59.528028 
L 720.172107 59.528028 
L 721.304356 59.528028 
L 722.413258 59.528028 
L 723.499756 59.528028 
L 724.564738 59.528028 
L 725.609039 59.528028 
L 726.633448 59.528028 
L 727.638708 59.528028 
L 728.625522 59.528028 
L 729.594554 59.528028 
L 730.546434 59.528028 
L 731.48176 59.528028 
L 732.401095 59.528028 
L 733.304979 59.528028 
L 734.193923 59.528028 
L 735.068411 59.528028 
L 735.928907 59.528028 
L 736.775851 59.528028 
L 737.609663 59.528028 
L 738.430745 59.528028 
L 739.23948 59.528028 
L 740.036233 59.528028 
L 740.821354 59.528028 
L 741.595178 59.528028 
L 742.358025 59.528028 
L 743.110203 59.528028 
L 743.852006 50.626898 
L 744.583715 50.626898 
L 745.305603 50.626898 
L 746.017929 50.626898 
L 746.720944 50.150051 
L 747.414887 50.150051 
L 748.09999 50.150051 
L 748.776474 50.150051 
L 749.444555 50.150051 
L 750.104439 50.150051 
L 750.756324 50.150051 
L 751.400401 50.150051 
L 752.036857 47.447923 
L 752.665868 38.546793 
L 753.287607 38.069946 
L 753.90224 37.116254 
L 754.509929 37.116254 
L 755.110827 37.116254 
L 755.705085 37.116254 
L 756.292849 37.116254 
L 756.874258 37.116254 
L 757.449449 37.116254 
L 758.018553 37.116254 
L 758.581698 37.116254 
" clip-path="url(#p455b9ac772)" style="fill: none; stroke: #98df8a; stroke-width: 1.5; stroke-linecap: square"/>
    <defs>
     <path id="mccb229b61e" d="M -0 3 
L 3 -3 
L -3 -3 
z
" style="stroke: #ffffff; stroke-width: 0.75; stroke-linejoin: miter"/>
    </defs>
    <g clip-path="url(#p455b9ac772)">
     <use xlink:href="#mccb229b61e" x="46.965625" y="276.334125" style="fill: #98df8a; stroke: #ffffff; stroke-width: 0.75; stroke-linejoin: miter"/>
     <use xlink:href="#mccb229b61e" x="513.111797" y="138.843455" style="fill: #98df8a; stroke: #ffffff; stroke-width: 0.75; stroke-linejoin: miter"/>
     <use xlink:href="#mccb229b61e" x="550.389139" y="138.684506" style="fill: #98df8a; stroke: #ffffff; stroke-width: 0.75; stroke-linejoin: miter"/>
     <use xlink:href="#mccb229b61e" x="572.194987" y="104.510524" style="fill: #98df8a; stroke: #ffffff; stroke-width: 0.75; stroke-linejoin: miter"/>
     <use xlink:href="#mccb229b61e" x="587.666482" y="100.059959" style="fill: #98df8a; stroke: #ffffff; stroke-width: 0.75; stroke-linejoin: miter"/>
     <use xlink:href="#mccb229b61e" x="599.667105" y="99.901011" style="fill: #98df8a; stroke: #ffffff; stroke-width: 0.75; stroke-linejoin: miter"/>
     <use xlink:href="#mccb229b61e" x="609.472329" y="99.901011" style="fill: #98df8a; stroke: #ffffff; stroke-width: 0.75; stroke-linejoin: miter"/>
     <use xlink:href="#mccb229b61e" x="617.762527" y="99.901011" style="fill: #98df8a; stroke: #ffffff; stroke-width: 0.75; stroke-linejoin: miter"/>
     <use xlink:href="#mccb229b61e" x="624.943824" y="99.901011" style="fill: #98df8a; stroke: #ffffff; stroke-width: 0.75; stroke-linejoin: miter"/>
     <use xlink:href="#mccb229b61e" x="631.278176" y="99.901011" style="fill: #98df8a; stroke: #ffffff; stroke-width: 0.75; stroke-linejoin: miter"/>
     <use xlink:href="#mccb229b61e" x="636.944448" y="99.901011" style="fill: #98df8a; stroke: #ffffff; stroke-width: 0.75; stroke-linejoin: miter"/>
     <use xlink:href="#mccb229b61e" x="642.070213" y="99.901011" style="fill: #98df8a; stroke: #ffffff; stroke-width: 0.75; stroke-linejoin: miter"/>
     <use xlink:href="#mccb229b61e" x="646.749671" y="63.342798" style="fill: #98df8a; stroke: #ffffff; stroke-width: 0.75; stroke-linejoin: miter"/>
     <use xlink:href="#mccb229b61e" x="651.054355" y="63.0249" style="fill: #98df8a; stroke: #ffffff; stroke-width: 0.75; stroke-linejoin: miter"/>
     <use xlink:href="#mccb229b61e" x="655.03987" y="62.548054" style="fill: #98df8a; stroke: #ffffff; stroke-width: 0.75; stroke-linejoin: miter"/>
     <use xlink:href="#mccb229b61e" x="658.750295" y="61.435413" style="fill: #98df8a; stroke: #ffffff; stroke-width: 0.75; stroke-linejoin: miter"/>
     <use xlink:href="#mccb229b61e" x="662.221166" y="61.276464" style="fill: #98df8a; stroke: #ffffff; stroke-width: 0.75; stroke-linejoin: miter"/>
     <use xlink:href="#mccb229b61e" x="665.481548" y="61.276464" style="fill: #98df8a; stroke: #ffffff; stroke-width: 0.75; stroke-linejoin: miter"/>
     <use xlink:href="#mccb229b61e" x="668.555519" y="60.958567" style="fill: #98df8a; stroke: #ffffff; stroke-width: 0.75; stroke-linejoin: miter"/>
     <use xlink:href="#mccb229b61e" x="671.463245" y="60.958567" style="fill: #98df8a; stroke: #ffffff; stroke-width: 0.75; stroke-linejoin: miter"/>
     <use xlink:href="#mccb229b61e" x="674.22179" y="60.958567" style="fill: #98df8a; stroke: #ffffff; stroke-width: 0.75; stroke-linejoin: miter"/>
     <use xlink:href="#mccb229b61e" x="676.845717" y="60.958567" style="fill: #98df8a; stroke: #ffffff; stroke-width: 0.75; stroke-linejoin: miter"/>
     <use xlink:href="#mccb229b61e" x="679.347556" y="60.958567" style="fill: #98df8a; stroke: #ffffff; stroke-width: 0.75; stroke-linejoin: miter"/>
     <use xlink:href="#mccb229b61e" x="681.738164" y="60.958567" style="fill: #98df8a; stroke: #ffffff; stroke-width: 0.75; stroke-linejoin: miter"/>
     <use xlink:href="#mccb229b61e" x="684.027013" y="60.958567" style="fill: #98df8a; stroke: #ffffff; stroke-width: 0.75; stroke-linejoin: miter"/>
     <use xlink:href="#mccb229b61e" x="686.222414" y="60.958567" style="fill: #98df8a; stroke: #ffffff; stroke-width: 0.75; stroke-linejoin: miter"/>
     <use xlink:href="#mccb229b61e" x="688.331697" y="60.958567" style="fill: #98df8a; stroke: #ffffff; stroke-width: 0.75; stroke-linejoin: miter"/>
     <use xlink:href="#mccb229b61e" x="690.361366" y="60.958567" style="fill: #98df8a; stroke: #ffffff; stroke-width: 0.75; stroke-linejoin: miter"/>
     <use xlink:href="#mccb229b61e" x="692.317212" y="60.958567" style="fill: #98df8a; stroke: #ffffff; stroke-width: 0.75; stroke-linejoin: miter"/>
     <use xlink:href="#mccb229b61e" x="694.204417" y="60.958567" style="fill: #98df8a; stroke: #ffffff; stroke-width: 0.75; stroke-linejoin: miter"/>
     <use xlink:href="#mccb229b61e" x="696.027637" y="60.958567" style="fill: #98df8a; stroke: #ffffff; stroke-width: 0.75; stroke-linejoin: miter"/>
     <use xlink:href="#mccb229b61e" x="697.791069" y="60.958567" style="fill: #98df8a; stroke: #ffffff; stroke-width: 0.75; stroke-linejoin: miter"/>
     <use xlink:href="#mccb229b61e" x="699.498508" y="60.958567" style="fill: #98df8a; stroke: #ffffff; stroke-width: 0.75; stroke-linejoin: miter"/>
     <use xlink:href="#mccb229b61e" x="701.153403" y="60.958567" style="fill: #98df8a; stroke: #ffffff; stroke-width: 0.75; stroke-linejoin: miter"/>
     <use xlink:href="#mccb229b61e" x="702.758891" y="60.958567" style="fill: #98df8a; stroke: #ffffff; stroke-width: 0.75; stroke-linejoin: miter"/>
     <use xlink:href="#mccb229b61e" x="704.317836" y="59.528028" style="fill: #98df8a; stroke: #ffffff; stroke-width: 0.75; stroke-linejoin: miter"/>
     <use xlink:href="#mccb229b61e" x="705.832861" y="59.528028" style="fill: #98df8a; stroke: #ffffff; stroke-width: 0.75; stroke-linejoin: miter"/>
     <use xlink:href="#mccb229b61e" x="707.306373" y="59.528028" style="fill: #98df8a; stroke: #ffffff; stroke-width: 0.75; stroke-linejoin: miter"/>
     <use xlink:href="#mccb229b61e" x="708.740587" y="59.528028" style="fill: #98df8a; stroke: #ffffff; stroke-width: 0.75; stroke-linejoin: miter"/>
     <use xlink:href="#mccb229b61e" x="710.137545" y="59.528028" style="fill: #98df8a; stroke: #ffffff; stroke-width: 0.75; stroke-linejoin: miter"/>
     <use xlink:href="#mccb229b61e" x="711.499132" y="59.528028" style="fill: #98df8a; stroke: #ffffff; stroke-width: 0.75; stroke-linejoin: miter"/>
     <use xlink:href="#mccb229b61e" x="712.827097" y="59.528028" style="fill: #98df8a; stroke: #ffffff; stroke-width: 0.75; stroke-linejoin: miter"/>
     <use xlink:href="#mccb229b61e" x="714.123059" y="59.528028" style="fill: #98df8a; stroke: #ffffff; stroke-width: 0.75; stroke-linejoin: miter"/>
     <use xlink:href="#mccb229b61e" x="715.388525" y="59.528028" style="fill: #98df8a; stroke: #ffffff; stroke-width: 0.75; stroke-linejoin: miter"/>
     <use xlink:href="#mccb229b61e" x="716.624898" y="59.528028" style="fill: #98df8a; stroke: #ffffff; stroke-width: 0.75; stroke-linejoin: miter"/>
     <use xlink:href="#mccb229b61e" x="717.833485" y="59.528028" style="fill: #98df8a; stroke: #ffffff; stroke-width: 0.75; stroke-linejoin: miter"/>
     <use xlink:href="#mccb229b61e" x="719.015507" y="59.528028" style="fill: #98df8a; stroke: #ffffff; stroke-width: 0.75; stroke-linejoin: miter"/>
     <use xlink:href="#mccb229b61e" x="720.172107" y="59.528028" style="fill: #98df8a; stroke: #ffffff; stroke-width: 0.75; stroke-linejoin: miter"/>
     <use xlink:href="#mccb229b61e" x="721.304356" y="59.528028" style="fill: #98df8a; stroke: #ffffff; stroke-width: 0.75; stroke-linejoin: miter"/>
     <use xlink:href="#mccb229b61e" x="722.413258" y="59.528028" style="fill: #98df8a; stroke: #ffffff; stroke-width: 0.75; stroke-linejoin: miter"/>
     <use xlink:href="#mccb229b61e" x="723.499756" y="59.528028" style="fill: #98df8a; stroke: #ffffff; stroke-width: 0.75; stroke-linejoin: miter"/>
     <use xlink:href="#mccb229b61e" x="724.564738" y="59.528028" style="fill: #98df8a; stroke: #ffffff; stroke-width: 0.75; stroke-linejoin: miter"/>
     <use xlink:href="#mccb229b61e" x="725.609039" y="59.528028" style="fill: #98df8a; stroke: #ffffff; stroke-width: 0.75; stroke-linejoin: miter"/>
     <use xlink:href="#mccb229b61e" x="726.633448" y="59.528028" style="fill: #98df8a; stroke: #ffffff; stroke-width: 0.75; stroke-linejoin: miter"/>
     <use xlink:href="#mccb229b61e" x="727.638708" y="59.528028" style="fill: #98df8a; stroke: #ffffff; stroke-width: 0.75; stroke-linejoin: miter"/>
     <use xlink:href="#mccb229b61e" x="728.625522" y="59.528028" style="fill: #98df8a; stroke: #ffffff; stroke-width: 0.75; stroke-linejoin: miter"/>
     <use xlink:href="#mccb229b61e" x="729.594554" y="59.528028" style="fill: #98df8a; stroke: #ffffff; stroke-width: 0.75; stroke-linejoin: miter"/>
     <use xlink:href="#mccb229b61e" x="730.546434" y="59.528028" style="fill: #98df8a; stroke: #ffffff; stroke-width: 0.75; stroke-linejoin: miter"/>
     <use xlink:href="#mccb229b61e" x="731.48176" y="59.528028" style="fill: #98df8a; stroke: #ffffff; stroke-width: 0.75; stroke-linejoin: miter"/>
     <use xlink:href="#mccb229b61e" x="732.401095" y="59.528028" style="fill: #98df8a; stroke: #ffffff; stroke-width: 0.75; stroke-linejoin: miter"/>
     <use xlink:href="#mccb229b61e" x="733.304979" y="59.528028" style="fill: #98df8a; stroke: #ffffff; stroke-width: 0.75; stroke-linejoin: miter"/>
     <use xlink:href="#mccb229b61e" x="734.193923" y="59.528028" style="fill: #98df8a; stroke: #ffffff; stroke-width: 0.75; stroke-linejoin: miter"/>
     <use xlink:href="#mccb229b61e" x="735.068411" y="59.528028" style="fill: #98df8a; stroke: #ffffff; stroke-width: 0.75; stroke-linejoin: miter"/>
     <use xlink:href="#mccb229b61e" x="735.928907" y="59.528028" style="fill: #98df8a; stroke: #ffffff; stroke-width: 0.75; stroke-linejoin: miter"/>
     <use xlink:href="#mccb229b61e" x="736.775851" y="59.528028" style="fill: #98df8a; stroke: #ffffff; stroke-width: 0.75; stroke-linejoin: miter"/>
     <use xlink:href="#mccb229b61e" x="737.609663" y="59.528028" style="fill: #98df8a; stroke: #ffffff; stroke-width: 0.75; stroke-linejoin: miter"/>
     <use xlink:href="#mccb229b61e" x="738.430745" y="59.528028" style="fill: #98df8a; stroke: #ffffff; stroke-width: 0.75; stroke-linejoin: miter"/>
     <use xlink:href="#mccb229b61e" x="739.23948" y="59.528028" style="fill: #98df8a; stroke: #ffffff; stroke-width: 0.75; stroke-linejoin: miter"/>
     <use xlink:href="#mccb229b61e" x="740.036233" y="59.528028" style="fill: #98df8a; stroke: #ffffff; stroke-width: 0.75; stroke-linejoin: miter"/>
     <use xlink:href="#mccb229b61e" x="740.821354" y="59.528028" style="fill: #98df8a; stroke: #ffffff; stroke-width: 0.75; stroke-linejoin: miter"/>
     <use xlink:href="#mccb229b61e" x="741.595178" y="59.528028" style="fill: #98df8a; stroke: #ffffff; stroke-width: 0.75; stroke-linejoin: miter"/>
     <use xlink:href="#mccb229b61e" x="742.358025" y="59.528028" style="fill: #98df8a; stroke: #ffffff; stroke-width: 0.75; stroke-linejoin: miter"/>
     <use xlink:href="#mccb229b61e" x="743.110203" y="59.528028" style="fill: #98df8a; stroke: #ffffff; stroke-width: 0.75; stroke-linejoin: miter"/>
     <use xlink:href="#mccb229b61e" x="743.852006" y="50.626898" style="fill: #98df8a; stroke: #ffffff; stroke-width: 0.75; stroke-linejoin: miter"/>
     <use xlink:href="#mccb229b61e" x="744.583715" y="50.626898" style="fill: #98df8a; stroke: #ffffff; stroke-width: 0.75; stroke-linejoin: miter"/>
     <use xlink:href="#mccb229b61e" x="745.305603" y="50.626898" style="fill: #98df8a; stroke: #ffffff; stroke-width: 0.75; stroke-linejoin: miter"/>
     <use xlink:href="#mccb229b61e" x="746.017929" y="50.626898" style="fill: #98df8a; stroke: #ffffff; stroke-width: 0.75; stroke-linejoin: miter"/>
     <use xlink:href="#mccb229b61e" x="746.720944" y="50.150051" style="fill: #98df8a; stroke: #ffffff; stroke-width: 0.75; stroke-linejoin: miter"/>
     <use xlink:href="#mccb229b61e" x="747.414887" y="50.150051" style="fill: #98df8a; stroke: #ffffff; stroke-width: 0.75; stroke-linejoin: miter"/>
     <use xlink:href="#mccb229b61e" x="748.09999" y="50.150051" style="fill: #98df8a; stroke: #ffffff; stroke-width: 0.75; stroke-linejoin: miter"/>
     <use xlink:href="#mccb229b61e" x="748.776474" y="50.150051" style="fill: #98df8a; stroke: #ffffff; stroke-width: 0.75; stroke-linejoin: miter"/>
     <use xlink:href="#mccb229b61e" x="749.444555" y="50.150051" style="fill: #98df8a; stroke: #ffffff; stroke-width: 0.75; stroke-linejoin: miter"/>
     <use xlink:href="#mccb229b61e" x="750.104439" y="50.150051" style="fill: #98df8a; stroke: #ffffff; stroke-width: 0.75; stroke-linejoin: miter"/>
     <use xlink:href="#mccb229b61e" x="750.756324" y="50.150051" style="fill: #98df8a; stroke: #ffffff; stroke-width: 0.75; stroke-linejoin: miter"/>
     <use xlink:href="#mccb229b61e" x="751.400401" y="50.150051" style="fill: #98df8a; stroke: #ffffff; stroke-width: 0.75; stroke-linejoin: miter"/>
     <use xlink:href="#mccb229b61e" x="752.036857" y="47.447923" style="fill: #98df8a; stroke: #ffffff; stroke-width: 0.75; stroke-linejoin: miter"/>
     <use xlink:href="#mccb229b61e" x="752.665868" y="38.546793" style="fill: #98df8a; stroke: #ffffff; stroke-width: 0.75; stroke-linejoin: miter"/>
     <use xlink:href="#mccb229b61e" x="753.287607" y="38.069946" style="fill: #98df8a; stroke: #ffffff; stroke-width: 0.75; stroke-linejoin: miter"/>
     <use xlink:href="#mccb229b61e" x="753.90224" y="37.116254" style="fill: #98df8a; stroke: #ffffff; stroke-width: 0.75; stroke-linejoin: miter"/>
     <use xlink:href="#mccb229b61e" x="754.509929" y="37.116254" style="fill: #98df8a; stroke: #ffffff; stroke-width: 0.75; stroke-linejoin: miter"/>
     <use xlink:href="#mccb229b61e" x="755.110827" y="37.116254" style="fill: #98df8a; stroke: #ffffff; stroke-width: 0.75; stroke-linejoin: miter"/>
     <use xlink:href="#mccb229b61e" x="755.705085" y="37.116254" style="fill: #98df8a; stroke: #ffffff; stroke-width: 0.75; stroke-linejoin: miter"/>
     <use xlink:href="#mccb229b61e" x="756.292849" y="37.116254" style="fill: #98df8a; stroke: #ffffff; stroke-width: 0.75; stroke-linejoin: miter"/>
     <use xlink:href="#mccb229b61e" x="756.874258" y="37.116254" style="fill: #98df8a; stroke: #ffffff; stroke-width: 0.75; stroke-linejoin: miter"/>
     <use xlink:href="#mccb229b61e" x="757.449449" y="37.116254" style="fill: #98df8a; stroke: #ffffff; stroke-width: 0.75; stroke-linejoin: miter"/>
     <use xlink:href="#mccb229b61e" x="758.018553" y="37.116254" style="fill: #98df8a; stroke: #ffffff; stroke-width: 0.75; stroke-linejoin: miter"/>
     <use xlink:href="#mccb229b61e" x="758.581698" y="37.116254" style="fill: #98df8a; stroke: #ffffff; stroke-width: 0.75; stroke-linejoin: miter"/>
    </g>
   </g>
   <g id="line2d_22">
    <path d="M 46.965625 276.334125 
L 513.111797 138.684506 
L 550.389139 138.525557 
L 572.194987 138.525557 
L 587.666482 104.510524 
L 599.667105 100.059959 
L 609.472329 99.106267 
L 617.762527 98.788369 
L 624.943824 61.435413 
L 631.278176 61.435413 
L 636.944448 61.117515 
L 642.070213 60.958567 
L 646.749671 60.799618 
L 651.054355 60.799618 
L 655.03987 59.528028 
L 658.750295 59.528028 
L 662.221166 59.528028 
L 665.481548 59.528028 
L 668.555519 59.528028 
L 671.463245 59.369079 
L 674.22179 59.369079 
L 676.845717 59.369079 
L 679.347556 59.369079 
L 681.738164 59.369079 
L 684.027013 58.256438 
L 686.222414 58.256438 
L 688.331697 58.256438 
L 690.361366 58.256438 
L 692.317212 58.097489 
L 694.204417 58.097489 
L 696.027637 58.097489 
L 697.791069 58.097489 
L 699.498508 58.097489 
L 701.153403 58.097489 
L 702.758891 58.097489 
L 704.317836 58.097489 
L 705.832861 58.097489 
L 707.306373 58.097489 
L 708.740587 58.097489 
L 710.137545 58.097489 
L 711.499132 58.097489 
L 712.827097 58.097489 
L 714.123059 58.097489 
L 715.388525 58.097489 
L 716.624898 58.097489 
L 717.833485 58.097489 
L 719.015507 58.097489 
L 720.172107 58.097489 
L 721.304356 58.097489 
L 722.413258 58.097489 
L 723.499756 58.097489 
L 724.564738 57.461694 
L 725.609039 57.461694 
L 726.633448 57.461694 
L 727.638708 57.461694 
L 728.625522 57.461694 
L 729.594554 57.461694 
L 730.546434 57.461694 
L 731.48176 57.461694 
L 732.401095 57.461694 
L 733.304979 57.461694 
L 734.193923 57.461694 
L 735.068411 57.461694 
L 735.928907 57.461694 
L 736.775851 57.143796 
L 737.609663 57.143796 
L 738.430745 57.143796 
L 739.23948 57.143796 
L 740.036233 57.143796 
L 740.821354 57.143796 
L 741.595178 57.143796 
L 742.358025 57.143796 
L 743.110203 57.143796 
L 743.852006 57.143796 
L 744.583715 57.143796 
L 745.305603 57.143796 
L 746.017929 57.143796 
L 746.720944 57.143796 
L 747.414887 57.143796 
L 748.09999 57.143796 
L 748.776474 57.143796 
L 749.444555 57.143796 
L 750.104439 57.143796 
L 750.756324 57.143796 
L 751.400401 57.143796 
L 752.036857 57.143796 
L 752.665868 57.143796 
L 753.287607 57.143796 
L 753.90224 57.143796 
L 754.509929 57.143796 
L 755.110827 57.143796 
L 755.705085 57.143796 
L 756.292849 57.143796 
L 756.874258 57.143796 
L 757.449449 57.143796 
L 758.018553 57.143796 
L 758.581698 57.143796 
" clip-path="url(#p455b9ac772)" style="fill: none; stroke: #1f77b4; stroke-width: 1.5; stroke-linecap: square"/>
    <defs>
     <path id="m4977c1b2cf" d="M 0 3 
C 0.795609 3 1.55874 2.683901 2.12132 2.12132 
C 2.683901 1.55874 3 0.795609 3 0 
C 3 -0.795609 2.683901 -1.55874 2.12132 -2.12132 
C 1.55874 -2.683901 0.795609 -3 0 -3 
C -0.795609 -3 -1.55874 -2.683901 -2.12132 -2.12132 
C -2.683901 -1.55874 -3 -0.795609 -3 0 
C -3 0.795609 -2.683901 1.55874 -2.12132 2.12132 
C -1.55874 2.683901 -0.795609 3 0 3 
z
" style="stroke: #ffffff; stroke-width: 0.75"/>
    </defs>
    <g clip-path="url(#p455b9ac772)">
     <use xlink:href="#m4977c1b2cf" x="46.965625" y="276.334125" style="fill: #1f77b4; stroke: #ffffff; stroke-width: 0.75"/>
     <use xlink:href="#m4977c1b2cf" x="513.111797" y="138.684506" style="fill: #1f77b4; stroke: #ffffff; stroke-width: 0.75"/>
     <use xlink:href="#m4977c1b2cf" x="550.389139" y="138.525557" style="fill: #1f77b4; stroke: #ffffff; stroke-width: 0.75"/>
     <use xlink:href="#m4977c1b2cf" x="572.194987" y="138.525557" style="fill: #1f77b4; stroke: #ffffff; stroke-width: 0.75"/>
     <use xlink:href="#m4977c1b2cf" x="587.666482" y="104.510524" style="fill: #1f77b4; stroke: #ffffff; stroke-width: 0.75"/>
     <use xlink:href="#m4977c1b2cf" x="599.667105" y="100.059959" style="fill: #1f77b4; stroke: #ffffff; stroke-width: 0.75"/>
     <use xlink:href="#m4977c1b2cf" x="609.472329" y="99.106267" style="fill: #1f77b4; stroke: #ffffff; stroke-width: 0.75"/>
     <use xlink:href="#m4977c1b2cf" x="617.762527" y="98.788369" style="fill: #1f77b4; stroke: #ffffff; stroke-width: 0.75"/>
     <use xlink:href="#m4977c1b2cf" x="624.943824" y="61.435413" style="fill: #1f77b4; stroke: #ffffff; stroke-width: 0.75"/>
     <use xlink:href="#m4977c1b2cf" x="631.278176" y="61.435413" style="fill: #1f77b4; stroke: #ffffff; stroke-width: 0.75"/>
     <use xlink:href="#m4977c1b2cf" x="636.944448" y="61.117515" style="fill: #1f77b4; stroke: #ffffff; stroke-width: 0.75"/>
     <use xlink:href="#m4977c1b2cf" x="642.070213" y="60.958567" style="fill: #1f77b4; stroke: #ffffff; stroke-width: 0.75"/>
     <use xlink:href="#m4977c1b2cf" x="646.749671" y="60.799618" style="fill: #1f77b4; stroke: #ffffff; stroke-width: 0.75"/>
     <use xlink:href="#m4977c1b2cf" x="651.054355" y="60.799618" style="fill: #1f77b4; stroke: #ffffff; stroke-width: 0.75"/>
     <use xlink:href="#m4977c1b2cf" x="655.03987" y="59.528028" style="fill: #1f77b4; stroke: #ffffff; stroke-width: 0.75"/>
     <use xlink:href="#m4977c1b2cf" x="658.750295" y="59.528028" style="fill: #1f77b4; stroke: #ffffff; stroke-width: 0.75"/>
     <use xlink:href="#m4977c1b2cf" x="662.221166" y="59.528028" style="fill: #1f77b4; stroke: #ffffff; stroke-width: 0.75"/>
     <use xlink:href="#m4977c1b2cf" x="665.481548" y="59.528028" style="fill: #1f77b4; stroke: #ffffff; stroke-width: 0.75"/>
     <use xlink:href="#m4977c1b2cf" x="668.555519" y="59.528028" style="fill: #1f77b4; stroke: #ffffff; stroke-width: 0.75"/>
     <use xlink:href="#m4977c1b2cf" x="671.463245" y="59.369079" style="fill: #1f77b4; stroke: #ffffff; stroke-width: 0.75"/>
     <use xlink:href="#m4977c1b2cf" x="674.22179" y="59.369079" style="fill: #1f77b4; stroke: #ffffff; stroke-width: 0.75"/>
     <use xlink:href="#m4977c1b2cf" x="676.845717" y="59.369079" style="fill: #1f77b4; stroke: #ffffff; stroke-width: 0.75"/>
     <use xlink:href="#m4977c1b2cf" x="679.347556" y="59.369079" style="fill: #1f77b4; stroke: #ffffff; stroke-width: 0.75"/>
     <use xlink:href="#m4977c1b2cf" x="681.738164" y="59.369079" style="fill: #1f77b4; stroke: #ffffff; stroke-width: 0.75"/>
     <use xlink:href="#m4977c1b2cf" x="684.027013" y="58.256438" style="fill: #1f77b4; stroke: #ffffff; stroke-width: 0.75"/>
     <use xlink:href="#m4977c1b2cf" x="686.222414" y="58.256438" style="fill: #1f77b4; stroke: #ffffff; stroke-width: 0.75"/>
     <use xlink:href="#m4977c1b2cf" x="688.331697" y="58.256438" style="fill: #1f77b4; stroke: #ffffff; stroke-width: 0.75"/>
     <use xlink:href="#m4977c1b2cf" x="690.361366" y="58.256438" style="fill: #1f77b4; stroke: #ffffff; stroke-width: 0.75"/>
     <use xlink:href="#m4977c1b2cf" x="692.317212" y="58.097489" style="fill: #1f77b4; stroke: #ffffff; stroke-width: 0.75"/>
     <use xlink:href="#m4977c1b2cf" x="694.204417" y="58.097489" style="fill: #1f77b4; stroke: #ffffff; stroke-width: 0.75"/>
     <use xlink:href="#m4977c1b2cf" x="696.027637" y="58.097489" style="fill: #1f77b4; stroke: #ffffff; stroke-width: 0.75"/>
     <use xlink:href="#m4977c1b2cf" x="697.791069" y="58.097489" style="fill: #1f77b4; stroke: #ffffff; stroke-width: 0.75"/>
     <use xlink:href="#m4977c1b2cf" x="699.498508" y="58.097489" style="fill: #1f77b4; stroke: #ffffff; stroke-width: 0.75"/>
     <use xlink:href="#m4977c1b2cf" x="701.153403" y="58.097489" style="fill: #1f77b4; stroke: #ffffff; stroke-width: 0.75"/>
     <use xlink:href="#m4977c1b2cf" x="702.758891" y="58.097489" style="fill: #1f77b4; stroke: #ffffff; stroke-width: 0.75"/>
     <use xlink:href="#m4977c1b2cf" x="704.317836" y="58.097489" style="fill: #1f77b4; stroke: #ffffff; stroke-width: 0.75"/>
     <use xlink:href="#m4977c1b2cf" x="705.832861" y="58.097489" style="fill: #1f77b4; stroke: #ffffff; stroke-width: 0.75"/>
     <use xlink:href="#m4977c1b2cf" x="707.306373" y="58.097489" style="fill: #1f77b4; stroke: #ffffff; stroke-width: 0.75"/>
     <use xlink:href="#m4977c1b2cf" x="708.740587" y="58.097489" style="fill: #1f77b4; stroke: #ffffff; stroke-width: 0.75"/>
     <use xlink:href="#m4977c1b2cf" x="710.137545" y="58.097489" style="fill: #1f77b4; stroke: #ffffff; stroke-width: 0.75"/>
     <use xlink:href="#m4977c1b2cf" x="711.499132" y="58.097489" style="fill: #1f77b4; stroke: #ffffff; stroke-width: 0.75"/>
     <use xlink:href="#m4977c1b2cf" x="712.827097" y="58.097489" style="fill: #1f77b4; stroke: #ffffff; stroke-width: 0.75"/>
     <use xlink:href="#m4977c1b2cf" x="714.123059" y="58.097489" style="fill: #1f77b4; stroke: #ffffff; stroke-width: 0.75"/>
     <use xlink:href="#m4977c1b2cf" x="715.388525" y="58.097489" style="fill: #1f77b4; stroke: #ffffff; stroke-width: 0.75"/>
     <use xlink:href="#m4977c1b2cf" x="716.624898" y="58.097489" style="fill: #1f77b4; stroke: #ffffff; stroke-width: 0.75"/>
     <use xlink:href="#m4977c1b2cf" x="717.833485" y="58.097489" style="fill: #1f77b4; stroke: #ffffff; stroke-width: 0.75"/>
     <use xlink:href="#m4977c1b2cf" x="719.015507" y="58.097489" style="fill: #1f77b4; stroke: #ffffff; stroke-width: 0.75"/>
     <use xlink:href="#m4977c1b2cf" x="720.172107" y="58.097489" style="fill: #1f77b4; stroke: #ffffff; stroke-width: 0.75"/>
     <use xlink:href="#m4977c1b2cf" x="721.304356" y="58.097489" style="fill: #1f77b4; stroke: #ffffff; stroke-width: 0.75"/>
     <use xlink:href="#m4977c1b2cf" x="722.413258" y="58.097489" style="fill: #1f77b4; stroke: #ffffff; stroke-width: 0.75"/>
     <use xlink:href="#m4977c1b2cf" x="723.499756" y="58.097489" style="fill: #1f77b4; stroke: #ffffff; stroke-width: 0.75"/>
     <use xlink:href="#m4977c1b2cf" x="724.564738" y="57.461694" style="fill: #1f77b4; stroke: #ffffff; stroke-width: 0.75"/>
     <use xlink:href="#m4977c1b2cf" x="725.609039" y="57.461694" style="fill: #1f77b4; stroke: #ffffff; stroke-width: 0.75"/>
     <use xlink:href="#m4977c1b2cf" x="726.633448" y="57.461694" style="fill: #1f77b4; stroke: #ffffff; stroke-width: 0.75"/>
     <use xlink:href="#m4977c1b2cf" x="727.638708" y="57.461694" style="fill: #1f77b4; stroke: #ffffff; stroke-width: 0.75"/>
     <use xlink:href="#m4977c1b2cf" x="728.625522" y="57.461694" style="fill: #1f77b4; stroke: #ffffff; stroke-width: 0.75"/>
     <use xlink:href="#m4977c1b2cf" x="729.594554" y="57.461694" style="fill: #1f77b4; stroke: #ffffff; stroke-width: 0.75"/>
     <use xlink:href="#m4977c1b2cf" x="730.546434" y="57.461694" style="fill: #1f77b4; stroke: #ffffff; stroke-width: 0.75"/>
     <use xlink:href="#m4977c1b2cf" x="731.48176" y="57.461694" style="fill: #1f77b4; stroke: #ffffff; stroke-width: 0.75"/>
     <use xlink:href="#m4977c1b2cf" x="732.401095" y="57.461694" style="fill: #1f77b4; stroke: #ffffff; stroke-width: 0.75"/>
     <use xlink:href="#m4977c1b2cf" x="733.304979" y="57.461694" style="fill: #1f77b4; stroke: #ffffff; stroke-width: 0.75"/>
     <use xlink:href="#m4977c1b2cf" x="734.193923" y="57.461694" style="fill: #1f77b4; stroke: #ffffff; stroke-width: 0.75"/>
     <use xlink:href="#m4977c1b2cf" x="735.068411" y="57.461694" style="fill: #1f77b4; stroke: #ffffff; stroke-width: 0.75"/>
     <use xlink:href="#m4977c1b2cf" x="735.928907" y="57.461694" style="fill: #1f77b4; stroke: #ffffff; stroke-width: 0.75"/>
     <use xlink:href="#m4977c1b2cf" x="736.775851" y="57.143796" style="fill: #1f77b4; stroke: #ffffff; stroke-width: 0.75"/>
     <use xlink:href="#m4977c1b2cf" x="737.609663" y="57.143796" style="fill: #1f77b4; stroke: #ffffff; stroke-width: 0.75"/>
     <use xlink:href="#m4977c1b2cf" x="738.430745" y="57.143796" style="fill: #1f77b4; stroke: #ffffff; stroke-width: 0.75"/>
     <use xlink:href="#m4977c1b2cf" x="739.23948" y="57.143796" style="fill: #1f77b4; stroke: #ffffff; stroke-width: 0.75"/>
     <use xlink:href="#m4977c1b2cf" x="740.036233" y="57.143796" style="fill: #1f77b4; stroke: #ffffff; stroke-width: 0.75"/>
     <use xlink:href="#m4977c1b2cf" x="740.821354" y="57.143796" style="fill: #1f77b4; stroke: #ffffff; stroke-width: 0.75"/>
     <use xlink:href="#m4977c1b2cf" x="741.595178" y="57.143796" style="fill: #1f77b4; stroke: #ffffff; stroke-width: 0.75"/>
     <use xlink:href="#m4977c1b2cf" x="742.358025" y="57.143796" style="fill: #1f77b4; stroke: #ffffff; stroke-width: 0.75"/>
     <use xlink:href="#m4977c1b2cf" x="743.110203" y="57.143796" style="fill: #1f77b4; stroke: #ffffff; stroke-width: 0.75"/>
     <use xlink:href="#m4977c1b2cf" x="743.852006" y="57.143796" style="fill: #1f77b4; stroke: #ffffff; stroke-width: 0.75"/>
     <use xlink:href="#m4977c1b2cf" x="744.583715" y="57.143796" style="fill: #1f77b4; stroke: #ffffff; stroke-width: 0.75"/>
     <use xlink:href="#m4977c1b2cf" x="745.305603" y="57.143796" style="fill: #1f77b4; stroke: #ffffff; stroke-width: 0.75"/>
     <use xlink:href="#m4977c1b2cf" x="746.017929" y="57.143796" style="fill: #1f77b4; stroke: #ffffff; stroke-width: 0.75"/>
     <use xlink:href="#m4977c1b2cf" x="746.720944" y="57.143796" style="fill: #1f77b4; stroke: #ffffff; stroke-width: 0.75"/>
     <use xlink:href="#m4977c1b2cf" x="747.414887" y="57.143796" style="fill: #1f77b4; stroke: #ffffff; stroke-width: 0.75"/>
     <use xlink:href="#m4977c1b2cf" x="748.09999" y="57.143796" style="fill: #1f77b4; stroke: #ffffff; stroke-width: 0.75"/>
     <use xlink:href="#m4977c1b2cf" x="748.776474" y="57.143796" style="fill: #1f77b4; stroke: #ffffff; stroke-width: 0.75"/>
     <use xlink:href="#m4977c1b2cf" x="749.444555" y="57.143796" style="fill: #1f77b4; stroke: #ffffff; stroke-width: 0.75"/>
     <use xlink:href="#m4977c1b2cf" x="750.104439" y="57.143796" style="fill: #1f77b4; stroke: #ffffff; stroke-width: 0.75"/>
     <use xlink:href="#m4977c1b2cf" x="750.756324" y="57.143796" style="fill: #1f77b4; stroke: #ffffff; stroke-width: 0.75"/>
     <use xlink:href="#m4977c1b2cf" x="751.400401" y="57.143796" style="fill: #1f77b4; stroke: #ffffff; stroke-width: 0.75"/>
     <use xlink:href="#m4977c1b2cf" x="752.036857" y="57.143796" style="fill: #1f77b4; stroke: #ffffff; stroke-width: 0.75"/>
     <use xlink:href="#m4977c1b2cf" x="752.665868" y="57.143796" style="fill: #1f77b4; stroke: #ffffff; stroke-width: 0.75"/>
     <use xlink:href="#m4977c1b2cf" x="753.287607" y="57.143796" style="fill: #1f77b4; stroke: #ffffff; stroke-width: 0.75"/>
     <use xlink:href="#m4977c1b2cf" x="753.90224" y="57.143796" style="fill: #1f77b4; stroke: #ffffff; stroke-width: 0.75"/>
     <use xlink:href="#m4977c1b2cf" x="754.509929" y="57.143796" style="fill: #1f77b4; stroke: #ffffff; stroke-width: 0.75"/>
     <use xlink:href="#m4977c1b2cf" x="755.110827" y="57.143796" style="fill: #1f77b4; stroke: #ffffff; stroke-width: 0.75"/>
     <use xlink:href="#m4977c1b2cf" x="755.705085" y="57.143796" style="fill: #1f77b4; stroke: #ffffff; stroke-width: 0.75"/>
     <use xlink:href="#m4977c1b2cf" x="756.292849" y="57.143796" style="fill: #1f77b4; stroke: #ffffff; stroke-width: 0.75"/>
     <use xlink:href="#m4977c1b2cf" x="756.874258" y="57.143796" style="fill: #1f77b4; stroke: #ffffff; stroke-width: 0.75"/>
     <use xlink:href="#m4977c1b2cf" x="757.449449" y="57.143796" style="fill: #1f77b4; stroke: #ffffff; stroke-width: 0.75"/>
     <use xlink:href="#m4977c1b2cf" x="758.018553" y="57.143796" style="fill: #1f77b4; stroke: #ffffff; stroke-width: 0.75"/>
     <use xlink:href="#m4977c1b2cf" x="758.581698" y="57.143796" style="fill: #1f77b4; stroke: #ffffff; stroke-width: 0.75"/>
    </g>
   </g>
   <g id="line2d_23"/>
   <g id="line2d_24"/>
   <g id="line2d_25">
    <path d="M 758.581698 288.430125 
L 758.581698 22.318125 
" clip-path="url(#p455b9ac772)" style="fill: none; stroke: #ff0000; stroke-width: 1.5; stroke-linecap: square"/>
   </g>
   <g id="patch_3">
    <path d="M 46.965625 262.028737 
L 46.965625 39.500485 
" style="fill: none; stroke: #000000; stroke-width: 0.8; stroke-linejoin: miter; stroke-linecap: square"/>
   </g>
   <g id="patch_4">
    <path d="M 46.965625 288.430125 
L 758.58232 288.430125 
" style="fill: none; stroke: #000000; stroke-width: 0.8; stroke-linejoin: miter; stroke-linecap: square"/>
   </g>
   <g id="text_19">
    <!-- proj4_proj_crs_to_crs_fuzzer (24h, at least 10 trials/fuzzer) -->
    <g transform="translate(229.047813 16.318125) scale(0.12 -0.12)">
     <defs>
      <path id="DejaVuSans-70" d="M 1159 525 
L 1159 -1331 
L 581 -1331 
L 581 3500 
L 1159 3500 
L 1159 2969 
Q 1341 3281 1617 3432 
Q 1894 3584 2278 3584 
Q 2916 3584 3314 3078 
Q 3713 2572 3713 1747 
Q 3713 922 3314 415 
Q 2916 -91 2278 -91 
Q 1894 -91 1617 61 
Q 1341 213 1159 525 
z
M 3116 1747 
Q 3116 2381 2855 2742 
Q 2594 3103 2138 3103 
Q 1681 3103 1420 2742 
Q 1159 2381 1159 1747 
Q 1159 1113 1420 752 
Q 1681 391 2138 391 
Q 2594 391 2855 752 
Q 3116 1113 3116 1747 
z
" transform="scale(0.015625)"/>
      <path id="DejaVuSans-6a" d="M 603 3500 
L 1178 3500 
L 1178 -63 
Q 1178 -731 923 -1031 
Q 669 -1331 103 -1331 
L -116 -1331 
L -116 -844 
L 38 -844 
Q 366 -844 484 -692 
Q 603 -541 603 -63 
L 603 3500 
z
M 603 4863 
L 1178 4863 
L 1178 4134 
L 603 4134 
L 603 4863 
z
" transform="scale(0.015625)"/>
      <path id="DejaVuSans-5f" d="M 3263 -1063 
L 3263 -1509 
L -63 -1509 
L -63 -1063 
L 3263 -1063 
z
" transform="scale(0.015625)"/>
      <path id="DejaVuSans-73" d="M 2834 3397 
L 2834 2853 
Q 2591 2978 2328 3040 
Q 2066 3103 1784 3103 
Q 1356 3103 1142 2972 
Q 928 2841 928 2578 
Q 928 2378 1081 2264 
Q 1234 2150 1697 2047 
L 1894 2003 
Q 2506 1872 2764 1633 
Q 3022 1394 3022 966 
Q 3022 478 2636 193 
Q 2250 -91 1575 -91 
Q 1294 -91 989 -36 
Q 684 19 347 128 
L 347 722 
Q 666 556 975 473 
Q 1284 391 1588 391 
Q 1994 391 2212 530 
Q 2431 669 2431 922 
Q 2431 1156 2273 1281 
Q 2116 1406 1581 1522 
L 1381 1569 
Q 847 1681 609 1914 
Q 372 2147 372 2553 
Q 372 3047 722 3315 
Q 1072 3584 1716 3584 
Q 2034 3584 2315 3537 
Q 2597 3491 2834 3397 
z
" transform="scale(0.015625)"/>
      <path id="DejaVuSans-66" d="M 2375 4863 
L 2375 4384 
L 1825 4384 
Q 1516 4384 1395 4259 
Q 1275 4134 1275 3809 
L 1275 3500 
L 2222 3500 
L 2222 3053 
L 1275 3053 
L 1275 0 
L 697 0 
L 697 3053 
L 147 3053 
L 147 3500 
L 697 3500 
L 697 3744 
Q 697 4328 969 4595 
Q 1241 4863 1831 4863 
L 2375 4863 
z
" transform="scale(0.015625)"/>
      <path id="DejaVuSans-7a" d="M 353 3500 
L 3084 3500 
L 3084 2975 
L 922 459 
L 3084 459 
L 3084 0 
L 275 0 
L 275 525 
L 2438 3041 
L 353 3041 
L 353 3500 
z
" transform="scale(0.015625)"/>
      <path id="DejaVuSans-2c" d="M 750 794 
L 1409 794 
L 1409 256 
L 897 -744 
L 494 -744 
L 750 256 
L 750 794 
z
" transform="scale(0.015625)"/>
      <path id="DejaVuSans-6c" d="M 603 4863 
L 1178 4863 
L 1178 0 
L 603 0 
L 603 4863 
z
" transform="scale(0.015625)"/>
      <path id="DejaVuSans-2f" d="M 1625 4666 
L 2156 4666 
L 531 -594 
L 0 -594 
L 1625 4666 
z
" transform="scale(0.015625)"/>
     </defs>
     <use xlink:href="#DejaVuSans-70"/>
     <use xlink:href="#DejaVuSans-72" x="63.476562"/>
     <use xlink:href="#DejaVuSans-6f" x="102.339844"/>
     <use xlink:href="#DejaVuSans-6a" x="163.521484"/>
     <use xlink:href="#DejaVuSans-34" x="191.304688"/>
     <use xlink:href="#DejaVuSans-5f" x="254.927734"/>
     <use xlink:href="#DejaVuSans-70" x="304.927734"/>
     <use xlink:href="#DejaVuSans-72" x="368.404297"/>
     <use xlink:href="#DejaVuSans-6f" x="407.267578"/>
     <use xlink:href="#DejaVuSans-6a" x="468.449219"/>
     <use xlink:href="#DejaVuSans-5f" x="496.232422"/>
     <use xlink:href="#DejaVuSans-63" x="546.232422"/>
     <use xlink:href="#DejaVuSans-72" x="601.212891"/>
     <use xlink:href="#DejaVuSans-73" x="642.326172"/>
     <use xlink:href="#DejaVuSans-5f" x="694.425781"/>
     <use xlink:href="#DejaVuSans-74" x="744.425781"/>
     <use xlink:href="#DejaVuSans-6f" x="783.634766"/>
     <use xlink:href="#DejaVuSans-5f" x="844.816406"/>
     <use xlink:href="#DejaVuSans-63" x="894.816406"/>
     <use xlink:href="#DejaVuSans-72" x="949.796875"/>
     <use xlink:href="#DejaVuSans-73" x="990.910156"/>
     <use xlink:href="#DejaVuSans-5f" x="1043.009766"/>
     <use xlink:href="#DejaVuSans-66" x="1093.009766"/>
     <use xlink:href="#DejaVuSans-75" x="1128.214844"/>
     <use xlink:href="#DejaVuSans-7a" x="1191.59375"/>
     <use xlink:href="#DejaVuSans-7a" x="1244.083984"/>
     <use xlink:href="#DejaVuSans-65" x="1296.574219"/>
     <use xlink:href="#DejaVuSans-72" x="1358.097656"/>
     <use xlink:href="#DejaVuSans-20" x="1399.210938"/>
     <use xlink:href="#DejaVuSans-28" x="1430.998047"/>
     <use xlink:href="#DejaVuSans-32" x="1470.011719"/>
     <use xlink:href="#DejaVuSans-34" x="1533.634766"/>
     <use xlink:href="#DejaVuSans-68" x="1597.257812"/>
     <use xlink:href="#DejaVuSans-2c" x="1660.636719"/>
     <use xlink:href="#DejaVuSans-20" x="1692.423828"/>
     <use xlink:href="#DejaVuSans-61" x="1724.210938"/>
     <use xlink:href="#DejaVuSans-74" x="1785.490234"/>
     <use xlink:href="#DejaVuSans-20" x="1824.699219"/>
     <use xlink:href="#DejaVuSans-6c" x="1856.486328"/>
     <use xlink:href="#DejaVuSans-65" x="1884.269531"/>
     <use xlink:href="#DejaVuSans-61" x="1945.792969"/>
     <use xlink:href="#DejaVuSans-73" x="2007.072266"/>
     <use xlink:href="#DejaVuSans-74" x="2059.171875"/>
     <use xlink:href="#DejaVuSans-20" x="2098.380859"/>
     <use xlink:href="#DejaVuSans-31" x="2130.167969"/>
     <use xlink:href="#DejaVuSans-30" x="2193.791016"/>
     <use xlink:href="#DejaVuSans-20" x="2257.414062"/>
     <use xlink:href="#DejaVuSans-74" x="2289.201172"/>
     <use xlink:href="#DejaVuSans-72" x="2328.410156"/>
     <use xlink:href="#DejaVuSans-69" x="2369.523438"/>
     <use xlink:href="#DejaVuSans-61" x="2397.306641"/>
     <use xlink:href="#DejaVuSans-6c" x="2458.585938"/>
     <use xlink:href="#DejaVuSans-73" x="2486.369141"/>
     <use xlink:href="#DejaVuSans-2f" x="2538.46875"/>
     <use xlink:href="#DejaVuSans-66" x="2572.160156"/>
     <use xlink:href="#DejaVuSans-75" x="2607.365234"/>
     <use xlink:href="#DejaVuSans-7a" x="2670.744141"/>
     <use xlink:href="#DejaVuSans-7a" x="2723.234375"/>
     <use xlink:href="#DejaVuSans-65" x="2775.724609"/>
     <use xlink:href="#DejaVuSans-72" x="2837.248047"/>
     <use xlink:href="#DejaVuSans-29" x="2878.361328"/>
    </g>
   </g>
   <g id="legend_1">
    <g id="line2d_26">
     <path d="M 765.205625 30.416562 
L 775.205625 30.416562 
L 785.205625 30.416562 
" style="fill: none; stroke: #98df8a; stroke-width: 1.5; stroke-linecap: square"/>
     <defs>
      <path id="m37a4e783c5" d="M -0 3 
L 3 -3 
L -3 -3 
z
" style="stroke: #98df8a; stroke-linejoin: miter"/>
     </defs>
     <g>
      <use xlink:href="#m37a4e783c5" x="775.205625" y="30.416562" style="fill: #98df8a; stroke: #98df8a; stroke-linejoin: miter"/>
     </g>
    </g>
    <g id="text_20">
     <!-- darwin_no_pre_seed -->
     <g transform="translate(793.205625 33.916562) scale(0.1 -0.1)">
      <defs>
       <path id="DejaVuSans-77" d="M 269 3500 
L 844 3500 
L 1563 769 
L 2278 3500 
L 2956 3500 
L 3675 769 
L 4391 3500 
L 4966 3500 
L 4050 0 
L 3372 0 
L 2619 2869 
L 1863 0 
L 1184 0 
L 269 3500 
z
" transform="scale(0.015625)"/>
      </defs>
      <use xlink:href="#DejaVuSans-64"/>
      <use xlink:href="#DejaVuSans-61" x="63.476562"/>
      <use xlink:href="#DejaVuSans-72" x="124.755859"/>
      <use xlink:href="#DejaVuSans-77" x="165.869141"/>
      <use xlink:href="#DejaVuSans-69" x="247.65625"/>
      <use xlink:href="#DejaVuSans-6e" x="275.439453"/>
      <use xlink:href="#DejaVuSans-5f" x="338.818359"/>
      <use xlink:href="#DejaVuSans-6e" x="388.818359"/>
      <use xlink:href="#DejaVuSans-6f" x="452.197266"/>
      <use xlink:href="#DejaVuSans-5f" x="513.378906"/>
      <use xlink:href="#DejaVuSans-70" x="563.378906"/>
      <use xlink:href="#DejaVuSans-72" x="626.855469"/>
      <use xlink:href="#DejaVuSans-65" x="665.71875"/>
      <use xlink:href="#DejaVuSans-5f" x="727.242188"/>
      <use xlink:href="#DejaVuSans-73" x="777.242188"/>
      <use xlink:href="#DejaVuSans-65" x="829.341797"/>
      <use xlink:href="#DejaVuSans-65" x="890.865234"/>
      <use xlink:href="#DejaVuSans-64" x="952.388672"/>
     </g>
    </g>
    <g id="line2d_27">
     <path d="M 765.205625 45.372813 
L 775.205625 45.372813 
L 785.205625 45.372813 
" style="fill: none; stroke: #1f77b4; stroke-width: 1.5; stroke-linecap: square"/>
     <defs>
      <path id="mbb4b1f60d2" d="M 0 3 
C 0.795609 3 1.55874 2.683901 2.12132 2.12132 
C 2.683901 1.55874 3 0.795609 3 0 
C 3 -0.795609 2.683901 -1.55874 2.12132 -2.12132 
C 1.55874 -2.683901 0.795609 -3 0 -3 
C -0.795609 -3 -1.55874 -2.683901 -2.12132 -2.12132 
C -2.683901 -1.55874 -3 -0.795609 -3 0 
C -3 0.795609 -2.683901 1.55874 -2.12132 2.12132 
C -1.55874 2.683901 -0.795609 3 0 3 
z
" style="stroke: #1f77b4"/>
     </defs>
     <g>
      <use xlink:href="#mbb4b1f60d2" x="775.205625" y="45.372813" style="fill: #1f77b4; stroke: #1f77b4"/>
     </g>
    </g>
    <g id="text_21">
     <!-- darwin -->
     <g transform="translate(793.205625 48.872813) scale(0.1 -0.1)">
      <use xlink:href="#DejaVuSans-64"/>
      <use xlink:href="#DejaVuSans-61" x="63.476562"/>
      <use xlink:href="#DejaVuSans-72" x="124.755859"/>
      <use xlink:href="#DejaVuSans-77" x="165.869141"/>
      <use xlink:href="#DejaVuSans-69" x="247.65625"/>
      <use xlink:href="#DejaVuSans-6e" x="275.439453"/>
     </g>
    </g>
   </g>
  </g>
 </g>
 <defs>
  <clipPath id="p455b9ac772">
   <rect x="46.965625" y="22.318125" width="714.24" height="266.112"/>
  </clipPath>
 </defs>
</svg>
