<?xml version="1.0" encoding="utf-8" standalone="no"?>
<!DOCTYPE svg PUBLIC "-//W3C//DTD SVG 1.1//EN"
  "http://www.w3.org/Graphics/SVG/1.1/DTD/svg11.dtd">
<svg xmlns:xlink="http://www.w3.org/1999/xlink" width="918.719687pt" height="325.986375pt" viewBox="0 0 918.719687 325.986375" xmlns="http://www.w3.org/2000/svg" version="1.1">
 <metadata>
  <rdf:RDF xmlns:dc="http://purl.org/dc/elements/1.1/" xmlns:cc="http://creativecommons.org/ns#" xmlns:rdf="http://www.w3.org/1999/02/22-rdf-syntax-ns#">
   <cc:Work>
    <dc:type rdf:resource="http://purl.org/dc/dcmitype/StillImage"/>
    <dc:date>2023-08-02T15:43:22.954196</dc:date>
    <dc:format>image/svg+xml</dc:format>
    <dc:creator>
     <cc:Agent>
      <dc:title>Matplotlib v3.7.1, https://matplotlib.org/</dc:title>
     </cc:Agent>
    </dc:creator>
   </cc:Work>
  </rdf:RDF>
 </metadata>
 <defs>
  <style type="text/css">*{stroke-linejoin: round; stroke-linecap: butt}</style>
 </defs>
 <g id="figure_1">
  <g id="patch_1">
   <path d="M 0 325.986375 
L 918.719687 325.986375 
L 918.719687 0 
L 0 0 
z
" style="fill: #ffffff"/>
  </g>
  <g id="axes_1">
   <g id="patch_2">
    <path d="M 59.690625 288.430125 
L 773.930625 288.430125 
L 773.930625 22.318125 
L 59.690625 22.318125 
z
" style="fill: #ffffff"/>
   </g>
   <g id="PolyCollection_1">
    <defs>
     <path id="m645de61ff3" d="M 59.690625 -49.65225 
L 59.690625 -49.65225 
L 66.776339 -104.49999 
L 73.862054 -113.926277 
L 80.947768 -119.644037 
L 88.033482 -127.969522 
L 95.119196 -134.467461 
L 102.204911 -138.357675 
L 109.290625 -144.909052 
L 116.376339 -152.871165 
L 123.462054 -157.787369 
L 130.547768 -165.097551 
L 137.633482 -170.355752 
L 144.719196 -178.606426 
L 151.804911 -180.252285 
L 158.890625 -185.446362 
L 165.976339 -192.407333 
L 173.062054 -200.643846 
L 180.147768 -202.375205 
L 187.233482 -210.326631 
L 194.319196 -214.19547 
L 201.404911 -218.823114 
L 208.490625 -224.134752 
L 215.576339 -225.189064 
L 222.662054 -228.08909 
L 229.747768 -228.08909 
L 236.833482 -231.487684 
L 243.919196 -232.181296 
L 251.004911 -234.287783 
L 258.090625 -238.006998 
L 265.176339 -239.952105 
L 272.262054 -240.037604 
L 279.347768 -239.075738 
L 286.433482 -242.046836 
L 293.519196 -242.089585 
L 300.604911 -242.089585 
L 307.690625 -243.436198 
L 314.776339 -244.483563 
L 321.862054 -247.176788 
L 328.947768 -247.176788 
L 336.033482 -248.886772 
L 343.119196 -250.874629 
L 350.204911 -251.708246 
L 357.290625 -252.263991 
L 364.376339 -252.520488 
L 371.462054 -254.48697 
L 378.547768 -254.636594 
L 385.633482 -255.470211 
L 392.719196 -255.854957 
L 399.804911 -255.919082 
L 406.890625 -256.13283 
L 413.976339 -258.077937 
L 421.062054 -258.911554 
L 428.147768 -258.238248 
L 435.233482 -258.644369 
L 442.319196 -261.016972 
L 449.404911 -259.681047 
L 456.490625 -260.108543 
L 463.576339 -263.699509 
L 470.662054 -264.10563 
L 477.747768 -265.398806 
L 484.833482 -263.004828 
L 491.919196 -263.430988 
L 499.004911 -263.667447 
L 506.090625 -263.720884 
L 513.176339 -266.520983 
L 520.262054 -266.424796 
L 527.347768 -266.520983 
L 534.433482 -266.520983 
L 541.519196 -266.927104 
L 548.604911 -266.86298 
L 555.690625 -267.033978 
L 562.776339 -267.076728 
L 569.862054 -267.247726 
L 576.947768 -267.333225 
L 584.033482 -267.546973 
L 591.119196 -267.546973 
L 598.204911 -267.696597 
L 605.290625 -267.739347 
L 612.376339 -267.782096 
L 619.462054 -269.278332 
L 626.547768 -270.860068 
L 633.633482 -271.71506 
L 640.719196 -271.736434 
L 647.804911 -272.014307 
L 654.890625 -272.356304 
L 661.976339 -274.269348 
L 669.062054 -274.600658 
L 676.147768 -276.609889 
L 683.233482 -273.457106 
L 690.319196 -273.820478 
L 697.404911 -276.747222 
L 704.490625 -276.299955 
L 711.576339 -276.321329 
L 718.662054 -276.470953 
L 725.747768 -276.492328 
L 732.833482 -275.199152 
L 739.919196 -277.977876 
L 739.919196 -291.102004 
L 739.919196 -291.102004 
L 732.833482 -290.41427 
L 725.747768 -291.57225 
L 718.662054 -290.760008 
L 711.576339 -290.396636 
L 704.490625 -290.674508 
L 697.404911 -290.332512 
L 690.319196 -289.819516 
L 683.233482 -289.285146 
L 676.147768 -289.37492 
L 669.062054 -289.338583 
L 661.976339 -289.253084 
L 654.890625 -289.231709 
L 647.804911 -288.879025 
L 640.719196 -288.387405 
L 633.633482 -288.32328 
L 626.547768 -288.173657 
L 619.462054 -288.237781 
L 612.376339 -288.152282 
L 605.290625 -288.152282 
L 598.204911 -288.152282 
L 591.119196 -288.248468 
L 584.033482 -288.152282 
L 576.947768 -288.130907 
L 569.862054 -288.088157 
L 562.776339 -288.088157 
L 555.690625 -287.938534 
L 548.604911 -287.874409 
L 541.519196 -287.703411 
L 534.433482 -287.703411 
L 527.347768 -287.468288 
L 520.262054 -287.521725 
L 513.176339 -287.126291 
L 506.090625 -285.972052 
L 499.004911 -285.779679 
L 491.919196 -285.547495 
L 484.833482 -285.010186 
L 477.747768 -285.149122 
L 470.662054 -284.775063 
L 463.576339 -284.433066 
L 456.490625 -283.706323 
L 449.404911 -283.578074 
L 442.319196 -283.930759 
L 435.233482 -282.594833 
L 428.147768 -282.359711 
L 421.062054 -282.316961 
L 413.976339 -282.231462 
L 406.890625 -281.697092 
L 399.804911 -281.654342 
L 392.719196 -280.79935 
L 385.633482 -279.495487 
L 378.547768 -279.19624 
L 371.462054 -278.020626 
L 364.376339 -277.721379 
L 357.290625 -276.054144 
L 350.204911 -276.052808 
L 343.119196 -276.684701 
L 336.033482 -275.284651 
L 328.947768 -274.215911 
L 321.862054 -274.173162 
L 314.776339 -275.028154 
L 307.690625 -273.724291 
L 300.604911 -274.557908 
L 293.519196 -272.505927 
L 286.433482 -271.757809 
L 279.347768 -271.159315 
L 272.262054 -270.582195 
L 265.176339 -269.876827 
L 258.090625 -268.263029 
L 251.004911 -267.418725 
L 243.919196 -265.345369 
L 236.833482 -264.864436 
L 229.747768 -259.852045 
L 222.662054 -259.809295 
L 215.576339 -259.488673 
L 208.490625 -256.346578 
L 201.404911 -255.448836 
L 194.319196 -255.170964 
L 187.233482 -250.16926 
L 180.147768 -242.388832 
L 173.062054 -231.316685 
L 165.976339 -231.316685 
L 158.890625 -227.64022 
L 151.804911 -221.954522 
L 144.719196 -200.921718 
L 137.633482 -203.684946 
L 130.547768 -198.987299 
L 123.462054 -195.524581 
L 116.376339 -186.921223 
L 109.290625 -173.241351 
L 102.204911 -169.126701 
L 95.119196 -154.634586 
L 88.033482 -146.608348 
L 80.947768 -137.908804 
L 73.862054 -128.119145 
L 66.776339 -113.210221 
L 59.690625 -49.65225 
z
" style="stroke: #98df8a; stroke-opacity: 0.2"/>
    </defs>
    <g clip-path="url(#p60ea782fc1)">
     <use xlink:href="#m645de61ff3" x="0" y="325.986375" style="fill: #98df8a; fill-opacity: 0.2; stroke: #98df8a; stroke-opacity: 0.2"/>
    </g>
   </g>
   <g id="PolyCollection_2">
    <defs>
     <path id="m07cdff2687" d="M 59.690625 -49.65225 
L 59.690625 -49.65225 
L 66.776339 -107.011529 
L 73.862054 -116.085132 
L 80.947768 -121.899078 
L 88.033482 -128.204644 
L 95.119196 -136.583566 
L 102.204911 -142.65401 
L 109.290625 -148.745828 
L 116.376339 -153.811656 
L 123.462054 -156.654505 
L 130.547768 -160.266846 
L 137.633482 -166.647224 
L 144.719196 -175.389518 
L 151.804911 -180.476721 
L 158.890625 -184.057 
L 165.976339 -189.771019 
L 173.062054 -191.997739 
L 180.147768 -194.990211 
L 187.233482 -197.875809 
L 194.319196 -203.91419 
L 201.404911 -204.51883 
L 208.490625 -204.940181 
L 215.576339 -206.607415 
L 222.662054 -205.506613 
L 229.747768 -215.969578 
L 236.833482 -220.291029 
L 243.919196 -223.942379 
L 251.004911 -227.469221 
L 258.090625 -228.559336 
L 265.176339 -231.316685 
L 272.262054 -235.602333 
L 279.347768 -236.76726 
L 286.433482 -237.483316 
L 293.519196 -238.32762 
L 300.604911 -242.025461 
L 307.690625 -240.294102 
L 314.776339 -240.978096 
L 321.862054 -244.462188 
L 328.947768 -245.534669 
L 336.033482 -246.642418 
L 343.119196 -247.240912 
L 350.204911 -248.651649 
L 357.290625 -248.758523 
L 364.376339 -249.660807 
L 371.462054 -251.002877 
L 378.547768 -250.639506 
L 385.633482 -252.413614 
L 392.719196 -253.054858 
L 399.804911 -253.054858 
L 406.890625 -253.054858 
L 413.976339 -254.251847 
L 421.062054 -254.422846 
L 428.147768 -255.277838 
L 435.233482 -256.852626 
L 442.319196 -257.436692 
L 449.404911 -258.120686 
L 456.490625 -258.697806 
L 463.576339 -259.862732 
L 470.662054 -261.380076 
L 477.747768 -261.465843 
L 484.833482 -262.897954 
L 491.919196 -264.960623 
L 499.004911 -264.533126 
L 506.090625 -265.323994 
L 513.176339 -264.981997 
L 520.262054 -266.492394 
L 527.347768 -265.591179 
L 534.433482 -267.290476 
L 541.519196 -267.290476 
L 548.604911 -267.525599 
L 555.690625 -268.530214 
L 562.776339 -268.850836 
L 569.862054 -268.914961 
L 576.947768 -269.214208 
L 584.033482 -270.02645 
L 591.119196 -270.624945 
L 598.204911 -270.656205 
L 605.290625 -270.731819 
L 612.376339 -270.84938 
L 619.462054 -271.105878 
L 626.547768 -273.232671 
L 633.633482 -273.467793 
L 640.719196 -273.448022 
L 647.804911 -273.467793 
L 654.890625 -273.467793 
L 661.976339 -273.467793 
L 669.062054 -273.467793 
L 676.147768 -273.724291 
L 683.233482 -273.831165 
L 690.319196 -273.895289 
L 697.404911 -273.895289 
L 704.490625 -273.895289 
L 711.576339 -273.868037 
L 718.662054 -273.869372 
L 725.747768 -273.895289 
L 732.833482 -274.365535 
L 739.919196 -274.365535 
L 739.919196 -289.263771 
L 739.919196 -289.263771 
L 732.833482 -288.088157 
L 725.747768 -288.088157 
L 718.662054 -288.451529 
L 711.576339 -288.045408 
L 704.490625 -287.682036 
L 697.404911 -287.682036 
L 690.319196 -287.596537 
L 683.233482 -287.596537 
L 676.147768 -288.045408 
L 669.062054 -287.382789 
L 661.976339 -286.805669 
L 654.890625 -286.805669 
L 647.804911 -286.378173 
L 640.719196 -286.249925 
L 633.633482 -286.76292 
L 626.547768 -285.60868 
L 619.462054 -285.309433 
L 612.376339 -284.09107 
L 605.290625 -283.984196 
L 598.204911 -285.149122 
L 591.119196 -283.535325 
L 584.033482 -283.535325 
L 576.947768 -284.903312 
L 569.862054 -284.037633 
L 562.776339 -283.236078 
L 555.690625 -283.813197 
L 548.604911 -283.631511 
L 541.519196 -282.894081 
L 534.433482 -283.332264 
L 527.347768 -283.888009 
L 520.262054 -282.687012 
L 513.176339 -282.40246 
L 506.090625 -282.139016 
L 499.004911 -281.932215 
L 491.919196 -281.714993 
L 484.833482 -280.515333 
L 477.747768 -279.77336 
L 470.662054 -279.209065 
L 463.576339 -278.212999 
L 456.490625 -278.051085 
L 449.404911 -276.994636 
L 442.319196 -276.03277 
L 435.233482 -275.295339 
L 428.147768 -275.070903 
L 421.062054 -274.152054 
L 413.976339 -273.638792 
L 406.890625 -273.382294 
L 399.804911 -272.890674 
L 392.719196 -271.886058 
L 385.633482 -269.192833 
L 378.547768 -268.295091 
L 371.462054 -268.209592 
L 364.376339 -266.018675 
L 357.290625 -265.110246 
L 350.204911 -264.896498 
L 343.119196 -264.577746 
L 336.033482 -264.575876 
L 328.947768 -261.797152 
L 321.862054 -258.911554 
L 314.776339 -258.676431 
L 307.690625 -257.885563 
L 300.604911 -256.037445 
L 293.519196 -254.341621 
L 286.433482 -253.364793 
L 279.347768 -250.596756 
L 272.262054 -250.318884 
L 265.176339 -248.589128 
L 258.090625 -248.021093 
L 251.004911 -243.515819 
L 243.919196 -242.787205 
L 236.833482 -245.07137 
L 229.747768 -241.255968 
L 222.662054 -241.020845 
L 215.576339 -238.316933 
L 208.490625 -232.396113 
L 201.404911 -229.468299 
L 194.319196 -231.786931 
L 187.233482 -225.866111 
L 180.147768 -225.673738 
L 173.062054 -225.673738 
L 165.976339 -227.832593 
L 158.890625 -222.659891 
L 151.804911 -214.15272 
L 144.719196 -205.538675 
L 137.633482 -201.498838 
L 130.547768 -194.968836 
L 123.462054 -185.328801 
L 116.376339 -176.949879 
L 109.290625 -173.305475 
L 102.204911 -170.932872 
L 95.119196 -159.604227 
L 88.033482 -148.916827 
L 80.947768 -136.049196 
L 73.862054 -125.383171 
L 66.776339 -114.011776 
L 59.690625 -49.65225 
z
" style="stroke: #1f77b4; stroke-opacity: 0.2"/>
    </defs>
    <g clip-path="url(#p60ea782fc1)">
     <use xlink:href="#m07cdff2687" x="0" y="325.986375" style="fill: #1f77b4; fill-opacity: 0.2; stroke: #1f77b4; stroke-opacity: 0.2"/>
    </g>
   </g>
   <g id="matplotlib.axis_1">
    <g id="xtick_1">
     <g id="line2d_1">
      <defs>
       <path id="ma4a0bc5c63" d="M 0 0 
L 0 3.5 
" style="stroke: #000000; stroke-width: 0.8"/>
      </defs>
      <g>
       <use xlink:href="#ma4a0bc5c63" x="59.690625" y="288.430125" style="stroke: #000000; stroke-width: 0.8"/>
      </g>
     </g>
     <g id="text_1">
      <!-- 0m -->
      <g transform="translate(51.639063 303.028562) scale(0.1 -0.1)">
       <defs>
        <path id="DejaVuSans-30" d="M 2034 4250 
Q 1547 4250 1301 3770 
Q 1056 3291 1056 2328 
Q 1056 1369 1301 889 
Q 1547 409 2034 409 
Q 2525 409 2770 889 
Q 3016 1369 3016 2328 
Q 3016 3291 2770 3770 
Q 2525 4250 2034 4250 
z
M 2034 4750 
Q 2819 4750 3233 4129 
Q 3647 3509 3647 2328 
Q 3647 1150 3233 529 
Q 2819 -91 2034 -91 
Q 1250 -91 836 529 
Q 422 1150 422 2328 
Q 422 3509 836 4129 
Q 1250 4750 2034 4750 
z
" transform="scale(0.015625)"/>
        <path id="DejaVuSans-6d" d="M 3328 2828 
Q 3544 3216 3844 3400 
Q 4144 3584 4550 3584 
Q 5097 3584 5394 3201 
Q 5691 2819 5691 2113 
L 5691 0 
L 5113 0 
L 5113 2094 
Q 5113 2597 4934 2840 
Q 4756 3084 4391 3084 
Q 3944 3084 3684 2787 
Q 3425 2491 3425 1978 
L 3425 0 
L 2847 0 
L 2847 2094 
Q 2847 2600 2669 2842 
Q 2491 3084 2119 3084 
Q 1678 3084 1418 2786 
Q 1159 2488 1159 1978 
L 1159 0 
L 581 0 
L 581 3500 
L 1159 3500 
L 1159 2956 
Q 1356 3278 1631 3431 
Q 1906 3584 2284 3584 
Q 2666 3584 2933 3390 
Q 3200 3197 3328 2828 
z
" transform="scale(0.015625)"/>
       </defs>
       <use xlink:href="#DejaVuSans-30"/>
       <use xlink:href="#DejaVuSans-6d" x="63.623047"/>
      </g>
     </g>
    </g>
    <g id="xtick_2">
     <g id="line2d_2">
      <g>
       <use xlink:href="#ma4a0bc5c63" x="116.376339" y="288.430125" style="stroke: #000000; stroke-width: 0.8"/>
      </g>
     </g>
     <g id="text_2">
      <!-- 2h -->
      <g transform="translate(110.026339 303.028562) scale(0.1 -0.1)">
       <defs>
        <path id="DejaVuSans-32" d="M 1228 531 
L 3431 531 
L 3431 0 
L 469 0 
L 469 531 
Q 828 903 1448 1529 
Q 2069 2156 2228 2338 
Q 2531 2678 2651 2914 
Q 2772 3150 2772 3378 
Q 2772 3750 2511 3984 
Q 2250 4219 1831 4219 
Q 1534 4219 1204 4116 
Q 875 4013 500 3803 
L 500 4441 
Q 881 4594 1212 4672 
Q 1544 4750 1819 4750 
Q 2544 4750 2975 4387 
Q 3406 4025 3406 3419 
Q 3406 3131 3298 2873 
Q 3191 2616 2906 2266 
Q 2828 2175 2409 1742 
Q 1991 1309 1228 531 
z
" transform="scale(0.015625)"/>
        <path id="DejaVuSans-68" d="M 3513 2113 
L 3513 0 
L 2938 0 
L 2938 2094 
Q 2938 2591 2744 2837 
Q 2550 3084 2163 3084 
Q 1697 3084 1428 2787 
Q 1159 2491 1159 1978 
L 1159 0 
L 581 0 
L 581 4863 
L 1159 4863 
L 1159 2956 
Q 1366 3272 1645 3428 
Q 1925 3584 2291 3584 
Q 2894 3584 3203 3211 
Q 3513 2838 3513 2113 
z
" transform="scale(0.015625)"/>
       </defs>
       <use xlink:href="#DejaVuSans-32"/>
       <use xlink:href="#DejaVuSans-68" x="63.623047"/>
      </g>
     </g>
    </g>
    <g id="xtick_3">
     <g id="line2d_3">
      <g>
       <use xlink:href="#ma4a0bc5c63" x="173.062054" y="288.430125" style="stroke: #000000; stroke-width: 0.8"/>
      </g>
     </g>
     <g id="text_3">
      <!-- 4h -->
      <g transform="translate(166.712054 303.028562) scale(0.1 -0.1)">
       <defs>
        <path id="DejaVuSans-34" d="M 2419 4116 
L 825 1625 
L 2419 1625 
L 2419 4116 
z
M 2253 4666 
L 3047 4666 
L 3047 1625 
L 3713 1625 
L 3713 1100 
L 3047 1100 
L 3047 0 
L 2419 0 
L 2419 1100 
L 313 1100 
L 313 1709 
L 2253 4666 
z
" transform="scale(0.015625)"/>
       </defs>
       <use xlink:href="#DejaVuSans-34"/>
       <use xlink:href="#DejaVuSans-68" x="63.623047"/>
      </g>
     </g>
    </g>
    <g id="xtick_4">
     <g id="line2d_4">
      <g>
       <use xlink:href="#ma4a0bc5c63" x="229.747768" y="288.430125" style="stroke: #000000; stroke-width: 0.8"/>
      </g>
     </g>
     <g id="text_4">
      <!-- 6h -->
      <g transform="translate(223.397768 303.028562) scale(0.1 -0.1)">
       <defs>
        <path id="DejaVuSans-36" d="M 2113 2584 
Q 1688 2584 1439 2293 
Q 1191 2003 1191 1497 
Q 1191 994 1439 701 
Q 1688 409 2113 409 
Q 2538 409 2786 701 
Q 3034 994 3034 1497 
Q 3034 2003 2786 2293 
Q 2538 2584 2113 2584 
z
M 3366 4563 
L 3366 3988 
Q 3128 4100 2886 4159 
Q 2644 4219 2406 4219 
Q 1781 4219 1451 3797 
Q 1122 3375 1075 2522 
Q 1259 2794 1537 2939 
Q 1816 3084 2150 3084 
Q 2853 3084 3261 2657 
Q 3669 2231 3669 1497 
Q 3669 778 3244 343 
Q 2819 -91 2113 -91 
Q 1303 -91 875 529 
Q 447 1150 447 2328 
Q 447 3434 972 4092 
Q 1497 4750 2381 4750 
Q 2619 4750 2861 4703 
Q 3103 4656 3366 4563 
z
" transform="scale(0.015625)"/>
       </defs>
       <use xlink:href="#DejaVuSans-36"/>
       <use xlink:href="#DejaVuSans-68" x="63.623047"/>
      </g>
     </g>
    </g>
    <g id="xtick_5">
     <g id="line2d_5">
      <g>
       <use xlink:href="#ma4a0bc5c63" x="286.433482" y="288.430125" style="stroke: #000000; stroke-width: 0.8"/>
      </g>
     </g>
     <g id="text_5">
      <!-- 8h -->
      <g transform="translate(280.083482 303.028562) scale(0.1 -0.1)">
       <defs>
        <path id="DejaVuSans-38" d="M 2034 2216 
Q 1584 2216 1326 1975 
Q 1069 1734 1069 1313 
Q 1069 891 1326 650 
Q 1584 409 2034 409 
Q 2484 409 2743 651 
Q 3003 894 3003 1313 
Q 3003 1734 2745 1975 
Q 2488 2216 2034 2216 
z
M 1403 2484 
Q 997 2584 770 2862 
Q 544 3141 544 3541 
Q 544 4100 942 4425 
Q 1341 4750 2034 4750 
Q 2731 4750 3128 4425 
Q 3525 4100 3525 3541 
Q 3525 3141 3298 2862 
Q 3072 2584 2669 2484 
Q 3125 2378 3379 2068 
Q 3634 1759 3634 1313 
Q 3634 634 3220 271 
Q 2806 -91 2034 -91 
Q 1263 -91 848 271 
Q 434 634 434 1313 
Q 434 1759 690 2068 
Q 947 2378 1403 2484 
z
M 1172 3481 
Q 1172 3119 1398 2916 
Q 1625 2713 2034 2713 
Q 2441 2713 2670 2916 
Q 2900 3119 2900 3481 
Q 2900 3844 2670 4047 
Q 2441 4250 2034 4250 
Q 1625 4250 1398 4047 
Q 1172 3844 1172 3481 
z
" transform="scale(0.015625)"/>
       </defs>
       <use xlink:href="#DejaVuSans-38"/>
       <use xlink:href="#DejaVuSans-68" x="63.623047"/>
      </g>
     </g>
    </g>
    <g id="xtick_6">
     <g id="line2d_6">
      <g>
       <use xlink:href="#ma4a0bc5c63" x="343.119196" y="288.430125" style="stroke: #000000; stroke-width: 0.8"/>
      </g>
     </g>
     <g id="text_6">
      <!-- 10h -->
      <g transform="translate(333.587946 303.028562) scale(0.1 -0.1)">
       <defs>
        <path id="DejaVuSans-31" d="M 794 531 
L 1825 531 
L 1825 4091 
L 703 3866 
L 703 4441 
L 1819 4666 
L 2450 4666 
L 2450 531 
L 3481 531 
L 3481 0 
L 794 0 
L 794 531 
z
" transform="scale(0.015625)"/>
       </defs>
       <use xlink:href="#DejaVuSans-31"/>
       <use xlink:href="#DejaVuSans-30" x="63.623047"/>
       <use xlink:href="#DejaVuSans-68" x="127.246094"/>
      </g>
     </g>
    </g>
    <g id="xtick_7">
     <g id="line2d_7">
      <g>
       <use xlink:href="#ma4a0bc5c63" x="399.804911" y="288.430125" style="stroke: #000000; stroke-width: 0.8"/>
      </g>
     </g>
     <g id="text_7">
      <!-- 12h -->
      <g transform="translate(390.273661 303.028562) scale(0.1 -0.1)">
       <use xlink:href="#DejaVuSans-31"/>
       <use xlink:href="#DejaVuSans-32" x="63.623047"/>
       <use xlink:href="#DejaVuSans-68" x="127.246094"/>
      </g>
     </g>
    </g>
    <g id="xtick_8">
     <g id="line2d_8">
      <g>
       <use xlink:href="#ma4a0bc5c63" x="456.490625" y="288.430125" style="stroke: #000000; stroke-width: 0.8"/>
      </g>
     </g>
     <g id="text_8">
      <!-- 14h -->
      <g transform="translate(446.959375 303.028562) scale(0.1 -0.1)">
       <use xlink:href="#DejaVuSans-31"/>
       <use xlink:href="#DejaVuSans-34" x="63.623047"/>
       <use xlink:href="#DejaVuSans-68" x="127.246094"/>
      </g>
     </g>
    </g>
    <g id="xtick_9">
     <g id="line2d_9">
      <g>
       <use xlink:href="#ma4a0bc5c63" x="513.176339" y="288.430125" style="stroke: #000000; stroke-width: 0.8"/>
      </g>
     </g>
     <g id="text_9">
      <!-- 16h -->
      <g transform="translate(503.645089 303.028562) scale(0.1 -0.1)">
       <use xlink:href="#DejaVuSans-31"/>
       <use xlink:href="#DejaVuSans-36" x="63.623047"/>
       <use xlink:href="#DejaVuSans-68" x="127.246094"/>
      </g>
     </g>
    </g>
    <g id="xtick_10">
     <g id="line2d_10">
      <g>
       <use xlink:href="#ma4a0bc5c63" x="569.862054" y="288.430125" style="stroke: #000000; stroke-width: 0.8"/>
      </g>
     </g>
     <g id="text_10">
      <!-- 18h -->
      <g transform="translate(560.330804 303.028562) scale(0.1 -0.1)">
       <use xlink:href="#DejaVuSans-31"/>
       <use xlink:href="#DejaVuSans-38" x="63.623047"/>
       <use xlink:href="#DejaVuSans-68" x="127.246094"/>
      </g>
     </g>
    </g>
    <g id="xtick_11">
     <g id="line2d_11">
      <g>
       <use xlink:href="#ma4a0bc5c63" x="626.547768" y="288.430125" style="stroke: #000000; stroke-width: 0.8"/>
      </g>
     </g>
     <g id="text_11">
      <!-- 20h -->
      <g transform="translate(617.016518 303.028562) scale(0.1 -0.1)">
       <use xlink:href="#DejaVuSans-32"/>
       <use xlink:href="#DejaVuSans-30" x="63.623047"/>
       <use xlink:href="#DejaVuSans-68" x="127.246094"/>
      </g>
     </g>
    </g>
    <g id="xtick_12">
     <g id="line2d_12">
      <g>
       <use xlink:href="#ma4a0bc5c63" x="683.233482" y="288.430125" style="stroke: #000000; stroke-width: 0.8"/>
      </g>
     </g>
     <g id="text_12">
      <!-- 22h -->
      <g transform="translate(673.702232 303.028562) scale(0.1 -0.1)">
       <use xlink:href="#DejaVuSans-32"/>
       <use xlink:href="#DejaVuSans-32" x="63.623047"/>
       <use xlink:href="#DejaVuSans-68" x="127.246094"/>
      </g>
     </g>
    </g>
    <g id="xtick_13">
     <g id="line2d_13">
      <g>
       <use xlink:href="#ma4a0bc5c63" x="739.919196" y="288.430125" style="stroke: #000000; stroke-width: 0.8"/>
      </g>
     </g>
     <g id="text_13">
      <!-- 24h -->
      <g transform="translate(730.387946 303.028562) scale(0.1 -0.1)">
       <use xlink:href="#DejaVuSans-32"/>
       <use xlink:href="#DejaVuSans-34" x="63.623047"/>
       <use xlink:href="#DejaVuSans-68" x="127.246094"/>
      </g>
     </g>
    </g>
    <g id="text_14">
     <!-- Time (hour:minute) -->
     <g transform="translate(368.403594 316.706687) scale(0.1 -0.1)">
      <defs>
       <path id="DejaVuSans-54" d="M -19 4666 
L 3928 4666 
L 3928 4134 
L 2272 4134 
L 2272 0 
L 1638 0 
L 1638 4134 
L -19 4134 
L -19 4666 
z
" transform="scale(0.015625)"/>
       <path id="DejaVuSans-69" d="M 603 3500 
L 1178 3500 
L 1178 0 
L 603 0 
L 603 3500 
z
M 603 4863 
L 1178 4863 
L 1178 4134 
L 603 4134 
L 603 4863 
z
" transform="scale(0.015625)"/>
       <path id="DejaVuSans-65" d="M 3597 1894 
L 3597 1613 
L 953 1613 
Q 991 1019 1311 708 
Q 1631 397 2203 397 
Q 2534 397 2845 478 
Q 3156 559 3463 722 
L 3463 178 
Q 3153 47 2828 -22 
Q 2503 -91 2169 -91 
Q 1331 -91 842 396 
Q 353 884 353 1716 
Q 353 2575 817 3079 
Q 1281 3584 2069 3584 
Q 2775 3584 3186 3129 
Q 3597 2675 3597 1894 
z
M 3022 2063 
Q 3016 2534 2758 2815 
Q 2500 3097 2075 3097 
Q 1594 3097 1305 2825 
Q 1016 2553 972 2059 
L 3022 2063 
z
" transform="scale(0.015625)"/>
       <path id="DejaVuSans-20" transform="scale(0.015625)"/>
       <path id="DejaVuSans-28" d="M 1984 4856 
Q 1566 4138 1362 3434 
Q 1159 2731 1159 2009 
Q 1159 1288 1364 580 
Q 1569 -128 1984 -844 
L 1484 -844 
Q 1016 -109 783 600 
Q 550 1309 550 2009 
Q 550 2706 781 3412 
Q 1013 4119 1484 4856 
L 1984 4856 
z
" transform="scale(0.015625)"/>
       <path id="DejaVuSans-6f" d="M 1959 3097 
Q 1497 3097 1228 2736 
Q 959 2375 959 1747 
Q 959 1119 1226 758 
Q 1494 397 1959 397 
Q 2419 397 2687 759 
Q 2956 1122 2956 1747 
Q 2956 2369 2687 2733 
Q 2419 3097 1959 3097 
z
M 1959 3584 
Q 2709 3584 3137 3096 
Q 3566 2609 3566 1747 
Q 3566 888 3137 398 
Q 2709 -91 1959 -91 
Q 1206 -91 779 398 
Q 353 888 353 1747 
Q 353 2609 779 3096 
Q 1206 3584 1959 3584 
z
" transform="scale(0.015625)"/>
       <path id="DejaVuSans-75" d="M 544 1381 
L 544 3500 
L 1119 3500 
L 1119 1403 
Q 1119 906 1312 657 
Q 1506 409 1894 409 
Q 2359 409 2629 706 
Q 2900 1003 2900 1516 
L 2900 3500 
L 3475 3500 
L 3475 0 
L 2900 0 
L 2900 538 
Q 2691 219 2414 64 
Q 2138 -91 1772 -91 
Q 1169 -91 856 284 
Q 544 659 544 1381 
z
M 1991 3584 
L 1991 3584 
z
" transform="scale(0.015625)"/>
       <path id="DejaVuSans-72" d="M 2631 2963 
Q 2534 3019 2420 3045 
Q 2306 3072 2169 3072 
Q 1681 3072 1420 2755 
Q 1159 2438 1159 1844 
L 1159 0 
L 581 0 
L 581 3500 
L 1159 3500 
L 1159 2956 
Q 1341 3275 1631 3429 
Q 1922 3584 2338 3584 
Q 2397 3584 2469 3576 
Q 2541 3569 2628 3553 
L 2631 2963 
z
" transform="scale(0.015625)"/>
       <path id="DejaVuSans-3a" d="M 750 794 
L 1409 794 
L 1409 0 
L 750 0 
L 750 794 
z
M 750 3309 
L 1409 3309 
L 1409 2516 
L 750 2516 
L 750 3309 
z
" transform="scale(0.015625)"/>
       <path id="DejaVuSans-6e" d="M 3513 2113 
L 3513 0 
L 2938 0 
L 2938 2094 
Q 2938 2591 2744 2837 
Q 2550 3084 2163 3084 
Q 1697 3084 1428 2787 
Q 1159 2491 1159 1978 
L 1159 0 
L 581 0 
L 581 3500 
L 1159 3500 
L 1159 2956 
Q 1366 3272 1645 3428 
Q 1925 3584 2291 3584 
Q 2894 3584 3203 3211 
Q 3513 2838 3513 2113 
z
" transform="scale(0.015625)"/>
       <path id="DejaVuSans-74" d="M 1172 4494 
L 1172 3500 
L 2356 3500 
L 2356 3053 
L 1172 3053 
L 1172 1153 
Q 1172 725 1289 603 
Q 1406 481 1766 481 
L 2356 481 
L 2356 0 
L 1766 0 
Q 1100 0 847 248 
Q 594 497 594 1153 
L 594 3053 
L 172 3053 
L 172 3500 
L 594 3500 
L 594 4494 
L 1172 4494 
z
" transform="scale(0.015625)"/>
       <path id="DejaVuSans-29" d="M 513 4856 
L 1013 4856 
Q 1481 4119 1714 3412 
Q 1947 2706 1947 2009 
Q 1947 1309 1714 600 
Q 1481 -109 1013 -844 
L 513 -844 
Q 928 -128 1133 580 
Q 1338 1288 1338 2009 
Q 1338 2731 1133 3434 
Q 928 4138 513 4856 
z
" transform="scale(0.015625)"/>
      </defs>
      <use xlink:href="#DejaVuSans-54"/>
      <use xlink:href="#DejaVuSans-69" x="57.958984"/>
      <use xlink:href="#DejaVuSans-6d" x="85.742188"/>
      <use xlink:href="#DejaVuSans-65" x="183.154297"/>
      <use xlink:href="#DejaVuSans-20" x="244.677734"/>
      <use xlink:href="#DejaVuSans-28" x="276.464844"/>
      <use xlink:href="#DejaVuSans-68" x="315.478516"/>
      <use xlink:href="#DejaVuSans-6f" x="378.857422"/>
      <use xlink:href="#DejaVuSans-75" x="440.039062"/>
      <use xlink:href="#DejaVuSans-72" x="503.417969"/>
      <use xlink:href="#DejaVuSans-3a" x="542.78125"/>
      <use xlink:href="#DejaVuSans-6d" x="576.472656"/>
      <use xlink:href="#DejaVuSans-69" x="673.884766"/>
      <use xlink:href="#DejaVuSans-6e" x="701.667969"/>
      <use xlink:href="#DejaVuSans-75" x="765.046875"/>
      <use xlink:href="#DejaVuSans-74" x="828.425781"/>
      <use xlink:href="#DejaVuSans-65" x="867.634766"/>
      <use xlink:href="#DejaVuSans-29" x="929.158203"/>
     </g>
    </g>
   </g>
   <g id="matplotlib.axis_2">
    <g id="ytick_1">
     <g id="line2d_14">
      <defs>
       <path id="m739afe3302" d="M 0 0 
L -3.5 0 
" style="stroke: #000000; stroke-width: 0.8"/>
      </defs>
      <g>
       <use xlink:href="#m739afe3302" x="59.690625" y="271.182798" style="stroke: #000000; stroke-width: 0.8"/>
      </g>
     </g>
     <g id="text_15">
      <!-- 8000 -->
      <g transform="translate(27.240625 274.982017) scale(0.1 -0.1)">
       <use xlink:href="#DejaVuSans-38"/>
       <use xlink:href="#DejaVuSans-30" x="63.623047"/>
       <use xlink:href="#DejaVuSans-30" x="127.246094"/>
       <use xlink:href="#DejaVuSans-30" x="190.869141"/>
      </g>
     </g>
    </g>
    <g id="ytick_2">
     <g id="line2d_15">
      <g>
       <use xlink:href="#m739afe3302" x="59.690625" y="228.433196" style="stroke: #000000; stroke-width: 0.8"/>
      </g>
     </g>
     <g id="text_16">
      <!-- 10000 -->
      <g transform="translate(20.878125 232.232414) scale(0.1 -0.1)">
       <use xlink:href="#DejaVuSans-31"/>
       <use xlink:href="#DejaVuSans-30" x="63.623047"/>
       <use xlink:href="#DejaVuSans-30" x="127.246094"/>
       <use xlink:href="#DejaVuSans-30" x="190.869141"/>
       <use xlink:href="#DejaVuSans-30" x="254.492188"/>
      </g>
     </g>
    </g>
    <g id="ytick_3">
     <g id="line2d_16">
      <g>
       <use xlink:href="#m739afe3302" x="59.690625" y="185.683593" style="stroke: #000000; stroke-width: 0.8"/>
      </g>
     </g>
     <g id="text_17">
      <!-- 12000 -->
      <g transform="translate(20.878125 189.482812) scale(0.1 -0.1)">
       <use xlink:href="#DejaVuSans-31"/>
       <use xlink:href="#DejaVuSans-32" x="63.623047"/>
       <use xlink:href="#DejaVuSans-30" x="127.246094"/>
       <use xlink:href="#DejaVuSans-30" x="190.869141"/>
       <use xlink:href="#DejaVuSans-30" x="254.492188"/>
      </g>
     </g>
    </g>
    <g id="ytick_4">
     <g id="line2d_17">
      <g>
       <use xlink:href="#m739afe3302" x="59.690625" y="142.933991" style="stroke: #000000; stroke-width: 0.8"/>
      </g>
     </g>
     <g id="text_18">
      <!-- 14000 -->
      <g transform="translate(20.878125 146.733209) scale(0.1 -0.1)">
       <use xlink:href="#DejaVuSans-31"/>
       <use xlink:href="#DejaVuSans-34" x="63.623047"/>
       <use xlink:href="#DejaVuSans-30" x="127.246094"/>
       <use xlink:href="#DejaVuSans-30" x="190.869141"/>
       <use xlink:href="#DejaVuSans-30" x="254.492188"/>
      </g>
     </g>
    </g>
    <g id="ytick_5">
     <g id="line2d_18">
      <g>
       <use xlink:href="#m739afe3302" x="59.690625" y="100.184388" style="stroke: #000000; stroke-width: 0.8"/>
      </g>
     </g>
     <g id="text_19">
      <!-- 16000 -->
      <g transform="translate(20.878125 103.983607) scale(0.1 -0.1)">
       <use xlink:href="#DejaVuSans-31"/>
       <use xlink:href="#DejaVuSans-36" x="63.623047"/>
       <use xlink:href="#DejaVuSans-30" x="127.246094"/>
       <use xlink:href="#DejaVuSans-30" x="190.869141"/>
       <use xlink:href="#DejaVuSans-30" x="254.492188"/>
      </g>
     </g>
    </g>
    <g id="ytick_6">
     <g id="line2d_19">
      <g>
       <use xlink:href="#m739afe3302" x="59.690625" y="57.434786" style="stroke: #000000; stroke-width: 0.8"/>
      </g>
     </g>
     <g id="text_20">
      <!-- 18000 -->
      <g transform="translate(20.878125 61.234005) scale(0.1 -0.1)">
       <use xlink:href="#DejaVuSans-31"/>
       <use xlink:href="#DejaVuSans-38" x="63.623047"/>
       <use xlink:href="#DejaVuSans-30" x="127.246094"/>
       <use xlink:href="#DejaVuSans-30" x="190.869141"/>
       <use xlink:href="#DejaVuSans-30" x="254.492188"/>
      </g>
     </g>
    </g>
    <g id="text_21">
     <!-- Code branch coverage -->
     <g transform="translate(14.798438 211.949125) rotate(-90) scale(0.1 -0.1)">
      <defs>
       <path id="DejaVuSans-43" d="M 4122 4306 
L 4122 3641 
Q 3803 3938 3442 4084 
Q 3081 4231 2675 4231 
Q 1875 4231 1450 3742 
Q 1025 3253 1025 2328 
Q 1025 1406 1450 917 
Q 1875 428 2675 428 
Q 3081 428 3442 575 
Q 3803 722 4122 1019 
L 4122 359 
Q 3791 134 3420 21 
Q 3050 -91 2638 -91 
Q 1578 -91 968 557 
Q 359 1206 359 2328 
Q 359 3453 968 4101 
Q 1578 4750 2638 4750 
Q 3056 4750 3426 4639 
Q 3797 4528 4122 4306 
z
" transform="scale(0.015625)"/>
       <path id="DejaVuSans-64" d="M 2906 2969 
L 2906 4863 
L 3481 4863 
L 3481 0 
L 2906 0 
L 2906 525 
Q 2725 213 2448 61 
Q 2172 -91 1784 -91 
Q 1150 -91 751 415 
Q 353 922 353 1747 
Q 353 2572 751 3078 
Q 1150 3584 1784 3584 
Q 2172 3584 2448 3432 
Q 2725 3281 2906 2969 
z
M 947 1747 
Q 947 1113 1208 752 
Q 1469 391 1925 391 
Q 2381 391 2643 752 
Q 2906 1113 2906 1747 
Q 2906 2381 2643 2742 
Q 2381 3103 1925 3103 
Q 1469 3103 1208 2742 
Q 947 2381 947 1747 
z
" transform="scale(0.015625)"/>
       <path id="DejaVuSans-62" d="M 3116 1747 
Q 3116 2381 2855 2742 
Q 2594 3103 2138 3103 
Q 1681 3103 1420 2742 
Q 1159 2381 1159 1747 
Q 1159 1113 1420 752 
Q 1681 391 2138 391 
Q 2594 391 2855 752 
Q 3116 1113 3116 1747 
z
M 1159 2969 
Q 1341 3281 1617 3432 
Q 1894 3584 2278 3584 
Q 2916 3584 3314 3078 
Q 3713 2572 3713 1747 
Q 3713 922 3314 415 
Q 2916 -91 2278 -91 
Q 1894 -91 1617 61 
Q 1341 213 1159 525 
L 1159 0 
L 581 0 
L 581 4863 
L 1159 4863 
L 1159 2969 
z
" transform="scale(0.015625)"/>
       <path id="DejaVuSans-61" d="M 2194 1759 
Q 1497 1759 1228 1600 
Q 959 1441 959 1056 
Q 959 750 1161 570 
Q 1363 391 1709 391 
Q 2188 391 2477 730 
Q 2766 1069 2766 1631 
L 2766 1759 
L 2194 1759 
z
M 3341 1997 
L 3341 0 
L 2766 0 
L 2766 531 
Q 2569 213 2275 61 
Q 1981 -91 1556 -91 
Q 1019 -91 701 211 
Q 384 513 384 1019 
Q 384 1609 779 1909 
Q 1175 2209 1959 2209 
L 2766 2209 
L 2766 2266 
Q 2766 2663 2505 2880 
Q 2244 3097 1772 3097 
Q 1472 3097 1187 3025 
Q 903 2953 641 2809 
L 641 3341 
Q 956 3463 1253 3523 
Q 1550 3584 1831 3584 
Q 2591 3584 2966 3190 
Q 3341 2797 3341 1997 
z
" transform="scale(0.015625)"/>
       <path id="DejaVuSans-63" d="M 3122 3366 
L 3122 2828 
Q 2878 2963 2633 3030 
Q 2388 3097 2138 3097 
Q 1578 3097 1268 2742 
Q 959 2388 959 1747 
Q 959 1106 1268 751 
Q 1578 397 2138 397 
Q 2388 397 2633 464 
Q 2878 531 3122 666 
L 3122 134 
Q 2881 22 2623 -34 
Q 2366 -91 2075 -91 
Q 1284 -91 818 406 
Q 353 903 353 1747 
Q 353 2603 823 3093 
Q 1294 3584 2113 3584 
Q 2378 3584 2631 3529 
Q 2884 3475 3122 3366 
z
" transform="scale(0.015625)"/>
       <path id="DejaVuSans-76" d="M 191 3500 
L 800 3500 
L 1894 563 
L 2988 3500 
L 3597 3500 
L 2284 0 
L 1503 0 
L 191 3500 
z
" transform="scale(0.015625)"/>
       <path id="DejaVuSans-67" d="M 2906 1791 
Q 2906 2416 2648 2759 
Q 2391 3103 1925 3103 
Q 1463 3103 1205 2759 
Q 947 2416 947 1791 
Q 947 1169 1205 825 
Q 1463 481 1925 481 
Q 2391 481 2648 825 
Q 2906 1169 2906 1791 
z
M 3481 434 
Q 3481 -459 3084 -895 
Q 2688 -1331 1869 -1331 
Q 1566 -1331 1297 -1286 
Q 1028 -1241 775 -1147 
L 775 -588 
Q 1028 -725 1275 -790 
Q 1522 -856 1778 -856 
Q 2344 -856 2625 -561 
Q 2906 -266 2906 331 
L 2906 616 
Q 2728 306 2450 153 
Q 2172 0 1784 0 
Q 1141 0 747 490 
Q 353 981 353 1791 
Q 353 2603 747 3093 
Q 1141 3584 1784 3584 
Q 2172 3584 2450 3431 
Q 2728 3278 2906 2969 
L 2906 3500 
L 3481 3500 
L 3481 434 
z
" transform="scale(0.015625)"/>
      </defs>
      <use xlink:href="#DejaVuSans-43"/>
      <use xlink:href="#DejaVuSans-6f" x="69.824219"/>
      <use xlink:href="#DejaVuSans-64" x="131.005859"/>
      <use xlink:href="#DejaVuSans-65" x="194.482422"/>
      <use xlink:href="#DejaVuSans-20" x="256.005859"/>
      <use xlink:href="#DejaVuSans-62" x="287.792969"/>
      <use xlink:href="#DejaVuSans-72" x="351.269531"/>
      <use xlink:href="#DejaVuSans-61" x="392.382812"/>
      <use xlink:href="#DejaVuSans-6e" x="453.662109"/>
      <use xlink:href="#DejaVuSans-63" x="517.041016"/>
      <use xlink:href="#DejaVuSans-68" x="572.021484"/>
      <use xlink:href="#DejaVuSans-20" x="635.400391"/>
      <use xlink:href="#DejaVuSans-63" x="667.1875"/>
      <use xlink:href="#DejaVuSans-6f" x="722.167969"/>
      <use xlink:href="#DejaVuSans-76" x="783.349609"/>
      <use xlink:href="#DejaVuSans-65" x="842.529297"/>
      <use xlink:href="#DejaVuSans-72" x="904.052734"/>
      <use xlink:href="#DejaVuSans-61" x="945.166016"/>
      <use xlink:href="#DejaVuSans-67" x="1006.445312"/>
      <use xlink:href="#DejaVuSans-65" x="1069.921875"/>
     </g>
    </g>
   </g>
   <g id="line2d_20">
    <path d="M 59.690625 276.334125 
L 66.776339 217.777857 
L 73.862054 207.48589 
L 80.947768 202.056691 
L 88.033482 194.532761 
L 95.119196 177.96729 
L 102.204911 173.371708 
L 109.290625 167.23714 
L 116.376339 160.24758 
L 123.462054 155.299313 
L 130.547768 148.416627 
L 137.633482 139.343024 
L 144.719196 133.326018 
L 151.804911 129.788488 
L 158.890625 126.625017 
L 165.976339 124.47685 
L 173.062054 108.520561 
L 180.147768 102.022621 
L 187.233482 98.036221 
L 194.319196 91.516906 
L 201.404911 88.780932 
L 208.490625 86.312142 
L 215.576339 83.779228 
L 222.662054 83.03111 
L 229.747768 81.641748 
L 236.833482 79.547018 
L 243.919196 77.997345 
L 251.004911 76.66142 
L 258.090625 75.678179 
L 265.176339 75.357557 
L 272.262054 74.962123 
L 279.347768 74.962123 
L 286.433482 74.940748 
L 293.519196 74.897998 
L 300.604911 74.000257 
L 307.690625 71.52078 
L 314.776339 70.291729 
L 321.862054 70.142105 
L 328.947768 69.768046 
L 336.033482 69.287113 
L 343.119196 66.946572 
L 350.204911 65.55721 
L 357.290625 65.033528 
L 364.376339 64.48847 
L 371.462054 63.590729 
L 378.547768 63.17392 
L 385.633482 60.99369 
L 392.719196 59.871513 
L 399.804911 59.112708 
L 406.890625 58.931022 
L 413.976339 58.300465 
L 421.062054 57.926406 
L 428.147768 56.633231 
L 435.233482 55.93855 
L 442.319196 54.933934 
L 449.404911 54.741561 
L 456.490625 54.463689 
L 463.576339 53.149138 
L 470.662054 52.165897 
L 477.747768 51.9094 
L 484.833482 51.257468 
L 491.919196 51.000971 
L 499.004911 50.915472 
L 506.090625 50.883409 
L 513.176339 50.776535 
L 520.262054 50.605537 
L 527.347768 50.007042 
L 534.433482 48.831428 
L 541.519196 47.121444 
L 548.604911 46.213015 
L 555.690625 45.892393 
L 562.776339 45.571771 
L 569.862054 45.400773 
L 576.947768 44.812966 
L 584.033482 44.716779 
L 591.119196 44.364095 
L 598.204911 43.947286 
L 605.290625 43.145731 
L 612.376339 42.525862 
L 619.462054 42.504487 
L 626.547768 41.948742 
L 633.633482 41.756369 
L 640.719196 41.660183 
L 647.804911 41.371623 
L 654.890625 40.751754 
L 661.976339 40.655567 
L 669.062054 40.281508 
L 676.147768 39.886074 
L 683.233482 39.864699 
L 690.319196 39.864699 
L 697.404911 39.629576 
L 704.490625 39.20208 
L 711.576339 39.105894 
L 718.662054 39.073832 
L 725.747768 38.774584 
L 732.833482 38.624961 
L 739.919196 38.624961 
" clip-path="url(#p60ea782fc1)" style="fill: none; stroke: #98df8a; stroke-width: 1.5; stroke-linecap: square"/>
    <defs>
     <path id="m732e6443d7" d="M -0 3 
L 3 -3 
L -3 -3 
z
" style="stroke: #ffffff; stroke-width: 0.75; stroke-linejoin: miter"/>
    </defs>
    <g clip-path="url(#p60ea782fc1)">
     <use xlink:href="#m732e6443d7" x="59.690625" y="276.334125" style="fill: #98df8a; stroke: #ffffff; stroke-width: 0.75; stroke-linejoin: miter"/>
     <use xlink:href="#m732e6443d7" x="66.776339" y="217.777857" style="fill: #98df8a; stroke: #ffffff; stroke-width: 0.75; stroke-linejoin: miter"/>
     <use xlink:href="#m732e6443d7" x="73.862054" y="207.48589" style="fill: #98df8a; stroke: #ffffff; stroke-width: 0.75; stroke-linejoin: miter"/>
     <use xlink:href="#m732e6443d7" x="80.947768" y="202.056691" style="fill: #98df8a; stroke: #ffffff; stroke-width: 0.75; stroke-linejoin: miter"/>
     <use xlink:href="#m732e6443d7" x="88.033482" y="194.532761" style="fill: #98df8a; stroke: #ffffff; stroke-width: 0.75; stroke-linejoin: miter"/>
     <use xlink:href="#m732e6443d7" x="95.119196" y="177.96729" style="fill: #98df8a; stroke: #ffffff; stroke-width: 0.75; stroke-linejoin: miter"/>
     <use xlink:href="#m732e6443d7" x="102.204911" y="173.371708" style="fill: #98df8a; stroke: #ffffff; stroke-width: 0.75; stroke-linejoin: miter"/>
     <use xlink:href="#m732e6443d7" x="109.290625" y="167.23714" style="fill: #98df8a; stroke: #ffffff; stroke-width: 0.75; stroke-linejoin: miter"/>
     <use xlink:href="#m732e6443d7" x="116.376339" y="160.24758" style="fill: #98df8a; stroke: #ffffff; stroke-width: 0.75; stroke-linejoin: miter"/>
     <use xlink:href="#m732e6443d7" x="123.462054" y="155.299313" style="fill: #98df8a; stroke: #ffffff; stroke-width: 0.75; stroke-linejoin: miter"/>
     <use xlink:href="#m732e6443d7" x="130.547768" y="148.416627" style="fill: #98df8a; stroke: #ffffff; stroke-width: 0.75; stroke-linejoin: miter"/>
     <use xlink:href="#m732e6443d7" x="137.633482" y="139.343024" style="fill: #98df8a; stroke: #ffffff; stroke-width: 0.75; stroke-linejoin: miter"/>
     <use xlink:href="#m732e6443d7" x="144.719196" y="133.326018" style="fill: #98df8a; stroke: #ffffff; stroke-width: 0.75; stroke-linejoin: miter"/>
     <use xlink:href="#m732e6443d7" x="151.804911" y="129.788488" style="fill: #98df8a; stroke: #ffffff; stroke-width: 0.75; stroke-linejoin: miter"/>
     <use xlink:href="#m732e6443d7" x="158.890625" y="126.625017" style="fill: #98df8a; stroke: #ffffff; stroke-width: 0.75; stroke-linejoin: miter"/>
     <use xlink:href="#m732e6443d7" x="165.976339" y="124.47685" style="fill: #98df8a; stroke: #ffffff; stroke-width: 0.75; stroke-linejoin: miter"/>
     <use xlink:href="#m732e6443d7" x="173.062054" y="108.520561" style="fill: #98df8a; stroke: #ffffff; stroke-width: 0.75; stroke-linejoin: miter"/>
     <use xlink:href="#m732e6443d7" x="180.147768" y="102.022621" style="fill: #98df8a; stroke: #ffffff; stroke-width: 0.75; stroke-linejoin: miter"/>
     <use xlink:href="#m732e6443d7" x="187.233482" y="98.036221" style="fill: #98df8a; stroke: #ffffff; stroke-width: 0.75; stroke-linejoin: miter"/>
     <use xlink:href="#m732e6443d7" x="194.319196" y="91.516906" style="fill: #98df8a; stroke: #ffffff; stroke-width: 0.75; stroke-linejoin: miter"/>
     <use xlink:href="#m732e6443d7" x="201.404911" y="88.780932" style="fill: #98df8a; stroke: #ffffff; stroke-width: 0.75; stroke-linejoin: miter"/>
     <use xlink:href="#m732e6443d7" x="208.490625" y="86.312142" style="fill: #98df8a; stroke: #ffffff; stroke-width: 0.75; stroke-linejoin: miter"/>
     <use xlink:href="#m732e6443d7" x="215.576339" y="83.779228" style="fill: #98df8a; stroke: #ffffff; stroke-width: 0.75; stroke-linejoin: miter"/>
     <use xlink:href="#m732e6443d7" x="222.662054" y="83.03111" style="fill: #98df8a; stroke: #ffffff; stroke-width: 0.75; stroke-linejoin: miter"/>
     <use xlink:href="#m732e6443d7" x="229.747768" y="81.641748" style="fill: #98df8a; stroke: #ffffff; stroke-width: 0.75; stroke-linejoin: miter"/>
     <use xlink:href="#m732e6443d7" x="236.833482" y="79.547018" style="fill: #98df8a; stroke: #ffffff; stroke-width: 0.75; stroke-linejoin: miter"/>
     <use xlink:href="#m732e6443d7" x="243.919196" y="77.997345" style="fill: #98df8a; stroke: #ffffff; stroke-width: 0.75; stroke-linejoin: miter"/>
     <use xlink:href="#m732e6443d7" x="251.004911" y="76.66142" style="fill: #98df8a; stroke: #ffffff; stroke-width: 0.75; stroke-linejoin: miter"/>
     <use xlink:href="#m732e6443d7" x="258.090625" y="75.678179" style="fill: #98df8a; stroke: #ffffff; stroke-width: 0.75; stroke-linejoin: miter"/>
     <use xlink:href="#m732e6443d7" x="265.176339" y="75.357557" style="fill: #98df8a; stroke: #ffffff; stroke-width: 0.75; stroke-linejoin: miter"/>
     <use xlink:href="#m732e6443d7" x="272.262054" y="74.962123" style="fill: #98df8a; stroke: #ffffff; stroke-width: 0.75; stroke-linejoin: miter"/>
     <use xlink:href="#m732e6443d7" x="279.347768" y="74.962123" style="fill: #98df8a; stroke: #ffffff; stroke-width: 0.75; stroke-linejoin: miter"/>
     <use xlink:href="#m732e6443d7" x="286.433482" y="74.940748" style="fill: #98df8a; stroke: #ffffff; stroke-width: 0.75; stroke-linejoin: miter"/>
     <use xlink:href="#m732e6443d7" x="293.519196" y="74.897998" style="fill: #98df8a; stroke: #ffffff; stroke-width: 0.75; stroke-linejoin: miter"/>
     <use xlink:href="#m732e6443d7" x="300.604911" y="74.000257" style="fill: #98df8a; stroke: #ffffff; stroke-width: 0.75; stroke-linejoin: miter"/>
     <use xlink:href="#m732e6443d7" x="307.690625" y="71.52078" style="fill: #98df8a; stroke: #ffffff; stroke-width: 0.75; stroke-linejoin: miter"/>
     <use xlink:href="#m732e6443d7" x="314.776339" y="70.291729" style="fill: #98df8a; stroke: #ffffff; stroke-width: 0.75; stroke-linejoin: miter"/>
     <use xlink:href="#m732e6443d7" x="321.862054" y="70.142105" style="fill: #98df8a; stroke: #ffffff; stroke-width: 0.75; stroke-linejoin: miter"/>
     <use xlink:href="#m732e6443d7" x="328.947768" y="69.768046" style="fill: #98df8a; stroke: #ffffff; stroke-width: 0.75; stroke-linejoin: miter"/>
     <use xlink:href="#m732e6443d7" x="336.033482" y="69.287113" style="fill: #98df8a; stroke: #ffffff; stroke-width: 0.75; stroke-linejoin: miter"/>
     <use xlink:href="#m732e6443d7" x="343.119196" y="66.946572" style="fill: #98df8a; stroke: #ffffff; stroke-width: 0.75; stroke-linejoin: miter"/>
     <use xlink:href="#m732e6443d7" x="350.204911" y="65.55721" style="fill: #98df8a; stroke: #ffffff; stroke-width: 0.75; stroke-linejoin: miter"/>
     <use xlink:href="#m732e6443d7" x="357.290625" y="65.033528" style="fill: #98df8a; stroke: #ffffff; stroke-width: 0.75; stroke-linejoin: miter"/>
     <use xlink:href="#m732e6443d7" x="364.376339" y="64.48847" style="fill: #98df8a; stroke: #ffffff; stroke-width: 0.75; stroke-linejoin: miter"/>
     <use xlink:href="#m732e6443d7" x="371.462054" y="63.590729" style="fill: #98df8a; stroke: #ffffff; stroke-width: 0.75; stroke-linejoin: miter"/>
     <use xlink:href="#m732e6443d7" x="378.547768" y="63.17392" style="fill: #98df8a; stroke: #ffffff; stroke-width: 0.75; stroke-linejoin: miter"/>
     <use xlink:href="#m732e6443d7" x="385.633482" y="60.99369" style="fill: #98df8a; stroke: #ffffff; stroke-width: 0.75; stroke-linejoin: miter"/>
     <use xlink:href="#m732e6443d7" x="392.719196" y="59.871513" style="fill: #98df8a; stroke: #ffffff; stroke-width: 0.75; stroke-linejoin: miter"/>
     <use xlink:href="#m732e6443d7" x="399.804911" y="59.112708" style="fill: #98df8a; stroke: #ffffff; stroke-width: 0.75; stroke-linejoin: miter"/>
     <use xlink:href="#m732e6443d7" x="406.890625" y="58.931022" style="fill: #98df8a; stroke: #ffffff; stroke-width: 0.75; stroke-linejoin: miter"/>
     <use xlink:href="#m732e6443d7" x="413.976339" y="58.300465" style="fill: #98df8a; stroke: #ffffff; stroke-width: 0.75; stroke-linejoin: miter"/>
     <use xlink:href="#m732e6443d7" x="421.062054" y="57.926406" style="fill: #98df8a; stroke: #ffffff; stroke-width: 0.75; stroke-linejoin: miter"/>
     <use xlink:href="#m732e6443d7" x="428.147768" y="56.633231" style="fill: #98df8a; stroke: #ffffff; stroke-width: 0.75; stroke-linejoin: miter"/>
     <use xlink:href="#m732e6443d7" x="435.233482" y="55.93855" style="fill: #98df8a; stroke: #ffffff; stroke-width: 0.75; stroke-linejoin: miter"/>
     <use xlink:href="#m732e6443d7" x="442.319196" y="54.933934" style="fill: #98df8a; stroke: #ffffff; stroke-width: 0.75; stroke-linejoin: miter"/>
     <use xlink:href="#m732e6443d7" x="449.404911" y="54.741561" style="fill: #98df8a; stroke: #ffffff; stroke-width: 0.75; stroke-linejoin: miter"/>
     <use xlink:href="#m732e6443d7" x="456.490625" y="54.463689" style="fill: #98df8a; stroke: #ffffff; stroke-width: 0.75; stroke-linejoin: miter"/>
     <use xlink:href="#m732e6443d7" x="463.576339" y="53.149138" style="fill: #98df8a; stroke: #ffffff; stroke-width: 0.75; stroke-linejoin: miter"/>
     <use xlink:href="#m732e6443d7" x="470.662054" y="52.165897" style="fill: #98df8a; stroke: #ffffff; stroke-width: 0.75; stroke-linejoin: miter"/>
     <use xlink:href="#m732e6443d7" x="477.747768" y="51.9094" style="fill: #98df8a; stroke: #ffffff; stroke-width: 0.75; stroke-linejoin: miter"/>
     <use xlink:href="#m732e6443d7" x="484.833482" y="51.257468" style="fill: #98df8a; stroke: #ffffff; stroke-width: 0.75; stroke-linejoin: miter"/>
     <use xlink:href="#m732e6443d7" x="491.919196" y="51.000971" style="fill: #98df8a; stroke: #ffffff; stroke-width: 0.75; stroke-linejoin: miter"/>
     <use xlink:href="#m732e6443d7" x="499.004911" y="50.915472" style="fill: #98df8a; stroke: #ffffff; stroke-width: 0.75; stroke-linejoin: miter"/>
     <use xlink:href="#m732e6443d7" x="506.090625" y="50.883409" style="fill: #98df8a; stroke: #ffffff; stroke-width: 0.75; stroke-linejoin: miter"/>
     <use xlink:href="#m732e6443d7" x="513.176339" y="50.776535" style="fill: #98df8a; stroke: #ffffff; stroke-width: 0.75; stroke-linejoin: miter"/>
     <use xlink:href="#m732e6443d7" x="520.262054" y="50.605537" style="fill: #98df8a; stroke: #ffffff; stroke-width: 0.75; stroke-linejoin: miter"/>
     <use xlink:href="#m732e6443d7" x="527.347768" y="50.007042" style="fill: #98df8a; stroke: #ffffff; stroke-width: 0.75; stroke-linejoin: miter"/>
     <use xlink:href="#m732e6443d7" x="534.433482" y="48.831428" style="fill: #98df8a; stroke: #ffffff; stroke-width: 0.75; stroke-linejoin: miter"/>
     <use xlink:href="#m732e6443d7" x="541.519196" y="47.121444" style="fill: #98df8a; stroke: #ffffff; stroke-width: 0.75; stroke-linejoin: miter"/>
     <use xlink:href="#m732e6443d7" x="548.604911" y="46.213015" style="fill: #98df8a; stroke: #ffffff; stroke-width: 0.75; stroke-linejoin: miter"/>
     <use xlink:href="#m732e6443d7" x="555.690625" y="45.892393" style="fill: #98df8a; stroke: #ffffff; stroke-width: 0.75; stroke-linejoin: miter"/>
     <use xlink:href="#m732e6443d7" x="562.776339" y="45.571771" style="fill: #98df8a; stroke: #ffffff; stroke-width: 0.75; stroke-linejoin: miter"/>
     <use xlink:href="#m732e6443d7" x="569.862054" y="45.400773" style="fill: #98df8a; stroke: #ffffff; stroke-width: 0.75; stroke-linejoin: miter"/>
     <use xlink:href="#m732e6443d7" x="576.947768" y="44.812966" style="fill: #98df8a; stroke: #ffffff; stroke-width: 0.75; stroke-linejoin: miter"/>
     <use xlink:href="#m732e6443d7" x="584.033482" y="44.716779" style="fill: #98df8a; stroke: #ffffff; stroke-width: 0.75; stroke-linejoin: miter"/>
     <use xlink:href="#m732e6443d7" x="591.119196" y="44.364095" style="fill: #98df8a; stroke: #ffffff; stroke-width: 0.75; stroke-linejoin: miter"/>
     <use xlink:href="#m732e6443d7" x="598.204911" y="43.947286" style="fill: #98df8a; stroke: #ffffff; stroke-width: 0.75; stroke-linejoin: miter"/>
     <use xlink:href="#m732e6443d7" x="605.290625" y="43.145731" style="fill: #98df8a; stroke: #ffffff; stroke-width: 0.75; stroke-linejoin: miter"/>
     <use xlink:href="#m732e6443d7" x="612.376339" y="42.525862" style="fill: #98df8a; stroke: #ffffff; stroke-width: 0.75; stroke-linejoin: miter"/>
     <use xlink:href="#m732e6443d7" x="619.462054" y="42.504487" style="fill: #98df8a; stroke: #ffffff; stroke-width: 0.75; stroke-linejoin: miter"/>
     <use xlink:href="#m732e6443d7" x="626.547768" y="41.948742" style="fill: #98df8a; stroke: #ffffff; stroke-width: 0.75; stroke-linejoin: miter"/>
     <use xlink:href="#m732e6443d7" x="633.633482" y="41.756369" style="fill: #98df8a; stroke: #ffffff; stroke-width: 0.75; stroke-linejoin: miter"/>
     <use xlink:href="#m732e6443d7" x="640.719196" y="41.660183" style="fill: #98df8a; stroke: #ffffff; stroke-width: 0.75; stroke-linejoin: miter"/>
     <use xlink:href="#m732e6443d7" x="647.804911" y="41.371623" style="fill: #98df8a; stroke: #ffffff; stroke-width: 0.75; stroke-linejoin: miter"/>
     <use xlink:href="#m732e6443d7" x="654.890625" y="40.751754" style="fill: #98df8a; stroke: #ffffff; stroke-width: 0.75; stroke-linejoin: miter"/>
     <use xlink:href="#m732e6443d7" x="661.976339" y="40.655567" style="fill: #98df8a; stroke: #ffffff; stroke-width: 0.75; stroke-linejoin: miter"/>
     <use xlink:href="#m732e6443d7" x="669.062054" y="40.281508" style="fill: #98df8a; stroke: #ffffff; stroke-width: 0.75; stroke-linejoin: miter"/>
     <use xlink:href="#m732e6443d7" x="676.147768" y="39.886074" style="fill: #98df8a; stroke: #ffffff; stroke-width: 0.75; stroke-linejoin: miter"/>
     <use xlink:href="#m732e6443d7" x="683.233482" y="39.864699" style="fill: #98df8a; stroke: #ffffff; stroke-width: 0.75; stroke-linejoin: miter"/>
     <use xlink:href="#m732e6443d7" x="690.319196" y="39.864699" style="fill: #98df8a; stroke: #ffffff; stroke-width: 0.75; stroke-linejoin: miter"/>
     <use xlink:href="#m732e6443d7" x="697.404911" y="39.629576" style="fill: #98df8a; stroke: #ffffff; stroke-width: 0.75; stroke-linejoin: miter"/>
     <use xlink:href="#m732e6443d7" x="704.490625" y="39.20208" style="fill: #98df8a; stroke: #ffffff; stroke-width: 0.75; stroke-linejoin: miter"/>
     <use xlink:href="#m732e6443d7" x="711.576339" y="39.105894" style="fill: #98df8a; stroke: #ffffff; stroke-width: 0.75; stroke-linejoin: miter"/>
     <use xlink:href="#m732e6443d7" x="718.662054" y="39.073832" style="fill: #98df8a; stroke: #ffffff; stroke-width: 0.75; stroke-linejoin: miter"/>
     <use xlink:href="#m732e6443d7" x="725.747768" y="38.774584" style="fill: #98df8a; stroke: #ffffff; stroke-width: 0.75; stroke-linejoin: miter"/>
     <use xlink:href="#m732e6443d7" x="732.833482" y="38.624961" style="fill: #98df8a; stroke: #ffffff; stroke-width: 0.75; stroke-linejoin: miter"/>
     <use xlink:href="#m732e6443d7" x="739.919196" y="38.624961" style="fill: #98df8a; stroke: #ffffff; stroke-width: 0.75; stroke-linejoin: miter"/>
    </g>
   </g>
   <g id="line2d_21">
    <path d="M 59.690625 276.334125 
L 66.776339 217.735108 
L 73.862054 205.872093 
L 80.947768 196.627491 
L 88.033482 189.178373 
L 95.119196 185.170598 
L 102.204911 180.617765 
L 109.290625 171.565537 
L 116.376339 166.831018 
L 123.462054 163.924045 
L 130.547768 158.152849 
L 137.633482 156.303929 
L 144.719196 146.770768 
L 151.804911 137.045233 
L 158.890625 129.446491 
L 165.976339 126.101335 
L 173.062054 123.921105 
L 180.147768 121.965311 
L 187.233482 117.44454 
L 194.319196 114.409318 
L 201.404911 112.05809 
L 208.490625 106.318956 
L 215.576339 103.497482 
L 222.662054 96.497235 
L 229.747768 95.781179 
L 236.833482 95.588806 
L 243.919196 92.393273 
L 251.004911 92.382586 
L 258.090625 88.577871 
L 265.176339 85.16859 
L 272.262054 83.533418 
L 279.347768 82.934924 
L 286.433482 81.908933 
L 293.519196 81.278377 
L 300.604911 78.777525 
L 307.690625 77.142353 
L 314.776339 76.885855 
L 321.862054 75.699554 
L 328.947768 74.224692 
L 336.033482 72.974266 
L 343.119196 70.847474 
L 350.204911 70.16348 
L 357.290625 70.152793 
L 364.376339 68.325247 
L 371.462054 66.871761 
L 378.547768 65.418274 
L 385.633482 65.215214 
L 392.719196 65.140402 
L 399.804911 64.050287 
L 406.890625 62.960172 
L 413.976339 61.731121 
L 421.062054 60.673068 
L 428.147768 60.416571 
L 435.233482 58.674524 
L 442.319196 57.402724 
L 449.404911 56.195047 
L 456.490625 55.756864 
L 463.576339 55.714114 
L 470.662054 54.998059 
L 477.747768 54.207191 
L 484.833482 53.80107 
L 491.919196 53.448385 
L 499.004911 53.149138 
L 506.090625 53.095701 
L 513.176339 52.881953 
L 520.262054 52.123148 
L 527.347768 51.781151 
L 534.433482 51.246781 
L 541.519196 51.214719 
L 548.604911 50.755161 
L 555.690625 50.199416 
L 562.776339 50.071167 
L 569.862054 50.01773 
L 576.947768 49.632983 
L 584.033482 49.632983 
L 591.119196 49.579546 
L 598.204911 49.312361 
L 605.290625 49.184113 
L 612.376339 49.141363 
L 619.462054 47.784063 
L 626.547768 46.790135 
L 633.633482 45.806894 
L 640.719196 45.732082 
L 647.804911 45.667958 
L 654.890625 45.529022 
L 661.976339 45.293899 
L 669.062054 45.133588 
L 676.147768 45.058776 
L 683.233482 44.171722 
L 690.319196 43.658727 
L 697.404911 42.825109 
L 704.490625 42.69686 
L 711.576339 42.600674 
L 718.662054 41.927368 
L 725.747768 41.42506 
L 732.833482 41.296811 
L 739.919196 41.296811 
" clip-path="url(#p60ea782fc1)" style="fill: none; stroke: #1f77b4; stroke-width: 1.5; stroke-linecap: square"/>
    <defs>
     <path id="m2fea29a28f" d="M 0 3 
C 0.795609 3 1.55874 2.683901 2.12132 2.12132 
C 2.683901 1.55874 3 0.795609 3 0 
C 3 -0.795609 2.683901 -1.55874 2.12132 -2.12132 
C 1.55874 -2.683901 0.795609 -3 0 -3 
C -0.795609 -3 -1.55874 -2.683901 -2.12132 -2.12132 
C -2.683901 -1.55874 -3 -0.795609 -3 0 
C -3 0.795609 -2.683901 1.55874 -2.12132 2.12132 
C -1.55874 2.683901 -0.795609 3 0 3 
z
" style="stroke: #ffffff; stroke-width: 0.75"/>
    </defs>
    <g clip-path="url(#p60ea782fc1)">
     <use xlink:href="#m2fea29a28f" x="59.690625" y="276.334125" style="fill: #1f77b4; stroke: #ffffff; stroke-width: 0.75"/>
     <use xlink:href="#m2fea29a28f" x="66.776339" y="217.735108" style="fill: #1f77b4; stroke: #ffffff; stroke-width: 0.75"/>
     <use xlink:href="#m2fea29a28f" x="73.862054" y="205.872093" style="fill: #1f77b4; stroke: #ffffff; stroke-width: 0.75"/>
     <use xlink:href="#m2fea29a28f" x="80.947768" y="196.627491" style="fill: #1f77b4; stroke: #ffffff; stroke-width: 0.75"/>
     <use xlink:href="#m2fea29a28f" x="88.033482" y="189.178373" style="fill: #1f77b4; stroke: #ffffff; stroke-width: 0.75"/>
     <use xlink:href="#m2fea29a28f" x="95.119196" y="185.170598" style="fill: #1f77b4; stroke: #ffffff; stroke-width: 0.75"/>
     <use xlink:href="#m2fea29a28f" x="102.204911" y="180.617765" style="fill: #1f77b4; stroke: #ffffff; stroke-width: 0.75"/>
     <use xlink:href="#m2fea29a28f" x="109.290625" y="171.565537" style="fill: #1f77b4; stroke: #ffffff; stroke-width: 0.75"/>
     <use xlink:href="#m2fea29a28f" x="116.376339" y="166.831018" style="fill: #1f77b4; stroke: #ffffff; stroke-width: 0.75"/>
     <use xlink:href="#m2fea29a28f" x="123.462054" y="163.924045" style="fill: #1f77b4; stroke: #ffffff; stroke-width: 0.75"/>
     <use xlink:href="#m2fea29a28f" x="130.547768" y="158.152849" style="fill: #1f77b4; stroke: #ffffff; stroke-width: 0.75"/>
     <use xlink:href="#m2fea29a28f" x="137.633482" y="156.303929" style="fill: #1f77b4; stroke: #ffffff; stroke-width: 0.75"/>
     <use xlink:href="#m2fea29a28f" x="144.719196" y="146.770768" style="fill: #1f77b4; stroke: #ffffff; stroke-width: 0.75"/>
     <use xlink:href="#m2fea29a28f" x="151.804911" y="137.045233" style="fill: #1f77b4; stroke: #ffffff; stroke-width: 0.75"/>
     <use xlink:href="#m2fea29a28f" x="158.890625" y="129.446491" style="fill: #1f77b4; stroke: #ffffff; stroke-width: 0.75"/>
     <use xlink:href="#m2fea29a28f" x="165.976339" y="126.101335" style="fill: #1f77b4; stroke: #ffffff; stroke-width: 0.75"/>
     <use xlink:href="#m2fea29a28f" x="173.062054" y="123.921105" style="fill: #1f77b4; stroke: #ffffff; stroke-width: 0.75"/>
     <use xlink:href="#m2fea29a28f" x="180.147768" y="121.965311" style="fill: #1f77b4; stroke: #ffffff; stroke-width: 0.75"/>
     <use xlink:href="#m2fea29a28f" x="187.233482" y="117.44454" style="fill: #1f77b4; stroke: #ffffff; stroke-width: 0.75"/>
     <use xlink:href="#m2fea29a28f" x="194.319196" y="114.409318" style="fill: #1f77b4; stroke: #ffffff; stroke-width: 0.75"/>
     <use xlink:href="#m2fea29a28f" x="201.404911" y="112.05809" style="fill: #1f77b4; stroke: #ffffff; stroke-width: 0.75"/>
     <use xlink:href="#m2fea29a28f" x="208.490625" y="106.318956" style="fill: #1f77b4; stroke: #ffffff; stroke-width: 0.75"/>
     <use xlink:href="#m2fea29a28f" x="215.576339" y="103.497482" style="fill: #1f77b4; stroke: #ffffff; stroke-width: 0.75"/>
     <use xlink:href="#m2fea29a28f" x="222.662054" y="96.497235" style="fill: #1f77b4; stroke: #ffffff; stroke-width: 0.75"/>
     <use xlink:href="#m2fea29a28f" x="229.747768" y="95.781179" style="fill: #1f77b4; stroke: #ffffff; stroke-width: 0.75"/>
     <use xlink:href="#m2fea29a28f" x="236.833482" y="95.588806" style="fill: #1f77b4; stroke: #ffffff; stroke-width: 0.75"/>
     <use xlink:href="#m2fea29a28f" x="243.919196" y="92.393273" style="fill: #1f77b4; stroke: #ffffff; stroke-width: 0.75"/>
     <use xlink:href="#m2fea29a28f" x="251.004911" y="92.382586" style="fill: #1f77b4; stroke: #ffffff; stroke-width: 0.75"/>
     <use xlink:href="#m2fea29a28f" x="258.090625" y="88.577871" style="fill: #1f77b4; stroke: #ffffff; stroke-width: 0.75"/>
     <use xlink:href="#m2fea29a28f" x="265.176339" y="85.16859" style="fill: #1f77b4; stroke: #ffffff; stroke-width: 0.75"/>
     <use xlink:href="#m2fea29a28f" x="272.262054" y="83.533418" style="fill: #1f77b4; stroke: #ffffff; stroke-width: 0.75"/>
     <use xlink:href="#m2fea29a28f" x="279.347768" y="82.934924" style="fill: #1f77b4; stroke: #ffffff; stroke-width: 0.75"/>
     <use xlink:href="#m2fea29a28f" x="286.433482" y="81.908933" style="fill: #1f77b4; stroke: #ffffff; stroke-width: 0.75"/>
     <use xlink:href="#m2fea29a28f" x="293.519196" y="81.278377" style="fill: #1f77b4; stroke: #ffffff; stroke-width: 0.75"/>
     <use xlink:href="#m2fea29a28f" x="300.604911" y="78.777525" style="fill: #1f77b4; stroke: #ffffff; stroke-width: 0.75"/>
     <use xlink:href="#m2fea29a28f" x="307.690625" y="77.142353" style="fill: #1f77b4; stroke: #ffffff; stroke-width: 0.75"/>
     <use xlink:href="#m2fea29a28f" x="314.776339" y="76.885855" style="fill: #1f77b4; stroke: #ffffff; stroke-width: 0.75"/>
     <use xlink:href="#m2fea29a28f" x="321.862054" y="75.699554" style="fill: #1f77b4; stroke: #ffffff; stroke-width: 0.75"/>
     <use xlink:href="#m2fea29a28f" x="328.947768" y="74.224692" style="fill: #1f77b4; stroke: #ffffff; stroke-width: 0.75"/>
     <use xlink:href="#m2fea29a28f" x="336.033482" y="72.974266" style="fill: #1f77b4; stroke: #ffffff; stroke-width: 0.75"/>
     <use xlink:href="#m2fea29a28f" x="343.119196" y="70.847474" style="fill: #1f77b4; stroke: #ffffff; stroke-width: 0.75"/>
     <use xlink:href="#m2fea29a28f" x="350.204911" y="70.16348" style="fill: #1f77b4; stroke: #ffffff; stroke-width: 0.75"/>
     <use xlink:href="#m2fea29a28f" x="357.290625" y="70.152793" style="fill: #1f77b4; stroke: #ffffff; stroke-width: 0.75"/>
     <use xlink:href="#m2fea29a28f" x="364.376339" y="68.325247" style="fill: #1f77b4; stroke: #ffffff; stroke-width: 0.75"/>
     <use xlink:href="#m2fea29a28f" x="371.462054" y="66.871761" style="fill: #1f77b4; stroke: #ffffff; stroke-width: 0.75"/>
     <use xlink:href="#m2fea29a28f" x="378.547768" y="65.418274" style="fill: #1f77b4; stroke: #ffffff; stroke-width: 0.75"/>
     <use xlink:href="#m2fea29a28f" x="385.633482" y="65.215214" style="fill: #1f77b4; stroke: #ffffff; stroke-width: 0.75"/>
     <use xlink:href="#m2fea29a28f" x="392.719196" y="65.140402" style="fill: #1f77b4; stroke: #ffffff; stroke-width: 0.75"/>
     <use xlink:href="#m2fea29a28f" x="399.804911" y="64.050287" style="fill: #1f77b4; stroke: #ffffff; stroke-width: 0.75"/>
     <use xlink:href="#m2fea29a28f" x="406.890625" y="62.960172" style="fill: #1f77b4; stroke: #ffffff; stroke-width: 0.75"/>
     <use xlink:href="#m2fea29a28f" x="413.976339" y="61.731121" style="fill: #1f77b4; stroke: #ffffff; stroke-width: 0.75"/>
     <use xlink:href="#m2fea29a28f" x="421.062054" y="60.673068" style="fill: #1f77b4; stroke: #ffffff; stroke-width: 0.75"/>
     <use xlink:href="#m2fea29a28f" x="428.147768" y="60.416571" style="fill: #1f77b4; stroke: #ffffff; stroke-width: 0.75"/>
     <use xlink:href="#m2fea29a28f" x="435.233482" y="58.674524" style="fill: #1f77b4; stroke: #ffffff; stroke-width: 0.75"/>
     <use xlink:href="#m2fea29a28f" x="442.319196" y="57.402724" style="fill: #1f77b4; stroke: #ffffff; stroke-width: 0.75"/>
     <use xlink:href="#m2fea29a28f" x="449.404911" y="56.195047" style="fill: #1f77b4; stroke: #ffffff; stroke-width: 0.75"/>
     <use xlink:href="#m2fea29a28f" x="456.490625" y="55.756864" style="fill: #1f77b4; stroke: #ffffff; stroke-width: 0.75"/>
     <use xlink:href="#m2fea29a28f" x="463.576339" y="55.714114" style="fill: #1f77b4; stroke: #ffffff; stroke-width: 0.75"/>
     <use xlink:href="#m2fea29a28f" x="470.662054" y="54.998059" style="fill: #1f77b4; stroke: #ffffff; stroke-width: 0.75"/>
     <use xlink:href="#m2fea29a28f" x="477.747768" y="54.207191" style="fill: #1f77b4; stroke: #ffffff; stroke-width: 0.75"/>
     <use xlink:href="#m2fea29a28f" x="484.833482" y="53.80107" style="fill: #1f77b4; stroke: #ffffff; stroke-width: 0.75"/>
     <use xlink:href="#m2fea29a28f" x="491.919196" y="53.448385" style="fill: #1f77b4; stroke: #ffffff; stroke-width: 0.75"/>
     <use xlink:href="#m2fea29a28f" x="499.004911" y="53.149138" style="fill: #1f77b4; stroke: #ffffff; stroke-width: 0.75"/>
     <use xlink:href="#m2fea29a28f" x="506.090625" y="53.095701" style="fill: #1f77b4; stroke: #ffffff; stroke-width: 0.75"/>
     <use xlink:href="#m2fea29a28f" x="513.176339" y="52.881953" style="fill: #1f77b4; stroke: #ffffff; stroke-width: 0.75"/>
     <use xlink:href="#m2fea29a28f" x="520.262054" y="52.123148" style="fill: #1f77b4; stroke: #ffffff; stroke-width: 0.75"/>
     <use xlink:href="#m2fea29a28f" x="527.347768" y="51.781151" style="fill: #1f77b4; stroke: #ffffff; stroke-width: 0.75"/>
     <use xlink:href="#m2fea29a28f" x="534.433482" y="51.246781" style="fill: #1f77b4; stroke: #ffffff; stroke-width: 0.75"/>
     <use xlink:href="#m2fea29a28f" x="541.519196" y="51.214719" style="fill: #1f77b4; stroke: #ffffff; stroke-width: 0.75"/>
     <use xlink:href="#m2fea29a28f" x="548.604911" y="50.755161" style="fill: #1f77b4; stroke: #ffffff; stroke-width: 0.75"/>
     <use xlink:href="#m2fea29a28f" x="555.690625" y="50.199416" style="fill: #1f77b4; stroke: #ffffff; stroke-width: 0.75"/>
     <use xlink:href="#m2fea29a28f" x="562.776339" y="50.071167" style="fill: #1f77b4; stroke: #ffffff; stroke-width: 0.75"/>
     <use xlink:href="#m2fea29a28f" x="569.862054" y="50.01773" style="fill: #1f77b4; stroke: #ffffff; stroke-width: 0.75"/>
     <use xlink:href="#m2fea29a28f" x="576.947768" y="49.632983" style="fill: #1f77b4; stroke: #ffffff; stroke-width: 0.75"/>
     <use xlink:href="#m2fea29a28f" x="584.033482" y="49.632983" style="fill: #1f77b4; stroke: #ffffff; stroke-width: 0.75"/>
     <use xlink:href="#m2fea29a28f" x="591.119196" y="49.579546" style="fill: #1f77b4; stroke: #ffffff; stroke-width: 0.75"/>
     <use xlink:href="#m2fea29a28f" x="598.204911" y="49.312361" style="fill: #1f77b4; stroke: #ffffff; stroke-width: 0.75"/>
     <use xlink:href="#m2fea29a28f" x="605.290625" y="49.184113" style="fill: #1f77b4; stroke: #ffffff; stroke-width: 0.75"/>
     <use xlink:href="#m2fea29a28f" x="612.376339" y="49.141363" style="fill: #1f77b4; stroke: #ffffff; stroke-width: 0.75"/>
     <use xlink:href="#m2fea29a28f" x="619.462054" y="47.784063" style="fill: #1f77b4; stroke: #ffffff; stroke-width: 0.75"/>
     <use xlink:href="#m2fea29a28f" x="626.547768" y="46.790135" style="fill: #1f77b4; stroke: #ffffff; stroke-width: 0.75"/>
     <use xlink:href="#m2fea29a28f" x="633.633482" y="45.806894" style="fill: #1f77b4; stroke: #ffffff; stroke-width: 0.75"/>
     <use xlink:href="#m2fea29a28f" x="640.719196" y="45.732082" style="fill: #1f77b4; stroke: #ffffff; stroke-width: 0.75"/>
     <use xlink:href="#m2fea29a28f" x="647.804911" y="45.667958" style="fill: #1f77b4; stroke: #ffffff; stroke-width: 0.75"/>
     <use xlink:href="#m2fea29a28f" x="654.890625" y="45.529022" style="fill: #1f77b4; stroke: #ffffff; stroke-width: 0.75"/>
     <use xlink:href="#m2fea29a28f" x="661.976339" y="45.293899" style="fill: #1f77b4; stroke: #ffffff; stroke-width: 0.75"/>
     <use xlink:href="#m2fea29a28f" x="669.062054" y="45.133588" style="fill: #1f77b4; stroke: #ffffff; stroke-width: 0.75"/>
     <use xlink:href="#m2fea29a28f" x="676.147768" y="45.058776" style="fill: #1f77b4; stroke: #ffffff; stroke-width: 0.75"/>
     <use xlink:href="#m2fea29a28f" x="683.233482" y="44.171722" style="fill: #1f77b4; stroke: #ffffff; stroke-width: 0.75"/>
     <use xlink:href="#m2fea29a28f" x="690.319196" y="43.658727" style="fill: #1f77b4; stroke: #ffffff; stroke-width: 0.75"/>
     <use xlink:href="#m2fea29a28f" x="697.404911" y="42.825109" style="fill: #1f77b4; stroke: #ffffff; stroke-width: 0.75"/>
     <use xlink:href="#m2fea29a28f" x="704.490625" y="42.69686" style="fill: #1f77b4; stroke: #ffffff; stroke-width: 0.75"/>
     <use xlink:href="#m2fea29a28f" x="711.576339" y="42.600674" style="fill: #1f77b4; stroke: #ffffff; stroke-width: 0.75"/>
     <use xlink:href="#m2fea29a28f" x="718.662054" y="41.927368" style="fill: #1f77b4; stroke: #ffffff; stroke-width: 0.75"/>
     <use xlink:href="#m2fea29a28f" x="725.747768" y="41.42506" style="fill: #1f77b4; stroke: #ffffff; stroke-width: 0.75"/>
     <use xlink:href="#m2fea29a28f" x="732.833482" y="41.296811" style="fill: #1f77b4; stroke: #ffffff; stroke-width: 0.75"/>
     <use xlink:href="#m2fea29a28f" x="739.919196" y="41.296811" style="fill: #1f77b4; stroke: #ffffff; stroke-width: 0.75"/>
    </g>
   </g>
   <g id="line2d_22"/>
   <g id="line2d_23"/>
   <g id="line2d_24">
    <path d="M 739.919196 288.430125 
L 739.919196 22.318125 
" clip-path="url(#p60ea782fc1)" style="fill: none; stroke: #ff0000; stroke-width: 1.5; stroke-linecap: square"/>
   </g>
   <g id="patch_3">
    <path d="M 59.690625 271.182798 
L 59.690625 57.434786 
" style="fill: none; stroke: #000000; stroke-width: 0.8; stroke-linejoin: miter; stroke-linecap: square"/>
   </g>
   <g id="patch_4">
    <path d="M 59.690625 288.430125 
L 739.919196 288.430125 
" style="fill: none; stroke: #000000; stroke-width: 0.8; stroke-linejoin: miter; stroke-linecap: square"/>
   </g>
   <g id="text_22">
    <!-- sqlite3_ossfuzz (24h, at least 10 trials/fuzzer) -->
    <g transform="translate(280.459688 16.318125) scale(0.12 -0.12)">
     <defs>
      <path id="DejaVuSans-73" d="M 2834 3397 
L 2834 2853 
Q 2591 2978 2328 3040 
Q 2066 3103 1784 3103 
Q 1356 3103 1142 2972 
Q 928 2841 928 2578 
Q 928 2378 1081 2264 
Q 1234 2150 1697 2047 
L 1894 2003 
Q 2506 1872 2764 1633 
Q 3022 1394 3022 966 
Q 3022 478 2636 193 
Q 2250 -91 1575 -91 
Q 1294 -91 989 -36 
Q 684 19 347 128 
L 347 722 
Q 666 556 975 473 
Q 1284 391 1588 391 
Q 1994 391 2212 530 
Q 2431 669 2431 922 
Q 2431 1156 2273 1281 
Q 2116 1406 1581 1522 
L 1381 1569 
Q 847 1681 609 1914 
Q 372 2147 372 2553 
Q 372 3047 722 3315 
Q 1072 3584 1716 3584 
Q 2034 3584 2315 3537 
Q 2597 3491 2834 3397 
z
" transform="scale(0.015625)"/>
      <path id="DejaVuSans-71" d="M 947 1747 
Q 947 1113 1208 752 
Q 1469 391 1925 391 
Q 2381 391 2643 752 
Q 2906 1113 2906 1747 
Q 2906 2381 2643 2742 
Q 2381 3103 1925 3103 
Q 1469 3103 1208 2742 
Q 947 2381 947 1747 
z
M 2906 525 
Q 2725 213 2448 61 
Q 2172 -91 1784 -91 
Q 1150 -91 751 415 
Q 353 922 353 1747 
Q 353 2572 751 3078 
Q 1150 3584 1784 3584 
Q 2172 3584 2448 3432 
Q 2725 3281 2906 2969 
L 2906 3500 
L 3481 3500 
L 3481 -1331 
L 2906 -1331 
L 2906 525 
z
" transform="scale(0.015625)"/>
      <path id="DejaVuSans-6c" d="M 603 4863 
L 1178 4863 
L 1178 0 
L 603 0 
L 603 4863 
z
" transform="scale(0.015625)"/>
      <path id="DejaVuSans-33" d="M 2597 2516 
Q 3050 2419 3304 2112 
Q 3559 1806 3559 1356 
Q 3559 666 3084 287 
Q 2609 -91 1734 -91 
Q 1441 -91 1130 -33 
Q 819 25 488 141 
L 488 750 
Q 750 597 1062 519 
Q 1375 441 1716 441 
Q 2309 441 2620 675 
Q 2931 909 2931 1356 
Q 2931 1769 2642 2001 
Q 2353 2234 1838 2234 
L 1294 2234 
L 1294 2753 
L 1863 2753 
Q 2328 2753 2575 2939 
Q 2822 3125 2822 3475 
Q 2822 3834 2567 4026 
Q 2313 4219 1838 4219 
Q 1578 4219 1281 4162 
Q 984 4106 628 3988 
L 628 4550 
Q 988 4650 1302 4700 
Q 1616 4750 1894 4750 
Q 2613 4750 3031 4423 
Q 3450 4097 3450 3541 
Q 3450 3153 3228 2886 
Q 3006 2619 2597 2516 
z
" transform="scale(0.015625)"/>
      <path id="DejaVuSans-5f" d="M 3263 -1063 
L 3263 -1509 
L -63 -1509 
L -63 -1063 
L 3263 -1063 
z
" transform="scale(0.015625)"/>
      <path id="DejaVuSans-66" d="M 2375 4863 
L 2375 4384 
L 1825 4384 
Q 1516 4384 1395 4259 
Q 1275 4134 1275 3809 
L 1275 3500 
L 2222 3500 
L 2222 3053 
L 1275 3053 
L 1275 0 
L 697 0 
L 697 3053 
L 147 3053 
L 147 3500 
L 697 3500 
L 697 3744 
Q 697 4328 969 4595 
Q 1241 4863 1831 4863 
L 2375 4863 
z
" transform="scale(0.015625)"/>
      <path id="DejaVuSans-7a" d="M 353 3500 
L 3084 3500 
L 3084 2975 
L 922 459 
L 3084 459 
L 3084 0 
L 275 0 
L 275 525 
L 2438 3041 
L 353 3041 
L 353 3500 
z
" transform="scale(0.015625)"/>
      <path id="DejaVuSans-2c" d="M 750 794 
L 1409 794 
L 1409 256 
L 897 -744 
L 494 -744 
L 750 256 
L 750 794 
z
" transform="scale(0.015625)"/>
      <path id="DejaVuSans-2f" d="M 1625 4666 
L 2156 4666 
L 531 -594 
L 0 -594 
L 1625 4666 
z
" transform="scale(0.015625)"/>
     </defs>
     <use xlink:href="#DejaVuSans-73"/>
     <use xlink:href="#DejaVuSans-71" x="52.099609"/>
     <use xlink:href="#DejaVuSans-6c" x="115.576172"/>
     <use xlink:href="#DejaVuSans-69" x="143.359375"/>
     <use xlink:href="#DejaVuSans-74" x="171.142578"/>
     <use xlink:href="#DejaVuSans-65" x="210.351562"/>
     <use xlink:href="#DejaVuSans-33" x="271.875"/>
     <use xlink:href="#DejaVuSans-5f" x="335.498047"/>
     <use xlink:href="#DejaVuSans-6f" x="385.498047"/>
     <use xlink:href="#DejaVuSans-73" x="446.679688"/>
     <use xlink:href="#DejaVuSans-73" x="498.779297"/>
     <use xlink:href="#DejaVuSans-66" x="550.878906"/>
     <use xlink:href="#DejaVuSans-75" x="586.083984"/>
     <use xlink:href="#DejaVuSans-7a" x="649.462891"/>
     <use xlink:href="#DejaVuSans-7a" x="701.953125"/>
     <use xlink:href="#DejaVuSans-20" x="754.443359"/>
     <use xlink:href="#DejaVuSans-28" x="786.230469"/>
     <use xlink:href="#DejaVuSans-32" x="825.244141"/>
     <use xlink:href="#DejaVuSans-34" x="888.867188"/>
     <use xlink:href="#DejaVuSans-68" x="952.490234"/>
     <use xlink:href="#DejaVuSans-2c" x="1015.869141"/>
     <use xlink:href="#DejaVuSans-20" x="1047.65625"/>
     <use xlink:href="#DejaVuSans-61" x="1079.443359"/>
     <use xlink:href="#DejaVuSans-74" x="1140.722656"/>
     <use xlink:href="#DejaVuSans-20" x="1179.931641"/>
     <use xlink:href="#DejaVuSans-6c" x="1211.71875"/>
     <use xlink:href="#DejaVuSans-65" x="1239.501953"/>
     <use xlink:href="#DejaVuSans-61" x="1301.025391"/>
     <use xlink:href="#DejaVuSans-73" x="1362.304688"/>
     <use xlink:href="#DejaVuSans-74" x="1414.404297"/>
     <use xlink:href="#DejaVuSans-20" x="1453.613281"/>
     <use xlink:href="#DejaVuSans-31" x="1485.400391"/>
     <use xlink:href="#DejaVuSans-30" x="1549.023438"/>
     <use xlink:href="#DejaVuSans-20" x="1612.646484"/>
     <use xlink:href="#DejaVuSans-74" x="1644.433594"/>
     <use xlink:href="#DejaVuSans-72" x="1683.642578"/>
     <use xlink:href="#DejaVuSans-69" x="1724.755859"/>
     <use xlink:href="#DejaVuSans-61" x="1752.539062"/>
     <use xlink:href="#DejaVuSans-6c" x="1813.818359"/>
     <use xlink:href="#DejaVuSans-73" x="1841.601562"/>
     <use xlink:href="#DejaVuSans-2f" x="1893.701172"/>
     <use xlink:href="#DejaVuSans-66" x="1927.392578"/>
     <use xlink:href="#DejaVuSans-75" x="1962.597656"/>
     <use xlink:href="#DejaVuSans-7a" x="2025.976562"/>
     <use xlink:href="#DejaVuSans-7a" x="2078.466797"/>
     <use xlink:href="#DejaVuSans-65" x="2130.957031"/>
     <use xlink:href="#DejaVuSans-72" x="2192.480469"/>
     <use xlink:href="#DejaVuSans-29" x="2233.59375"/>
    </g>
   </g>
   <g id="legend_1">
    <g id="line2d_25">
     <path d="M 777.930625 30.416562 
L 787.930625 30.416562 
L 797.930625 30.416562 
" style="fill: none; stroke: #98df8a; stroke-width: 1.5; stroke-linecap: square"/>
     <defs>
      <path id="m27500a7555" d="M -0 3 
L 3 -3 
L -3 -3 
z
" style="stroke: #98df8a; stroke-linejoin: miter"/>
     </defs>
     <g>
      <use xlink:href="#m27500a7555" x="787.930625" y="30.416562" style="fill: #98df8a; stroke: #98df8a; stroke-linejoin: miter"/>
     </g>
    </g>
    <g id="text_23">
     <!-- darwin_no_pre_seed -->
     <g transform="translate(805.930625 33.916562) scale(0.1 -0.1)">
      <defs>
       <path id="DejaVuSans-77" d="M 269 3500 
L 844 3500 
L 1563 769 
L 2278 3500 
L 2956 3500 
L 3675 769 
L 4391 3500 
L 4966 3500 
L 4050 0 
L 3372 0 
L 2619 2869 
L 1863 0 
L 1184 0 
L 269 3500 
z
" transform="scale(0.015625)"/>
       <path id="DejaVuSans-70" d="M 1159 525 
L 1159 -1331 
L 581 -1331 
L 581 3500 
L 1159 3500 
L 1159 2969 
Q 1341 3281 1617 3432 
Q 1894 3584 2278 3584 
Q 2916 3584 3314 3078 
Q 3713 2572 3713 1747 
Q 3713 922 3314 415 
Q 2916 -91 2278 -91 
Q 1894 -91 1617 61 
Q 1341 213 1159 525 
z
M 3116 1747 
Q 3116 2381 2855 2742 
Q 2594 3103 2138 3103 
Q 1681 3103 1420 2742 
Q 1159 2381 1159 1747 
Q 1159 1113 1420 752 
Q 1681 391 2138 391 
Q 2594 391 2855 752 
Q 3116 1113 3116 1747 
z
" transform="scale(0.015625)"/>
      </defs>
      <use xlink:href="#DejaVuSans-64"/>
      <use xlink:href="#DejaVuSans-61" x="63.476562"/>
      <use xlink:href="#DejaVuSans-72" x="124.755859"/>
      <use xlink:href="#DejaVuSans-77" x="165.869141"/>
      <use xlink:href="#DejaVuSans-69" x="247.65625"/>
      <use xlink:href="#DejaVuSans-6e" x="275.439453"/>
      <use xlink:href="#DejaVuSans-5f" x="338.818359"/>
      <use xlink:href="#DejaVuSans-6e" x="388.818359"/>
      <use xlink:href="#DejaVuSans-6f" x="452.197266"/>
      <use xlink:href="#DejaVuSans-5f" x="513.378906"/>
      <use xlink:href="#DejaVuSans-70" x="563.378906"/>
      <use xlink:href="#DejaVuSans-72" x="626.855469"/>
      <use xlink:href="#DejaVuSans-65" x="665.71875"/>
      <use xlink:href="#DejaVuSans-5f" x="727.242188"/>
      <use xlink:href="#DejaVuSans-73" x="777.242188"/>
      <use xlink:href="#DejaVuSans-65" x="829.341797"/>
      <use xlink:href="#DejaVuSans-65" x="890.865234"/>
      <use xlink:href="#DejaVuSans-64" x="952.388672"/>
     </g>
    </g>
    <g id="line2d_26">
     <path d="M 777.930625 45.372813 
L 787.930625 45.372813 
L 797.930625 45.372813 
" style="fill: none; stroke: #1f77b4; stroke-width: 1.5; stroke-linecap: square"/>
     <defs>
      <path id="m67b01b50b2" d="M 0 3 
C 0.795609 3 1.55874 2.683901 2.12132 2.12132 
C 2.683901 1.55874 3 0.795609 3 0 
C 3 -0.795609 2.683901 -1.55874 2.12132 -2.12132 
C 1.55874 -2.683901 0.795609 -3 0 -3 
C -0.795609 -3 -1.55874 -2.683901 -2.12132 -2.12132 
C -2.683901 -1.55874 -3 -0.795609 -3 0 
C -3 0.795609 -2.683901 1.55874 -2.12132 2.12132 
C -1.55874 2.683901 -0.795609 3 0 3 
z
" style="stroke: #1f77b4"/>
     </defs>
     <g>
      <use xlink:href="#m67b01b50b2" x="787.930625" y="45.372813" style="fill: #1f77b4; stroke: #1f77b4"/>
     </g>
    </g>
    <g id="text_24">
     <!-- darwin -->
     <g transform="translate(805.930625 48.872813) scale(0.1 -0.1)">
      <use xlink:href="#DejaVuSans-64"/>
      <use xlink:href="#DejaVuSans-61" x="63.476562"/>
      <use xlink:href="#DejaVuSans-72" x="124.755859"/>
      <use xlink:href="#DejaVuSans-77" x="165.869141"/>
      <use xlink:href="#DejaVuSans-69" x="247.65625"/>
      <use xlink:href="#DejaVuSans-6e" x="275.439453"/>
     </g>
    </g>
   </g>
  </g>
 </g>
 <defs>
  <clipPath id="p60ea782fc1">
   <rect x="59.690625" y="22.318125" width="714.24" height="266.112"/>
  </clipPath>
 </defs>
</svg>
