<?xml version="1.0" encoding="utf-8" standalone="no"?>
<!DOCTYPE svg PUBLIC "-//W3C//DTD SVG 1.1//EN"
  "http://www.w3.org/Graphics/SVG/1.1/DTD/svg11.dtd">
<svg xmlns:xlink="http://www.w3.org/1999/xlink" width="918.719687pt" height="325.986375pt" viewBox="0 0 918.719687 325.986375" xmlns="http://www.w3.org/2000/svg" version="1.1">
 <metadata>
  <rdf:RDF xmlns:dc="http://purl.org/dc/elements/1.1/" xmlns:cc="http://creativecommons.org/ns#" xmlns:rdf="http://www.w3.org/1999/02/22-rdf-syntax-ns#">
   <cc:Work>
    <dc:type rdf:resource="http://purl.org/dc/dcmitype/StillImage"/>
    <dc:date>2023-08-02T15:43:28.922728</dc:date>
    <dc:format>image/svg+xml</dc:format>
    <dc:creator>
     <cc:Agent>
      <dc:title>Matplotlib v3.7.1, https://matplotlib.org/</dc:title>
     </cc:Agent>
    </dc:creator>
   </cc:Work>
  </rdf:RDF>
 </metadata>
 <defs>
  <style type="text/css">*{stroke-linejoin: round; stroke-linecap: butt}</style>
 </defs>
 <g id="figure_1">
  <g id="patch_1">
   <path d="M 0 325.986375 
L 918.719687 325.986375 
L 918.719687 0 
L 0 0 
z
" style="fill: #ffffff"/>
  </g>
  <g id="axes_1">
   <g id="patch_2">
    <path d="M 59.690625 288.430125 
L 773.930625 288.430125 
L 773.930625 22.318125 
L 59.690625 22.318125 
z
" style="fill: #ffffff"/>
   </g>
   <g id="PolyCollection_1">
    <defs>
     <path id="m35576058f9" d="M 59.690625 -49.65225 
L 59.690625 -49.65225 
L 525.836797 -104.12402 
L 563.114139 -113.231119 
L 584.919987 -119.73314 
L 600.391482 -127.890026 
L 612.392105 -131.552083 
L 622.197329 -137.189303 
L 630.487527 -146.76617 
L 637.668824 -150.438904 
L 644.003176 -157.677607 
L 649.669448 -164.980369 
L 654.795213 -170.233232 
L 659.474671 -178.475531 
L 663.779355 -180.11972 
L 667.76487 -185.308524 
L 671.475295 -192.29099 
L 674.946166 -200.490582 
L 678.206548 -202.220183 
L 681.280519 -210.163538 
L 684.188245 -215.480461 
L 686.94679 -218.651397 
L 689.570717 -222.986078 
L 692.072556 -225.046652 
L 694.463164 -227.907968 
L 696.752013 -227.907968 
L 698.947414 -231.303112 
L 701.056697 -232.007764 
L 703.086366 -237.132509 
L 705.042212 -237.815809 
L 706.929417 -239.758941 
L 708.752637 -239.80405 
L 710.516069 -239.993826 
L 712.223508 -241.851546 
L 713.878403 -241.894252 
L 715.483891 -241.894252 
L 717.042836 -243.239497 
L 718.557861 -244.2858 
L 720.031373 -246.976291 
L 721.465587 -246.976291 
L 722.862545 -248.684539 
L 724.224132 -249.677459 
L 725.552097 -251.503149 
L 726.848059 -252.05833 
L 728.113525 -252.314567 
L 729.349898 -254.279053 
L 730.558485 -254.428524 
L 731.740507 -255.261295 
L 732.897107 -255.368061 
L 734.029356 -255.709711 
L 735.138258 -255.923242 
L 736.224756 -257.364576 
L 737.289738 -258.699145 
L 738.334039 -258.026522 
L 739.358448 -259.510563 
L 740.363708 -260.802426 
L 741.350522 -260.919868 
L 742.319554 -261.400313 
L 743.271434 -262.564057 
L 744.20676 -262.628117 
L 745.126095 -262.27579 
L 746.029979 -262.788265 
L 746.918923 -263.215327 
L 747.793411 -266.290174 
L 748.653907 -266.300851 
L 749.500851 -266.300851 
L 750.334663 -266.204762 
L 751.155745 -266.300851 
L 751.96448 -266.300851 
L 752.761233 -266.70656 
L 753.546354 -266.770619 
L 754.320178 -266.813325 
L 755.083025 -266.856031 
L 755.835203 -266.962797 
L 756.577006 -267.112269 
L 757.308715 -267.3258 
L 758.030603 -267.3258 
L 758.742929 -267.475271 
L 759.445944 -267.517978 
L 760.139887 -267.560684 
L 760.82499 -269.02951 
L 761.501474 -270.635531 
L 762.169555 -271.489655 
L 762.829439 -271.511008 
L 763.481324 -271.788598 
L 764.125401 -272.130248 
L 764.761857 -274.628561 
L 765.390868 -276.079505 
L 766.012607 -274.489766 
L 766.62724 -276.422222 
L 767.234929 -275.514715 
L 767.835827 -276.528988 
L 768.430085 -276.528988 
L 769.017849 -276.559683 
L 769.599258 -276.240721 
L 770.174449 -276.262074 
L 770.743553 -276.454252 
L 771.306698 -277.746115 
L 771.306698 -291.57225 
L 771.306698 -291.57225 
L 770.743553 -290.968491 
L 770.174449 -290.61136 
L 769.599258 -290.515271 
L 769.017849 -290.152269 
L 768.430085 -290.429859 
L 767.835827 -290.088209 
L 767.234929 -289.949414 
L 766.62724 -289.490322 
L 766.012607 -289.13159 
L 765.390868 -289.09529 
L 764.761857 -289.009877 
L 764.125401 -288.678904 
L 763.481324 -288.636198 
L 762.829439 -288.081017 
L 762.169555 -288.081017 
L 761.501474 -287.931546 
L 760.82499 -287.995605 
L 760.139887 -288.145077 
L 759.445944 -287.910193 
L 758.742929 -287.910193 
L 758.030603 -287.910193 
L 757.308715 -287.910193 
L 756.577006 -287.888839 
L 755.835203 -287.846133 
L 755.083025 -287.846133 
L 754.320178 -287.696661 
L 753.546354 -287.632602 
L 752.761233 -287.461777 
L 751.96448 -287.461777 
L 751.155745 -287.226893 
L 750.334663 -287.226893 
L 749.500851 -286.885244 
L 748.653907 -286.255327 
L 747.793411 -285.539998 
L 746.918923 -285.305114 
L 746.029979 -284.771286 
L 745.126095 -284.910081 
L 744.20676 -284.322871 
L 743.271434 -284.483019 
L 742.319554 -283.468747 
L 741.350522 -283.340628 
L 740.363708 -282.977625 
L 739.358448 -282.358385 
L 738.334039 -282.146189 
L 737.289738 -282.080795 
L 736.224756 -282.796124 
L 735.138258 -281.461555 
L 734.029356 -281.418849 
L 732.897107 -280.564725 
L 731.740507 -279.262185 
L 730.558485 -278.963242 
L 729.349898 -277.788821 
L 728.113525 -277.489877 
L 726.848059 -275.824335 
L 725.552097 -275.802982 
L 724.224132 -275.802982 
L 722.862545 -275.055623 
L 721.465587 -274.020532 
L 720.031373 -273.945262 
L 718.557861 -273.667672 
L 717.042836 -273.496847 
L 715.483891 -272.89896 
L 713.878403 -271.681833 
L 712.223508 -271.532361 
L 710.516069 -270.95556 
L 708.752637 -270.35794 
L 706.929417 -269.653288 
L 705.042212 -267.88098 
L 703.086366 -267.197681 
L 701.056697 -265.12643 
L 698.947414 -263.471564 
L 696.752013 -263.396828 
L 694.463164 -262.03023 
L 692.072556 -259.275679 
L 689.570717 -256.136773 
L 686.94679 -255.239942 
L 684.188245 -254.962352 
L 681.280519 -249.965725 
L 678.206548 -242.193195 
L 674.946166 -235.48832 
L 671.475295 -231.132287 
L 667.76487 -232.70174 
L 663.779355 -219.239675 
L 659.474671 -212.576439 
L 654.795213 -204.910674 
L 649.669448 -198.835716 
L 644.003176 -195.376513 
L 637.668824 -181.795939 
L 630.487527 -177.151638 
L 622.197329 -165.108487 
L 612.392105 -156.674011 
L 600.391482 -146.509933 
L 584.919987 -135.491731 
L 563.114139 -128.039497 
L 525.836797 -112.427442 
L 59.690625 -49.65225 
z
" style="stroke: #98df8a; stroke-opacity: 0.2"/>
    </defs>
    <g clip-path="url(#p6ecbcd5e57)">
     <use xlink:href="#m35576058f9" x="0" y="325.986375" style="fill: #98df8a; fill-opacity: 0.2; stroke: #98df8a; stroke-opacity: 0.2"/>
    </g>
   </g>
   <g id="PolyCollection_2">
    <defs>
     <path id="m9bcad31156" d="M 59.690625 -49.65225 
L 59.690625 -49.65225 
L 525.836797 -106.953307 
L 563.114139 -116.017699 
L 584.919987 -121.825744 
L 600.391482 -128.12491 
L 612.392105 -136.495327 
L 622.197329 -143.093436 
L 630.487527 -149.093659 
L 637.668824 -153.705929 
L 644.003176 -156.545892 
L 649.669448 -159.727505 
L 654.795213 -166.528469 
L 659.474671 -174.439794 
L 663.779355 -180.343927 
L 667.76487 -183.920573 
L 671.475295 -189.066671 
L 674.946166 -191.853251 
L 678.206548 -194.842686 
L 681.280519 -197.340999 
L 684.188245 -202.946189 
L 686.94679 -200.864261 
L 689.570717 -204.782556 
L 692.072556 -206.406993 
L 694.463164 -209.853918 
L 696.752013 -215.800758 
L 698.947414 -220.156791 
L 701.056697 -221.747598 
L 703.086366 -227.288728 
L 705.042212 -228.377737 
L 706.929417 -230.662519 
L 708.752637 -235.701851 
L 710.516069 -236.573859 
L 712.223508 -237.292658 
L 713.878403 -240.303446 
L 715.483891 -240.933362 
L 717.042836 -240.088313 
L 718.557861 -241.048402 
L 720.031373 -241.317718 
L 721.465587 -244.228146 
L 722.862545 -244.349592 
L 724.224132 -248.556421 
L 725.552097 -248.449655 
L 726.848059 -248.556421 
L 728.113525 -248.801981 
L 729.349898 -248.844687 
L 730.558485 -250.435494 
L 731.740507 -252.200862 
L 732.897107 -252.848395 
L 734.029356 -252.848395 
L 735.138258 -252.848395 
L 736.224756 -254.044168 
L 737.289738 -254.214993 
L 738.334039 -255.069117 
L 739.358448 -256.649247 
L 740.363708 -256.510452 
L 741.350522 -257.90908 
L 742.319554 -258.485614 
L 743.271434 -260.321981 
L 744.20676 -261.154752 
L 745.126095 -263.802537 
L 746.029979 -262.681499 
L 746.918923 -264.080128 
L 747.793411 -263.791861 
L 748.653907 -264.718319 
L 749.500851 -266.151379 
L 750.334663 -265.158459 
L 751.155745 -266.300851 
L 751.96448 -267.069562 
L 752.761233 -267.069562 
L 753.546354 -267.282026 
L 754.320178 -266.962797 
L 755.083025 -268.628339 
L 755.835203 -268.692398 
L 756.577006 -268.991342 
L 757.308715 -269.80276 
L 758.030603 -269.482463 
L 758.742929 -270.881092 
L 759.445944 -270.496736 
L 760.139887 -270.998534 
L 760.82499 -271.148005 
L 761.501474 -272.986775 
L 762.169555 -271.788598 
L 762.829439 -273.24061 
L 763.481324 -273.24061 
L 764.125401 -273.24061 
L 764.761857 -273.24061 
L 765.390868 -273.24061 
L 766.012607 -273.496847 
L 766.62724 -273.603612 
L 767.234929 -273.667672 
L 767.835827 -273.667672 
L 768.430085 -272.546634 
L 769.017849 -273.667672 
L 769.599258 -273.667672 
L 770.174449 -273.667672 
L 770.743553 -274.13744 
L 771.306698 -274.13744 
L 771.306698 -289.020554 
L 771.306698 -289.020554 
L 770.743553 -289.522352 
L 770.174449 -287.846133 
L 769.599258 -287.803427 
L 769.017849 -287.803427 
L 768.430085 -287.995605 
L 767.835827 -287.440424 
L 767.234929 -287.931546 
L 766.62724 -287.355012 
L 766.012607 -287.803427 
L 765.390868 -287.141481 
L 764.761857 -286.564947 
L 764.125401 -286.564947 
L 763.481324 -286.137885 
L 762.829439 -286.842537 
L 762.169555 -285.838941 
L 761.501474 -285.828265 
L 760.82499 -285.07023 
L 760.139887 -283.853103 
L 759.445944 -283.746337 
L 758.742929 -283.4901 
L 758.030603 -284.781963 
L 757.308715 -283.297922 
L 756.577006 -284.664521 
L 755.835203 -283.79972 
L 755.083025 -282.998978 
L 754.320178 -282.700035 
L 753.546354 -282.657329 
L 752.761233 -282.657329 
L 751.96448 -283.095067 
L 751.155745 -282.710712 
L 750.334663 -282.422445 
L 749.500851 -281.952676 
L 748.653907 -281.90303 
L 747.793411 -281.696439 
L 746.918923 -282.176884 
L 746.029979 -279.603835 
L 745.126095 -279.539775 
L 744.20676 -278.963242 
L 743.271434 -278.322649 
L 742.319554 -277.810174 
L 741.350522 -276.763872 
L 740.363708 -275.802982 
L 739.358448 -274.906152 
L 738.334039 -275.141036 
L 737.289738 -273.934585 
L 736.224756 -273.411434 
L 735.138258 -273.155197 
L 734.029356 -272.664076 
L 732.897107 -272.130248 
L 731.740507 -268.969989 
L 730.558485 -268.073158 
L 729.349898 -267.987746 
L 728.113525 -266.514382 
L 726.848059 -264.893948 
L 725.552097 -264.678015 
L 724.224132 -264.357718 
L 722.862545 -264.357718 
L 721.465587 -261.581814 
L 720.031373 -258.756265 
L 718.557861 -259.617329 
L 717.042836 -257.674196 
L 715.483891 -255.77377 
L 713.878403 -254.098619 
L 712.223508 -252.314567 
L 710.516069 -250.392788 
L 708.752637 -250.115197 
L 706.929417 -248.374919 
L 705.042212 -246.869525 
L 703.086366 -242.737699 
L 701.056697 -244.157681 
L 698.947414 -242.887171 
L 696.752013 -241.236042 
L 694.463164 -240.316257 
L 692.072556 -239.171731 
L 689.570717 -235.274789 
L 686.94679 -229.167801 
L 684.188245 -231.602055 
L 681.280519 -225.752639 
L 678.206548 -225.495067 
L 674.946166 -225.495067 
L 671.475295 -225.495067 
L 667.76487 -222.783223 
L 663.779355 -213.985744 
L 659.474671 -205.380443 
L 654.795213 -201.344706 
L 649.669448 -189.942148 
L 644.003176 -182.276383 
L 637.668824 -183.952602 
L 630.487527 -171.868346 
L 622.197329 -163.037236 
L 612.392105 -159.503297 
L 600.391482 -148.816068 
L 584.919987 -137.552306 
L 563.114139 -125.3063 
L 525.836797 -113.946448 
L 59.690625 -49.65225 
z
" style="stroke: #1f77b4; stroke-opacity: 0.2"/>
    </defs>
    <g clip-path="url(#p6ecbcd5e57)">
     <use xlink:href="#m9bcad31156" x="0" y="325.986375" style="fill: #1f77b4; fill-opacity: 0.2; stroke: #1f77b4; stroke-opacity: 0.2"/>
    </g>
   </g>
   <g id="matplotlib.axis_1">
    <g id="xtick_1">
     <g id="line2d_1">
      <defs>
       <path id="m1b0bf8505f" d="M 0 0 
L 0 3.5 
" style="stroke: #000000; stroke-width: 0.8"/>
      </defs>
      <g>
       <use xlink:href="#m1b0bf8505f" x="59.690625" y="288.430125" style="stroke: #000000; stroke-width: 0.8"/>
      </g>
     </g>
     <g id="text_1">
      <!-- 0m -->
      <g transform="translate(51.639063 303.028562) scale(0.1 -0.1)">
       <defs>
        <path id="DejaVuSans-30" d="M 2034 4250 
Q 1547 4250 1301 3770 
Q 1056 3291 1056 2328 
Q 1056 1369 1301 889 
Q 1547 409 2034 409 
Q 2525 409 2770 889 
Q 3016 1369 3016 2328 
Q 3016 3291 2770 3770 
Q 2525 4250 2034 4250 
z
M 2034 4750 
Q 2819 4750 3233 4129 
Q 3647 3509 3647 2328 
Q 3647 1150 3233 529 
Q 2819 -91 2034 -91 
Q 1250 -91 836 529 
Q 422 1150 422 2328 
Q 422 3509 836 4129 
Q 1250 4750 2034 4750 
z
" transform="scale(0.015625)"/>
        <path id="DejaVuSans-6d" d="M 3328 2828 
Q 3544 3216 3844 3400 
Q 4144 3584 4550 3584 
Q 5097 3584 5394 3201 
Q 5691 2819 5691 2113 
L 5691 0 
L 5113 0 
L 5113 2094 
Q 5113 2597 4934 2840 
Q 4756 3084 4391 3084 
Q 3944 3084 3684 2787 
Q 3425 2491 3425 1978 
L 3425 0 
L 2847 0 
L 2847 2094 
Q 2847 2600 2669 2842 
Q 2491 3084 2119 3084 
Q 1678 3084 1418 2786 
Q 1159 2488 1159 1978 
L 1159 0 
L 581 0 
L 581 3500 
L 1159 3500 
L 1159 2956 
Q 1356 3278 1631 3431 
Q 1906 3584 2284 3584 
Q 2666 3584 2933 3390 
Q 3200 3197 3328 2828 
z
" transform="scale(0.015625)"/>
       </defs>
       <use xlink:href="#DejaVuSans-30"/>
       <use xlink:href="#DejaVuSans-6d" x="63.623047"/>
      </g>
     </g>
    </g>
    <g id="xtick_2">
     <g id="line2d_2">
      <g>
       <use xlink:href="#m1b0bf8505f" x="128.486542" y="288.430125" style="stroke: #000000; stroke-width: 0.8"/>
      </g>
     </g>
    </g>
    <g id="xtick_3">
     <g id="line2d_3">
      <g>
       <use xlink:href="#m1b0bf8505f" x="221.135337" y="288.430125" style="stroke: #000000; stroke-width: 0.8"/>
      </g>
     </g>
    </g>
    <g id="xtick_4">
     <g id="line2d_4">
      <g>
       <use xlink:href="#m1b0bf8505f" x="282.265557" y="288.430125" style="stroke: #000000; stroke-width: 0.8"/>
      </g>
     </g>
    </g>
    <g id="xtick_5">
     <g id="line2d_5">
      <g>
       <use xlink:href="#m1b0bf8505f" x="343.395778" y="288.430125" style="stroke: #000000; stroke-width: 0.8"/>
      </g>
     </g>
    </g>
    <g id="xtick_6">
     <g id="line2d_6">
      <g>
       <use xlink:href="#m1b0bf8505f" x="404.525998" y="288.430125" style="stroke: #000000; stroke-width: 0.8"/>
      </g>
     </g>
     <g id="text_2">
      <!-- 1m -->
      <g transform="translate(396.474436 303.028562) scale(0.1 -0.1)">
       <defs>
        <path id="DejaVuSans-31" d="M 794 531 
L 1825 531 
L 1825 4091 
L 703 3866 
L 703 4441 
L 1819 4666 
L 2450 4666 
L 2450 531 
L 3481 531 
L 3481 0 
L 794 0 
L 794 531 
z
" transform="scale(0.015625)"/>
       </defs>
       <use xlink:href="#DejaVuSans-31"/>
       <use xlink:href="#DejaVuSans-6d" x="63.623047"/>
      </g>
     </g>
    </g>
    <g id="xtick_7">
     <g id="line2d_7">
      <g>
       <use xlink:href="#m1b0bf8505f" x="465.656219" y="288.430125" style="stroke: #000000; stroke-width: 0.8"/>
      </g>
     </g>
     <g id="text_3">
      <!-- 4m -->
      <g transform="translate(457.604656 303.028562) scale(0.1 -0.1)">
       <defs>
        <path id="DejaVuSans-34" d="M 2419 4116 
L 825 1625 
L 2419 1625 
L 2419 4116 
z
M 2253 4666 
L 3047 4666 
L 3047 1625 
L 3713 1625 
L 3713 1100 
L 3047 1100 
L 3047 0 
L 2419 0 
L 2419 1100 
L 313 1100 
L 313 1709 
L 2253 4666 
z
" transform="scale(0.015625)"/>
       </defs>
       <use xlink:href="#DejaVuSans-34"/>
       <use xlink:href="#DejaVuSans-6d" x="63.623047"/>
      </g>
     </g>
    </g>
    <g id="xtick_8">
     <g id="line2d_8">
      <g>
       <use xlink:href="#m1b0bf8505f" x="526.786439" y="288.430125" style="stroke: #000000; stroke-width: 0.8"/>
      </g>
     </g>
     <g id="text_4">
      <!-- 15m -->
      <g transform="translate(515.553626 303.028562) scale(0.1 -0.1)">
       <defs>
        <path id="DejaVuSans-35" d="M 691 4666 
L 3169 4666 
L 3169 4134 
L 1269 4134 
L 1269 2991 
Q 1406 3038 1543 3061 
Q 1681 3084 1819 3084 
Q 2600 3084 3056 2656 
Q 3513 2228 3513 1497 
Q 3513 744 3044 326 
Q 2575 -91 1722 -91 
Q 1428 -91 1123 -41 
Q 819 9 494 109 
L 494 744 
Q 775 591 1075 516 
Q 1375 441 1709 441 
Q 2250 441 2565 725 
Q 2881 1009 2881 1497 
Q 2881 1984 2565 2268 
Q 2250 2553 1709 2553 
Q 1456 2553 1204 2497 
Q 953 2441 691 2322 
L 691 4666 
z
" transform="scale(0.015625)"/>
       </defs>
       <use xlink:href="#DejaVuSans-31"/>
       <use xlink:href="#DejaVuSans-35" x="63.623047"/>
       <use xlink:href="#DejaVuSans-6d" x="127.246094"/>
      </g>
     </g>
    </g>
    <g id="xtick_9">
     <g id="line2d_9">
      <g>
       <use xlink:href="#m1b0bf8505f" x="587.916659" y="288.430125" style="stroke: #000000; stroke-width: 0.8"/>
      </g>
     </g>
     <g id="text_5">
      <!-- 47m -->
      <g transform="translate(576.683847 303.028562) scale(0.1 -0.1)">
       <defs>
        <path id="DejaVuSans-37" d="M 525 4666 
L 3525 4666 
L 3525 4397 
L 1831 0 
L 1172 0 
L 2766 4134 
L 525 4134 
L 525 4666 
z
" transform="scale(0.015625)"/>
       </defs>
       <use xlink:href="#DejaVuSans-34"/>
       <use xlink:href="#DejaVuSans-37" x="63.623047"/>
       <use xlink:href="#DejaVuSans-6d" x="127.246094"/>
      </g>
     </g>
    </g>
    <g id="xtick_10">
     <g id="line2d_10">
      <g>
       <use xlink:href="#m1b0bf8505f" x="649.04688" y="288.430125" style="stroke: #000000; stroke-width: 0.8"/>
      </g>
     </g>
     <g id="text_6">
      <!-- 2h:28m -->
      <g transform="translate(629.779692 303.028562) scale(0.1 -0.1)">
       <defs>
        <path id="DejaVuSans-32" d="M 1228 531 
L 3431 531 
L 3431 0 
L 469 0 
L 469 531 
Q 828 903 1448 1529 
Q 2069 2156 2228 2338 
Q 2531 2678 2651 2914 
Q 2772 3150 2772 3378 
Q 2772 3750 2511 3984 
Q 2250 4219 1831 4219 
Q 1534 4219 1204 4116 
Q 875 4013 500 3803 
L 500 4441 
Q 881 4594 1212 4672 
Q 1544 4750 1819 4750 
Q 2544 4750 2975 4387 
Q 3406 4025 3406 3419 
Q 3406 3131 3298 2873 
Q 3191 2616 2906 2266 
Q 2828 2175 2409 1742 
Q 1991 1309 1228 531 
z
" transform="scale(0.015625)"/>
        <path id="DejaVuSans-68" d="M 3513 2113 
L 3513 0 
L 2938 0 
L 2938 2094 
Q 2938 2591 2744 2837 
Q 2550 3084 2163 3084 
Q 1697 3084 1428 2787 
Q 1159 2491 1159 1978 
L 1159 0 
L 581 0 
L 581 4863 
L 1159 4863 
L 1159 2956 
Q 1366 3272 1645 3428 
Q 1925 3584 2291 3584 
Q 2894 3584 3203 3211 
Q 3513 2838 3513 2113 
z
" transform="scale(0.015625)"/>
        <path id="DejaVuSans-3a" d="M 750 794 
L 1409 794 
L 1409 0 
L 750 0 
L 750 794 
z
M 750 3309 
L 1409 3309 
L 1409 2516 
L 750 2516 
L 750 3309 
z
" transform="scale(0.015625)"/>
        <path id="DejaVuSans-38" d="M 2034 2216 
Q 1584 2216 1326 1975 
Q 1069 1734 1069 1313 
Q 1069 891 1326 650 
Q 1584 409 2034 409 
Q 2484 409 2743 651 
Q 3003 894 3003 1313 
Q 3003 1734 2745 1975 
Q 2488 2216 2034 2216 
z
M 1403 2484 
Q 997 2584 770 2862 
Q 544 3141 544 3541 
Q 544 4100 942 4425 
Q 1341 4750 2034 4750 
Q 2731 4750 3128 4425 
Q 3525 4100 3525 3541 
Q 3525 3141 3298 2862 
Q 3072 2584 2669 2484 
Q 3125 2378 3379 2068 
Q 3634 1759 3634 1313 
Q 3634 634 3220 271 
Q 2806 -91 2034 -91 
Q 1263 -91 848 271 
Q 434 634 434 1313 
Q 434 1759 690 2068 
Q 947 2378 1403 2484 
z
M 1172 3481 
Q 1172 3119 1398 2916 
Q 1625 2713 2034 2713 
Q 2441 2713 2670 2916 
Q 2900 3119 2900 3481 
Q 2900 3844 2670 4047 
Q 2441 4250 2034 4250 
Q 1625 4250 1398 4047 
Q 1172 3844 1172 3481 
z
" transform="scale(0.015625)"/>
       </defs>
       <use xlink:href="#DejaVuSans-32"/>
       <use xlink:href="#DejaVuSans-68" x="63.623047"/>
       <use xlink:href="#DejaVuSans-3a" x="127.001953"/>
       <use xlink:href="#DejaVuSans-32" x="160.693359"/>
       <use xlink:href="#DejaVuSans-38" x="224.316406"/>
       <use xlink:href="#DejaVuSans-6d" x="287.939453"/>
      </g>
     </g>
    </g>
    <g id="xtick_11">
     <g id="line2d_11">
      <g>
       <use xlink:href="#m1b0bf8505f" x="710.1771" y="288.430125" style="stroke: #000000; stroke-width: 0.8"/>
      </g>
     </g>
     <g id="text_7">
      <!-- 7h:42m -->
      <g transform="translate(690.909913 303.028562) scale(0.1 -0.1)">
       <use xlink:href="#DejaVuSans-37"/>
       <use xlink:href="#DejaVuSans-68" x="63.623047"/>
       <use xlink:href="#DejaVuSans-3a" x="127.001953"/>
       <use xlink:href="#DejaVuSans-34" x="160.693359"/>
       <use xlink:href="#DejaVuSans-32" x="224.316406"/>
       <use xlink:href="#DejaVuSans-6d" x="287.939453"/>
      </g>
     </g>
    </g>
    <g id="xtick_12">
     <g id="line2d_12">
      <g>
       <use xlink:href="#m1b0bf8505f" x="771.30732" y="288.430125" style="stroke: #000000; stroke-width: 0.8"/>
      </g>
     </g>
     <g id="text_8">
      <!-- 24h -->
      <g transform="translate(761.77607 303.028562) scale(0.1 -0.1)">
       <use xlink:href="#DejaVuSans-32"/>
       <use xlink:href="#DejaVuSans-34" x="63.623047"/>
       <use xlink:href="#DejaVuSans-68" x="127.246094"/>
      </g>
     </g>
    </g>
    <g id="text_9">
     <!-- Time (hour:minute) -->
     <g transform="translate(368.403594 316.706687) scale(0.1 -0.1)">
      <defs>
       <path id="DejaVuSans-54" d="M -19 4666 
L 3928 4666 
L 3928 4134 
L 2272 4134 
L 2272 0 
L 1638 0 
L 1638 4134 
L -19 4134 
L -19 4666 
z
" transform="scale(0.015625)"/>
       <path id="DejaVuSans-69" d="M 603 3500 
L 1178 3500 
L 1178 0 
L 603 0 
L 603 3500 
z
M 603 4863 
L 1178 4863 
L 1178 4134 
L 603 4134 
L 603 4863 
z
" transform="scale(0.015625)"/>
       <path id="DejaVuSans-65" d="M 3597 1894 
L 3597 1613 
L 953 1613 
Q 991 1019 1311 708 
Q 1631 397 2203 397 
Q 2534 397 2845 478 
Q 3156 559 3463 722 
L 3463 178 
Q 3153 47 2828 -22 
Q 2503 -91 2169 -91 
Q 1331 -91 842 396 
Q 353 884 353 1716 
Q 353 2575 817 3079 
Q 1281 3584 2069 3584 
Q 2775 3584 3186 3129 
Q 3597 2675 3597 1894 
z
M 3022 2063 
Q 3016 2534 2758 2815 
Q 2500 3097 2075 3097 
Q 1594 3097 1305 2825 
Q 1016 2553 972 2059 
L 3022 2063 
z
" transform="scale(0.015625)"/>
       <path id="DejaVuSans-20" transform="scale(0.015625)"/>
       <path id="DejaVuSans-28" d="M 1984 4856 
Q 1566 4138 1362 3434 
Q 1159 2731 1159 2009 
Q 1159 1288 1364 580 
Q 1569 -128 1984 -844 
L 1484 -844 
Q 1016 -109 783 600 
Q 550 1309 550 2009 
Q 550 2706 781 3412 
Q 1013 4119 1484 4856 
L 1984 4856 
z
" transform="scale(0.015625)"/>
       <path id="DejaVuSans-6f" d="M 1959 3097 
Q 1497 3097 1228 2736 
Q 959 2375 959 1747 
Q 959 1119 1226 758 
Q 1494 397 1959 397 
Q 2419 397 2687 759 
Q 2956 1122 2956 1747 
Q 2956 2369 2687 2733 
Q 2419 3097 1959 3097 
z
M 1959 3584 
Q 2709 3584 3137 3096 
Q 3566 2609 3566 1747 
Q 3566 888 3137 398 
Q 2709 -91 1959 -91 
Q 1206 -91 779 398 
Q 353 888 353 1747 
Q 353 2609 779 3096 
Q 1206 3584 1959 3584 
z
" transform="scale(0.015625)"/>
       <path id="DejaVuSans-75" d="M 544 1381 
L 544 3500 
L 1119 3500 
L 1119 1403 
Q 1119 906 1312 657 
Q 1506 409 1894 409 
Q 2359 409 2629 706 
Q 2900 1003 2900 1516 
L 2900 3500 
L 3475 3500 
L 3475 0 
L 2900 0 
L 2900 538 
Q 2691 219 2414 64 
Q 2138 -91 1772 -91 
Q 1169 -91 856 284 
Q 544 659 544 1381 
z
M 1991 3584 
L 1991 3584 
z
" transform="scale(0.015625)"/>
       <path id="DejaVuSans-72" d="M 2631 2963 
Q 2534 3019 2420 3045 
Q 2306 3072 2169 3072 
Q 1681 3072 1420 2755 
Q 1159 2438 1159 1844 
L 1159 0 
L 581 0 
L 581 3500 
L 1159 3500 
L 1159 2956 
Q 1341 3275 1631 3429 
Q 1922 3584 2338 3584 
Q 2397 3584 2469 3576 
Q 2541 3569 2628 3553 
L 2631 2963 
z
" transform="scale(0.015625)"/>
       <path id="DejaVuSans-6e" d="M 3513 2113 
L 3513 0 
L 2938 0 
L 2938 2094 
Q 2938 2591 2744 2837 
Q 2550 3084 2163 3084 
Q 1697 3084 1428 2787 
Q 1159 2491 1159 1978 
L 1159 0 
L 581 0 
L 581 3500 
L 1159 3500 
L 1159 2956 
Q 1366 3272 1645 3428 
Q 1925 3584 2291 3584 
Q 2894 3584 3203 3211 
Q 3513 2838 3513 2113 
z
" transform="scale(0.015625)"/>
       <path id="DejaVuSans-74" d="M 1172 4494 
L 1172 3500 
L 2356 3500 
L 2356 3053 
L 1172 3053 
L 1172 1153 
Q 1172 725 1289 603 
Q 1406 481 1766 481 
L 2356 481 
L 2356 0 
L 1766 0 
Q 1100 0 847 248 
Q 594 497 594 1153 
L 594 3053 
L 172 3053 
L 172 3500 
L 594 3500 
L 594 4494 
L 1172 4494 
z
" transform="scale(0.015625)"/>
       <path id="DejaVuSans-29" d="M 513 4856 
L 1013 4856 
Q 1481 4119 1714 3412 
Q 1947 2706 1947 2009 
Q 1947 1309 1714 600 
Q 1481 -109 1013 -844 
L 513 -844 
Q 928 -128 1133 580 
Q 1338 1288 1338 2009 
Q 1338 2731 1133 3434 
Q 928 4138 513 4856 
z
" transform="scale(0.015625)"/>
      </defs>
      <use xlink:href="#DejaVuSans-54"/>
      <use xlink:href="#DejaVuSans-69" x="57.958984"/>
      <use xlink:href="#DejaVuSans-6d" x="85.742188"/>
      <use xlink:href="#DejaVuSans-65" x="183.154297"/>
      <use xlink:href="#DejaVuSans-20" x="244.677734"/>
      <use xlink:href="#DejaVuSans-28" x="276.464844"/>
      <use xlink:href="#DejaVuSans-68" x="315.478516"/>
      <use xlink:href="#DejaVuSans-6f" x="378.857422"/>
      <use xlink:href="#DejaVuSans-75" x="440.039062"/>
      <use xlink:href="#DejaVuSans-72" x="503.417969"/>
      <use xlink:href="#DejaVuSans-3a" x="542.78125"/>
      <use xlink:href="#DejaVuSans-6d" x="576.472656"/>
      <use xlink:href="#DejaVuSans-69" x="673.884766"/>
      <use xlink:href="#DejaVuSans-6e" x="701.667969"/>
      <use xlink:href="#DejaVuSans-75" x="765.046875"/>
      <use xlink:href="#DejaVuSans-74" x="828.425781"/>
      <use xlink:href="#DejaVuSans-65" x="867.634766"/>
      <use xlink:href="#DejaVuSans-29" x="929.158203"/>
     </g>
    </g>
   </g>
   <g id="matplotlib.axis_2">
    <g id="ytick_1">
     <g id="line2d_13">
      <defs>
       <path id="m1c91afdde9" d="M 0 0 
L -3.5 0 
" style="stroke: #000000; stroke-width: 0.8"/>
      </defs>
      <g>
       <use xlink:href="#m1c91afdde9" x="59.690625" y="271.188027" style="stroke: #000000; stroke-width: 0.8"/>
      </g>
     </g>
     <g id="text_10">
      <!-- 8000 -->
      <g transform="translate(27.240625 274.987246) scale(0.1 -0.1)">
       <use xlink:href="#DejaVuSans-38"/>
       <use xlink:href="#DejaVuSans-30" x="63.623047"/>
       <use xlink:href="#DejaVuSans-30" x="127.246094"/>
       <use xlink:href="#DejaVuSans-30" x="190.869141"/>
      </g>
     </g>
    </g>
    <g id="ytick_2">
     <g id="line2d_14">
      <g>
       <use xlink:href="#m1c91afdde9" x="59.690625" y="228.481817" style="stroke: #000000; stroke-width: 0.8"/>
      </g>
     </g>
     <g id="text_11">
      <!-- 10000 -->
      <g transform="translate(20.878125 232.281036) scale(0.1 -0.1)">
       <use xlink:href="#DejaVuSans-31"/>
       <use xlink:href="#DejaVuSans-30" x="63.623047"/>
       <use xlink:href="#DejaVuSans-30" x="127.246094"/>
       <use xlink:href="#DejaVuSans-30" x="190.869141"/>
       <use xlink:href="#DejaVuSans-30" x="254.492188"/>
      </g>
     </g>
    </g>
    <g id="ytick_3">
     <g id="line2d_15">
      <g>
       <use xlink:href="#m1c91afdde9" x="59.690625" y="185.775608" style="stroke: #000000; stroke-width: 0.8"/>
      </g>
     </g>
     <g id="text_12">
      <!-- 12000 -->
      <g transform="translate(20.878125 189.574827) scale(0.1 -0.1)">
       <use xlink:href="#DejaVuSans-31"/>
       <use xlink:href="#DejaVuSans-32" x="63.623047"/>
       <use xlink:href="#DejaVuSans-30" x="127.246094"/>
       <use xlink:href="#DejaVuSans-30" x="190.869141"/>
       <use xlink:href="#DejaVuSans-30" x="254.492188"/>
      </g>
     </g>
    </g>
    <g id="ytick_4">
     <g id="line2d_16">
      <g>
       <use xlink:href="#m1c91afdde9" x="59.690625" y="143.069398" style="stroke: #000000; stroke-width: 0.8"/>
      </g>
     </g>
     <g id="text_13">
      <!-- 14000 -->
      <g transform="translate(20.878125 146.868617) scale(0.1 -0.1)">
       <use xlink:href="#DejaVuSans-31"/>
       <use xlink:href="#DejaVuSans-34" x="63.623047"/>
       <use xlink:href="#DejaVuSans-30" x="127.246094"/>
       <use xlink:href="#DejaVuSans-30" x="190.869141"/>
       <use xlink:href="#DejaVuSans-30" x="254.492188"/>
      </g>
     </g>
    </g>
    <g id="ytick_5">
     <g id="line2d_17">
      <g>
       <use xlink:href="#m1c91afdde9" x="59.690625" y="100.363189" style="stroke: #000000; stroke-width: 0.8"/>
      </g>
     </g>
     <g id="text_14">
      <!-- 16000 -->
      <g transform="translate(20.878125 104.162408) scale(0.1 -0.1)">
       <defs>
        <path id="DejaVuSans-36" d="M 2113 2584 
Q 1688 2584 1439 2293 
Q 1191 2003 1191 1497 
Q 1191 994 1439 701 
Q 1688 409 2113 409 
Q 2538 409 2786 701 
Q 3034 994 3034 1497 
Q 3034 2003 2786 2293 
Q 2538 2584 2113 2584 
z
M 3366 4563 
L 3366 3988 
Q 3128 4100 2886 4159 
Q 2644 4219 2406 4219 
Q 1781 4219 1451 3797 
Q 1122 3375 1075 2522 
Q 1259 2794 1537 2939 
Q 1816 3084 2150 3084 
Q 2853 3084 3261 2657 
Q 3669 2231 3669 1497 
Q 3669 778 3244 343 
Q 2819 -91 2113 -91 
Q 1303 -91 875 529 
Q 447 1150 447 2328 
Q 447 3434 972 4092 
Q 1497 4750 2381 4750 
Q 2619 4750 2861 4703 
Q 3103 4656 3366 4563 
z
" transform="scale(0.015625)"/>
       </defs>
       <use xlink:href="#DejaVuSans-31"/>
       <use xlink:href="#DejaVuSans-36" x="63.623047"/>
       <use xlink:href="#DejaVuSans-30" x="127.246094"/>
       <use xlink:href="#DejaVuSans-30" x="190.869141"/>
       <use xlink:href="#DejaVuSans-30" x="254.492188"/>
      </g>
     </g>
    </g>
    <g id="ytick_6">
     <g id="line2d_18">
      <g>
       <use xlink:href="#m1c91afdde9" x="59.690625" y="57.656979" style="stroke: #000000; stroke-width: 0.8"/>
      </g>
     </g>
     <g id="text_15">
      <!-- 18000 -->
      <g transform="translate(20.878125 61.456198) scale(0.1 -0.1)">
       <use xlink:href="#DejaVuSans-31"/>
       <use xlink:href="#DejaVuSans-38" x="63.623047"/>
       <use xlink:href="#DejaVuSans-30" x="127.246094"/>
       <use xlink:href="#DejaVuSans-30" x="190.869141"/>
       <use xlink:href="#DejaVuSans-30" x="254.492188"/>
      </g>
     </g>
    </g>
    <g id="text_16">
     <!-- Code branch coverage -->
     <g transform="translate(14.798438 211.949125) rotate(-90) scale(0.1 -0.1)">
      <defs>
       <path id="DejaVuSans-43" d="M 4122 4306 
L 4122 3641 
Q 3803 3938 3442 4084 
Q 3081 4231 2675 4231 
Q 1875 4231 1450 3742 
Q 1025 3253 1025 2328 
Q 1025 1406 1450 917 
Q 1875 428 2675 428 
Q 3081 428 3442 575 
Q 3803 722 4122 1019 
L 4122 359 
Q 3791 134 3420 21 
Q 3050 -91 2638 -91 
Q 1578 -91 968 557 
Q 359 1206 359 2328 
Q 359 3453 968 4101 
Q 1578 4750 2638 4750 
Q 3056 4750 3426 4639 
Q 3797 4528 4122 4306 
z
" transform="scale(0.015625)"/>
       <path id="DejaVuSans-64" d="M 2906 2969 
L 2906 4863 
L 3481 4863 
L 3481 0 
L 2906 0 
L 2906 525 
Q 2725 213 2448 61 
Q 2172 -91 1784 -91 
Q 1150 -91 751 415 
Q 353 922 353 1747 
Q 353 2572 751 3078 
Q 1150 3584 1784 3584 
Q 2172 3584 2448 3432 
Q 2725 3281 2906 2969 
z
M 947 1747 
Q 947 1113 1208 752 
Q 1469 391 1925 391 
Q 2381 391 2643 752 
Q 2906 1113 2906 1747 
Q 2906 2381 2643 2742 
Q 2381 3103 1925 3103 
Q 1469 3103 1208 2742 
Q 947 2381 947 1747 
z
" transform="scale(0.015625)"/>
       <path id="DejaVuSans-62" d="M 3116 1747 
Q 3116 2381 2855 2742 
Q 2594 3103 2138 3103 
Q 1681 3103 1420 2742 
Q 1159 2381 1159 1747 
Q 1159 1113 1420 752 
Q 1681 391 2138 391 
Q 2594 391 2855 752 
Q 3116 1113 3116 1747 
z
M 1159 2969 
Q 1341 3281 1617 3432 
Q 1894 3584 2278 3584 
Q 2916 3584 3314 3078 
Q 3713 2572 3713 1747 
Q 3713 922 3314 415 
Q 2916 -91 2278 -91 
Q 1894 -91 1617 61 
Q 1341 213 1159 525 
L 1159 0 
L 581 0 
L 581 4863 
L 1159 4863 
L 1159 2969 
z
" transform="scale(0.015625)"/>
       <path id="DejaVuSans-61" d="M 2194 1759 
Q 1497 1759 1228 1600 
Q 959 1441 959 1056 
Q 959 750 1161 570 
Q 1363 391 1709 391 
Q 2188 391 2477 730 
Q 2766 1069 2766 1631 
L 2766 1759 
L 2194 1759 
z
M 3341 1997 
L 3341 0 
L 2766 0 
L 2766 531 
Q 2569 213 2275 61 
Q 1981 -91 1556 -91 
Q 1019 -91 701 211 
Q 384 513 384 1019 
Q 384 1609 779 1909 
Q 1175 2209 1959 2209 
L 2766 2209 
L 2766 2266 
Q 2766 2663 2505 2880 
Q 2244 3097 1772 3097 
Q 1472 3097 1187 3025 
Q 903 2953 641 2809 
L 641 3341 
Q 956 3463 1253 3523 
Q 1550 3584 1831 3584 
Q 2591 3584 2966 3190 
Q 3341 2797 3341 1997 
z
" transform="scale(0.015625)"/>
       <path id="DejaVuSans-63" d="M 3122 3366 
L 3122 2828 
Q 2878 2963 2633 3030 
Q 2388 3097 2138 3097 
Q 1578 3097 1268 2742 
Q 959 2388 959 1747 
Q 959 1106 1268 751 
Q 1578 397 2138 397 
Q 2388 397 2633 464 
Q 2878 531 3122 666 
L 3122 134 
Q 2881 22 2623 -34 
Q 2366 -91 2075 -91 
Q 1284 -91 818 406 
Q 353 903 353 1747 
Q 353 2603 823 3093 
Q 1294 3584 2113 3584 
Q 2378 3584 2631 3529 
Q 2884 3475 3122 3366 
z
" transform="scale(0.015625)"/>
       <path id="DejaVuSans-76" d="M 191 3500 
L 800 3500 
L 1894 563 
L 2988 3500 
L 3597 3500 
L 2284 0 
L 1503 0 
L 191 3500 
z
" transform="scale(0.015625)"/>
       <path id="DejaVuSans-67" d="M 2906 1791 
Q 2906 2416 2648 2759 
Q 2391 3103 1925 3103 
Q 1463 3103 1205 2759 
Q 947 2416 947 1791 
Q 947 1169 1205 825 
Q 1463 481 1925 481 
Q 2391 481 2648 825 
Q 2906 1169 2906 1791 
z
M 3481 434 
Q 3481 -459 3084 -895 
Q 2688 -1331 1869 -1331 
Q 1566 -1331 1297 -1286 
Q 1028 -1241 775 -1147 
L 775 -588 
Q 1028 -725 1275 -790 
Q 1522 -856 1778 -856 
Q 2344 -856 2625 -561 
Q 2906 -266 2906 331 
L 2906 616 
Q 2728 306 2450 153 
Q 2172 0 1784 0 
Q 1141 0 747 490 
Q 353 981 353 1791 
Q 353 2603 747 3093 
Q 1141 3584 1784 3584 
Q 2172 3584 2450 3431 
Q 2728 3278 2906 2969 
L 2906 3500 
L 3481 3500 
L 3481 434 
z
" transform="scale(0.015625)"/>
      </defs>
      <use xlink:href="#DejaVuSans-43"/>
      <use xlink:href="#DejaVuSans-6f" x="69.824219"/>
      <use xlink:href="#DejaVuSans-64" x="131.005859"/>
      <use xlink:href="#DejaVuSans-65" x="194.482422"/>
      <use xlink:href="#DejaVuSans-20" x="256.005859"/>
      <use xlink:href="#DejaVuSans-62" x="287.792969"/>
      <use xlink:href="#DejaVuSans-72" x="351.269531"/>
      <use xlink:href="#DejaVuSans-61" x="392.382812"/>
      <use xlink:href="#DejaVuSans-6e" x="453.662109"/>
      <use xlink:href="#DejaVuSans-63" x="517.041016"/>
      <use xlink:href="#DejaVuSans-68" x="572.021484"/>
      <use xlink:href="#DejaVuSans-20" x="635.400391"/>
      <use xlink:href="#DejaVuSans-63" x="667.1875"/>
      <use xlink:href="#DejaVuSans-6f" x="722.167969"/>
      <use xlink:href="#DejaVuSans-76" x="783.349609"/>
      <use xlink:href="#DejaVuSans-65" x="842.529297"/>
      <use xlink:href="#DejaVuSans-72" x="904.052734"/>
      <use xlink:href="#DejaVuSans-61" x="945.166016"/>
      <use xlink:href="#DejaVuSans-67" x="1006.445312"/>
      <use xlink:href="#DejaVuSans-65" x="1069.921875"/>
     </g>
    </g>
   </g>
   <g id="line2d_19">
    <path d="M 59.690625 276.334125 
L 525.836797 217.837295 
L 563.114139 207.555775 
L 584.919987 202.132086 
L 600.391482 194.615793 
L 612.392105 178.067137 
L 622.197329 173.47622 
L 630.487527 167.347878 
L 637.668824 160.365413 
L 644.003176 155.422169 
L 649.669448 148.54647 
L 654.795213 139.482077 
L 659.474671 133.471178 
L 663.779355 129.937239 
L 667.76487 126.776979 
L 671.475295 124.630992 
L 674.946166 108.6909 
L 678.206548 102.199556 
L 681.280519 98.217202 
L 684.188245 91.704505 
L 686.94679 88.971308 
L 689.570717 86.505024 
L 692.072556 83.974681 
L 694.463164 83.227322 
L 696.752013 81.839371 
L 698.947414 79.746766 
L 701.056697 78.198666 
L 703.086366 76.864097 
L 705.042212 75.881854 
L 706.929417 75.561558 
L 708.752637 75.166525 
L 710.516069 75.166525 
L 712.223508 75.145172 
L 713.878403 75.102466 
L 715.483891 74.205636 
L 717.042836 71.728676 
L 718.557861 70.500872 
L 720.031373 70.3514 
L 721.465587 69.977721 
L 722.862545 69.497276 
L 724.224132 67.159111 
L 725.552097 65.771159 
L 726.848059 65.248008 
L 728.113525 64.703504 
L 729.349898 63.806674 
L 730.558485 63.390288 
L 731.740507 61.212271 
L 732.897107 60.091233 
L 734.029356 59.333198 
L 735.138258 59.151697 
L 736.224756 58.52178 
L 737.289738 58.148101 
L 738.334039 56.856238 
L 739.358448 56.162262 
L 740.363708 55.158666 
L 741.350522 54.966488 
L 742.319554 54.688898 
L 743.271434 53.375682 
L 744.20676 52.393439 
L 745.126095 52.137202 
L 746.029979 51.485932 
L 746.918923 51.229695 
L 747.793411 51.144283 
L 748.653907 51.112253 
L 749.500851 51.005487 
L 750.334663 50.834663 
L 751.155745 50.236776 
L 751.96448 49.062355 
L 752.761233 47.354106 
L 753.546354 46.4466 
L 754.320178 46.126303 
L 755.083025 45.806006 
L 755.835203 45.635182 
L 756.577006 45.047971 
L 757.308715 44.951882 
L 758.030603 44.599556 
L 758.742929 44.18317 
L 759.445944 43.382429 
L 760.139887 42.763189 
L 760.82499 42.741836 
L 761.501474 42.186655 
L 762.169555 41.994477 
L 762.829439 41.898388 
L 763.481324 41.610121 
L 764.125401 40.990881 
L 764.761857 40.894792 
L 765.390868 40.521113 
L 766.012607 40.126081 
L 766.62724 40.104727 
L 767.234929 40.104727 
L 767.835827 39.869843 
L 768.430085 39.442781 
L 769.017849 39.346692 
L 769.599258 39.314663 
L 770.174449 39.015719 
L 770.743553 38.866247 
L 771.306698 38.866247 
" clip-path="url(#p6ecbcd5e57)" style="fill: none; stroke: #98df8a; stroke-width: 1.5; stroke-linecap: square"/>
    <defs>
     <path id="m23a9556faf" d="M -0 3 
L 3 -3 
L -3 -3 
z
" style="stroke: #ffffff; stroke-width: 0.75; stroke-linejoin: miter"/>
    </defs>
    <g clip-path="url(#p6ecbcd5e57)">
     <use xlink:href="#m23a9556faf" x="59.690625" y="276.334125" style="fill: #98df8a; stroke: #ffffff; stroke-width: 0.75; stroke-linejoin: miter"/>
     <use xlink:href="#m23a9556faf" x="525.836797" y="217.837295" style="fill: #98df8a; stroke: #ffffff; stroke-width: 0.75; stroke-linejoin: miter"/>
     <use xlink:href="#m23a9556faf" x="563.114139" y="207.555775" style="fill: #98df8a; stroke: #ffffff; stroke-width: 0.75; stroke-linejoin: miter"/>
     <use xlink:href="#m23a9556faf" x="584.919987" y="202.132086" style="fill: #98df8a; stroke: #ffffff; stroke-width: 0.75; stroke-linejoin: miter"/>
     <use xlink:href="#m23a9556faf" x="600.391482" y="194.615793" style="fill: #98df8a; stroke: #ffffff; stroke-width: 0.75; stroke-linejoin: miter"/>
     <use xlink:href="#m23a9556faf" x="612.392105" y="178.067137" style="fill: #98df8a; stroke: #ffffff; stroke-width: 0.75; stroke-linejoin: miter"/>
     <use xlink:href="#m23a9556faf" x="622.197329" y="173.47622" style="fill: #98df8a; stroke: #ffffff; stroke-width: 0.75; stroke-linejoin: miter"/>
     <use xlink:href="#m23a9556faf" x="630.487527" y="167.347878" style="fill: #98df8a; stroke: #ffffff; stroke-width: 0.75; stroke-linejoin: miter"/>
     <use xlink:href="#m23a9556faf" x="637.668824" y="160.365413" style="fill: #98df8a; stroke: #ffffff; stroke-width: 0.75; stroke-linejoin: miter"/>
     <use xlink:href="#m23a9556faf" x="644.003176" y="155.422169" style="fill: #98df8a; stroke: #ffffff; stroke-width: 0.75; stroke-linejoin: miter"/>
     <use xlink:href="#m23a9556faf" x="649.669448" y="148.54647" style="fill: #98df8a; stroke: #ffffff; stroke-width: 0.75; stroke-linejoin: miter"/>
     <use xlink:href="#m23a9556faf" x="654.795213" y="139.482077" style="fill: #98df8a; stroke: #ffffff; stroke-width: 0.75; stroke-linejoin: miter"/>
     <use xlink:href="#m23a9556faf" x="659.474671" y="133.471178" style="fill: #98df8a; stroke: #ffffff; stroke-width: 0.75; stroke-linejoin: miter"/>
     <use xlink:href="#m23a9556faf" x="663.779355" y="129.937239" style="fill: #98df8a; stroke: #ffffff; stroke-width: 0.75; stroke-linejoin: miter"/>
     <use xlink:href="#m23a9556faf" x="667.76487" y="126.776979" style="fill: #98df8a; stroke: #ffffff; stroke-width: 0.75; stroke-linejoin: miter"/>
     <use xlink:href="#m23a9556faf" x="671.475295" y="124.630992" style="fill: #98df8a; stroke: #ffffff; stroke-width: 0.75; stroke-linejoin: miter"/>
     <use xlink:href="#m23a9556faf" x="674.946166" y="108.6909" style="fill: #98df8a; stroke: #ffffff; stroke-width: 0.75; stroke-linejoin: miter"/>
     <use xlink:href="#m23a9556faf" x="678.206548" y="102.199556" style="fill: #98df8a; stroke: #ffffff; stroke-width: 0.75; stroke-linejoin: miter"/>
     <use xlink:href="#m23a9556faf" x="681.280519" y="98.217202" style="fill: #98df8a; stroke: #ffffff; stroke-width: 0.75; stroke-linejoin: miter"/>
     <use xlink:href="#m23a9556faf" x="684.188245" y="91.704505" style="fill: #98df8a; stroke: #ffffff; stroke-width: 0.75; stroke-linejoin: miter"/>
     <use xlink:href="#m23a9556faf" x="686.94679" y="88.971308" style="fill: #98df8a; stroke: #ffffff; stroke-width: 0.75; stroke-linejoin: miter"/>
     <use xlink:href="#m23a9556faf" x="689.570717" y="86.505024" style="fill: #98df8a; stroke: #ffffff; stroke-width: 0.75; stroke-linejoin: miter"/>
     <use xlink:href="#m23a9556faf" x="692.072556" y="83.974681" style="fill: #98df8a; stroke: #ffffff; stroke-width: 0.75; stroke-linejoin: miter"/>
     <use xlink:href="#m23a9556faf" x="694.463164" y="83.227322" style="fill: #98df8a; stroke: #ffffff; stroke-width: 0.75; stroke-linejoin: miter"/>
     <use xlink:href="#m23a9556faf" x="696.752013" y="81.839371" style="fill: #98df8a; stroke: #ffffff; stroke-width: 0.75; stroke-linejoin: miter"/>
     <use xlink:href="#m23a9556faf" x="698.947414" y="79.746766" style="fill: #98df8a; stroke: #ffffff; stroke-width: 0.75; stroke-linejoin: miter"/>
     <use xlink:href="#m23a9556faf" x="701.056697" y="78.198666" style="fill: #98df8a; stroke: #ffffff; stroke-width: 0.75; stroke-linejoin: miter"/>
     <use xlink:href="#m23a9556faf" x="703.086366" y="76.864097" style="fill: #98df8a; stroke: #ffffff; stroke-width: 0.75; stroke-linejoin: miter"/>
     <use xlink:href="#m23a9556faf" x="705.042212" y="75.881854" style="fill: #98df8a; stroke: #ffffff; stroke-width: 0.75; stroke-linejoin: miter"/>
     <use xlink:href="#m23a9556faf" x="706.929417" y="75.561558" style="fill: #98df8a; stroke: #ffffff; stroke-width: 0.75; stroke-linejoin: miter"/>
     <use xlink:href="#m23a9556faf" x="708.752637" y="75.166525" style="fill: #98df8a; stroke: #ffffff; stroke-width: 0.75; stroke-linejoin: miter"/>
     <use xlink:href="#m23a9556faf" x="710.516069" y="75.166525" style="fill: #98df8a; stroke: #ffffff; stroke-width: 0.75; stroke-linejoin: miter"/>
     <use xlink:href="#m23a9556faf" x="712.223508" y="75.145172" style="fill: #98df8a; stroke: #ffffff; stroke-width: 0.75; stroke-linejoin: miter"/>
     <use xlink:href="#m23a9556faf" x="713.878403" y="75.102466" style="fill: #98df8a; stroke: #ffffff; stroke-width: 0.75; stroke-linejoin: miter"/>
     <use xlink:href="#m23a9556faf" x="715.483891" y="74.205636" style="fill: #98df8a; stroke: #ffffff; stroke-width: 0.75; stroke-linejoin: miter"/>
     <use xlink:href="#m23a9556faf" x="717.042836" y="71.728676" style="fill: #98df8a; stroke: #ffffff; stroke-width: 0.75; stroke-linejoin: miter"/>
     <use xlink:href="#m23a9556faf" x="718.557861" y="70.500872" style="fill: #98df8a; stroke: #ffffff; stroke-width: 0.75; stroke-linejoin: miter"/>
     <use xlink:href="#m23a9556faf" x="720.031373" y="70.3514" style="fill: #98df8a; stroke: #ffffff; stroke-width: 0.75; stroke-linejoin: miter"/>
     <use xlink:href="#m23a9556faf" x="721.465587" y="69.977721" style="fill: #98df8a; stroke: #ffffff; stroke-width: 0.75; stroke-linejoin: miter"/>
     <use xlink:href="#m23a9556faf" x="722.862545" y="69.497276" style="fill: #98df8a; stroke: #ffffff; stroke-width: 0.75; stroke-linejoin: miter"/>
     <use xlink:href="#m23a9556faf" x="724.224132" y="67.159111" style="fill: #98df8a; stroke: #ffffff; stroke-width: 0.75; stroke-linejoin: miter"/>
     <use xlink:href="#m23a9556faf" x="725.552097" y="65.771159" style="fill: #98df8a; stroke: #ffffff; stroke-width: 0.75; stroke-linejoin: miter"/>
     <use xlink:href="#m23a9556faf" x="726.848059" y="65.248008" style="fill: #98df8a; stroke: #ffffff; stroke-width: 0.75; stroke-linejoin: miter"/>
     <use xlink:href="#m23a9556faf" x="728.113525" y="64.703504" style="fill: #98df8a; stroke: #ffffff; stroke-width: 0.75; stroke-linejoin: miter"/>
     <use xlink:href="#m23a9556faf" x="729.349898" y="63.806674" style="fill: #98df8a; stroke: #ffffff; stroke-width: 0.75; stroke-linejoin: miter"/>
     <use xlink:href="#m23a9556faf" x="730.558485" y="63.390288" style="fill: #98df8a; stroke: #ffffff; stroke-width: 0.75; stroke-linejoin: miter"/>
     <use xlink:href="#m23a9556faf" x="731.740507" y="61.212271" style="fill: #98df8a; stroke: #ffffff; stroke-width: 0.75; stroke-linejoin: miter"/>
     <use xlink:href="#m23a9556faf" x="732.897107" y="60.091233" style="fill: #98df8a; stroke: #ffffff; stroke-width: 0.75; stroke-linejoin: miter"/>
     <use xlink:href="#m23a9556faf" x="734.029356" y="59.333198" style="fill: #98df8a; stroke: #ffffff; stroke-width: 0.75; stroke-linejoin: miter"/>
     <use xlink:href="#m23a9556faf" x="735.138258" y="59.151697" style="fill: #98df8a; stroke: #ffffff; stroke-width: 0.75; stroke-linejoin: miter"/>
     <use xlink:href="#m23a9556faf" x="736.224756" y="58.52178" style="fill: #98df8a; stroke: #ffffff; stroke-width: 0.75; stroke-linejoin: miter"/>
     <use xlink:href="#m23a9556faf" x="737.289738" y="58.148101" style="fill: #98df8a; stroke: #ffffff; stroke-width: 0.75; stroke-linejoin: miter"/>
     <use xlink:href="#m23a9556faf" x="738.334039" y="56.856238" style="fill: #98df8a; stroke: #ffffff; stroke-width: 0.75; stroke-linejoin: miter"/>
     <use xlink:href="#m23a9556faf" x="739.358448" y="56.162262" style="fill: #98df8a; stroke: #ffffff; stroke-width: 0.75; stroke-linejoin: miter"/>
     <use xlink:href="#m23a9556faf" x="740.363708" y="55.158666" style="fill: #98df8a; stroke: #ffffff; stroke-width: 0.75; stroke-linejoin: miter"/>
     <use xlink:href="#m23a9556faf" x="741.350522" y="54.966488" style="fill: #98df8a; stroke: #ffffff; stroke-width: 0.75; stroke-linejoin: miter"/>
     <use xlink:href="#m23a9556faf" x="742.319554" y="54.688898" style="fill: #98df8a; stroke: #ffffff; stroke-width: 0.75; stroke-linejoin: miter"/>
     <use xlink:href="#m23a9556faf" x="743.271434" y="53.375682" style="fill: #98df8a; stroke: #ffffff; stroke-width: 0.75; stroke-linejoin: miter"/>
     <use xlink:href="#m23a9556faf" x="744.20676" y="52.393439" style="fill: #98df8a; stroke: #ffffff; stroke-width: 0.75; stroke-linejoin: miter"/>
     <use xlink:href="#m23a9556faf" x="745.126095" y="52.137202" style="fill: #98df8a; stroke: #ffffff; stroke-width: 0.75; stroke-linejoin: miter"/>
     <use xlink:href="#m23a9556faf" x="746.029979" y="51.485932" style="fill: #98df8a; stroke: #ffffff; stroke-width: 0.75; stroke-linejoin: miter"/>
     <use xlink:href="#m23a9556faf" x="746.918923" y="51.229695" style="fill: #98df8a; stroke: #ffffff; stroke-width: 0.75; stroke-linejoin: miter"/>
     <use xlink:href="#m23a9556faf" x="747.793411" y="51.144283" style="fill: #98df8a; stroke: #ffffff; stroke-width: 0.75; stroke-linejoin: miter"/>
     <use xlink:href="#m23a9556faf" x="748.653907" y="51.112253" style="fill: #98df8a; stroke: #ffffff; stroke-width: 0.75; stroke-linejoin: miter"/>
     <use xlink:href="#m23a9556faf" x="749.500851" y="51.005487" style="fill: #98df8a; stroke: #ffffff; stroke-width: 0.75; stroke-linejoin: miter"/>
     <use xlink:href="#m23a9556faf" x="750.334663" y="50.834663" style="fill: #98df8a; stroke: #ffffff; stroke-width: 0.75; stroke-linejoin: miter"/>
     <use xlink:href="#m23a9556faf" x="751.155745" y="50.236776" style="fill: #98df8a; stroke: #ffffff; stroke-width: 0.75; stroke-linejoin: miter"/>
     <use xlink:href="#m23a9556faf" x="751.96448" y="49.062355" style="fill: #98df8a; stroke: #ffffff; stroke-width: 0.75; stroke-linejoin: miter"/>
     <use xlink:href="#m23a9556faf" x="752.761233" y="47.354106" style="fill: #98df8a; stroke: #ffffff; stroke-width: 0.75; stroke-linejoin: miter"/>
     <use xlink:href="#m23a9556faf" x="753.546354" y="46.4466" style="fill: #98df8a; stroke: #ffffff; stroke-width: 0.75; stroke-linejoin: miter"/>
     <use xlink:href="#m23a9556faf" x="754.320178" y="46.126303" style="fill: #98df8a; stroke: #ffffff; stroke-width: 0.75; stroke-linejoin: miter"/>
     <use xlink:href="#m23a9556faf" x="755.083025" y="45.806006" style="fill: #98df8a; stroke: #ffffff; stroke-width: 0.75; stroke-linejoin: miter"/>
     <use xlink:href="#m23a9556faf" x="755.835203" y="45.635182" style="fill: #98df8a; stroke: #ffffff; stroke-width: 0.75; stroke-linejoin: miter"/>
     <use xlink:href="#m23a9556faf" x="756.577006" y="45.047971" style="fill: #98df8a; stroke: #ffffff; stroke-width: 0.75; stroke-linejoin: miter"/>
     <use xlink:href="#m23a9556faf" x="757.308715" y="44.951882" style="fill: #98df8a; stroke: #ffffff; stroke-width: 0.75; stroke-linejoin: miter"/>
     <use xlink:href="#m23a9556faf" x="758.030603" y="44.599556" style="fill: #98df8a; stroke: #ffffff; stroke-width: 0.75; stroke-linejoin: miter"/>
     <use xlink:href="#m23a9556faf" x="758.742929" y="44.18317" style="fill: #98df8a; stroke: #ffffff; stroke-width: 0.75; stroke-linejoin: miter"/>
     <use xlink:href="#m23a9556faf" x="759.445944" y="43.382429" style="fill: #98df8a; stroke: #ffffff; stroke-width: 0.75; stroke-linejoin: miter"/>
     <use xlink:href="#m23a9556faf" x="760.139887" y="42.763189" style="fill: #98df8a; stroke: #ffffff; stroke-width: 0.75; stroke-linejoin: miter"/>
     <use xlink:href="#m23a9556faf" x="760.82499" y="42.741836" style="fill: #98df8a; stroke: #ffffff; stroke-width: 0.75; stroke-linejoin: miter"/>
     <use xlink:href="#m23a9556faf" x="761.501474" y="42.186655" style="fill: #98df8a; stroke: #ffffff; stroke-width: 0.75; stroke-linejoin: miter"/>
     <use xlink:href="#m23a9556faf" x="762.169555" y="41.994477" style="fill: #98df8a; stroke: #ffffff; stroke-width: 0.75; stroke-linejoin: miter"/>
     <use xlink:href="#m23a9556faf" x="762.829439" y="41.898388" style="fill: #98df8a; stroke: #ffffff; stroke-width: 0.75; stroke-linejoin: miter"/>
     <use xlink:href="#m23a9556faf" x="763.481324" y="41.610121" style="fill: #98df8a; stroke: #ffffff; stroke-width: 0.75; stroke-linejoin: miter"/>
     <use xlink:href="#m23a9556faf" x="764.125401" y="40.990881" style="fill: #98df8a; stroke: #ffffff; stroke-width: 0.75; stroke-linejoin: miter"/>
     <use xlink:href="#m23a9556faf" x="764.761857" y="40.894792" style="fill: #98df8a; stroke: #ffffff; stroke-width: 0.75; stroke-linejoin: miter"/>
     <use xlink:href="#m23a9556faf" x="765.390868" y="40.521113" style="fill: #98df8a; stroke: #ffffff; stroke-width: 0.75; stroke-linejoin: miter"/>
     <use xlink:href="#m23a9556faf" x="766.012607" y="40.126081" style="fill: #98df8a; stroke: #ffffff; stroke-width: 0.75; stroke-linejoin: miter"/>
     <use xlink:href="#m23a9556faf" x="766.62724" y="40.104727" style="fill: #98df8a; stroke: #ffffff; stroke-width: 0.75; stroke-linejoin: miter"/>
     <use xlink:href="#m23a9556faf" x="767.234929" y="40.104727" style="fill: #98df8a; stroke: #ffffff; stroke-width: 0.75; stroke-linejoin: miter"/>
     <use xlink:href="#m23a9556faf" x="767.835827" y="39.869843" style="fill: #98df8a; stroke: #ffffff; stroke-width: 0.75; stroke-linejoin: miter"/>
     <use xlink:href="#m23a9556faf" x="768.430085" y="39.442781" style="fill: #98df8a; stroke: #ffffff; stroke-width: 0.75; stroke-linejoin: miter"/>
     <use xlink:href="#m23a9556faf" x="769.017849" y="39.346692" style="fill: #98df8a; stroke: #ffffff; stroke-width: 0.75; stroke-linejoin: miter"/>
     <use xlink:href="#m23a9556faf" x="769.599258" y="39.314663" style="fill: #98df8a; stroke: #ffffff; stroke-width: 0.75; stroke-linejoin: miter"/>
     <use xlink:href="#m23a9556faf" x="770.174449" y="39.015719" style="fill: #98df8a; stroke: #ffffff; stroke-width: 0.75; stroke-linejoin: miter"/>
     <use xlink:href="#m23a9556faf" x="770.743553" y="38.866247" style="fill: #98df8a; stroke: #ffffff; stroke-width: 0.75; stroke-linejoin: miter"/>
     <use xlink:href="#m23a9556faf" x="771.306698" y="38.866247" style="fill: #98df8a; stroke: #ffffff; stroke-width: 0.75; stroke-linejoin: miter"/>
    </g>
   </g>
   <g id="line2d_20">
    <path d="M 59.690625 276.334125 
L 525.836797 217.794588 
L 563.114139 205.943615 
L 584.919987 196.708397 
L 600.391482 189.26684 
L 612.392105 185.263133 
L 622.197329 180.714922 
L 630.487527 171.671882 
L 637.668824 166.942169 
L 644.003176 164.038147 
L 649.669448 158.272809 
L 654.795213 156.425765 
L 659.474671 146.902281 
L 663.779355 137.186618 
L 667.76487 129.595589 
L 671.475295 126.253828 
L 674.946166 124.075812 
L 678.206548 122.122003 
L 681.280519 117.605821 
L 684.188245 114.57368 
L 686.94679 112.224839 
L 689.570717 106.49153 
L 692.072556 103.67292 
L 694.463164 96.679778 
L 696.752013 95.964449 
L 698.947414 95.772271 
L 701.056697 92.579982 
L 703.086366 92.569306 
L 705.042212 88.768453 
L 706.929417 85.362633 
L 708.752637 83.72912 
L 710.516069 83.131233 
L 712.223508 82.106284 
L 713.878403 81.476368 
L 715.483891 78.978055 
L 717.042836 77.344542 
L 718.557861 77.088305 
L 720.031373 75.903207 
L 721.465587 74.429843 
L 722.862545 73.180687 
L 724.224132 71.056053 
L 725.552097 70.372753 
L 726.848059 70.362077 
L 728.113525 68.536386 
L 729.349898 67.084375 
L 730.558485 65.632364 
L 731.740507 65.42951 
L 732.897107 65.354774 
L 734.029356 64.265765 
L 735.138258 63.176757 
L 736.224756 61.948954 
L 737.289738 60.891975 
L 738.334039 60.635738 
L 739.358448 58.89546 
L 740.363708 57.62495 
L 741.350522 56.418499 
L 742.319554 55.980761 
L 743.271434 55.938055 
L 744.20676 55.222726 
L 745.126095 54.432661 
L 746.029979 54.026952 
L 746.918923 53.674625 
L 747.793411 53.375682 
L 748.653907 53.322299 
L 749.500851 53.108768 
L 750.334663 52.350733 
L 751.155745 52.009083 
L 751.96448 51.475256 
L 752.761233 51.443226 
L 753.546354 50.984134 
L 754.320178 50.428954 
L 755.083025 50.300835 
L 755.835203 50.247452 
L 756.577006 49.863096 
L 757.308715 49.863096 
L 758.030603 49.809714 
L 758.742929 49.5428 
L 759.445944 49.414681 
L 760.139887 49.371975 
L 760.82499 48.016053 
L 761.501474 47.023133 
L 762.169555 46.040891 
L 762.829439 45.966155 
L 763.481324 45.902095 
L 764.125401 45.7633 
L 764.761857 45.528416 
L 765.390868 45.368268 
L 766.012607 45.293532 
L 766.62724 44.407378 
L 767.234929 43.894903 
L 767.835827 43.062132 
L 768.430085 42.934014 
L 769.017849 42.837925 
L 769.599258 42.165302 
L 770.174449 41.663504 
L 770.743553 41.535385 
L 771.306698 41.535385 
" clip-path="url(#p6ecbcd5e57)" style="fill: none; stroke: #1f77b4; stroke-width: 1.5; stroke-linecap: square"/>
    <defs>
     <path id="m0489dfdff8" d="M 0 3 
C 0.795609 3 1.55874 2.683901 2.12132 2.12132 
C 2.683901 1.55874 3 0.795609 3 0 
C 3 -0.795609 2.683901 -1.55874 2.12132 -2.12132 
C 1.55874 -2.683901 0.795609 -3 0 -3 
C -0.795609 -3 -1.55874 -2.683901 -2.12132 -2.12132 
C -2.683901 -1.55874 -3 -0.795609 -3 0 
C -3 0.795609 -2.683901 1.55874 -2.12132 2.12132 
C -1.55874 2.683901 -0.795609 3 0 3 
z
" style="stroke: #ffffff; stroke-width: 0.75"/>
    </defs>
    <g clip-path="url(#p6ecbcd5e57)">
     <use xlink:href="#m0489dfdff8" x="59.690625" y="276.334125" style="fill: #1f77b4; stroke: #ffffff; stroke-width: 0.75"/>
     <use xlink:href="#m0489dfdff8" x="525.836797" y="217.794588" style="fill: #1f77b4; stroke: #ffffff; stroke-width: 0.75"/>
     <use xlink:href="#m0489dfdff8" x="563.114139" y="205.943615" style="fill: #1f77b4; stroke: #ffffff; stroke-width: 0.75"/>
     <use xlink:href="#m0489dfdff8" x="584.919987" y="196.708397" style="fill: #1f77b4; stroke: #ffffff; stroke-width: 0.75"/>
     <use xlink:href="#m0489dfdff8" x="600.391482" y="189.26684" style="fill: #1f77b4; stroke: #ffffff; stroke-width: 0.75"/>
     <use xlink:href="#m0489dfdff8" x="612.392105" y="185.263133" style="fill: #1f77b4; stroke: #ffffff; stroke-width: 0.75"/>
     <use xlink:href="#m0489dfdff8" x="622.197329" y="180.714922" style="fill: #1f77b4; stroke: #ffffff; stroke-width: 0.75"/>
     <use xlink:href="#m0489dfdff8" x="630.487527" y="171.671882" style="fill: #1f77b4; stroke: #ffffff; stroke-width: 0.75"/>
     <use xlink:href="#m0489dfdff8" x="637.668824" y="166.942169" style="fill: #1f77b4; stroke: #ffffff; stroke-width: 0.75"/>
     <use xlink:href="#m0489dfdff8" x="644.003176" y="164.038147" style="fill: #1f77b4; stroke: #ffffff; stroke-width: 0.75"/>
     <use xlink:href="#m0489dfdff8" x="649.669448" y="158.272809" style="fill: #1f77b4; stroke: #ffffff; stroke-width: 0.75"/>
     <use xlink:href="#m0489dfdff8" x="654.795213" y="156.425765" style="fill: #1f77b4; stroke: #ffffff; stroke-width: 0.75"/>
     <use xlink:href="#m0489dfdff8" x="659.474671" y="146.902281" style="fill: #1f77b4; stroke: #ffffff; stroke-width: 0.75"/>
     <use xlink:href="#m0489dfdff8" x="663.779355" y="137.186618" style="fill: #1f77b4; stroke: #ffffff; stroke-width: 0.75"/>
     <use xlink:href="#m0489dfdff8" x="667.76487" y="129.595589" style="fill: #1f77b4; stroke: #ffffff; stroke-width: 0.75"/>
     <use xlink:href="#m0489dfdff8" x="671.475295" y="126.253828" style="fill: #1f77b4; stroke: #ffffff; stroke-width: 0.75"/>
     <use xlink:href="#m0489dfdff8" x="674.946166" y="124.075812" style="fill: #1f77b4; stroke: #ffffff; stroke-width: 0.75"/>
     <use xlink:href="#m0489dfdff8" x="678.206548" y="122.122003" style="fill: #1f77b4; stroke: #ffffff; stroke-width: 0.75"/>
     <use xlink:href="#m0489dfdff8" x="681.280519" y="117.605821" style="fill: #1f77b4; stroke: #ffffff; stroke-width: 0.75"/>
     <use xlink:href="#m0489dfdff8" x="684.188245" y="114.57368" style="fill: #1f77b4; stroke: #ffffff; stroke-width: 0.75"/>
     <use xlink:href="#m0489dfdff8" x="686.94679" y="112.224839" style="fill: #1f77b4; stroke: #ffffff; stroke-width: 0.75"/>
     <use xlink:href="#m0489dfdff8" x="689.570717" y="106.49153" style="fill: #1f77b4; stroke: #ffffff; stroke-width: 0.75"/>
     <use xlink:href="#m0489dfdff8" x="692.072556" y="103.67292" style="fill: #1f77b4; stroke: #ffffff; stroke-width: 0.75"/>
     <use xlink:href="#m0489dfdff8" x="694.463164" y="96.679778" style="fill: #1f77b4; stroke: #ffffff; stroke-width: 0.75"/>
     <use xlink:href="#m0489dfdff8" x="696.752013" y="95.964449" style="fill: #1f77b4; stroke: #ffffff; stroke-width: 0.75"/>
     <use xlink:href="#m0489dfdff8" x="698.947414" y="95.772271" style="fill: #1f77b4; stroke: #ffffff; stroke-width: 0.75"/>
     <use xlink:href="#m0489dfdff8" x="701.056697" y="92.579982" style="fill: #1f77b4; stroke: #ffffff; stroke-width: 0.75"/>
     <use xlink:href="#m0489dfdff8" x="703.086366" y="92.569306" style="fill: #1f77b4; stroke: #ffffff; stroke-width: 0.75"/>
     <use xlink:href="#m0489dfdff8" x="705.042212" y="88.768453" style="fill: #1f77b4; stroke: #ffffff; stroke-width: 0.75"/>
     <use xlink:href="#m0489dfdff8" x="706.929417" y="85.362633" style="fill: #1f77b4; stroke: #ffffff; stroke-width: 0.75"/>
     <use xlink:href="#m0489dfdff8" x="708.752637" y="83.72912" style="fill: #1f77b4; stroke: #ffffff; stroke-width: 0.75"/>
     <use xlink:href="#m0489dfdff8" x="710.516069" y="83.131233" style="fill: #1f77b4; stroke: #ffffff; stroke-width: 0.75"/>
     <use xlink:href="#m0489dfdff8" x="712.223508" y="82.106284" style="fill: #1f77b4; stroke: #ffffff; stroke-width: 0.75"/>
     <use xlink:href="#m0489dfdff8" x="713.878403" y="81.476368" style="fill: #1f77b4; stroke: #ffffff; stroke-width: 0.75"/>
     <use xlink:href="#m0489dfdff8" x="715.483891" y="78.978055" style="fill: #1f77b4; stroke: #ffffff; stroke-width: 0.75"/>
     <use xlink:href="#m0489dfdff8" x="717.042836" y="77.344542" style="fill: #1f77b4; stroke: #ffffff; stroke-width: 0.75"/>
     <use xlink:href="#m0489dfdff8" x="718.557861" y="77.088305" style="fill: #1f77b4; stroke: #ffffff; stroke-width: 0.75"/>
     <use xlink:href="#m0489dfdff8" x="720.031373" y="75.903207" style="fill: #1f77b4; stroke: #ffffff; stroke-width: 0.75"/>
     <use xlink:href="#m0489dfdff8" x="721.465587" y="74.429843" style="fill: #1f77b4; stroke: #ffffff; stroke-width: 0.75"/>
     <use xlink:href="#m0489dfdff8" x="722.862545" y="73.180687" style="fill: #1f77b4; stroke: #ffffff; stroke-width: 0.75"/>
     <use xlink:href="#m0489dfdff8" x="724.224132" y="71.056053" style="fill: #1f77b4; stroke: #ffffff; stroke-width: 0.75"/>
     <use xlink:href="#m0489dfdff8" x="725.552097" y="70.372753" style="fill: #1f77b4; stroke: #ffffff; stroke-width: 0.75"/>
     <use xlink:href="#m0489dfdff8" x="726.848059" y="70.362077" style="fill: #1f77b4; stroke: #ffffff; stroke-width: 0.75"/>
     <use xlink:href="#m0489dfdff8" x="728.113525" y="68.536386" style="fill: #1f77b4; stroke: #ffffff; stroke-width: 0.75"/>
     <use xlink:href="#m0489dfdff8" x="729.349898" y="67.084375" style="fill: #1f77b4; stroke: #ffffff; stroke-width: 0.75"/>
     <use xlink:href="#m0489dfdff8" x="730.558485" y="65.632364" style="fill: #1f77b4; stroke: #ffffff; stroke-width: 0.75"/>
     <use xlink:href="#m0489dfdff8" x="731.740507" y="65.42951" style="fill: #1f77b4; stroke: #ffffff; stroke-width: 0.75"/>
     <use xlink:href="#m0489dfdff8" x="732.897107" y="65.354774" style="fill: #1f77b4; stroke: #ffffff; stroke-width: 0.75"/>
     <use xlink:href="#m0489dfdff8" x="734.029356" y="64.265765" style="fill: #1f77b4; stroke: #ffffff; stroke-width: 0.75"/>
     <use xlink:href="#m0489dfdff8" x="735.138258" y="63.176757" style="fill: #1f77b4; stroke: #ffffff; stroke-width: 0.75"/>
     <use xlink:href="#m0489dfdff8" x="736.224756" y="61.948954" style="fill: #1f77b4; stroke: #ffffff; stroke-width: 0.75"/>
     <use xlink:href="#m0489dfdff8" x="737.289738" y="60.891975" style="fill: #1f77b4; stroke: #ffffff; stroke-width: 0.75"/>
     <use xlink:href="#m0489dfdff8" x="738.334039" y="60.635738" style="fill: #1f77b4; stroke: #ffffff; stroke-width: 0.75"/>
     <use xlink:href="#m0489dfdff8" x="739.358448" y="58.89546" style="fill: #1f77b4; stroke: #ffffff; stroke-width: 0.75"/>
     <use xlink:href="#m0489dfdff8" x="740.363708" y="57.62495" style="fill: #1f77b4; stroke: #ffffff; stroke-width: 0.75"/>
     <use xlink:href="#m0489dfdff8" x="741.350522" y="56.418499" style="fill: #1f77b4; stroke: #ffffff; stroke-width: 0.75"/>
     <use xlink:href="#m0489dfdff8" x="742.319554" y="55.980761" style="fill: #1f77b4; stroke: #ffffff; stroke-width: 0.75"/>
     <use xlink:href="#m0489dfdff8" x="743.271434" y="55.938055" style="fill: #1f77b4; stroke: #ffffff; stroke-width: 0.75"/>
     <use xlink:href="#m0489dfdff8" x="744.20676" y="55.222726" style="fill: #1f77b4; stroke: #ffffff; stroke-width: 0.75"/>
     <use xlink:href="#m0489dfdff8" x="745.126095" y="54.432661" style="fill: #1f77b4; stroke: #ffffff; stroke-width: 0.75"/>
     <use xlink:href="#m0489dfdff8" x="746.029979" y="54.026952" style="fill: #1f77b4; stroke: #ffffff; stroke-width: 0.75"/>
     <use xlink:href="#m0489dfdff8" x="746.918923" y="53.674625" style="fill: #1f77b4; stroke: #ffffff; stroke-width: 0.75"/>
     <use xlink:href="#m0489dfdff8" x="747.793411" y="53.375682" style="fill: #1f77b4; stroke: #ffffff; stroke-width: 0.75"/>
     <use xlink:href="#m0489dfdff8" x="748.653907" y="53.322299" style="fill: #1f77b4; stroke: #ffffff; stroke-width: 0.75"/>
     <use xlink:href="#m0489dfdff8" x="749.500851" y="53.108768" style="fill: #1f77b4; stroke: #ffffff; stroke-width: 0.75"/>
     <use xlink:href="#m0489dfdff8" x="750.334663" y="52.350733" style="fill: #1f77b4; stroke: #ffffff; stroke-width: 0.75"/>
     <use xlink:href="#m0489dfdff8" x="751.155745" y="52.009083" style="fill: #1f77b4; stroke: #ffffff; stroke-width: 0.75"/>
     <use xlink:href="#m0489dfdff8" x="751.96448" y="51.475256" style="fill: #1f77b4; stroke: #ffffff; stroke-width: 0.75"/>
     <use xlink:href="#m0489dfdff8" x="752.761233" y="51.443226" style="fill: #1f77b4; stroke: #ffffff; stroke-width: 0.75"/>
     <use xlink:href="#m0489dfdff8" x="753.546354" y="50.984134" style="fill: #1f77b4; stroke: #ffffff; stroke-width: 0.75"/>
     <use xlink:href="#m0489dfdff8" x="754.320178" y="50.428954" style="fill: #1f77b4; stroke: #ffffff; stroke-width: 0.75"/>
     <use xlink:href="#m0489dfdff8" x="755.083025" y="50.300835" style="fill: #1f77b4; stroke: #ffffff; stroke-width: 0.75"/>
     <use xlink:href="#m0489dfdff8" x="755.835203" y="50.247452" style="fill: #1f77b4; stroke: #ffffff; stroke-width: 0.75"/>
     <use xlink:href="#m0489dfdff8" x="756.577006" y="49.863096" style="fill: #1f77b4; stroke: #ffffff; stroke-width: 0.75"/>
     <use xlink:href="#m0489dfdff8" x="757.308715" y="49.863096" style="fill: #1f77b4; stroke: #ffffff; stroke-width: 0.75"/>
     <use xlink:href="#m0489dfdff8" x="758.030603" y="49.809714" style="fill: #1f77b4; stroke: #ffffff; stroke-width: 0.75"/>
     <use xlink:href="#m0489dfdff8" x="758.742929" y="49.5428" style="fill: #1f77b4; stroke: #ffffff; stroke-width: 0.75"/>
     <use xlink:href="#m0489dfdff8" x="759.445944" y="49.414681" style="fill: #1f77b4; stroke: #ffffff; stroke-width: 0.75"/>
     <use xlink:href="#m0489dfdff8" x="760.139887" y="49.371975" style="fill: #1f77b4; stroke: #ffffff; stroke-width: 0.75"/>
     <use xlink:href="#m0489dfdff8" x="760.82499" y="48.016053" style="fill: #1f77b4; stroke: #ffffff; stroke-width: 0.75"/>
     <use xlink:href="#m0489dfdff8" x="761.501474" y="47.023133" style="fill: #1f77b4; stroke: #ffffff; stroke-width: 0.75"/>
     <use xlink:href="#m0489dfdff8" x="762.169555" y="46.040891" style="fill: #1f77b4; stroke: #ffffff; stroke-width: 0.75"/>
     <use xlink:href="#m0489dfdff8" x="762.829439" y="45.966155" style="fill: #1f77b4; stroke: #ffffff; stroke-width: 0.75"/>
     <use xlink:href="#m0489dfdff8" x="763.481324" y="45.902095" style="fill: #1f77b4; stroke: #ffffff; stroke-width: 0.75"/>
     <use xlink:href="#m0489dfdff8" x="764.125401" y="45.7633" style="fill: #1f77b4; stroke: #ffffff; stroke-width: 0.75"/>
     <use xlink:href="#m0489dfdff8" x="764.761857" y="45.528416" style="fill: #1f77b4; stroke: #ffffff; stroke-width: 0.75"/>
     <use xlink:href="#m0489dfdff8" x="765.390868" y="45.368268" style="fill: #1f77b4; stroke: #ffffff; stroke-width: 0.75"/>
     <use xlink:href="#m0489dfdff8" x="766.012607" y="45.293532" style="fill: #1f77b4; stroke: #ffffff; stroke-width: 0.75"/>
     <use xlink:href="#m0489dfdff8" x="766.62724" y="44.407378" style="fill: #1f77b4; stroke: #ffffff; stroke-width: 0.75"/>
     <use xlink:href="#m0489dfdff8" x="767.234929" y="43.894903" style="fill: #1f77b4; stroke: #ffffff; stroke-width: 0.75"/>
     <use xlink:href="#m0489dfdff8" x="767.835827" y="43.062132" style="fill: #1f77b4; stroke: #ffffff; stroke-width: 0.75"/>
     <use xlink:href="#m0489dfdff8" x="768.430085" y="42.934014" style="fill: #1f77b4; stroke: #ffffff; stroke-width: 0.75"/>
     <use xlink:href="#m0489dfdff8" x="769.017849" y="42.837925" style="fill: #1f77b4; stroke: #ffffff; stroke-width: 0.75"/>
     <use xlink:href="#m0489dfdff8" x="769.599258" y="42.165302" style="fill: #1f77b4; stroke: #ffffff; stroke-width: 0.75"/>
     <use xlink:href="#m0489dfdff8" x="770.174449" y="41.663504" style="fill: #1f77b4; stroke: #ffffff; stroke-width: 0.75"/>
     <use xlink:href="#m0489dfdff8" x="770.743553" y="41.535385" style="fill: #1f77b4; stroke: #ffffff; stroke-width: 0.75"/>
     <use xlink:href="#m0489dfdff8" x="771.306698" y="41.535385" style="fill: #1f77b4; stroke: #ffffff; stroke-width: 0.75"/>
    </g>
   </g>
   <g id="line2d_21"/>
   <g id="line2d_22"/>
   <g id="line2d_23">
    <path d="M 771.306698 288.430125 
L 771.306698 22.318125 
" clip-path="url(#p6ecbcd5e57)" style="fill: none; stroke: #ff0000; stroke-width: 1.5; stroke-linecap: square"/>
   </g>
   <g id="patch_3">
    <path d="M 59.690625 271.188027 
L 59.690625 57.656979 
" style="fill: none; stroke: #000000; stroke-width: 0.8; stroke-linejoin: miter; stroke-linecap: square"/>
   </g>
   <g id="patch_4">
    <path d="M 59.690625 288.430125 
L 771.30732 288.430125 
" style="fill: none; stroke: #000000; stroke-width: 0.8; stroke-linejoin: miter; stroke-linecap: square"/>
   </g>
   <g id="text_17">
    <!-- sqlite3_ossfuzz (24h, at least 10 trials/fuzzer) -->
    <g transform="translate(280.459688 16.318125) scale(0.12 -0.12)">
     <defs>
      <path id="DejaVuSans-73" d="M 2834 3397 
L 2834 2853 
Q 2591 2978 2328 3040 
Q 2066 3103 1784 3103 
Q 1356 3103 1142 2972 
Q 928 2841 928 2578 
Q 928 2378 1081 2264 
Q 1234 2150 1697 2047 
L 1894 2003 
Q 2506 1872 2764 1633 
Q 3022 1394 3022 966 
Q 3022 478 2636 193 
Q 2250 -91 1575 -91 
Q 1294 -91 989 -36 
Q 684 19 347 128 
L 347 722 
Q 666 556 975 473 
Q 1284 391 1588 391 
Q 1994 391 2212 530 
Q 2431 669 2431 922 
Q 2431 1156 2273 1281 
Q 2116 1406 1581 1522 
L 1381 1569 
Q 847 1681 609 1914 
Q 372 2147 372 2553 
Q 372 3047 722 3315 
Q 1072 3584 1716 3584 
Q 2034 3584 2315 3537 
Q 2597 3491 2834 3397 
z
" transform="scale(0.015625)"/>
      <path id="DejaVuSans-71" d="M 947 1747 
Q 947 1113 1208 752 
Q 1469 391 1925 391 
Q 2381 391 2643 752 
Q 2906 1113 2906 1747 
Q 2906 2381 2643 2742 
Q 2381 3103 1925 3103 
Q 1469 3103 1208 2742 
Q 947 2381 947 1747 
z
M 2906 525 
Q 2725 213 2448 61 
Q 2172 -91 1784 -91 
Q 1150 -91 751 415 
Q 353 922 353 1747 
Q 353 2572 751 3078 
Q 1150 3584 1784 3584 
Q 2172 3584 2448 3432 
Q 2725 3281 2906 2969 
L 2906 3500 
L 3481 3500 
L 3481 -1331 
L 2906 -1331 
L 2906 525 
z
" transform="scale(0.015625)"/>
      <path id="DejaVuSans-6c" d="M 603 4863 
L 1178 4863 
L 1178 0 
L 603 0 
L 603 4863 
z
" transform="scale(0.015625)"/>
      <path id="DejaVuSans-33" d="M 2597 2516 
Q 3050 2419 3304 2112 
Q 3559 1806 3559 1356 
Q 3559 666 3084 287 
Q 2609 -91 1734 -91 
Q 1441 -91 1130 -33 
Q 819 25 488 141 
L 488 750 
Q 750 597 1062 519 
Q 1375 441 1716 441 
Q 2309 441 2620 675 
Q 2931 909 2931 1356 
Q 2931 1769 2642 2001 
Q 2353 2234 1838 2234 
L 1294 2234 
L 1294 2753 
L 1863 2753 
Q 2328 2753 2575 2939 
Q 2822 3125 2822 3475 
Q 2822 3834 2567 4026 
Q 2313 4219 1838 4219 
Q 1578 4219 1281 4162 
Q 984 4106 628 3988 
L 628 4550 
Q 988 4650 1302 4700 
Q 1616 4750 1894 4750 
Q 2613 4750 3031 4423 
Q 3450 4097 3450 3541 
Q 3450 3153 3228 2886 
Q 3006 2619 2597 2516 
z
" transform="scale(0.015625)"/>
      <path id="DejaVuSans-5f" d="M 3263 -1063 
L 3263 -1509 
L -63 -1509 
L -63 -1063 
L 3263 -1063 
z
" transform="scale(0.015625)"/>
      <path id="DejaVuSans-66" d="M 2375 4863 
L 2375 4384 
L 1825 4384 
Q 1516 4384 1395 4259 
Q 1275 4134 1275 3809 
L 1275 3500 
L 2222 3500 
L 2222 3053 
L 1275 3053 
L 1275 0 
L 697 0 
L 697 3053 
L 147 3053 
L 147 3500 
L 697 3500 
L 697 3744 
Q 697 4328 969 4595 
Q 1241 4863 1831 4863 
L 2375 4863 
z
" transform="scale(0.015625)"/>
      <path id="DejaVuSans-7a" d="M 353 3500 
L 3084 3500 
L 3084 2975 
L 922 459 
L 3084 459 
L 3084 0 
L 275 0 
L 275 525 
L 2438 3041 
L 353 3041 
L 353 3500 
z
" transform="scale(0.015625)"/>
      <path id="DejaVuSans-2c" d="M 750 794 
L 1409 794 
L 1409 256 
L 897 -744 
L 494 -744 
L 750 256 
L 750 794 
z
" transform="scale(0.015625)"/>
      <path id="DejaVuSans-2f" d="M 1625 4666 
L 2156 4666 
L 531 -594 
L 0 -594 
L 1625 4666 
z
" transform="scale(0.015625)"/>
     </defs>
     <use xlink:href="#DejaVuSans-73"/>
     <use xlink:href="#DejaVuSans-71" x="52.099609"/>
     <use xlink:href="#DejaVuSans-6c" x="115.576172"/>
     <use xlink:href="#DejaVuSans-69" x="143.359375"/>
     <use xlink:href="#DejaVuSans-74" x="171.142578"/>
     <use xlink:href="#DejaVuSans-65" x="210.351562"/>
     <use xlink:href="#DejaVuSans-33" x="271.875"/>
     <use xlink:href="#DejaVuSans-5f" x="335.498047"/>
     <use xlink:href="#DejaVuSans-6f" x="385.498047"/>
     <use xlink:href="#DejaVuSans-73" x="446.679688"/>
     <use xlink:href="#DejaVuSans-73" x="498.779297"/>
     <use xlink:href="#DejaVuSans-66" x="550.878906"/>
     <use xlink:href="#DejaVuSans-75" x="586.083984"/>
     <use xlink:href="#DejaVuSans-7a" x="649.462891"/>
     <use xlink:href="#DejaVuSans-7a" x="701.953125"/>
     <use xlink:href="#DejaVuSans-20" x="754.443359"/>
     <use xlink:href="#DejaVuSans-28" x="786.230469"/>
     <use xlink:href="#DejaVuSans-32" x="825.244141"/>
     <use xlink:href="#DejaVuSans-34" x="888.867188"/>
     <use xlink:href="#DejaVuSans-68" x="952.490234"/>
     <use xlink:href="#DejaVuSans-2c" x="1015.869141"/>
     <use xlink:href="#DejaVuSans-20" x="1047.65625"/>
     <use xlink:href="#DejaVuSans-61" x="1079.443359"/>
     <use xlink:href="#DejaVuSans-74" x="1140.722656"/>
     <use xlink:href="#DejaVuSans-20" x="1179.931641"/>
     <use xlink:href="#DejaVuSans-6c" x="1211.71875"/>
     <use xlink:href="#DejaVuSans-65" x="1239.501953"/>
     <use xlink:href="#DejaVuSans-61" x="1301.025391"/>
     <use xlink:href="#DejaVuSans-73" x="1362.304688"/>
     <use xlink:href="#DejaVuSans-74" x="1414.404297"/>
     <use xlink:href="#DejaVuSans-20" x="1453.613281"/>
     <use xlink:href="#DejaVuSans-31" x="1485.400391"/>
     <use xlink:href="#DejaVuSans-30" x="1549.023438"/>
     <use xlink:href="#DejaVuSans-20" x="1612.646484"/>
     <use xlink:href="#DejaVuSans-74" x="1644.433594"/>
     <use xlink:href="#DejaVuSans-72" x="1683.642578"/>
     <use xlink:href="#DejaVuSans-69" x="1724.755859"/>
     <use xlink:href="#DejaVuSans-61" x="1752.539062"/>
     <use xlink:href="#DejaVuSans-6c" x="1813.818359"/>
     <use xlink:href="#DejaVuSans-73" x="1841.601562"/>
     <use xlink:href="#DejaVuSans-2f" x="1893.701172"/>
     <use xlink:href="#DejaVuSans-66" x="1927.392578"/>
     <use xlink:href="#DejaVuSans-75" x="1962.597656"/>
     <use xlink:href="#DejaVuSans-7a" x="2025.976562"/>
     <use xlink:href="#DejaVuSans-7a" x="2078.466797"/>
     <use xlink:href="#DejaVuSans-65" x="2130.957031"/>
     <use xlink:href="#DejaVuSans-72" x="2192.480469"/>
     <use xlink:href="#DejaVuSans-29" x="2233.59375"/>
    </g>
   </g>
   <g id="legend_1">
    <g id="line2d_24">
     <path d="M 777.930625 30.416562 
L 787.930625 30.416562 
L 797.930625 30.416562 
" style="fill: none; stroke: #98df8a; stroke-width: 1.5; stroke-linecap: square"/>
     <defs>
      <path id="m0ea7c8fa96" d="M -0 3 
L 3 -3 
L -3 -3 
z
" style="stroke: #98df8a; stroke-linejoin: miter"/>
     </defs>
     <g>
      <use xlink:href="#m0ea7c8fa96" x="787.930625" y="30.416562" style="fill: #98df8a; stroke: #98df8a; stroke-linejoin: miter"/>
     </g>
    </g>
    <g id="text_18">
     <!-- darwin_no_pre_seed -->
     <g transform="translate(805.930625 33.916562) scale(0.1 -0.1)">
      <defs>
       <path id="DejaVuSans-77" d="M 269 3500 
L 844 3500 
L 1563 769 
L 2278 3500 
L 2956 3500 
L 3675 769 
L 4391 3500 
L 4966 3500 
L 4050 0 
L 3372 0 
L 2619 2869 
L 1863 0 
L 1184 0 
L 269 3500 
z
" transform="scale(0.015625)"/>
       <path id="DejaVuSans-70" d="M 1159 525 
L 1159 -1331 
L 581 -1331 
L 581 3500 
L 1159 3500 
L 1159 2969 
Q 1341 3281 1617 3432 
Q 1894 3584 2278 3584 
Q 2916 3584 3314 3078 
Q 3713 2572 3713 1747 
Q 3713 922 3314 415 
Q 2916 -91 2278 -91 
Q 1894 -91 1617 61 
Q 1341 213 1159 525 
z
M 3116 1747 
Q 3116 2381 2855 2742 
Q 2594 3103 2138 3103 
Q 1681 3103 1420 2742 
Q 1159 2381 1159 1747 
Q 1159 1113 1420 752 
Q 1681 391 2138 391 
Q 2594 391 2855 752 
Q 3116 1113 3116 1747 
z
" transform="scale(0.015625)"/>
      </defs>
      <use xlink:href="#DejaVuSans-64"/>
      <use xlink:href="#DejaVuSans-61" x="63.476562"/>
      <use xlink:href="#DejaVuSans-72" x="124.755859"/>
      <use xlink:href="#DejaVuSans-77" x="165.869141"/>
      <use xlink:href="#DejaVuSans-69" x="247.65625"/>
      <use xlink:href="#DejaVuSans-6e" x="275.439453"/>
      <use xlink:href="#DejaVuSans-5f" x="338.818359"/>
      <use xlink:href="#DejaVuSans-6e" x="388.818359"/>
      <use xlink:href="#DejaVuSans-6f" x="452.197266"/>
      <use xlink:href="#DejaVuSans-5f" x="513.378906"/>
      <use xlink:href="#DejaVuSans-70" x="563.378906"/>
      <use xlink:href="#DejaVuSans-72" x="626.855469"/>
      <use xlink:href="#DejaVuSans-65" x="665.71875"/>
      <use xlink:href="#DejaVuSans-5f" x="727.242188"/>
      <use xlink:href="#DejaVuSans-73" x="777.242188"/>
      <use xlink:href="#DejaVuSans-65" x="829.341797"/>
      <use xlink:href="#DejaVuSans-65" x="890.865234"/>
      <use xlink:href="#DejaVuSans-64" x="952.388672"/>
     </g>
    </g>
    <g id="line2d_25">
     <path d="M 777.930625 45.372813 
L 787.930625 45.372813 
L 797.930625 45.372813 
" style="fill: none; stroke: #1f77b4; stroke-width: 1.5; stroke-linecap: square"/>
     <defs>
      <path id="mcd43372bbb" d="M 0 3 
C 0.795609 3 1.55874 2.683901 2.12132 2.12132 
C 2.683901 1.55874 3 0.795609 3 0 
C 3 -0.795609 2.683901 -1.55874 2.12132 -2.12132 
C 1.55874 -2.683901 0.795609 -3 0 -3 
C -0.795609 -3 -1.55874 -2.683901 -2.12132 -2.12132 
C -2.683901 -1.55874 -3 -0.795609 -3 0 
C -3 0.795609 -2.683901 1.55874 -2.12132 2.12132 
C -1.55874 2.683901 -0.795609 3 0 3 
z
" style="stroke: #1f77b4"/>
     </defs>
     <g>
      <use xlink:href="#mcd43372bbb" x="787.930625" y="45.372813" style="fill: #1f77b4; stroke: #1f77b4"/>
     </g>
    </g>
    <g id="text_19">
     <!-- darwin -->
     <g transform="translate(805.930625 48.872813) scale(0.1 -0.1)">
      <use xlink:href="#DejaVuSans-64"/>
      <use xlink:href="#DejaVuSans-61" x="63.476562"/>
      <use xlink:href="#DejaVuSans-72" x="124.755859"/>
      <use xlink:href="#DejaVuSans-77" x="165.869141"/>
      <use xlink:href="#DejaVuSans-69" x="247.65625"/>
      <use xlink:href="#DejaVuSans-6e" x="275.439453"/>
     </g>
    </g>
   </g>
  </g>
 </g>
 <defs>
  <clipPath id="p6ecbcd5e57">
   <rect x="59.690625" y="22.318125" width="714.24" height="266.112"/>
  </clipPath>
 </defs>
</svg>
